//Event file generated from Sappy .s format.
        #include "MPlayDef.event"

        #define    _64___Temporal_Tower_grp  voicegroup000
        #define    _64___Temporal_Tower_pri  0
        #define    _64___Temporal_Tower_rev  0
        #define    _64___Temporal_Tower_key  0

        // .rodata
        // _64___Temporal_Tower
        ALIGN 4

//****************** Track 0 (Midi-Chn.0) ******************//

_64___Temporal_Tower_0:
        BYTE   KEYSH   _64___Temporal_Tower_key+0
// 000   ----------------------------------------
        BYTE   W24
// 001   ----------------------------------------
        BYTE   TEMPO   110/2
        BYTE           VOICE   88
        BYTE           VOL     74
        BYTE   W96
// 002   ----------------------------------------
        BYTE   W96
// 003   ----------------------------------------
        BYTE   W96
// 004   ----------------------------------------
        BYTE   W96
// 005   ----------------------------------------
        BYTE   W96
// 006   ----------------------------------------
        BYTE   W96
// 007   ----------------------------------------
        BYTE   W96
// 008   ----------------------------------------
        BYTE   W96
// 009   ----------------------------------------
        BYTE   W96
// 010   ----------------------------------------
        BYTE   W96
// 011   ----------------------------------------
        BYTE   W96
// 012   ----------------------------------------
        BYTE   W96
// 013   ----------------------------------------
_64___Temporal_Tower_0_13:
        BYTE   W48
        BYTE           N03     Bn4   v105
        BYTE   W18
        BYTE                   En4
        BYTE   W18
        BYTE                   Dn4
        BYTE   W12
        BYTE   PEND
// 014   ----------------------------------------
_64___Temporal_Tower_0_14:
        BYTE           N03     En4   v105
        BYTE   W48
        BYTE                   An4
        BYTE   W18
        BYTE                   Dn4
        BYTE   W18
        BYTE                   En4
        BYTE   W12
        BYTE   PEND
// 015   ----------------------------------------
_64___Temporal_Tower_0_15:
        BYTE           N03     An3   v105
        BYTE   W48
        BYTE                   En4
        BYTE   W18
        BYTE                   An3
        BYTE   W18
        BYTE                   Gn3
        BYTE   W12
        BYTE   PEND
// 016   ----------------------------------------
_64___Temporal_Tower_0_16:
        BYTE           N03     An3   v105
        BYTE   W48
        BYTE                   Dn4
        BYTE   W18
        BYTE                   Gn3
        BYTE   W18
        BYTE                   An3
        BYTE   W12
        BYTE   PEND
// 017   ----------------------------------------
        BYTE   PATT
         POIN2  _64___Temporal_Tower_0_13
// 018   ----------------------------------------
        BYTE   PATT
         POIN2  _64___Temporal_Tower_0_14
// 019   ----------------------------------------
        BYTE   PATT
         POIN2  _64___Temporal_Tower_0_15
// 020   ----------------------------------------
        BYTE   PATT
         POIN2  _64___Temporal_Tower_0_16
// 021   ----------------------------------------
        BYTE   W96
// 022   ----------------------------------------
        BYTE   W96
// 023   ----------------------------------------
        BYTE   W96
// 024   ----------------------------------------
        BYTE   W96
// 025   ----------------------------------------
        BYTE   W96
// 026   ----------------------------------------
        BYTE   W96
// 027   ----------------------------------------
        BYTE   W96
// 028   ----------------------------------------
_64___Temporal_Tower_0_28:
        BYTE   W32
        BYTE           VOICE   40
        BYTE   W01
        BYTE           PAN     c_v-20
        BYTE           VOL     103
        BYTE   W60
        BYTE   W03
        BYTE   PEND
// 029   ----------------------------------------
_64___Temporal_Tower_0_29:
        BYTE           N28     Bn3   v110   gtp1
        BYTE   W36
        BYTE           N03     An3
        BYTE   W06
        BYTE                   Gn3   v100
        BYTE   W06
        BYTE           N17     Fs3   v110
        BYTE   W18
        BYTE                   Dn3   v085
        BYTE   W18
        BYTE           N11     Fs3   v110
        BYTE   W12
        BYTE   PEND
// 030   ----------------------------------------
_64___Temporal_Tower_0_30:
        BYTE           N32     En3   v110   gtp3
        BYTE   W48
        BYTE           N17
        BYTE   W18
        BYTE                   Bn2   v085
        BYTE   W18
        BYTE           N11     An2   v110
        BYTE   W12
        BYTE   PEND
// 031   ----------------------------------------
        BYTE           N92     Bn2   v095   gtp3
        BYTE   W96
// 032   ----------------------------------------
        BYTE   W96
// 033   ----------------------------------------
        BYTE   PATT
         POIN2  _64___Temporal_Tower_0_29
// 034   ----------------------------------------
        BYTE   PATT
         POIN2  _64___Temporal_Tower_0_30
// 035   ----------------------------------------
        BYTE           N92     Bn2   v095   gtp3
        BYTE   W96
// 036   ----------------------------------------
_64___Temporal_Tower_0_36:
        BYTE   W02
        BYTE           VOICE   88
        BYTE   W01
        BYTE           VOL     74
        BYTE           PAN     c_v+0
        BYTE   W92
        BYTE   W01
        BYTE   PEND
// 037   ----------------------------------------
        BYTE   PATT
         POIN2  _64___Temporal_Tower_0_13
// 038   ----------------------------------------
        BYTE   PATT
         POIN2  _64___Temporal_Tower_0_14
// 039   ----------------------------------------
        BYTE   PATT
         POIN2  _64___Temporal_Tower_0_15
// 040   ----------------------------------------
        BYTE   PATT
         POIN2  _64___Temporal_Tower_0_16
// 041   ----------------------------------------
        BYTE   PATT
         POIN2  _64___Temporal_Tower_0_13
// 042   ----------------------------------------
        BYTE   PATT
         POIN2  _64___Temporal_Tower_0_14
// 043   ----------------------------------------
        BYTE   PATT
         POIN2  _64___Temporal_Tower_0_15
// 044   ----------------------------------------
        BYTE   PATT
         POIN2  _64___Temporal_Tower_0_16
// 045   ----------------------------------------
        BYTE   W96
// 046   ----------------------------------------
        BYTE   W96
// 047   ----------------------------------------
        BYTE   W96
// 048   ----------------------------------------
        BYTE   W96
// 049   ----------------------------------------
        BYTE   W96
// 050   ----------------------------------------
        BYTE   W96
// 051   ----------------------------------------
        BYTE   PATT
         POIN2  _64___Temporal_Tower_0_13
// 052   ----------------------------------------
        BYTE   PATT
         POIN2  _64___Temporal_Tower_0_14
// 053   ----------------------------------------
        BYTE   PATT
         POIN2  _64___Temporal_Tower_0_15
// 054   ----------------------------------------
        BYTE   PATT
         POIN2  _64___Temporal_Tower_0_16
// 055   ----------------------------------------
        BYTE   PATT
         POIN2  _64___Temporal_Tower_0_13
// 056   ----------------------------------------
        BYTE   PATT
         POIN2  _64___Temporal_Tower_0_14
// 057   ----------------------------------------
        BYTE   PATT
         POIN2  _64___Temporal_Tower_0_15
// 058   ----------------------------------------
        BYTE   PATT
         POIN2  _64___Temporal_Tower_0_16
// 059   ----------------------------------------
        BYTE   W96
// 060   ----------------------------------------
        BYTE   W96
// 061   ----------------------------------------
        BYTE   W96
// 062   ----------------------------------------
        BYTE   W96
// 063   ----------------------------------------
        BYTE   W96
// 064   ----------------------------------------
        BYTE   W96
// 065   ----------------------------------------
        BYTE   W96
// 066   ----------------------------------------
        BYTE   W96
// 067   ----------------------------------------
        BYTE   W96
// 068   ----------------------------------------
        BYTE   W96
// 069   ----------------------------------------
        BYTE   W96
// 070   ----------------------------------------
        BYTE   W96
// 071   ----------------------------------------
        BYTE   W96
// 072   ----------------------------------------
        BYTE   W96
// 073   ----------------------------------------
        BYTE   W96
// 074   ----------------------------------------
        BYTE   W96
// 075   ----------------------------------------
        BYTE   PATT
         POIN2  _64___Temporal_Tower_0_13
// 076   ----------------------------------------
        BYTE   PATT
         POIN2  _64___Temporal_Tower_0_14
// 077   ----------------------------------------
        BYTE   PATT
         POIN2  _64___Temporal_Tower_0_15
// 078   ----------------------------------------
        BYTE   PATT
         POIN2  _64___Temporal_Tower_0_16
// 079   ----------------------------------------
        BYTE   PATT
         POIN2  _64___Temporal_Tower_0_13
// 080   ----------------------------------------
        BYTE   PATT
         POIN2  _64___Temporal_Tower_0_14
// 081   ----------------------------------------
        BYTE   PATT
         POIN2  _64___Temporal_Tower_0_15
// 082   ----------------------------------------
        BYTE   PATT
         POIN2  _64___Temporal_Tower_0_16
// 083   ----------------------------------------
        BYTE   W96
// 084   ----------------------------------------
        BYTE   W96
// 085   ----------------------------------------
        BYTE   W96
// 086   ----------------------------------------
        BYTE   W96
// 087   ----------------------------------------
        BYTE   W96
// 088   ----------------------------------------
        BYTE   W96
// 089   ----------------------------------------
        BYTE   W96
// 090   ----------------------------------------
        BYTE   PATT
         POIN2  _64___Temporal_Tower_0_28
// 091   ----------------------------------------
        BYTE   PATT
         POIN2  _64___Temporal_Tower_0_29
// 092   ----------------------------------------
        BYTE   PATT
         POIN2  _64___Temporal_Tower_0_30
// 093   ----------------------------------------
        BYTE           N92     Bn2   v095   gtp3
        BYTE   W96
// 094   ----------------------------------------
        BYTE   W96
// 095   ----------------------------------------
        BYTE   PATT
         POIN2  _64___Temporal_Tower_0_29
// 096   ----------------------------------------
        BYTE   PATT
         POIN2  _64___Temporal_Tower_0_30
// 097   ----------------------------------------
        BYTE           N92     Bn2   v095   gtp3
        BYTE   W96
// 098   ----------------------------------------
        BYTE   PATT
         POIN2  _64___Temporal_Tower_0_36
// 099   ----------------------------------------
        BYTE   PATT
         POIN2  _64___Temporal_Tower_0_13
// 100   ----------------------------------------
        BYTE   PATT
         POIN2  _64___Temporal_Tower_0_14
// 101   ----------------------------------------
        BYTE   PATT
         POIN2  _64___Temporal_Tower_0_15
// 102   ----------------------------------------
        BYTE   PATT
         POIN2  _64___Temporal_Tower_0_16
// 103   ----------------------------------------
        BYTE   PATT
         POIN2  _64___Temporal_Tower_0_13
// 104   ----------------------------------------
        BYTE   PATT
         POIN2  _64___Temporal_Tower_0_14
// 105   ----------------------------------------
        BYTE   PATT
         POIN2  _64___Temporal_Tower_0_15
// 106   ----------------------------------------
        BYTE   PATT
         POIN2  _64___Temporal_Tower_0_16
// 107   ----------------------------------------
        BYTE   W96
// 108   ----------------------------------------
        BYTE   W96
// 109   ----------------------------------------
        BYTE   W96
// 110   ----------------------------------------
        BYTE   W96
// 111   ----------------------------------------
        BYTE   W96
// 112   ----------------------------------------
        BYTE   W96
// 113   ----------------------------------------
        BYTE   PATT
         POIN2  _64___Temporal_Tower_0_13
// 114   ----------------------------------------
        BYTE   PATT
         POIN2  _64___Temporal_Tower_0_14
// 115   ----------------------------------------
        BYTE   PATT
         POIN2  _64___Temporal_Tower_0_15
// 116   ----------------------------------------
        BYTE   PATT
         POIN2  _64___Temporal_Tower_0_16
// 117   ----------------------------------------
        BYTE   PATT
         POIN2  _64___Temporal_Tower_0_13
// 118   ----------------------------------------
        BYTE   PATT
         POIN2  _64___Temporal_Tower_0_14
// 119   ----------------------------------------
        BYTE   PATT
         POIN2  _64___Temporal_Tower_0_15
// 120   ----------------------------------------
        BYTE   PATT
         POIN2  _64___Temporal_Tower_0_16
// 121   ----------------------------------------
        BYTE   W96
// 122   ----------------------------------------
        BYTE   W96
// 123   ----------------------------------------
        BYTE   W96
// 124   ----------------------------------------
        BYTE   W96
// 125   ----------------------------------------
        BYTE   W96
// 126   ----------------------------------------
        BYTE   W96
// 127   ----------------------------------------
        BYTE   W96
// 128   ----------------------------------------
        BYTE   W96
// 129   ----------------------------------------
        BYTE   W96
// 130   ----------------------------------------
        BYTE   W96
// 131   ----------------------------------------
        BYTE   W96
// 132   ----------------------------------------
        BYTE   W92
        BYTE   W03
        BYTE   FINE

//****************** Track 1 (Midi-Chn.1) ******************//

_64___Temporal_Tower_1:
        BYTE   KEYSH   _64___Temporal_Tower_key+0
// 000   ----------------------------------------
        BYTE   W24
// 001   ----------------------------------------
        BYTE           VOICE   14
        BYTE           VOL     95
        BYTE   W96
// 002   ----------------------------------------
        BYTE   W96
// 003   ----------------------------------------
        BYTE   W96
// 004   ----------------------------------------
        BYTE   W96
// 005   ----------------------------------------
        BYTE   W96
// 006   ----------------------------------------
        BYTE   W96
// 007   ----------------------------------------
        BYTE   W96
// 008   ----------------------------------------
        BYTE   W96
// 009   ----------------------------------------
        BYTE   W96
// 010   ----------------------------------------
        BYTE   W96
// 011   ----------------------------------------
        BYTE   W96
// 012   ----------------------------------------
        BYTE   W96
// 013   ----------------------------------------
_64___Temporal_Tower_1_13:
        BYTE           N03     Bn3   v105
        BYTE   W18
        BYTE                   En3
        BYTE   W18
        BYTE                   Dn3
        BYTE   W12
        BYTE                   En3
        BYTE   W48
        BYTE   PEND
// 014   ----------------------------------------
_64___Temporal_Tower_1_14:
        BYTE           N03     An3   v105
        BYTE   W18
        BYTE                   Dn3
        BYTE   W18
        BYTE                   En3
        BYTE   W12
        BYTE                   An2
        BYTE   W48
        BYTE   PEND
// 015   ----------------------------------------
_64___Temporal_Tower_1_15:
        BYTE           N03     En3   v105
        BYTE   W18
        BYTE                   An2
        BYTE   W18
        BYTE                   Gn2
        BYTE   W12
        BYTE                   An2
        BYTE   W48
        BYTE   PEND
// 016   ----------------------------------------
_64___Temporal_Tower_1_16:
        BYTE           N03     Dn3   v105
        BYTE   W18
        BYTE                   Gn2
        BYTE   W18
        BYTE                   An2
        BYTE   W12
        BYTE                   Dn3
        BYTE   W48
        BYTE   PEND
// 017   ----------------------------------------
        BYTE   PATT
         POIN2  _64___Temporal_Tower_1_13
// 018   ----------------------------------------
        BYTE   PATT
         POIN2  _64___Temporal_Tower_1_14
// 019   ----------------------------------------
        BYTE   PATT
         POIN2  _64___Temporal_Tower_1_15
// 020   ----------------------------------------
        BYTE   PATT
         POIN2  _64___Temporal_Tower_1_16
// 021   ----------------------------------------
        BYTE   W96
// 022   ----------------------------------------
        BYTE   W96
// 023   ----------------------------------------
        BYTE   W96
// 024   ----------------------------------------
        BYTE   W96
// 025   ----------------------------------------
        BYTE   W96
// 026   ----------------------------------------
        BYTE   W96
// 027   ----------------------------------------
        BYTE   W96
// 028   ----------------------------------------
        BYTE   W96
// 029   ----------------------------------------
        BYTE   W96
// 030   ----------------------------------------
        BYTE   W96
// 031   ----------------------------------------
        BYTE   W96
// 032   ----------------------------------------
        BYTE   W96
// 033   ----------------------------------------
        BYTE   W96
// 034   ----------------------------------------
        BYTE   W96
// 035   ----------------------------------------
        BYTE   W96
// 036   ----------------------------------------
        BYTE   W96
// 037   ----------------------------------------
        BYTE   PATT
         POIN2  _64___Temporal_Tower_1_13
// 038   ----------------------------------------
        BYTE   PATT
         POIN2  _64___Temporal_Tower_1_14
// 039   ----------------------------------------
        BYTE   PATT
         POIN2  _64___Temporal_Tower_1_15
// 040   ----------------------------------------
        BYTE   PATT
         POIN2  _64___Temporal_Tower_1_16
// 041   ----------------------------------------
        BYTE   PATT
         POIN2  _64___Temporal_Tower_1_13
// 042   ----------------------------------------
        BYTE   PATT
         POIN2  _64___Temporal_Tower_1_14
// 043   ----------------------------------------
        BYTE   PATT
         POIN2  _64___Temporal_Tower_1_15
// 044   ----------------------------------------
        BYTE   PATT
         POIN2  _64___Temporal_Tower_1_16
// 045   ----------------------------------------
        BYTE   W96
// 046   ----------------------------------------
        BYTE   W96
// 047   ----------------------------------------
        BYTE   W96
// 048   ----------------------------------------
        BYTE   W96
// 049   ----------------------------------------
        BYTE   W96
// 050   ----------------------------------------
        BYTE   W96
// 051   ----------------------------------------
        BYTE   PATT
         POIN2  _64___Temporal_Tower_1_13
// 052   ----------------------------------------
        BYTE   PATT
         POIN2  _64___Temporal_Tower_1_14
// 053   ----------------------------------------
        BYTE   PATT
         POIN2  _64___Temporal_Tower_1_15
// 054   ----------------------------------------
        BYTE   PATT
         POIN2  _64___Temporal_Tower_1_16
// 055   ----------------------------------------
        BYTE   PATT
         POIN2  _64___Temporal_Tower_1_13
// 056   ----------------------------------------
        BYTE   PATT
         POIN2  _64___Temporal_Tower_1_14
// 057   ----------------------------------------
        BYTE   PATT
         POIN2  _64___Temporal_Tower_1_15
// 058   ----------------------------------------
        BYTE   PATT
         POIN2  _64___Temporal_Tower_1_16
// 059   ----------------------------------------
        BYTE   W96
// 060   ----------------------------------------
        BYTE   W96
// 061   ----------------------------------------
        BYTE   W96
// 062   ----------------------------------------
        BYTE   W96
// 063   ----------------------------------------
        BYTE   W96
// 064   ----------------------------------------
        BYTE   W96
// 065   ----------------------------------------
        BYTE   W96
// 066   ----------------------------------------
        BYTE   W96
// 067   ----------------------------------------
        BYTE   W96
// 068   ----------------------------------------
        BYTE   W96
// 069   ----------------------------------------
        BYTE   W96
// 070   ----------------------------------------
        BYTE   W96
// 071   ----------------------------------------
        BYTE   W96
// 072   ----------------------------------------
        BYTE   W96
// 073   ----------------------------------------
        BYTE   W96
// 074   ----------------------------------------
        BYTE   W96
// 075   ----------------------------------------
        BYTE   PATT
         POIN2  _64___Temporal_Tower_1_13
// 076   ----------------------------------------
        BYTE   PATT
         POIN2  _64___Temporal_Tower_1_14
// 077   ----------------------------------------
        BYTE   PATT
         POIN2  _64___Temporal_Tower_1_15
// 078   ----------------------------------------
        BYTE   PATT
         POIN2  _64___Temporal_Tower_1_16
// 079   ----------------------------------------
        BYTE   PATT
         POIN2  _64___Temporal_Tower_1_13
// 080   ----------------------------------------
        BYTE   PATT
         POIN2  _64___Temporal_Tower_1_14
// 081   ----------------------------------------
        BYTE   PATT
         POIN2  _64___Temporal_Tower_1_15
// 082   ----------------------------------------
        BYTE   PATT
         POIN2  _64___Temporal_Tower_1_16
// 083   ----------------------------------------
        BYTE   W96
// 084   ----------------------------------------
        BYTE   W96
// 085   ----------------------------------------
        BYTE   W96
// 086   ----------------------------------------
        BYTE   W96
// 087   ----------------------------------------
        BYTE   W96
// 088   ----------------------------------------
        BYTE   W96
// 089   ----------------------------------------
        BYTE   W96
// 090   ----------------------------------------
        BYTE   W96
// 091   ----------------------------------------
        BYTE   W96
// 092   ----------------------------------------
        BYTE   W96
// 093   ----------------------------------------
        BYTE   W96
// 094   ----------------------------------------
        BYTE   W96
// 095   ----------------------------------------
        BYTE   W96
// 096   ----------------------------------------
        BYTE   W96
// 097   ----------------------------------------
        BYTE   W96
// 098   ----------------------------------------
        BYTE   W96
// 099   ----------------------------------------
        BYTE   PATT
         POIN2  _64___Temporal_Tower_1_13
// 100   ----------------------------------------
        BYTE   PATT
         POIN2  _64___Temporal_Tower_1_14
// 101   ----------------------------------------
        BYTE   PATT
         POIN2  _64___Temporal_Tower_1_15
// 102   ----------------------------------------
        BYTE   PATT
         POIN2  _64___Temporal_Tower_1_16
// 103   ----------------------------------------
        BYTE   PATT
         POIN2  _64___Temporal_Tower_1_13
// 104   ----------------------------------------
        BYTE   PATT
         POIN2  _64___Temporal_Tower_1_14
// 105   ----------------------------------------
        BYTE   PATT
         POIN2  _64___Temporal_Tower_1_15
// 106   ----------------------------------------
        BYTE   PATT
         POIN2  _64___Temporal_Tower_1_16
// 107   ----------------------------------------
        BYTE   W96
// 108   ----------------------------------------
        BYTE   W96
// 109   ----------------------------------------
        BYTE   W96
// 110   ----------------------------------------
        BYTE   W96
// 111   ----------------------------------------
        BYTE   W96
// 112   ----------------------------------------
        BYTE   W96
// 113   ----------------------------------------
        BYTE   PATT
         POIN2  _64___Temporal_Tower_1_13
// 114   ----------------------------------------
        BYTE   PATT
         POIN2  _64___Temporal_Tower_1_14
// 115   ----------------------------------------
        BYTE   PATT
         POIN2  _64___Temporal_Tower_1_15
// 116   ----------------------------------------
        BYTE   PATT
         POIN2  _64___Temporal_Tower_1_16
// 117   ----------------------------------------
        BYTE   PATT
         POIN2  _64___Temporal_Tower_1_13
// 118   ----------------------------------------
        BYTE   PATT
         POIN2  _64___Temporal_Tower_1_14
// 119   ----------------------------------------
        BYTE   PATT
         POIN2  _64___Temporal_Tower_1_15
// 120   ----------------------------------------
        BYTE   PATT
         POIN2  _64___Temporal_Tower_1_16
// 121   ----------------------------------------
        BYTE   W96
// 122   ----------------------------------------
        BYTE   W96
// 123   ----------------------------------------
        BYTE   W96
// 124   ----------------------------------------
        BYTE   W96
// 125   ----------------------------------------
        BYTE   W96
// 126   ----------------------------------------
        BYTE   W96
// 127   ----------------------------------------
        BYTE   W96
// 128   ----------------------------------------
        BYTE   W96
// 129   ----------------------------------------
        BYTE   W96
// 130   ----------------------------------------
        BYTE   W96
// 131   ----------------------------------------
        BYTE   W96
// 132   ----------------------------------------
        BYTE   W92
        BYTE   W03
        BYTE   FINE

//****************** Track 2 (Midi-Chn.2) ******************//

_64___Temporal_Tower_2:
        BYTE   KEYSH   _64___Temporal_Tower_key+0
// 000   ----------------------------------------
        BYTE   W24
// 001   ----------------------------------------
        BYTE           VOICE   17
        BYTE           VOL     103
        BYTE   W96
// 002   ----------------------------------------
        BYTE   W96
// 003   ----------------------------------------
        BYTE   W96
// 004   ----------------------------------------
        BYTE   W96
// 005   ----------------------------------------
_64___Temporal_Tower_2_5:
        BYTE   W06
        BYTE           N03     An3   v095
        BYTE   W05
        BYTE           PAN     c_v+20
        BYTE   W01
        BYTE           N03     An4
        BYTE   W05
        BYTE           PAN     c_v-20
        BYTE   W01
        BYTE           N03     Dn4
        BYTE   W05
        BYTE           PAN     c_v+20
        BYTE   W01
        BYTE           N03     En4
        BYTE   W05
        BYTE           PAN     c_v-20
        BYTE   W01
        BYTE           N03     An3
        BYTE   W05
        BYTE           PAN     c_v+20
        BYTE   W01
        BYTE           N03     Dn4
        BYTE   W05
        BYTE           PAN     c_v-20
        BYTE   W01
        BYTE           N03     Gn3
        BYTE   W05
        BYTE           PAN     c_v+20
        BYTE   W01
        BYTE           N03     An3
        BYTE   W05
        BYTE           PAN     c_v-20
        BYTE   W01
        BYTE           N03     An2
        BYTE   W05
        BYTE           PAN     c_v+20
        BYTE   W01
        BYTE           N03     En3
        BYTE   W05
        BYTE           PAN     c_v-20
        BYTE   W01
        BYTE           N03     An3
        BYTE   W05
        BYTE           PAN     c_v+20
        BYTE   W01
        BYTE           N03     Gn3
        BYTE   W05
        BYTE           PAN     c_v-20
        BYTE   W01
        BYTE           N03     Dn3
        BYTE   W05
        BYTE           PAN     c_v+0
        BYTE   W01
        BYTE           N11     En3
        BYTE   W12
        BYTE   PEND
// 006   ----------------------------------------
_64___Temporal_Tower_2_6:
        BYTE   W06
        BYTE           N03     An3   v095
        BYTE   W05
        BYTE           PAN     c_v+20
        BYTE   W01
        BYTE           N03     An4
        BYTE   W05
        BYTE           PAN     c_v-20
        BYTE   W01
        BYTE           N03     Dn4
        BYTE   W05
        BYTE           PAN     c_v+20
        BYTE   W01
        BYTE           N03     En4
        BYTE   W05
        BYTE           PAN     c_v-20
        BYTE   W01
        BYTE           N03     An3
        BYTE   W05
        BYTE           PAN     c_v+20
        BYTE   W01
        BYTE           N03     Dn4
        BYTE   W05
        BYTE           PAN     c_v-20
        BYTE   W01
        BYTE           N03     Gn3
        BYTE   W05
        BYTE           PAN     c_v+20
        BYTE   W01
        BYTE           N03     An3
        BYTE   W05
        BYTE           PAN     c_v-20
        BYTE   W01
        BYTE           N03     An2
        BYTE   W05
        BYTE           PAN     c_v+20
        BYTE   W01
        BYTE           N03     En3
        BYTE   W05
        BYTE           PAN     c_v-20
        BYTE   W01
        BYTE           N03     An3
        BYTE   W05
        BYTE           PAN     c_v+20
        BYTE   W01
        BYTE           N03     Gn3
        BYTE   W05
        BYTE           PAN     c_v-20
        BYTE   W01
        BYTE           N03     Fs3
        BYTE   W05
        BYTE           PAN     c_v+0
        BYTE   W01
        BYTE           N11     En3
        BYTE   W12
        BYTE   PEND
// 007   ----------------------------------------
        BYTE   PATT
         POIN2  _64___Temporal_Tower_2_5
// 008   ----------------------------------------
_64___Temporal_Tower_2_8:
        BYTE   W06
        BYTE           N03     An3   v095
        BYTE   W05
        BYTE           PAN     c_v+20
        BYTE   W01
        BYTE           N03     An4
        BYTE   W05
        BYTE           PAN     c_v-20
        BYTE   W01
        BYTE           N03     Dn4
        BYTE   W05
        BYTE           PAN     c_v+20
        BYTE   W01
        BYTE           N03     En4
        BYTE   W05
        BYTE           PAN     c_v-20
        BYTE   W01
        BYTE           N03     An3
        BYTE   W05
        BYTE           PAN     c_v+20
        BYTE   W01
        BYTE           N03     Dn4
        BYTE   W05
        BYTE           PAN     c_v-20
        BYTE   W01
        BYTE           N03     Gn3
        BYTE   W05
        BYTE           PAN     c_v+20
        BYTE   W01
        BYTE           N03     An3
        BYTE   W05
        BYTE           PAN     c_v-20
        BYTE   W01
        BYTE           N03     En3
        BYTE   W05
        BYTE           PAN     c_v+20
        BYTE   W01
        BYTE           N03     Bn3
        BYTE   W05
        BYTE           PAN     c_v-20
        BYTE   W01
        BYTE           N03     En3
        BYTE   W05
        BYTE           PAN     c_v+20
        BYTE   W01
        BYTE           N03     Cn4
        BYTE   W05
        BYTE           PAN     c_v-20
        BYTE   W01
        BYTE           N03     En3
        BYTE   W05
        BYTE           PAN     c_v+0
        BYTE   W01
        BYTE           N11     Dn4
        BYTE   W12
        BYTE   PEND
// 009   ----------------------------------------
        BYTE   PATT
         POIN2  _64___Temporal_Tower_2_5
// 010   ----------------------------------------
        BYTE   PATT
         POIN2  _64___Temporal_Tower_2_6
// 011   ----------------------------------------
_64___Temporal_Tower_2_11:
        BYTE   W06
        BYTE           N03     An3   v095
        BYTE   W05
        BYTE           PAN     c_v+20
        BYTE   W01
        BYTE           N03     An4
        BYTE   W05
        BYTE           PAN     c_v-20
        BYTE   W01
        BYTE           N03     Dn4
        BYTE   W05
        BYTE           PAN     c_v+20
        BYTE   W01
        BYTE           N03     En4
        BYTE   W05
        BYTE           PAN     c_v-20
        BYTE   W01
        BYTE           N03     An3
        BYTE   W05
        BYTE           PAN     c_v+20
        BYTE   W01
        BYTE           N03     Dn4
        BYTE   W05
        BYTE           PAN     c_v-20
        BYTE   W01
        BYTE           N03     Gn3
        BYTE   W05
        BYTE           PAN     c_v+20
        BYTE   W01
        BYTE           N03     An3
        BYTE   W05
        BYTE           PAN     c_v-20
        BYTE   W01
        BYTE           N03     En3
        BYTE   W05
        BYTE           PAN     c_v+20
        BYTE   W01
        BYTE           N03     Bn3
        BYTE   W05
        BYTE           PAN     c_v-20
        BYTE   W01
        BYTE           N03     En3
        BYTE   W05
        BYTE           PAN     c_v+20
        BYTE   W01
        BYTE           N03     Cn4
        BYTE   W05
        BYTE           PAN     c_v-20
        BYTE   W01
        BYTE           N03     En3
        BYTE   W05
        BYTE           PAN     c_v+20
        BYTE   W01
        BYTE           N03     Dn4
        BYTE   W05
        BYTE           PAN     c_v-20
        BYTE   W01
        BYTE           N03     Bn3
        BYTE   W05
        BYTE           PAN     c_v+20
        BYTE   W01
        BYTE   PEND
// 012   ----------------------------------------
_64___Temporal_Tower_2_12:
        BYTE           N03     En4   v095
        BYTE   W05
        BYTE           PAN     c_v-20
        BYTE   W01
        BYTE           N03     Dn4
        BYTE   W05
        BYTE           PAN     c_v+20
        BYTE   W01
        BYTE           N03     Gn4
        BYTE   W05
        BYTE           PAN     c_v-20
        BYTE   W01
        BYTE           N03     En4
        BYTE   W05
        BYTE           PAN     c_v+20
        BYTE   W01
        BYTE           N03     An4
        BYTE   W05
        BYTE           PAN     c_v-20
        BYTE   W01
        BYTE           N03     En4
        BYTE   W05
        BYTE           PAN     c_v+20
        BYTE   W01
        BYTE           N03     Bn4
        BYTE   W05
        BYTE           PAN     c_v-20
        BYTE   W01
        BYTE           N03     En4
        BYTE   W05
        BYTE           PAN     c_v+20
        BYTE   W01
        BYTE           N03     Cn5
        BYTE   W05
        BYTE           PAN     c_v-20
        BYTE   W01
        BYTE           N03     En4
        BYTE   W05
        BYTE           PAN     c_v+20
        BYTE   W01
        BYTE           N03     Dn5
        BYTE   W05
        BYTE           PAN     c_v-20
        BYTE   W01
        BYTE           N03     An4
        BYTE   W05
        BYTE           PAN     c_v+20
        BYTE   W01
        BYTE           N03     En5
        BYTE   W05
        BYTE           PAN     c_v-20
        BYTE   W01
        BYTE           N03     Bn4
        BYTE   W05
        BYTE           PAN     c_v+0
        BYTE   W01
        BYTE           N11     Fs5
        BYTE   W12
        BYTE   PEND
// 013   ----------------------------------------
        BYTE           N92     En5   v095   gtp3
        BYTE   W96
// 014   ----------------------------------------
        BYTE   W96
// 015   ----------------------------------------
        BYTE   W96
// 016   ----------------------------------------
        BYTE   W96
// 017   ----------------------------------------
        BYTE   W96
// 018   ----------------------------------------
        BYTE   W96
// 019   ----------------------------------------
        BYTE   W96
// 020   ----------------------------------------
        BYTE   W96
// 021   ----------------------------------------
        BYTE   PATT
         POIN2  _64___Temporal_Tower_2_5
// 022   ----------------------------------------
        BYTE   PATT
         POIN2  _64___Temporal_Tower_2_6
// 023   ----------------------------------------
        BYTE   PATT
         POIN2  _64___Temporal_Tower_2_5
// 024   ----------------------------------------
        BYTE   PATT
         POIN2  _64___Temporal_Tower_2_8
// 025   ----------------------------------------
        BYTE   PATT
         POIN2  _64___Temporal_Tower_2_5
// 026   ----------------------------------------
        BYTE   PATT
         POIN2  _64___Temporal_Tower_2_6
// 027   ----------------------------------------
        BYTE   PATT
         POIN2  _64___Temporal_Tower_2_11
// 028   ----------------------------------------
        BYTE   PATT
         POIN2  _64___Temporal_Tower_2_12
// 029   ----------------------------------------
        BYTE   W96
// 030   ----------------------------------------
_64___Temporal_Tower_2_30:
        BYTE   W36
        BYTE   W02
        BYTE           VOICE   40
        BYTE   W01
        BYTE           PAN     c_v+20
        BYTE           VOL     74
        BYTE   W56
        BYTE   W01
        BYTE   PEND
// 031   ----------------------------------------
_64___Temporal_Tower_2_31:
        BYTE           N32     Bn4   v110   gtp3
        BYTE   W36
        BYTE           N03     An4
        BYTE   W06
        BYTE                   Gn4   v100
        BYTE   W06
        BYTE           N17     Fs4   v110
        BYTE   W18
        BYTE                   Dn4   v085
        BYTE   W18
        BYTE           N11     Fs4   v110
        BYTE   W12
        BYTE   PEND
// 032   ----------------------------------------
_64___Temporal_Tower_2_32:
        BYTE           N32     En4   v110   gtp3
        BYTE   W48
        BYTE           N17
        BYTE   W18
        BYTE                   Bn4   v085
        BYTE   W18
        BYTE           N11     An4   v110
        BYTE   W12
        BYTE   PEND
// 033   ----------------------------------------
        BYTE           N92     Bn4   v095   gtp3
        BYTE   W96
// 034   ----------------------------------------
        BYTE   W96
// 035   ----------------------------------------
        BYTE   PATT
         POIN2  _64___Temporal_Tower_2_31
// 036   ----------------------------------------
        BYTE   PATT
         POIN2  _64___Temporal_Tower_2_32
// 037   ----------------------------------------
        BYTE           N92     Bn4   v095   gtp3
        BYTE   W96
// 038   ----------------------------------------
        BYTE   W96
// 039   ----------------------------------------
        BYTE   W96
// 040   ----------------------------------------
        BYTE   W96
// 041   ----------------------------------------
        BYTE   W96
// 042   ----------------------------------------
        BYTE   W96
// 043   ----------------------------------------
        BYTE   W96
// 044   ----------------------------------------
_64___Temporal_Tower_2_44:
        BYTE   W14
        BYTE           VOICE   17
        BYTE   W01
        BYTE           VOL     99
        BYTE           PAN     c_v+0
        BYTE   W80
        BYTE   W01
        BYTE   PEND
// 045   ----------------------------------------
        BYTE   PATT
         POIN2  _64___Temporal_Tower_2_5
// 046   ----------------------------------------
        BYTE   PATT
         POIN2  _64___Temporal_Tower_2_6
// 047   ----------------------------------------
        BYTE   PATT
         POIN2  _64___Temporal_Tower_2_5
// 048   ----------------------------------------
        BYTE   PATT
         POIN2  _64___Temporal_Tower_2_8
// 049   ----------------------------------------
        BYTE   PATT
         POIN2  _64___Temporal_Tower_2_5
// 050   ----------------------------------------
        BYTE   PATT
         POIN2  _64___Temporal_Tower_2_6
// 051   ----------------------------------------
        BYTE   PATT
         POIN2  _64___Temporal_Tower_2_11
// 052   ----------------------------------------
        BYTE   PATT
         POIN2  _64___Temporal_Tower_2_12
// 053   ----------------------------------------
        BYTE   PATT
         POIN2  _64___Temporal_Tower_2_11
// 054   ----------------------------------------
        BYTE   PATT
         POIN2  _64___Temporal_Tower_2_12
// 055   ----------------------------------------
        BYTE   PATT
         POIN2  _64___Temporal_Tower_2_11
// 056   ----------------------------------------
        BYTE   PATT
         POIN2  _64___Temporal_Tower_2_12
// 057   ----------------------------------------
        BYTE   PATT
         POIN2  _64___Temporal_Tower_2_11
// 058   ----------------------------------------
        BYTE   PATT
         POIN2  _64___Temporal_Tower_2_12
// 059   ----------------------------------------
        BYTE   PATT
         POIN2  _64___Temporal_Tower_2_5
// 060   ----------------------------------------
        BYTE   PATT
         POIN2  _64___Temporal_Tower_2_6
// 061   ----------------------------------------
        BYTE   PATT
         POIN2  _64___Temporal_Tower_2_5
// 062   ----------------------------------------
        BYTE   PATT
         POIN2  _64___Temporal_Tower_2_8
// 063   ----------------------------------------
        BYTE   PATT
         POIN2  _64___Temporal_Tower_2_5
// 064   ----------------------------------------
        BYTE   PATT
         POIN2  _64___Temporal_Tower_2_6
// 065   ----------------------------------------
        BYTE   PATT
         POIN2  _64___Temporal_Tower_2_5
// 066   ----------------------------------------
        BYTE   PATT
         POIN2  _64___Temporal_Tower_2_8
// 067   ----------------------------------------
        BYTE   PATT
         POIN2  _64___Temporal_Tower_2_5
// 068   ----------------------------------------
        BYTE   PATT
         POIN2  _64___Temporal_Tower_2_6
// 069   ----------------------------------------
        BYTE   PATT
         POIN2  _64___Temporal_Tower_2_5
// 070   ----------------------------------------
        BYTE   PATT
         POIN2  _64___Temporal_Tower_2_8
// 071   ----------------------------------------
        BYTE   PATT
         POIN2  _64___Temporal_Tower_2_5
// 072   ----------------------------------------
        BYTE   PATT
         POIN2  _64___Temporal_Tower_2_6
// 073   ----------------------------------------
        BYTE   PATT
         POIN2  _64___Temporal_Tower_2_11
// 074   ----------------------------------------
        BYTE   PATT
         POIN2  _64___Temporal_Tower_2_12
// 075   ----------------------------------------
        BYTE           N92     En5   v095   gtp3
        BYTE   W96
// 076   ----------------------------------------
        BYTE   W96
// 077   ----------------------------------------
        BYTE   W96
// 078   ----------------------------------------
        BYTE   W96
// 079   ----------------------------------------
        BYTE   W96
// 080   ----------------------------------------
        BYTE   W96
// 081   ----------------------------------------
        BYTE   W96
// 082   ----------------------------------------
        BYTE   W96
// 083   ----------------------------------------
        BYTE   PATT
         POIN2  _64___Temporal_Tower_2_5
// 084   ----------------------------------------
        BYTE   PATT
         POIN2  _64___Temporal_Tower_2_6
// 085   ----------------------------------------
        BYTE   PATT
         POIN2  _64___Temporal_Tower_2_5
// 086   ----------------------------------------
        BYTE   PATT
         POIN2  _64___Temporal_Tower_2_8
// 087   ----------------------------------------
        BYTE   PATT
         POIN2  _64___Temporal_Tower_2_5
// 088   ----------------------------------------
        BYTE   PATT
         POIN2  _64___Temporal_Tower_2_6
// 089   ----------------------------------------
        BYTE   PATT
         POIN2  _64___Temporal_Tower_2_11
// 090   ----------------------------------------
        BYTE   PATT
         POIN2  _64___Temporal_Tower_2_12
// 091   ----------------------------------------
        BYTE   W96
// 092   ----------------------------------------
        BYTE   PATT
         POIN2  _64___Temporal_Tower_2_30
// 093   ----------------------------------------
        BYTE   PATT
         POIN2  _64___Temporal_Tower_2_31
// 094   ----------------------------------------
        BYTE   PATT
         POIN2  _64___Temporal_Tower_2_32
// 095   ----------------------------------------
        BYTE           N92     Bn4   v095   gtp3
        BYTE   W96
// 096   ----------------------------------------
        BYTE   W96
// 097   ----------------------------------------
        BYTE   PATT
         POIN2  _64___Temporal_Tower_2_31
// 098   ----------------------------------------
        BYTE   PATT
         POIN2  _64___Temporal_Tower_2_32
// 099   ----------------------------------------
        BYTE           N92     Bn4   v095   gtp3
        BYTE   W96
// 100   ----------------------------------------
        BYTE   W96
// 101   ----------------------------------------
        BYTE   W96
// 102   ----------------------------------------
        BYTE   W96
// 103   ----------------------------------------
        BYTE   W96
// 104   ----------------------------------------
        BYTE   W96
// 105   ----------------------------------------
        BYTE   W96
// 106   ----------------------------------------
        BYTE   PATT
         POIN2  _64___Temporal_Tower_2_44
// 107   ----------------------------------------
        BYTE   PATT
         POIN2  _64___Temporal_Tower_2_5
// 108   ----------------------------------------
        BYTE   PATT
         POIN2  _64___Temporal_Tower_2_6
// 109   ----------------------------------------
        BYTE   PATT
         POIN2  _64___Temporal_Tower_2_5
// 110   ----------------------------------------
        BYTE   PATT
         POIN2  _64___Temporal_Tower_2_8
// 111   ----------------------------------------
        BYTE   PATT
         POIN2  _64___Temporal_Tower_2_5
// 112   ----------------------------------------
        BYTE   PATT
         POIN2  _64___Temporal_Tower_2_6
// 113   ----------------------------------------
        BYTE   PATT
         POIN2  _64___Temporal_Tower_2_11
// 114   ----------------------------------------
        BYTE   PATT
         POIN2  _64___Temporal_Tower_2_12
// 115   ----------------------------------------
        BYTE   PATT
         POIN2  _64___Temporal_Tower_2_11
// 116   ----------------------------------------
        BYTE   PATT
         POIN2  _64___Temporal_Tower_2_12
// 117   ----------------------------------------
        BYTE   PATT
         POIN2  _64___Temporal_Tower_2_11
// 118   ----------------------------------------
        BYTE   PATT
         POIN2  _64___Temporal_Tower_2_12
// 119   ----------------------------------------
        BYTE   PATT
         POIN2  _64___Temporal_Tower_2_11
// 120   ----------------------------------------
        BYTE   PATT
         POIN2  _64___Temporal_Tower_2_12
// 121   ----------------------------------------
        BYTE   PATT
         POIN2  _64___Temporal_Tower_2_5
// 122   ----------------------------------------
        BYTE   PATT
         POIN2  _64___Temporal_Tower_2_6
// 123   ----------------------------------------
        BYTE   PATT
         POIN2  _64___Temporal_Tower_2_5
// 124   ----------------------------------------
        BYTE   PATT
         POIN2  _64___Temporal_Tower_2_8
// 125   ----------------------------------------
        BYTE   PATT
         POIN2  _64___Temporal_Tower_2_5
// 126   ----------------------------------------
        BYTE   PATT
         POIN2  _64___Temporal_Tower_2_6
// 127   ----------------------------------------
        BYTE   PATT
         POIN2  _64___Temporal_Tower_2_5
// 128   ----------------------------------------
        BYTE   PATT
         POIN2  _64___Temporal_Tower_2_8
// 129   ----------------------------------------
        BYTE   PATT
         POIN2  _64___Temporal_Tower_2_5
// 130   ----------------------------------------
        BYTE   PATT
         POIN2  _64___Temporal_Tower_2_6
// 131   ----------------------------------------
        BYTE   PATT
         POIN2  _64___Temporal_Tower_2_5
// 132   ----------------------------------------
        BYTE   W06
        BYTE           N03     An3   v095
        BYTE   W05
        BYTE           PAN     c_v+20
        BYTE   W01
        BYTE           N03     An4
        BYTE   W05
        BYTE           PAN     c_v-20
        BYTE   W01
        BYTE           N03     Dn4
        BYTE   W05
        BYTE           PAN     c_v+20
        BYTE   W01
        BYTE           N03     En4
        BYTE   W05
        BYTE           PAN     c_v-20
        BYTE   W01
        BYTE           N03     An3
        BYTE   W05
        BYTE           PAN     c_v+20
        BYTE   W01
        BYTE           N03     Dn4
        BYTE   W05
        BYTE           PAN     c_v-20
        BYTE   W01
        BYTE           N03     Gn3
        BYTE   W05
        BYTE           PAN     c_v+20
        BYTE   W01
        BYTE           N03     An3
        BYTE   W05
        BYTE           PAN     c_v-20
        BYTE   W01
        BYTE           N03     En3
        BYTE   W05
        BYTE           PAN     c_v+20
        BYTE   W01
        BYTE           N03     Bn3
        BYTE   W05
        BYTE           PAN     c_v-20
        BYTE   W01
        BYTE           N03     En3
        BYTE   W05
        BYTE           PAN     c_v+20
        BYTE   W01
        BYTE           N03     Cn4
        BYTE   W05
        BYTE           PAN     c_v-20
        BYTE   W01
        BYTE           N03     En3
        BYTE   W05
        BYTE           PAN     c_v+0
        BYTE   W01
        BYTE           N11     Dn4
        BYTE   W11
        BYTE   FINE

//****************** Track 3 (Midi-Chn.3) ******************//

_64___Temporal_Tower_3:
        BYTE   KEYSH   _64___Temporal_Tower_key+0
// 000   ----------------------------------------
        BYTE   W24
// 001   ----------------------------------------
        BYTE           VOICE   48
        BYTE           VOL     105
        BYTE           TIE     An0   v100
        BYTE           TIE     An1   v080
        BYTE   W96
// 002   ----------------------------------------
        BYTE   W96
// 003   ----------------------------------------
        BYTE   W96
// 004   ----------------------------------------
_64___Temporal_Tower_3_4:
        BYTE   W92
        BYTE   W03
        BYTE           EOT     An0
        BYTE                   An1
        BYTE   W01
        BYTE   PEND
// 005   ----------------------------------------
_64___Temporal_Tower_3_5:
        BYTE           N92     An3   v065   gtp3
        BYTE           TIE     An0   v100
        BYTE           TIE     An1   v080
        BYTE   W96
        BYTE   PEND
// 006   ----------------------------------------
        BYTE           N92     Bn3   v065   gtp3
        BYTE   W96
// 007   ----------------------------------------
        BYTE                   Cn4
        BYTE   W96
// 008   ----------------------------------------
_64___Temporal_Tower_3_8:
        BYTE           N92     Dn4   v065   gtp3
        BYTE   W92
        BYTE   W03
        BYTE           EOT     An0
        BYTE                   An1
        BYTE   W01
        BYTE   PEND
// 009   ----------------------------------------
        BYTE   PATT
         POIN2  _64___Temporal_Tower_3_5
// 010   ----------------------------------------
        BYTE           N92     Bn3   v065   gtp3
        BYTE   W96
// 011   ----------------------------------------
        BYTE                   Cn4
        BYTE   W96
// 012   ----------------------------------------
        BYTE   PATT
         POIN2  _64___Temporal_Tower_3_8
// 013   ----------------------------------------
_64___Temporal_Tower_3_13:
        BYTE           N92     An0   v100   gtp3
        BYTE                   An1   v080
        BYTE   W96
        BYTE   PEND
// 014   ----------------------------------------
_64___Temporal_Tower_3_14:
        BYTE           N92     Bn0   v100   gtp3
        BYTE                   An1   v080
        BYTE   W96
        BYTE   PEND
// 015   ----------------------------------------
_64___Temporal_Tower_3_15:
        BYTE           N92     Cn1   v100   gtp3
        BYTE                   Cn2   v080
        BYTE   W96
        BYTE   PEND
// 016   ----------------------------------------
_64___Temporal_Tower_3_16:
        BYTE           N92     Dn1   v100   gtp3
        BYTE                   Bn1   v080
        BYTE   W96
        BYTE   PEND
// 017   ----------------------------------------
        BYTE   PATT
         POIN2  _64___Temporal_Tower_3_13
// 018   ----------------------------------------
        BYTE   PATT
         POIN2  _64___Temporal_Tower_3_14
// 019   ----------------------------------------
        BYTE   PATT
         POIN2  _64___Temporal_Tower_3_15
// 020   ----------------------------------------
        BYTE   PATT
         POIN2  _64___Temporal_Tower_3_16
// 021   ----------------------------------------
_64___Temporal_Tower_3_21:
        BYTE           TIE     An0   v100
        BYTE           TIE     An1   v080
        BYTE           TIE     En2
        BYTE   W96
        BYTE   PEND
// 022   ----------------------------------------
_64___Temporal_Tower_3_22:
        BYTE   W92
        BYTE   W03
        BYTE           EOT     An0
        BYTE                   An1
        BYTE                   En2
        BYTE   W01
        BYTE   PEND
// 023   ----------------------------------------
        BYTE   PATT
         POIN2  _64___Temporal_Tower_3_21
// 024   ----------------------------------------
        BYTE   PATT
         POIN2  _64___Temporal_Tower_3_22
// 025   ----------------------------------------
        BYTE   PATT
         POIN2  _64___Temporal_Tower_3_21
// 026   ----------------------------------------
        BYTE   PATT
         POIN2  _64___Temporal_Tower_3_22
// 027   ----------------------------------------
        BYTE   PATT
         POIN2  _64___Temporal_Tower_3_21
// 028   ----------------------------------------
        BYTE   PATT
         POIN2  _64___Temporal_Tower_3_22
// 029   ----------------------------------------
        BYTE   PATT
         POIN2  _64___Temporal_Tower_3_15
// 030   ----------------------------------------
_64___Temporal_Tower_3_30:
        BYTE           N92     Dn1   v100   gtp3
        BYTE                   Dn2   v080
        BYTE   W96
        BYTE   PEND
// 031   ----------------------------------------
_64___Temporal_Tower_3_31:
        BYTE           N92     En1   v100   gtp3
        BYTE                   En2   v080
        BYTE   W96
        BYTE   PEND
// 032   ----------------------------------------
        BYTE   PATT
         POIN2  _64___Temporal_Tower_3_30
// 033   ----------------------------------------
        BYTE   PATT
         POIN2  _64___Temporal_Tower_3_15
// 034   ----------------------------------------
        BYTE   PATT
         POIN2  _64___Temporal_Tower_3_30
// 035   ----------------------------------------
        BYTE   PATT
         POIN2  _64___Temporal_Tower_3_31
// 036   ----------------------------------------
        BYTE   PATT
         POIN2  _64___Temporal_Tower_3_30
// 037   ----------------------------------------
_64___Temporal_Tower_3_37:
        BYTE           N92     An0   v100   gtp3
        BYTE                   An1   v080
        BYTE           TIE     En4   v065
        BYTE   W96
        BYTE   PEND
// 038   ----------------------------------------
        BYTE   PATT
         POIN2  _64___Temporal_Tower_3_14
// 039   ----------------------------------------
        BYTE   PATT
         POIN2  _64___Temporal_Tower_3_15
// 040   ----------------------------------------
_64___Temporal_Tower_3_40:
        BYTE           N92     Dn1   v100   gtp3
        BYTE                   Bn1   v080
        BYTE   W44
        BYTE   W03
        BYTE           EOT     En4
        BYTE   W24
        BYTE   W01
        BYTE           N23     Dn4   v065
        BYTE   W24
        BYTE   PEND
// 041   ----------------------------------------
        BYTE   PATT
         POIN2  _64___Temporal_Tower_3_37
// 042   ----------------------------------------
        BYTE   PATT
         POIN2  _64___Temporal_Tower_3_14
// 043   ----------------------------------------
        BYTE   PATT
         POIN2  _64___Temporal_Tower_3_15
// 044   ----------------------------------------
        BYTE   PATT
         POIN2  _64___Temporal_Tower_3_40
// 045   ----------------------------------------
        BYTE   PATT
         POIN2  _64___Temporal_Tower_3_21
// 046   ----------------------------------------
        BYTE   PATT
         POIN2  _64___Temporal_Tower_3_22
// 047   ----------------------------------------
        BYTE   PATT
         POIN2  _64___Temporal_Tower_3_21
// 048   ----------------------------------------
        BYTE   PATT
         POIN2  _64___Temporal_Tower_3_22
// 049   ----------------------------------------
        BYTE   PATT
         POIN2  _64___Temporal_Tower_3_21
// 050   ----------------------------------------
        BYTE   PATT
         POIN2  _64___Temporal_Tower_3_22
// 051   ----------------------------------------
_64___Temporal_Tower_3_51:
        BYTE           TIE     Fn0   v100
        BYTE           TIE     Fn1   v080
        BYTE           TIE     Cn2
        BYTE   W96
        BYTE   PEND
// 052   ----------------------------------------
_64___Temporal_Tower_3_52:
        BYTE   W92
        BYTE   W03
        BYTE           EOT     Fn0
        BYTE                   Fn1
        BYTE                   Cn2
        BYTE   W01
        BYTE   PEND
// 053   ----------------------------------------
_64___Temporal_Tower_3_53:
        BYTE           TIE     Gn0   v100
        BYTE           TIE     Gn1   v080
        BYTE           TIE     Dn2
        BYTE   W96
        BYTE   PEND
// 054   ----------------------------------------
_64___Temporal_Tower_3_54:
        BYTE   W92
        BYTE   W03
        BYTE           EOT     Gn0
        BYTE                   Gn1
        BYTE                   Dn2
        BYTE   W01
        BYTE   PEND
// 055   ----------------------------------------
        BYTE   PATT
         POIN2  _64___Temporal_Tower_3_51
// 056   ----------------------------------------
        BYTE   PATT
         POIN2  _64___Temporal_Tower_3_52
// 057   ----------------------------------------
        BYTE   PATT
         POIN2  _64___Temporal_Tower_3_53
// 058   ----------------------------------------
        BYTE   PATT
         POIN2  _64___Temporal_Tower_3_54
// 059   ----------------------------------------
_64___Temporal_Tower_3_59:
        BYTE           TIE     An0   v100
        BYTE           TIE     An1   v080
        BYTE   W96
        BYTE   PEND
// 060   ----------------------------------------
        BYTE   W96
// 061   ----------------------------------------
        BYTE   W96
// 062   ----------------------------------------
        BYTE   PATT
         POIN2  _64___Temporal_Tower_3_4
// 063   ----------------------------------------
        BYTE   PATT
         POIN2  _64___Temporal_Tower_3_59
// 064   ----------------------------------------
        BYTE   W96
// 065   ----------------------------------------
        BYTE   W96
// 066   ----------------------------------------
        BYTE   PATT
         POIN2  _64___Temporal_Tower_3_4
// 067   ----------------------------------------
        BYTE   PATT
         POIN2  _64___Temporal_Tower_3_5
// 068   ----------------------------------------
        BYTE           N92     Bn3   v065   gtp3
        BYTE   W96
// 069   ----------------------------------------
        BYTE                   Cn4
        BYTE   W96
// 070   ----------------------------------------
        BYTE   PATT
         POIN2  _64___Temporal_Tower_3_8
// 071   ----------------------------------------
        BYTE   PATT
         POIN2  _64___Temporal_Tower_3_5
// 072   ----------------------------------------
        BYTE           N92     Bn3   v065   gtp3
        BYTE   W96
// 073   ----------------------------------------
        BYTE                   Cn4
        BYTE   W96
// 074   ----------------------------------------
        BYTE   PATT
         POIN2  _64___Temporal_Tower_3_8
// 075   ----------------------------------------
        BYTE   PATT
         POIN2  _64___Temporal_Tower_3_13
// 076   ----------------------------------------
        BYTE   PATT
         POIN2  _64___Temporal_Tower_3_14
// 077   ----------------------------------------
        BYTE   PATT
         POIN2  _64___Temporal_Tower_3_15
// 078   ----------------------------------------
        BYTE   PATT
         POIN2  _64___Temporal_Tower_3_16
// 079   ----------------------------------------
        BYTE   PATT
         POIN2  _64___Temporal_Tower_3_13
// 080   ----------------------------------------
        BYTE   PATT
         POIN2  _64___Temporal_Tower_3_14
// 081   ----------------------------------------
        BYTE   PATT
         POIN2  _64___Temporal_Tower_3_15
// 082   ----------------------------------------
        BYTE   PATT
         POIN2  _64___Temporal_Tower_3_16
// 083   ----------------------------------------
        BYTE   PATT
         POIN2  _64___Temporal_Tower_3_21
// 084   ----------------------------------------
        BYTE   PATT
         POIN2  _64___Temporal_Tower_3_22
// 085   ----------------------------------------
        BYTE   PATT
         POIN2  _64___Temporal_Tower_3_21
// 086   ----------------------------------------
        BYTE   PATT
         POIN2  _64___Temporal_Tower_3_22
// 087   ----------------------------------------
        BYTE   PATT
         POIN2  _64___Temporal_Tower_3_21
// 088   ----------------------------------------
        BYTE   PATT
         POIN2  _64___Temporal_Tower_3_22
// 089   ----------------------------------------
        BYTE   PATT
         POIN2  _64___Temporal_Tower_3_21
// 090   ----------------------------------------
        BYTE   PATT
         POIN2  _64___Temporal_Tower_3_22
// 091   ----------------------------------------
        BYTE   PATT
         POIN2  _64___Temporal_Tower_3_15
// 092   ----------------------------------------
        BYTE   PATT
         POIN2  _64___Temporal_Tower_3_30
// 093   ----------------------------------------
        BYTE   PATT
         POIN2  _64___Temporal_Tower_3_31
// 094   ----------------------------------------
        BYTE   PATT
         POIN2  _64___Temporal_Tower_3_30
// 095   ----------------------------------------
        BYTE   PATT
         POIN2  _64___Temporal_Tower_3_15
// 096   ----------------------------------------
        BYTE   PATT
         POIN2  _64___Temporal_Tower_3_30
// 097   ----------------------------------------
        BYTE   PATT
         POIN2  _64___Temporal_Tower_3_31
// 098   ----------------------------------------
        BYTE   PATT
         POIN2  _64___Temporal_Tower_3_30
// 099   ----------------------------------------
        BYTE   PATT
         POIN2  _64___Temporal_Tower_3_37
// 100   ----------------------------------------
        BYTE   PATT
         POIN2  _64___Temporal_Tower_3_14
// 101   ----------------------------------------
        BYTE   PATT
         POIN2  _64___Temporal_Tower_3_15
// 102   ----------------------------------------
        BYTE   PATT
         POIN2  _64___Temporal_Tower_3_40
// 103   ----------------------------------------
        BYTE   PATT
         POIN2  _64___Temporal_Tower_3_37
// 104   ----------------------------------------
        BYTE   PATT
         POIN2  _64___Temporal_Tower_3_14
// 105   ----------------------------------------
        BYTE   PATT
         POIN2  _64___Temporal_Tower_3_15
// 106   ----------------------------------------
        BYTE   PATT
         POIN2  _64___Temporal_Tower_3_40
// 107   ----------------------------------------
        BYTE   PATT
         POIN2  _64___Temporal_Tower_3_21
// 108   ----------------------------------------
        BYTE   PATT
         POIN2  _64___Temporal_Tower_3_22
// 109   ----------------------------------------
        BYTE   PATT
         POIN2  _64___Temporal_Tower_3_21
// 110   ----------------------------------------
        BYTE   PATT
         POIN2  _64___Temporal_Tower_3_22
// 111   ----------------------------------------
        BYTE   PATT
         POIN2  _64___Temporal_Tower_3_21
// 112   ----------------------------------------
        BYTE   PATT
         POIN2  _64___Temporal_Tower_3_22
// 113   ----------------------------------------
        BYTE   PATT
         POIN2  _64___Temporal_Tower_3_51
// 114   ----------------------------------------
        BYTE   PATT
         POIN2  _64___Temporal_Tower_3_52
// 115   ----------------------------------------
        BYTE   PATT
         POIN2  _64___Temporal_Tower_3_53
// 116   ----------------------------------------
        BYTE   PATT
         POIN2  _64___Temporal_Tower_3_54
// 117   ----------------------------------------
        BYTE   PATT
         POIN2  _64___Temporal_Tower_3_51
// 118   ----------------------------------------
        BYTE   PATT
         POIN2  _64___Temporal_Tower_3_52
// 119   ----------------------------------------
        BYTE   PATT
         POIN2  _64___Temporal_Tower_3_53
// 120   ----------------------------------------
        BYTE   PATT
         POIN2  _64___Temporal_Tower_3_54
// 121   ----------------------------------------
        BYTE   PATT
         POIN2  _64___Temporal_Tower_3_59
// 122   ----------------------------------------
        BYTE   W96
// 123   ----------------------------------------
        BYTE   W96
// 124   ----------------------------------------
        BYTE   PATT
         POIN2  _64___Temporal_Tower_3_4
// 125   ----------------------------------------
        BYTE   PATT
         POIN2  _64___Temporal_Tower_3_59
// 126   ----------------------------------------
        BYTE   W96
// 127   ----------------------------------------
        BYTE   W96
// 128   ----------------------------------------
        BYTE   PATT
         POIN2  _64___Temporal_Tower_3_4
// 129   ----------------------------------------
        BYTE   PATT
         POIN2  _64___Temporal_Tower_3_5
// 130   ----------------------------------------
        BYTE           N92     Bn3   v065   gtp3
        BYTE   W96
// 131   ----------------------------------------
        BYTE                   Cn4
        BYTE   W96
// 132   ----------------------------------------
        BYTE                   Dn4
        BYTE   W92
        BYTE   W03
        BYTE           EOT     An0
        BYTE                   An1
        BYTE   FINE

//****************** Track 4 (Midi-Chn.4) ******************//

_64___Temporal_Tower_4:
        BYTE   KEYSH   _64___Temporal_Tower_key+0
// 000   ----------------------------------------
        BYTE   W24
// 001   ----------------------------------------
        BYTE           VOICE   48
        BYTE           VOL     83
        BYTE           PAN     c_v-30
        BYTE   W96
// 002   ----------------------------------------
        BYTE   W96
// 003   ----------------------------------------
        BYTE   W96
// 004   ----------------------------------------
        BYTE   W96
// 005   ----------------------------------------
_64___Temporal_Tower_4_5:
        BYTE           N92     An2   v080   gtp3
        BYTE                   En3
        BYTE   W96
        BYTE   PEND
// 006   ----------------------------------------
_64___Temporal_Tower_4_6:
        BYTE           N92     Bn2   v080   gtp3
        BYTE                   Gn3
        BYTE   W96
        BYTE   PEND
// 007   ----------------------------------------
_64___Temporal_Tower_4_7:
        BYTE           N92     Cn3   v080   gtp3
        BYTE                   Gn3
        BYTE   W96
        BYTE   PEND
// 008   ----------------------------------------
        BYTE   PATT
         POIN2  _64___Temporal_Tower_4_6
// 009   ----------------------------------------
        BYTE   PATT
         POIN2  _64___Temporal_Tower_4_5
// 010   ----------------------------------------
        BYTE   PATT
         POIN2  _64___Temporal_Tower_4_6
// 011   ----------------------------------------
        BYTE   PATT
         POIN2  _64___Temporal_Tower_4_7
// 012   ----------------------------------------
        BYTE   PATT
         POIN2  _64___Temporal_Tower_4_6
// 013   ----------------------------------------
_64___Temporal_Tower_4_13:
        BYTE           N68     Gn2   v095   gtp3
        BYTE                   En3
        BYTE   W72
        BYTE           N23     Dn3
        BYTE           N23     Gn3
        BYTE   W24
        BYTE   PEND
// 014   ----------------------------------------
_64___Temporal_Tower_4_14:
        BYTE           N68     Dn3   v095   gtp3
        BYTE                   Fs3
        BYTE   W72
        BYTE           N23     Dn3
        BYTE           N23     An3
        BYTE   W24
        BYTE   PEND
// 015   ----------------------------------------
_64___Temporal_Tower_4_15:
        BYTE           N68     Cn3   v095   gtp3
        BYTE                   Gn3
        BYTE   W72
        BYTE           N23     En3
        BYTE           N23     Bn3
        BYTE   W24
        BYTE   PEND
// 016   ----------------------------------------
_64___Temporal_Tower_4_16:
        BYTE           N44     Dn3   v095   gtp3
        BYTE                   An3
        BYTE   W48
        BYTE                   Fs3
        BYTE           N44     Dn4   v095   gtp3
        BYTE   W48
        BYTE   PEND
// 017   ----------------------------------------
        BYTE   PATT
         POIN2  _64___Temporal_Tower_4_13
// 018   ----------------------------------------
        BYTE   PATT
         POIN2  _64___Temporal_Tower_4_14
// 019   ----------------------------------------
        BYTE   PATT
         POIN2  _64___Temporal_Tower_4_15
// 020   ----------------------------------------
        BYTE   PATT
         POIN2  _64___Temporal_Tower_4_16
// 021   ----------------------------------------
_64___Temporal_Tower_4_21:
        BYTE           TIE     Dn3   v085
        BYTE           TIE     Gn3
        BYTE   W96
        BYTE   PEND
// 022   ----------------------------------------
_64___Temporal_Tower_4_22:
        BYTE   W44
        BYTE   W03
        BYTE           EOT     Dn3
        BYTE                   Gn3
        BYTE   W24
        BYTE   W01
        BYTE           N14     Bn2   v100
        BYTE           N14     Fs3
        BYTE   W24
        BYTE   PEND
// 023   ----------------------------------------
        BYTE   PATT
         POIN2  _64___Temporal_Tower_4_21
// 024   ----------------------------------------
        BYTE   PATT
         POIN2  _64___Temporal_Tower_4_22
// 025   ----------------------------------------
        BYTE   PATT
         POIN2  _64___Temporal_Tower_4_21
// 026   ----------------------------------------
        BYTE   PATT
         POIN2  _64___Temporal_Tower_4_22
// 027   ----------------------------------------
        BYTE   PATT
         POIN2  _64___Temporal_Tower_4_21
// 028   ----------------------------------------
        BYTE   PATT
         POIN2  _64___Temporal_Tower_4_22
// 029   ----------------------------------------
_64___Temporal_Tower_4_29:
        BYTE           N44     Bn2   v095   gtp3
        BYTE                   Gn3
        BYTE   W48
        BYTE                   Bn2
        BYTE           N44     Gn3   v095   gtp3
        BYTE   W48
        BYTE   PEND
// 030   ----------------------------------------
_64___Temporal_Tower_4_30:
        BYTE           N44     Bn2   v095   gtp3
        BYTE                   Fs3
        BYTE   W48
        BYTE                   An2
        BYTE           N44     An3   v095   gtp3
        BYTE   W48
        BYTE   PEND
// 031   ----------------------------------------
_64___Temporal_Tower_4_31:
        BYTE           N44     Bn2   v095   gtp3
        BYTE                   Gn3
        BYTE   W48
        BYTE                   An2
        BYTE           N44     Dn4   v095   gtp3
        BYTE   W48
        BYTE   PEND
// 032   ----------------------------------------
_64___Temporal_Tower_4_32:
        BYTE           N44     Bn2   v095   gtp3
        BYTE                   An3
        BYTE   W48
        BYTE                   Bn2
        BYTE           N44     Fs3   v095   gtp3
        BYTE   W48
        BYTE   PEND
// 033   ----------------------------------------
        BYTE   PATT
         POIN2  _64___Temporal_Tower_4_29
// 034   ----------------------------------------
        BYTE   PATT
         POIN2  _64___Temporal_Tower_4_30
// 035   ----------------------------------------
_64___Temporal_Tower_4_35:
        BYTE           N44     An2   v095   gtp3
        BYTE                   Gn3
        BYTE   W48
        BYTE                   An2
        BYTE           N44     Dn4   v095   gtp3
        BYTE   W48
        BYTE   PEND
// 036   ----------------------------------------
        BYTE   PATT
         POIN2  _64___Temporal_Tower_4_32
// 037   ----------------------------------------
        BYTE   PATT
         POIN2  _64___Temporal_Tower_4_13
// 038   ----------------------------------------
        BYTE   PATT
         POIN2  _64___Temporal_Tower_4_14
// 039   ----------------------------------------
        BYTE   PATT
         POIN2  _64___Temporal_Tower_4_15
// 040   ----------------------------------------
        BYTE   PATT
         POIN2  _64___Temporal_Tower_4_16
// 041   ----------------------------------------
        BYTE   PATT
         POIN2  _64___Temporal_Tower_4_13
// 042   ----------------------------------------
        BYTE   PATT
         POIN2  _64___Temporal_Tower_4_14
// 043   ----------------------------------------
        BYTE   PATT
         POIN2  _64___Temporal_Tower_4_15
// 044   ----------------------------------------
        BYTE   PATT
         POIN2  _64___Temporal_Tower_4_16
// 045   ----------------------------------------
_64___Temporal_Tower_4_45:
        BYTE           TIE     Dn3   v090
        BYTE           TIE     Gn3
        BYTE   W96
        BYTE   PEND
// 046   ----------------------------------------
_64___Temporal_Tower_4_46:
        BYTE   W44
        BYTE   W03
        BYTE           EOT     Dn3
        BYTE                   Gn3
        BYTE   W24
        BYTE   W01
        BYTE           N14     Bn2   v105
        BYTE           N14     Fs3
        BYTE   W24
        BYTE   PEND
// 047   ----------------------------------------
        BYTE   PATT
         POIN2  _64___Temporal_Tower_4_45
// 048   ----------------------------------------
        BYTE   PATT
         POIN2  _64___Temporal_Tower_4_46
// 049   ----------------------------------------
        BYTE   PATT
         POIN2  _64___Temporal_Tower_4_45
// 050   ----------------------------------------
        BYTE   PATT
         POIN2  _64___Temporal_Tower_4_46
// 051   ----------------------------------------
        BYTE           TIE     Cn3   v090
        BYTE   W96
// 052   ----------------------------------------
        BYTE   W92
        BYTE   W03
        BYTE           EOT
        BYTE   W01
// 053   ----------------------------------------
        BYTE           TIE     An2
        BYTE   W96
// 054   ----------------------------------------
        BYTE   W92
        BYTE   W03
        BYTE           EOT
        BYTE   W01
// 055   ----------------------------------------
        BYTE           TIE     Cn3
        BYTE   W96
// 056   ----------------------------------------
        BYTE   W92
        BYTE   W03
        BYTE           EOT
        BYTE   W01
// 057   ----------------------------------------
        BYTE           TIE     An2
        BYTE   W96
// 058   ----------------------------------------
        BYTE   W92
        BYTE   W03
        BYTE           EOT
        BYTE   W01
// 059   ----------------------------------------
_64___Temporal_Tower_4_59:
        BYTE           VOL     80
        BYTE           TIE     Cn3   v090
        BYTE   W12
        BYTE           VOL     79
        BYTE   W09
        BYTE                   78
        BYTE   W03
        BYTE                   77
        BYTE   W06
        BYTE                   76
        BYTE   W09
        BYTE                   75
        BYTE   W09
        BYTE                   74
        BYTE   W04
        BYTE                   73
        BYTE   W05
        BYTE                   72
        BYTE   W10
        BYTE                   71
        BYTE   W09
        BYTE                   70
        BYTE   W05
        BYTE                   69
        BYTE   W09
        BYTE                   68
        BYTE   W04
        BYTE                   67
        BYTE   W02
        BYTE   PEND
// 060   ----------------------------------------
_64___Temporal_Tower_4_60:
        BYTE   W01
        BYTE           VOL     66
        BYTE   W02
        BYTE                   65
        BYTE   W04
        BYTE                   64
        BYTE   W05
        BYTE                   63
        BYTE   W01
        BYTE                   62
        BYTE   W02
        BYTE                   61
        BYTE   W04
        BYTE                   60
        BYTE   W05
        BYTE                   59
        BYTE   W03
        BYTE                   57
        BYTE   W04
        BYTE                   56
        BYTE   W05
        BYTE                   55
        BYTE   W01
        BYTE                   54
        BYTE   W03
        BYTE                   53
        BYTE   W02
        BYTE                   52
        BYTE   W03
        BYTE                   50
        BYTE   W03
        BYTE                   49
        BYTE   W01
        BYTE                   48
        BYTE   W03
        BYTE                   46
        BYTE   W02
        BYTE                   45
        BYTE   W03
        BYTE                   44
        BYTE   W01
        BYTE                   43
        BYTE   W03
        BYTE                   40
        BYTE   W02
        BYTE                   39
        BYTE   W01
        BYTE                   37
        BYTE   W02
        BYTE                   35
        BYTE   W01
        BYTE                   33
        BYTE   W03
        BYTE                   30
        BYTE   W02
        BYTE                   29
        BYTE   W01
        BYTE                   27
        BYTE   W02
        BYTE                   26
        BYTE   W03
        BYTE                   22
        BYTE   W01
        BYTE                   20
        BYTE   W02
        BYTE                   19
        BYTE   W01
        BYTE                   17
        BYTE   W02
        BYTE                   16
        BYTE   W03
        BYTE                   13
        BYTE   W01
        BYTE                   11
        BYTE   W02
        BYTE                   9
        BYTE   W01
        BYTE                   7
        BYTE   W04
        BYTE           EOT     Cn3
        BYTE   W01
        BYTE   PEND
// 061   ----------------------------------------
        BYTE   W92
        BYTE   W03
        BYTE           VOL     83
        BYTE   W01
// 062   ----------------------------------------
        BYTE   W96
// 063   ----------------------------------------
        BYTE   W96
// 064   ----------------------------------------
        BYTE   W96
// 065   ----------------------------------------
        BYTE   W96
// 066   ----------------------------------------
        BYTE   W96
// 067   ----------------------------------------
        BYTE   PATT
         POIN2  _64___Temporal_Tower_4_5
// 068   ----------------------------------------
        BYTE   PATT
         POIN2  _64___Temporal_Tower_4_6
// 069   ----------------------------------------
        BYTE   PATT
         POIN2  _64___Temporal_Tower_4_7
// 070   ----------------------------------------
        BYTE   PATT
         POIN2  _64___Temporal_Tower_4_6
// 071   ----------------------------------------
        BYTE   PATT
         POIN2  _64___Temporal_Tower_4_5
// 072   ----------------------------------------
        BYTE   PATT
         POIN2  _64___Temporal_Tower_4_6
// 073   ----------------------------------------
        BYTE   PATT
         POIN2  _64___Temporal_Tower_4_7
// 074   ----------------------------------------
        BYTE   PATT
         POIN2  _64___Temporal_Tower_4_6
// 075   ----------------------------------------
        BYTE   PATT
         POIN2  _64___Temporal_Tower_4_13
// 076   ----------------------------------------
        BYTE   PATT
         POIN2  _64___Temporal_Tower_4_14
// 077   ----------------------------------------
        BYTE   PATT
         POIN2  _64___Temporal_Tower_4_15
// 078   ----------------------------------------
        BYTE   PATT
         POIN2  _64___Temporal_Tower_4_16
// 079   ----------------------------------------
        BYTE   PATT
         POIN2  _64___Temporal_Tower_4_13
// 080   ----------------------------------------
        BYTE   PATT
         POIN2  _64___Temporal_Tower_4_14
// 081   ----------------------------------------
        BYTE   PATT
         POIN2  _64___Temporal_Tower_4_15
// 082   ----------------------------------------
        BYTE   PATT
         POIN2  _64___Temporal_Tower_4_16
// 083   ----------------------------------------
        BYTE   PATT
         POIN2  _64___Temporal_Tower_4_21
// 084   ----------------------------------------
        BYTE   PATT
         POIN2  _64___Temporal_Tower_4_22
// 085   ----------------------------------------
        BYTE   PATT
         POIN2  _64___Temporal_Tower_4_21
// 086   ----------------------------------------
        BYTE   PATT
         POIN2  _64___Temporal_Tower_4_22
// 087   ----------------------------------------
        BYTE   PATT
         POIN2  _64___Temporal_Tower_4_21
// 088   ----------------------------------------
        BYTE   PATT
         POIN2  _64___Temporal_Tower_4_22
// 089   ----------------------------------------
        BYTE   PATT
         POIN2  _64___Temporal_Tower_4_21
// 090   ----------------------------------------
        BYTE   PATT
         POIN2  _64___Temporal_Tower_4_22
// 091   ----------------------------------------
        BYTE   PATT
         POIN2  _64___Temporal_Tower_4_29
// 092   ----------------------------------------
        BYTE   PATT
         POIN2  _64___Temporal_Tower_4_30
// 093   ----------------------------------------
        BYTE   PATT
         POIN2  _64___Temporal_Tower_4_31
// 094   ----------------------------------------
        BYTE   PATT
         POIN2  _64___Temporal_Tower_4_32
// 095   ----------------------------------------
        BYTE   PATT
         POIN2  _64___Temporal_Tower_4_29
// 096   ----------------------------------------
        BYTE   PATT
         POIN2  _64___Temporal_Tower_4_30
// 097   ----------------------------------------
        BYTE   PATT
         POIN2  _64___Temporal_Tower_4_35
// 098   ----------------------------------------
        BYTE   PATT
         POIN2  _64___Temporal_Tower_4_32
// 099   ----------------------------------------
        BYTE   PATT
         POIN2  _64___Temporal_Tower_4_13
// 100   ----------------------------------------
        BYTE   PATT
         POIN2  _64___Temporal_Tower_4_14
// 101   ----------------------------------------
        BYTE   PATT
         POIN2  _64___Temporal_Tower_4_15
// 102   ----------------------------------------
        BYTE   PATT
         POIN2  _64___Temporal_Tower_4_16
// 103   ----------------------------------------
        BYTE   PATT
         POIN2  _64___Temporal_Tower_4_13
// 104   ----------------------------------------
        BYTE   PATT
         POIN2  _64___Temporal_Tower_4_14
// 105   ----------------------------------------
        BYTE   PATT
         POIN2  _64___Temporal_Tower_4_15
// 106   ----------------------------------------
        BYTE   PATT
         POIN2  _64___Temporal_Tower_4_16
// 107   ----------------------------------------
        BYTE   PATT
         POIN2  _64___Temporal_Tower_4_45
// 108   ----------------------------------------
        BYTE   PATT
         POIN2  _64___Temporal_Tower_4_46
// 109   ----------------------------------------
        BYTE   PATT
         POIN2  _64___Temporal_Tower_4_45
// 110   ----------------------------------------
        BYTE   PATT
         POIN2  _64___Temporal_Tower_4_46
// 111   ----------------------------------------
        BYTE   PATT
         POIN2  _64___Temporal_Tower_4_45
// 112   ----------------------------------------
        BYTE   PATT
         POIN2  _64___Temporal_Tower_4_46
// 113   ----------------------------------------
        BYTE           TIE     Cn3   v090
        BYTE   W96
// 114   ----------------------------------------
        BYTE   W92
        BYTE   W03
        BYTE           EOT
        BYTE   W01
// 115   ----------------------------------------
        BYTE           TIE     An2
        BYTE   W96
// 116   ----------------------------------------
        BYTE   W92
        BYTE   W03
        BYTE           EOT
        BYTE   W01
// 117   ----------------------------------------
        BYTE           TIE     Cn3
        BYTE   W96
// 118   ----------------------------------------
        BYTE   W92
        BYTE   W03
        BYTE           EOT
        BYTE   W01
// 119   ----------------------------------------
        BYTE           TIE     An2
        BYTE   W96
// 120   ----------------------------------------
        BYTE   W92
        BYTE   W03
        BYTE           EOT
        BYTE   W01
// 121   ----------------------------------------
        BYTE   PATT
         POIN2  _64___Temporal_Tower_4_59
// 122   ----------------------------------------
        BYTE   PATT
         POIN2  _64___Temporal_Tower_4_60
// 123   ----------------------------------------
        BYTE   W92
        BYTE   W03
        BYTE           VOL     83
        BYTE   W01
// 124   ----------------------------------------
        BYTE   W96
// 125   ----------------------------------------
        BYTE   W96
// 126   ----------------------------------------
        BYTE   W96
// 127   ----------------------------------------
        BYTE   W96
// 128   ----------------------------------------
        BYTE   W96
// 129   ----------------------------------------
        BYTE   PATT
         POIN2  _64___Temporal_Tower_4_5
// 130   ----------------------------------------
        BYTE   PATT
         POIN2  _64___Temporal_Tower_4_6
// 131   ----------------------------------------
        BYTE   PATT
         POIN2  _64___Temporal_Tower_4_7
// 132   ----------------------------------------
        BYTE           N92     Bn2   v080   gtp3
        BYTE                   Gn3
        BYTE   W92
        BYTE   W03
        BYTE   FINE

//****************** Track 5 (Midi-Chn.5) ******************//

_64___Temporal_Tower_5:
        BYTE   KEYSH   _64___Temporal_Tower_key+0
// 000   ----------------------------------------
        BYTE   W24
// 001   ----------------------------------------
        BYTE           VOICE   48
        BYTE           VOL     83
        BYTE           PAN     c_v+30
        BYTE   W96
// 002   ----------------------------------------
        BYTE   W96
// 003   ----------------------------------------
        BYTE   W96
// 004   ----------------------------------------
        BYTE   W96
// 005   ----------------------------------------
_64___Temporal_Tower_5_5:
        BYTE           N92     En2   v080   gtp3
        BYTE                   Dn3
        BYTE   W96
        BYTE   PEND
// 006   ----------------------------------------
        BYTE   PATT
         POIN2  _64___Temporal_Tower_5_5
// 007   ----------------------------------------
_64___Temporal_Tower_5_7:
        BYTE           N92     Fn2   v080   gtp3
        BYTE                   En3
        BYTE   W96
        BYTE   PEND
// 008   ----------------------------------------
_64___Temporal_Tower_5_8:
        BYTE           N92     Gn2   v080   gtp3
        BYTE                   En3
        BYTE   W96
        BYTE   PEND
// 009   ----------------------------------------
        BYTE   PATT
         POIN2  _64___Temporal_Tower_5_5
// 010   ----------------------------------------
        BYTE   PATT
         POIN2  _64___Temporal_Tower_5_5
// 011   ----------------------------------------
        BYTE   PATT
         POIN2  _64___Temporal_Tower_5_7
// 012   ----------------------------------------
        BYTE   PATT
         POIN2  _64___Temporal_Tower_5_8
// 013   ----------------------------------------
_64___Temporal_Tower_5_13:
        BYTE           N68     En2   v095   gtp3
        BYTE                   Bn2
        BYTE   W72
        BYTE           N23     An2
        BYTE           N23     En3
        BYTE   W24
        BYTE   PEND
// 014   ----------------------------------------
_64___Temporal_Tower_5_14:
        BYTE           N68     An2   v095   gtp3
        BYTE                   En3
        BYTE   W72
        BYTE           N23     Bn2
        BYTE           N23     Fs3
        BYTE   W24
        BYTE   PEND
// 015   ----------------------------------------
_64___Temporal_Tower_5_15:
        BYTE           N68     Gn2   v095   gtp3
        BYTE                   Dn3
        BYTE   W72
        BYTE           N23     Cn3
        BYTE           N23     Gn3
        BYTE   W24
        BYTE   PEND
// 016   ----------------------------------------
_64___Temporal_Tower_5_16:
        BYTE           N44     Bn2   v095   gtp3
        BYTE                   Fs3
        BYTE   W48
        BYTE                   Dn3
        BYTE           N44     An3   v095   gtp3
        BYTE   W48
        BYTE   PEND
// 017   ----------------------------------------
        BYTE   PATT
         POIN2  _64___Temporal_Tower_5_13
// 018   ----------------------------------------
        BYTE   PATT
         POIN2  _64___Temporal_Tower_5_14
// 019   ----------------------------------------
        BYTE   PATT
         POIN2  _64___Temporal_Tower_5_15
// 020   ----------------------------------------
        BYTE   PATT
         POIN2  _64___Temporal_Tower_5_16
// 021   ----------------------------------------
_64___Temporal_Tower_5_21:
        BYTE           TIE     En3   v085
        BYTE           TIE     Bn3
        BYTE   W96
        BYTE   PEND
// 022   ----------------------------------------
_64___Temporal_Tower_5_22:
        BYTE   W44
        BYTE   W03
        BYTE           EOT     En3
        BYTE                   Bn3
        BYTE   W24
        BYTE   W01
        BYTE           N14     Dn3   v100
        BYTE           N14     An3
        BYTE   W24
        BYTE   PEND
// 023   ----------------------------------------
        BYTE   PATT
         POIN2  _64___Temporal_Tower_5_21
// 024   ----------------------------------------
        BYTE   PATT
         POIN2  _64___Temporal_Tower_5_22
// 025   ----------------------------------------
        BYTE   PATT
         POIN2  _64___Temporal_Tower_5_21
// 026   ----------------------------------------
        BYTE   PATT
         POIN2  _64___Temporal_Tower_5_22
// 027   ----------------------------------------
        BYTE   PATT
         POIN2  _64___Temporal_Tower_5_21
// 028   ----------------------------------------
        BYTE   PATT
         POIN2  _64___Temporal_Tower_5_22
// 029   ----------------------------------------
_64___Temporal_Tower_5_29:
        BYTE           N44     En3   v095   gtp3
        BYTE                   Bn3
        BYTE   W48
        BYTE                   En3
        BYTE           N44     Bn3   v095   gtp3
        BYTE   W48
        BYTE   PEND
// 030   ----------------------------------------
_64___Temporal_Tower_5_30:
        BYTE           N44     Dn3   v095   gtp3
        BYTE                   An3
        BYTE   W48
        BYTE                   En3
        BYTE           N44     Dn4   v095   gtp3
        BYTE   W48
        BYTE   PEND
// 031   ----------------------------------------
_64___Temporal_Tower_5_31:
        BYTE           N44     En3   v095   gtp3
        BYTE                   Bn3
        BYTE   W48
        BYTE                   En3
        BYTE           N44     Gn4   v095   gtp3
        BYTE   W48
        BYTE   PEND
// 032   ----------------------------------------
_64___Temporal_Tower_5_32:
        BYTE           N44     Dn3   v095   gtp3
        BYTE                   Fs4
        BYTE   W48
        BYTE                   Dn3
        BYTE           N44     Dn4   v095   gtp3
        BYTE   W48
        BYTE   PEND
// 033   ----------------------------------------
        BYTE   PATT
         POIN2  _64___Temporal_Tower_5_29
// 034   ----------------------------------------
        BYTE   PATT
         POIN2  _64___Temporal_Tower_5_30
// 035   ----------------------------------------
_64___Temporal_Tower_5_35:
        BYTE           N44     Dn3   v095   gtp3
        BYTE                   Bn3
        BYTE   W48
        BYTE                   En3
        BYTE           N44     Gn4   v095   gtp3
        BYTE   W48
        BYTE   PEND
// 036   ----------------------------------------
        BYTE   PATT
         POIN2  _64___Temporal_Tower_5_32
// 037   ----------------------------------------
        BYTE   PATT
         POIN2  _64___Temporal_Tower_5_13
// 038   ----------------------------------------
        BYTE   PATT
         POIN2  _64___Temporal_Tower_5_14
// 039   ----------------------------------------
        BYTE   PATT
         POIN2  _64___Temporal_Tower_5_15
// 040   ----------------------------------------
        BYTE   PATT
         POIN2  _64___Temporal_Tower_5_16
// 041   ----------------------------------------
        BYTE   PATT
         POIN2  _64___Temporal_Tower_5_13
// 042   ----------------------------------------
        BYTE   PATT
         POIN2  _64___Temporal_Tower_5_14
// 043   ----------------------------------------
        BYTE   PATT
         POIN2  _64___Temporal_Tower_5_15
// 044   ----------------------------------------
        BYTE   PATT
         POIN2  _64___Temporal_Tower_5_16
// 045   ----------------------------------------
_64___Temporal_Tower_5_45:
        BYTE           TIE     En3   v090
        BYTE           TIE     Bn3
        BYTE   W96
        BYTE   PEND
// 046   ----------------------------------------
_64___Temporal_Tower_5_46:
        BYTE   W44
        BYTE   W03
        BYTE           EOT     En3
        BYTE                   Bn3
        BYTE   W24
        BYTE   W01
        BYTE           N14     Dn3   v105
        BYTE           N14     An3
        BYTE   W24
        BYTE   PEND
// 047   ----------------------------------------
        BYTE   PATT
         POIN2  _64___Temporal_Tower_5_45
// 048   ----------------------------------------
        BYTE   PATT
         POIN2  _64___Temporal_Tower_5_46
// 049   ----------------------------------------
        BYTE   PATT
         POIN2  _64___Temporal_Tower_5_45
// 050   ----------------------------------------
        BYTE   PATT
         POIN2  _64___Temporal_Tower_5_46
// 051   ----------------------------------------
        BYTE           TIE     En3   v090
        BYTE   W96
// 052   ----------------------------------------
        BYTE   W92
        BYTE   W03
        BYTE           EOT
        BYTE   W01
// 053   ----------------------------------------
        BYTE           TIE     Dn3
        BYTE   W96
// 054   ----------------------------------------
        BYTE   W92
        BYTE   W03
        BYTE           EOT
        BYTE   W01
// 055   ----------------------------------------
        BYTE           TIE     En3
        BYTE   W96
// 056   ----------------------------------------
        BYTE   W92
        BYTE   W03
        BYTE           EOT
        BYTE   W01
// 057   ----------------------------------------
        BYTE           TIE     Dn3
        BYTE   W96
// 058   ----------------------------------------
        BYTE   W92
        BYTE   W03
        BYTE           EOT
        BYTE   W01
// 059   ----------------------------------------
_64___Temporal_Tower_5_59:
        BYTE           VOL     80
        BYTE           TIE     An3   v090
        BYTE   W12
        BYTE           VOL     79
        BYTE   W09
        BYTE                   78
        BYTE   W03
        BYTE                   77
        BYTE   W06
        BYTE                   76
        BYTE   W09
        BYTE                   75
        BYTE   W09
        BYTE                   74
        BYTE   W04
        BYTE                   73
        BYTE   W05
        BYTE                   72
        BYTE   W10
        BYTE                   71
        BYTE   W09
        BYTE                   70
        BYTE   W05
        BYTE                   69
        BYTE   W09
        BYTE                   68
        BYTE   W04
        BYTE                   67
        BYTE   W02
        BYTE   PEND
// 060   ----------------------------------------
_64___Temporal_Tower_5_60:
        BYTE   W01
        BYTE           VOL     66
        BYTE   W02
        BYTE                   65
        BYTE   W04
        BYTE                   64
        BYTE   W05
        BYTE                   63
        BYTE   W01
        BYTE                   62
        BYTE   W02
        BYTE                   61
        BYTE   W04
        BYTE                   60
        BYTE   W05
        BYTE                   59
        BYTE   W03
        BYTE                   57
        BYTE   W04
        BYTE                   56
        BYTE   W05
        BYTE                   55
        BYTE   W01
        BYTE                   54
        BYTE   W03
        BYTE                   53
        BYTE   W02
        BYTE                   52
        BYTE   W03
        BYTE                   50
        BYTE   W03
        BYTE                   49
        BYTE   W01
        BYTE                   48
        BYTE   W03
        BYTE                   46
        BYTE   W02
        BYTE                   45
        BYTE   W03
        BYTE                   44
        BYTE   W01
        BYTE                   43
        BYTE   W03
        BYTE                   40
        BYTE   W02
        BYTE                   39
        BYTE   W01
        BYTE                   37
        BYTE   W02
        BYTE                   35
        BYTE   W01
        BYTE                   33
        BYTE   W03
        BYTE                   30
        BYTE   W02
        BYTE                   29
        BYTE   W01
        BYTE                   27
        BYTE   W02
        BYTE                   26
        BYTE   W03
        BYTE                   22
        BYTE   W01
        BYTE                   20
        BYTE   W02
        BYTE                   19
        BYTE   W01
        BYTE                   17
        BYTE   W02
        BYTE                   16
        BYTE   W03
        BYTE                   13
        BYTE   W01
        BYTE                   11
        BYTE   W02
        BYTE                   9
        BYTE   W01
        BYTE                   7
        BYTE   W04
        BYTE           EOT     An3
        BYTE   W01
        BYTE   PEND
// 061   ----------------------------------------
        BYTE   W92
        BYTE   W03
        BYTE           VOL     83
        BYTE   W01
// 062   ----------------------------------------
        BYTE   W96
// 063   ----------------------------------------
        BYTE   W96
// 064   ----------------------------------------
        BYTE   W96
// 065   ----------------------------------------
        BYTE   W96
// 066   ----------------------------------------
        BYTE   W96
// 067   ----------------------------------------
        BYTE   PATT
         POIN2  _64___Temporal_Tower_5_5
// 068   ----------------------------------------
        BYTE   PATT
         POIN2  _64___Temporal_Tower_5_5
// 069   ----------------------------------------
        BYTE   PATT
         POIN2  _64___Temporal_Tower_5_7
// 070   ----------------------------------------
        BYTE   PATT
         POIN2  _64___Temporal_Tower_5_8
// 071   ----------------------------------------
        BYTE   PATT
         POIN2  _64___Temporal_Tower_5_5
// 072   ----------------------------------------
        BYTE   PATT
         POIN2  _64___Temporal_Tower_5_5
// 073   ----------------------------------------
        BYTE   PATT
         POIN2  _64___Temporal_Tower_5_7
// 074   ----------------------------------------
        BYTE   PATT
         POIN2  _64___Temporal_Tower_5_8
// 075   ----------------------------------------
        BYTE   PATT
         POIN2  _64___Temporal_Tower_5_13
// 076   ----------------------------------------
        BYTE   PATT
         POIN2  _64___Temporal_Tower_5_14
// 077   ----------------------------------------
        BYTE   PATT
         POIN2  _64___Temporal_Tower_5_15
// 078   ----------------------------------------
        BYTE   PATT
         POIN2  _64___Temporal_Tower_5_16
// 079   ----------------------------------------
        BYTE   PATT
         POIN2  _64___Temporal_Tower_5_13
// 080   ----------------------------------------
        BYTE   PATT
         POIN2  _64___Temporal_Tower_5_14
// 081   ----------------------------------------
        BYTE   PATT
         POIN2  _64___Temporal_Tower_5_15
// 082   ----------------------------------------
        BYTE   PATT
         POIN2  _64___Temporal_Tower_5_16
// 083   ----------------------------------------
        BYTE   PATT
         POIN2  _64___Temporal_Tower_5_21
// 084   ----------------------------------------
        BYTE   PATT
         POIN2  _64___Temporal_Tower_5_22
// 085   ----------------------------------------
        BYTE   PATT
         POIN2  _64___Temporal_Tower_5_21
// 086   ----------------------------------------
        BYTE   PATT
         POIN2  _64___Temporal_Tower_5_22
// 087   ----------------------------------------
        BYTE   PATT
         POIN2  _64___Temporal_Tower_5_21
// 088   ----------------------------------------
        BYTE   PATT
         POIN2  _64___Temporal_Tower_5_22
// 089   ----------------------------------------
        BYTE   PATT
         POIN2  _64___Temporal_Tower_5_21
// 090   ----------------------------------------
        BYTE   PATT
         POIN2  _64___Temporal_Tower_5_22
// 091   ----------------------------------------
        BYTE   PATT
         POIN2  _64___Temporal_Tower_5_29
// 092   ----------------------------------------
        BYTE   PATT
         POIN2  _64___Temporal_Tower_5_30
// 093   ----------------------------------------
        BYTE   PATT
         POIN2  _64___Temporal_Tower_5_31
// 094   ----------------------------------------
        BYTE   PATT
         POIN2  _64___Temporal_Tower_5_32
// 095   ----------------------------------------
        BYTE   PATT
         POIN2  _64___Temporal_Tower_5_29
// 096   ----------------------------------------
        BYTE   PATT
         POIN2  _64___Temporal_Tower_5_30
// 097   ----------------------------------------
        BYTE   PATT
         POIN2  _64___Temporal_Tower_5_35
// 098   ----------------------------------------
        BYTE   PATT
         POIN2  _64___Temporal_Tower_5_32
// 099   ----------------------------------------
        BYTE   PATT
         POIN2  _64___Temporal_Tower_5_13
// 100   ----------------------------------------
        BYTE   PATT
         POIN2  _64___Temporal_Tower_5_14
// 101   ----------------------------------------
        BYTE   PATT
         POIN2  _64___Temporal_Tower_5_15
// 102   ----------------------------------------
        BYTE   PATT
         POIN2  _64___Temporal_Tower_5_16
// 103   ----------------------------------------
        BYTE   PATT
         POIN2  _64___Temporal_Tower_5_13
// 104   ----------------------------------------
        BYTE   PATT
         POIN2  _64___Temporal_Tower_5_14
// 105   ----------------------------------------
        BYTE   PATT
         POIN2  _64___Temporal_Tower_5_15
// 106   ----------------------------------------
        BYTE   PATT
         POIN2  _64___Temporal_Tower_5_16
// 107   ----------------------------------------
        BYTE   PATT
         POIN2  _64___Temporal_Tower_5_45
// 108   ----------------------------------------
        BYTE   PATT
         POIN2  _64___Temporal_Tower_5_46
// 109   ----------------------------------------
        BYTE   PATT
         POIN2  _64___Temporal_Tower_5_45
// 110   ----------------------------------------
        BYTE   PATT
         POIN2  _64___Temporal_Tower_5_46
// 111   ----------------------------------------
        BYTE   PATT
         POIN2  _64___Temporal_Tower_5_45
// 112   ----------------------------------------
        BYTE   PATT
         POIN2  _64___Temporal_Tower_5_46
// 113   ----------------------------------------
        BYTE           TIE     En3   v090
        BYTE   W96
// 114   ----------------------------------------
        BYTE   W92
        BYTE   W03
        BYTE           EOT
        BYTE   W01
// 115   ----------------------------------------
        BYTE           TIE     Dn3
        BYTE   W96
// 116   ----------------------------------------
        BYTE   W92
        BYTE   W03
        BYTE           EOT
        BYTE   W01
// 117   ----------------------------------------
        BYTE           TIE     En3
        BYTE   W96
// 118   ----------------------------------------
        BYTE   W92
        BYTE   W03
        BYTE           EOT
        BYTE   W01
// 119   ----------------------------------------
        BYTE           TIE     Dn3
        BYTE   W96
// 120   ----------------------------------------
        BYTE   W92
        BYTE   W03
        BYTE           EOT
        BYTE   W01
// 121   ----------------------------------------
        BYTE   PATT
         POIN2  _64___Temporal_Tower_5_59
// 122   ----------------------------------------
        BYTE   PATT
         POIN2  _64___Temporal_Tower_5_60
// 123   ----------------------------------------
        BYTE   W92
        BYTE   W03
        BYTE           VOL     83
        BYTE   W01
// 124   ----------------------------------------
        BYTE   W96
// 125   ----------------------------------------
        BYTE   W96
// 126   ----------------------------------------
        BYTE   W96
// 127   ----------------------------------------
        BYTE   W96
// 128   ----------------------------------------
        BYTE   W96
// 129   ----------------------------------------
        BYTE   PATT
         POIN2  _64___Temporal_Tower_5_5
// 130   ----------------------------------------
        BYTE   PATT
         POIN2  _64___Temporal_Tower_5_5
// 131   ----------------------------------------
        BYTE   PATT
         POIN2  _64___Temporal_Tower_5_7
// 132   ----------------------------------------
        BYTE           N92     Gn2   v080   gtp3
        BYTE                   En3
        BYTE   W92
        BYTE   W03
        BYTE   FINE

//****************** Track 6 (Midi-Chn.6) ******************//

_64___Temporal_Tower_6:
        BYTE   KEYSH   _64___Temporal_Tower_key+0
// 000   ----------------------------------------
        BYTE   W24
// 001   ----------------------------------------
        BYTE           VOICE   40
        BYTE           VOL     62
        BYTE   W96
// 002   ----------------------------------------
        BYTE   W96
// 003   ----------------------------------------
        BYTE   W96
// 004   ----------------------------------------
_64___Temporal_Tower_6_4:
        BYTE   W36
        BYTE   W02
        BYTE           VOICE   52
        BYTE   W01
        BYTE           VOL     99
        BYTE           PAN     c_v-10
        BYTE   W56
        BYTE   W01
        BYTE   PEND
// 005   ----------------------------------------
        BYTE           N92     An3   v070   gtp3
        BYTE   W96
// 006   ----------------------------------------
        BYTE                   Bn3
        BYTE   W96
// 007   ----------------------------------------
        BYTE                   Cn4
        BYTE   W96
// 008   ----------------------------------------
        BYTE                   Dn4
        BYTE   W96
// 009   ----------------------------------------
        BYTE                   An3
        BYTE   W96
// 010   ----------------------------------------
        BYTE                   Bn3
        BYTE   W96
// 011   ----------------------------------------
        BYTE                   Cn4
        BYTE   W96
// 012   ----------------------------------------
        BYTE                   Dn4
        BYTE   W96
// 013   ----------------------------------------
        BYTE   W96
// 014   ----------------------------------------
        BYTE   W96
// 015   ----------------------------------------
        BYTE   W96
// 016   ----------------------------------------
        BYTE   W96
// 017   ----------------------------------------
        BYTE   W96
// 018   ----------------------------------------
        BYTE   W96
// 019   ----------------------------------------
        BYTE   W96
// 020   ----------------------------------------
        BYTE   W96
// 021   ----------------------------------------
        BYTE   W96
// 022   ----------------------------------------
        BYTE   W96
// 023   ----------------------------------------
        BYTE   W96
// 024   ----------------------------------------
        BYTE   W96
// 025   ----------------------------------------
        BYTE   W96
// 026   ----------------------------------------
        BYTE   W96
// 027   ----------------------------------------
        BYTE   W96
// 028   ----------------------------------------
        BYTE   W96
// 029   ----------------------------------------
        BYTE   W96
// 030   ----------------------------------------
        BYTE   W96
// 031   ----------------------------------------
        BYTE   W96
// 032   ----------------------------------------
        BYTE   W96
// 033   ----------------------------------------
        BYTE   W96
// 034   ----------------------------------------
        BYTE   W96
// 035   ----------------------------------------
        BYTE   W96
// 036   ----------------------------------------
        BYTE   W96
// 037   ----------------------------------------
        BYTE   W96
// 038   ----------------------------------------
        BYTE   W96
// 039   ----------------------------------------
        BYTE   W96
// 040   ----------------------------------------
        BYTE   W96
// 041   ----------------------------------------
        BYTE   W96
// 042   ----------------------------------------
        BYTE   W96
// 043   ----------------------------------------
_64___Temporal_Tower_6_43:
        BYTE   W32
        BYTE           VOICE   40
        BYTE   W01
        BYTE           PAN     c_v+0
        BYTE           VOL     103
        BYTE   W60
        BYTE   W03
        BYTE   PEND
// 044   ----------------------------------------
_64___Temporal_Tower_6_44:
        BYTE   W72
        BYTE           N02     En3   v100
        BYTE   W06
        BYTE                   Fs3
        BYTE   W06
        BYTE                   Gn3
        BYTE   W06
        BYTE                   An3
        BYTE   W06
        BYTE   PEND
// 045   ----------------------------------------
_64___Temporal_Tower_6_45:
        BYTE           N32     Bn3   v110   gtp3
        BYTE   W36
        BYTE           N03     An3   v100
        BYTE   W06
        BYTE                   Gn3
        BYTE   W06
        BYTE           N17     Fs3   v110
        BYTE   W18
        BYTE                   Dn3   v070
        BYTE   W18
        BYTE           N11     Fs3   v095
        BYTE   W12
        BYTE   PEND
// 046   ----------------------------------------
_64___Temporal_Tower_6_46:
        BYTE           N17     En3   v110
        BYTE   W18
        BYTE                   Bn2   v070
        BYTE   W18
        BYTE           N11     An2   v095
        BYTE   W12
        BYTE                   Bn2
        BYTE   W24
        BYTE           N02     En3   v100
        BYTE   W06
        BYTE                   Fs3
        BYTE   W06
        BYTE                   Gn3
        BYTE   W06
        BYTE                   An3
        BYTE   W06
        BYTE   PEND
// 047   ----------------------------------------
        BYTE   PATT
         POIN2  _64___Temporal_Tower_6_45
// 048   ----------------------------------------
_64___Temporal_Tower_6_48:
        BYTE           N17     En3   v110
        BYTE   W18
        BYTE                   Bn3   v070
        BYTE   W18
        BYTE           N11     An3   v095
        BYTE   W12
        BYTE                   Bn3
        BYTE   W24
        BYTE           N02     En3   v100
        BYTE   W06
        BYTE                   Fs3
        BYTE   W06
        BYTE                   Gn3
        BYTE   W06
        BYTE                   An3
        BYTE   W06
        BYTE   PEND
// 049   ----------------------------------------
        BYTE   PATT
         POIN2  _64___Temporal_Tower_6_45
// 050   ----------------------------------------
_64___Temporal_Tower_6_50:
        BYTE           N17     En3   v110
        BYTE   W18
        BYTE                   Bn2   v070
        BYTE   W18
        BYTE           N11     An2   v095
        BYTE   W12
        BYTE           N17     Bn2   v110
        BYTE   W18
        BYTE                   An2   v070
        BYTE   W18
        BYTE           N11     Gn2   v095
        BYTE   W12
        BYTE   PEND
// 051   ----------------------------------------
        BYTE           TIE     En2   v110
        BYTE   W96
// 052   ----------------------------------------
        BYTE   W92
        BYTE   W03
        BYTE           EOT
        BYTE   W01
// 053   ----------------------------------------
        BYTE   W96
// 054   ----------------------------------------
_64___Temporal_Tower_6_54:
        BYTE           N32     En2   v110   gtp3
        BYTE   W36
        BYTE           N11     Gn2   v105
        BYTE   W12
        BYTE           N17     Fs2   v110
        BYTE   W18
        BYTE                   En2   v085
        BYTE   W18
        BYTE           N11     Dn2   v095
        BYTE   W12
        BYTE   PEND
// 055   ----------------------------------------
        BYTE           TIE     En2   v110
        BYTE   W96
// 056   ----------------------------------------
        BYTE   W92
        BYTE   W03
        BYTE           EOT
        BYTE   W01
// 057   ----------------------------------------
        BYTE   W96
// 058   ----------------------------------------
        BYTE   PATT
         POIN2  _64___Temporal_Tower_6_54
// 059   ----------------------------------------
        BYTE           TIE     En2   v110
        BYTE   W96
// 060   ----------------------------------------
        BYTE   W92
        BYTE   W03
        BYTE           EOT
        BYTE   W01
// 061   ----------------------------------------
        BYTE   W96
// 062   ----------------------------------------
        BYTE   W96
// 063   ----------------------------------------
        BYTE   W96
// 064   ----------------------------------------
        BYTE   W96
// 065   ----------------------------------------
        BYTE   W96
// 066   ----------------------------------------
        BYTE   PATT
         POIN2  _64___Temporal_Tower_6_4
// 067   ----------------------------------------
        BYTE           N92     An3   v070   gtp3
        BYTE   W96
// 068   ----------------------------------------
        BYTE                   Bn3
        BYTE   W96
// 069   ----------------------------------------
        BYTE                   Cn4
        BYTE   W96
// 070   ----------------------------------------
        BYTE                   Dn4
        BYTE   W96
// 071   ----------------------------------------
        BYTE                   An3
        BYTE   W96
// 072   ----------------------------------------
        BYTE                   Bn3
        BYTE   W96
// 073   ----------------------------------------
        BYTE                   Cn4
        BYTE   W96
// 074   ----------------------------------------
        BYTE                   Dn4
        BYTE   W96
// 075   ----------------------------------------
        BYTE   W96
// 076   ----------------------------------------
        BYTE   W96
// 077   ----------------------------------------
        BYTE   W96
// 078   ----------------------------------------
        BYTE   W96
// 079   ----------------------------------------
        BYTE   W96
// 080   ----------------------------------------
        BYTE   W96
// 081   ----------------------------------------
        BYTE   W96
// 082   ----------------------------------------
        BYTE   W96
// 083   ----------------------------------------
        BYTE   W96
// 084   ----------------------------------------
        BYTE   W96
// 085   ----------------------------------------
        BYTE   W96
// 086   ----------------------------------------
        BYTE   W96
// 087   ----------------------------------------
        BYTE   W96
// 088   ----------------------------------------
        BYTE   W96
// 089   ----------------------------------------
        BYTE   W96
// 090   ----------------------------------------
        BYTE   W96
// 091   ----------------------------------------
        BYTE   W96
// 092   ----------------------------------------
        BYTE   W96
// 093   ----------------------------------------
        BYTE   W96
// 094   ----------------------------------------
        BYTE   W96
// 095   ----------------------------------------
        BYTE   W96
// 096   ----------------------------------------
        BYTE   W96
// 097   ----------------------------------------
        BYTE   W96
// 098   ----------------------------------------
        BYTE   W96
// 099   ----------------------------------------
        BYTE   W96
// 100   ----------------------------------------
        BYTE   W96
// 101   ----------------------------------------
        BYTE   W96
// 102   ----------------------------------------
        BYTE   W96
// 103   ----------------------------------------
        BYTE   W96
// 104   ----------------------------------------
        BYTE   W96
// 105   ----------------------------------------
        BYTE   PATT
         POIN2  _64___Temporal_Tower_6_43
// 106   ----------------------------------------
        BYTE   PATT
         POIN2  _64___Temporal_Tower_6_44
// 107   ----------------------------------------
        BYTE   PATT
         POIN2  _64___Temporal_Tower_6_45
// 108   ----------------------------------------
        BYTE   PATT
         POIN2  _64___Temporal_Tower_6_46
// 109   ----------------------------------------
        BYTE   PATT
         POIN2  _64___Temporal_Tower_6_45
// 110   ----------------------------------------
        BYTE   PATT
         POIN2  _64___Temporal_Tower_6_48
// 111   ----------------------------------------
        BYTE   PATT
         POIN2  _64___Temporal_Tower_6_45
// 112   ----------------------------------------
        BYTE   PATT
         POIN2  _64___Temporal_Tower_6_50
// 113   ----------------------------------------
        BYTE           TIE     En2   v110
        BYTE   W96
// 114   ----------------------------------------
        BYTE   W92
        BYTE   W03
        BYTE           EOT
        BYTE   W01
// 115   ----------------------------------------
        BYTE   W96
// 116   ----------------------------------------
        BYTE   PATT
         POIN2  _64___Temporal_Tower_6_54
// 117   ----------------------------------------
        BYTE           TIE     En2   v110
        BYTE   W96
// 118   ----------------------------------------
        BYTE   W92
        BYTE   W03
        BYTE           EOT
        BYTE   W01
// 119   ----------------------------------------
        BYTE   W96
// 120   ----------------------------------------
        BYTE   PATT
         POIN2  _64___Temporal_Tower_6_54
// 121   ----------------------------------------
        BYTE           TIE     En2   v110
        BYTE   W96
// 122   ----------------------------------------
        BYTE   W92
        BYTE   W03
        BYTE           EOT
        BYTE   W01
// 123   ----------------------------------------
        BYTE   W96
// 124   ----------------------------------------
        BYTE   W96
// 125   ----------------------------------------
        BYTE   W96
// 126   ----------------------------------------
        BYTE   W96
// 127   ----------------------------------------
        BYTE   W96
// 128   ----------------------------------------
        BYTE   PATT
         POIN2  _64___Temporal_Tower_6_4
// 129   ----------------------------------------
        BYTE           N92     An3   v070   gtp3
        BYTE   W96
// 130   ----------------------------------------
        BYTE                   Bn3
        BYTE   W96
// 131   ----------------------------------------
        BYTE                   Cn4
        BYTE   W96
// 132   ----------------------------------------
        BYTE                   Dn4
        BYTE   W92
        BYTE   W03
        BYTE   FINE

//****************** Track 7 (Midi-Chn.7) ******************//

_64___Temporal_Tower_7:
        BYTE   KEYSH   _64___Temporal_Tower_key+0
// 000   ----------------------------------------
        BYTE   W24
// 001   ----------------------------------------
        BYTE           VOICE   0
        BYTE           VOL     83
        BYTE   W96
// 002   ----------------------------------------
        BYTE   W96
// 003   ----------------------------------------
        BYTE   W36
        BYTE   W02
        BYTE           VOICE   52
        BYTE   W01
        BYTE           VOL     99
        BYTE           PAN     c_v-40
        BYTE   W56
        BYTE           VOL     45
        BYTE   W01
// 004   ----------------------------------------
_64___Temporal_Tower_7_4:
        BYTE           TIE     Bn3   v095
        BYTE   W04
        BYTE           VOL     49
        BYTE   W03
        BYTE                   52
        BYTE   W02
        BYTE                   53
        BYTE   W01
        BYTE                   54
        BYTE   W02
        BYTE                   55
        BYTE   W01
        BYTE                   57
        BYTE   W02
        BYTE                   58
        BYTE   W01
        BYTE                   59
        BYTE   W02
        BYTE                   60
        BYTE   W03
        BYTE                   62
        BYTE   W03
        BYTE                   64
        BYTE   W01
        BYTE                   65
        BYTE   W02
        BYTE                   66
        BYTE   W01
        BYTE                   67
        BYTE   W02
        BYTE                   68
        BYTE   W01
        BYTE                   70
        BYTE   W02
        BYTE                   71
        BYTE   W01
        BYTE                   72
        BYTE   W02
        BYTE                   73
        BYTE   W01
        BYTE                   74
        BYTE   W02
        BYTE                   76
        BYTE   W01
        BYTE                   77
        BYTE   W03
        BYTE                   78
        BYTE   W02
        BYTE                   79
        BYTE   W01
        BYTE                   80
        BYTE   W02
        BYTE                   81
        BYTE   W01
        BYTE                   83
        BYTE   W02
        BYTE                   84
        BYTE   W01
        BYTE                   85
        BYTE   W02
        BYTE                   86
        BYTE   W01
        BYTE                   87
        BYTE   W02
        BYTE                   89
        BYTE   W01
        BYTE                   90
        BYTE   W02
        BYTE                   91
        BYTE   W01
        BYTE                   92
        BYTE   W02
        BYTE                   93
        BYTE   W01
        BYTE                   94
        BYTE   W03
        BYTE                   96
        BYTE   W02
        BYTE                   97
        BYTE   W01
        BYTE                   99
        BYTE   W08
        BYTE                   94
        BYTE   W03
        BYTE                   92
        BYTE   W01
        BYTE                   90
        BYTE   W02
        BYTE                   89
        BYTE   W01
        BYTE                   87
        BYTE   W02
        BYTE                   85
        BYTE   W01
        BYTE                   84
        BYTE   W02
        BYTE                   82
        BYTE   W01
        BYTE                   80
        BYTE   W02
        BYTE                   79
        BYTE   W01
        BYTE                   77
        BYTE   W02
        BYTE   PEND
// 005   ----------------------------------------
_64___Temporal_Tower_7_5:
        BYTE           VOL     74
        BYTE   W01
        BYTE                   72
        BYTE   W02
        BYTE                   68
        BYTE   W01
        BYTE                   65
        BYTE   W02
        BYTE                   62
        BYTE   W01
        BYTE                   59
        BYTE   W02
        BYTE                   56
        BYTE   W01
        BYTE                   53
        BYTE   W02
        BYTE                   49
        BYTE   W01
        BYTE                   46
        BYTE   W02
        BYTE                   43
        BYTE   W01
        BYTE                   39
        BYTE   W02
        BYTE                   34
        BYTE   W01
        BYTE                   29
        BYTE   W02
        BYTE                   24
        BYTE   W01
        BYTE                   19
        BYTE   W02
        BYTE                   14
        BYTE   W01
        BYTE                   9
        BYTE   W02
        BYTE                   5
        BYTE   W01
        BYTE                   0
        BYTE   W19
        BYTE           EOT     Bn3
        BYTE   W48
        BYTE   W01
        BYTE   PEND
// 006   ----------------------------------------
        BYTE   W96
// 007   ----------------------------------------
        BYTE   W96
// 008   ----------------------------------------
        BYTE   W96
// 009   ----------------------------------------
        BYTE   W96
// 010   ----------------------------------------
        BYTE   W96
// 011   ----------------------------------------
        BYTE   W96
// 012   ----------------------------------------
_64___Temporal_Tower_7_12:
        BYTE   W02
        BYTE           VOICE   88
        BYTE   W01
        BYTE           PAN     c_v-63
        BYTE           VOL     83
        BYTE   W92
        BYTE   W01
        BYTE   PEND
// 013   ----------------------------------------
_64___Temporal_Tower_7_13:
        BYTE   W54
        BYTE           N03     Bn4   v045
        BYTE   W24
        BYTE                   En4   v070
        BYTE   W12
        BYTE                   Dn4   v045
        BYTE   W06
        BYTE   PEND
// 014   ----------------------------------------
_64___Temporal_Tower_7_14:
        BYTE   W06
        BYTE           N03     En4   v045
        BYTE   W54
        BYTE                   An4   v070
        BYTE   W12
        BYTE                   Dn4   v045
        BYTE   W24
        BYTE   PEND
// 015   ----------------------------------------
_64___Temporal_Tower_7_15:
        BYTE   W12
        BYTE           N03     An3   v070
        BYTE   W42
        BYTE                   En4   v045
        BYTE   W24
        BYTE                   An3   v070
        BYTE   W12
        BYTE                   Gn3   v045
        BYTE   W06
        BYTE   PEND
// 016   ----------------------------------------
_64___Temporal_Tower_7_16:
        BYTE   W06
        BYTE           N03     An3   v045
        BYTE   W54
        BYTE                   Dn4   v070
        BYTE   W12
        BYTE                   Gn3   v045
        BYTE   W18
        BYTE                   An3
        BYTE   W06
        BYTE   PEND
// 017   ----------------------------------------
        BYTE   PATT
         POIN2  _64___Temporal_Tower_7_13
// 018   ----------------------------------------
        BYTE   PATT
         POIN2  _64___Temporal_Tower_7_14
// 019   ----------------------------------------
        BYTE   PATT
         POIN2  _64___Temporal_Tower_7_15
// 020   ----------------------------------------
        BYTE   PATT
         POIN2  _64___Temporal_Tower_7_16
// 021   ----------------------------------------
        BYTE   W96
// 022   ----------------------------------------
        BYTE   W96
// 023   ----------------------------------------
        BYTE   W96
// 024   ----------------------------------------
        BYTE   W96
// 025   ----------------------------------------
        BYTE   W96
// 026   ----------------------------------------
        BYTE   W96
// 027   ----------------------------------------
        BYTE   W96
// 028   ----------------------------------------
        BYTE   W96
// 029   ----------------------------------------
        BYTE   W96
// 030   ----------------------------------------
        BYTE   W96
// 031   ----------------------------------------
        BYTE   W96
// 032   ----------------------------------------
        BYTE   W96
// 033   ----------------------------------------
        BYTE   W96
// 034   ----------------------------------------
        BYTE   W96
// 035   ----------------------------------------
        BYTE   W96
// 036   ----------------------------------------
        BYTE   W96
// 037   ----------------------------------------
        BYTE   PATT
         POIN2  _64___Temporal_Tower_7_13
// 038   ----------------------------------------
        BYTE   PATT
         POIN2  _64___Temporal_Tower_7_14
// 039   ----------------------------------------
        BYTE   PATT
         POIN2  _64___Temporal_Tower_7_15
// 040   ----------------------------------------
        BYTE   PATT
         POIN2  _64___Temporal_Tower_7_16
// 041   ----------------------------------------
        BYTE   PATT
         POIN2  _64___Temporal_Tower_7_13
// 042   ----------------------------------------
        BYTE   PATT
         POIN2  _64___Temporal_Tower_7_14
// 043   ----------------------------------------
        BYTE   PATT
         POIN2  _64___Temporal_Tower_7_15
// 044   ----------------------------------------
        BYTE   PATT
         POIN2  _64___Temporal_Tower_7_16
// 045   ----------------------------------------
        BYTE   W96
// 046   ----------------------------------------
        BYTE   W96
// 047   ----------------------------------------
        BYTE   W96
// 048   ----------------------------------------
        BYTE   W96
// 049   ----------------------------------------
        BYTE   W96
// 050   ----------------------------------------
_64___Temporal_Tower_7_50:
        BYTE   W36
        BYTE   W02
        BYTE           VOICE   52
        BYTE   W01
        BYTE           PAN     c_v+0
        BYTE           VOL     105
        BYTE   W56
        BYTE           PAN     c_v+30
        BYTE   W01
        BYTE   PEND
// 051   ----------------------------------------
_64___Temporal_Tower_7_51:
        BYTE           TIE     Gn3   v080
        BYTE   W05
        BYTE           PAN     c_v+26
        BYTE   W06
        BYTE                   c_v+22
        BYTE   W06
        BYTE                   c_v+19
        BYTE   W06
        BYTE                   c_v+15
        BYTE   W06
        BYTE                   c_v+11
        BYTE   W06
        BYTE                   c_v+8
        BYTE   W06
        BYTE                   c_v+4
        BYTE   W06
        BYTE                   c_v+0
        BYTE   W06
        BYTE                   c_v-4
        BYTE   W06
        BYTE                   c_v-7
        BYTE   W06
        BYTE                   c_v-11
        BYTE   W06
        BYTE                   c_v-15
        BYTE   W06
        BYTE                   c_v-18
        BYTE   W06
        BYTE                   c_v-22
        BYTE   W06
        BYTE                   c_v-26
        BYTE   W06
        BYTE                   c_v-29
        BYTE   W01
        BYTE   PEND
// 052   ----------------------------------------
_64___Temporal_Tower_7_52:
        BYTE   W05
        BYTE           PAN     c_v-27
        BYTE   W06
        BYTE                   c_v-23
        BYTE   W06
        BYTE                   c_v-19
        BYTE   W06
        BYTE                   c_v-15
        BYTE   W06
        BYTE                   c_v-10
        BYTE   W06
        BYTE                   c_v-6
        BYTE   W06
        BYTE                   c_v-2
        BYTE   W06
        BYTE                   c_v+2
        BYTE   W06
        BYTE                   c_v+6
        BYTE   W06
        BYTE                   c_v+10
        BYTE   W06
        BYTE                   c_v+15
        BYTE   W06
        BYTE                   c_v+19
        BYTE   W06
        BYTE                   c_v+23
        BYTE   W06
        BYTE                   c_v+24
        BYTE   W12
        BYTE           EOT     Gn3
        BYTE           PAN     c_v+30
        BYTE   W01
        BYTE   PEND
// 053   ----------------------------------------
_64___Temporal_Tower_7_53:
        BYTE           TIE     Fs3   v080
        BYTE   W05
        BYTE           PAN     c_v+26
        BYTE   W06
        BYTE                   c_v+22
        BYTE   W06
        BYTE                   c_v+19
        BYTE   W06
        BYTE                   c_v+15
        BYTE   W06
        BYTE                   c_v+11
        BYTE   W06
        BYTE                   c_v+8
        BYTE   W06
        BYTE                   c_v+4
        BYTE   W06
        BYTE                   c_v+0
        BYTE   W06
        BYTE                   c_v-4
        BYTE   W06
        BYTE                   c_v-7
        BYTE   W06
        BYTE                   c_v-11
        BYTE   W06
        BYTE                   c_v-15
        BYTE   W06
        BYTE                   c_v-18
        BYTE   W06
        BYTE                   c_v-22
        BYTE   W06
        BYTE                   c_v-26
        BYTE   W06
        BYTE                   c_v-29
        BYTE   W01
        BYTE   PEND
// 054   ----------------------------------------
_64___Temporal_Tower_7_54:
        BYTE   W05
        BYTE           PAN     c_v-27
        BYTE   W06
        BYTE                   c_v-23
        BYTE   W06
        BYTE                   c_v-19
        BYTE   W06
        BYTE                   c_v-15
        BYTE   W06
        BYTE                   c_v-10
        BYTE   W06
        BYTE                   c_v-6
        BYTE   W06
        BYTE                   c_v-2
        BYTE   W06
        BYTE                   c_v+2
        BYTE   W06
        BYTE                   c_v+6
        BYTE   W06
        BYTE                   c_v+10
        BYTE   W06
        BYTE                   c_v+15
        BYTE   W06
        BYTE                   c_v+19
        BYTE   W06
        BYTE                   c_v+23
        BYTE   W06
        BYTE                   c_v+24
        BYTE   W12
        BYTE           EOT     Fs3
        BYTE           PAN     c_v+30
        BYTE   W01
        BYTE   PEND
// 055   ----------------------------------------
        BYTE   PATT
         POIN2  _64___Temporal_Tower_7_51
// 056   ----------------------------------------
        BYTE   PATT
         POIN2  _64___Temporal_Tower_7_52
// 057   ----------------------------------------
        BYTE   PATT
         POIN2  _64___Temporal_Tower_7_53
// 058   ----------------------------------------
_64___Temporal_Tower_7_58:
        BYTE   W05
        BYTE           PAN     c_v-27
        BYTE   W06
        BYTE                   c_v-23
        BYTE   W06
        BYTE                   c_v-19
        BYTE   W06
        BYTE                   c_v-15
        BYTE   W06
        BYTE                   c_v-10
        BYTE   W06
        BYTE                   c_v-6
        BYTE   W06
        BYTE                   c_v-2
        BYTE   W06
        BYTE                   c_v+2
        BYTE   W06
        BYTE                   c_v+6
        BYTE   W06
        BYTE                   c_v+10
        BYTE   W06
        BYTE                   c_v+15
        BYTE   W06
        BYTE                   c_v+19
        BYTE   W06
        BYTE                   c_v+23
        BYTE   W06
        BYTE                   c_v+24
        BYTE   W12
        BYTE           EOT     Fs3
        BYTE           PAN     c_v+0
        BYTE   W01
        BYTE   PEND
// 059   ----------------------------------------
_64___Temporal_Tower_7_59:
        BYTE           VOL     102
        BYTE           TIE     En3   v080
        BYTE   W06
        BYTE           VOL     101
        BYTE   W06
        BYTE                   100
        BYTE   W09
        BYTE                   99
        BYTE   W03
        BYTE                   98
        BYTE   W06
        BYTE                   97
        BYTE   W04
        BYTE                   96
        BYTE   W05
        BYTE                   95
        BYTE   W09
        BYTE                   94
        BYTE   W04
        BYTE                   93
        BYTE   W05
        BYTE                   92
        BYTE   W06
        BYTE                   91
        BYTE   W04
        BYTE                   90
        BYTE   W09
        BYTE                   89
        BYTE   W05
        BYTE                   88
        BYTE   W04
        BYTE                   87
        BYTE   W05
        BYTE                   86
        BYTE   W04
        BYTE                   85
        BYTE   W02
        BYTE   PEND
// 060   ----------------------------------------
_64___Temporal_Tower_7_60:
        BYTE   W01
        BYTE           VOL     84
        BYTE   W02
        BYTE                   83
        BYTE   W03
        BYTE                   82
        BYTE   W01
        BYTE                   81
        BYTE   W05
        BYTE                   80
        BYTE   W01
        BYTE                   79
        BYTE   W02
        BYTE                   78
        BYTE   W04
        BYTE                   76
        BYTE   W05
        BYTE                   75
        BYTE   W03
        BYTE                   73
        BYTE   W03
        BYTE                   72
        BYTE   W01
        BYTE                   71
        BYTE   W05
        BYTE                   70
        BYTE   W01
        BYTE                   69
        BYTE   W02
        BYTE                   68
        BYTE   W01
        BYTE                   67
        BYTE   W02
        BYTE                   66
        BYTE   W03
        BYTE                   64
        BYTE   W01
        BYTE                   63
        BYTE   W02
        BYTE                   62
        BYTE   W01
        BYTE                   61
        BYTE   W03
        BYTE                   59
        BYTE   W02
        BYTE                   57
        BYTE   W03
        BYTE                   56
        BYTE   W01
        BYTE                   54
        BYTE   W03
        BYTE                   51
        BYTE   W02
        BYTE                   49
        BYTE   W01
        BYTE                   47
        BYTE   W02
        BYTE                   45
        BYTE   W01
        BYTE                   42
        BYTE   W03
        BYTE                   38
        BYTE   W02
        BYTE                   37
        BYTE   W01
        BYTE                   34
        BYTE   W02
        BYTE                   33
        BYTE   W03
        BYTE                   28
        BYTE   W01
        BYTE                   26
        BYTE   W02
        BYTE                   24
        BYTE   W01
        BYTE                   22
        BYTE   W02
        BYTE                   20
        BYTE   W03
        BYTE                   16
        BYTE   W01
        BYTE                   14
        BYTE   W02
        BYTE                   12
        BYTE   W01
        BYTE                   9
        BYTE   W04
        BYTE           EOT     En3
        BYTE   W01
        BYTE   PEND
// 061   ----------------------------------------
        BYTE   W92
        BYTE   W03
        BYTE           VOL     105
        BYTE   W01
// 062   ----------------------------------------
        BYTE   W96
// 063   ----------------------------------------
        BYTE   W96
// 064   ----------------------------------------
        BYTE   W96
// 065   ----------------------------------------
_64___Temporal_Tower_7_65:
        BYTE   W36
        BYTE   W03
        BYTE           VOL     99
        BYTE           PAN     c_v-10
        BYTE   W56
        BYTE           VOL     45
        BYTE   W01
        BYTE   PEND
// 066   ----------------------------------------
        BYTE   PATT
         POIN2  _64___Temporal_Tower_7_4
// 067   ----------------------------------------
        BYTE   PATT
         POIN2  _64___Temporal_Tower_7_5
// 068   ----------------------------------------
        BYTE   W96
// 069   ----------------------------------------
        BYTE   W96
// 070   ----------------------------------------
        BYTE   W96
// 071   ----------------------------------------
        BYTE   W96
// 072   ----------------------------------------
        BYTE   W96
// 073   ----------------------------------------
        BYTE   W96
// 074   ----------------------------------------
        BYTE   PATT
         POIN2  _64___Temporal_Tower_7_12
// 075   ----------------------------------------
        BYTE   PATT
         POIN2  _64___Temporal_Tower_7_13
// 076   ----------------------------------------
        BYTE   PATT
         POIN2  _64___Temporal_Tower_7_14
// 077   ----------------------------------------
        BYTE   PATT
         POIN2  _64___Temporal_Tower_7_15
// 078   ----------------------------------------
        BYTE   PATT
         POIN2  _64___Temporal_Tower_7_16
// 079   ----------------------------------------
        BYTE   PATT
         POIN2  _64___Temporal_Tower_7_13
// 080   ----------------------------------------
        BYTE   PATT
         POIN2  _64___Temporal_Tower_7_14
// 081   ----------------------------------------
        BYTE   PATT
         POIN2  _64___Temporal_Tower_7_15
// 082   ----------------------------------------
        BYTE   PATT
         POIN2  _64___Temporal_Tower_7_16
// 083   ----------------------------------------
        BYTE   W96
// 084   ----------------------------------------
        BYTE   W96
// 085   ----------------------------------------
        BYTE   W96
// 086   ----------------------------------------
        BYTE   W96
// 087   ----------------------------------------
        BYTE   W96
// 088   ----------------------------------------
        BYTE   W96
// 089   ----------------------------------------
        BYTE   W96
// 090   ----------------------------------------
        BYTE   W96
// 091   ----------------------------------------
        BYTE   W96
// 092   ----------------------------------------
        BYTE   W96
// 093   ----------------------------------------
        BYTE   W96
// 094   ----------------------------------------
        BYTE   W96
// 095   ----------------------------------------
        BYTE   W96
// 096   ----------------------------------------
        BYTE   W96
// 097   ----------------------------------------
        BYTE   W96
// 098   ----------------------------------------
        BYTE   W96
// 099   ----------------------------------------
        BYTE   PATT
         POIN2  _64___Temporal_Tower_7_13
// 100   ----------------------------------------
        BYTE   PATT
         POIN2  _64___Temporal_Tower_7_14
// 101   ----------------------------------------
        BYTE   PATT
         POIN2  _64___Temporal_Tower_7_15
// 102   ----------------------------------------
        BYTE   PATT
         POIN2  _64___Temporal_Tower_7_16
// 103   ----------------------------------------
        BYTE   PATT
         POIN2  _64___Temporal_Tower_7_13
// 104   ----------------------------------------
        BYTE   PATT
         POIN2  _64___Temporal_Tower_7_14
// 105   ----------------------------------------
        BYTE   PATT
         POIN2  _64___Temporal_Tower_7_15
// 106   ----------------------------------------
        BYTE   PATT
         POIN2  _64___Temporal_Tower_7_16
// 107   ----------------------------------------
        BYTE   W96
// 108   ----------------------------------------
        BYTE   W96
// 109   ----------------------------------------
        BYTE   W96
// 110   ----------------------------------------
        BYTE   W96
// 111   ----------------------------------------
        BYTE   W96
// 112   ----------------------------------------
        BYTE   PATT
         POIN2  _64___Temporal_Tower_7_50
// 113   ----------------------------------------
        BYTE   PATT
         POIN2  _64___Temporal_Tower_7_51
// 114   ----------------------------------------
        BYTE   PATT
         POIN2  _64___Temporal_Tower_7_52
// 115   ----------------------------------------
        BYTE   PATT
         POIN2  _64___Temporal_Tower_7_53
// 116   ----------------------------------------
        BYTE   PATT
         POIN2  _64___Temporal_Tower_7_54
// 117   ----------------------------------------
        BYTE   PATT
         POIN2  _64___Temporal_Tower_7_51
// 118   ----------------------------------------
        BYTE   PATT
         POIN2  _64___Temporal_Tower_7_52
// 119   ----------------------------------------
        BYTE   PATT
         POIN2  _64___Temporal_Tower_7_53
// 120   ----------------------------------------
        BYTE   PATT
         POIN2  _64___Temporal_Tower_7_58
// 121   ----------------------------------------
        BYTE   PATT
         POIN2  _64___Temporal_Tower_7_59
// 122   ----------------------------------------
        BYTE   PATT
         POIN2  _64___Temporal_Tower_7_60
// 123   ----------------------------------------
        BYTE   W92
        BYTE   W03
        BYTE           VOL     105
        BYTE   W01
// 124   ----------------------------------------
        BYTE   W96
// 125   ----------------------------------------
        BYTE   W96
// 126   ----------------------------------------
        BYTE   W96
// 127   ----------------------------------------
        BYTE   PATT
         POIN2  _64___Temporal_Tower_7_65
// 128   ----------------------------------------
        BYTE   PATT
         POIN2  _64___Temporal_Tower_7_4
// 129   ----------------------------------------
        BYTE   PATT
         POIN2  _64___Temporal_Tower_7_5
// 130   ----------------------------------------
        BYTE   W96
// 131   ----------------------------------------
        BYTE   W96
// 132   ----------------------------------------
        BYTE   W92
        BYTE   W03
        BYTE   FINE

//****************** Track 8 (Midi-Chn.8) ******************//

_64___Temporal_Tower_8:
        BYTE   KEYSH   _64___Temporal_Tower_key+0
// 000   ----------------------------------------
        BYTE   W24
// 001   ----------------------------------------
        BYTE           VOICE   0
        BYTE           VOL     83
        BYTE   W96
// 002   ----------------------------------------
        BYTE   W96
// 003   ----------------------------------------
_64___Temporal_Tower_8_3:
        BYTE   W36
        BYTE   W02
        BYTE           VOICE   52
        BYTE   W01
        BYTE           VOL     99
        BYTE           PAN     c_v-20
        BYTE   W56
        BYTE           VOL     45
        BYTE   W01
        BYTE   PEND
// 004   ----------------------------------------
_64___Temporal_Tower_8_4:
        BYTE           TIE     Gn3   v095
        BYTE   W04
        BYTE           VOL     49
        BYTE   W03
        BYTE                   52
        BYTE   W02
        BYTE                   53
        BYTE   W01
        BYTE                   54
        BYTE   W02
        BYTE                   55
        BYTE   W01
        BYTE                   57
        BYTE   W02
        BYTE                   58
        BYTE   W01
        BYTE                   59
        BYTE   W02
        BYTE                   60
        BYTE   W03
        BYTE                   62
        BYTE   W03
        BYTE                   64
        BYTE   W01
        BYTE                   65
        BYTE   W02
        BYTE                   66
        BYTE   W01
        BYTE                   67
        BYTE   W02
        BYTE                   68
        BYTE   W01
        BYTE                   70
        BYTE   W02
        BYTE                   71
        BYTE   W01
        BYTE                   72
        BYTE   W02
        BYTE                   73
        BYTE   W01
        BYTE                   74
        BYTE   W02
        BYTE                   76
        BYTE   W01
        BYTE                   77
        BYTE   W03
        BYTE                   78
        BYTE   W02
        BYTE                   79
        BYTE   W01
        BYTE                   80
        BYTE   W02
        BYTE                   81
        BYTE   W01
        BYTE                   83
        BYTE   W02
        BYTE                   84
        BYTE   W01
        BYTE                   85
        BYTE   W02
        BYTE                   86
        BYTE   W01
        BYTE                   87
        BYTE   W02
        BYTE                   89
        BYTE   W01
        BYTE                   90
        BYTE   W02
        BYTE                   91
        BYTE   W01
        BYTE                   92
        BYTE   W02
        BYTE                   93
        BYTE   W01
        BYTE                   94
        BYTE   W03
        BYTE                   96
        BYTE   W02
        BYTE                   97
        BYTE   W01
        BYTE                   99
        BYTE   W08
        BYTE                   94
        BYTE   W03
        BYTE                   92
        BYTE   W01
        BYTE                   90
        BYTE   W02
        BYTE                   89
        BYTE   W01
        BYTE                   87
        BYTE   W02
        BYTE                   85
        BYTE   W01
        BYTE                   84
        BYTE   W02
        BYTE                   82
        BYTE   W01
        BYTE                   80
        BYTE   W02
        BYTE                   79
        BYTE   W01
        BYTE                   77
        BYTE   W02
        BYTE   PEND
// 005   ----------------------------------------
_64___Temporal_Tower_8_5:
        BYTE           VOL     74
        BYTE   W01
        BYTE                   72
        BYTE   W02
        BYTE                   68
        BYTE   W01
        BYTE                   65
        BYTE   W02
        BYTE                   62
        BYTE   W01
        BYTE                   59
        BYTE   W02
        BYTE                   56
        BYTE   W01
        BYTE                   53
        BYTE   W02
        BYTE                   49
        BYTE   W01
        BYTE                   46
        BYTE   W02
        BYTE                   43
        BYTE   W01
        BYTE                   39
        BYTE   W02
        BYTE                   34
        BYTE   W01
        BYTE                   29
        BYTE   W02
        BYTE                   24
        BYTE   W01
        BYTE                   19
        BYTE   W02
        BYTE                   14
        BYTE   W01
        BYTE                   9
        BYTE   W02
        BYTE                   5
        BYTE   W01
        BYTE                   0
        BYTE   W19
        BYTE           EOT     Gn3
        BYTE   W48
        BYTE   W01
        BYTE   PEND
// 006   ----------------------------------------
        BYTE   W96
// 007   ----------------------------------------
        BYTE   W96
// 008   ----------------------------------------
        BYTE   W96
// 009   ----------------------------------------
        BYTE   W96
// 010   ----------------------------------------
        BYTE   W96
// 011   ----------------------------------------
        BYTE   W96
// 012   ----------------------------------------
_64___Temporal_Tower_8_12:
        BYTE   W24
        BYTE   W02
        BYTE           VOICE   88
        BYTE   W01
        BYTE           PAN     c_v+63
        BYTE           VOL     83
        BYTE   W68
        BYTE   W01
        BYTE   PEND
// 013   ----------------------------------------
_64___Temporal_Tower_8_13:
        BYTE   W60
        BYTE           N03     Bn4   v070
        BYTE   W12
        BYTE                   En4   v045
        BYTE   W24
        BYTE   PEND
// 014   ----------------------------------------
_64___Temporal_Tower_8_14:
        BYTE   W12
        BYTE           N03     En4   v070
        BYTE   W42
        BYTE                   An4   v045
        BYTE   W24
        BYTE                   Dn4   v070
        BYTE   W12
        BYTE                   En4   v045
        BYTE   W06
        BYTE   PEND
// 015   ----------------------------------------
_64___Temporal_Tower_8_15:
        BYTE   W06
        BYTE           N03     An3   v045
        BYTE   W54
        BYTE                   En4   v070
        BYTE   W12
        BYTE                   An3   v045
        BYTE   W24
        BYTE   PEND
// 016   ----------------------------------------
_64___Temporal_Tower_8_16:
        BYTE   W12
        BYTE           N03     An3   v070
        BYTE   W42
        BYTE                   Dn4   v045
        BYTE   W24
        BYTE                   Gn3   v070
        BYTE   W18
        BYTE   PEND
// 017   ----------------------------------------
        BYTE   PATT
         POIN2  _64___Temporal_Tower_8_13
// 018   ----------------------------------------
        BYTE   PATT
         POIN2  _64___Temporal_Tower_8_14
// 019   ----------------------------------------
        BYTE   PATT
         POIN2  _64___Temporal_Tower_8_15
// 020   ----------------------------------------
        BYTE   PATT
         POIN2  _64___Temporal_Tower_8_16
// 021   ----------------------------------------
        BYTE   W96
// 022   ----------------------------------------
        BYTE   W96
// 023   ----------------------------------------
        BYTE   W96
// 024   ----------------------------------------
        BYTE   W96
// 025   ----------------------------------------
        BYTE   W96
// 026   ----------------------------------------
        BYTE   W96
// 027   ----------------------------------------
        BYTE   W96
// 028   ----------------------------------------
        BYTE   W96
// 029   ----------------------------------------
        BYTE   W96
// 030   ----------------------------------------
        BYTE   W96
// 031   ----------------------------------------
        BYTE   W96
// 032   ----------------------------------------
        BYTE   W96
// 033   ----------------------------------------
        BYTE   W96
// 034   ----------------------------------------
        BYTE   W96
// 035   ----------------------------------------
        BYTE   W96
// 036   ----------------------------------------
        BYTE   W96
// 037   ----------------------------------------
        BYTE   PATT
         POIN2  _64___Temporal_Tower_8_13
// 038   ----------------------------------------
        BYTE   PATT
         POIN2  _64___Temporal_Tower_8_14
// 039   ----------------------------------------
        BYTE   PATT
         POIN2  _64___Temporal_Tower_8_15
// 040   ----------------------------------------
        BYTE   PATT
         POIN2  _64___Temporal_Tower_8_16
// 041   ----------------------------------------
        BYTE   PATT
         POIN2  _64___Temporal_Tower_8_13
// 042   ----------------------------------------
        BYTE   PATT
         POIN2  _64___Temporal_Tower_8_14
// 043   ----------------------------------------
        BYTE   PATT
         POIN2  _64___Temporal_Tower_8_15
// 044   ----------------------------------------
        BYTE   PATT
         POIN2  _64___Temporal_Tower_8_16
// 045   ----------------------------------------
        BYTE   W96
// 046   ----------------------------------------
        BYTE   W96
// 047   ----------------------------------------
        BYTE   W96
// 048   ----------------------------------------
        BYTE   W96
// 049   ----------------------------------------
        BYTE   W96
// 050   ----------------------------------------
        BYTE   W96
// 051   ----------------------------------------
        BYTE   W96
// 052   ----------------------------------------
        BYTE   W96
// 053   ----------------------------------------
        BYTE   W96
// 054   ----------------------------------------
        BYTE   W96
// 055   ----------------------------------------
        BYTE   W96
// 056   ----------------------------------------
        BYTE   W96
// 057   ----------------------------------------
        BYTE   W96
// 058   ----------------------------------------
        BYTE   W96
// 059   ----------------------------------------
        BYTE   W96
// 060   ----------------------------------------
        BYTE   W96
// 061   ----------------------------------------
        BYTE   W96
// 062   ----------------------------------------
        BYTE   W96
// 063   ----------------------------------------
        BYTE   W96
// 064   ----------------------------------------
        BYTE   W96
// 065   ----------------------------------------
        BYTE   PATT
         POIN2  _64___Temporal_Tower_8_3
// 066   ----------------------------------------
        BYTE   PATT
         POIN2  _64___Temporal_Tower_8_4
// 067   ----------------------------------------
        BYTE   PATT
         POIN2  _64___Temporal_Tower_8_5
// 068   ----------------------------------------
        BYTE   W96
// 069   ----------------------------------------
        BYTE   W96
// 070   ----------------------------------------
        BYTE   W96
// 071   ----------------------------------------
        BYTE   W96
// 072   ----------------------------------------
        BYTE   W96
// 073   ----------------------------------------
        BYTE   W96
// 074   ----------------------------------------
        BYTE   PATT
         POIN2  _64___Temporal_Tower_8_12
// 075   ----------------------------------------
        BYTE   PATT
         POIN2  _64___Temporal_Tower_8_13
// 076   ----------------------------------------
        BYTE   PATT
         POIN2  _64___Temporal_Tower_8_14
// 077   ----------------------------------------
        BYTE   PATT
         POIN2  _64___Temporal_Tower_8_15
// 078   ----------------------------------------
        BYTE   PATT
         POIN2  _64___Temporal_Tower_8_16
// 079   ----------------------------------------
        BYTE   PATT
         POIN2  _64___Temporal_Tower_8_13
// 080   ----------------------------------------
        BYTE   PATT
         POIN2  _64___Temporal_Tower_8_14
// 081   ----------------------------------------
        BYTE   PATT
         POIN2  _64___Temporal_Tower_8_15
// 082   ----------------------------------------
        BYTE   PATT
         POIN2  _64___Temporal_Tower_8_16
// 083   ----------------------------------------
        BYTE   W96
// 084   ----------------------------------------
        BYTE   W96
// 085   ----------------------------------------
        BYTE   W96
// 086   ----------------------------------------
        BYTE   W96
// 087   ----------------------------------------
        BYTE   W96
// 088   ----------------------------------------
        BYTE   W96
// 089   ----------------------------------------
        BYTE   W96
// 090   ----------------------------------------
        BYTE   W96
// 091   ----------------------------------------
        BYTE   W96
// 092   ----------------------------------------
        BYTE   W96
// 093   ----------------------------------------
        BYTE   W96
// 094   ----------------------------------------
        BYTE   W96
// 095   ----------------------------------------
        BYTE   W96
// 096   ----------------------------------------
        BYTE   W96
// 097   ----------------------------------------
        BYTE   W96
// 098   ----------------------------------------
        BYTE   W96
// 099   ----------------------------------------
        BYTE   PATT
         POIN2  _64___Temporal_Tower_8_13
// 100   ----------------------------------------
        BYTE   PATT
         POIN2  _64___Temporal_Tower_8_14
// 101   ----------------------------------------
        BYTE   PATT
         POIN2  _64___Temporal_Tower_8_15
// 102   ----------------------------------------
        BYTE   PATT
         POIN2  _64___Temporal_Tower_8_16
// 103   ----------------------------------------
        BYTE   PATT
         POIN2  _64___Temporal_Tower_8_13
// 104   ----------------------------------------
        BYTE   PATT
         POIN2  _64___Temporal_Tower_8_14
// 105   ----------------------------------------
        BYTE   PATT
         POIN2  _64___Temporal_Tower_8_15
// 106   ----------------------------------------
        BYTE   PATT
         POIN2  _64___Temporal_Tower_8_16
// 107   ----------------------------------------
        BYTE   W96
// 108   ----------------------------------------
        BYTE   W96
// 109   ----------------------------------------
        BYTE   W96
// 110   ----------------------------------------
        BYTE   W96
// 111   ----------------------------------------
        BYTE   W96
// 112   ----------------------------------------
        BYTE   W96
// 113   ----------------------------------------
        BYTE   W96
// 114   ----------------------------------------
        BYTE   W96
// 115   ----------------------------------------
        BYTE   W96
// 116   ----------------------------------------
        BYTE   W96
// 117   ----------------------------------------
        BYTE   W96
// 118   ----------------------------------------
        BYTE   W96
// 119   ----------------------------------------
        BYTE   W96
// 120   ----------------------------------------
        BYTE   W96
// 121   ----------------------------------------
        BYTE   W96
// 122   ----------------------------------------
        BYTE   W96
// 123   ----------------------------------------
        BYTE   W96
// 124   ----------------------------------------
        BYTE   W96
// 125   ----------------------------------------
        BYTE   W96
// 126   ----------------------------------------
        BYTE   W96
// 127   ----------------------------------------
        BYTE   PATT
         POIN2  _64___Temporal_Tower_8_3
// 128   ----------------------------------------
        BYTE   PATT
         POIN2  _64___Temporal_Tower_8_4
// 129   ----------------------------------------
        BYTE   PATT
         POIN2  _64___Temporal_Tower_8_5
// 130   ----------------------------------------
        BYTE   W96
// 131   ----------------------------------------
        BYTE   W96
// 132   ----------------------------------------
        BYTE   W92
        BYTE   W03
        BYTE   FINE

//****************** Track 9 (Midi-Chn.9) ******************//

_64___Temporal_Tower_9:
        BYTE   KEYSH   _64___Temporal_Tower_key+0
// 000   ----------------------------------------
        BYTE   W24
// 001   ----------------------------------------
        BYTE           VOICE   0
        BYTE           N05     Cn1   v120
        BYTE           N02     Bn1   v085
        BYTE           VOL     79
        BYTE           PAN     c_v-30
        BYTE   W06
        BYTE           N02     Fs2   v063
        BYTE   W06
        BYTE           N05     En2   v120
        BYTE   W06
        BYTE                   Cn1
        BYTE           N02     Fs2   v063
        BYTE   W06
        BYTE                   Bn1   v085
        BYTE   W06
        BYTE                   Fs2   v063
        BYTE   W06
        BYTE           N05     Cn1   v120
        BYTE           N02     Bn1   v085
        BYTE   W06
        BYTE                   Fs2   v063
        BYTE   W06
        BYTE                   Bn1   v085
        BYTE   W06
        BYTE                   Fs2   v063
        BYTE   W06
        BYTE                   Bn1   v085
        BYTE   W06
        BYTE                   Fs2   v063
        BYTE   W06
        BYTE                   Bn1   v085
        BYTE   W06
        BYTE                   Fs2   v063
        BYTE   W06
        BYTE                   Bn1   v085
        BYTE   W06
        BYTE                   Fs2   v063
        BYTE   W06
// 002   ----------------------------------------
_64___Temporal_Tower_9_2:
        BYTE           N02     Bn1   v085
        BYTE   W06
        BYTE                   Fs2   v063
        BYTE   W06
        BYTE           N05     En2   v120
        BYTE   W06
        BYTE           N02     Fs2   v063
        BYTE   W06
        BYTE                   Bn1   v085
        BYTE   W06
        BYTE                   Fs2   v063
        BYTE   W06
        BYTE                   Bn1   v085
        BYTE   W06
        BYTE                   Fs2   v063
        BYTE   W06
        BYTE                   Bn1   v085
        BYTE   W06
        BYTE                   Fs2   v063
        BYTE   W06
        BYTE                   Bn1   v085
        BYTE   W06
        BYTE                   Fs2   v063
        BYTE   W06
        BYTE                   Bn1   v085
        BYTE   W06
        BYTE                   Fs2   v063
        BYTE   W06
        BYTE           N11     En2   v120
        BYTE   W12
        BYTE   PEND
// 003   ----------------------------------------
        BYTE           N05     Cn1
        BYTE           N02     Bn1   v085
        BYTE   W06
        BYTE                   Fs2   v063
        BYTE   W06
        BYTE           N05     En2   v120
        BYTE   W06
        BYTE                   Cn1
        BYTE           N02     Fs2   v063
        BYTE   W06
        BYTE                   Bn1   v085
        BYTE   W06
        BYTE                   Fs2   v063
        BYTE   W06
        BYTE           N05     Cn1   v120
        BYTE           N02     Bn1   v085
        BYTE   W06
        BYTE                   Fs2   v063
        BYTE   W06
        BYTE                   Bn1   v085
        BYTE   W06
        BYTE                   Fs2   v063
        BYTE   W06
        BYTE                   Bn1   v085
        BYTE   W06
        BYTE                   Fs2   v063
        BYTE   W06
        BYTE                   Bn1   v085
        BYTE   W06
        BYTE                   Fs2   v063
        BYTE   W06
        BYTE                   Bn1   v085
        BYTE   W06
        BYTE                   Fs2   v063
        BYTE   W06
// 004   ----------------------------------------
        BYTE   PATT
         POIN2  _64___Temporal_Tower_9_2
// 005   ----------------------------------------
_64___Temporal_Tower_9_5:
        BYTE           N05     Cn1   v120
        BYTE           N02     Bn1   v085
        BYTE           N04     En3   v120
        BYTE   W06
        BYTE           N02     Fs2   v063
        BYTE           N02     Gs1   v040
        BYTE   W06
        BYTE           N05     En2   v120
        BYTE           N04     Cs3
        BYTE           N02     Gs1
        BYTE   W03
        BYTE                   Gs1   v040
        BYTE   W03
        BYTE           N05     Cn1   v120
        BYTE           N02     Fs2   v063
        BYTE           N02     Gs1   v100
        BYTE   W03
        BYTE                   Gs1   v040
        BYTE   W03
        BYTE                   Bn1   v085
        BYTE           N04     Dn3   v120
        BYTE           N05     Gs1   v080
        BYTE   W06
        BYTE           N02     Fs2   v063
        BYTE           N04     Cs3   v120
        BYTE           N05     Gs1
        BYTE   W06
        BYTE                   Cn1
        BYTE           N02     Bn1   v085
        BYTE           N04     En3   v120
        BYTE           N05     Gs1   v060
        BYTE   W06
        BYTE           N02     Fs2   v063
        BYTE           N04     Cs3   v120
        BYTE           N05     Gs1   v100
        BYTE   W06
        BYTE           N02     Bn1   v085
        BYTE   W03
        BYTE                   Gs1   v040
        BYTE   W03
        BYTE                   Fs2   v063
        BYTE           N04     Dn3   v120
        BYTE           N01     Gs1   v080
        BYTE   W03
        BYTE           N02     Gs1   v040
        BYTE   W03
        BYTE                   Bn1   v085
        BYTE           N04     Ds3   v120
        BYTE           N05     Gs1
        BYTE   W06
        BYTE           N02     Fs2   v063
        BYTE           N04     Cs3   v120
        BYTE           N05     Gs1   v060
        BYTE   W06
        BYTE           N11     Ds1   v090
        BYTE           N11     Bn4   v075
        BYTE           N02     Bn1   v085
        BYTE           N02     Gs1   v040
        BYTE   W06
        BYTE                   Fs2   v063
        BYTE           N02     Gs1   v040
        BYTE   W03
        BYTE           N01     Gs1   v080
        BYTE   W03
        BYTE           N02     Bn1   v085
        BYTE           N04     Dn3   v120
        BYTE           N05     Gs1
        BYTE   W06
        BYTE           N02     Cn1   v100
        BYTE           N02     Fs2   v063
        BYTE           N04     Ds3   v120
        BYTE           N05     Gs1   v080
        BYTE   W03
        BYTE           N02     Cn1
        BYTE   W03
        BYTE   PEND
// 006   ----------------------------------------
_64___Temporal_Tower_9_6:
        BYTE           N05     Cn1   v120
        BYTE           N02     Bn1   v085
        BYTE           N04     En3   v120
        BYTE   W06
        BYTE           N02     Fs2   v063
        BYTE           N02     Gs1   v040
        BYTE   W06
        BYTE           N05     En2   v120
        BYTE           N04     Ds3
        BYTE           N02     Gs1
        BYTE   W03
        BYTE                   Gs1   v040
        BYTE   W03
        BYTE           N05     Cn1   v120
        BYTE           N02     Fs2   v063
        BYTE           N04     Cs3   v120
        BYTE           N02     Gs1   v100
        BYTE   W03
        BYTE                   Gs1   v040
        BYTE   W03
        BYTE                   Bn1   v085
        BYTE           N04     Cs3   v120
        BYTE           N05     Gs1   v080
        BYTE   W06
        BYTE           N02     Fs2   v063
        BYTE           N04     En3   v120
        BYTE           N05     Gs1
        BYTE   W06
        BYTE                   Cn1
        BYTE           N02     Bn1   v085
        BYTE           N05     Gs1   v060
        BYTE   W06
        BYTE           N02     Fs2   v063
        BYTE           N04     Cs3   v120
        BYTE           N05     Gs1   v100
        BYTE   W06
        BYTE           N11     En2   v080
        BYTE           N02     Bn1   v085
        BYTE   W03
        BYTE                   Gs1   v040
        BYTE   W03
        BYTE                   Fs2   v063
        BYTE           N04     Dn3   v120
        BYTE           N01     Gs1   v080
        BYTE   W03
        BYTE           N02     Gs1   v040
        BYTE   W03
        BYTE           N11     En1   v070
        BYTE           N11     Dn4   v090
        BYTE           N02     Bn1   v085
        BYTE           N04     Ds3   v120
        BYTE           N05     Gs1
        BYTE   W06
        BYTE           N02     Fs2   v063
        BYTE           N04     Cs3   v120
        BYTE           N05     Gs1   v060
        BYTE   W06
        BYTE           N11     En1   v110
        BYTE           N02     Bn1   v085
        BYTE           N02     Gs1   v040
        BYTE   W06
        BYTE                   Fs2   v063
        BYTE           N02     Gs1   v040
        BYTE   W03
        BYTE           N01     Gs1   v080
        BYTE   W03
        BYTE           N11     En2   v120
        BYTE           N04     Dn3
        BYTE           N05     Gs1
        BYTE   W06
        BYTE           N04     Ds3
        BYTE           N05     Gs1   v080
        BYTE   W06
        BYTE   PEND
// 007   ----------------------------------------
        BYTE   PATT
         POIN2  _64___Temporal_Tower_9_5
// 008   ----------------------------------------
        BYTE   PATT
         POIN2  _64___Temporal_Tower_9_6
// 009   ----------------------------------------
        BYTE   PATT
         POIN2  _64___Temporal_Tower_9_5
// 010   ----------------------------------------
        BYTE   PATT
         POIN2  _64___Temporal_Tower_9_6
// 011   ----------------------------------------
        BYTE   PATT
         POIN2  _64___Temporal_Tower_9_5
// 012   ----------------------------------------
_64___Temporal_Tower_9_12:
        BYTE           N05     Cn1   v120
        BYTE           N02     Bn1   v085
        BYTE           N04     En3   v120
        BYTE   W06
        BYTE           N02     Fs2   v063
        BYTE           N02     Gs1   v040
        BYTE   W06
        BYTE           N05     En2   v120
        BYTE           N04     Ds3
        BYTE           N02     Gs1
        BYTE   W03
        BYTE                   Gs1   v040
        BYTE   W03
        BYTE           N05     Cn1   v120
        BYTE           N02     Fs2   v063
        BYTE           N04     Cs3   v120
        BYTE           N02     Gs1   v100
        BYTE   W03
        BYTE                   Gs1   v040
        BYTE   W03
        BYTE                   Bn1   v085
        BYTE           N04     Cs3   v120
        BYTE           N05     Gs1   v080
        BYTE   W06
        BYTE           N02     Fs2   v063
        BYTE           N04     En3   v120
        BYTE           N05     Gs1
        BYTE   W06
        BYTE                   Cn1
        BYTE           N02     Bn1   v085
        BYTE           N05     Gs1   v060
        BYTE   W06
        BYTE           N02     Fs2   v063
        BYTE           N04     Cs3   v120
        BYTE           N05     Gs1   v100
        BYTE   W06
        BYTE           N11     Bn4   v075
        BYTE           N02     Bn1   v085
        BYTE   W03
        BYTE                   Gs1   v040
        BYTE   W03
        BYTE                   Fs2   v063
        BYTE           N04     Dn3   v120
        BYTE           N01     Gs1   v080
        BYTE   W03
        BYTE           N02     Gs1   v040
        BYTE   W03
        BYTE           N11     En1   v070
        BYTE           N02     Bn1   v085
        BYTE           N04     Ds3   v120
        BYTE           N05     Gs1
        BYTE   W06
        BYTE           N02     Fs2   v063
        BYTE           N04     Cs3   v120
        BYTE           N05     Gs1   v060
        BYTE   W06
        BYTE           N11     Dn4   v090
        BYTE           N02     Bn1   v085
        BYTE           N02     Gs1   v040
        BYTE   W06
        BYTE                   Fs2   v063
        BYTE           N02     Gs1   v040
        BYTE   W03
        BYTE           N01     Gs1   v080
        BYTE   W03
        BYTE           N11     En1   v110
        BYTE           N11     En2   v120
        BYTE           N04     Dn3
        BYTE           N05     Gs1
        BYTE   W06
        BYTE           N04     Ds3
        BYTE           N05     Gs1   v080
        BYTE   W06
        BYTE   PEND
// 013   ----------------------------------------
        BYTE   PATT
         POIN2  _64___Temporal_Tower_9_5
// 014   ----------------------------------------
_64___Temporal_Tower_9_14:
        BYTE           N05     Cn1   v120
        BYTE           N02     Bn1   v085
        BYTE           N04     En3   v120
        BYTE   W06
        BYTE           N02     Fs2   v063
        BYTE           N02     Gs1   v040
        BYTE   W06
        BYTE           N05     En2   v120
        BYTE           N04     Ds3
        BYTE           N02     Gs1
        BYTE   W03
        BYTE                   Gs1   v040
        BYTE   W03
        BYTE           N05     Cn1   v120
        BYTE           N02     Fs2   v063
        BYTE           N04     Cs3   v120
        BYTE           N02     Gs1   v100
        BYTE   W03
        BYTE                   Gs1   v040
        BYTE   W03
        BYTE                   Bn1   v085
        BYTE           N04     Cs3   v120
        BYTE           N05     Gs1   v080
        BYTE   W06
        BYTE           N02     Fs2   v063
        BYTE           N04     En3   v120
        BYTE           N05     Gs1
        BYTE   W06
        BYTE                   Cn1
        BYTE           N02     Bn1   v085
        BYTE           N05     Gs1   v060
        BYTE   W06
        BYTE           N02     Fs2   v063
        BYTE           N04     Cs3   v120
        BYTE           N05     Gs1   v100
        BYTE   W06
        BYTE           N02     Bn1   v085
        BYTE   W03
        BYTE                   Gs1   v040
        BYTE   W03
        BYTE                   Fs2   v063
        BYTE           N04     Dn3   v120
        BYTE           N01     Gs1   v080
        BYTE   W03
        BYTE           N02     Gs1   v040
        BYTE   W03
        BYTE           N11     En2   v080
        BYTE           N02     Bn1   v085
        BYTE           N04     Ds3   v120
        BYTE           N05     Gs1
        BYTE   W06
        BYTE           N02     Fs2   v063
        BYTE           N04     Cs3   v120
        BYTE           N05     Gs1   v060
        BYTE   W06
        BYTE           N11     Dn4   v090
        BYTE           N02     Bn1   v085
        BYTE           N02     Gs1   v040
        BYTE   W06
        BYTE                   Fs2   v063
        BYTE           N02     Gs1   v040
        BYTE   W03
        BYTE           N01     Gs1   v080
        BYTE   W03
        BYTE           N11     Ds1   v110
        BYTE           N11     En2   v120
        BYTE           N04     Dn3
        BYTE           N05     Gs1
        BYTE   W06
        BYTE           N04     Ds3
        BYTE           N05     Gs1   v080
        BYTE   W06
        BYTE   PEND
// 015   ----------------------------------------
        BYTE   PATT
         POIN2  _64___Temporal_Tower_9_5
// 016   ----------------------------------------
_64___Temporal_Tower_9_16:
        BYTE           N05     Cn1   v120
        BYTE           N02     Bn1   v085
        BYTE           N04     En3   v120
        BYTE   W06
        BYTE           N02     Fs2   v063
        BYTE           N02     Gs1   v040
        BYTE   W06
        BYTE           N05     En2   v120
        BYTE           N04     Ds3
        BYTE           N02     Gs1
        BYTE   W03
        BYTE                   Gs1   v040
        BYTE   W03
        BYTE           N05     Cn1   v120
        BYTE           N02     Fs2   v063
        BYTE           N04     Cs3   v120
        BYTE           N02     Gs1   v100
        BYTE   W03
        BYTE                   Gs1   v040
        BYTE   W03
        BYTE                   Bn1   v085
        BYTE           N04     Cs3   v120
        BYTE           N05     Gs1   v080
        BYTE   W06
        BYTE           N02     Fs2   v063
        BYTE           N04     En3   v120
        BYTE           N05     Gs1
        BYTE   W06
        BYTE                   Cn1
        BYTE           N02     Bn1   v085
        BYTE           N05     Gs1   v060
        BYTE   W06
        BYTE           N02     Fs2   v063
        BYTE           N04     Cs3   v120
        BYTE           N05     Gs1   v100
        BYTE   W06
        BYTE           N02     Bn1   v085
        BYTE   W03
        BYTE                   Gs1   v040
        BYTE   W03
        BYTE                   Fs2   v063
        BYTE           N04     Dn3   v120
        BYTE           N01     Gs1   v080
        BYTE   W03
        BYTE           N02     Gs1   v040
        BYTE   W03
        BYTE           N11     Ds1   v090
        BYTE           N11     En2   v080
        BYTE           N02     Bn1   v085
        BYTE           N04     Ds3   v120
        BYTE           N05     Gs1
        BYTE   W06
        BYTE           N02     Fs2   v063
        BYTE           N04     Cs3   v120
        BYTE           N05     Gs1   v060
        BYTE   W06
        BYTE           N11     Dn4   v090
        BYTE           N02     Bn1   v085
        BYTE           N02     Gs1   v040
        BYTE   W06
        BYTE                   Fs2   v063
        BYTE           N02     Gs1   v040
        BYTE   W03
        BYTE           N01     Gs1   v080
        BYTE   W03
        BYTE           N11     Ds1   v110
        BYTE           N11     Ds1   v090
        BYTE           N11     Bn4   v075
        BYTE           N11     En2   v120
        BYTE           N04     Dn3
        BYTE           N05     Gs1
        BYTE   W06
        BYTE           N04     Ds3
        BYTE           N05     Gs1   v080
        BYTE   W06
        BYTE   PEND
// 017   ----------------------------------------
        BYTE   PATT
         POIN2  _64___Temporal_Tower_9_5
// 018   ----------------------------------------
        BYTE   PATT
         POIN2  _64___Temporal_Tower_9_14
// 019   ----------------------------------------
        BYTE   PATT
         POIN2  _64___Temporal_Tower_9_5
// 020   ----------------------------------------
        BYTE   PATT
         POIN2  _64___Temporal_Tower_9_16
// 021   ----------------------------------------
        BYTE   PATT
         POIN2  _64___Temporal_Tower_9_5
// 022   ----------------------------------------
_64___Temporal_Tower_9_22:
        BYTE           N05     Cn1   v120
        BYTE           N02     Bn1   v085
        BYTE           N04     En3   v120
        BYTE   W06
        BYTE           N02     Fs2   v063
        BYTE           N02     Gs1   v040
        BYTE   W06
        BYTE           N05     En2   v120
        BYTE           N04     Ds3
        BYTE           N02     Gs1
        BYTE   W03
        BYTE                   Gs1   v040
        BYTE   W03
        BYTE           N05     Cn1   v120
        BYTE           N02     Fs2   v063
        BYTE           N04     Cs3   v120
        BYTE           N02     Gs1   v100
        BYTE   W03
        BYTE                   Gs1   v040
        BYTE   W03
        BYTE                   Bn1   v085
        BYTE           N04     Cs3   v120
        BYTE           N05     Gs1   v080
        BYTE   W06
        BYTE           N02     Fs2   v063
        BYTE           N04     En3   v120
        BYTE           N05     Gs1
        BYTE   W06
        BYTE                   Cn1
        BYTE           N02     Bn1   v085
        BYTE           N05     Gs1   v060
        BYTE   W06
        BYTE           N02     Fs2   v063
        BYTE           N04     Cs3   v120
        BYTE           N05     Gs1   v100
        BYTE   W06
        BYTE           N11     En1   v070
        BYTE           N11     En2   v080
        BYTE           N02     Bn1   v085
        BYTE   W03
        BYTE                   Gs1   v040
        BYTE   W03
        BYTE                   Fs2   v063
        BYTE           N04     Dn3   v120
        BYTE           N01     Gs1   v080
        BYTE   W03
        BYTE           N02     Gs1   v040
        BYTE   W03
        BYTE           N11     Dn4   v090
        BYTE           N02     Bn1   v085
        BYTE           N04     Ds3   v120
        BYTE           N05     Gs1
        BYTE   W06
        BYTE           N02     Fs2   v063
        BYTE           N04     Cs3   v120
        BYTE           N05     Gs1   v060
        BYTE   W06
        BYTE           N11     En1   v110
        BYTE           N02     Bn1   v085
        BYTE           N02     Gs1   v040
        BYTE   W06
        BYTE                   Fs2   v063
        BYTE           N02     Gs1   v040
        BYTE   W03
        BYTE           N01     Gs1   v080
        BYTE   W03
        BYTE           N11     En2   v120
        BYTE           N04     Dn3
        BYTE           N05     Gs1
        BYTE   W06
        BYTE           N04     Ds3
        BYTE           N05     Gs1   v080
        BYTE   W06
        BYTE   PEND
// 023   ----------------------------------------
        BYTE   PATT
         POIN2  _64___Temporal_Tower_9_5
// 024   ----------------------------------------
        BYTE   PATT
         POIN2  _64___Temporal_Tower_9_22
// 025   ----------------------------------------
        BYTE   PATT
         POIN2  _64___Temporal_Tower_9_5
// 026   ----------------------------------------
        BYTE   PATT
         POIN2  _64___Temporal_Tower_9_22
// 027   ----------------------------------------
        BYTE   PATT
         POIN2  _64___Temporal_Tower_9_5
// 028   ----------------------------------------
_64___Temporal_Tower_9_28:
        BYTE           N05     Cn1   v120
        BYTE           N02     Bn1   v085
        BYTE           N04     En3   v120
        BYTE   W06
        BYTE           N02     Fs2   v063
        BYTE           N02     Gs1   v040
        BYTE   W06
        BYTE           N05     En2   v120
        BYTE           N04     Ds3
        BYTE           N02     Gs1
        BYTE   W03
        BYTE                   Gs1   v040
        BYTE   W03
        BYTE           N05     Cn1   v120
        BYTE           N02     Fs2   v063
        BYTE           N04     Cs3   v120
        BYTE           N02     Gs1   v100
        BYTE   W03
        BYTE                   Gs1   v040
        BYTE   W03
        BYTE                   Bn1   v085
        BYTE           N04     Cs3   v120
        BYTE           N05     Gs1   v080
        BYTE   W06
        BYTE           N02     Fs2   v063
        BYTE           N04     En3   v120
        BYTE           N05     Gs1
        BYTE   W06
        BYTE                   Cn1
        BYTE           N02     Bn1   v085
        BYTE           N05     Gs1   v060
        BYTE   W06
        BYTE           N02     Fs2   v063
        BYTE           N04     Cs3   v120
        BYTE           N05     Gs1   v100
        BYTE   W06
        BYTE           N11     Dn4   v090
        BYTE           N02     Bn1   v085
        BYTE   W03
        BYTE                   Gs1   v040
        BYTE   W03
        BYTE                   Fs2   v063
        BYTE           N04     Dn3   v120
        BYTE           N01     Gs1   v080
        BYTE   W03
        BYTE           N02     Gs1   v040
        BYTE   W03
        BYTE           N11     En1   v110
        BYTE           N02     Bn1   v085
        BYTE           N04     Ds3   v120
        BYTE           N05     Gs1
        BYTE   W06
        BYTE           N02     Fs2   v063
        BYTE           N04     Cs3   v120
        BYTE           N05     Gs1   v060
        BYTE   W06
        BYTE           N11     En2   v080
        BYTE           N02     Bn1   v085
        BYTE           N02     Gs1   v040
        BYTE   W06
        BYTE                   Fs2   v063
        BYTE           N02     Gs1   v040
        BYTE   W03
        BYTE           N01     Gs1   v080
        BYTE   W03
        BYTE           N11     En1   v110
        BYTE           N11     En2   v120
        BYTE           N04     Dn3
        BYTE           N05     Gs1
        BYTE   W06
        BYTE           N04     Ds3
        BYTE           N05     Gs1   v080
        BYTE   W06
        BYTE   PEND
// 029   ----------------------------------------
        BYTE   PATT
         POIN2  _64___Temporal_Tower_9_5
// 030   ----------------------------------------
_64___Temporal_Tower_9_30:
        BYTE           N05     Cn1   v120
        BYTE           N02     Bn1   v085
        BYTE           N04     En3   v120
        BYTE   W06
        BYTE           N02     Fs2   v063
        BYTE           N02     Gs1   v040
        BYTE   W06
        BYTE           N05     En2   v120
        BYTE           N04     Ds3
        BYTE           N02     Gs1
        BYTE   W03
        BYTE                   Gs1   v040
        BYTE   W03
        BYTE           N05     Cn1   v120
        BYTE           N02     Fs2   v063
        BYTE           N04     Cs3   v120
        BYTE           N02     Gs1   v100
        BYTE   W03
        BYTE                   Gs1   v040
        BYTE   W03
        BYTE                   Bn1   v085
        BYTE           N04     Cs3   v120
        BYTE           N05     Gs1   v080
        BYTE   W06
        BYTE           N02     Fs2   v063
        BYTE           N04     En3   v120
        BYTE           N05     Gs1
        BYTE   W06
        BYTE                   Cn1
        BYTE           N02     Bn1   v085
        BYTE           N05     Gs1   v060
        BYTE   W06
        BYTE           N02     Fs2   v063
        BYTE           N04     Cs3   v120
        BYTE           N05     Gs1   v100
        BYTE   W06
        BYTE           N11     En1   v110
        BYTE           N11     En2   v080
        BYTE           N02     Bn1   v085
        BYTE   W03
        BYTE                   Gs1   v040
        BYTE   W03
        BYTE                   Fs2   v063
        BYTE           N04     Dn3   v120
        BYTE           N01     Gs1   v080
        BYTE   W03
        BYTE           N02     Gs1   v040
        BYTE   W03
        BYTE                   Bn1   v085
        BYTE           N04     Ds3   v120
        BYTE           N05     Gs1
        BYTE   W06
        BYTE           N02     Fs2   v063
        BYTE           N04     Cs3   v120
        BYTE           N05     Gs1   v060
        BYTE   W06
        BYTE           N11     Dn4   v090
        BYTE           N02     Bn1   v085
        BYTE           N02     Gs1   v040
        BYTE   W06
        BYTE                   Fs2   v063
        BYTE           N02     Gs1   v040
        BYTE   W03
        BYTE           N01     Gs1   v080
        BYTE   W03
        BYTE           N11     En2   v120
        BYTE           N04     Dn3
        BYTE           N05     Gs1
        BYTE   W06
        BYTE           N04     Ds3
        BYTE           N05     Gs1   v080
        BYTE   W06
        BYTE   PEND
// 031   ----------------------------------------
        BYTE   PATT
         POIN2  _64___Temporal_Tower_9_5
// 032   ----------------------------------------
        BYTE   PATT
         POIN2  _64___Temporal_Tower_9_30
// 033   ----------------------------------------
        BYTE   PATT
         POIN2  _64___Temporal_Tower_9_5
// 034   ----------------------------------------
        BYTE   PATT
         POIN2  _64___Temporal_Tower_9_30
// 035   ----------------------------------------
        BYTE   PATT
         POIN2  _64___Temporal_Tower_9_5
// 036   ----------------------------------------
        BYTE   PATT
         POIN2  _64___Temporal_Tower_9_30
// 037   ----------------------------------------
_64___Temporal_Tower_9_37:
        BYTE           N05     Cn1   v120
        BYTE           N02     Bn1   v085
        BYTE           N04     En3   v120
        BYTE   W06
        BYTE           N02     Fs2   v063
        BYTE   W06
        BYTE           N05     En2   v120
        BYTE           N04     Cs3
        BYTE   W06
        BYTE           N05     Cn1
        BYTE           N02     Fs2   v063
        BYTE   W06
        BYTE                   Bn1   v085
        BYTE           N04     Dn3   v120
        BYTE   W06
        BYTE           N02     Fs2   v063
        BYTE           N04     Cs3   v120
        BYTE   W06
        BYTE           N05     Cn1
        BYTE           N02     Bn1   v085
        BYTE           N04     En3   v120
        BYTE   W06
        BYTE           N02     Fs2   v063
        BYTE           N04     Cs3   v120
        BYTE   W06
        BYTE           N02     Bn1   v085
        BYTE   W06
        BYTE                   Fs2   v063
        BYTE           N04     Dn3   v120
        BYTE   W06
        BYTE           N02     Bn1   v085
        BYTE           N04     Ds3   v120
        BYTE   W06
        BYTE           N02     Fs2   v063
        BYTE           N04     Cs3   v120
        BYTE   W06
        BYTE           N11     Ds1   v090
        BYTE           N11     Bn4   v075
        BYTE           N02     Bn1   v085
        BYTE   W06
        BYTE                   Fs2   v063
        BYTE   W06
        BYTE                   Bn1   v085
        BYTE           N04     Dn3   v120
        BYTE   W06
        BYTE           N02     Cn1   v100
        BYTE           N02     Fs2   v063
        BYTE           N04     Ds3   v120
        BYTE   W03
        BYTE           N02     Cn1   v080
        BYTE   W03
        BYTE   PEND
// 038   ----------------------------------------
_64___Temporal_Tower_9_38:
        BYTE           N05     Cn1   v120
        BYTE           N02     Bn1   v085
        BYTE           N04     En3   v120
        BYTE   W06
        BYTE           N02     Fs2   v063
        BYTE   W06
        BYTE           N05     En2   v120
        BYTE           N04     Ds3
        BYTE   W06
        BYTE           N05     Cn1
        BYTE           N02     Fs2   v063
        BYTE           N04     Cs3   v120
        BYTE   W06
        BYTE           N02     Bn1   v085
        BYTE           N04     Cs3   v120
        BYTE   W06
        BYTE           N02     Fs2   v063
        BYTE           N04     En3   v120
        BYTE   W06
        BYTE           N05     Cn1
        BYTE           N02     Bn1   v085
        BYTE   W06
        BYTE                   Fs2   v063
        BYTE           N04     Cs3   v120
        BYTE   W06
        BYTE           N02     Bn1   v085
        BYTE   W06
        BYTE                   Fs2   v063
        BYTE           N04     Dn3   v120
        BYTE   W06
        BYTE           N11     En2   v080
        BYTE           N02     Bn1   v085
        BYTE           N04     Ds3   v120
        BYTE   W06
        BYTE           N02     Fs2   v063
        BYTE           N04     Cs3   v120
        BYTE   W06
        BYTE           N11     Dn4   v090
        BYTE           N02     Bn1   v085
        BYTE   W06
        BYTE                   Fs2   v063
        BYTE   W06
        BYTE           N11     Ds1   v110
        BYTE           N11     En2   v120
        BYTE           N04     Dn3
        BYTE   W06
        BYTE                   Ds3
        BYTE   W06
        BYTE   PEND
// 039   ----------------------------------------
        BYTE   PATT
         POIN2  _64___Temporal_Tower_9_37
// 040   ----------------------------------------
_64___Temporal_Tower_9_40:
        BYTE           N05     Cn1   v120
        BYTE           N02     Bn1   v085
        BYTE           N04     En3   v120
        BYTE   W06
        BYTE           N02     Fs2   v063
        BYTE   W06
        BYTE           N05     En2   v120
        BYTE           N04     Ds3
        BYTE   W06
        BYTE           N05     Cn1
        BYTE           N02     Fs2   v063
        BYTE           N04     Cs3   v120
        BYTE   W06
        BYTE           N02     Bn1   v085
        BYTE           N04     Cs3   v120
        BYTE   W06
        BYTE           N02     Fs2   v063
        BYTE           N04     En3   v120
        BYTE   W06
        BYTE           N05     Cn1
        BYTE           N02     Bn1   v085
        BYTE   W06
        BYTE                   Fs2   v063
        BYTE           N04     Cs3   v120
        BYTE   W06
        BYTE           N02     Bn1   v085
        BYTE   W06
        BYTE                   Fs2   v063
        BYTE           N04     Dn3   v120
        BYTE   W06
        BYTE           N11     En2   v080
        BYTE           N11     Bn4   v075
        BYTE           N02     Bn1   v085
        BYTE           N04     Ds3   v120
        BYTE   W06
        BYTE           N02     Fs2   v063
        BYTE           N04     Cs3   v120
        BYTE   W06
        BYTE           N11     Dn4   v090
        BYTE           N02     Bn1   v085
        BYTE   W06
        BYTE                   Fs2   v063
        BYTE   W06
        BYTE           N11     Ds1   v110
        BYTE           N11     Ds1   v090
        BYTE           N11     Bn4   v075
        BYTE           N11     En2   v120
        BYTE           N04     Dn3
        BYTE   W06
        BYTE                   Ds3
        BYTE   W06
        BYTE   PEND
// 041   ----------------------------------------
        BYTE   PATT
         POIN2  _64___Temporal_Tower_9_37
// 042   ----------------------------------------
        BYTE   PATT
         POIN2  _64___Temporal_Tower_9_38
// 043   ----------------------------------------
        BYTE   PATT
         POIN2  _64___Temporal_Tower_9_37
// 044   ----------------------------------------
_64___Temporal_Tower_9_44:
        BYTE           N05     Cn1   v120
        BYTE           N02     Bn1   v085
        BYTE           N04     En3   v120
        BYTE   W06
        BYTE           N02     Fs2   v063
        BYTE   W06
        BYTE           N05     En2   v120
        BYTE           N04     Ds3
        BYTE   W06
        BYTE           N05     Cn1
        BYTE           N02     Fs2   v063
        BYTE           N04     Cs3   v120
        BYTE   W06
        BYTE           N02     Bn1   v085
        BYTE           N04     Cs3   v120
        BYTE   W06
        BYTE           N02     Fs2   v063
        BYTE           N04     En3   v120
        BYTE   W06
        BYTE           N05     Cn1
        BYTE           N02     Bn1   v085
        BYTE   W06
        BYTE                   Fs2   v063
        BYTE           N04     Cs3   v120
        BYTE   W06
        BYTE           N11     En2   v080
        BYTE           N02     Bn1   v085
        BYTE   W06
        BYTE                   Fs2   v063
        BYTE           N04     Dn3   v120
        BYTE   W06
        BYTE           N11     Ds1   v110
        BYTE           N11     Bn4   v075
        BYTE           N02     Bn1   v085
        BYTE           N04     Ds3   v120
        BYTE   W06
        BYTE           N02     Fs2   v063
        BYTE           N04     Cs3   v120
        BYTE   W06
        BYTE           N11     Dn4   v090
        BYTE           N02     Bn1   v085
        BYTE   W06
        BYTE                   Fs2   v063
        BYTE   W06
        BYTE           N11     Ds1   v110
        BYTE           N11     Ds1   v090
        BYTE           N11     Bn4   v075
        BYTE           N11     En2   v120
        BYTE           N04     Dn3
        BYTE   W06
        BYTE                   Ds3
        BYTE   W06
        BYTE   PEND
// 045   ----------------------------------------
        BYTE   PATT
         POIN2  _64___Temporal_Tower_9_37
// 046   ----------------------------------------
_64___Temporal_Tower_9_46:
        BYTE           N05     Cn1   v120
        BYTE           N02     Bn1   v085
        BYTE           N04     En3   v120
        BYTE   W06
        BYTE           N02     Fs2   v063
        BYTE   W06
        BYTE           N05     En2   v120
        BYTE           N04     Ds3
        BYTE   W06
        BYTE           N05     Cn1
        BYTE           N02     Fs2   v063
        BYTE           N04     Cs3   v120
        BYTE   W06
        BYTE           N02     Bn1   v085
        BYTE           N04     Cs3   v120
        BYTE   W06
        BYTE           N02     Fs2   v063
        BYTE           N04     En3   v120
        BYTE   W06
        BYTE           N05     Cn1
        BYTE           N02     Bn1   v085
        BYTE   W06
        BYTE                   Fs2   v063
        BYTE           N04     Cs3   v120
        BYTE   W06
        BYTE           N11     En1   v070
        BYTE           N11     En2   v080
        BYTE           N02     Bn1   v085
        BYTE   W06
        BYTE                   Fs2   v063
        BYTE           N04     Dn3   v120
        BYTE   W06
        BYTE           N11     Dn4   v090
        BYTE           N02     Bn1   v085
        BYTE           N04     Ds3   v120
        BYTE   W06
        BYTE           N02     Fs2   v063
        BYTE           N04     Cs3   v120
        BYTE   W06
        BYTE           N11     En1   v110
        BYTE           N02     Bn1   v085
        BYTE   W06
        BYTE                   Fs2   v063
        BYTE   W06
        BYTE           N11     En2   v120
        BYTE           N04     Dn3
        BYTE   W06
        BYTE                   Ds3
        BYTE   W06
        BYTE   PEND
// 047   ----------------------------------------
        BYTE   PATT
         POIN2  _64___Temporal_Tower_9_37
// 048   ----------------------------------------
        BYTE   PATT
         POIN2  _64___Temporal_Tower_9_46
// 049   ----------------------------------------
        BYTE   PATT
         POIN2  _64___Temporal_Tower_9_37
// 050   ----------------------------------------
        BYTE   PATT
         POIN2  _64___Temporal_Tower_9_46
// 051   ----------------------------------------
        BYTE   PATT
         POIN2  _64___Temporal_Tower_9_37
// 052   ----------------------------------------
        BYTE   PATT
         POIN2  _64___Temporal_Tower_9_46
// 053   ----------------------------------------
        BYTE   PATT
         POIN2  _64___Temporal_Tower_9_37
// 054   ----------------------------------------
        BYTE   PATT
         POIN2  _64___Temporal_Tower_9_46
// 055   ----------------------------------------
        BYTE   PATT
         POIN2  _64___Temporal_Tower_9_37
// 056   ----------------------------------------
        BYTE   PATT
         POIN2  _64___Temporal_Tower_9_46
// 057   ----------------------------------------
        BYTE   W96
// 058   ----------------------------------------
        BYTE   W96
// 059   ----------------------------------------
_64___Temporal_Tower_9_59:
        BYTE           N05     Cn1   v120
        BYTE           N02     Bn1   v085
        BYTE           N04     En3   v120
        BYTE   W06
        BYTE           N02     Fs2   v063
        BYTE   W06
        BYTE           N05     En2   v120
        BYTE           N04     Cs3
        BYTE   W06
        BYTE           N05     Cn1
        BYTE           N02     Fs2   v063
        BYTE   W06
        BYTE                   Bn1   v085
        BYTE           N04     Dn3   v120
        BYTE   W06
        BYTE           N02     Fs2   v063
        BYTE           N04     Cs3   v120
        BYTE   W06
        BYTE           N05     Cn1
        BYTE           N02     Bn1   v085
        BYTE           N04     En3   v120
        BYTE   W06
        BYTE           N02     Fs2   v063
        BYTE           N04     Cs3   v120
        BYTE   W06
        BYTE           N02     Bn1   v085
        BYTE   W06
        BYTE                   Fs2   v063
        BYTE           N04     Dn3   v120
        BYTE   W06
        BYTE           N02     Bn1   v085
        BYTE           N04     Ds3   v120
        BYTE   W06
        BYTE           N02     Fs2   v063
        BYTE           N04     Cs3   v120
        BYTE   W06
        BYTE           N02     Bn1   v085
        BYTE   W06
        BYTE                   Fs2   v063
        BYTE   W06
        BYTE                   Bn1   v085
        BYTE           N04     Dn3   v120
        BYTE   W06
        BYTE           N02     Fs2   v063
        BYTE           N04     Ds3   v120
        BYTE   W06
        BYTE   PEND
// 060   ----------------------------------------
_64___Temporal_Tower_9_60:
        BYTE           N02     Bn1   v085
        BYTE           N04     En3   v120
        BYTE   W06
        BYTE           N02     Fs2   v063
        BYTE   W06
        BYTE           N05     En2   v120
        BYTE           N04     Ds3
        BYTE   W06
        BYTE           N02     Fs2   v063
        BYTE           N04     Cs3   v120
        BYTE   W06
        BYTE           N02     Bn1   v085
        BYTE           N04     Cs3   v120
        BYTE   W06
        BYTE           N02     Fs2   v063
        BYTE           N04     En3   v120
        BYTE   W06
        BYTE           N02     Bn1   v085
        BYTE   W06
        BYTE                   Fs2   v063
        BYTE           N04     Cs3   v120
        BYTE   W06
        BYTE           N02     Bn1   v085
        BYTE   W06
        BYTE                   Fs2   v063
        BYTE           N04     Dn3   v120
        BYTE   W06
        BYTE           N02     Bn1   v085
        BYTE           N04     Ds3   v120
        BYTE   W06
        BYTE           N02     Fs2   v063
        BYTE           N04     Cs3   v120
        BYTE   W06
        BYTE           N02     Bn1   v085
        BYTE   W06
        BYTE                   Fs2   v063
        BYTE   W06
        BYTE           N11     En2   v120
        BYTE           N04     Dn3
        BYTE   W06
        BYTE                   Ds3
        BYTE   W06
        BYTE   PEND
// 061   ----------------------------------------
        BYTE   PATT
         POIN2  _64___Temporal_Tower_9_59
// 062   ----------------------------------------
        BYTE   PATT
         POIN2  _64___Temporal_Tower_9_60
// 063   ----------------------------------------
        BYTE   PATT
         POIN2  _64___Temporal_Tower_9_59
// 064   ----------------------------------------
        BYTE   PATT
         POIN2  _64___Temporal_Tower_9_60
// 065   ----------------------------------------
        BYTE   PATT
         POIN2  _64___Temporal_Tower_9_59
// 066   ----------------------------------------
        BYTE   PATT
         POIN2  _64___Temporal_Tower_9_60
// 067   ----------------------------------------
        BYTE   PATT
         POIN2  _64___Temporal_Tower_9_5
// 068   ----------------------------------------
        BYTE   PATT
         POIN2  _64___Temporal_Tower_9_6
// 069   ----------------------------------------
        BYTE   PATT
         POIN2  _64___Temporal_Tower_9_5
// 070   ----------------------------------------
        BYTE   PATT
         POIN2  _64___Temporal_Tower_9_6
// 071   ----------------------------------------
        BYTE   PATT
         POIN2  _64___Temporal_Tower_9_5
// 072   ----------------------------------------
        BYTE   PATT
         POIN2  _64___Temporal_Tower_9_6
// 073   ----------------------------------------
        BYTE   PATT
         POIN2  _64___Temporal_Tower_9_5
// 074   ----------------------------------------
        BYTE   PATT
         POIN2  _64___Temporal_Tower_9_12
// 075   ----------------------------------------
        BYTE   PATT
         POIN2  _64___Temporal_Tower_9_5
// 076   ----------------------------------------
        BYTE   PATT
         POIN2  _64___Temporal_Tower_9_14
// 077   ----------------------------------------
        BYTE   PATT
         POIN2  _64___Temporal_Tower_9_5
// 078   ----------------------------------------
        BYTE   PATT
         POIN2  _64___Temporal_Tower_9_16
// 079   ----------------------------------------
        BYTE   PATT
         POIN2  _64___Temporal_Tower_9_5
// 080   ----------------------------------------
        BYTE   PATT
         POIN2  _64___Temporal_Tower_9_14
// 081   ----------------------------------------
        BYTE   PATT
         POIN2  _64___Temporal_Tower_9_5
// 082   ----------------------------------------
        BYTE   PATT
         POIN2  _64___Temporal_Tower_9_16
// 083   ----------------------------------------
        BYTE   PATT
         POIN2  _64___Temporal_Tower_9_5
// 084   ----------------------------------------
        BYTE   PATT
         POIN2  _64___Temporal_Tower_9_22
// 085   ----------------------------------------
        BYTE   PATT
         POIN2  _64___Temporal_Tower_9_5
// 086   ----------------------------------------
        BYTE   PATT
         POIN2  _64___Temporal_Tower_9_22
// 087   ----------------------------------------
        BYTE   PATT
         POIN2  _64___Temporal_Tower_9_5
// 088   ----------------------------------------
        BYTE   PATT
         POIN2  _64___Temporal_Tower_9_22
// 089   ----------------------------------------
        BYTE   PATT
         POIN2  _64___Temporal_Tower_9_5
// 090   ----------------------------------------
        BYTE   PATT
         POIN2  _64___Temporal_Tower_9_28
// 091   ----------------------------------------
        BYTE   PATT
         POIN2  _64___Temporal_Tower_9_5
// 092   ----------------------------------------
        BYTE   PATT
         POIN2  _64___Temporal_Tower_9_30
// 093   ----------------------------------------
        BYTE   PATT
         POIN2  _64___Temporal_Tower_9_5
// 094   ----------------------------------------
        BYTE   PATT
         POIN2  _64___Temporal_Tower_9_30
// 095   ----------------------------------------
        BYTE   PATT
         POIN2  _64___Temporal_Tower_9_5
// 096   ----------------------------------------
        BYTE   PATT
         POIN2  _64___Temporal_Tower_9_30
// 097   ----------------------------------------
        BYTE   PATT
         POIN2  _64___Temporal_Tower_9_5
// 098   ----------------------------------------
        BYTE   PATT
         POIN2  _64___Temporal_Tower_9_30
// 099   ----------------------------------------
        BYTE   PATT
         POIN2  _64___Temporal_Tower_9_37
// 100   ----------------------------------------
        BYTE   PATT
         POIN2  _64___Temporal_Tower_9_38
// 101   ----------------------------------------
        BYTE   PATT
         POIN2  _64___Temporal_Tower_9_37
// 102   ----------------------------------------
        BYTE   PATT
         POIN2  _64___Temporal_Tower_9_40
// 103   ----------------------------------------
        BYTE   PATT
         POIN2  _64___Temporal_Tower_9_37
// 104   ----------------------------------------
        BYTE   PATT
         POIN2  _64___Temporal_Tower_9_38
// 105   ----------------------------------------
        BYTE   PATT
         POIN2  _64___Temporal_Tower_9_37
// 106   ----------------------------------------
        BYTE   PATT
         POIN2  _64___Temporal_Tower_9_44
// 107   ----------------------------------------
        BYTE   PATT
         POIN2  _64___Temporal_Tower_9_37
// 108   ----------------------------------------
        BYTE   PATT
         POIN2  _64___Temporal_Tower_9_46
// 109   ----------------------------------------
        BYTE   PATT
         POIN2  _64___Temporal_Tower_9_37
// 110   ----------------------------------------
        BYTE   PATT
         POIN2  _64___Temporal_Tower_9_46
// 111   ----------------------------------------
        BYTE   PATT
         POIN2  _64___Temporal_Tower_9_37
// 112   ----------------------------------------
        BYTE   PATT
         POIN2  _64___Temporal_Tower_9_46
// 113   ----------------------------------------
        BYTE   PATT
         POIN2  _64___Temporal_Tower_9_37
// 114   ----------------------------------------
        BYTE   PATT
         POIN2  _64___Temporal_Tower_9_46
// 115   ----------------------------------------
        BYTE   PATT
         POIN2  _64___Temporal_Tower_9_37
// 116   ----------------------------------------
        BYTE   PATT
         POIN2  _64___Temporal_Tower_9_46
// 117   ----------------------------------------
        BYTE   PATT
         POIN2  _64___Temporal_Tower_9_37
// 118   ----------------------------------------
        BYTE   PATT
         POIN2  _64___Temporal_Tower_9_46
// 119   ----------------------------------------
        BYTE   W96
// 120   ----------------------------------------
        BYTE   W96
// 121   ----------------------------------------
        BYTE   PATT
         POIN2  _64___Temporal_Tower_9_59
// 122   ----------------------------------------
        BYTE   PATT
         POIN2  _64___Temporal_Tower_9_60
// 123   ----------------------------------------
        BYTE   PATT
         POIN2  _64___Temporal_Tower_9_59
// 124   ----------------------------------------
        BYTE   PATT
         POIN2  _64___Temporal_Tower_9_60
// 125   ----------------------------------------
        BYTE   PATT
         POIN2  _64___Temporal_Tower_9_59
// 126   ----------------------------------------
        BYTE   PATT
         POIN2  _64___Temporal_Tower_9_60
// 127   ----------------------------------------
        BYTE   PATT
         POIN2  _64___Temporal_Tower_9_59
// 128   ----------------------------------------
        BYTE   PATT
         POIN2  _64___Temporal_Tower_9_60
// 129   ----------------------------------------
        BYTE   PATT
         POIN2  _64___Temporal_Tower_9_5
// 130   ----------------------------------------
        BYTE   PATT
         POIN2  _64___Temporal_Tower_9_6
// 131   ----------------------------------------
        BYTE   PATT
         POIN2  _64___Temporal_Tower_9_5
// 132   ----------------------------------------
        BYTE           N05     Cn1   v120
        BYTE           N02     Bn1   v085
        BYTE           N04     En3   v120
        BYTE   W06
        BYTE           N02     Fs2   v063
        BYTE           N02     Gs1   v040
        BYTE   W06
        BYTE           N05     En2   v120
        BYTE           N04     Ds3
        BYTE           N02     Gs1
        BYTE   W03
        BYTE                   Gs1   v040
        BYTE   W03
        BYTE           N05     Cn1   v120
        BYTE           N02     Fs2   v063
        BYTE           N04     Cs3   v120
        BYTE           N02     Gs1   v100
        BYTE   W03
        BYTE                   Gs1   v040
        BYTE   W03
        BYTE                   Bn1   v085
        BYTE           N04     Cs3   v120
        BYTE           N05     Gs1   v080
        BYTE   W06
        BYTE           N02     Fs2   v063
        BYTE           N04     En3   v120
        BYTE           N05     Gs1
        BYTE   W06
        BYTE                   Cn1
        BYTE           N02     Bn1   v085
        BYTE           N05     Gs1   v060
        BYTE   W06
        BYTE           N02     Fs2   v063
        BYTE           N04     Cs3   v120
        BYTE           N05     Gs1   v100
        BYTE   W06
        BYTE           N11     En2   v080
        BYTE           N02     Bn1   v085
        BYTE   W03
        BYTE                   Gs1   v040
        BYTE   W03
        BYTE                   Fs2   v063
        BYTE           N04     Dn3   v120
        BYTE           N01     Gs1   v080
        BYTE   W03
        BYTE           N02     Gs1   v040
        BYTE   W03
        BYTE           N11     En1   v070
        BYTE           N11     Dn4   v090
        BYTE           N02     Bn1   v085
        BYTE           N04     Ds3   v120
        BYTE           N05     Gs1
        BYTE   W06
        BYTE           N02     Fs2   v063
        BYTE           N04     Cs3   v120
        BYTE           N05     Gs1   v060
        BYTE   W06
        BYTE           N11     En1   v110
        BYTE           N02     Bn1   v085
        BYTE           N02     Gs1   v040
        BYTE   W06
        BYTE                   Fs2   v063
        BYTE           N02     Gs1   v040
        BYTE   W03
        BYTE           N01     Gs1   v080
        BYTE   W03
        BYTE           N11     En2   v120
        BYTE           N04     Dn3
        BYTE           N05     Gs1
        BYTE   W06
        BYTE           N04     Ds3
        BYTE           N05     Gs1   v080
        BYTE   W05
        BYTE   FINE

//***************** Track 10 (Midi-Chn.10) *****************//

_64___Temporal_Tower_10:
        BYTE   KEYSH   _64___Temporal_Tower_key+0
// 000   ----------------------------------------
        BYTE   W24
// 001   ----------------------------------------
        BYTE           VOICE   0
        BYTE           VOL     83
        BYTE   W96
// 002   ----------------------------------------
        BYTE   W96
// 003   ----------------------------------------
_64___Temporal_Tower_10_3:
        BYTE   W36
        BYTE   W02
        BYTE           VOICE   52
        BYTE   W01
        BYTE           VOL     99
        BYTE           PAN     c_v+20
        BYTE   W56
        BYTE           VOL     45
        BYTE   W01
        BYTE   PEND
// 004   ----------------------------------------
_64___Temporal_Tower_10_4:
        BYTE           TIE     En3   v095
        BYTE   W04
        BYTE           VOL     49
        BYTE   W03
        BYTE                   52
        BYTE   W02
        BYTE                   53
        BYTE   W01
        BYTE                   54
        BYTE   W02
        BYTE                   55
        BYTE   W01
        BYTE                   57
        BYTE   W02
        BYTE                   58
        BYTE   W01
        BYTE                   59
        BYTE   W02
        BYTE                   60
        BYTE   W03
        BYTE                   62
        BYTE   W03
        BYTE                   64
        BYTE   W01
        BYTE                   65
        BYTE   W02
        BYTE                   66
        BYTE   W01
        BYTE                   67
        BYTE   W02
        BYTE                   68
        BYTE   W01
        BYTE                   70
        BYTE   W02
        BYTE                   71
        BYTE   W01
        BYTE                   72
        BYTE   W02
        BYTE                   73
        BYTE   W01
        BYTE                   74
        BYTE   W02
        BYTE                   76
        BYTE   W01
        BYTE                   77
        BYTE   W03
        BYTE                   78
        BYTE   W02
        BYTE                   79
        BYTE   W01
        BYTE                   80
        BYTE   W02
        BYTE                   81
        BYTE   W01
        BYTE                   83
        BYTE   W02
        BYTE                   84
        BYTE   W01
        BYTE                   85
        BYTE   W02
        BYTE                   86
        BYTE   W01
        BYTE                   87
        BYTE   W02
        BYTE                   89
        BYTE   W01
        BYTE                   90
        BYTE   W02
        BYTE                   91
        BYTE   W01
        BYTE                   92
        BYTE   W02
        BYTE                   93
        BYTE   W01
        BYTE                   94
        BYTE   W03
        BYTE                   96
        BYTE   W02
        BYTE                   97
        BYTE   W01
        BYTE                   99
        BYTE   W08
        BYTE                   94
        BYTE   W03
        BYTE                   92
        BYTE   W01
        BYTE                   90
        BYTE   W02
        BYTE                   89
        BYTE   W01
        BYTE                   87
        BYTE   W02
        BYTE                   85
        BYTE   W01
        BYTE                   84
        BYTE   W02
        BYTE                   82
        BYTE   W01
        BYTE                   80
        BYTE   W02
        BYTE                   79
        BYTE   W01
        BYTE                   77
        BYTE   W02
        BYTE   PEND
// 005   ----------------------------------------
_64___Temporal_Tower_10_5:
        BYTE           VOL     74
        BYTE   W01
        BYTE                   72
        BYTE   W02
        BYTE                   68
        BYTE   W01
        BYTE                   65
        BYTE   W02
        BYTE                   62
        BYTE   W01
        BYTE                   59
        BYTE   W02
        BYTE                   56
        BYTE   W01
        BYTE                   53
        BYTE   W02
        BYTE                   49
        BYTE   W01
        BYTE                   46
        BYTE   W02
        BYTE                   43
        BYTE   W01
        BYTE                   39
        BYTE   W02
        BYTE                   34
        BYTE   W01
        BYTE                   29
        BYTE   W02
        BYTE                   24
        BYTE   W01
        BYTE                   19
        BYTE   W02
        BYTE                   14
        BYTE   W01
        BYTE                   9
        BYTE   W02
        BYTE                   5
        BYTE   W01
        BYTE                   0
        BYTE   W19
        BYTE           EOT     En3
        BYTE   W48
        BYTE   W01
        BYTE   PEND
// 006   ----------------------------------------
        BYTE   W96
// 007   ----------------------------------------
        BYTE   W96
// 008   ----------------------------------------
        BYTE   W96
// 009   ----------------------------------------
        BYTE   W96
// 010   ----------------------------------------
        BYTE   W96
// 011   ----------------------------------------
        BYTE   W96
// 012   ----------------------------------------
_64___Temporal_Tower_10_12:
        BYTE   W08
        BYTE           VOICE   46
        BYTE   W01
        BYTE           PAN     c_v-50
        BYTE           VOL     105
        BYTE   W84
        BYTE   W03
        BYTE   PEND
// 013   ----------------------------------------
_64___Temporal_Tower_10_13:
        BYTE   W30
        BYTE           N03     En3   v065
        BYTE   W42
        BYTE                   En3   v045
        BYTE   W24
        BYTE   PEND
// 014   ----------------------------------------
_64___Temporal_Tower_10_14:
        BYTE   W12
        BYTE           N03     An3   v065
        BYTE   W30
        BYTE                   En3   v045
        BYTE   W30
        BYTE                   An2
        BYTE   W24
        BYTE   PEND
// 015   ----------------------------------------
_64___Temporal_Tower_10_15:
        BYTE   W30
        BYTE           N03     An2   v065
        BYTE   W42
        BYTE                   An2   v045
        BYTE   W24
        BYTE   PEND
// 016   ----------------------------------------
_64___Temporal_Tower_10_16:
        BYTE   W12
        BYTE           N03     An3   v065
        BYTE   W30
        BYTE                   Dn3   v045
        BYTE   W30
        BYTE                   An3
        BYTE   W24
        BYTE   PEND
// 017   ----------------------------------------
        BYTE   PATT
         POIN2  _64___Temporal_Tower_10_13
// 018   ----------------------------------------
        BYTE   PATT
         POIN2  _64___Temporal_Tower_10_14
// 019   ----------------------------------------
        BYTE   PATT
         POIN2  _64___Temporal_Tower_10_15
// 020   ----------------------------------------
        BYTE   PATT
         POIN2  _64___Temporal_Tower_10_16
// 021   ----------------------------------------
        BYTE   W96
// 022   ----------------------------------------
        BYTE   W96
// 023   ----------------------------------------
        BYTE   W96
// 024   ----------------------------------------
        BYTE   W96
// 025   ----------------------------------------
        BYTE   W96
// 026   ----------------------------------------
        BYTE   W96
// 027   ----------------------------------------
        BYTE   W96
// 028   ----------------------------------------
        BYTE   W96
// 029   ----------------------------------------
        BYTE   W96
// 030   ----------------------------------------
        BYTE   W96
// 031   ----------------------------------------
        BYTE   W96
// 032   ----------------------------------------
        BYTE   W96
// 033   ----------------------------------------
        BYTE   W96
// 034   ----------------------------------------
        BYTE   W96
// 035   ----------------------------------------
        BYTE   W96
// 036   ----------------------------------------
        BYTE   W96
// 037   ----------------------------------------
        BYTE   PATT
         POIN2  _64___Temporal_Tower_10_13
// 038   ----------------------------------------
        BYTE   PATT
         POIN2  _64___Temporal_Tower_10_14
// 039   ----------------------------------------
        BYTE   PATT
         POIN2  _64___Temporal_Tower_10_15
// 040   ----------------------------------------
        BYTE   PATT
         POIN2  _64___Temporal_Tower_10_16
// 041   ----------------------------------------
        BYTE   PATT
         POIN2  _64___Temporal_Tower_10_13
// 042   ----------------------------------------
        BYTE   PATT
         POIN2  _64___Temporal_Tower_10_14
// 043   ----------------------------------------
        BYTE   PATT
         POIN2  _64___Temporal_Tower_10_15
// 044   ----------------------------------------
        BYTE   PATT
         POIN2  _64___Temporal_Tower_10_16
// 045   ----------------------------------------
        BYTE   W96
// 046   ----------------------------------------
        BYTE   W96
// 047   ----------------------------------------
        BYTE   W96
// 048   ----------------------------------------
        BYTE   W96
// 049   ----------------------------------------
        BYTE   W96
// 050   ----------------------------------------
        BYTE   PATT
         POIN2  _64___Temporal_Tower_7_12
// 051   ----------------------------------------
        BYTE   PATT
         POIN2  _64___Temporal_Tower_7_13
// 052   ----------------------------------------
        BYTE   PATT
         POIN2  _64___Temporal_Tower_7_14
// 053   ----------------------------------------
        BYTE   PATT
         POIN2  _64___Temporal_Tower_7_15
// 054   ----------------------------------------
        BYTE   PATT
         POIN2  _64___Temporal_Tower_7_16
// 055   ----------------------------------------
        BYTE   PATT
         POIN2  _64___Temporal_Tower_7_13
// 056   ----------------------------------------
        BYTE   PATT
         POIN2  _64___Temporal_Tower_7_14
// 057   ----------------------------------------
        BYTE   PATT
         POIN2  _64___Temporal_Tower_7_15
// 058   ----------------------------------------
        BYTE   PATT
         POIN2  _64___Temporal_Tower_7_16
// 059   ----------------------------------------
        BYTE   W96
// 060   ----------------------------------------
        BYTE   W96
// 061   ----------------------------------------
        BYTE   W96
// 062   ----------------------------------------
        BYTE   W96
// 063   ----------------------------------------
        BYTE   W96
// 064   ----------------------------------------
        BYTE   W96
// 065   ----------------------------------------
        BYTE   PATT
         POIN2  _64___Temporal_Tower_10_3
// 066   ----------------------------------------
        BYTE   PATT
         POIN2  _64___Temporal_Tower_10_4
// 067   ----------------------------------------
        BYTE   PATT
         POIN2  _64___Temporal_Tower_10_5
// 068   ----------------------------------------
        BYTE   W96
// 069   ----------------------------------------
        BYTE   W96
// 070   ----------------------------------------
        BYTE   W96
// 071   ----------------------------------------
        BYTE   W96
// 072   ----------------------------------------
        BYTE   W96
// 073   ----------------------------------------
        BYTE   W96
// 074   ----------------------------------------
        BYTE   PATT
         POIN2  _64___Temporal_Tower_10_12
// 075   ----------------------------------------
        BYTE   PATT
         POIN2  _64___Temporal_Tower_10_13
// 076   ----------------------------------------
        BYTE   PATT
         POIN2  _64___Temporal_Tower_10_14
// 077   ----------------------------------------
        BYTE   PATT
         POIN2  _64___Temporal_Tower_10_15
// 078   ----------------------------------------
        BYTE   PATT
         POIN2  _64___Temporal_Tower_10_16
// 079   ----------------------------------------
        BYTE   PATT
         POIN2  _64___Temporal_Tower_10_13
// 080   ----------------------------------------
        BYTE   PATT
         POIN2  _64___Temporal_Tower_10_14
// 081   ----------------------------------------
        BYTE   PATT
         POIN2  _64___Temporal_Tower_10_15
// 082   ----------------------------------------
        BYTE   PATT
         POIN2  _64___Temporal_Tower_10_16
// 083   ----------------------------------------
        BYTE   W96
// 084   ----------------------------------------
        BYTE   W96
// 085   ----------------------------------------
        BYTE   W96
// 086   ----------------------------------------
        BYTE   W96
// 087   ----------------------------------------
        BYTE   W96
// 088   ----------------------------------------
        BYTE   W96
// 089   ----------------------------------------
        BYTE   W96
// 090   ----------------------------------------
        BYTE   W96
// 091   ----------------------------------------
        BYTE   W96
// 092   ----------------------------------------
        BYTE   W96
// 093   ----------------------------------------
        BYTE   W96
// 094   ----------------------------------------
        BYTE   W96
// 095   ----------------------------------------
        BYTE   W96
// 096   ----------------------------------------
        BYTE   W96
// 097   ----------------------------------------
        BYTE   W96
// 098   ----------------------------------------
        BYTE   W96
// 099   ----------------------------------------
        BYTE   PATT
         POIN2  _64___Temporal_Tower_10_13
// 100   ----------------------------------------
        BYTE   PATT
         POIN2  _64___Temporal_Tower_10_14
// 101   ----------------------------------------
        BYTE   PATT
         POIN2  _64___Temporal_Tower_10_15
// 102   ----------------------------------------
        BYTE   PATT
         POIN2  _64___Temporal_Tower_10_16
// 103   ----------------------------------------
        BYTE   PATT
         POIN2  _64___Temporal_Tower_10_13
// 104   ----------------------------------------
        BYTE   PATT
         POIN2  _64___Temporal_Tower_10_14
// 105   ----------------------------------------
        BYTE   PATT
         POIN2  _64___Temporal_Tower_10_15
// 106   ----------------------------------------
        BYTE   PATT
         POIN2  _64___Temporal_Tower_10_16
// 107   ----------------------------------------
        BYTE   W96
// 108   ----------------------------------------
        BYTE   W96
// 109   ----------------------------------------
        BYTE   W96
// 110   ----------------------------------------
        BYTE   W96
// 111   ----------------------------------------
        BYTE   W96
// 112   ----------------------------------------
        BYTE   PATT
         POIN2  _64___Temporal_Tower_7_12
// 113   ----------------------------------------
        BYTE   PATT
         POIN2  _64___Temporal_Tower_7_13
// 114   ----------------------------------------
        BYTE   PATT
         POIN2  _64___Temporal_Tower_7_14
// 115   ----------------------------------------
        BYTE   PATT
         POIN2  _64___Temporal_Tower_7_15
// 116   ----------------------------------------
        BYTE   PATT
         POIN2  _64___Temporal_Tower_7_16
// 117   ----------------------------------------
        BYTE   PATT
         POIN2  _64___Temporal_Tower_7_13
// 118   ----------------------------------------
        BYTE   PATT
         POIN2  _64___Temporal_Tower_7_14
// 119   ----------------------------------------
        BYTE   PATT
         POIN2  _64___Temporal_Tower_7_15
// 120   ----------------------------------------
        BYTE   PATT
         POIN2  _64___Temporal_Tower_7_16
// 121   ----------------------------------------
        BYTE   W96
// 122   ----------------------------------------
        BYTE   W96
// 123   ----------------------------------------
        BYTE   W96
// 124   ----------------------------------------
        BYTE   W96
// 125   ----------------------------------------
        BYTE   W96
// 126   ----------------------------------------
        BYTE   W96
// 127   ----------------------------------------
        BYTE   PATT
         POIN2  _64___Temporal_Tower_10_3
// 128   ----------------------------------------
        BYTE   PATT
         POIN2  _64___Temporal_Tower_10_4
// 129   ----------------------------------------
        BYTE   PATT
         POIN2  _64___Temporal_Tower_10_5
// 130   ----------------------------------------
        BYTE   W96
// 131   ----------------------------------------
        BYTE   W96
// 132   ----------------------------------------
        BYTE   W92
        BYTE   W03
        BYTE   FINE

//***************** Track 11 (Midi-Chn.11) *****************//

_64___Temporal_Tower_11:
        BYTE   KEYSH   _64___Temporal_Tower_key+0
// 000   ----------------------------------------
        BYTE   W24
// 001   ----------------------------------------
        BYTE           VOICE   0
        BYTE           VOL     83
        BYTE   W96
// 002   ----------------------------------------
        BYTE   W96
// 003   ----------------------------------------
        BYTE   W36
        BYTE   W02
        BYTE           VOICE   52
        BYTE   W01
        BYTE           VOL     99
        BYTE           PAN     c_v+40
        BYTE   W56
        BYTE           VOL     45
        BYTE   W01
// 004   ----------------------------------------
_64___Temporal_Tower_11_4:
        BYTE           TIE     Dn3   v095
        BYTE   W04
        BYTE           VOL     49
        BYTE   W03
        BYTE                   52
        BYTE   W02
        BYTE                   53
        BYTE   W01
        BYTE                   54
        BYTE   W02
        BYTE                   55
        BYTE   W01
        BYTE                   57
        BYTE   W02
        BYTE                   58
        BYTE   W01
        BYTE                   59
        BYTE   W02
        BYTE                   60
        BYTE   W03
        BYTE                   62
        BYTE   W03
        BYTE                   64
        BYTE   W01
        BYTE                   65
        BYTE   W02
        BYTE                   66
        BYTE   W01
        BYTE                   67
        BYTE   W02
        BYTE                   68
        BYTE   W01
        BYTE                   70
        BYTE   W02
        BYTE                   71
        BYTE   W01
        BYTE                   72
        BYTE   W02
        BYTE                   73
        BYTE   W01
        BYTE                   74
        BYTE   W02
        BYTE                   76
        BYTE   W01
        BYTE                   77
        BYTE   W03
        BYTE                   78
        BYTE   W02
        BYTE                   79
        BYTE   W01
        BYTE                   80
        BYTE   W02
        BYTE                   81
        BYTE   W01
        BYTE                   83
        BYTE   W02
        BYTE                   84
        BYTE   W01
        BYTE                   85
        BYTE   W02
        BYTE                   86
        BYTE   W01
        BYTE                   87
        BYTE   W02
        BYTE                   89
        BYTE   W01
        BYTE                   90
        BYTE   W02
        BYTE                   91
        BYTE   W01
        BYTE                   92
        BYTE   W02
        BYTE                   93
        BYTE   W01
        BYTE                   94
        BYTE   W03
        BYTE                   96
        BYTE   W02
        BYTE                   97
        BYTE   W01
        BYTE                   99
        BYTE   W08
        BYTE                   94
        BYTE   W03
        BYTE                   92
        BYTE   W01
        BYTE                   90
        BYTE   W02
        BYTE                   89
        BYTE   W01
        BYTE                   87
        BYTE   W02
        BYTE                   85
        BYTE   W01
        BYTE                   84
        BYTE   W02
        BYTE                   82
        BYTE   W01
        BYTE                   80
        BYTE   W02
        BYTE                   79
        BYTE   W01
        BYTE                   77
        BYTE   W02
        BYTE   PEND
// 005   ----------------------------------------
_64___Temporal_Tower_11_5:
        BYTE           VOL     74
        BYTE   W01
        BYTE                   72
        BYTE   W02
        BYTE                   68
        BYTE   W01
        BYTE                   65
        BYTE   W02
        BYTE                   62
        BYTE   W01
        BYTE                   59
        BYTE   W02
        BYTE                   56
        BYTE   W01
        BYTE                   53
        BYTE   W02
        BYTE                   49
        BYTE   W01
        BYTE                   46
        BYTE   W02
        BYTE                   43
        BYTE   W01
        BYTE                   39
        BYTE   W02
        BYTE                   34
        BYTE   W01
        BYTE                   29
        BYTE   W02
        BYTE                   24
        BYTE   W01
        BYTE                   19
        BYTE   W02
        BYTE                   14
        BYTE   W01
        BYTE                   9
        BYTE   W02
        BYTE                   5
        BYTE   W01
        BYTE                   0
        BYTE   W19
        BYTE           EOT     Dn3
        BYTE   W48
        BYTE   W01
        BYTE   PEND
// 006   ----------------------------------------
        BYTE   W96
// 007   ----------------------------------------
        BYTE   W96
// 008   ----------------------------------------
        BYTE   W96
// 009   ----------------------------------------
        BYTE   W96
// 010   ----------------------------------------
        BYTE   W96
// 011   ----------------------------------------
        BYTE   W96
// 012   ----------------------------------------
_64___Temporal_Tower_11_12:
        BYTE   W14
        BYTE           VOICE   46
        BYTE   W01
        BYTE           PAN     c_v+53
        BYTE           VOL     105
        BYTE   W80
        BYTE   W01
        BYTE   PEND
// 013   ----------------------------------------
_64___Temporal_Tower_11_13:
        BYTE   W12
        BYTE           N03     Bn3   v065
        BYTE   W30
        BYTE                   Dn3   v045
        BYTE   W18
        BYTE                   En3   v065
        BYTE   W36
        BYTE   PEND
// 014   ----------------------------------------
_64___Temporal_Tower_11_14:
        BYTE   W30
        BYTE           N03     Dn3   v065
        BYTE   W30
        BYTE                   An2
        BYTE   W36
        BYTE   PEND
// 015   ----------------------------------------
_64___Temporal_Tower_11_15:
        BYTE   W12
        BYTE           N03     En3   v065
        BYTE   W30
        BYTE                   Gn2   v045
        BYTE   W18
        BYTE                   An2   v065
        BYTE   W36
        BYTE   PEND
// 016   ----------------------------------------
_64___Temporal_Tower_11_16:
        BYTE   W30
        BYTE           N03     Dn3   v065
        BYTE   W30
        BYTE                   An3
        BYTE   W36
        BYTE   PEND
// 017   ----------------------------------------
        BYTE   PATT
         POIN2  _64___Temporal_Tower_11_13
// 018   ----------------------------------------
        BYTE   PATT
         POIN2  _64___Temporal_Tower_11_14
// 019   ----------------------------------------
        BYTE   PATT
         POIN2  _64___Temporal_Tower_11_15
// 020   ----------------------------------------
        BYTE   PATT
         POIN2  _64___Temporal_Tower_11_16
// 021   ----------------------------------------
        BYTE   W96
// 022   ----------------------------------------
        BYTE   W96
// 023   ----------------------------------------
        BYTE   W96
// 024   ----------------------------------------
        BYTE   W96
// 025   ----------------------------------------
        BYTE   W96
// 026   ----------------------------------------
        BYTE   W96
// 027   ----------------------------------------
        BYTE   W96
// 028   ----------------------------------------
        BYTE   W96
// 029   ----------------------------------------
        BYTE   W96
// 030   ----------------------------------------
        BYTE   W96
// 031   ----------------------------------------
        BYTE   W96
// 032   ----------------------------------------
        BYTE   W96
// 033   ----------------------------------------
        BYTE   W96
// 034   ----------------------------------------
        BYTE   W96
// 035   ----------------------------------------
        BYTE   W96
// 036   ----------------------------------------
        BYTE   W96
// 037   ----------------------------------------
        BYTE   PATT
         POIN2  _64___Temporal_Tower_11_13
// 038   ----------------------------------------
        BYTE   PATT
         POIN2  _64___Temporal_Tower_11_14
// 039   ----------------------------------------
        BYTE   PATT
         POIN2  _64___Temporal_Tower_11_15
// 040   ----------------------------------------
        BYTE   PATT
         POIN2  _64___Temporal_Tower_11_16
// 041   ----------------------------------------
        BYTE   PATT
         POIN2  _64___Temporal_Tower_11_13
// 042   ----------------------------------------
        BYTE   PATT
         POIN2  _64___Temporal_Tower_11_14
// 043   ----------------------------------------
        BYTE   PATT
         POIN2  _64___Temporal_Tower_11_15
// 044   ----------------------------------------
        BYTE   PATT
         POIN2  _64___Temporal_Tower_11_16
// 045   ----------------------------------------
        BYTE   W96
// 046   ----------------------------------------
        BYTE   W96
// 047   ----------------------------------------
        BYTE   W96
// 048   ----------------------------------------
        BYTE   W96
// 049   ----------------------------------------
        BYTE   W96
// 050   ----------------------------------------
        BYTE   PATT
         POIN2  _64___Temporal_Tower_8_12
// 051   ----------------------------------------
        BYTE   PATT
         POIN2  _64___Temporal_Tower_8_13
// 052   ----------------------------------------
        BYTE   PATT
         POIN2  _64___Temporal_Tower_8_14
// 053   ----------------------------------------
        BYTE   PATT
         POIN2  _64___Temporal_Tower_8_15
// 054   ----------------------------------------
        BYTE   PATT
         POIN2  _64___Temporal_Tower_8_16
// 055   ----------------------------------------
        BYTE   PATT
         POIN2  _64___Temporal_Tower_8_13
// 056   ----------------------------------------
        BYTE   PATT
         POIN2  _64___Temporal_Tower_8_14
// 057   ----------------------------------------
        BYTE   PATT
         POIN2  _64___Temporal_Tower_8_15
// 058   ----------------------------------------
        BYTE   PATT
         POIN2  _64___Temporal_Tower_8_16
// 059   ----------------------------------------
        BYTE   W96
// 060   ----------------------------------------
        BYTE   W96
// 061   ----------------------------------------
        BYTE   W96
// 062   ----------------------------------------
        BYTE   W96
// 063   ----------------------------------------
        BYTE   W96
// 064   ----------------------------------------
        BYTE   W96
// 065   ----------------------------------------
_64___Temporal_Tower_11_65:
        BYTE   W36
        BYTE   W02
        BYTE           VOICE   52
        BYTE   W01
        BYTE           VOL     99
        BYTE           PAN     c_v+10
        BYTE   W56
        BYTE           VOL     45
        BYTE   W01
        BYTE   PEND
// 066   ----------------------------------------
        BYTE   PATT
         POIN2  _64___Temporal_Tower_11_4
// 067   ----------------------------------------
        BYTE   PATT
         POIN2  _64___Temporal_Tower_11_5
// 068   ----------------------------------------
        BYTE   W96
// 069   ----------------------------------------
        BYTE   W96
// 070   ----------------------------------------
        BYTE   W96
// 071   ----------------------------------------
        BYTE   W96
// 072   ----------------------------------------
        BYTE   W96
// 073   ----------------------------------------
        BYTE   W96
// 074   ----------------------------------------
        BYTE   PATT
         POIN2  _64___Temporal_Tower_11_12
// 075   ----------------------------------------
        BYTE   PATT
         POIN2  _64___Temporal_Tower_11_13
// 076   ----------------------------------------
        BYTE   PATT
         POIN2  _64___Temporal_Tower_11_14
// 077   ----------------------------------------
        BYTE   PATT
         POIN2  _64___Temporal_Tower_11_15
// 078   ----------------------------------------
        BYTE   PATT
         POIN2  _64___Temporal_Tower_11_16
// 079   ----------------------------------------
        BYTE   PATT
         POIN2  _64___Temporal_Tower_11_13
// 080   ----------------------------------------
        BYTE   PATT
         POIN2  _64___Temporal_Tower_11_14
// 081   ----------------------------------------
        BYTE   PATT
         POIN2  _64___Temporal_Tower_11_15
// 082   ----------------------------------------
        BYTE   PATT
         POIN2  _64___Temporal_Tower_11_16
// 083   ----------------------------------------
        BYTE   W96
// 084   ----------------------------------------
        BYTE   W96
// 085   ----------------------------------------
        BYTE   W96
// 086   ----------------------------------------
        BYTE   W96
// 087   ----------------------------------------
        BYTE   W96
// 088   ----------------------------------------
        BYTE   W96
// 089   ----------------------------------------
        BYTE   W96
// 090   ----------------------------------------
        BYTE   W96
// 091   ----------------------------------------
        BYTE   W96
// 092   ----------------------------------------
        BYTE   W96
// 093   ----------------------------------------
        BYTE   W96
// 094   ----------------------------------------
        BYTE   W96
// 095   ----------------------------------------
        BYTE   W96
// 096   ----------------------------------------
        BYTE   W96
// 097   ----------------------------------------
        BYTE   W96
// 098   ----------------------------------------
        BYTE   W96
// 099   ----------------------------------------
        BYTE   PATT
         POIN2  _64___Temporal_Tower_11_13
// 100   ----------------------------------------
        BYTE   PATT
         POIN2  _64___Temporal_Tower_11_14
// 101   ----------------------------------------
        BYTE   PATT
         POIN2  _64___Temporal_Tower_11_15
// 102   ----------------------------------------
        BYTE   PATT
         POIN2  _64___Temporal_Tower_11_16
// 103   ----------------------------------------
        BYTE   PATT
         POIN2  _64___Temporal_Tower_11_13
// 104   ----------------------------------------
        BYTE   PATT
         POIN2  _64___Temporal_Tower_11_14
// 105   ----------------------------------------
        BYTE   PATT
         POIN2  _64___Temporal_Tower_11_15
// 106   ----------------------------------------
        BYTE   PATT
         POIN2  _64___Temporal_Tower_11_16
// 107   ----------------------------------------
        BYTE   W96
// 108   ----------------------------------------
        BYTE   W96
// 109   ----------------------------------------
        BYTE   W96
// 110   ----------------------------------------
        BYTE   W96
// 111   ----------------------------------------
        BYTE   W96
// 112   ----------------------------------------
        BYTE   PATT
         POIN2  _64___Temporal_Tower_8_12
// 113   ----------------------------------------
        BYTE   PATT
         POIN2  _64___Temporal_Tower_8_13
// 114   ----------------------------------------
        BYTE   PATT
         POIN2  _64___Temporal_Tower_8_14
// 115   ----------------------------------------
        BYTE   PATT
         POIN2  _64___Temporal_Tower_8_15
// 116   ----------------------------------------
        BYTE   PATT
         POIN2  _64___Temporal_Tower_8_16
// 117   ----------------------------------------
        BYTE   PATT
         POIN2  _64___Temporal_Tower_8_13
// 118   ----------------------------------------
        BYTE   PATT
         POIN2  _64___Temporal_Tower_8_14
// 119   ----------------------------------------
        BYTE   PATT
         POIN2  _64___Temporal_Tower_8_15
// 120   ----------------------------------------
        BYTE   PATT
         POIN2  _64___Temporal_Tower_8_16
// 121   ----------------------------------------
        BYTE   W96
// 122   ----------------------------------------
        BYTE   W96
// 123   ----------------------------------------
        BYTE   W96
// 124   ----------------------------------------
        BYTE   W96
// 125   ----------------------------------------
        BYTE   W96
// 126   ----------------------------------------
        BYTE   W96
// 127   ----------------------------------------
        BYTE   PATT
         POIN2  _64___Temporal_Tower_11_65
// 128   ----------------------------------------
        BYTE   PATT
         POIN2  _64___Temporal_Tower_11_4
// 129   ----------------------------------------
        BYTE   PATT
         POIN2  _64___Temporal_Tower_11_5
// 130   ----------------------------------------
        BYTE   W96
// 131   ----------------------------------------
        BYTE   W96
// 132   ----------------------------------------
        BYTE   W92
        BYTE   W03
        BYTE   FINE


//********************** End of Song ***********************//

        ALIGN 4
_64___Temporal_Tower:
        BYTE   12                      // Num Tracks
        BYTE   0                       // Unknown
        BYTE   _64___Temporal_Tower_pri // Priority
        BYTE   _64___Temporal_Tower_rev // Reverb

        POIN2   _64___Temporal_Tower_grp

        POIN2   _64___Temporal_Tower_0
        POIN2   _64___Temporal_Tower_1
        POIN2   _64___Temporal_Tower_2
        POIN2   _64___Temporal_Tower_3
        POIN2   _64___Temporal_Tower_4
        POIN2   _64___Temporal_Tower_5
        POIN2   _64___Temporal_Tower_6
        POIN2   _64___Temporal_Tower_7
        POIN2   _64___Temporal_Tower_8
        POIN2   _64___Temporal_Tower_9
        POIN2   _64___Temporal_Tower_10
        POIN2   _64___Temporal_Tower_11

        
