        .include "MPlayDef.s"

        .equ    _64___Temporal_Tower_grp, voicegroup000
        .equ    _64___Temporal_Tower_pri, 0
        .equ    _64___Temporal_Tower_rev, 0
        .equ    _64___Temporal_Tower_key, 0

        .section .rodata
        .global _64___Temporal_Tower
        .align  2

@****************** Track 0 (Midi-Chn.0) ******************@

_64___Temporal_Tower_0:
        .byte   KEYSH , _64___Temporal_Tower_key+0
@ 000   ----------------------------------------
        .byte   W24
@ 001   ----------------------------------------
        .byte   TEMPO , 110/2
        .byte           VOICE , 88
        .byte           VOL   , 74
        .byte   W96
@ 002   ----------------------------------------
        .byte   W96
@ 003   ----------------------------------------
        .byte   W96
@ 004   ----------------------------------------
        .byte   W96
@ 005   ----------------------------------------
        .byte   W96
@ 006   ----------------------------------------
        .byte   W96
@ 007   ----------------------------------------
        .byte   W96
@ 008   ----------------------------------------
        .byte   W96
@ 009   ----------------------------------------
        .byte   W96
@ 010   ----------------------------------------
        .byte   W96
@ 011   ----------------------------------------
        .byte   W96
@ 012   ----------------------------------------
        .byte   W96
@ 013   ----------------------------------------
_64___Temporal_Tower_0_13:
        .byte   W48
        .byte           N03   , Bn4 , v105
        .byte   W18
        .byte                   En4
        .byte   W18
        .byte                   Dn4
        .byte   W12
        .byte   PEND
@ 014   ----------------------------------------
_64___Temporal_Tower_0_14:
        .byte           N03   , En4 , v105
        .byte   W48
        .byte                   An4
        .byte   W18
        .byte                   Dn4
        .byte   W18
        .byte                   En4
        .byte   W12
        .byte   PEND
@ 015   ----------------------------------------
_64___Temporal_Tower_0_15:
        .byte           N03   , An3 , v105
        .byte   W48
        .byte                   En4
        .byte   W18
        .byte                   An3
        .byte   W18
        .byte                   Gn3
        .byte   W12
        .byte   PEND
@ 016   ----------------------------------------
_64___Temporal_Tower_0_16:
        .byte           N03   , An3 , v105
        .byte   W48
        .byte                   Dn4
        .byte   W18
        .byte                   Gn3
        .byte   W18
        .byte                   An3
        .byte   W12
        .byte   PEND
@ 017   ----------------------------------------
        .byte   PATT
         .word  _64___Temporal_Tower_0_13
@ 018   ----------------------------------------
        .byte   PATT
         .word  _64___Temporal_Tower_0_14
@ 019   ----------------------------------------
        .byte   PATT
         .word  _64___Temporal_Tower_0_15
@ 020   ----------------------------------------
        .byte   PATT
         .word  _64___Temporal_Tower_0_16
@ 021   ----------------------------------------
        .byte   W96
@ 022   ----------------------------------------
        .byte   W96
@ 023   ----------------------------------------
        .byte   W96
@ 024   ----------------------------------------
        .byte   W96
@ 025   ----------------------------------------
        .byte   W96
@ 026   ----------------------------------------
        .byte   W96
@ 027   ----------------------------------------
        .byte   W96
@ 028   ----------------------------------------
_64___Temporal_Tower_0_28:
        .byte   W32
        .byte           VOICE , 40
        .byte   W01
        .byte           PAN   , c_v-20
        .byte           VOL   , 103
        .byte   W60
        .byte   W03
        .byte   PEND
@ 029   ----------------------------------------
_64___Temporal_Tower_0_29:
        .byte           N28   , Bn3 , v110 , gtp1
        .byte   W36
        .byte           N03   , An3
        .byte   W06
        .byte                   Gn3 , v100
        .byte   W06
        .byte           N17   , Fs3 , v110
        .byte   W18
        .byte                   Dn3 , v085
        .byte   W18
        .byte           N11   , Fs3 , v110
        .byte   W12
        .byte   PEND
@ 030   ----------------------------------------
_64___Temporal_Tower_0_30:
        .byte           N32   , En3 , v110 , gtp3
        .byte   W48
        .byte           N17
        .byte   W18
        .byte                   Bn2 , v085
        .byte   W18
        .byte           N11   , An2 , v110
        .byte   W12
        .byte   PEND
@ 031   ----------------------------------------
        .byte           N92   , Bn2 , v095 , gtp3
        .byte   W96
@ 032   ----------------------------------------
        .byte   W96
@ 033   ----------------------------------------
        .byte   PATT
         .word  _64___Temporal_Tower_0_29
@ 034   ----------------------------------------
        .byte   PATT
         .word  _64___Temporal_Tower_0_30
@ 035   ----------------------------------------
        .byte           N92   , Bn2 , v095 , gtp3
        .byte   W96
@ 036   ----------------------------------------
_64___Temporal_Tower_0_36:
        .byte   W02
        .byte           VOICE , 88
        .byte   W01
        .byte           VOL   , 74
        .byte           PAN   , c_v+0
        .byte   W92
        .byte   W01
        .byte   PEND
@ 037   ----------------------------------------
        .byte   PATT
         .word  _64___Temporal_Tower_0_13
@ 038   ----------------------------------------
        .byte   PATT
         .word  _64___Temporal_Tower_0_14
@ 039   ----------------------------------------
        .byte   PATT
         .word  _64___Temporal_Tower_0_15
@ 040   ----------------------------------------
        .byte   PATT
         .word  _64___Temporal_Tower_0_16
@ 041   ----------------------------------------
        .byte   PATT
         .word  _64___Temporal_Tower_0_13
@ 042   ----------------------------------------
        .byte   PATT
         .word  _64___Temporal_Tower_0_14
@ 043   ----------------------------------------
        .byte   PATT
         .word  _64___Temporal_Tower_0_15
@ 044   ----------------------------------------
        .byte   PATT
         .word  _64___Temporal_Tower_0_16
@ 045   ----------------------------------------
        .byte   W96
@ 046   ----------------------------------------
        .byte   W96
@ 047   ----------------------------------------
        .byte   W96
@ 048   ----------------------------------------
        .byte   W96
@ 049   ----------------------------------------
        .byte   W96
@ 050   ----------------------------------------
        .byte   W96
@ 051   ----------------------------------------
        .byte   PATT
         .word  _64___Temporal_Tower_0_13
@ 052   ----------------------------------------
        .byte   PATT
         .word  _64___Temporal_Tower_0_14
@ 053   ----------------------------------------
        .byte   PATT
         .word  _64___Temporal_Tower_0_15
@ 054   ----------------------------------------
        .byte   PATT
         .word  _64___Temporal_Tower_0_16
@ 055   ----------------------------------------
        .byte   PATT
         .word  _64___Temporal_Tower_0_13
@ 056   ----------------------------------------
        .byte   PATT
         .word  _64___Temporal_Tower_0_14
@ 057   ----------------------------------------
        .byte   PATT
         .word  _64___Temporal_Tower_0_15
@ 058   ----------------------------------------
        .byte   PATT
         .word  _64___Temporal_Tower_0_16
@ 059   ----------------------------------------
        .byte   W96
@ 060   ----------------------------------------
        .byte   W96
@ 061   ----------------------------------------
        .byte   W96
@ 062   ----------------------------------------
        .byte   W96
@ 063   ----------------------------------------
        .byte   W96
@ 064   ----------------------------------------
        .byte   W96
@ 065   ----------------------------------------
        .byte   W96
@ 066   ----------------------------------------
        .byte   W96
@ 067   ----------------------------------------
        .byte   W96
@ 068   ----------------------------------------
        .byte   W96
@ 069   ----------------------------------------
        .byte   W96
@ 070   ----------------------------------------
        .byte   W96
@ 071   ----------------------------------------
        .byte   W96
@ 072   ----------------------------------------
        .byte   W96
@ 073   ----------------------------------------
        .byte   W96
@ 074   ----------------------------------------
        .byte   W96
@ 075   ----------------------------------------
        .byte   PATT
         .word  _64___Temporal_Tower_0_13
@ 076   ----------------------------------------
        .byte   PATT
         .word  _64___Temporal_Tower_0_14
@ 077   ----------------------------------------
        .byte   PATT
         .word  _64___Temporal_Tower_0_15
@ 078   ----------------------------------------
        .byte   PATT
         .word  _64___Temporal_Tower_0_16
@ 079   ----------------------------------------
        .byte   PATT
         .word  _64___Temporal_Tower_0_13
@ 080   ----------------------------------------
        .byte   PATT
         .word  _64___Temporal_Tower_0_14
@ 081   ----------------------------------------
        .byte   PATT
         .word  _64___Temporal_Tower_0_15
@ 082   ----------------------------------------
        .byte   PATT
         .word  _64___Temporal_Tower_0_16
@ 083   ----------------------------------------
        .byte   W96
@ 084   ----------------------------------------
        .byte   W96
@ 085   ----------------------------------------
        .byte   W96
@ 086   ----------------------------------------
        .byte   W96
@ 087   ----------------------------------------
        .byte   W96
@ 088   ----------------------------------------
        .byte   W96
@ 089   ----------------------------------------
        .byte   W96
@ 090   ----------------------------------------
        .byte   PATT
         .word  _64___Temporal_Tower_0_28
@ 091   ----------------------------------------
        .byte   PATT
         .word  _64___Temporal_Tower_0_29
@ 092   ----------------------------------------
        .byte   PATT
         .word  _64___Temporal_Tower_0_30
@ 093   ----------------------------------------
        .byte           N92   , Bn2 , v095 , gtp3
        .byte   W96
@ 094   ----------------------------------------
        .byte   W96
@ 095   ----------------------------------------
        .byte   PATT
         .word  _64___Temporal_Tower_0_29
@ 096   ----------------------------------------
        .byte   PATT
         .word  _64___Temporal_Tower_0_30
@ 097   ----------------------------------------
        .byte           N92   , Bn2 , v095 , gtp3
        .byte   W96
@ 098   ----------------------------------------
        .byte   PATT
         .word  _64___Temporal_Tower_0_36
@ 099   ----------------------------------------
        .byte   PATT
         .word  _64___Temporal_Tower_0_13
@ 100   ----------------------------------------
        .byte   PATT
         .word  _64___Temporal_Tower_0_14
@ 101   ----------------------------------------
        .byte   PATT
         .word  _64___Temporal_Tower_0_15
@ 102   ----------------------------------------
        .byte   PATT
         .word  _64___Temporal_Tower_0_16
@ 103   ----------------------------------------
        .byte   PATT
         .word  _64___Temporal_Tower_0_13
@ 104   ----------------------------------------
        .byte   PATT
         .word  _64___Temporal_Tower_0_14
@ 105   ----------------------------------------
        .byte   PATT
         .word  _64___Temporal_Tower_0_15
@ 106   ----------------------------------------
        .byte   PATT
         .word  _64___Temporal_Tower_0_16
@ 107   ----------------------------------------
        .byte   W96
@ 108   ----------------------------------------
        .byte   W96
@ 109   ----------------------------------------
        .byte   W96
@ 110   ----------------------------------------
        .byte   W96
@ 111   ----------------------------------------
        .byte   W96
@ 112   ----------------------------------------
        .byte   W96
@ 113   ----------------------------------------
        .byte   PATT
         .word  _64___Temporal_Tower_0_13
@ 114   ----------------------------------------
        .byte   PATT
         .word  _64___Temporal_Tower_0_14
@ 115   ----------------------------------------
        .byte   PATT
         .word  _64___Temporal_Tower_0_15
@ 116   ----------------------------------------
        .byte   PATT
         .word  _64___Temporal_Tower_0_16
@ 117   ----------------------------------------
        .byte   PATT
         .word  _64___Temporal_Tower_0_13
@ 118   ----------------------------------------
        .byte   PATT
         .word  _64___Temporal_Tower_0_14
@ 119   ----------------------------------------
        .byte   PATT
         .word  _64___Temporal_Tower_0_15
@ 120   ----------------------------------------
        .byte   PATT
         .word  _64___Temporal_Tower_0_16
@ 121   ----------------------------------------
        .byte   W96
@ 122   ----------------------------------------
        .byte   W96
@ 123   ----------------------------------------
        .byte   W96
@ 124   ----------------------------------------
        .byte   W96
@ 125   ----------------------------------------
        .byte   W96
@ 126   ----------------------------------------
        .byte   W96
@ 127   ----------------------------------------
        .byte   W96
@ 128   ----------------------------------------
        .byte   W96
@ 129   ----------------------------------------
        .byte   W96
@ 130   ----------------------------------------
        .byte   W96
@ 131   ----------------------------------------
        .byte   W96
@ 132   ----------------------------------------
        .byte   W92
        .byte   W03
        .byte   FINE

@****************** Track 1 (Midi-Chn.1) ******************@

_64___Temporal_Tower_1:
        .byte   KEYSH , _64___Temporal_Tower_key+0
@ 000   ----------------------------------------
        .byte   W24
@ 001   ----------------------------------------
        .byte           VOICE , 14
        .byte           VOL   , 95
        .byte   W96
@ 002   ----------------------------------------
        .byte   W96
@ 003   ----------------------------------------
        .byte   W96
@ 004   ----------------------------------------
        .byte   W96
@ 005   ----------------------------------------
        .byte   W96
@ 006   ----------------------------------------
        .byte   W96
@ 007   ----------------------------------------
        .byte   W96
@ 008   ----------------------------------------
        .byte   W96
@ 009   ----------------------------------------
        .byte   W96
@ 010   ----------------------------------------
        .byte   W96
@ 011   ----------------------------------------
        .byte   W96
@ 012   ----------------------------------------
        .byte   W96
@ 013   ----------------------------------------
_64___Temporal_Tower_1_13:
        .byte           N03   , Bn3 , v105
        .byte   W18
        .byte                   En3
        .byte   W18
        .byte                   Dn3
        .byte   W12
        .byte                   En3
        .byte   W48
        .byte   PEND
@ 014   ----------------------------------------
_64___Temporal_Tower_1_14:
        .byte           N03   , An3 , v105
        .byte   W18
        .byte                   Dn3
        .byte   W18
        .byte                   En3
        .byte   W12
        .byte                   An2
        .byte   W48
        .byte   PEND
@ 015   ----------------------------------------
_64___Temporal_Tower_1_15:
        .byte           N03   , En3 , v105
        .byte   W18
        .byte                   An2
        .byte   W18
        .byte                   Gn2
        .byte   W12
        .byte                   An2
        .byte   W48
        .byte   PEND
@ 016   ----------------------------------------
_64___Temporal_Tower_1_16:
        .byte           N03   , Dn3 , v105
        .byte   W18
        .byte                   Gn2
        .byte   W18
        .byte                   An2
        .byte   W12
        .byte                   Dn3
        .byte   W48
        .byte   PEND
@ 017   ----------------------------------------
        .byte   PATT
         .word  _64___Temporal_Tower_1_13
@ 018   ----------------------------------------
        .byte   PATT
         .word  _64___Temporal_Tower_1_14
@ 019   ----------------------------------------
        .byte   PATT
         .word  _64___Temporal_Tower_1_15
@ 020   ----------------------------------------
        .byte   PATT
         .word  _64___Temporal_Tower_1_16
@ 021   ----------------------------------------
        .byte   W96
@ 022   ----------------------------------------
        .byte   W96
@ 023   ----------------------------------------
        .byte   W96
@ 024   ----------------------------------------
        .byte   W96
@ 025   ----------------------------------------
        .byte   W96
@ 026   ----------------------------------------
        .byte   W96
@ 027   ----------------------------------------
        .byte   W96
@ 028   ----------------------------------------
        .byte   W96
@ 029   ----------------------------------------
        .byte   W96
@ 030   ----------------------------------------
        .byte   W96
@ 031   ----------------------------------------
        .byte   W96
@ 032   ----------------------------------------
        .byte   W96
@ 033   ----------------------------------------
        .byte   W96
@ 034   ----------------------------------------
        .byte   W96
@ 035   ----------------------------------------
        .byte   W96
@ 036   ----------------------------------------
        .byte   W96
@ 037   ----------------------------------------
        .byte   PATT
         .word  _64___Temporal_Tower_1_13
@ 038   ----------------------------------------
        .byte   PATT
         .word  _64___Temporal_Tower_1_14
@ 039   ----------------------------------------
        .byte   PATT
         .word  _64___Temporal_Tower_1_15
@ 040   ----------------------------------------
        .byte   PATT
         .word  _64___Temporal_Tower_1_16
@ 041   ----------------------------------------
        .byte   PATT
         .word  _64___Temporal_Tower_1_13
@ 042   ----------------------------------------
        .byte   PATT
         .word  _64___Temporal_Tower_1_14
@ 043   ----------------------------------------
        .byte   PATT
         .word  _64___Temporal_Tower_1_15
@ 044   ----------------------------------------
        .byte   PATT
         .word  _64___Temporal_Tower_1_16
@ 045   ----------------------------------------
        .byte   W96
@ 046   ----------------------------------------
        .byte   W96
@ 047   ----------------------------------------
        .byte   W96
@ 048   ----------------------------------------
        .byte   W96
@ 049   ----------------------------------------
        .byte   W96
@ 050   ----------------------------------------
        .byte   W96
@ 051   ----------------------------------------
        .byte   PATT
         .word  _64___Temporal_Tower_1_13
@ 052   ----------------------------------------
        .byte   PATT
         .word  _64___Temporal_Tower_1_14
@ 053   ----------------------------------------
        .byte   PATT
         .word  _64___Temporal_Tower_1_15
@ 054   ----------------------------------------
        .byte   PATT
         .word  _64___Temporal_Tower_1_16
@ 055   ----------------------------------------
        .byte   PATT
         .word  _64___Temporal_Tower_1_13
@ 056   ----------------------------------------
        .byte   PATT
         .word  _64___Temporal_Tower_1_14
@ 057   ----------------------------------------
        .byte   PATT
         .word  _64___Temporal_Tower_1_15
@ 058   ----------------------------------------
        .byte   PATT
         .word  _64___Temporal_Tower_1_16
@ 059   ----------------------------------------
        .byte   W96
@ 060   ----------------------------------------
        .byte   W96
@ 061   ----------------------------------------
        .byte   W96
@ 062   ----------------------------------------
        .byte   W96
@ 063   ----------------------------------------
        .byte   W96
@ 064   ----------------------------------------
        .byte   W96
@ 065   ----------------------------------------
        .byte   W96
@ 066   ----------------------------------------
        .byte   W96
@ 067   ----------------------------------------
        .byte   W96
@ 068   ----------------------------------------
        .byte   W96
@ 069   ----------------------------------------
        .byte   W96
@ 070   ----------------------------------------
        .byte   W96
@ 071   ----------------------------------------
        .byte   W96
@ 072   ----------------------------------------
        .byte   W96
@ 073   ----------------------------------------
        .byte   W96
@ 074   ----------------------------------------
        .byte   W96
@ 075   ----------------------------------------
        .byte   PATT
         .word  _64___Temporal_Tower_1_13
@ 076   ----------------------------------------
        .byte   PATT
         .word  _64___Temporal_Tower_1_14
@ 077   ----------------------------------------
        .byte   PATT
         .word  _64___Temporal_Tower_1_15
@ 078   ----------------------------------------
        .byte   PATT
         .word  _64___Temporal_Tower_1_16
@ 079   ----------------------------------------
        .byte   PATT
         .word  _64___Temporal_Tower_1_13
@ 080   ----------------------------------------
        .byte   PATT
         .word  _64___Temporal_Tower_1_14
@ 081   ----------------------------------------
        .byte   PATT
         .word  _64___Temporal_Tower_1_15
@ 082   ----------------------------------------
        .byte   PATT
         .word  _64___Temporal_Tower_1_16
@ 083   ----------------------------------------
        .byte   W96
@ 084   ----------------------------------------
        .byte   W96
@ 085   ----------------------------------------
        .byte   W96
@ 086   ----------------------------------------
        .byte   W96
@ 087   ----------------------------------------
        .byte   W96
@ 088   ----------------------------------------
        .byte   W96
@ 089   ----------------------------------------
        .byte   W96
@ 090   ----------------------------------------
        .byte   W96
@ 091   ----------------------------------------
        .byte   W96
@ 092   ----------------------------------------
        .byte   W96
@ 093   ----------------------------------------
        .byte   W96
@ 094   ----------------------------------------
        .byte   W96
@ 095   ----------------------------------------
        .byte   W96
@ 096   ----------------------------------------
        .byte   W96
@ 097   ----------------------------------------
        .byte   W96
@ 098   ----------------------------------------
        .byte   W96
@ 099   ----------------------------------------
        .byte   PATT
         .word  _64___Temporal_Tower_1_13
@ 100   ----------------------------------------
        .byte   PATT
         .word  _64___Temporal_Tower_1_14
@ 101   ----------------------------------------
        .byte   PATT
         .word  _64___Temporal_Tower_1_15
@ 102   ----------------------------------------
        .byte   PATT
         .word  _64___Temporal_Tower_1_16
@ 103   ----------------------------------------
        .byte   PATT
         .word  _64___Temporal_Tower_1_13
@ 104   ----------------------------------------
        .byte   PATT
         .word  _64___Temporal_Tower_1_14
@ 105   ----------------------------------------
        .byte   PATT
         .word  _64___Temporal_Tower_1_15
@ 106   ----------------------------------------
        .byte   PATT
         .word  _64___Temporal_Tower_1_16
@ 107   ----------------------------------------
        .byte   W96
@ 108   ----------------------------------------
        .byte   W96
@ 109   ----------------------------------------
        .byte   W96
@ 110   ----------------------------------------
        .byte   W96
@ 111   ----------------------------------------
        .byte   W96
@ 112   ----------------------------------------
        .byte   W96
@ 113   ----------------------------------------
        .byte   PATT
         .word  _64___Temporal_Tower_1_13
@ 114   ----------------------------------------
        .byte   PATT
         .word  _64___Temporal_Tower_1_14
@ 115   ----------------------------------------
        .byte   PATT
         .word  _64___Temporal_Tower_1_15
@ 116   ----------------------------------------
        .byte   PATT
         .word  _64___Temporal_Tower_1_16
@ 117   ----------------------------------------
        .byte   PATT
         .word  _64___Temporal_Tower_1_13
@ 118   ----------------------------------------
        .byte   PATT
         .word  _64___Temporal_Tower_1_14
@ 119   ----------------------------------------
        .byte   PATT
         .word  _64___Temporal_Tower_1_15
@ 120   ----------------------------------------
        .byte   PATT
         .word  _64___Temporal_Tower_1_16
@ 121   ----------------------------------------
        .byte   W96
@ 122   ----------------------------------------
        .byte   W96
@ 123   ----------------------------------------
        .byte   W96
@ 124   ----------------------------------------
        .byte   W96
@ 125   ----------------------------------------
        .byte   W96
@ 126   ----------------------------------------
        .byte   W96
@ 127   ----------------------------------------
        .byte   W96
@ 128   ----------------------------------------
        .byte   W96
@ 129   ----------------------------------------
        .byte   W96
@ 130   ----------------------------------------
        .byte   W96
@ 131   ----------------------------------------
        .byte   W96
@ 132   ----------------------------------------
        .byte   W92
        .byte   W03
        .byte   FINE

@****************** Track 2 (Midi-Chn.2) ******************@

_64___Temporal_Tower_2:
        .byte   KEYSH , _64___Temporal_Tower_key+0
@ 000   ----------------------------------------
        .byte   W24
@ 001   ----------------------------------------
        .byte           VOICE , 17
        .byte           VOL   , 103
        .byte   W96
@ 002   ----------------------------------------
        .byte   W96
@ 003   ----------------------------------------
        .byte   W96
@ 004   ----------------------------------------
        .byte   W96
@ 005   ----------------------------------------
_64___Temporal_Tower_2_5:
        .byte   W06
        .byte           N03   , An3 , v095
        .byte   W05
        .byte           PAN   , c_v+20
        .byte   W01
        .byte           N03   , An4
        .byte   W05
        .byte           PAN   , c_v-20
        .byte   W01
        .byte           N03   , Dn4
        .byte   W05
        .byte           PAN   , c_v+20
        .byte   W01
        .byte           N03   , En4
        .byte   W05
        .byte           PAN   , c_v-20
        .byte   W01
        .byte           N03   , An3
        .byte   W05
        .byte           PAN   , c_v+20
        .byte   W01
        .byte           N03   , Dn4
        .byte   W05
        .byte           PAN   , c_v-20
        .byte   W01
        .byte           N03   , Gn3
        .byte   W05
        .byte           PAN   , c_v+20
        .byte   W01
        .byte           N03   , An3
        .byte   W05
        .byte           PAN   , c_v-20
        .byte   W01
        .byte           N03   , An2
        .byte   W05
        .byte           PAN   , c_v+20
        .byte   W01
        .byte           N03   , En3
        .byte   W05
        .byte           PAN   , c_v-20
        .byte   W01
        .byte           N03   , An3
        .byte   W05
        .byte           PAN   , c_v+20
        .byte   W01
        .byte           N03   , Gn3
        .byte   W05
        .byte           PAN   , c_v-20
        .byte   W01
        .byte           N03   , Dn3
        .byte   W05
        .byte           PAN   , c_v+0
        .byte   W01
        .byte           N11   , En3
        .byte   W12
        .byte   PEND
@ 006   ----------------------------------------
_64___Temporal_Tower_2_6:
        .byte   W06
        .byte           N03   , An3 , v095
        .byte   W05
        .byte           PAN   , c_v+20
        .byte   W01
        .byte           N03   , An4
        .byte   W05
        .byte           PAN   , c_v-20
        .byte   W01
        .byte           N03   , Dn4
        .byte   W05
        .byte           PAN   , c_v+20
        .byte   W01
        .byte           N03   , En4
        .byte   W05
        .byte           PAN   , c_v-20
        .byte   W01
        .byte           N03   , An3
        .byte   W05
        .byte           PAN   , c_v+20
        .byte   W01
        .byte           N03   , Dn4
        .byte   W05
        .byte           PAN   , c_v-20
        .byte   W01
        .byte           N03   , Gn3
        .byte   W05
        .byte           PAN   , c_v+20
        .byte   W01
        .byte           N03   , An3
        .byte   W05
        .byte           PAN   , c_v-20
        .byte   W01
        .byte           N03   , An2
        .byte   W05
        .byte           PAN   , c_v+20
        .byte   W01
        .byte           N03   , En3
        .byte   W05
        .byte           PAN   , c_v-20
        .byte   W01
        .byte           N03   , An3
        .byte   W05
        .byte           PAN   , c_v+20
        .byte   W01
        .byte           N03   , Gn3
        .byte   W05
        .byte           PAN   , c_v-20
        .byte   W01
        .byte           N03   , Fs3
        .byte   W05
        .byte           PAN   , c_v+0
        .byte   W01
        .byte           N11   , En3
        .byte   W12
        .byte   PEND
@ 007   ----------------------------------------
        .byte   PATT
         .word  _64___Temporal_Tower_2_5
@ 008   ----------------------------------------
_64___Temporal_Tower_2_8:
        .byte   W06
        .byte           N03   , An3 , v095
        .byte   W05
        .byte           PAN   , c_v+20
        .byte   W01
        .byte           N03   , An4
        .byte   W05
        .byte           PAN   , c_v-20
        .byte   W01
        .byte           N03   , Dn4
        .byte   W05
        .byte           PAN   , c_v+20
        .byte   W01
        .byte           N03   , En4
        .byte   W05
        .byte           PAN   , c_v-20
        .byte   W01
        .byte           N03   , An3
        .byte   W05
        .byte           PAN   , c_v+20
        .byte   W01
        .byte           N03   , Dn4
        .byte   W05
        .byte           PAN   , c_v-20
        .byte   W01
        .byte           N03   , Gn3
        .byte   W05
        .byte           PAN   , c_v+20
        .byte   W01
        .byte           N03   , An3
        .byte   W05
        .byte           PAN   , c_v-20
        .byte   W01
        .byte           N03   , En3
        .byte   W05
        .byte           PAN   , c_v+20
        .byte   W01
        .byte           N03   , Bn3
        .byte   W05
        .byte           PAN   , c_v-20
        .byte   W01
        .byte           N03   , En3
        .byte   W05
        .byte           PAN   , c_v+20
        .byte   W01
        .byte           N03   , Cn4
        .byte   W05
        .byte           PAN   , c_v-20
        .byte   W01
        .byte           N03   , En3
        .byte   W05
        .byte           PAN   , c_v+0
        .byte   W01
        .byte           N11   , Dn4
        .byte   W12
        .byte   PEND
@ 009   ----------------------------------------
        .byte   PATT
         .word  _64___Temporal_Tower_2_5
@ 010   ----------------------------------------
        .byte   PATT
         .word  _64___Temporal_Tower_2_6
@ 011   ----------------------------------------
_64___Temporal_Tower_2_11:
        .byte   W06
        .byte           N03   , An3 , v095
        .byte   W05
        .byte           PAN   , c_v+20
        .byte   W01
        .byte           N03   , An4
        .byte   W05
        .byte           PAN   , c_v-20
        .byte   W01
        .byte           N03   , Dn4
        .byte   W05
        .byte           PAN   , c_v+20
        .byte   W01
        .byte           N03   , En4
        .byte   W05
        .byte           PAN   , c_v-20
        .byte   W01
        .byte           N03   , An3
        .byte   W05
        .byte           PAN   , c_v+20
        .byte   W01
        .byte           N03   , Dn4
        .byte   W05
        .byte           PAN   , c_v-20
        .byte   W01
        .byte           N03   , Gn3
        .byte   W05
        .byte           PAN   , c_v+20
        .byte   W01
        .byte           N03   , An3
        .byte   W05
        .byte           PAN   , c_v-20
        .byte   W01
        .byte           N03   , En3
        .byte   W05
        .byte           PAN   , c_v+20
        .byte   W01
        .byte           N03   , Bn3
        .byte   W05
        .byte           PAN   , c_v-20
        .byte   W01
        .byte           N03   , En3
        .byte   W05
        .byte           PAN   , c_v+20
        .byte   W01
        .byte           N03   , Cn4
        .byte   W05
        .byte           PAN   , c_v-20
        .byte   W01
        .byte           N03   , En3
        .byte   W05
        .byte           PAN   , c_v+20
        .byte   W01
        .byte           N03   , Dn4
        .byte   W05
        .byte           PAN   , c_v-20
        .byte   W01
        .byte           N03   , Bn3
        .byte   W05
        .byte           PAN   , c_v+20
        .byte   W01
        .byte   PEND
@ 012   ----------------------------------------
_64___Temporal_Tower_2_12:
        .byte           N03   , En4 , v095
        .byte   W05
        .byte           PAN   , c_v-20
        .byte   W01
        .byte           N03   , Dn4
        .byte   W05
        .byte           PAN   , c_v+20
        .byte   W01
        .byte           N03   , Gn4
        .byte   W05
        .byte           PAN   , c_v-20
        .byte   W01
        .byte           N03   , En4
        .byte   W05
        .byte           PAN   , c_v+20
        .byte   W01
        .byte           N03   , An4
        .byte   W05
        .byte           PAN   , c_v-20
        .byte   W01
        .byte           N03   , En4
        .byte   W05
        .byte           PAN   , c_v+20
        .byte   W01
        .byte           N03   , Bn4
        .byte   W05
        .byte           PAN   , c_v-20
        .byte   W01
        .byte           N03   , En4
        .byte   W05
        .byte           PAN   , c_v+20
        .byte   W01
        .byte           N03   , Cn5
        .byte   W05
        .byte           PAN   , c_v-20
        .byte   W01
        .byte           N03   , En4
        .byte   W05
        .byte           PAN   , c_v+20
        .byte   W01
        .byte           N03   , Dn5
        .byte   W05
        .byte           PAN   , c_v-20
        .byte   W01
        .byte           N03   , An4
        .byte   W05
        .byte           PAN   , c_v+20
        .byte   W01
        .byte           N03   , En5
        .byte   W05
        .byte           PAN   , c_v-20
        .byte   W01
        .byte           N03   , Bn4
        .byte   W05
        .byte           PAN   , c_v+0
        .byte   W01
        .byte           N11   , Fs5
        .byte   W12
        .byte   PEND
@ 013   ----------------------------------------
        .byte           N92   , En5 , v095 , gtp3
        .byte   W96
@ 014   ----------------------------------------
        .byte   W96
@ 015   ----------------------------------------
        .byte   W96
@ 016   ----------------------------------------
        .byte   W96
@ 017   ----------------------------------------
        .byte   W96
@ 018   ----------------------------------------
        .byte   W96
@ 019   ----------------------------------------
        .byte   W96
@ 020   ----------------------------------------
        .byte   W96
@ 021   ----------------------------------------
        .byte   PATT
         .word  _64___Temporal_Tower_2_5
@ 022   ----------------------------------------
        .byte   PATT
         .word  _64___Temporal_Tower_2_6
@ 023   ----------------------------------------
        .byte   PATT
         .word  _64___Temporal_Tower_2_5
@ 024   ----------------------------------------
        .byte   PATT
         .word  _64___Temporal_Tower_2_8
@ 025   ----------------------------------------
        .byte   PATT
         .word  _64___Temporal_Tower_2_5
@ 026   ----------------------------------------
        .byte   PATT
         .word  _64___Temporal_Tower_2_6
@ 027   ----------------------------------------
        .byte   PATT
         .word  _64___Temporal_Tower_2_11
@ 028   ----------------------------------------
        .byte   PATT
         .word  _64___Temporal_Tower_2_12
@ 029   ----------------------------------------
        .byte   W96
@ 030   ----------------------------------------
_64___Temporal_Tower_2_30:
        .byte   W36
        .byte   W02
        .byte           VOICE , 40
        .byte   W01
        .byte           PAN   , c_v+20
        .byte           VOL   , 74
        .byte   W56
        .byte   W01
        .byte   PEND
@ 031   ----------------------------------------
_64___Temporal_Tower_2_31:
        .byte           N32   , Bn4 , v110 , gtp3
        .byte   W36
        .byte           N03   , An4
        .byte   W06
        .byte                   Gn4 , v100
        .byte   W06
        .byte           N17   , Fs4 , v110
        .byte   W18
        .byte                   Dn4 , v085
        .byte   W18
        .byte           N11   , Fs4 , v110
        .byte   W12
        .byte   PEND
@ 032   ----------------------------------------
_64___Temporal_Tower_2_32:
        .byte           N32   , En4 , v110 , gtp3
        .byte   W48
        .byte           N17
        .byte   W18
        .byte                   Bn4 , v085
        .byte   W18
        .byte           N11   , An4 , v110
        .byte   W12
        .byte   PEND
@ 033   ----------------------------------------
        .byte           N92   , Bn4 , v095 , gtp3
        .byte   W96
@ 034   ----------------------------------------
        .byte   W96
@ 035   ----------------------------------------
        .byte   PATT
         .word  _64___Temporal_Tower_2_31
@ 036   ----------------------------------------
        .byte   PATT
         .word  _64___Temporal_Tower_2_32
@ 037   ----------------------------------------
        .byte           N92   , Bn4 , v095 , gtp3
        .byte   W96
@ 038   ----------------------------------------
        .byte   W96
@ 039   ----------------------------------------
        .byte   W96
@ 040   ----------------------------------------
        .byte   W96
@ 041   ----------------------------------------
        .byte   W96
@ 042   ----------------------------------------
        .byte   W96
@ 043   ----------------------------------------
        .byte   W96
@ 044   ----------------------------------------
_64___Temporal_Tower_2_44:
        .byte   W14
        .byte           VOICE , 17
        .byte   W01
        .byte           VOL   , 99
        .byte           PAN   , c_v+0
        .byte   W80
        .byte   W01
        .byte   PEND
@ 045   ----------------------------------------
        .byte   PATT
         .word  _64___Temporal_Tower_2_5
@ 046   ----------------------------------------
        .byte   PATT
         .word  _64___Temporal_Tower_2_6
@ 047   ----------------------------------------
        .byte   PATT
         .word  _64___Temporal_Tower_2_5
@ 048   ----------------------------------------
        .byte   PATT
         .word  _64___Temporal_Tower_2_8
@ 049   ----------------------------------------
        .byte   PATT
         .word  _64___Temporal_Tower_2_5
@ 050   ----------------------------------------
        .byte   PATT
         .word  _64___Temporal_Tower_2_6
@ 051   ----------------------------------------
        .byte   PATT
         .word  _64___Temporal_Tower_2_11
@ 052   ----------------------------------------
        .byte   PATT
         .word  _64___Temporal_Tower_2_12
@ 053   ----------------------------------------
        .byte   PATT
         .word  _64___Temporal_Tower_2_11
@ 054   ----------------------------------------
        .byte   PATT
         .word  _64___Temporal_Tower_2_12
@ 055   ----------------------------------------
        .byte   PATT
         .word  _64___Temporal_Tower_2_11
@ 056   ----------------------------------------
        .byte   PATT
         .word  _64___Temporal_Tower_2_12
@ 057   ----------------------------------------
        .byte   PATT
         .word  _64___Temporal_Tower_2_11
@ 058   ----------------------------------------
        .byte   PATT
         .word  _64___Temporal_Tower_2_12
@ 059   ----------------------------------------
        .byte   PATT
         .word  _64___Temporal_Tower_2_5
@ 060   ----------------------------------------
        .byte   PATT
         .word  _64___Temporal_Tower_2_6
@ 061   ----------------------------------------
        .byte   PATT
         .word  _64___Temporal_Tower_2_5
@ 062   ----------------------------------------
        .byte   PATT
         .word  _64___Temporal_Tower_2_8
@ 063   ----------------------------------------
        .byte   PATT
         .word  _64___Temporal_Tower_2_5
@ 064   ----------------------------------------
        .byte   PATT
         .word  _64___Temporal_Tower_2_6
@ 065   ----------------------------------------
        .byte   PATT
         .word  _64___Temporal_Tower_2_5
@ 066   ----------------------------------------
        .byte   PATT
         .word  _64___Temporal_Tower_2_8
@ 067   ----------------------------------------
        .byte   PATT
         .word  _64___Temporal_Tower_2_5
@ 068   ----------------------------------------
        .byte   PATT
         .word  _64___Temporal_Tower_2_6
@ 069   ----------------------------------------
        .byte   PATT
         .word  _64___Temporal_Tower_2_5
@ 070   ----------------------------------------
        .byte   PATT
         .word  _64___Temporal_Tower_2_8
@ 071   ----------------------------------------
        .byte   PATT
         .word  _64___Temporal_Tower_2_5
@ 072   ----------------------------------------
        .byte   PATT
         .word  _64___Temporal_Tower_2_6
@ 073   ----------------------------------------
        .byte   PATT
         .word  _64___Temporal_Tower_2_11
@ 074   ----------------------------------------
        .byte   PATT
         .word  _64___Temporal_Tower_2_12
@ 075   ----------------------------------------
        .byte           N92   , En5 , v095 , gtp3
        .byte   W96
@ 076   ----------------------------------------
        .byte   W96
@ 077   ----------------------------------------
        .byte   W96
@ 078   ----------------------------------------
        .byte   W96
@ 079   ----------------------------------------
        .byte   W96
@ 080   ----------------------------------------
        .byte   W96
@ 081   ----------------------------------------
        .byte   W96
@ 082   ----------------------------------------
        .byte   W96
@ 083   ----------------------------------------
        .byte   PATT
         .word  _64___Temporal_Tower_2_5
@ 084   ----------------------------------------
        .byte   PATT
         .word  _64___Temporal_Tower_2_6
@ 085   ----------------------------------------
        .byte   PATT
         .word  _64___Temporal_Tower_2_5
@ 086   ----------------------------------------
        .byte   PATT
         .word  _64___Temporal_Tower_2_8
@ 087   ----------------------------------------
        .byte   PATT
         .word  _64___Temporal_Tower_2_5
@ 088   ----------------------------------------
        .byte   PATT
         .word  _64___Temporal_Tower_2_6
@ 089   ----------------------------------------
        .byte   PATT
         .word  _64___Temporal_Tower_2_11
@ 090   ----------------------------------------
        .byte   PATT
         .word  _64___Temporal_Tower_2_12
@ 091   ----------------------------------------
        .byte   W96
@ 092   ----------------------------------------
        .byte   PATT
         .word  _64___Temporal_Tower_2_30
@ 093   ----------------------------------------
        .byte   PATT
         .word  _64___Temporal_Tower_2_31
@ 094   ----------------------------------------
        .byte   PATT
         .word  _64___Temporal_Tower_2_32
@ 095   ----------------------------------------
        .byte           N92   , Bn4 , v095 , gtp3
        .byte   W96
@ 096   ----------------------------------------
        .byte   W96
@ 097   ----------------------------------------
        .byte   PATT
         .word  _64___Temporal_Tower_2_31
@ 098   ----------------------------------------
        .byte   PATT
         .word  _64___Temporal_Tower_2_32
@ 099   ----------------------------------------
        .byte           N92   , Bn4 , v095 , gtp3
        .byte   W96
@ 100   ----------------------------------------
        .byte   W96
@ 101   ----------------------------------------
        .byte   W96
@ 102   ----------------------------------------
        .byte   W96
@ 103   ----------------------------------------
        .byte   W96
@ 104   ----------------------------------------
        .byte   W96
@ 105   ----------------------------------------
        .byte   W96
@ 106   ----------------------------------------
        .byte   PATT
         .word  _64___Temporal_Tower_2_44
@ 107   ----------------------------------------
        .byte   PATT
         .word  _64___Temporal_Tower_2_5
@ 108   ----------------------------------------
        .byte   PATT
         .word  _64___Temporal_Tower_2_6
@ 109   ----------------------------------------
        .byte   PATT
         .word  _64___Temporal_Tower_2_5
@ 110   ----------------------------------------
        .byte   PATT
         .word  _64___Temporal_Tower_2_8
@ 111   ----------------------------------------
        .byte   PATT
         .word  _64___Temporal_Tower_2_5
@ 112   ----------------------------------------
        .byte   PATT
         .word  _64___Temporal_Tower_2_6
@ 113   ----------------------------------------
        .byte   PATT
         .word  _64___Temporal_Tower_2_11
@ 114   ----------------------------------------
        .byte   PATT
         .word  _64___Temporal_Tower_2_12
@ 115   ----------------------------------------
        .byte   PATT
         .word  _64___Temporal_Tower_2_11
@ 116   ----------------------------------------
        .byte   PATT
         .word  _64___Temporal_Tower_2_12
@ 117   ----------------------------------------
        .byte   PATT
         .word  _64___Temporal_Tower_2_11
@ 118   ----------------------------------------
        .byte   PATT
         .word  _64___Temporal_Tower_2_12
@ 119   ----------------------------------------
        .byte   PATT
         .word  _64___Temporal_Tower_2_11
@ 120   ----------------------------------------
        .byte   PATT
         .word  _64___Temporal_Tower_2_12
@ 121   ----------------------------------------
        .byte   PATT
         .word  _64___Temporal_Tower_2_5
@ 122   ----------------------------------------
        .byte   PATT
         .word  _64___Temporal_Tower_2_6
@ 123   ----------------------------------------
        .byte   PATT
         .word  _64___Temporal_Tower_2_5
@ 124   ----------------------------------------
        .byte   PATT
         .word  _64___Temporal_Tower_2_8
@ 125   ----------------------------------------
        .byte   PATT
         .word  _64___Temporal_Tower_2_5
@ 126   ----------------------------------------
        .byte   PATT
         .word  _64___Temporal_Tower_2_6
@ 127   ----------------------------------------
        .byte   PATT
         .word  _64___Temporal_Tower_2_5
@ 128   ----------------------------------------
        .byte   PATT
         .word  _64___Temporal_Tower_2_8
@ 129   ----------------------------------------
        .byte   PATT
         .word  _64___Temporal_Tower_2_5
@ 130   ----------------------------------------
        .byte   PATT
         .word  _64___Temporal_Tower_2_6
@ 131   ----------------------------------------
        .byte   PATT
         .word  _64___Temporal_Tower_2_5
@ 132   ----------------------------------------
        .byte   W06
        .byte           N03   , An3 , v095
        .byte   W05
        .byte           PAN   , c_v+20
        .byte   W01
        .byte           N03   , An4
        .byte   W05
        .byte           PAN   , c_v-20
        .byte   W01
        .byte           N03   , Dn4
        .byte   W05
        .byte           PAN   , c_v+20
        .byte   W01
        .byte           N03   , En4
        .byte   W05
        .byte           PAN   , c_v-20
        .byte   W01
        .byte           N03   , An3
        .byte   W05
        .byte           PAN   , c_v+20
        .byte   W01
        .byte           N03   , Dn4
        .byte   W05
        .byte           PAN   , c_v-20
        .byte   W01
        .byte           N03   , Gn3
        .byte   W05
        .byte           PAN   , c_v+20
        .byte   W01
        .byte           N03   , An3
        .byte   W05
        .byte           PAN   , c_v-20
        .byte   W01
        .byte           N03   , En3
        .byte   W05
        .byte           PAN   , c_v+20
        .byte   W01
        .byte           N03   , Bn3
        .byte   W05
        .byte           PAN   , c_v-20
        .byte   W01
        .byte           N03   , En3
        .byte   W05
        .byte           PAN   , c_v+20
        .byte   W01
        .byte           N03   , Cn4
        .byte   W05
        .byte           PAN   , c_v-20
        .byte   W01
        .byte           N03   , En3
        .byte   W05
        .byte           PAN   , c_v+0
        .byte   W01
        .byte           N11   , Dn4
        .byte   W11
        .byte   FINE

@****************** Track 3 (Midi-Chn.3) ******************@

_64___Temporal_Tower_3:
        .byte   KEYSH , _64___Temporal_Tower_key+0
@ 000   ----------------------------------------
        .byte   W24
@ 001   ----------------------------------------
        .byte           VOICE , 48
        .byte           VOL   , 105
        .byte           TIE   , An0 , v100
        .byte           TIE   , An1 , v080
        .byte   W96
@ 002   ----------------------------------------
        .byte   W96
@ 003   ----------------------------------------
        .byte   W96
@ 004   ----------------------------------------
_64___Temporal_Tower_3_4:
        .byte   W92
        .byte   W03
        .byte           EOT   , An0
        .byte                   An1
        .byte   W01
        .byte   PEND
@ 005   ----------------------------------------
_64___Temporal_Tower_3_5:
        .byte           N92   , An3 , v065 , gtp3
        .byte           TIE   , An0 , v100
        .byte           TIE   , An1 , v080
        .byte   W96
        .byte   PEND
@ 006   ----------------------------------------
        .byte           N92   , Bn3 , v065 , gtp3
        .byte   W96
@ 007   ----------------------------------------
        .byte                   Cn4
        .byte   W96
@ 008   ----------------------------------------
_64___Temporal_Tower_3_8:
        .byte           N92   , Dn4 , v065 , gtp3
        .byte   W92
        .byte   W03
        .byte           EOT   , An0
        .byte                   An1
        .byte   W01
        .byte   PEND
@ 009   ----------------------------------------
        .byte   PATT
         .word  _64___Temporal_Tower_3_5
@ 010   ----------------------------------------
        .byte           N92   , Bn3 , v065 , gtp3
        .byte   W96
@ 011   ----------------------------------------
        .byte                   Cn4
        .byte   W96
@ 012   ----------------------------------------
        .byte   PATT
         .word  _64___Temporal_Tower_3_8
@ 013   ----------------------------------------
_64___Temporal_Tower_3_13:
        .byte           N92   , An0 , v100 , gtp3
        .byte                   An1 , v080
        .byte   W96
        .byte   PEND
@ 014   ----------------------------------------
_64___Temporal_Tower_3_14:
        .byte           N92   , Bn0 , v100 , gtp3
        .byte                   An1 , v080
        .byte   W96
        .byte   PEND
@ 015   ----------------------------------------
_64___Temporal_Tower_3_15:
        .byte           N92   , Cn1 , v100 , gtp3
        .byte                   Cn2 , v080
        .byte   W96
        .byte   PEND
@ 016   ----------------------------------------
_64___Temporal_Tower_3_16:
        .byte           N92   , Dn1 , v100 , gtp3
        .byte                   Bn1 , v080
        .byte   W96
        .byte   PEND
@ 017   ----------------------------------------
        .byte   PATT
         .word  _64___Temporal_Tower_3_13
@ 018   ----------------------------------------
        .byte   PATT
         .word  _64___Temporal_Tower_3_14
@ 019   ----------------------------------------
        .byte   PATT
         .word  _64___Temporal_Tower_3_15
@ 020   ----------------------------------------
        .byte   PATT
         .word  _64___Temporal_Tower_3_16
@ 021   ----------------------------------------
_64___Temporal_Tower_3_21:
        .byte           TIE   , An0 , v100
        .byte           TIE   , An1 , v080
        .byte           TIE   , En2
        .byte   W96
        .byte   PEND
@ 022   ----------------------------------------
_64___Temporal_Tower_3_22:
        .byte   W92
        .byte   W03
        .byte           EOT   , An0
        .byte                   An1
        .byte                   En2
        .byte   W01
        .byte   PEND
@ 023   ----------------------------------------
        .byte   PATT
         .word  _64___Temporal_Tower_3_21
@ 024   ----------------------------------------
        .byte   PATT
         .word  _64___Temporal_Tower_3_22
@ 025   ----------------------------------------
        .byte   PATT
         .word  _64___Temporal_Tower_3_21
@ 026   ----------------------------------------
        .byte   PATT
         .word  _64___Temporal_Tower_3_22
@ 027   ----------------------------------------
        .byte   PATT
         .word  _64___Temporal_Tower_3_21
@ 028   ----------------------------------------
        .byte   PATT
         .word  _64___Temporal_Tower_3_22
@ 029   ----------------------------------------
        .byte   PATT
         .word  _64___Temporal_Tower_3_15
@ 030   ----------------------------------------
_64___Temporal_Tower_3_30:
        .byte           N92   , Dn1 , v100 , gtp3
        .byte                   Dn2 , v080
        .byte   W96
        .byte   PEND
@ 031   ----------------------------------------
_64___Temporal_Tower_3_31:
        .byte           N92   , En1 , v100 , gtp3
        .byte                   En2 , v080
        .byte   W96
        .byte   PEND
@ 032   ----------------------------------------
        .byte   PATT
         .word  _64___Temporal_Tower_3_30
@ 033   ----------------------------------------
        .byte   PATT
         .word  _64___Temporal_Tower_3_15
@ 034   ----------------------------------------
        .byte   PATT
         .word  _64___Temporal_Tower_3_30
@ 035   ----------------------------------------
        .byte   PATT
         .word  _64___Temporal_Tower_3_31
@ 036   ----------------------------------------
        .byte   PATT
         .word  _64___Temporal_Tower_3_30
@ 037   ----------------------------------------
_64___Temporal_Tower_3_37:
        .byte           N92   , An0 , v100 , gtp3
        .byte                   An1 , v080
        .byte           TIE   , En4 , v065
        .byte   W96
        .byte   PEND
@ 038   ----------------------------------------
        .byte   PATT
         .word  _64___Temporal_Tower_3_14
@ 039   ----------------------------------------
        .byte   PATT
         .word  _64___Temporal_Tower_3_15
@ 040   ----------------------------------------
_64___Temporal_Tower_3_40:
        .byte           N92   , Dn1 , v100 , gtp3
        .byte                   Bn1 , v080
        .byte   W44
        .byte   W03
        .byte           EOT   , En4
        .byte   W24
        .byte   W01
        .byte           N23   , Dn4 , v065
        .byte   W24
        .byte   PEND
@ 041   ----------------------------------------
        .byte   PATT
         .word  _64___Temporal_Tower_3_37
@ 042   ----------------------------------------
        .byte   PATT
         .word  _64___Temporal_Tower_3_14
@ 043   ----------------------------------------
        .byte   PATT
         .word  _64___Temporal_Tower_3_15
@ 044   ----------------------------------------
        .byte   PATT
         .word  _64___Temporal_Tower_3_40
@ 045   ----------------------------------------
        .byte   PATT
         .word  _64___Temporal_Tower_3_21
@ 046   ----------------------------------------
        .byte   PATT
         .word  _64___Temporal_Tower_3_22
@ 047   ----------------------------------------
        .byte   PATT
         .word  _64___Temporal_Tower_3_21
@ 048   ----------------------------------------
        .byte   PATT
         .word  _64___Temporal_Tower_3_22
@ 049   ----------------------------------------
        .byte   PATT
         .word  _64___Temporal_Tower_3_21
@ 050   ----------------------------------------
        .byte   PATT
         .word  _64___Temporal_Tower_3_22
@ 051   ----------------------------------------
_64___Temporal_Tower_3_51:
        .byte           TIE   , Fn0 , v100
        .byte           TIE   , Fn1 , v080
        .byte           TIE   , Cn2
        .byte   W96
        .byte   PEND
@ 052   ----------------------------------------
_64___Temporal_Tower_3_52:
        .byte   W92
        .byte   W03
        .byte           EOT   , Fn0
        .byte                   Fn1
        .byte                   Cn2
        .byte   W01
        .byte   PEND
@ 053   ----------------------------------------
_64___Temporal_Tower_3_53:
        .byte           TIE   , Gn0 , v100
        .byte           TIE   , Gn1 , v080
        .byte           TIE   , Dn2
        .byte   W96
        .byte   PEND
@ 054   ----------------------------------------
_64___Temporal_Tower_3_54:
        .byte   W92
        .byte   W03
        .byte           EOT   , Gn0
        .byte                   Gn1
        .byte                   Dn2
        .byte   W01
        .byte   PEND
@ 055   ----------------------------------------
        .byte   PATT
         .word  _64___Temporal_Tower_3_51
@ 056   ----------------------------------------
        .byte   PATT
         .word  _64___Temporal_Tower_3_52
@ 057   ----------------------------------------
        .byte   PATT
         .word  _64___Temporal_Tower_3_53
@ 058   ----------------------------------------
        .byte   PATT
         .word  _64___Temporal_Tower_3_54
@ 059   ----------------------------------------
_64___Temporal_Tower_3_59:
        .byte           TIE   , An0 , v100
        .byte           TIE   , An1 , v080
        .byte   W96
        .byte   PEND
@ 060   ----------------------------------------
        .byte   W96
@ 061   ----------------------------------------
        .byte   W96
@ 062   ----------------------------------------
        .byte   PATT
         .word  _64___Temporal_Tower_3_4
@ 063   ----------------------------------------
        .byte   PATT
         .word  _64___Temporal_Tower_3_59
@ 064   ----------------------------------------
        .byte   W96
@ 065   ----------------------------------------
        .byte   W96
@ 066   ----------------------------------------
        .byte   PATT
         .word  _64___Temporal_Tower_3_4
@ 067   ----------------------------------------
        .byte   PATT
         .word  _64___Temporal_Tower_3_5
@ 068   ----------------------------------------
        .byte           N92   , Bn3 , v065 , gtp3
        .byte   W96
@ 069   ----------------------------------------
        .byte                   Cn4
        .byte   W96
@ 070   ----------------------------------------
        .byte   PATT
         .word  _64___Temporal_Tower_3_8
@ 071   ----------------------------------------
        .byte   PATT
         .word  _64___Temporal_Tower_3_5
@ 072   ----------------------------------------
        .byte           N92   , Bn3 , v065 , gtp3
        .byte   W96
@ 073   ----------------------------------------
        .byte                   Cn4
        .byte   W96
@ 074   ----------------------------------------
        .byte   PATT
         .word  _64___Temporal_Tower_3_8
@ 075   ----------------------------------------
        .byte   PATT
         .word  _64___Temporal_Tower_3_13
@ 076   ----------------------------------------
        .byte   PATT
         .word  _64___Temporal_Tower_3_14
@ 077   ----------------------------------------
        .byte   PATT
         .word  _64___Temporal_Tower_3_15
@ 078   ----------------------------------------
        .byte   PATT
         .word  _64___Temporal_Tower_3_16
@ 079   ----------------------------------------
        .byte   PATT
         .word  _64___Temporal_Tower_3_13
@ 080   ----------------------------------------
        .byte   PATT
         .word  _64___Temporal_Tower_3_14
@ 081   ----------------------------------------
        .byte   PATT
         .word  _64___Temporal_Tower_3_15
@ 082   ----------------------------------------
        .byte   PATT
         .word  _64___Temporal_Tower_3_16
@ 083   ----------------------------------------
        .byte   PATT
         .word  _64___Temporal_Tower_3_21
@ 084   ----------------------------------------
        .byte   PATT
         .word  _64___Temporal_Tower_3_22
@ 085   ----------------------------------------
        .byte   PATT
         .word  _64___Temporal_Tower_3_21
@ 086   ----------------------------------------
        .byte   PATT
         .word  _64___Temporal_Tower_3_22
@ 087   ----------------------------------------
        .byte   PATT
         .word  _64___Temporal_Tower_3_21
@ 088   ----------------------------------------
        .byte   PATT
         .word  _64___Temporal_Tower_3_22
@ 089   ----------------------------------------
        .byte   PATT
         .word  _64___Temporal_Tower_3_21
@ 090   ----------------------------------------
        .byte   PATT
         .word  _64___Temporal_Tower_3_22
@ 091   ----------------------------------------
        .byte   PATT
         .word  _64___Temporal_Tower_3_15
@ 092   ----------------------------------------
        .byte   PATT
         .word  _64___Temporal_Tower_3_30
@ 093   ----------------------------------------
        .byte   PATT
         .word  _64___Temporal_Tower_3_31
@ 094   ----------------------------------------
        .byte   PATT
         .word  _64___Temporal_Tower_3_30
@ 095   ----------------------------------------
        .byte   PATT
         .word  _64___Temporal_Tower_3_15
@ 096   ----------------------------------------
        .byte   PATT
         .word  _64___Temporal_Tower_3_30
@ 097   ----------------------------------------
        .byte   PATT
         .word  _64___Temporal_Tower_3_31
@ 098   ----------------------------------------
        .byte   PATT
         .word  _64___Temporal_Tower_3_30
@ 099   ----------------------------------------
        .byte   PATT
         .word  _64___Temporal_Tower_3_37
@ 100   ----------------------------------------
        .byte   PATT
         .word  _64___Temporal_Tower_3_14
@ 101   ----------------------------------------
        .byte   PATT
         .word  _64___Temporal_Tower_3_15
@ 102   ----------------------------------------
        .byte   PATT
         .word  _64___Temporal_Tower_3_40
@ 103   ----------------------------------------
        .byte   PATT
         .word  _64___Temporal_Tower_3_37
@ 104   ----------------------------------------
        .byte   PATT
         .word  _64___Temporal_Tower_3_14
@ 105   ----------------------------------------
        .byte   PATT
         .word  _64___Temporal_Tower_3_15
@ 106   ----------------------------------------
        .byte   PATT
         .word  _64___Temporal_Tower_3_40
@ 107   ----------------------------------------
        .byte   PATT
         .word  _64___Temporal_Tower_3_21
@ 108   ----------------------------------------
        .byte   PATT
         .word  _64___Temporal_Tower_3_22
@ 109   ----------------------------------------
        .byte   PATT
         .word  _64___Temporal_Tower_3_21
@ 110   ----------------------------------------
        .byte   PATT
         .word  _64___Temporal_Tower_3_22
@ 111   ----------------------------------------
        .byte   PATT
         .word  _64___Temporal_Tower_3_21
@ 112   ----------------------------------------
        .byte   PATT
         .word  _64___Temporal_Tower_3_22
@ 113   ----------------------------------------
        .byte   PATT
         .word  _64___Temporal_Tower_3_51
@ 114   ----------------------------------------
        .byte   PATT
         .word  _64___Temporal_Tower_3_52
@ 115   ----------------------------------------
        .byte   PATT
         .word  _64___Temporal_Tower_3_53
@ 116   ----------------------------------------
        .byte   PATT
         .word  _64___Temporal_Tower_3_54
@ 117   ----------------------------------------
        .byte   PATT
         .word  _64___Temporal_Tower_3_51
@ 118   ----------------------------------------
        .byte   PATT
         .word  _64___Temporal_Tower_3_52
@ 119   ----------------------------------------
        .byte   PATT
         .word  _64___Temporal_Tower_3_53
@ 120   ----------------------------------------
        .byte   PATT
         .word  _64___Temporal_Tower_3_54
@ 121   ----------------------------------------
        .byte   PATT
         .word  _64___Temporal_Tower_3_59
@ 122   ----------------------------------------
        .byte   W96
@ 123   ----------------------------------------
        .byte   W96
@ 124   ----------------------------------------
        .byte   PATT
         .word  _64___Temporal_Tower_3_4
@ 125   ----------------------------------------
        .byte   PATT
         .word  _64___Temporal_Tower_3_59
@ 126   ----------------------------------------
        .byte   W96
@ 127   ----------------------------------------
        .byte   W96
@ 128   ----------------------------------------
        .byte   PATT
         .word  _64___Temporal_Tower_3_4
@ 129   ----------------------------------------
        .byte   PATT
         .word  _64___Temporal_Tower_3_5
@ 130   ----------------------------------------
        .byte           N92   , Bn3 , v065 , gtp3
        .byte   W96
@ 131   ----------------------------------------
        .byte                   Cn4
        .byte   W96
@ 132   ----------------------------------------
        .byte                   Dn4
        .byte   W92
        .byte   W03
        .byte           EOT   , An0
        .byte                   An1
        .byte   FINE

@****************** Track 4 (Midi-Chn.4) ******************@

_64___Temporal_Tower_4:
        .byte   KEYSH , _64___Temporal_Tower_key+0
@ 000   ----------------------------------------
        .byte   W24
@ 001   ----------------------------------------
        .byte           VOICE , 48
        .byte           VOL   , 83
        .byte           PAN   , c_v-30
        .byte   W96
@ 002   ----------------------------------------
        .byte   W96
@ 003   ----------------------------------------
        .byte   W96
@ 004   ----------------------------------------
        .byte   W96
@ 005   ----------------------------------------
_64___Temporal_Tower_4_5:
        .byte           N92   , An2 , v080 , gtp3
        .byte                   En3
        .byte   W96
        .byte   PEND
@ 006   ----------------------------------------
_64___Temporal_Tower_4_6:
        .byte           N92   , Bn2 , v080 , gtp3
        .byte                   Gn3
        .byte   W96
        .byte   PEND
@ 007   ----------------------------------------
_64___Temporal_Tower_4_7:
        .byte           N92   , Cn3 , v080 , gtp3
        .byte                   Gn3
        .byte   W96
        .byte   PEND
@ 008   ----------------------------------------
        .byte   PATT
         .word  _64___Temporal_Tower_4_6
@ 009   ----------------------------------------
        .byte   PATT
         .word  _64___Temporal_Tower_4_5
@ 010   ----------------------------------------
        .byte   PATT
         .word  _64___Temporal_Tower_4_6
@ 011   ----------------------------------------
        .byte   PATT
         .word  _64___Temporal_Tower_4_7
@ 012   ----------------------------------------
        .byte   PATT
         .word  _64___Temporal_Tower_4_6
@ 013   ----------------------------------------
_64___Temporal_Tower_4_13:
        .byte           N68   , Gn2 , v095 , gtp3
        .byte                   En3
        .byte   W72
        .byte           N23   , Dn3
        .byte           N23   , Gn3
        .byte   W24
        .byte   PEND
@ 014   ----------------------------------------
_64___Temporal_Tower_4_14:
        .byte           N68   , Dn3 , v095 , gtp3
        .byte                   Fs3
        .byte   W72
        .byte           N23   , Dn3
        .byte           N23   , An3
        .byte   W24
        .byte   PEND
@ 015   ----------------------------------------
_64___Temporal_Tower_4_15:
        .byte           N68   , Cn3 , v095 , gtp3
        .byte                   Gn3
        .byte   W72
        .byte           N23   , En3
        .byte           N23   , Bn3
        .byte   W24
        .byte   PEND
@ 016   ----------------------------------------
_64___Temporal_Tower_4_16:
        .byte           N44   , Dn3 , v095 , gtp3
        .byte                   An3
        .byte   W48
        .byte                   Fs3
        .byte           N44   , Dn4 , v095 , gtp3
        .byte   W48
        .byte   PEND
@ 017   ----------------------------------------
        .byte   PATT
         .word  _64___Temporal_Tower_4_13
@ 018   ----------------------------------------
        .byte   PATT
         .word  _64___Temporal_Tower_4_14
@ 019   ----------------------------------------
        .byte   PATT
         .word  _64___Temporal_Tower_4_15
@ 020   ----------------------------------------
        .byte   PATT
         .word  _64___Temporal_Tower_4_16
@ 021   ----------------------------------------
_64___Temporal_Tower_4_21:
        .byte           TIE   , Dn3 , v085
        .byte           TIE   , Gn3
        .byte   W96
        .byte   PEND
@ 022   ----------------------------------------
_64___Temporal_Tower_4_22:
        .byte   W44
        .byte   W03
        .byte           EOT   , Dn3
        .byte                   Gn3
        .byte   W24
        .byte   W01
        .byte           N14   , Bn2 , v100
        .byte           N14   , Fs3
        .byte   W24
        .byte   PEND
@ 023   ----------------------------------------
        .byte   PATT
         .word  _64___Temporal_Tower_4_21
@ 024   ----------------------------------------
        .byte   PATT
         .word  _64___Temporal_Tower_4_22
@ 025   ----------------------------------------
        .byte   PATT
         .word  _64___Temporal_Tower_4_21
@ 026   ----------------------------------------
        .byte   PATT
         .word  _64___Temporal_Tower_4_22
@ 027   ----------------------------------------
        .byte   PATT
         .word  _64___Temporal_Tower_4_21
@ 028   ----------------------------------------
        .byte   PATT
         .word  _64___Temporal_Tower_4_22
@ 029   ----------------------------------------
_64___Temporal_Tower_4_29:
        .byte           N44   , Bn2 , v095 , gtp3
        .byte                   Gn3
        .byte   W48
        .byte                   Bn2
        .byte           N44   , Gn3 , v095 , gtp3
        .byte   W48
        .byte   PEND
@ 030   ----------------------------------------
_64___Temporal_Tower_4_30:
        .byte           N44   , Bn2 , v095 , gtp3
        .byte                   Fs3
        .byte   W48
        .byte                   An2
        .byte           N44   , An3 , v095 , gtp3
        .byte   W48
        .byte   PEND
@ 031   ----------------------------------------
_64___Temporal_Tower_4_31:
        .byte           N44   , Bn2 , v095 , gtp3
        .byte                   Gn3
        .byte   W48
        .byte                   An2
        .byte           N44   , Dn4 , v095 , gtp3
        .byte   W48
        .byte   PEND
@ 032   ----------------------------------------
_64___Temporal_Tower_4_32:
        .byte           N44   , Bn2 , v095 , gtp3
        .byte                   An3
        .byte   W48
        .byte                   Bn2
        .byte           N44   , Fs3 , v095 , gtp3
        .byte   W48
        .byte   PEND
@ 033   ----------------------------------------
        .byte   PATT
         .word  _64___Temporal_Tower_4_29
@ 034   ----------------------------------------
        .byte   PATT
         .word  _64___Temporal_Tower_4_30
@ 035   ----------------------------------------
_64___Temporal_Tower_4_35:
        .byte           N44   , An2 , v095 , gtp3
        .byte                   Gn3
        .byte   W48
        .byte                   An2
        .byte           N44   , Dn4 , v095 , gtp3
        .byte   W48
        .byte   PEND
@ 036   ----------------------------------------
        .byte   PATT
         .word  _64___Temporal_Tower_4_32
@ 037   ----------------------------------------
        .byte   PATT
         .word  _64___Temporal_Tower_4_13
@ 038   ----------------------------------------
        .byte   PATT
         .word  _64___Temporal_Tower_4_14
@ 039   ----------------------------------------
        .byte   PATT
         .word  _64___Temporal_Tower_4_15
@ 040   ----------------------------------------
        .byte   PATT
         .word  _64___Temporal_Tower_4_16
@ 041   ----------------------------------------
        .byte   PATT
         .word  _64___Temporal_Tower_4_13
@ 042   ----------------------------------------
        .byte   PATT
         .word  _64___Temporal_Tower_4_14
@ 043   ----------------------------------------
        .byte   PATT
         .word  _64___Temporal_Tower_4_15
@ 044   ----------------------------------------
        .byte   PATT
         .word  _64___Temporal_Tower_4_16
@ 045   ----------------------------------------
_64___Temporal_Tower_4_45:
        .byte           TIE   , Dn3 , v090
        .byte           TIE   , Gn3
        .byte   W96
        .byte   PEND
@ 046   ----------------------------------------
_64___Temporal_Tower_4_46:
        .byte   W44
        .byte   W03
        .byte           EOT   , Dn3
        .byte                   Gn3
        .byte   W24
        .byte   W01
        .byte           N14   , Bn2 , v105
        .byte           N14   , Fs3
        .byte   W24
        .byte   PEND
@ 047   ----------------------------------------
        .byte   PATT
         .word  _64___Temporal_Tower_4_45
@ 048   ----------------------------------------
        .byte   PATT
         .word  _64___Temporal_Tower_4_46
@ 049   ----------------------------------------
        .byte   PATT
         .word  _64___Temporal_Tower_4_45
@ 050   ----------------------------------------
        .byte   PATT
         .word  _64___Temporal_Tower_4_46
@ 051   ----------------------------------------
        .byte           TIE   , Cn3 , v090
        .byte   W96
@ 052   ----------------------------------------
        .byte   W92
        .byte   W03
        .byte           EOT
        .byte   W01
@ 053   ----------------------------------------
        .byte           TIE   , An2
        .byte   W96
@ 054   ----------------------------------------
        .byte   W92
        .byte   W03
        .byte           EOT
        .byte   W01
@ 055   ----------------------------------------
        .byte           TIE   , Cn3
        .byte   W96
@ 056   ----------------------------------------
        .byte   W92
        .byte   W03
        .byte           EOT
        .byte   W01
@ 057   ----------------------------------------
        .byte           TIE   , An2
        .byte   W96
@ 058   ----------------------------------------
        .byte   W92
        .byte   W03
        .byte           EOT
        .byte   W01
@ 059   ----------------------------------------
_64___Temporal_Tower_4_59:
        .byte           VOL   , 80
        .byte           TIE   , Cn3 , v090
        .byte   W12
        .byte           VOL   , 79
        .byte   W09
        .byte                   78
        .byte   W03
        .byte                   77
        .byte   W06
        .byte                   76
        .byte   W09
        .byte                   75
        .byte   W09
        .byte                   74
        .byte   W04
        .byte                   73
        .byte   W05
        .byte                   72
        .byte   W10
        .byte                   71
        .byte   W09
        .byte                   70
        .byte   W05
        .byte                   69
        .byte   W09
        .byte                   68
        .byte   W04
        .byte                   67
        .byte   W02
        .byte   PEND
@ 060   ----------------------------------------
_64___Temporal_Tower_4_60:
        .byte   W01
        .byte           VOL   , 66
        .byte   W02
        .byte                   65
        .byte   W04
        .byte                   64
        .byte   W05
        .byte                   63
        .byte   W01
        .byte                   62
        .byte   W02
        .byte                   61
        .byte   W04
        .byte                   60
        .byte   W05
        .byte                   59
        .byte   W03
        .byte                   57
        .byte   W04
        .byte                   56
        .byte   W05
        .byte                   55
        .byte   W01
        .byte                   54
        .byte   W03
        .byte                   53
        .byte   W02
        .byte                   52
        .byte   W03
        .byte                   50
        .byte   W03
        .byte                   49
        .byte   W01
        .byte                   48
        .byte   W03
        .byte                   46
        .byte   W02
        .byte                   45
        .byte   W03
        .byte                   44
        .byte   W01
        .byte                   43
        .byte   W03
        .byte                   40
        .byte   W02
        .byte                   39
        .byte   W01
        .byte                   37
        .byte   W02
        .byte                   35
        .byte   W01
        .byte                   33
        .byte   W03
        .byte                   30
        .byte   W02
        .byte                   29
        .byte   W01
        .byte                   27
        .byte   W02
        .byte                   26
        .byte   W03
        .byte                   22
        .byte   W01
        .byte                   20
        .byte   W02
        .byte                   19
        .byte   W01
        .byte                   17
        .byte   W02
        .byte                   16
        .byte   W03
        .byte                   13
        .byte   W01
        .byte                   11
        .byte   W02
        .byte                   9
        .byte   W01
        .byte                   7
        .byte   W04
        .byte           EOT   , Cn3
        .byte   W01
        .byte   PEND
@ 061   ----------------------------------------
        .byte   W92
        .byte   W03
        .byte           VOL   , 83
        .byte   W01
@ 062   ----------------------------------------
        .byte   W96
@ 063   ----------------------------------------
        .byte   W96
@ 064   ----------------------------------------
        .byte   W96
@ 065   ----------------------------------------
        .byte   W96
@ 066   ----------------------------------------
        .byte   W96
@ 067   ----------------------------------------
        .byte   PATT
         .word  _64___Temporal_Tower_4_5
@ 068   ----------------------------------------
        .byte   PATT
         .word  _64___Temporal_Tower_4_6
@ 069   ----------------------------------------
        .byte   PATT
         .word  _64___Temporal_Tower_4_7
@ 070   ----------------------------------------
        .byte   PATT
         .word  _64___Temporal_Tower_4_6
@ 071   ----------------------------------------
        .byte   PATT
         .word  _64___Temporal_Tower_4_5
@ 072   ----------------------------------------
        .byte   PATT
         .word  _64___Temporal_Tower_4_6
@ 073   ----------------------------------------
        .byte   PATT
         .word  _64___Temporal_Tower_4_7
@ 074   ----------------------------------------
        .byte   PATT
         .word  _64___Temporal_Tower_4_6
@ 075   ----------------------------------------
        .byte   PATT
         .word  _64___Temporal_Tower_4_13
@ 076   ----------------------------------------
        .byte   PATT
         .word  _64___Temporal_Tower_4_14
@ 077   ----------------------------------------
        .byte   PATT
         .word  _64___Temporal_Tower_4_15
@ 078   ----------------------------------------
        .byte   PATT
         .word  _64___Temporal_Tower_4_16
@ 079   ----------------------------------------
        .byte   PATT
         .word  _64___Temporal_Tower_4_13
@ 080   ----------------------------------------
        .byte   PATT
         .word  _64___Temporal_Tower_4_14
@ 081   ----------------------------------------
        .byte   PATT
         .word  _64___Temporal_Tower_4_15
@ 082   ----------------------------------------
        .byte   PATT
         .word  _64___Temporal_Tower_4_16
@ 083   ----------------------------------------
        .byte   PATT
         .word  _64___Temporal_Tower_4_21
@ 084   ----------------------------------------
        .byte   PATT
         .word  _64___Temporal_Tower_4_22
@ 085   ----------------------------------------
        .byte   PATT
         .word  _64___Temporal_Tower_4_21
@ 086   ----------------------------------------
        .byte   PATT
         .word  _64___Temporal_Tower_4_22
@ 087   ----------------------------------------
        .byte   PATT
         .word  _64___Temporal_Tower_4_21
@ 088   ----------------------------------------
        .byte   PATT
         .word  _64___Temporal_Tower_4_22
@ 089   ----------------------------------------
        .byte   PATT
         .word  _64___Temporal_Tower_4_21
@ 090   ----------------------------------------
        .byte   PATT
         .word  _64___Temporal_Tower_4_22
@ 091   ----------------------------------------
        .byte   PATT
         .word  _64___Temporal_Tower_4_29
@ 092   ----------------------------------------
        .byte   PATT
         .word  _64___Temporal_Tower_4_30
@ 093   ----------------------------------------
        .byte   PATT
         .word  _64___Temporal_Tower_4_31
@ 094   ----------------------------------------
        .byte   PATT
         .word  _64___Temporal_Tower_4_32
@ 095   ----------------------------------------
        .byte   PATT
         .word  _64___Temporal_Tower_4_29
@ 096   ----------------------------------------
        .byte   PATT
         .word  _64___Temporal_Tower_4_30
@ 097   ----------------------------------------
        .byte   PATT
         .word  _64___Temporal_Tower_4_35
@ 098   ----------------------------------------
        .byte   PATT
         .word  _64___Temporal_Tower_4_32
@ 099   ----------------------------------------
        .byte   PATT
         .word  _64___Temporal_Tower_4_13
@ 100   ----------------------------------------
        .byte   PATT
         .word  _64___Temporal_Tower_4_14
@ 101   ----------------------------------------
        .byte   PATT
         .word  _64___Temporal_Tower_4_15
@ 102   ----------------------------------------
        .byte   PATT
         .word  _64___Temporal_Tower_4_16
@ 103   ----------------------------------------
        .byte   PATT
         .word  _64___Temporal_Tower_4_13
@ 104   ----------------------------------------
        .byte   PATT
         .word  _64___Temporal_Tower_4_14
@ 105   ----------------------------------------
        .byte   PATT
         .word  _64___Temporal_Tower_4_15
@ 106   ----------------------------------------
        .byte   PATT
         .word  _64___Temporal_Tower_4_16
@ 107   ----------------------------------------
        .byte   PATT
         .word  _64___Temporal_Tower_4_45
@ 108   ----------------------------------------
        .byte   PATT
         .word  _64___Temporal_Tower_4_46
@ 109   ----------------------------------------
        .byte   PATT
         .word  _64___Temporal_Tower_4_45
@ 110   ----------------------------------------
        .byte   PATT
         .word  _64___Temporal_Tower_4_46
@ 111   ----------------------------------------
        .byte   PATT
         .word  _64___Temporal_Tower_4_45
@ 112   ----------------------------------------
        .byte   PATT
         .word  _64___Temporal_Tower_4_46
@ 113   ----------------------------------------
        .byte           TIE   , Cn3 , v090
        .byte   W96
@ 114   ----------------------------------------
        .byte   W92
        .byte   W03
        .byte           EOT
        .byte   W01
@ 115   ----------------------------------------
        .byte           TIE   , An2
        .byte   W96
@ 116   ----------------------------------------
        .byte   W92
        .byte   W03
        .byte           EOT
        .byte   W01
@ 117   ----------------------------------------
        .byte           TIE   , Cn3
        .byte   W96
@ 118   ----------------------------------------
        .byte   W92
        .byte   W03
        .byte           EOT
        .byte   W01
@ 119   ----------------------------------------
        .byte           TIE   , An2
        .byte   W96
@ 120   ----------------------------------------
        .byte   W92
        .byte   W03
        .byte           EOT
        .byte   W01
@ 121   ----------------------------------------
        .byte   PATT
         .word  _64___Temporal_Tower_4_59
@ 122   ----------------------------------------
        .byte   PATT
         .word  _64___Temporal_Tower_4_60
@ 123   ----------------------------------------
        .byte   W92
        .byte   W03
        .byte           VOL   , 83
        .byte   W01
@ 124   ----------------------------------------
        .byte   W96
@ 125   ----------------------------------------
        .byte   W96
@ 126   ----------------------------------------
        .byte   W96
@ 127   ----------------------------------------
        .byte   W96
@ 128   ----------------------------------------
        .byte   W96
@ 129   ----------------------------------------
        .byte   PATT
         .word  _64___Temporal_Tower_4_5
@ 130   ----------------------------------------
        .byte   PATT
         .word  _64___Temporal_Tower_4_6
@ 131   ----------------------------------------
        .byte   PATT
         .word  _64___Temporal_Tower_4_7
@ 132   ----------------------------------------
        .byte           N92   , Bn2 , v080 , gtp3
        .byte                   Gn3
        .byte   W92
        .byte   W03
        .byte   FINE

@****************** Track 5 (Midi-Chn.5) ******************@

_64___Temporal_Tower_5:
        .byte   KEYSH , _64___Temporal_Tower_key+0
@ 000   ----------------------------------------
        .byte   W24
@ 001   ----------------------------------------
        .byte           VOICE , 48
        .byte           VOL   , 83
        .byte           PAN   , c_v+30
        .byte   W96
@ 002   ----------------------------------------
        .byte   W96
@ 003   ----------------------------------------
        .byte   W96
@ 004   ----------------------------------------
        .byte   W96
@ 005   ----------------------------------------
_64___Temporal_Tower_5_5:
        .byte           N92   , En2 , v080 , gtp3
        .byte                   Dn3
        .byte   W96
        .byte   PEND
@ 006   ----------------------------------------
        .byte   PATT
         .word  _64___Temporal_Tower_5_5
@ 007   ----------------------------------------
_64___Temporal_Tower_5_7:
        .byte           N92   , Fn2 , v080 , gtp3
        .byte                   En3
        .byte   W96
        .byte   PEND
@ 008   ----------------------------------------
_64___Temporal_Tower_5_8:
        .byte           N92   , Gn2 , v080 , gtp3
        .byte                   En3
        .byte   W96
        .byte   PEND
@ 009   ----------------------------------------
        .byte   PATT
         .word  _64___Temporal_Tower_5_5
@ 010   ----------------------------------------
        .byte   PATT
         .word  _64___Temporal_Tower_5_5
@ 011   ----------------------------------------
        .byte   PATT
         .word  _64___Temporal_Tower_5_7
@ 012   ----------------------------------------
        .byte   PATT
         .word  _64___Temporal_Tower_5_8
@ 013   ----------------------------------------
_64___Temporal_Tower_5_13:
        .byte           N68   , En2 , v095 , gtp3
        .byte                   Bn2
        .byte   W72
        .byte           N23   , An2
        .byte           N23   , En3
        .byte   W24
        .byte   PEND
@ 014   ----------------------------------------
_64___Temporal_Tower_5_14:
        .byte           N68   , An2 , v095 , gtp3
        .byte                   En3
        .byte   W72
        .byte           N23   , Bn2
        .byte           N23   , Fs3
        .byte   W24
        .byte   PEND
@ 015   ----------------------------------------
_64___Temporal_Tower_5_15:
        .byte           N68   , Gn2 , v095 , gtp3
        .byte                   Dn3
        .byte   W72
        .byte           N23   , Cn3
        .byte           N23   , Gn3
        .byte   W24
        .byte   PEND
@ 016   ----------------------------------------
_64___Temporal_Tower_5_16:
        .byte           N44   , Bn2 , v095 , gtp3
        .byte                   Fs3
        .byte   W48
        .byte                   Dn3
        .byte           N44   , An3 , v095 , gtp3
        .byte   W48
        .byte   PEND
@ 017   ----------------------------------------
        .byte   PATT
         .word  _64___Temporal_Tower_5_13
@ 018   ----------------------------------------
        .byte   PATT
         .word  _64___Temporal_Tower_5_14
@ 019   ----------------------------------------
        .byte   PATT
         .word  _64___Temporal_Tower_5_15
@ 020   ----------------------------------------
        .byte   PATT
         .word  _64___Temporal_Tower_5_16
@ 021   ----------------------------------------
_64___Temporal_Tower_5_21:
        .byte           TIE   , En3 , v085
        .byte           TIE   , Bn3
        .byte   W96
        .byte   PEND
@ 022   ----------------------------------------
_64___Temporal_Tower_5_22:
        .byte   W44
        .byte   W03
        .byte           EOT   , En3
        .byte                   Bn3
        .byte   W24
        .byte   W01
        .byte           N14   , Dn3 , v100
        .byte           N14   , An3
        .byte   W24
        .byte   PEND
@ 023   ----------------------------------------
        .byte   PATT
         .word  _64___Temporal_Tower_5_21
@ 024   ----------------------------------------
        .byte   PATT
         .word  _64___Temporal_Tower_5_22
@ 025   ----------------------------------------
        .byte   PATT
         .word  _64___Temporal_Tower_5_21
@ 026   ----------------------------------------
        .byte   PATT
         .word  _64___Temporal_Tower_5_22
@ 027   ----------------------------------------
        .byte   PATT
         .word  _64___Temporal_Tower_5_21
@ 028   ----------------------------------------
        .byte   PATT
         .word  _64___Temporal_Tower_5_22
@ 029   ----------------------------------------
_64___Temporal_Tower_5_29:
        .byte           N44   , En3 , v095 , gtp3
        .byte                   Bn3
        .byte   W48
        .byte                   En3
        .byte           N44   , Bn3 , v095 , gtp3
        .byte   W48
        .byte   PEND
@ 030   ----------------------------------------
_64___Temporal_Tower_5_30:
        .byte           N44   , Dn3 , v095 , gtp3
        .byte                   An3
        .byte   W48
        .byte                   En3
        .byte           N44   , Dn4 , v095 , gtp3
        .byte   W48
        .byte   PEND
@ 031   ----------------------------------------
_64___Temporal_Tower_5_31:
        .byte           N44   , En3 , v095 , gtp3
        .byte                   Bn3
        .byte   W48
        .byte                   En3
        .byte           N44   , Gn4 , v095 , gtp3
        .byte   W48
        .byte   PEND
@ 032   ----------------------------------------
_64___Temporal_Tower_5_32:
        .byte           N44   , Dn3 , v095 , gtp3
        .byte                   Fs4
        .byte   W48
        .byte                   Dn3
        .byte           N44   , Dn4 , v095 , gtp3
        .byte   W48
        .byte   PEND
@ 033   ----------------------------------------
        .byte   PATT
         .word  _64___Temporal_Tower_5_29
@ 034   ----------------------------------------
        .byte   PATT
         .word  _64___Temporal_Tower_5_30
@ 035   ----------------------------------------
_64___Temporal_Tower_5_35:
        .byte           N44   , Dn3 , v095 , gtp3
        .byte                   Bn3
        .byte   W48
        .byte                   En3
        .byte           N44   , Gn4 , v095 , gtp3
        .byte   W48
        .byte   PEND
@ 036   ----------------------------------------
        .byte   PATT
         .word  _64___Temporal_Tower_5_32
@ 037   ----------------------------------------
        .byte   PATT
         .word  _64___Temporal_Tower_5_13
@ 038   ----------------------------------------
        .byte   PATT
         .word  _64___Temporal_Tower_5_14
@ 039   ----------------------------------------
        .byte   PATT
         .word  _64___Temporal_Tower_5_15
@ 040   ----------------------------------------
        .byte   PATT
         .word  _64___Temporal_Tower_5_16
@ 041   ----------------------------------------
        .byte   PATT
         .word  _64___Temporal_Tower_5_13
@ 042   ----------------------------------------
        .byte   PATT
         .word  _64___Temporal_Tower_5_14
@ 043   ----------------------------------------
        .byte   PATT
         .word  _64___Temporal_Tower_5_15
@ 044   ----------------------------------------
        .byte   PATT
         .word  _64___Temporal_Tower_5_16
@ 045   ----------------------------------------
_64___Temporal_Tower_5_45:
        .byte           TIE   , En3 , v090
        .byte           TIE   , Bn3
        .byte   W96
        .byte   PEND
@ 046   ----------------------------------------
_64___Temporal_Tower_5_46:
        .byte   W44
        .byte   W03
        .byte           EOT   , En3
        .byte                   Bn3
        .byte   W24
        .byte   W01
        .byte           N14   , Dn3 , v105
        .byte           N14   , An3
        .byte   W24
        .byte   PEND
@ 047   ----------------------------------------
        .byte   PATT
         .word  _64___Temporal_Tower_5_45
@ 048   ----------------------------------------
        .byte   PATT
         .word  _64___Temporal_Tower_5_46
@ 049   ----------------------------------------
        .byte   PATT
         .word  _64___Temporal_Tower_5_45
@ 050   ----------------------------------------
        .byte   PATT
         .word  _64___Temporal_Tower_5_46
@ 051   ----------------------------------------
        .byte           TIE   , En3 , v090
        .byte   W96
@ 052   ----------------------------------------
        .byte   W92
        .byte   W03
        .byte           EOT
        .byte   W01
@ 053   ----------------------------------------
        .byte           TIE   , Dn3
        .byte   W96
@ 054   ----------------------------------------
        .byte   W92
        .byte   W03
        .byte           EOT
        .byte   W01
@ 055   ----------------------------------------
        .byte           TIE   , En3
        .byte   W96
@ 056   ----------------------------------------
        .byte   W92
        .byte   W03
        .byte           EOT
        .byte   W01
@ 057   ----------------------------------------
        .byte           TIE   , Dn3
        .byte   W96
@ 058   ----------------------------------------
        .byte   W92
        .byte   W03
        .byte           EOT
        .byte   W01
@ 059   ----------------------------------------
_64___Temporal_Tower_5_59:
        .byte           VOL   , 80
        .byte           TIE   , An3 , v090
        .byte   W12
        .byte           VOL   , 79
        .byte   W09
        .byte                   78
        .byte   W03
        .byte                   77
        .byte   W06
        .byte                   76
        .byte   W09
        .byte                   75
        .byte   W09
        .byte                   74
        .byte   W04
        .byte                   73
        .byte   W05
        .byte                   72
        .byte   W10
        .byte                   71
        .byte   W09
        .byte                   70
        .byte   W05
        .byte                   69
        .byte   W09
        .byte                   68
        .byte   W04
        .byte                   67
        .byte   W02
        .byte   PEND
@ 060   ----------------------------------------
_64___Temporal_Tower_5_60:
        .byte   W01
        .byte           VOL   , 66
        .byte   W02
        .byte                   65
        .byte   W04
        .byte                   64
        .byte   W05
        .byte                   63
        .byte   W01
        .byte                   62
        .byte   W02
        .byte                   61
        .byte   W04
        .byte                   60
        .byte   W05
        .byte                   59
        .byte   W03
        .byte                   57
        .byte   W04
        .byte                   56
        .byte   W05
        .byte                   55
        .byte   W01
        .byte                   54
        .byte   W03
        .byte                   53
        .byte   W02
        .byte                   52
        .byte   W03
        .byte                   50
        .byte   W03
        .byte                   49
        .byte   W01
        .byte                   48
        .byte   W03
        .byte                   46
        .byte   W02
        .byte                   45
        .byte   W03
        .byte                   44
        .byte   W01
        .byte                   43
        .byte   W03
        .byte                   40
        .byte   W02
        .byte                   39
        .byte   W01
        .byte                   37
        .byte   W02
        .byte                   35
        .byte   W01
        .byte                   33
        .byte   W03
        .byte                   30
        .byte   W02
        .byte                   29
        .byte   W01
        .byte                   27
        .byte   W02
        .byte                   26
        .byte   W03
        .byte                   22
        .byte   W01
        .byte                   20
        .byte   W02
        .byte                   19
        .byte   W01
        .byte                   17
        .byte   W02
        .byte                   16
        .byte   W03
        .byte                   13
        .byte   W01
        .byte                   11
        .byte   W02
        .byte                   9
        .byte   W01
        .byte                   7
        .byte   W04
        .byte           EOT   , An3
        .byte   W01
        .byte   PEND
@ 061   ----------------------------------------
        .byte   W92
        .byte   W03
        .byte           VOL   , 83
        .byte   W01
@ 062   ----------------------------------------
        .byte   W96
@ 063   ----------------------------------------
        .byte   W96
@ 064   ----------------------------------------
        .byte   W96
@ 065   ----------------------------------------
        .byte   W96
@ 066   ----------------------------------------
        .byte   W96
@ 067   ----------------------------------------
        .byte   PATT
         .word  _64___Temporal_Tower_5_5
@ 068   ----------------------------------------
        .byte   PATT
         .word  _64___Temporal_Tower_5_5
@ 069   ----------------------------------------
        .byte   PATT
         .word  _64___Temporal_Tower_5_7
@ 070   ----------------------------------------
        .byte   PATT
         .word  _64___Temporal_Tower_5_8
@ 071   ----------------------------------------
        .byte   PATT
         .word  _64___Temporal_Tower_5_5
@ 072   ----------------------------------------
        .byte   PATT
         .word  _64___Temporal_Tower_5_5
@ 073   ----------------------------------------
        .byte   PATT
         .word  _64___Temporal_Tower_5_7
@ 074   ----------------------------------------
        .byte   PATT
         .word  _64___Temporal_Tower_5_8
@ 075   ----------------------------------------
        .byte   PATT
         .word  _64___Temporal_Tower_5_13
@ 076   ----------------------------------------
        .byte   PATT
         .word  _64___Temporal_Tower_5_14
@ 077   ----------------------------------------
        .byte   PATT
         .word  _64___Temporal_Tower_5_15
@ 078   ----------------------------------------
        .byte   PATT
         .word  _64___Temporal_Tower_5_16
@ 079   ----------------------------------------
        .byte   PATT
         .word  _64___Temporal_Tower_5_13
@ 080   ----------------------------------------
        .byte   PATT
         .word  _64___Temporal_Tower_5_14
@ 081   ----------------------------------------
        .byte   PATT
         .word  _64___Temporal_Tower_5_15
@ 082   ----------------------------------------
        .byte   PATT
         .word  _64___Temporal_Tower_5_16
@ 083   ----------------------------------------
        .byte   PATT
         .word  _64___Temporal_Tower_5_21
@ 084   ----------------------------------------
        .byte   PATT
         .word  _64___Temporal_Tower_5_22
@ 085   ----------------------------------------
        .byte   PATT
         .word  _64___Temporal_Tower_5_21
@ 086   ----------------------------------------
        .byte   PATT
         .word  _64___Temporal_Tower_5_22
@ 087   ----------------------------------------
        .byte   PATT
         .word  _64___Temporal_Tower_5_21
@ 088   ----------------------------------------
        .byte   PATT
         .word  _64___Temporal_Tower_5_22
@ 089   ----------------------------------------
        .byte   PATT
         .word  _64___Temporal_Tower_5_21
@ 090   ----------------------------------------
        .byte   PATT
         .word  _64___Temporal_Tower_5_22
@ 091   ----------------------------------------
        .byte   PATT
         .word  _64___Temporal_Tower_5_29
@ 092   ----------------------------------------
        .byte   PATT
         .word  _64___Temporal_Tower_5_30
@ 093   ----------------------------------------
        .byte   PATT
         .word  _64___Temporal_Tower_5_31
@ 094   ----------------------------------------
        .byte   PATT
         .word  _64___Temporal_Tower_5_32
@ 095   ----------------------------------------
        .byte   PATT
         .word  _64___Temporal_Tower_5_29
@ 096   ----------------------------------------
        .byte   PATT
         .word  _64___Temporal_Tower_5_30
@ 097   ----------------------------------------
        .byte   PATT
         .word  _64___Temporal_Tower_5_35
@ 098   ----------------------------------------
        .byte   PATT
         .word  _64___Temporal_Tower_5_32
@ 099   ----------------------------------------
        .byte   PATT
         .word  _64___Temporal_Tower_5_13
@ 100   ----------------------------------------
        .byte   PATT
         .word  _64___Temporal_Tower_5_14
@ 101   ----------------------------------------
        .byte   PATT
         .word  _64___Temporal_Tower_5_15
@ 102   ----------------------------------------
        .byte   PATT
         .word  _64___Temporal_Tower_5_16
@ 103   ----------------------------------------
        .byte   PATT
         .word  _64___Temporal_Tower_5_13
@ 104   ----------------------------------------
        .byte   PATT
         .word  _64___Temporal_Tower_5_14
@ 105   ----------------------------------------
        .byte   PATT
         .word  _64___Temporal_Tower_5_15
@ 106   ----------------------------------------
        .byte   PATT
         .word  _64___Temporal_Tower_5_16
@ 107   ----------------------------------------
        .byte   PATT
         .word  _64___Temporal_Tower_5_45
@ 108   ----------------------------------------
        .byte   PATT
         .word  _64___Temporal_Tower_5_46
@ 109   ----------------------------------------
        .byte   PATT
         .word  _64___Temporal_Tower_5_45
@ 110   ----------------------------------------
        .byte   PATT
         .word  _64___Temporal_Tower_5_46
@ 111   ----------------------------------------
        .byte   PATT
         .word  _64___Temporal_Tower_5_45
@ 112   ----------------------------------------
        .byte   PATT
         .word  _64___Temporal_Tower_5_46
@ 113   ----------------------------------------
        .byte           TIE   , En3 , v090
        .byte   W96
@ 114   ----------------------------------------
        .byte   W92
        .byte   W03
        .byte           EOT
        .byte   W01
@ 115   ----------------------------------------
        .byte           TIE   , Dn3
        .byte   W96
@ 116   ----------------------------------------
        .byte   W92
        .byte   W03
        .byte           EOT
        .byte   W01
@ 117   ----------------------------------------
        .byte           TIE   , En3
        .byte   W96
@ 118   ----------------------------------------
        .byte   W92
        .byte   W03
        .byte           EOT
        .byte   W01
@ 119   ----------------------------------------
        .byte           TIE   , Dn3
        .byte   W96
@ 120   ----------------------------------------
        .byte   W92
        .byte   W03
        .byte           EOT
        .byte   W01
@ 121   ----------------------------------------
        .byte   PATT
         .word  _64___Temporal_Tower_5_59
@ 122   ----------------------------------------
        .byte   PATT
         .word  _64___Temporal_Tower_5_60
@ 123   ----------------------------------------
        .byte   W92
        .byte   W03
        .byte           VOL   , 83
        .byte   W01
@ 124   ----------------------------------------
        .byte   W96
@ 125   ----------------------------------------
        .byte   W96
@ 126   ----------------------------------------
        .byte   W96
@ 127   ----------------------------------------
        .byte   W96
@ 128   ----------------------------------------
        .byte   W96
@ 129   ----------------------------------------
        .byte   PATT
         .word  _64___Temporal_Tower_5_5
@ 130   ----------------------------------------
        .byte   PATT
         .word  _64___Temporal_Tower_5_5
@ 131   ----------------------------------------
        .byte   PATT
         .word  _64___Temporal_Tower_5_7
@ 132   ----------------------------------------
        .byte           N92   , Gn2 , v080 , gtp3
        .byte                   En3
        .byte   W92
        .byte   W03
        .byte   FINE

@****************** Track 6 (Midi-Chn.6) ******************@

_64___Temporal_Tower_6:
        .byte   KEYSH , _64___Temporal_Tower_key+0
@ 000   ----------------------------------------
        .byte   W24
@ 001   ----------------------------------------
        .byte           VOICE , 40
        .byte           VOL   , 62
        .byte   W96
@ 002   ----------------------------------------
        .byte   W96
@ 003   ----------------------------------------
        .byte   W96
@ 004   ----------------------------------------
_64___Temporal_Tower_6_4:
        .byte   W36
        .byte   W02
        .byte           VOICE , 52
        .byte   W01
        .byte           VOL   , 99
        .byte           PAN   , c_v-10
        .byte   W56
        .byte   W01
        .byte   PEND
@ 005   ----------------------------------------
        .byte           N92   , An3 , v070 , gtp3
        .byte   W96
@ 006   ----------------------------------------
        .byte                   Bn3
        .byte   W96
@ 007   ----------------------------------------
        .byte                   Cn4
        .byte   W96
@ 008   ----------------------------------------
        .byte                   Dn4
        .byte   W96
@ 009   ----------------------------------------
        .byte                   An3
        .byte   W96
@ 010   ----------------------------------------
        .byte                   Bn3
        .byte   W96
@ 011   ----------------------------------------
        .byte                   Cn4
        .byte   W96
@ 012   ----------------------------------------
        .byte                   Dn4
        .byte   W96
@ 013   ----------------------------------------
        .byte   W96
@ 014   ----------------------------------------
        .byte   W96
@ 015   ----------------------------------------
        .byte   W96
@ 016   ----------------------------------------
        .byte   W96
@ 017   ----------------------------------------
        .byte   W96
@ 018   ----------------------------------------
        .byte   W96
@ 019   ----------------------------------------
        .byte   W96
@ 020   ----------------------------------------
        .byte   W96
@ 021   ----------------------------------------
        .byte   W96
@ 022   ----------------------------------------
        .byte   W96
@ 023   ----------------------------------------
        .byte   W96
@ 024   ----------------------------------------
        .byte   W96
@ 025   ----------------------------------------
        .byte   W96
@ 026   ----------------------------------------
        .byte   W96
@ 027   ----------------------------------------
        .byte   W96
@ 028   ----------------------------------------
        .byte   W96
@ 029   ----------------------------------------
        .byte   W96
@ 030   ----------------------------------------
        .byte   W96
@ 031   ----------------------------------------
        .byte   W96
@ 032   ----------------------------------------
        .byte   W96
@ 033   ----------------------------------------
        .byte   W96
@ 034   ----------------------------------------
        .byte   W96
@ 035   ----------------------------------------
        .byte   W96
@ 036   ----------------------------------------
        .byte   W96
@ 037   ----------------------------------------
        .byte   W96
@ 038   ----------------------------------------
        .byte   W96
@ 039   ----------------------------------------
        .byte   W96
@ 040   ----------------------------------------
        .byte   W96
@ 041   ----------------------------------------
        .byte   W96
@ 042   ----------------------------------------
        .byte   W96
@ 043   ----------------------------------------
_64___Temporal_Tower_6_43:
        .byte   W32
        .byte           VOICE , 40
        .byte   W01
        .byte           PAN   , c_v+0
        .byte           VOL   , 103
        .byte   W60
        .byte   W03
        .byte   PEND
@ 044   ----------------------------------------
_64___Temporal_Tower_6_44:
        .byte   W72
        .byte           N02   , En3 , v100
        .byte   W06
        .byte                   Fs3
        .byte   W06
        .byte                   Gn3
        .byte   W06
        .byte                   An3
        .byte   W06
        .byte   PEND
@ 045   ----------------------------------------
_64___Temporal_Tower_6_45:
        .byte           N32   , Bn3 , v110 , gtp3
        .byte   W36
        .byte           N03   , An3 , v100
        .byte   W06
        .byte                   Gn3
        .byte   W06
        .byte           N17   , Fs3 , v110
        .byte   W18
        .byte                   Dn3 , v070
        .byte   W18
        .byte           N11   , Fs3 , v095
        .byte   W12
        .byte   PEND
@ 046   ----------------------------------------
_64___Temporal_Tower_6_46:
        .byte           N17   , En3 , v110
        .byte   W18
        .byte                   Bn2 , v070
        .byte   W18
        .byte           N11   , An2 , v095
        .byte   W12
        .byte                   Bn2
        .byte   W24
        .byte           N02   , En3 , v100
        .byte   W06
        .byte                   Fs3
        .byte   W06
        .byte                   Gn3
        .byte   W06
        .byte                   An3
        .byte   W06
        .byte   PEND
@ 047   ----------------------------------------
        .byte   PATT
         .word  _64___Temporal_Tower_6_45
@ 048   ----------------------------------------
_64___Temporal_Tower_6_48:
        .byte           N17   , En3 , v110
        .byte   W18
        .byte                   Bn3 , v070
        .byte   W18
        .byte           N11   , An3 , v095
        .byte   W12
        .byte                   Bn3
        .byte   W24
        .byte           N02   , En3 , v100
        .byte   W06
        .byte                   Fs3
        .byte   W06
        .byte                   Gn3
        .byte   W06
        .byte                   An3
        .byte   W06
        .byte   PEND
@ 049   ----------------------------------------
        .byte   PATT
         .word  _64___Temporal_Tower_6_45
@ 050   ----------------------------------------
_64___Temporal_Tower_6_50:
        .byte           N17   , En3 , v110
        .byte   W18
        .byte                   Bn2 , v070
        .byte   W18
        .byte           N11   , An2 , v095
        .byte   W12
        .byte           N17   , Bn2 , v110
        .byte   W18
        .byte                   An2 , v070
        .byte   W18
        .byte           N11   , Gn2 , v095
        .byte   W12
        .byte   PEND
@ 051   ----------------------------------------
        .byte           TIE   , En2 , v110
        .byte   W96
@ 052   ----------------------------------------
        .byte   W92
        .byte   W03
        .byte           EOT
        .byte   W01
@ 053   ----------------------------------------
        .byte   W96
@ 054   ----------------------------------------
_64___Temporal_Tower_6_54:
        .byte           N32   , En2 , v110 , gtp3
        .byte   W36
        .byte           N11   , Gn2 , v105
        .byte   W12
        .byte           N17   , Fs2 , v110
        .byte   W18
        .byte                   En2 , v085
        .byte   W18
        .byte           N11   , Dn2 , v095
        .byte   W12
        .byte   PEND
@ 055   ----------------------------------------
        .byte           TIE   , En2 , v110
        .byte   W96
@ 056   ----------------------------------------
        .byte   W92
        .byte   W03
        .byte           EOT
        .byte   W01
@ 057   ----------------------------------------
        .byte   W96
@ 058   ----------------------------------------
        .byte   PATT
         .word  _64___Temporal_Tower_6_54
@ 059   ----------------------------------------
        .byte           TIE   , En2 , v110
        .byte   W96
@ 060   ----------------------------------------
        .byte   W92
        .byte   W03
        .byte           EOT
        .byte   W01
@ 061   ----------------------------------------
        .byte   W96
@ 062   ----------------------------------------
        .byte   W96
@ 063   ----------------------------------------
        .byte   W96
@ 064   ----------------------------------------
        .byte   W96
@ 065   ----------------------------------------
        .byte   W96
@ 066   ----------------------------------------
        .byte   PATT
         .word  _64___Temporal_Tower_6_4
@ 067   ----------------------------------------
        .byte           N92   , An3 , v070 , gtp3
        .byte   W96
@ 068   ----------------------------------------
        .byte                   Bn3
        .byte   W96
@ 069   ----------------------------------------
        .byte                   Cn4
        .byte   W96
@ 070   ----------------------------------------
        .byte                   Dn4
        .byte   W96
@ 071   ----------------------------------------
        .byte                   An3
        .byte   W96
@ 072   ----------------------------------------
        .byte                   Bn3
        .byte   W96
@ 073   ----------------------------------------
        .byte                   Cn4
        .byte   W96
@ 074   ----------------------------------------
        .byte                   Dn4
        .byte   W96
@ 075   ----------------------------------------
        .byte   W96
@ 076   ----------------------------------------
        .byte   W96
@ 077   ----------------------------------------
        .byte   W96
@ 078   ----------------------------------------
        .byte   W96
@ 079   ----------------------------------------
        .byte   W96
@ 080   ----------------------------------------
        .byte   W96
@ 081   ----------------------------------------
        .byte   W96
@ 082   ----------------------------------------
        .byte   W96
@ 083   ----------------------------------------
        .byte   W96
@ 084   ----------------------------------------
        .byte   W96
@ 085   ----------------------------------------
        .byte   W96
@ 086   ----------------------------------------
        .byte   W96
@ 087   ----------------------------------------
        .byte   W96
@ 088   ----------------------------------------
        .byte   W96
@ 089   ----------------------------------------
        .byte   W96
@ 090   ----------------------------------------
        .byte   W96
@ 091   ----------------------------------------
        .byte   W96
@ 092   ----------------------------------------
        .byte   W96
@ 093   ----------------------------------------
        .byte   W96
@ 094   ----------------------------------------
        .byte   W96
@ 095   ----------------------------------------
        .byte   W96
@ 096   ----------------------------------------
        .byte   W96
@ 097   ----------------------------------------
        .byte   W96
@ 098   ----------------------------------------
        .byte   W96
@ 099   ----------------------------------------
        .byte   W96
@ 100   ----------------------------------------
        .byte   W96
@ 101   ----------------------------------------
        .byte   W96
@ 102   ----------------------------------------
        .byte   W96
@ 103   ----------------------------------------
        .byte   W96
@ 104   ----------------------------------------
        .byte   W96
@ 105   ----------------------------------------
        .byte   PATT
         .word  _64___Temporal_Tower_6_43
@ 106   ----------------------------------------
        .byte   PATT
         .word  _64___Temporal_Tower_6_44
@ 107   ----------------------------------------
        .byte   PATT
         .word  _64___Temporal_Tower_6_45
@ 108   ----------------------------------------
        .byte   PATT
         .word  _64___Temporal_Tower_6_46
@ 109   ----------------------------------------
        .byte   PATT
         .word  _64___Temporal_Tower_6_45
@ 110   ----------------------------------------
        .byte   PATT
         .word  _64___Temporal_Tower_6_48
@ 111   ----------------------------------------
        .byte   PATT
         .word  _64___Temporal_Tower_6_45
@ 112   ----------------------------------------
        .byte   PATT
         .word  _64___Temporal_Tower_6_50
@ 113   ----------------------------------------
        .byte           TIE   , En2 , v110
        .byte   W96
@ 114   ----------------------------------------
        .byte   W92
        .byte   W03
        .byte           EOT
        .byte   W01
@ 115   ----------------------------------------
        .byte   W96
@ 116   ----------------------------------------
        .byte   PATT
         .word  _64___Temporal_Tower_6_54
@ 117   ----------------------------------------
        .byte           TIE   , En2 , v110
        .byte   W96
@ 118   ----------------------------------------
        .byte   W92
        .byte   W03
        .byte           EOT
        .byte   W01
@ 119   ----------------------------------------
        .byte   W96
@ 120   ----------------------------------------
        .byte   PATT
         .word  _64___Temporal_Tower_6_54
@ 121   ----------------------------------------
        .byte           TIE   , En2 , v110
        .byte   W96
@ 122   ----------------------------------------
        .byte   W92
        .byte   W03
        .byte           EOT
        .byte   W01
@ 123   ----------------------------------------
        .byte   W96
@ 124   ----------------------------------------
        .byte   W96
@ 125   ----------------------------------------
        .byte   W96
@ 126   ----------------------------------------
        .byte   W96
@ 127   ----------------------------------------
        .byte   W96
@ 128   ----------------------------------------
        .byte   PATT
         .word  _64___Temporal_Tower_6_4
@ 129   ----------------------------------------
        .byte           N92   , An3 , v070 , gtp3
        .byte   W96
@ 130   ----------------------------------------
        .byte                   Bn3
        .byte   W96
@ 131   ----------------------------------------
        .byte                   Cn4
        .byte   W96
@ 132   ----------------------------------------
        .byte                   Dn4
        .byte   W92
        .byte   W03
        .byte   FINE

@****************** Track 7 (Midi-Chn.7) ******************@

_64___Temporal_Tower_7:
        .byte   KEYSH , _64___Temporal_Tower_key+0
@ 000   ----------------------------------------
        .byte   W24
@ 001   ----------------------------------------
        .byte           VOICE , 0
        .byte           VOL   , 83
        .byte   W96
@ 002   ----------------------------------------
        .byte   W96
@ 003   ----------------------------------------
        .byte   W36
        .byte   W02
        .byte           VOICE , 52
        .byte   W01
        .byte           VOL   , 99
        .byte           PAN   , c_v-40
        .byte   W56
        .byte           VOL   , 45
        .byte   W01
@ 004   ----------------------------------------
_64___Temporal_Tower_7_4:
        .byte           TIE   , Bn3 , v095
        .byte   W04
        .byte           VOL   , 49
        .byte   W03
        .byte                   52
        .byte   W02
        .byte                   53
        .byte   W01
        .byte                   54
        .byte   W02
        .byte                   55
        .byte   W01
        .byte                   57
        .byte   W02
        .byte                   58
        .byte   W01
        .byte                   59
        .byte   W02
        .byte                   60
        .byte   W03
        .byte                   62
        .byte   W03
        .byte                   64
        .byte   W01
        .byte                   65
        .byte   W02
        .byte                   66
        .byte   W01
        .byte                   67
        .byte   W02
        .byte                   68
        .byte   W01
        .byte                   70
        .byte   W02
        .byte                   71
        .byte   W01
        .byte                   72
        .byte   W02
        .byte                   73
        .byte   W01
        .byte                   74
        .byte   W02
        .byte                   76
        .byte   W01
        .byte                   77
        .byte   W03
        .byte                   78
        .byte   W02
        .byte                   79
        .byte   W01
        .byte                   80
        .byte   W02
        .byte                   81
        .byte   W01
        .byte                   83
        .byte   W02
        .byte                   84
        .byte   W01
        .byte                   85
        .byte   W02
        .byte                   86
        .byte   W01
        .byte                   87
        .byte   W02
        .byte                   89
        .byte   W01
        .byte                   90
        .byte   W02
        .byte                   91
        .byte   W01
        .byte                   92
        .byte   W02
        .byte                   93
        .byte   W01
        .byte                   94
        .byte   W03
        .byte                   96
        .byte   W02
        .byte                   97
        .byte   W01
        .byte                   99
        .byte   W08
        .byte                   94
        .byte   W03
        .byte                   92
        .byte   W01
        .byte                   90
        .byte   W02
        .byte                   89
        .byte   W01
        .byte                   87
        .byte   W02
        .byte                   85
        .byte   W01
        .byte                   84
        .byte   W02
        .byte                   82
        .byte   W01
        .byte                   80
        .byte   W02
        .byte                   79
        .byte   W01
        .byte                   77
        .byte   W02
        .byte   PEND
@ 005   ----------------------------------------
_64___Temporal_Tower_7_5:
        .byte           VOL   , 74
        .byte   W01
        .byte                   72
        .byte   W02
        .byte                   68
        .byte   W01
        .byte                   65
        .byte   W02
        .byte                   62
        .byte   W01
        .byte                   59
        .byte   W02
        .byte                   56
        .byte   W01
        .byte                   53
        .byte   W02
        .byte                   49
        .byte   W01
        .byte                   46
        .byte   W02
        .byte                   43
        .byte   W01
        .byte                   39
        .byte   W02
        .byte                   34
        .byte   W01
        .byte                   29
        .byte   W02
        .byte                   24
        .byte   W01
        .byte                   19
        .byte   W02
        .byte                   14
        .byte   W01
        .byte                   9
        .byte   W02
        .byte                   5
        .byte   W01
        .byte                   0
        .byte   W19
        .byte           EOT   , Bn3
        .byte   W48
        .byte   W01
        .byte   PEND
@ 006   ----------------------------------------
        .byte   W96
@ 007   ----------------------------------------
        .byte   W96
@ 008   ----------------------------------------
        .byte   W96
@ 009   ----------------------------------------
        .byte   W96
@ 010   ----------------------------------------
        .byte   W96
@ 011   ----------------------------------------
        .byte   W96
@ 012   ----------------------------------------
_64___Temporal_Tower_7_12:
        .byte   W02
        .byte           VOICE , 88
        .byte   W01
        .byte           PAN   , c_v-63
        .byte           VOL   , 83
        .byte   W92
        .byte   W01
        .byte   PEND
@ 013   ----------------------------------------
_64___Temporal_Tower_7_13:
        .byte   W54
        .byte           N03   , Bn4 , v045
        .byte   W24
        .byte                   En4 , v070
        .byte   W12
        .byte                   Dn4 , v045
        .byte   W06
        .byte   PEND
@ 014   ----------------------------------------
_64___Temporal_Tower_7_14:
        .byte   W06
        .byte           N03   , En4 , v045
        .byte   W54
        .byte                   An4 , v070
        .byte   W12
        .byte                   Dn4 , v045
        .byte   W24
        .byte   PEND
@ 015   ----------------------------------------
_64___Temporal_Tower_7_15:
        .byte   W12
        .byte           N03   , An3 , v070
        .byte   W42
        .byte                   En4 , v045
        .byte   W24
        .byte                   An3 , v070
        .byte   W12
        .byte                   Gn3 , v045
        .byte   W06
        .byte   PEND
@ 016   ----------------------------------------
_64___Temporal_Tower_7_16:
        .byte   W06
        .byte           N03   , An3 , v045
        .byte   W54
        .byte                   Dn4 , v070
        .byte   W12
        .byte                   Gn3 , v045
        .byte   W18
        .byte                   An3
        .byte   W06
        .byte   PEND
@ 017   ----------------------------------------
        .byte   PATT
         .word  _64___Temporal_Tower_7_13
@ 018   ----------------------------------------
        .byte   PATT
         .word  _64___Temporal_Tower_7_14
@ 019   ----------------------------------------
        .byte   PATT
         .word  _64___Temporal_Tower_7_15
@ 020   ----------------------------------------
        .byte   PATT
         .word  _64___Temporal_Tower_7_16
@ 021   ----------------------------------------
        .byte   W96
@ 022   ----------------------------------------
        .byte   W96
@ 023   ----------------------------------------
        .byte   W96
@ 024   ----------------------------------------
        .byte   W96
@ 025   ----------------------------------------
        .byte   W96
@ 026   ----------------------------------------
        .byte   W96
@ 027   ----------------------------------------
        .byte   W96
@ 028   ----------------------------------------
        .byte   W96
@ 029   ----------------------------------------
        .byte   W96
@ 030   ----------------------------------------
        .byte   W96
@ 031   ----------------------------------------
        .byte   W96
@ 032   ----------------------------------------
        .byte   W96
@ 033   ----------------------------------------
        .byte   W96
@ 034   ----------------------------------------
        .byte   W96
@ 035   ----------------------------------------
        .byte   W96
@ 036   ----------------------------------------
        .byte   W96
@ 037   ----------------------------------------
        .byte   PATT
         .word  _64___Temporal_Tower_7_13
@ 038   ----------------------------------------
        .byte   PATT
         .word  _64___Temporal_Tower_7_14
@ 039   ----------------------------------------
        .byte   PATT
         .word  _64___Temporal_Tower_7_15
@ 040   ----------------------------------------
        .byte   PATT
         .word  _64___Temporal_Tower_7_16
@ 041   ----------------------------------------
        .byte   PATT
         .word  _64___Temporal_Tower_7_13
@ 042   ----------------------------------------
        .byte   PATT
         .word  _64___Temporal_Tower_7_14
@ 043   ----------------------------------------
        .byte   PATT
         .word  _64___Temporal_Tower_7_15
@ 044   ----------------------------------------
        .byte   PATT
         .word  _64___Temporal_Tower_7_16
@ 045   ----------------------------------------
        .byte   W96
@ 046   ----------------------------------------
        .byte   W96
@ 047   ----------------------------------------
        .byte   W96
@ 048   ----------------------------------------
        .byte   W96
@ 049   ----------------------------------------
        .byte   W96
@ 050   ----------------------------------------
_64___Temporal_Tower_7_50:
        .byte   W36
        .byte   W02
        .byte           VOICE , 52
        .byte   W01
        .byte           PAN   , c_v+0
        .byte           VOL   , 105
        .byte   W56
        .byte           PAN   , c_v+30
        .byte   W01
        .byte   PEND
@ 051   ----------------------------------------
_64___Temporal_Tower_7_51:
        .byte           TIE   , Gn3 , v080
        .byte   W05
        .byte           PAN   , c_v+26
        .byte   W06
        .byte                   c_v+22
        .byte   W06
        .byte                   c_v+19
        .byte   W06
        .byte                   c_v+15
        .byte   W06
        .byte                   c_v+11
        .byte   W06
        .byte                   c_v+8
        .byte   W06
        .byte                   c_v+4
        .byte   W06
        .byte                   c_v+0
        .byte   W06
        .byte                   c_v-4
        .byte   W06
        .byte                   c_v-7
        .byte   W06
        .byte                   c_v-11
        .byte   W06
        .byte                   c_v-15
        .byte   W06
        .byte                   c_v-18
        .byte   W06
        .byte                   c_v-22
        .byte   W06
        .byte                   c_v-26
        .byte   W06
        .byte                   c_v-29
        .byte   W01
        .byte   PEND
@ 052   ----------------------------------------
_64___Temporal_Tower_7_52:
        .byte   W05
        .byte           PAN   , c_v-27
        .byte   W06
        .byte                   c_v-23
        .byte   W06
        .byte                   c_v-19
        .byte   W06
        .byte                   c_v-15
        .byte   W06
        .byte                   c_v-10
        .byte   W06
        .byte                   c_v-6
        .byte   W06
        .byte                   c_v-2
        .byte   W06
        .byte                   c_v+2
        .byte   W06
        .byte                   c_v+6
        .byte   W06
        .byte                   c_v+10
        .byte   W06
        .byte                   c_v+15
        .byte   W06
        .byte                   c_v+19
        .byte   W06
        .byte                   c_v+23
        .byte   W06
        .byte                   c_v+24
        .byte   W12
        .byte           EOT   , Gn3
        .byte           PAN   , c_v+30
        .byte   W01
        .byte   PEND
@ 053   ----------------------------------------
_64___Temporal_Tower_7_53:
        .byte           TIE   , Fs3 , v080
        .byte   W05
        .byte           PAN   , c_v+26
        .byte   W06
        .byte                   c_v+22
        .byte   W06
        .byte                   c_v+19
        .byte   W06
        .byte                   c_v+15
        .byte   W06
        .byte                   c_v+11
        .byte   W06
        .byte                   c_v+8
        .byte   W06
        .byte                   c_v+4
        .byte   W06
        .byte                   c_v+0
        .byte   W06
        .byte                   c_v-4
        .byte   W06
        .byte                   c_v-7
        .byte   W06
        .byte                   c_v-11
        .byte   W06
        .byte                   c_v-15
        .byte   W06
        .byte                   c_v-18
        .byte   W06
        .byte                   c_v-22
        .byte   W06
        .byte                   c_v-26
        .byte   W06
        .byte                   c_v-29
        .byte   W01
        .byte   PEND
@ 054   ----------------------------------------
_64___Temporal_Tower_7_54:
        .byte   W05
        .byte           PAN   , c_v-27
        .byte   W06
        .byte                   c_v-23
        .byte   W06
        .byte                   c_v-19
        .byte   W06
        .byte                   c_v-15
        .byte   W06
        .byte                   c_v-10
        .byte   W06
        .byte                   c_v-6
        .byte   W06
        .byte                   c_v-2
        .byte   W06
        .byte                   c_v+2
        .byte   W06
        .byte                   c_v+6
        .byte   W06
        .byte                   c_v+10
        .byte   W06
        .byte                   c_v+15
        .byte   W06
        .byte                   c_v+19
        .byte   W06
        .byte                   c_v+23
        .byte   W06
        .byte                   c_v+24
        .byte   W12
        .byte           EOT   , Fs3
        .byte           PAN   , c_v+30
        .byte   W01
        .byte   PEND
@ 055   ----------------------------------------
        .byte   PATT
         .word  _64___Temporal_Tower_7_51
@ 056   ----------------------------------------
        .byte   PATT
         .word  _64___Temporal_Tower_7_52
@ 057   ----------------------------------------
        .byte   PATT
         .word  _64___Temporal_Tower_7_53
@ 058   ----------------------------------------
_64___Temporal_Tower_7_58:
        .byte   W05
        .byte           PAN   , c_v-27
        .byte   W06
        .byte                   c_v-23
        .byte   W06
        .byte                   c_v-19
        .byte   W06
        .byte                   c_v-15
        .byte   W06
        .byte                   c_v-10
        .byte   W06
        .byte                   c_v-6
        .byte   W06
        .byte                   c_v-2
        .byte   W06
        .byte                   c_v+2
        .byte   W06
        .byte                   c_v+6
        .byte   W06
        .byte                   c_v+10
        .byte   W06
        .byte                   c_v+15
        .byte   W06
        .byte                   c_v+19
        .byte   W06
        .byte                   c_v+23
        .byte   W06
        .byte                   c_v+24
        .byte   W12
        .byte           EOT   , Fs3
        .byte           PAN   , c_v+0
        .byte   W01
        .byte   PEND
@ 059   ----------------------------------------
_64___Temporal_Tower_7_59:
        .byte           VOL   , 102
        .byte           TIE   , En3 , v080
        .byte   W06
        .byte           VOL   , 101
        .byte   W06
        .byte                   100
        .byte   W09
        .byte                   99
        .byte   W03
        .byte                   98
        .byte   W06
        .byte                   97
        .byte   W04
        .byte                   96
        .byte   W05
        .byte                   95
        .byte   W09
        .byte                   94
        .byte   W04
        .byte                   93
        .byte   W05
        .byte                   92
        .byte   W06
        .byte                   91
        .byte   W04
        .byte                   90
        .byte   W09
        .byte                   89
        .byte   W05
        .byte                   88
        .byte   W04
        .byte                   87
        .byte   W05
        .byte                   86
        .byte   W04
        .byte                   85
        .byte   W02
        .byte   PEND
@ 060   ----------------------------------------
_64___Temporal_Tower_7_60:
        .byte   W01
        .byte           VOL   , 84
        .byte   W02
        .byte                   83
        .byte   W03
        .byte                   82
        .byte   W01
        .byte                   81
        .byte   W05
        .byte                   80
        .byte   W01
        .byte                   79
        .byte   W02
        .byte                   78
        .byte   W04
        .byte                   76
        .byte   W05
        .byte                   75
        .byte   W03
        .byte                   73
        .byte   W03
        .byte                   72
        .byte   W01
        .byte                   71
        .byte   W05
        .byte                   70
        .byte   W01
        .byte                   69
        .byte   W02
        .byte                   68
        .byte   W01
        .byte                   67
        .byte   W02
        .byte                   66
        .byte   W03
        .byte                   64
        .byte   W01
        .byte                   63
        .byte   W02
        .byte                   62
        .byte   W01
        .byte                   61
        .byte   W03
        .byte                   59
        .byte   W02
        .byte                   57
        .byte   W03
        .byte                   56
        .byte   W01
        .byte                   54
        .byte   W03
        .byte                   51
        .byte   W02
        .byte                   49
        .byte   W01
        .byte                   47
        .byte   W02
        .byte                   45
        .byte   W01
        .byte                   42
        .byte   W03
        .byte                   38
        .byte   W02
        .byte                   37
        .byte   W01
        .byte                   34
        .byte   W02
        .byte                   33
        .byte   W03
        .byte                   28
        .byte   W01
        .byte                   26
        .byte   W02
        .byte                   24
        .byte   W01
        .byte                   22
        .byte   W02
        .byte                   20
        .byte   W03
        .byte                   16
        .byte   W01
        .byte                   14
        .byte   W02
        .byte                   12
        .byte   W01
        .byte                   9
        .byte   W04
        .byte           EOT   , En3
        .byte   W01
        .byte   PEND
@ 061   ----------------------------------------
        .byte   W92
        .byte   W03
        .byte           VOL   , 105
        .byte   W01
@ 062   ----------------------------------------
        .byte   W96
@ 063   ----------------------------------------
        .byte   W96
@ 064   ----------------------------------------
        .byte   W96
@ 065   ----------------------------------------
_64___Temporal_Tower_7_65:
        .byte   W36
        .byte   W03
        .byte           VOL   , 99
        .byte           PAN   , c_v-10
        .byte   W56
        .byte           VOL   , 45
        .byte   W01
        .byte   PEND
@ 066   ----------------------------------------
        .byte   PATT
         .word  _64___Temporal_Tower_7_4
@ 067   ----------------------------------------
        .byte   PATT
         .word  _64___Temporal_Tower_7_5
@ 068   ----------------------------------------
        .byte   W96
@ 069   ----------------------------------------
        .byte   W96
@ 070   ----------------------------------------
        .byte   W96
@ 071   ----------------------------------------
        .byte   W96
@ 072   ----------------------------------------
        .byte   W96
@ 073   ----------------------------------------
        .byte   W96
@ 074   ----------------------------------------
        .byte   PATT
         .word  _64___Temporal_Tower_7_12
@ 075   ----------------------------------------
        .byte   PATT
         .word  _64___Temporal_Tower_7_13
@ 076   ----------------------------------------
        .byte   PATT
         .word  _64___Temporal_Tower_7_14
@ 077   ----------------------------------------
        .byte   PATT
         .word  _64___Temporal_Tower_7_15
@ 078   ----------------------------------------
        .byte   PATT
         .word  _64___Temporal_Tower_7_16
@ 079   ----------------------------------------
        .byte   PATT
         .word  _64___Temporal_Tower_7_13
@ 080   ----------------------------------------
        .byte   PATT
         .word  _64___Temporal_Tower_7_14
@ 081   ----------------------------------------
        .byte   PATT
         .word  _64___Temporal_Tower_7_15
@ 082   ----------------------------------------
        .byte   PATT
         .word  _64___Temporal_Tower_7_16
@ 083   ----------------------------------------
        .byte   W96
@ 084   ----------------------------------------
        .byte   W96
@ 085   ----------------------------------------
        .byte   W96
@ 086   ----------------------------------------
        .byte   W96
@ 087   ----------------------------------------
        .byte   W96
@ 088   ----------------------------------------
        .byte   W96
@ 089   ----------------------------------------
        .byte   W96
@ 090   ----------------------------------------
        .byte   W96
@ 091   ----------------------------------------
        .byte   W96
@ 092   ----------------------------------------
        .byte   W96
@ 093   ----------------------------------------
        .byte   W96
@ 094   ----------------------------------------
        .byte   W96
@ 095   ----------------------------------------
        .byte   W96
@ 096   ----------------------------------------
        .byte   W96
@ 097   ----------------------------------------
        .byte   W96
@ 098   ----------------------------------------
        .byte   W96
@ 099   ----------------------------------------
        .byte   PATT
         .word  _64___Temporal_Tower_7_13
@ 100   ----------------------------------------
        .byte   PATT
         .word  _64___Temporal_Tower_7_14
@ 101   ----------------------------------------
        .byte   PATT
         .word  _64___Temporal_Tower_7_15
@ 102   ----------------------------------------
        .byte   PATT
         .word  _64___Temporal_Tower_7_16
@ 103   ----------------------------------------
        .byte   PATT
         .word  _64___Temporal_Tower_7_13
@ 104   ----------------------------------------
        .byte   PATT
         .word  _64___Temporal_Tower_7_14
@ 105   ----------------------------------------
        .byte   PATT
         .word  _64___Temporal_Tower_7_15
@ 106   ----------------------------------------
        .byte   PATT
         .word  _64___Temporal_Tower_7_16
@ 107   ----------------------------------------
        .byte   W96
@ 108   ----------------------------------------
        .byte   W96
@ 109   ----------------------------------------
        .byte   W96
@ 110   ----------------------------------------
        .byte   W96
@ 111   ----------------------------------------
        .byte   W96
@ 112   ----------------------------------------
        .byte   PATT
         .word  _64___Temporal_Tower_7_50
@ 113   ----------------------------------------
        .byte   PATT
         .word  _64___Temporal_Tower_7_51
@ 114   ----------------------------------------
        .byte   PATT
         .word  _64___Temporal_Tower_7_52
@ 115   ----------------------------------------
        .byte   PATT
         .word  _64___Temporal_Tower_7_53
@ 116   ----------------------------------------
        .byte   PATT
         .word  _64___Temporal_Tower_7_54
@ 117   ----------------------------------------
        .byte   PATT
         .word  _64___Temporal_Tower_7_51
@ 118   ----------------------------------------
        .byte   PATT
         .word  _64___Temporal_Tower_7_52
@ 119   ----------------------------------------
        .byte   PATT
         .word  _64___Temporal_Tower_7_53
@ 120   ----------------------------------------
        .byte   PATT
         .word  _64___Temporal_Tower_7_58
@ 121   ----------------------------------------
        .byte   PATT
         .word  _64___Temporal_Tower_7_59
@ 122   ----------------------------------------
        .byte   PATT
         .word  _64___Temporal_Tower_7_60
@ 123   ----------------------------------------
        .byte   W92
        .byte   W03
        .byte           VOL   , 105
        .byte   W01
@ 124   ----------------------------------------
        .byte   W96
@ 125   ----------------------------------------
        .byte   W96
@ 126   ----------------------------------------
        .byte   W96
@ 127   ----------------------------------------
        .byte   PATT
         .word  _64___Temporal_Tower_7_65
@ 128   ----------------------------------------
        .byte   PATT
         .word  _64___Temporal_Tower_7_4
@ 129   ----------------------------------------
        .byte   PATT
         .word  _64___Temporal_Tower_7_5
@ 130   ----------------------------------------
        .byte   W96
@ 131   ----------------------------------------
        .byte   W96
@ 132   ----------------------------------------
        .byte   W92
        .byte   W03
        .byte   FINE

@****************** Track 8 (Midi-Chn.8) ******************@

_64___Temporal_Tower_8:
        .byte   KEYSH , _64___Temporal_Tower_key+0
@ 000   ----------------------------------------
        .byte   W24
@ 001   ----------------------------------------
        .byte           VOICE , 0
        .byte           VOL   , 83
        .byte   W96
@ 002   ----------------------------------------
        .byte   W96
@ 003   ----------------------------------------
_64___Temporal_Tower_8_3:
        .byte   W36
        .byte   W02
        .byte           VOICE , 52
        .byte   W01
        .byte           VOL   , 99
        .byte           PAN   , c_v-20
        .byte   W56
        .byte           VOL   , 45
        .byte   W01
        .byte   PEND
@ 004   ----------------------------------------
_64___Temporal_Tower_8_4:
        .byte           TIE   , Gn3 , v095
        .byte   W04
        .byte           VOL   , 49
        .byte   W03
        .byte                   52
        .byte   W02
        .byte                   53
        .byte   W01
        .byte                   54
        .byte   W02
        .byte                   55
        .byte   W01
        .byte                   57
        .byte   W02
        .byte                   58
        .byte   W01
        .byte                   59
        .byte   W02
        .byte                   60
        .byte   W03
        .byte                   62
        .byte   W03
        .byte                   64
        .byte   W01
        .byte                   65
        .byte   W02
        .byte                   66
        .byte   W01
        .byte                   67
        .byte   W02
        .byte                   68
        .byte   W01
        .byte                   70
        .byte   W02
        .byte                   71
        .byte   W01
        .byte                   72
        .byte   W02
        .byte                   73
        .byte   W01
        .byte                   74
        .byte   W02
        .byte                   76
        .byte   W01
        .byte                   77
        .byte   W03
        .byte                   78
        .byte   W02
        .byte                   79
        .byte   W01
        .byte                   80
        .byte   W02
        .byte                   81
        .byte   W01
        .byte                   83
        .byte   W02
        .byte                   84
        .byte   W01
        .byte                   85
        .byte   W02
        .byte                   86
        .byte   W01
        .byte                   87
        .byte   W02
        .byte                   89
        .byte   W01
        .byte                   90
        .byte   W02
        .byte                   91
        .byte   W01
        .byte                   92
        .byte   W02
        .byte                   93
        .byte   W01
        .byte                   94
        .byte   W03
        .byte                   96
        .byte   W02
        .byte                   97
        .byte   W01
        .byte                   99
        .byte   W08
        .byte                   94
        .byte   W03
        .byte                   92
        .byte   W01
        .byte                   90
        .byte   W02
        .byte                   89
        .byte   W01
        .byte                   87
        .byte   W02
        .byte                   85
        .byte   W01
        .byte                   84
        .byte   W02
        .byte                   82
        .byte   W01
        .byte                   80
        .byte   W02
        .byte                   79
        .byte   W01
        .byte                   77
        .byte   W02
        .byte   PEND
@ 005   ----------------------------------------
_64___Temporal_Tower_8_5:
        .byte           VOL   , 74
        .byte   W01
        .byte                   72
        .byte   W02
        .byte                   68
        .byte   W01
        .byte                   65
        .byte   W02
        .byte                   62
        .byte   W01
        .byte                   59
        .byte   W02
        .byte                   56
        .byte   W01
        .byte                   53
        .byte   W02
        .byte                   49
        .byte   W01
        .byte                   46
        .byte   W02
        .byte                   43
        .byte   W01
        .byte                   39
        .byte   W02
        .byte                   34
        .byte   W01
        .byte                   29
        .byte   W02
        .byte                   24
        .byte   W01
        .byte                   19
        .byte   W02
        .byte                   14
        .byte   W01
        .byte                   9
        .byte   W02
        .byte                   5
        .byte   W01
        .byte                   0
        .byte   W19
        .byte           EOT   , Gn3
        .byte   W48
        .byte   W01
        .byte   PEND
@ 006   ----------------------------------------
        .byte   W96
@ 007   ----------------------------------------
        .byte   W96
@ 008   ----------------------------------------
        .byte   W96
@ 009   ----------------------------------------
        .byte   W96
@ 010   ----------------------------------------
        .byte   W96
@ 011   ----------------------------------------
        .byte   W96
@ 012   ----------------------------------------
_64___Temporal_Tower_8_12:
        .byte   W24
        .byte   W02
        .byte           VOICE , 88
        .byte   W01
        .byte           PAN   , c_v+63
        .byte           VOL   , 83
        .byte   W68
        .byte   W01
        .byte   PEND
@ 013   ----------------------------------------
_64___Temporal_Tower_8_13:
        .byte   W60
        .byte           N03   , Bn4 , v070
        .byte   W12
        .byte                   En4 , v045
        .byte   W24
        .byte   PEND
@ 014   ----------------------------------------
_64___Temporal_Tower_8_14:
        .byte   W12
        .byte           N03   , En4 , v070
        .byte   W42
        .byte                   An4 , v045
        .byte   W24
        .byte                   Dn4 , v070
        .byte   W12
        .byte                   En4 , v045
        .byte   W06
        .byte   PEND
@ 015   ----------------------------------------
_64___Temporal_Tower_8_15:
        .byte   W06
        .byte           N03   , An3 , v045
        .byte   W54
        .byte                   En4 , v070
        .byte   W12
        .byte                   An3 , v045
        .byte   W24
        .byte   PEND
@ 016   ----------------------------------------
_64___Temporal_Tower_8_16:
        .byte   W12
        .byte           N03   , An3 , v070
        .byte   W42
        .byte                   Dn4 , v045
        .byte   W24
        .byte                   Gn3 , v070
        .byte   W18
        .byte   PEND
@ 017   ----------------------------------------
        .byte   PATT
         .word  _64___Temporal_Tower_8_13
@ 018   ----------------------------------------
        .byte   PATT
         .word  _64___Temporal_Tower_8_14
@ 019   ----------------------------------------
        .byte   PATT
         .word  _64___Temporal_Tower_8_15
@ 020   ----------------------------------------
        .byte   PATT
         .word  _64___Temporal_Tower_8_16
@ 021   ----------------------------------------
        .byte   W96
@ 022   ----------------------------------------
        .byte   W96
@ 023   ----------------------------------------
        .byte   W96
@ 024   ----------------------------------------
        .byte   W96
@ 025   ----------------------------------------
        .byte   W96
@ 026   ----------------------------------------
        .byte   W96
@ 027   ----------------------------------------
        .byte   W96
@ 028   ----------------------------------------
        .byte   W96
@ 029   ----------------------------------------
        .byte   W96
@ 030   ----------------------------------------
        .byte   W96
@ 031   ----------------------------------------
        .byte   W96
@ 032   ----------------------------------------
        .byte   W96
@ 033   ----------------------------------------
        .byte   W96
@ 034   ----------------------------------------
        .byte   W96
@ 035   ----------------------------------------
        .byte   W96
@ 036   ----------------------------------------
        .byte   W96
@ 037   ----------------------------------------
        .byte   PATT
         .word  _64___Temporal_Tower_8_13
@ 038   ----------------------------------------
        .byte   PATT
         .word  _64___Temporal_Tower_8_14
@ 039   ----------------------------------------
        .byte   PATT
         .word  _64___Temporal_Tower_8_15
@ 040   ----------------------------------------
        .byte   PATT
         .word  _64___Temporal_Tower_8_16
@ 041   ----------------------------------------
        .byte   PATT
         .word  _64___Temporal_Tower_8_13
@ 042   ----------------------------------------
        .byte   PATT
         .word  _64___Temporal_Tower_8_14
@ 043   ----------------------------------------
        .byte   PATT
         .word  _64___Temporal_Tower_8_15
@ 044   ----------------------------------------
        .byte   PATT
         .word  _64___Temporal_Tower_8_16
@ 045   ----------------------------------------
        .byte   W96
@ 046   ----------------------------------------
        .byte   W96
@ 047   ----------------------------------------
        .byte   W96
@ 048   ----------------------------------------
        .byte   W96
@ 049   ----------------------------------------
        .byte   W96
@ 050   ----------------------------------------
        .byte   W96
@ 051   ----------------------------------------
        .byte   W96
@ 052   ----------------------------------------
        .byte   W96
@ 053   ----------------------------------------
        .byte   W96
@ 054   ----------------------------------------
        .byte   W96
@ 055   ----------------------------------------
        .byte   W96
@ 056   ----------------------------------------
        .byte   W96
@ 057   ----------------------------------------
        .byte   W96
@ 058   ----------------------------------------
        .byte   W96
@ 059   ----------------------------------------
        .byte   W96
@ 060   ----------------------------------------
        .byte   W96
@ 061   ----------------------------------------
        .byte   W96
@ 062   ----------------------------------------
        .byte   W96
@ 063   ----------------------------------------
        .byte   W96
@ 064   ----------------------------------------
        .byte   W96
@ 065   ----------------------------------------
        .byte   PATT
         .word  _64___Temporal_Tower_8_3
@ 066   ----------------------------------------
        .byte   PATT
         .word  _64___Temporal_Tower_8_4
@ 067   ----------------------------------------
        .byte   PATT
         .word  _64___Temporal_Tower_8_5
@ 068   ----------------------------------------
        .byte   W96
@ 069   ----------------------------------------
        .byte   W96
@ 070   ----------------------------------------
        .byte   W96
@ 071   ----------------------------------------
        .byte   W96
@ 072   ----------------------------------------
        .byte   W96
@ 073   ----------------------------------------
        .byte   W96
@ 074   ----------------------------------------
        .byte   PATT
         .word  _64___Temporal_Tower_8_12
@ 075   ----------------------------------------
        .byte   PATT
         .word  _64___Temporal_Tower_8_13
@ 076   ----------------------------------------
        .byte   PATT
         .word  _64___Temporal_Tower_8_14
@ 077   ----------------------------------------
        .byte   PATT
         .word  _64___Temporal_Tower_8_15
@ 078   ----------------------------------------
        .byte   PATT
         .word  _64___Temporal_Tower_8_16
@ 079   ----------------------------------------
        .byte   PATT
         .word  _64___Temporal_Tower_8_13
@ 080   ----------------------------------------
        .byte   PATT
         .word  _64___Temporal_Tower_8_14
@ 081   ----------------------------------------
        .byte   PATT
         .word  _64___Temporal_Tower_8_15
@ 082   ----------------------------------------
        .byte   PATT
         .word  _64___Temporal_Tower_8_16
@ 083   ----------------------------------------
        .byte   W96
@ 084   ----------------------------------------
        .byte   W96
@ 085   ----------------------------------------
        .byte   W96
@ 086   ----------------------------------------
        .byte   W96
@ 087   ----------------------------------------
        .byte   W96
@ 088   ----------------------------------------
        .byte   W96
@ 089   ----------------------------------------
        .byte   W96
@ 090   ----------------------------------------
        .byte   W96
@ 091   ----------------------------------------
        .byte   W96
@ 092   ----------------------------------------
        .byte   W96
@ 093   ----------------------------------------
        .byte   W96
@ 094   ----------------------------------------
        .byte   W96
@ 095   ----------------------------------------
        .byte   W96
@ 096   ----------------------------------------
        .byte   W96
@ 097   ----------------------------------------
        .byte   W96
@ 098   ----------------------------------------
        .byte   W96
@ 099   ----------------------------------------
        .byte   PATT
         .word  _64___Temporal_Tower_8_13
@ 100   ----------------------------------------
        .byte   PATT
         .word  _64___Temporal_Tower_8_14
@ 101   ----------------------------------------
        .byte   PATT
         .word  _64___Temporal_Tower_8_15
@ 102   ----------------------------------------
        .byte   PATT
         .word  _64___Temporal_Tower_8_16
@ 103   ----------------------------------------
        .byte   PATT
         .word  _64___Temporal_Tower_8_13
@ 104   ----------------------------------------
        .byte   PATT
         .word  _64___Temporal_Tower_8_14
@ 105   ----------------------------------------
        .byte   PATT
         .word  _64___Temporal_Tower_8_15
@ 106   ----------------------------------------
        .byte   PATT
         .word  _64___Temporal_Tower_8_16
@ 107   ----------------------------------------
        .byte   W96
@ 108   ----------------------------------------
        .byte   W96
@ 109   ----------------------------------------
        .byte   W96
@ 110   ----------------------------------------
        .byte   W96
@ 111   ----------------------------------------
        .byte   W96
@ 112   ----------------------------------------
        .byte   W96
@ 113   ----------------------------------------
        .byte   W96
@ 114   ----------------------------------------
        .byte   W96
@ 115   ----------------------------------------
        .byte   W96
@ 116   ----------------------------------------
        .byte   W96
@ 117   ----------------------------------------
        .byte   W96
@ 118   ----------------------------------------
        .byte   W96
@ 119   ----------------------------------------
        .byte   W96
@ 120   ----------------------------------------
        .byte   W96
@ 121   ----------------------------------------
        .byte   W96
@ 122   ----------------------------------------
        .byte   W96
@ 123   ----------------------------------------
        .byte   W96
@ 124   ----------------------------------------
        .byte   W96
@ 125   ----------------------------------------
        .byte   W96
@ 126   ----------------------------------------
        .byte   W96
@ 127   ----------------------------------------
        .byte   PATT
         .word  _64___Temporal_Tower_8_3
@ 128   ----------------------------------------
        .byte   PATT
         .word  _64___Temporal_Tower_8_4
@ 129   ----------------------------------------
        .byte   PATT
         .word  _64___Temporal_Tower_8_5
@ 130   ----------------------------------------
        .byte   W96
@ 131   ----------------------------------------
        .byte   W96
@ 132   ----------------------------------------
        .byte   W92
        .byte   W03
        .byte   FINE

@****************** Track 9 (Midi-Chn.9) ******************@

_64___Temporal_Tower_9:
        .byte   KEYSH , _64___Temporal_Tower_key+0
@ 000   ----------------------------------------
        .byte   W24
@ 001   ----------------------------------------
        .byte           VOICE , 0
        .byte           N05   , Cn1 , v120
        .byte           N02   , Bn1 , v085
        .byte           VOL   , 79
        .byte           PAN   , c_v-30
        .byte   W06
        .byte           N02   , Fs2 , v063
        .byte   W06
        .byte           N05   , En2 , v120
        .byte   W06
        .byte                   Cn1
        .byte           N02   , Fs2 , v063
        .byte   W06
        .byte                   Bn1 , v085
        .byte   W06
        .byte                   Fs2 , v063
        .byte   W06
        .byte           N05   , Cn1 , v120
        .byte           N02   , Bn1 , v085
        .byte   W06
        .byte                   Fs2 , v063
        .byte   W06
        .byte                   Bn1 , v085
        .byte   W06
        .byte                   Fs2 , v063
        .byte   W06
        .byte                   Bn1 , v085
        .byte   W06
        .byte                   Fs2 , v063
        .byte   W06
        .byte                   Bn1 , v085
        .byte   W06
        .byte                   Fs2 , v063
        .byte   W06
        .byte                   Bn1 , v085
        .byte   W06
        .byte                   Fs2 , v063
        .byte   W06
@ 002   ----------------------------------------
_64___Temporal_Tower_9_2:
        .byte           N02   , Bn1 , v085
        .byte   W06
        .byte                   Fs2 , v063
        .byte   W06
        .byte           N05   , En2 , v120
        .byte   W06
        .byte           N02   , Fs2 , v063
        .byte   W06
        .byte                   Bn1 , v085
        .byte   W06
        .byte                   Fs2 , v063
        .byte   W06
        .byte                   Bn1 , v085
        .byte   W06
        .byte                   Fs2 , v063
        .byte   W06
        .byte                   Bn1 , v085
        .byte   W06
        .byte                   Fs2 , v063
        .byte   W06
        .byte                   Bn1 , v085
        .byte   W06
        .byte                   Fs2 , v063
        .byte   W06
        .byte                   Bn1 , v085
        .byte   W06
        .byte                   Fs2 , v063
        .byte   W06
        .byte           N11   , En2 , v120
        .byte   W12
        .byte   PEND
@ 003   ----------------------------------------
        .byte           N05   , Cn1
        .byte           N02   , Bn1 , v085
        .byte   W06
        .byte                   Fs2 , v063
        .byte   W06
        .byte           N05   , En2 , v120
        .byte   W06
        .byte                   Cn1
        .byte           N02   , Fs2 , v063
        .byte   W06
        .byte                   Bn1 , v085
        .byte   W06
        .byte                   Fs2 , v063
        .byte   W06
        .byte           N05   , Cn1 , v120
        .byte           N02   , Bn1 , v085
        .byte   W06
        .byte                   Fs2 , v063
        .byte   W06
        .byte                   Bn1 , v085
        .byte   W06
        .byte                   Fs2 , v063
        .byte   W06
        .byte                   Bn1 , v085
        .byte   W06
        .byte                   Fs2 , v063
        .byte   W06
        .byte                   Bn1 , v085
        .byte   W06
        .byte                   Fs2 , v063
        .byte   W06
        .byte                   Bn1 , v085
        .byte   W06
        .byte                   Fs2 , v063
        .byte   W06
@ 004   ----------------------------------------
        .byte   PATT
         .word  _64___Temporal_Tower_9_2
@ 005   ----------------------------------------
_64___Temporal_Tower_9_5:
        .byte           N05   , Cn1 , v120
        .byte           N02   , Bn1 , v085
        .byte           N04   , En3 , v120
        .byte   W06
        .byte           N02   , Fs2 , v063
        .byte           N02   , Gs1 , v040
        .byte   W06
        .byte           N05   , En2 , v120
        .byte           N04   , Cs3
        .byte           N02   , Gs1
        .byte   W03
        .byte                   Gs1 , v040
        .byte   W03
        .byte           N05   , Cn1 , v120
        .byte           N02   , Fs2 , v063
        .byte           N02   , Gs1 , v100
        .byte   W03
        .byte                   Gs1 , v040
        .byte   W03
        .byte                   Bn1 , v085
        .byte           N04   , Dn3 , v120
        .byte           N05   , Gs1 , v080
        .byte   W06
        .byte           N02   , Fs2 , v063
        .byte           N04   , Cs3 , v120
        .byte           N05   , Gs1
        .byte   W06
        .byte                   Cn1
        .byte           N02   , Bn1 , v085
        .byte           N04   , En3 , v120
        .byte           N05   , Gs1 , v060
        .byte   W06
        .byte           N02   , Fs2 , v063
        .byte           N04   , Cs3 , v120
        .byte           N05   , Gs1 , v100
        .byte   W06
        .byte           N02   , Bn1 , v085
        .byte   W03
        .byte                   Gs1 , v040
        .byte   W03
        .byte                   Fs2 , v063
        .byte           N04   , Dn3 , v120
        .byte           N01   , Gs1 , v080
        .byte   W03
        .byte           N02   , Gs1 , v040
        .byte   W03
        .byte                   Bn1 , v085
        .byte           N04   , Ds3 , v120
        .byte           N05   , Gs1
        .byte   W06
        .byte           N02   , Fs2 , v063
        .byte           N04   , Cs3 , v120
        .byte           N05   , Gs1 , v060
        .byte   W06
        .byte           N11   , Ds1 , v090
        .byte           N11   , Bn4 , v075
        .byte           N02   , Bn1 , v085
        .byte           N02   , Gs1 , v040
        .byte   W06
        .byte                   Fs2 , v063
        .byte           N02   , Gs1 , v040
        .byte   W03
        .byte           N01   , Gs1 , v080
        .byte   W03
        .byte           N02   , Bn1 , v085
        .byte           N04   , Dn3 , v120
        .byte           N05   , Gs1
        .byte   W06
        .byte           N02   , Cn1 , v100
        .byte           N02   , Fs2 , v063
        .byte           N04   , Ds3 , v120
        .byte           N05   , Gs1 , v080
        .byte   W03
        .byte           N02   , Cn1
        .byte   W03
        .byte   PEND
@ 006   ----------------------------------------
_64___Temporal_Tower_9_6:
        .byte           N05   , Cn1 , v120
        .byte           N02   , Bn1 , v085
        .byte           N04   , En3 , v120
        .byte   W06
        .byte           N02   , Fs2 , v063
        .byte           N02   , Gs1 , v040
        .byte   W06
        .byte           N05   , En2 , v120
        .byte           N04   , Ds3
        .byte           N02   , Gs1
        .byte   W03
        .byte                   Gs1 , v040
        .byte   W03
        .byte           N05   , Cn1 , v120
        .byte           N02   , Fs2 , v063
        .byte           N04   , Cs3 , v120
        .byte           N02   , Gs1 , v100
        .byte   W03
        .byte                   Gs1 , v040
        .byte   W03
        .byte                   Bn1 , v085
        .byte           N04   , Cs3 , v120
        .byte           N05   , Gs1 , v080
        .byte   W06
        .byte           N02   , Fs2 , v063
        .byte           N04   , En3 , v120
        .byte           N05   , Gs1
        .byte   W06
        .byte                   Cn1
        .byte           N02   , Bn1 , v085
        .byte           N05   , Gs1 , v060
        .byte   W06
        .byte           N02   , Fs2 , v063
        .byte           N04   , Cs3 , v120
        .byte           N05   , Gs1 , v100
        .byte   W06
        .byte           N11   , En2 , v080
        .byte           N02   , Bn1 , v085
        .byte   W03
        .byte                   Gs1 , v040
        .byte   W03
        .byte                   Fs2 , v063
        .byte           N04   , Dn3 , v120
        .byte           N01   , Gs1 , v080
        .byte   W03
        .byte           N02   , Gs1 , v040
        .byte   W03
        .byte           N11   , En1 , v070
        .byte           N11   , Dn4 , v090
        .byte           N02   , Bn1 , v085
        .byte           N04   , Ds3 , v120
        .byte           N05   , Gs1
        .byte   W06
        .byte           N02   , Fs2 , v063
        .byte           N04   , Cs3 , v120
        .byte           N05   , Gs1 , v060
        .byte   W06
        .byte           N11   , En1 , v110
        .byte           N02   , Bn1 , v085
        .byte           N02   , Gs1 , v040
        .byte   W06
        .byte                   Fs2 , v063
        .byte           N02   , Gs1 , v040
        .byte   W03
        .byte           N01   , Gs1 , v080
        .byte   W03
        .byte           N11   , En2 , v120
        .byte           N04   , Dn3
        .byte           N05   , Gs1
        .byte   W06
        .byte           N04   , Ds3
        .byte           N05   , Gs1 , v080
        .byte   W06
        .byte   PEND
@ 007   ----------------------------------------
        .byte   PATT
         .word  _64___Temporal_Tower_9_5
@ 008   ----------------------------------------
        .byte   PATT
         .word  _64___Temporal_Tower_9_6
@ 009   ----------------------------------------
        .byte   PATT
         .word  _64___Temporal_Tower_9_5
@ 010   ----------------------------------------
        .byte   PATT
         .word  _64___Temporal_Tower_9_6
@ 011   ----------------------------------------
        .byte   PATT
         .word  _64___Temporal_Tower_9_5
@ 012   ----------------------------------------
_64___Temporal_Tower_9_12:
        .byte           N05   , Cn1 , v120
        .byte           N02   , Bn1 , v085
        .byte           N04   , En3 , v120
        .byte   W06
        .byte           N02   , Fs2 , v063
        .byte           N02   , Gs1 , v040
        .byte   W06
        .byte           N05   , En2 , v120
        .byte           N04   , Ds3
        .byte           N02   , Gs1
        .byte   W03
        .byte                   Gs1 , v040
        .byte   W03
        .byte           N05   , Cn1 , v120
        .byte           N02   , Fs2 , v063
        .byte           N04   , Cs3 , v120
        .byte           N02   , Gs1 , v100
        .byte   W03
        .byte                   Gs1 , v040
        .byte   W03
        .byte                   Bn1 , v085
        .byte           N04   , Cs3 , v120
        .byte           N05   , Gs1 , v080
        .byte   W06
        .byte           N02   , Fs2 , v063
        .byte           N04   , En3 , v120
        .byte           N05   , Gs1
        .byte   W06
        .byte                   Cn1
        .byte           N02   , Bn1 , v085
        .byte           N05   , Gs1 , v060
        .byte   W06
        .byte           N02   , Fs2 , v063
        .byte           N04   , Cs3 , v120
        .byte           N05   , Gs1 , v100
        .byte   W06
        .byte           N11   , Bn4 , v075
        .byte           N02   , Bn1 , v085
        .byte   W03
        .byte                   Gs1 , v040
        .byte   W03
        .byte                   Fs2 , v063
        .byte           N04   , Dn3 , v120
        .byte           N01   , Gs1 , v080
        .byte   W03
        .byte           N02   , Gs1 , v040
        .byte   W03
        .byte           N11   , En1 , v070
        .byte           N02   , Bn1 , v085
        .byte           N04   , Ds3 , v120
        .byte           N05   , Gs1
        .byte   W06
        .byte           N02   , Fs2 , v063
        .byte           N04   , Cs3 , v120
        .byte           N05   , Gs1 , v060
        .byte   W06
        .byte           N11   , Dn4 , v090
        .byte           N02   , Bn1 , v085
        .byte           N02   , Gs1 , v040
        .byte   W06
        .byte                   Fs2 , v063
        .byte           N02   , Gs1 , v040
        .byte   W03
        .byte           N01   , Gs1 , v080
        .byte   W03
        .byte           N11   , En1 , v110
        .byte           N11   , En2 , v120
        .byte           N04   , Dn3
        .byte           N05   , Gs1
        .byte   W06
        .byte           N04   , Ds3
        .byte           N05   , Gs1 , v080
        .byte   W06
        .byte   PEND
@ 013   ----------------------------------------
        .byte   PATT
         .word  _64___Temporal_Tower_9_5
@ 014   ----------------------------------------
_64___Temporal_Tower_9_14:
        .byte           N05   , Cn1 , v120
        .byte           N02   , Bn1 , v085
        .byte           N04   , En3 , v120
        .byte   W06
        .byte           N02   , Fs2 , v063
        .byte           N02   , Gs1 , v040
        .byte   W06
        .byte           N05   , En2 , v120
        .byte           N04   , Ds3
        .byte           N02   , Gs1
        .byte   W03
        .byte                   Gs1 , v040
        .byte   W03
        .byte           N05   , Cn1 , v120
        .byte           N02   , Fs2 , v063
        .byte           N04   , Cs3 , v120
        .byte           N02   , Gs1 , v100
        .byte   W03
        .byte                   Gs1 , v040
        .byte   W03
        .byte                   Bn1 , v085
        .byte           N04   , Cs3 , v120
        .byte           N05   , Gs1 , v080
        .byte   W06
        .byte           N02   , Fs2 , v063
        .byte           N04   , En3 , v120
        .byte           N05   , Gs1
        .byte   W06
        .byte                   Cn1
        .byte           N02   , Bn1 , v085
        .byte           N05   , Gs1 , v060
        .byte   W06
        .byte           N02   , Fs2 , v063
        .byte           N04   , Cs3 , v120
        .byte           N05   , Gs1 , v100
        .byte   W06
        .byte           N02   , Bn1 , v085
        .byte   W03
        .byte                   Gs1 , v040
        .byte   W03
        .byte                   Fs2 , v063
        .byte           N04   , Dn3 , v120
        .byte           N01   , Gs1 , v080
        .byte   W03
        .byte           N02   , Gs1 , v040
        .byte   W03
        .byte           N11   , En2 , v080
        .byte           N02   , Bn1 , v085
        .byte           N04   , Ds3 , v120
        .byte           N05   , Gs1
        .byte   W06
        .byte           N02   , Fs2 , v063
        .byte           N04   , Cs3 , v120
        .byte           N05   , Gs1 , v060
        .byte   W06
        .byte           N11   , Dn4 , v090
        .byte           N02   , Bn1 , v085
        .byte           N02   , Gs1 , v040
        .byte   W06
        .byte                   Fs2 , v063
        .byte           N02   , Gs1 , v040
        .byte   W03
        .byte           N01   , Gs1 , v080
        .byte   W03
        .byte           N11   , Ds1 , v110
        .byte           N11   , En2 , v120
        .byte           N04   , Dn3
        .byte           N05   , Gs1
        .byte   W06
        .byte           N04   , Ds3
        .byte           N05   , Gs1 , v080
        .byte   W06
        .byte   PEND
@ 015   ----------------------------------------
        .byte   PATT
         .word  _64___Temporal_Tower_9_5
@ 016   ----------------------------------------
_64___Temporal_Tower_9_16:
        .byte           N05   , Cn1 , v120
        .byte           N02   , Bn1 , v085
        .byte           N04   , En3 , v120
        .byte   W06
        .byte           N02   , Fs2 , v063
        .byte           N02   , Gs1 , v040
        .byte   W06
        .byte           N05   , En2 , v120
        .byte           N04   , Ds3
        .byte           N02   , Gs1
        .byte   W03
        .byte                   Gs1 , v040
        .byte   W03
        .byte           N05   , Cn1 , v120
        .byte           N02   , Fs2 , v063
        .byte           N04   , Cs3 , v120
        .byte           N02   , Gs1 , v100
        .byte   W03
        .byte                   Gs1 , v040
        .byte   W03
        .byte                   Bn1 , v085
        .byte           N04   , Cs3 , v120
        .byte           N05   , Gs1 , v080
        .byte   W06
        .byte           N02   , Fs2 , v063
        .byte           N04   , En3 , v120
        .byte           N05   , Gs1
        .byte   W06
        .byte                   Cn1
        .byte           N02   , Bn1 , v085
        .byte           N05   , Gs1 , v060
        .byte   W06
        .byte           N02   , Fs2 , v063
        .byte           N04   , Cs3 , v120
        .byte           N05   , Gs1 , v100
        .byte   W06
        .byte           N02   , Bn1 , v085
        .byte   W03
        .byte                   Gs1 , v040
        .byte   W03
        .byte                   Fs2 , v063
        .byte           N04   , Dn3 , v120
        .byte           N01   , Gs1 , v080
        .byte   W03
        .byte           N02   , Gs1 , v040
        .byte   W03
        .byte           N11   , Ds1 , v090
        .byte           N11   , En2 , v080
        .byte           N02   , Bn1 , v085
        .byte           N04   , Ds3 , v120
        .byte           N05   , Gs1
        .byte   W06
        .byte           N02   , Fs2 , v063
        .byte           N04   , Cs3 , v120
        .byte           N05   , Gs1 , v060
        .byte   W06
        .byte           N11   , Dn4 , v090
        .byte           N02   , Bn1 , v085
        .byte           N02   , Gs1 , v040
        .byte   W06
        .byte                   Fs2 , v063
        .byte           N02   , Gs1 , v040
        .byte   W03
        .byte           N01   , Gs1 , v080
        .byte   W03
        .byte           N11   , Ds1 , v110
        .byte           N11   , Ds1 , v090
        .byte           N11   , Bn4 , v075
        .byte           N11   , En2 , v120
        .byte           N04   , Dn3
        .byte           N05   , Gs1
        .byte   W06
        .byte           N04   , Ds3
        .byte           N05   , Gs1 , v080
        .byte   W06
        .byte   PEND
@ 017   ----------------------------------------
        .byte   PATT
         .word  _64___Temporal_Tower_9_5
@ 018   ----------------------------------------
        .byte   PATT
         .word  _64___Temporal_Tower_9_14
@ 019   ----------------------------------------
        .byte   PATT
         .word  _64___Temporal_Tower_9_5
@ 020   ----------------------------------------
        .byte   PATT
         .word  _64___Temporal_Tower_9_16
@ 021   ----------------------------------------
        .byte   PATT
         .word  _64___Temporal_Tower_9_5
@ 022   ----------------------------------------
_64___Temporal_Tower_9_22:
        .byte           N05   , Cn1 , v120
        .byte           N02   , Bn1 , v085
        .byte           N04   , En3 , v120
        .byte   W06
        .byte           N02   , Fs2 , v063
        .byte           N02   , Gs1 , v040
        .byte   W06
        .byte           N05   , En2 , v120
        .byte           N04   , Ds3
        .byte           N02   , Gs1
        .byte   W03
        .byte                   Gs1 , v040
        .byte   W03
        .byte           N05   , Cn1 , v120
        .byte           N02   , Fs2 , v063
        .byte           N04   , Cs3 , v120
        .byte           N02   , Gs1 , v100
        .byte   W03
        .byte                   Gs1 , v040
        .byte   W03
        .byte                   Bn1 , v085
        .byte           N04   , Cs3 , v120
        .byte           N05   , Gs1 , v080
        .byte   W06
        .byte           N02   , Fs2 , v063
        .byte           N04   , En3 , v120
        .byte           N05   , Gs1
        .byte   W06
        .byte                   Cn1
        .byte           N02   , Bn1 , v085
        .byte           N05   , Gs1 , v060
        .byte   W06
        .byte           N02   , Fs2 , v063
        .byte           N04   , Cs3 , v120
        .byte           N05   , Gs1 , v100
        .byte   W06
        .byte           N11   , En1 , v070
        .byte           N11   , En2 , v080
        .byte           N02   , Bn1 , v085
        .byte   W03
        .byte                   Gs1 , v040
        .byte   W03
        .byte                   Fs2 , v063
        .byte           N04   , Dn3 , v120
        .byte           N01   , Gs1 , v080
        .byte   W03
        .byte           N02   , Gs1 , v040
        .byte   W03
        .byte           N11   , Dn4 , v090
        .byte           N02   , Bn1 , v085
        .byte           N04   , Ds3 , v120
        .byte           N05   , Gs1
        .byte   W06
        .byte           N02   , Fs2 , v063
        .byte           N04   , Cs3 , v120
        .byte           N05   , Gs1 , v060
        .byte   W06
        .byte           N11   , En1 , v110
        .byte           N02   , Bn1 , v085
        .byte           N02   , Gs1 , v040
        .byte   W06
        .byte                   Fs2 , v063
        .byte           N02   , Gs1 , v040
        .byte   W03
        .byte           N01   , Gs1 , v080
        .byte   W03
        .byte           N11   , En2 , v120
        .byte           N04   , Dn3
        .byte           N05   , Gs1
        .byte   W06
        .byte           N04   , Ds3
        .byte           N05   , Gs1 , v080
        .byte   W06
        .byte   PEND
@ 023   ----------------------------------------
        .byte   PATT
         .word  _64___Temporal_Tower_9_5
@ 024   ----------------------------------------
        .byte   PATT
         .word  _64___Temporal_Tower_9_22
@ 025   ----------------------------------------
        .byte   PATT
         .word  _64___Temporal_Tower_9_5
@ 026   ----------------------------------------
        .byte   PATT
         .word  _64___Temporal_Tower_9_22
@ 027   ----------------------------------------
        .byte   PATT
         .word  _64___Temporal_Tower_9_5
@ 028   ----------------------------------------
_64___Temporal_Tower_9_28:
        .byte           N05   , Cn1 , v120
        .byte           N02   , Bn1 , v085
        .byte           N04   , En3 , v120
        .byte   W06
        .byte           N02   , Fs2 , v063
        .byte           N02   , Gs1 , v040
        .byte   W06
        .byte           N05   , En2 , v120
        .byte           N04   , Ds3
        .byte           N02   , Gs1
        .byte   W03
        .byte                   Gs1 , v040
        .byte   W03
        .byte           N05   , Cn1 , v120
        .byte           N02   , Fs2 , v063
        .byte           N04   , Cs3 , v120
        .byte           N02   , Gs1 , v100
        .byte   W03
        .byte                   Gs1 , v040
        .byte   W03
        .byte                   Bn1 , v085
        .byte           N04   , Cs3 , v120
        .byte           N05   , Gs1 , v080
        .byte   W06
        .byte           N02   , Fs2 , v063
        .byte           N04   , En3 , v120
        .byte           N05   , Gs1
        .byte   W06
        .byte                   Cn1
        .byte           N02   , Bn1 , v085
        .byte           N05   , Gs1 , v060
        .byte   W06
        .byte           N02   , Fs2 , v063
        .byte           N04   , Cs3 , v120
        .byte           N05   , Gs1 , v100
        .byte   W06
        .byte           N11   , Dn4 , v090
        .byte           N02   , Bn1 , v085
        .byte   W03
        .byte                   Gs1 , v040
        .byte   W03
        .byte                   Fs2 , v063
        .byte           N04   , Dn3 , v120
        .byte           N01   , Gs1 , v080
        .byte   W03
        .byte           N02   , Gs1 , v040
        .byte   W03
        .byte           N11   , En1 , v110
        .byte           N02   , Bn1 , v085
        .byte           N04   , Ds3 , v120
        .byte           N05   , Gs1
        .byte   W06
        .byte           N02   , Fs2 , v063
        .byte           N04   , Cs3 , v120
        .byte           N05   , Gs1 , v060
        .byte   W06
        .byte           N11   , En2 , v080
        .byte           N02   , Bn1 , v085
        .byte           N02   , Gs1 , v040
        .byte   W06
        .byte                   Fs2 , v063
        .byte           N02   , Gs1 , v040
        .byte   W03
        .byte           N01   , Gs1 , v080
        .byte   W03
        .byte           N11   , En1 , v110
        .byte           N11   , En2 , v120
        .byte           N04   , Dn3
        .byte           N05   , Gs1
        .byte   W06
        .byte           N04   , Ds3
        .byte           N05   , Gs1 , v080
        .byte   W06
        .byte   PEND
@ 029   ----------------------------------------
        .byte   PATT
         .word  _64___Temporal_Tower_9_5
@ 030   ----------------------------------------
_64___Temporal_Tower_9_30:
        .byte           N05   , Cn1 , v120
        .byte           N02   , Bn1 , v085
        .byte           N04   , En3 , v120
        .byte   W06
        .byte           N02   , Fs2 , v063
        .byte           N02   , Gs1 , v040
        .byte   W06
        .byte           N05   , En2 , v120
        .byte           N04   , Ds3
        .byte           N02   , Gs1
        .byte   W03
        .byte                   Gs1 , v040
        .byte   W03
        .byte           N05   , Cn1 , v120
        .byte           N02   , Fs2 , v063
        .byte           N04   , Cs3 , v120
        .byte           N02   , Gs1 , v100
        .byte   W03
        .byte                   Gs1 , v040
        .byte   W03
        .byte                   Bn1 , v085
        .byte           N04   , Cs3 , v120
        .byte           N05   , Gs1 , v080
        .byte   W06
        .byte           N02   , Fs2 , v063
        .byte           N04   , En3 , v120
        .byte           N05   , Gs1
        .byte   W06
        .byte                   Cn1
        .byte           N02   , Bn1 , v085
        .byte           N05   , Gs1 , v060
        .byte   W06
        .byte           N02   , Fs2 , v063
        .byte           N04   , Cs3 , v120
        .byte           N05   , Gs1 , v100
        .byte   W06
        .byte           N11   , En1 , v110
        .byte           N11   , En2 , v080
        .byte           N02   , Bn1 , v085
        .byte   W03
        .byte                   Gs1 , v040
        .byte   W03
        .byte                   Fs2 , v063
        .byte           N04   , Dn3 , v120
        .byte           N01   , Gs1 , v080
        .byte   W03
        .byte           N02   , Gs1 , v040
        .byte   W03
        .byte                   Bn1 , v085
        .byte           N04   , Ds3 , v120
        .byte           N05   , Gs1
        .byte   W06
        .byte           N02   , Fs2 , v063
        .byte           N04   , Cs3 , v120
        .byte           N05   , Gs1 , v060
        .byte   W06
        .byte           N11   , Dn4 , v090
        .byte           N02   , Bn1 , v085
        .byte           N02   , Gs1 , v040
        .byte   W06
        .byte                   Fs2 , v063
        .byte           N02   , Gs1 , v040
        .byte   W03
        .byte           N01   , Gs1 , v080
        .byte   W03
        .byte           N11   , En2 , v120
        .byte           N04   , Dn3
        .byte           N05   , Gs1
        .byte   W06
        .byte           N04   , Ds3
        .byte           N05   , Gs1 , v080
        .byte   W06
        .byte   PEND
@ 031   ----------------------------------------
        .byte   PATT
         .word  _64___Temporal_Tower_9_5
@ 032   ----------------------------------------
        .byte   PATT
         .word  _64___Temporal_Tower_9_30
@ 033   ----------------------------------------
        .byte   PATT
         .word  _64___Temporal_Tower_9_5
@ 034   ----------------------------------------
        .byte   PATT
         .word  _64___Temporal_Tower_9_30
@ 035   ----------------------------------------
        .byte   PATT
         .word  _64___Temporal_Tower_9_5
@ 036   ----------------------------------------
        .byte   PATT
         .word  _64___Temporal_Tower_9_30
@ 037   ----------------------------------------
_64___Temporal_Tower_9_37:
        .byte           N05   , Cn1 , v120
        .byte           N02   , Bn1 , v085
        .byte           N04   , En3 , v120
        .byte   W06
        .byte           N02   , Fs2 , v063
        .byte   W06
        .byte           N05   , En2 , v120
        .byte           N04   , Cs3
        .byte   W06
        .byte           N05   , Cn1
        .byte           N02   , Fs2 , v063
        .byte   W06
        .byte                   Bn1 , v085
        .byte           N04   , Dn3 , v120
        .byte   W06
        .byte           N02   , Fs2 , v063
        .byte           N04   , Cs3 , v120
        .byte   W06
        .byte           N05   , Cn1
        .byte           N02   , Bn1 , v085
        .byte           N04   , En3 , v120
        .byte   W06
        .byte           N02   , Fs2 , v063
        .byte           N04   , Cs3 , v120
        .byte   W06
        .byte           N02   , Bn1 , v085
        .byte   W06
        .byte                   Fs2 , v063
        .byte           N04   , Dn3 , v120
        .byte   W06
        .byte           N02   , Bn1 , v085
        .byte           N04   , Ds3 , v120
        .byte   W06
        .byte           N02   , Fs2 , v063
        .byte           N04   , Cs3 , v120
        .byte   W06
        .byte           N11   , Ds1 , v090
        .byte           N11   , Bn4 , v075
        .byte           N02   , Bn1 , v085
        .byte   W06
        .byte                   Fs2 , v063
        .byte   W06
        .byte                   Bn1 , v085
        .byte           N04   , Dn3 , v120
        .byte   W06
        .byte           N02   , Cn1 , v100
        .byte           N02   , Fs2 , v063
        .byte           N04   , Ds3 , v120
        .byte   W03
        .byte           N02   , Cn1 , v080
        .byte   W03
        .byte   PEND
@ 038   ----------------------------------------
_64___Temporal_Tower_9_38:
        .byte           N05   , Cn1 , v120
        .byte           N02   , Bn1 , v085
        .byte           N04   , En3 , v120
        .byte   W06
        .byte           N02   , Fs2 , v063
        .byte   W06
        .byte           N05   , En2 , v120
        .byte           N04   , Ds3
        .byte   W06
        .byte           N05   , Cn1
        .byte           N02   , Fs2 , v063
        .byte           N04   , Cs3 , v120
        .byte   W06
        .byte           N02   , Bn1 , v085
        .byte           N04   , Cs3 , v120
        .byte   W06
        .byte           N02   , Fs2 , v063
        .byte           N04   , En3 , v120
        .byte   W06
        .byte           N05   , Cn1
        .byte           N02   , Bn1 , v085
        .byte   W06
        .byte                   Fs2 , v063
        .byte           N04   , Cs3 , v120
        .byte   W06
        .byte           N02   , Bn1 , v085
        .byte   W06
        .byte                   Fs2 , v063
        .byte           N04   , Dn3 , v120
        .byte   W06
        .byte           N11   , En2 , v080
        .byte           N02   , Bn1 , v085
        .byte           N04   , Ds3 , v120
        .byte   W06
        .byte           N02   , Fs2 , v063
        .byte           N04   , Cs3 , v120
        .byte   W06
        .byte           N11   , Dn4 , v090
        .byte           N02   , Bn1 , v085
        .byte   W06
        .byte                   Fs2 , v063
        .byte   W06
        .byte           N11   , Ds1 , v110
        .byte           N11   , En2 , v120
        .byte           N04   , Dn3
        .byte   W06
        .byte                   Ds3
        .byte   W06
        .byte   PEND
@ 039   ----------------------------------------
        .byte   PATT
         .word  _64___Temporal_Tower_9_37
@ 040   ----------------------------------------
_64___Temporal_Tower_9_40:
        .byte           N05   , Cn1 , v120
        .byte           N02   , Bn1 , v085
        .byte           N04   , En3 , v120
        .byte   W06
        .byte           N02   , Fs2 , v063
        .byte   W06
        .byte           N05   , En2 , v120
        .byte           N04   , Ds3
        .byte   W06
        .byte           N05   , Cn1
        .byte           N02   , Fs2 , v063
        .byte           N04   , Cs3 , v120
        .byte   W06
        .byte           N02   , Bn1 , v085
        .byte           N04   , Cs3 , v120
        .byte   W06
        .byte           N02   , Fs2 , v063
        .byte           N04   , En3 , v120
        .byte   W06
        .byte           N05   , Cn1
        .byte           N02   , Bn1 , v085
        .byte   W06
        .byte                   Fs2 , v063
        .byte           N04   , Cs3 , v120
        .byte   W06
        .byte           N02   , Bn1 , v085
        .byte   W06
        .byte                   Fs2 , v063
        .byte           N04   , Dn3 , v120
        .byte   W06
        .byte           N11   , En2 , v080
        .byte           N11   , Bn4 , v075
        .byte           N02   , Bn1 , v085
        .byte           N04   , Ds3 , v120
        .byte   W06
        .byte           N02   , Fs2 , v063
        .byte           N04   , Cs3 , v120
        .byte   W06
        .byte           N11   , Dn4 , v090
        .byte           N02   , Bn1 , v085
        .byte   W06
        .byte                   Fs2 , v063
        .byte   W06
        .byte           N11   , Ds1 , v110
        .byte           N11   , Ds1 , v090
        .byte           N11   , Bn4 , v075
        .byte           N11   , En2 , v120
        .byte           N04   , Dn3
        .byte   W06
        .byte                   Ds3
        .byte   W06
        .byte   PEND
@ 041   ----------------------------------------
        .byte   PATT
         .word  _64___Temporal_Tower_9_37
@ 042   ----------------------------------------
        .byte   PATT
         .word  _64___Temporal_Tower_9_38
@ 043   ----------------------------------------
        .byte   PATT
         .word  _64___Temporal_Tower_9_37
@ 044   ----------------------------------------
_64___Temporal_Tower_9_44:
        .byte           N05   , Cn1 , v120
        .byte           N02   , Bn1 , v085
        .byte           N04   , En3 , v120
        .byte   W06
        .byte           N02   , Fs2 , v063
        .byte   W06
        .byte           N05   , En2 , v120
        .byte           N04   , Ds3
        .byte   W06
        .byte           N05   , Cn1
        .byte           N02   , Fs2 , v063
        .byte           N04   , Cs3 , v120
        .byte   W06
        .byte           N02   , Bn1 , v085
        .byte           N04   , Cs3 , v120
        .byte   W06
        .byte           N02   , Fs2 , v063
        .byte           N04   , En3 , v120
        .byte   W06
        .byte           N05   , Cn1
        .byte           N02   , Bn1 , v085
        .byte   W06
        .byte                   Fs2 , v063
        .byte           N04   , Cs3 , v120
        .byte   W06
        .byte           N11   , En2 , v080
        .byte           N02   , Bn1 , v085
        .byte   W06
        .byte                   Fs2 , v063
        .byte           N04   , Dn3 , v120
        .byte   W06
        .byte           N11   , Ds1 , v110
        .byte           N11   , Bn4 , v075
        .byte           N02   , Bn1 , v085
        .byte           N04   , Ds3 , v120
        .byte   W06
        .byte           N02   , Fs2 , v063
        .byte           N04   , Cs3 , v120
        .byte   W06
        .byte           N11   , Dn4 , v090
        .byte           N02   , Bn1 , v085
        .byte   W06
        .byte                   Fs2 , v063
        .byte   W06
        .byte           N11   , Ds1 , v110
        .byte           N11   , Ds1 , v090
        .byte           N11   , Bn4 , v075
        .byte           N11   , En2 , v120
        .byte           N04   , Dn3
        .byte   W06
        .byte                   Ds3
        .byte   W06
        .byte   PEND
@ 045   ----------------------------------------
        .byte   PATT
         .word  _64___Temporal_Tower_9_37
@ 046   ----------------------------------------
_64___Temporal_Tower_9_46:
        .byte           N05   , Cn1 , v120
        .byte           N02   , Bn1 , v085
        .byte           N04   , En3 , v120
        .byte   W06
        .byte           N02   , Fs2 , v063
        .byte   W06
        .byte           N05   , En2 , v120
        .byte           N04   , Ds3
        .byte   W06
        .byte           N05   , Cn1
        .byte           N02   , Fs2 , v063
        .byte           N04   , Cs3 , v120
        .byte   W06
        .byte           N02   , Bn1 , v085
        .byte           N04   , Cs3 , v120
        .byte   W06
        .byte           N02   , Fs2 , v063
        .byte           N04   , En3 , v120
        .byte   W06
        .byte           N05   , Cn1
        .byte           N02   , Bn1 , v085
        .byte   W06
        .byte                   Fs2 , v063
        .byte           N04   , Cs3 , v120
        .byte   W06
        .byte           N11   , En1 , v070
        .byte           N11   , En2 , v080
        .byte           N02   , Bn1 , v085
        .byte   W06
        .byte                   Fs2 , v063
        .byte           N04   , Dn3 , v120
        .byte   W06
        .byte           N11   , Dn4 , v090
        .byte           N02   , Bn1 , v085
        .byte           N04   , Ds3 , v120
        .byte   W06
        .byte           N02   , Fs2 , v063
        .byte           N04   , Cs3 , v120
        .byte   W06
        .byte           N11   , En1 , v110
        .byte           N02   , Bn1 , v085
        .byte   W06
        .byte                   Fs2 , v063
        .byte   W06
        .byte           N11   , En2 , v120
        .byte           N04   , Dn3
        .byte   W06
        .byte                   Ds3
        .byte   W06
        .byte   PEND
@ 047   ----------------------------------------
        .byte   PATT
         .word  _64___Temporal_Tower_9_37
@ 048   ----------------------------------------
        .byte   PATT
         .word  _64___Temporal_Tower_9_46
@ 049   ----------------------------------------
        .byte   PATT
         .word  _64___Temporal_Tower_9_37
@ 050   ----------------------------------------
        .byte   PATT
         .word  _64___Temporal_Tower_9_46
@ 051   ----------------------------------------
        .byte   PATT
         .word  _64___Temporal_Tower_9_37
@ 052   ----------------------------------------
        .byte   PATT
         .word  _64___Temporal_Tower_9_46
@ 053   ----------------------------------------
        .byte   PATT
         .word  _64___Temporal_Tower_9_37
@ 054   ----------------------------------------
        .byte   PATT
         .word  _64___Temporal_Tower_9_46
@ 055   ----------------------------------------
        .byte   PATT
         .word  _64___Temporal_Tower_9_37
@ 056   ----------------------------------------
        .byte   PATT
         .word  _64___Temporal_Tower_9_46
@ 057   ----------------------------------------
        .byte   W96
@ 058   ----------------------------------------
        .byte   W96
@ 059   ----------------------------------------
_64___Temporal_Tower_9_59:
        .byte           N05   , Cn1 , v120
        .byte           N02   , Bn1 , v085
        .byte           N04   , En3 , v120
        .byte   W06
        .byte           N02   , Fs2 , v063
        .byte   W06
        .byte           N05   , En2 , v120
        .byte           N04   , Cs3
        .byte   W06
        .byte           N05   , Cn1
        .byte           N02   , Fs2 , v063
        .byte   W06
        .byte                   Bn1 , v085
        .byte           N04   , Dn3 , v120
        .byte   W06
        .byte           N02   , Fs2 , v063
        .byte           N04   , Cs3 , v120
        .byte   W06
        .byte           N05   , Cn1
        .byte           N02   , Bn1 , v085
        .byte           N04   , En3 , v120
        .byte   W06
        .byte           N02   , Fs2 , v063
        .byte           N04   , Cs3 , v120
        .byte   W06
        .byte           N02   , Bn1 , v085
        .byte   W06
        .byte                   Fs2 , v063
        .byte           N04   , Dn3 , v120
        .byte   W06
        .byte           N02   , Bn1 , v085
        .byte           N04   , Ds3 , v120
        .byte   W06
        .byte           N02   , Fs2 , v063
        .byte           N04   , Cs3 , v120
        .byte   W06
        .byte           N02   , Bn1 , v085
        .byte   W06
        .byte                   Fs2 , v063
        .byte   W06
        .byte                   Bn1 , v085
        .byte           N04   , Dn3 , v120
        .byte   W06
        .byte           N02   , Fs2 , v063
        .byte           N04   , Ds3 , v120
        .byte   W06
        .byte   PEND
@ 060   ----------------------------------------
_64___Temporal_Tower_9_60:
        .byte           N02   , Bn1 , v085
        .byte           N04   , En3 , v120
        .byte   W06
        .byte           N02   , Fs2 , v063
        .byte   W06
        .byte           N05   , En2 , v120
        .byte           N04   , Ds3
        .byte   W06
        .byte           N02   , Fs2 , v063
        .byte           N04   , Cs3 , v120
        .byte   W06
        .byte           N02   , Bn1 , v085
        .byte           N04   , Cs3 , v120
        .byte   W06
        .byte           N02   , Fs2 , v063
        .byte           N04   , En3 , v120
        .byte   W06
        .byte           N02   , Bn1 , v085
        .byte   W06
        .byte                   Fs2 , v063
        .byte           N04   , Cs3 , v120
        .byte   W06
        .byte           N02   , Bn1 , v085
        .byte   W06
        .byte                   Fs2 , v063
        .byte           N04   , Dn3 , v120
        .byte   W06
        .byte           N02   , Bn1 , v085
        .byte           N04   , Ds3 , v120
        .byte   W06
        .byte           N02   , Fs2 , v063
        .byte           N04   , Cs3 , v120
        .byte   W06
        .byte           N02   , Bn1 , v085
        .byte   W06
        .byte                   Fs2 , v063
        .byte   W06
        .byte           N11   , En2 , v120
        .byte           N04   , Dn3
        .byte   W06
        .byte                   Ds3
        .byte   W06
        .byte   PEND
@ 061   ----------------------------------------
        .byte   PATT
         .word  _64___Temporal_Tower_9_59
@ 062   ----------------------------------------
        .byte   PATT
         .word  _64___Temporal_Tower_9_60
@ 063   ----------------------------------------
        .byte   PATT
         .word  _64___Temporal_Tower_9_59
@ 064   ----------------------------------------
        .byte   PATT
         .word  _64___Temporal_Tower_9_60
@ 065   ----------------------------------------
        .byte   PATT
         .word  _64___Temporal_Tower_9_59
@ 066   ----------------------------------------
        .byte   PATT
         .word  _64___Temporal_Tower_9_60
@ 067   ----------------------------------------
        .byte   PATT
         .word  _64___Temporal_Tower_9_5
@ 068   ----------------------------------------
        .byte   PATT
         .word  _64___Temporal_Tower_9_6
@ 069   ----------------------------------------
        .byte   PATT
         .word  _64___Temporal_Tower_9_5
@ 070   ----------------------------------------
        .byte   PATT
         .word  _64___Temporal_Tower_9_6
@ 071   ----------------------------------------
        .byte   PATT
         .word  _64___Temporal_Tower_9_5
@ 072   ----------------------------------------
        .byte   PATT
         .word  _64___Temporal_Tower_9_6
@ 073   ----------------------------------------
        .byte   PATT
         .word  _64___Temporal_Tower_9_5
@ 074   ----------------------------------------
        .byte   PATT
         .word  _64___Temporal_Tower_9_12
@ 075   ----------------------------------------
        .byte   PATT
         .word  _64___Temporal_Tower_9_5
@ 076   ----------------------------------------
        .byte   PATT
         .word  _64___Temporal_Tower_9_14
@ 077   ----------------------------------------
        .byte   PATT
         .word  _64___Temporal_Tower_9_5
@ 078   ----------------------------------------
        .byte   PATT
         .word  _64___Temporal_Tower_9_16
@ 079   ----------------------------------------
        .byte   PATT
         .word  _64___Temporal_Tower_9_5
@ 080   ----------------------------------------
        .byte   PATT
         .word  _64___Temporal_Tower_9_14
@ 081   ----------------------------------------
        .byte   PATT
         .word  _64___Temporal_Tower_9_5
@ 082   ----------------------------------------
        .byte   PATT
         .word  _64___Temporal_Tower_9_16
@ 083   ----------------------------------------
        .byte   PATT
         .word  _64___Temporal_Tower_9_5
@ 084   ----------------------------------------
        .byte   PATT
         .word  _64___Temporal_Tower_9_22
@ 085   ----------------------------------------
        .byte   PATT
         .word  _64___Temporal_Tower_9_5
@ 086   ----------------------------------------
        .byte   PATT
         .word  _64___Temporal_Tower_9_22
@ 087   ----------------------------------------
        .byte   PATT
         .word  _64___Temporal_Tower_9_5
@ 088   ----------------------------------------
        .byte   PATT
         .word  _64___Temporal_Tower_9_22
@ 089   ----------------------------------------
        .byte   PATT
         .word  _64___Temporal_Tower_9_5
@ 090   ----------------------------------------
        .byte   PATT
         .word  _64___Temporal_Tower_9_28
@ 091   ----------------------------------------
        .byte   PATT
         .word  _64___Temporal_Tower_9_5
@ 092   ----------------------------------------
        .byte   PATT
         .word  _64___Temporal_Tower_9_30
@ 093   ----------------------------------------
        .byte   PATT
         .word  _64___Temporal_Tower_9_5
@ 094   ----------------------------------------
        .byte   PATT
         .word  _64___Temporal_Tower_9_30
@ 095   ----------------------------------------
        .byte   PATT
         .word  _64___Temporal_Tower_9_5
@ 096   ----------------------------------------
        .byte   PATT
         .word  _64___Temporal_Tower_9_30
@ 097   ----------------------------------------
        .byte   PATT
         .word  _64___Temporal_Tower_9_5
@ 098   ----------------------------------------
        .byte   PATT
         .word  _64___Temporal_Tower_9_30
@ 099   ----------------------------------------
        .byte   PATT
         .word  _64___Temporal_Tower_9_37
@ 100   ----------------------------------------
        .byte   PATT
         .word  _64___Temporal_Tower_9_38
@ 101   ----------------------------------------
        .byte   PATT
         .word  _64___Temporal_Tower_9_37
@ 102   ----------------------------------------
        .byte   PATT
         .word  _64___Temporal_Tower_9_40
@ 103   ----------------------------------------
        .byte   PATT
         .word  _64___Temporal_Tower_9_37
@ 104   ----------------------------------------
        .byte   PATT
         .word  _64___Temporal_Tower_9_38
@ 105   ----------------------------------------
        .byte   PATT
         .word  _64___Temporal_Tower_9_37
@ 106   ----------------------------------------
        .byte   PATT
         .word  _64___Temporal_Tower_9_44
@ 107   ----------------------------------------
        .byte   PATT
         .word  _64___Temporal_Tower_9_37
@ 108   ----------------------------------------
        .byte   PATT
         .word  _64___Temporal_Tower_9_46
@ 109   ----------------------------------------
        .byte   PATT
         .word  _64___Temporal_Tower_9_37
@ 110   ----------------------------------------
        .byte   PATT
         .word  _64___Temporal_Tower_9_46
@ 111   ----------------------------------------
        .byte   PATT
         .word  _64___Temporal_Tower_9_37
@ 112   ----------------------------------------
        .byte   PATT
         .word  _64___Temporal_Tower_9_46
@ 113   ----------------------------------------
        .byte   PATT
         .word  _64___Temporal_Tower_9_37
@ 114   ----------------------------------------
        .byte   PATT
         .word  _64___Temporal_Tower_9_46
@ 115   ----------------------------------------
        .byte   PATT
         .word  _64___Temporal_Tower_9_37
@ 116   ----------------------------------------
        .byte   PATT
         .word  _64___Temporal_Tower_9_46
@ 117   ----------------------------------------
        .byte   PATT
         .word  _64___Temporal_Tower_9_37
@ 118   ----------------------------------------
        .byte   PATT
         .word  _64___Temporal_Tower_9_46
@ 119   ----------------------------------------
        .byte   W96
@ 120   ----------------------------------------
        .byte   W96
@ 121   ----------------------------------------
        .byte   PATT
         .word  _64___Temporal_Tower_9_59
@ 122   ----------------------------------------
        .byte   PATT
         .word  _64___Temporal_Tower_9_60
@ 123   ----------------------------------------
        .byte   PATT
         .word  _64___Temporal_Tower_9_59
@ 124   ----------------------------------------
        .byte   PATT
         .word  _64___Temporal_Tower_9_60
@ 125   ----------------------------------------
        .byte   PATT
         .word  _64___Temporal_Tower_9_59
@ 126   ----------------------------------------
        .byte   PATT
         .word  _64___Temporal_Tower_9_60
@ 127   ----------------------------------------
        .byte   PATT
         .word  _64___Temporal_Tower_9_59
@ 128   ----------------------------------------
        .byte   PATT
         .word  _64___Temporal_Tower_9_60
@ 129   ----------------------------------------
        .byte   PATT
         .word  _64___Temporal_Tower_9_5
@ 130   ----------------------------------------
        .byte   PATT
         .word  _64___Temporal_Tower_9_6
@ 131   ----------------------------------------
        .byte   PATT
         .word  _64___Temporal_Tower_9_5
@ 132   ----------------------------------------
        .byte           N05   , Cn1 , v120
        .byte           N02   , Bn1 , v085
        .byte           N04   , En3 , v120
        .byte   W06
        .byte           N02   , Fs2 , v063
        .byte           N02   , Gs1 , v040
        .byte   W06
        .byte           N05   , En2 , v120
        .byte           N04   , Ds3
        .byte           N02   , Gs1
        .byte   W03
        .byte                   Gs1 , v040
        .byte   W03
        .byte           N05   , Cn1 , v120
        .byte           N02   , Fs2 , v063
        .byte           N04   , Cs3 , v120
        .byte           N02   , Gs1 , v100
        .byte   W03
        .byte                   Gs1 , v040
        .byte   W03
        .byte                   Bn1 , v085
        .byte           N04   , Cs3 , v120
        .byte           N05   , Gs1 , v080
        .byte   W06
        .byte           N02   , Fs2 , v063
        .byte           N04   , En3 , v120
        .byte           N05   , Gs1
        .byte   W06
        .byte                   Cn1
        .byte           N02   , Bn1 , v085
        .byte           N05   , Gs1 , v060
        .byte   W06
        .byte           N02   , Fs2 , v063
        .byte           N04   , Cs3 , v120
        .byte           N05   , Gs1 , v100
        .byte   W06
        .byte           N11   , En2 , v080
        .byte           N02   , Bn1 , v085
        .byte   W03
        .byte                   Gs1 , v040
        .byte   W03
        .byte                   Fs2 , v063
        .byte           N04   , Dn3 , v120
        .byte           N01   , Gs1 , v080
        .byte   W03
        .byte           N02   , Gs1 , v040
        .byte   W03
        .byte           N11   , En1 , v070
        .byte           N11   , Dn4 , v090
        .byte           N02   , Bn1 , v085
        .byte           N04   , Ds3 , v120
        .byte           N05   , Gs1
        .byte   W06
        .byte           N02   , Fs2 , v063
        .byte           N04   , Cs3 , v120
        .byte           N05   , Gs1 , v060
        .byte   W06
        .byte           N11   , En1 , v110
        .byte           N02   , Bn1 , v085
        .byte           N02   , Gs1 , v040
        .byte   W06
        .byte                   Fs2 , v063
        .byte           N02   , Gs1 , v040
        .byte   W03
        .byte           N01   , Gs1 , v080
        .byte   W03
        .byte           N11   , En2 , v120
        .byte           N04   , Dn3
        .byte           N05   , Gs1
        .byte   W06
        .byte           N04   , Ds3
        .byte           N05   , Gs1 , v080
        .byte   W05
        .byte   FINE

@***************** Track 10 (Midi-Chn.10) *****************@

_64___Temporal_Tower_10:
        .byte   KEYSH , _64___Temporal_Tower_key+0
@ 000   ----------------------------------------
        .byte   W24
@ 001   ----------------------------------------
        .byte           VOICE , 0
        .byte           VOL   , 83
        .byte   W96
@ 002   ----------------------------------------
        .byte   W96
@ 003   ----------------------------------------
_64___Temporal_Tower_10_3:
        .byte   W36
        .byte   W02
        .byte           VOICE , 52
        .byte   W01
        .byte           VOL   , 99
        .byte           PAN   , c_v+20
        .byte   W56
        .byte           VOL   , 45
        .byte   W01
        .byte   PEND
@ 004   ----------------------------------------
_64___Temporal_Tower_10_4:
        .byte           TIE   , En3 , v095
        .byte   W04
        .byte           VOL   , 49
        .byte   W03
        .byte                   52
        .byte   W02
        .byte                   53
        .byte   W01
        .byte                   54
        .byte   W02
        .byte                   55
        .byte   W01
        .byte                   57
        .byte   W02
        .byte                   58
        .byte   W01
        .byte                   59
        .byte   W02
        .byte                   60
        .byte   W03
        .byte                   62
        .byte   W03
        .byte                   64
        .byte   W01
        .byte                   65
        .byte   W02
        .byte                   66
        .byte   W01
        .byte                   67
        .byte   W02
        .byte                   68
        .byte   W01
        .byte                   70
        .byte   W02
        .byte                   71
        .byte   W01
        .byte                   72
        .byte   W02
        .byte                   73
        .byte   W01
        .byte                   74
        .byte   W02
        .byte                   76
        .byte   W01
        .byte                   77
        .byte   W03
        .byte                   78
        .byte   W02
        .byte                   79
        .byte   W01
        .byte                   80
        .byte   W02
        .byte                   81
        .byte   W01
        .byte                   83
        .byte   W02
        .byte                   84
        .byte   W01
        .byte                   85
        .byte   W02
        .byte                   86
        .byte   W01
        .byte                   87
        .byte   W02
        .byte                   89
        .byte   W01
        .byte                   90
        .byte   W02
        .byte                   91
        .byte   W01
        .byte                   92
        .byte   W02
        .byte                   93
        .byte   W01
        .byte                   94
        .byte   W03
        .byte                   96
        .byte   W02
        .byte                   97
        .byte   W01
        .byte                   99
        .byte   W08
        .byte                   94
        .byte   W03
        .byte                   92
        .byte   W01
        .byte                   90
        .byte   W02
        .byte                   89
        .byte   W01
        .byte                   87
        .byte   W02
        .byte                   85
        .byte   W01
        .byte                   84
        .byte   W02
        .byte                   82
        .byte   W01
        .byte                   80
        .byte   W02
        .byte                   79
        .byte   W01
        .byte                   77
        .byte   W02
        .byte   PEND
@ 005   ----------------------------------------
_64___Temporal_Tower_10_5:
        .byte           VOL   , 74
        .byte   W01
        .byte                   72
        .byte   W02
        .byte                   68
        .byte   W01
        .byte                   65
        .byte   W02
        .byte                   62
        .byte   W01
        .byte                   59
        .byte   W02
        .byte                   56
        .byte   W01
        .byte                   53
        .byte   W02
        .byte                   49
        .byte   W01
        .byte                   46
        .byte   W02
        .byte                   43
        .byte   W01
        .byte                   39
        .byte   W02
        .byte                   34
        .byte   W01
        .byte                   29
        .byte   W02
        .byte                   24
        .byte   W01
        .byte                   19
        .byte   W02
        .byte                   14
        .byte   W01
        .byte                   9
        .byte   W02
        .byte                   5
        .byte   W01
        .byte                   0
        .byte   W19
        .byte           EOT   , En3
        .byte   W48
        .byte   W01
        .byte   PEND
@ 006   ----------------------------------------
        .byte   W96
@ 007   ----------------------------------------
        .byte   W96
@ 008   ----------------------------------------
        .byte   W96
@ 009   ----------------------------------------
        .byte   W96
@ 010   ----------------------------------------
        .byte   W96
@ 011   ----------------------------------------
        .byte   W96
@ 012   ----------------------------------------
_64___Temporal_Tower_10_12:
        .byte   W08
        .byte           VOICE , 46
        .byte   W01
        .byte           PAN   , c_v-50
        .byte           VOL   , 105
        .byte   W84
        .byte   W03
        .byte   PEND
@ 013   ----------------------------------------
_64___Temporal_Tower_10_13:
        .byte   W30
        .byte           N03   , En3 , v065
        .byte   W42
        .byte                   En3 , v045
        .byte   W24
        .byte   PEND
@ 014   ----------------------------------------
_64___Temporal_Tower_10_14:
        .byte   W12
        .byte           N03   , An3 , v065
        .byte   W30
        .byte                   En3 , v045
        .byte   W30
        .byte                   An2
        .byte   W24
        .byte   PEND
@ 015   ----------------------------------------
_64___Temporal_Tower_10_15:
        .byte   W30
        .byte           N03   , An2 , v065
        .byte   W42
        .byte                   An2 , v045
        .byte   W24
        .byte   PEND
@ 016   ----------------------------------------
_64___Temporal_Tower_10_16:
        .byte   W12
        .byte           N03   , An3 , v065
        .byte   W30
        .byte                   Dn3 , v045
        .byte   W30
        .byte                   An3
        .byte   W24
        .byte   PEND
@ 017   ----------------------------------------
        .byte   PATT
         .word  _64___Temporal_Tower_10_13
@ 018   ----------------------------------------
        .byte   PATT
         .word  _64___Temporal_Tower_10_14
@ 019   ----------------------------------------
        .byte   PATT
         .word  _64___Temporal_Tower_10_15
@ 020   ----------------------------------------
        .byte   PATT
         .word  _64___Temporal_Tower_10_16
@ 021   ----------------------------------------
        .byte   W96
@ 022   ----------------------------------------
        .byte   W96
@ 023   ----------------------------------------
        .byte   W96
@ 024   ----------------------------------------
        .byte   W96
@ 025   ----------------------------------------
        .byte   W96
@ 026   ----------------------------------------
        .byte   W96
@ 027   ----------------------------------------
        .byte   W96
@ 028   ----------------------------------------
        .byte   W96
@ 029   ----------------------------------------
        .byte   W96
@ 030   ----------------------------------------
        .byte   W96
@ 031   ----------------------------------------
        .byte   W96
@ 032   ----------------------------------------
        .byte   W96
@ 033   ----------------------------------------
        .byte   W96
@ 034   ----------------------------------------
        .byte   W96
@ 035   ----------------------------------------
        .byte   W96
@ 036   ----------------------------------------
        .byte   W96
@ 037   ----------------------------------------
        .byte   PATT
         .word  _64___Temporal_Tower_10_13
@ 038   ----------------------------------------
        .byte   PATT
         .word  _64___Temporal_Tower_10_14
@ 039   ----------------------------------------
        .byte   PATT
         .word  _64___Temporal_Tower_10_15
@ 040   ----------------------------------------
        .byte   PATT
         .word  _64___Temporal_Tower_10_16
@ 041   ----------------------------------------
        .byte   PATT
         .word  _64___Temporal_Tower_10_13
@ 042   ----------------------------------------
        .byte   PATT
         .word  _64___Temporal_Tower_10_14
@ 043   ----------------------------------------
        .byte   PATT
         .word  _64___Temporal_Tower_10_15
@ 044   ----------------------------------------
        .byte   PATT
         .word  _64___Temporal_Tower_10_16
@ 045   ----------------------------------------
        .byte   W96
@ 046   ----------------------------------------
        .byte   W96
@ 047   ----------------------------------------
        .byte   W96
@ 048   ----------------------------------------
        .byte   W96
@ 049   ----------------------------------------
        .byte   W96
@ 050   ----------------------------------------
        .byte   PATT
         .word  _64___Temporal_Tower_7_12
@ 051   ----------------------------------------
        .byte   PATT
         .word  _64___Temporal_Tower_7_13
@ 052   ----------------------------------------
        .byte   PATT
         .word  _64___Temporal_Tower_7_14
@ 053   ----------------------------------------
        .byte   PATT
         .word  _64___Temporal_Tower_7_15
@ 054   ----------------------------------------
        .byte   PATT
         .word  _64___Temporal_Tower_7_16
@ 055   ----------------------------------------
        .byte   PATT
         .word  _64___Temporal_Tower_7_13
@ 056   ----------------------------------------
        .byte   PATT
         .word  _64___Temporal_Tower_7_14
@ 057   ----------------------------------------
        .byte   PATT
         .word  _64___Temporal_Tower_7_15
@ 058   ----------------------------------------
        .byte   PATT
         .word  _64___Temporal_Tower_7_16
@ 059   ----------------------------------------
        .byte   W96
@ 060   ----------------------------------------
        .byte   W96
@ 061   ----------------------------------------
        .byte   W96
@ 062   ----------------------------------------
        .byte   W96
@ 063   ----------------------------------------
        .byte   W96
@ 064   ----------------------------------------
        .byte   W96
@ 065   ----------------------------------------
        .byte   PATT
         .word  _64___Temporal_Tower_10_3
@ 066   ----------------------------------------
        .byte   PATT
         .word  _64___Temporal_Tower_10_4
@ 067   ----------------------------------------
        .byte   PATT
         .word  _64___Temporal_Tower_10_5
@ 068   ----------------------------------------
        .byte   W96
@ 069   ----------------------------------------
        .byte   W96
@ 070   ----------------------------------------
        .byte   W96
@ 071   ----------------------------------------
        .byte   W96
@ 072   ----------------------------------------
        .byte   W96
@ 073   ----------------------------------------
        .byte   W96
@ 074   ----------------------------------------
        .byte   PATT
         .word  _64___Temporal_Tower_10_12
@ 075   ----------------------------------------
        .byte   PATT
         .word  _64___Temporal_Tower_10_13
@ 076   ----------------------------------------
        .byte   PATT
         .word  _64___Temporal_Tower_10_14
@ 077   ----------------------------------------
        .byte   PATT
         .word  _64___Temporal_Tower_10_15
@ 078   ----------------------------------------
        .byte   PATT
         .word  _64___Temporal_Tower_10_16
@ 079   ----------------------------------------
        .byte   PATT
         .word  _64___Temporal_Tower_10_13
@ 080   ----------------------------------------
        .byte   PATT
         .word  _64___Temporal_Tower_10_14
@ 081   ----------------------------------------
        .byte   PATT
         .word  _64___Temporal_Tower_10_15
@ 082   ----------------------------------------
        .byte   PATT
         .word  _64___Temporal_Tower_10_16
@ 083   ----------------------------------------
        .byte   W96
@ 084   ----------------------------------------
        .byte   W96
@ 085   ----------------------------------------
        .byte   W96
@ 086   ----------------------------------------
        .byte   W96
@ 087   ----------------------------------------
        .byte   W96
@ 088   ----------------------------------------
        .byte   W96
@ 089   ----------------------------------------
        .byte   W96
@ 090   ----------------------------------------
        .byte   W96
@ 091   ----------------------------------------
        .byte   W96
@ 092   ----------------------------------------
        .byte   W96
@ 093   ----------------------------------------
        .byte   W96
@ 094   ----------------------------------------
        .byte   W96
@ 095   ----------------------------------------
        .byte   W96
@ 096   ----------------------------------------
        .byte   W96
@ 097   ----------------------------------------
        .byte   W96
@ 098   ----------------------------------------
        .byte   W96
@ 099   ----------------------------------------
        .byte   PATT
         .word  _64___Temporal_Tower_10_13
@ 100   ----------------------------------------
        .byte   PATT
         .word  _64___Temporal_Tower_10_14
@ 101   ----------------------------------------
        .byte   PATT
         .word  _64___Temporal_Tower_10_15
@ 102   ----------------------------------------
        .byte   PATT
         .word  _64___Temporal_Tower_10_16
@ 103   ----------------------------------------
        .byte   PATT
         .word  _64___Temporal_Tower_10_13
@ 104   ----------------------------------------
        .byte   PATT
         .word  _64___Temporal_Tower_10_14
@ 105   ----------------------------------------
        .byte   PATT
         .word  _64___Temporal_Tower_10_15
@ 106   ----------------------------------------
        .byte   PATT
         .word  _64___Temporal_Tower_10_16
@ 107   ----------------------------------------
        .byte   W96
@ 108   ----------------------------------------
        .byte   W96
@ 109   ----------------------------------------
        .byte   W96
@ 110   ----------------------------------------
        .byte   W96
@ 111   ----------------------------------------
        .byte   W96
@ 112   ----------------------------------------
        .byte   PATT
         .word  _64___Temporal_Tower_7_12
@ 113   ----------------------------------------
        .byte   PATT
         .word  _64___Temporal_Tower_7_13
@ 114   ----------------------------------------
        .byte   PATT
         .word  _64___Temporal_Tower_7_14
@ 115   ----------------------------------------
        .byte   PATT
         .word  _64___Temporal_Tower_7_15
@ 116   ----------------------------------------
        .byte   PATT
         .word  _64___Temporal_Tower_7_16
@ 117   ----------------------------------------
        .byte   PATT
         .word  _64___Temporal_Tower_7_13
@ 118   ----------------------------------------
        .byte   PATT
         .word  _64___Temporal_Tower_7_14
@ 119   ----------------------------------------
        .byte   PATT
         .word  _64___Temporal_Tower_7_15
@ 120   ----------------------------------------
        .byte   PATT
         .word  _64___Temporal_Tower_7_16
@ 121   ----------------------------------------
        .byte   W96
@ 122   ----------------------------------------
        .byte   W96
@ 123   ----------------------------------------
        .byte   W96
@ 124   ----------------------------------------
        .byte   W96
@ 125   ----------------------------------------
        .byte   W96
@ 126   ----------------------------------------
        .byte   W96
@ 127   ----------------------------------------
        .byte   PATT
         .word  _64___Temporal_Tower_10_3
@ 128   ----------------------------------------
        .byte   PATT
         .word  _64___Temporal_Tower_10_4
@ 129   ----------------------------------------
        .byte   PATT
         .word  _64___Temporal_Tower_10_5
@ 130   ----------------------------------------
        .byte   W96
@ 131   ----------------------------------------
        .byte   W96
@ 132   ----------------------------------------
        .byte   W92
        .byte   W03
        .byte   FINE

@***************** Track 11 (Midi-Chn.11) *****************@

_64___Temporal_Tower_11:
        .byte   KEYSH , _64___Temporal_Tower_key+0
@ 000   ----------------------------------------
        .byte   W24
@ 001   ----------------------------------------
        .byte           VOICE , 0
        .byte           VOL   , 83
        .byte   W96
@ 002   ----------------------------------------
        .byte   W96
@ 003   ----------------------------------------
        .byte   W36
        .byte   W02
        .byte           VOICE , 52
        .byte   W01
        .byte           VOL   , 99
        .byte           PAN   , c_v+40
        .byte   W56
        .byte           VOL   , 45
        .byte   W01
@ 004   ----------------------------------------
_64___Temporal_Tower_11_4:
        .byte           TIE   , Dn3 , v095
        .byte   W04
        .byte           VOL   , 49
        .byte   W03
        .byte                   52
        .byte   W02
        .byte                   53
        .byte   W01
        .byte                   54
        .byte   W02
        .byte                   55
        .byte   W01
        .byte                   57
        .byte   W02
        .byte                   58
        .byte   W01
        .byte                   59
        .byte   W02
        .byte                   60
        .byte   W03
        .byte                   62
        .byte   W03
        .byte                   64
        .byte   W01
        .byte                   65
        .byte   W02
        .byte                   66
        .byte   W01
        .byte                   67
        .byte   W02
        .byte                   68
        .byte   W01
        .byte                   70
        .byte   W02
        .byte                   71
        .byte   W01
        .byte                   72
        .byte   W02
        .byte                   73
        .byte   W01
        .byte                   74
        .byte   W02
        .byte                   76
        .byte   W01
        .byte                   77
        .byte   W03
        .byte                   78
        .byte   W02
        .byte                   79
        .byte   W01
        .byte                   80
        .byte   W02
        .byte                   81
        .byte   W01
        .byte                   83
        .byte   W02
        .byte                   84
        .byte   W01
        .byte                   85
        .byte   W02
        .byte                   86
        .byte   W01
        .byte                   87
        .byte   W02
        .byte                   89
        .byte   W01
        .byte                   90
        .byte   W02
        .byte                   91
        .byte   W01
        .byte                   92
        .byte   W02
        .byte                   93
        .byte   W01
        .byte                   94
        .byte   W03
        .byte                   96
        .byte   W02
        .byte                   97
        .byte   W01
        .byte                   99
        .byte   W08
        .byte                   94
        .byte   W03
        .byte                   92
        .byte   W01
        .byte                   90
        .byte   W02
        .byte                   89
        .byte   W01
        .byte                   87
        .byte   W02
        .byte                   85
        .byte   W01
        .byte                   84
        .byte   W02
        .byte                   82
        .byte   W01
        .byte                   80
        .byte   W02
        .byte                   79
        .byte   W01
        .byte                   77
        .byte   W02
        .byte   PEND
@ 005   ----------------------------------------
_64___Temporal_Tower_11_5:
        .byte           VOL   , 74
        .byte   W01
        .byte                   72
        .byte   W02
        .byte                   68
        .byte   W01
        .byte                   65
        .byte   W02
        .byte                   62
        .byte   W01
        .byte                   59
        .byte   W02
        .byte                   56
        .byte   W01
        .byte                   53
        .byte   W02
        .byte                   49
        .byte   W01
        .byte                   46
        .byte   W02
        .byte                   43
        .byte   W01
        .byte                   39
        .byte   W02
        .byte                   34
        .byte   W01
        .byte                   29
        .byte   W02
        .byte                   24
        .byte   W01
        .byte                   19
        .byte   W02
        .byte                   14
        .byte   W01
        .byte                   9
        .byte   W02
        .byte                   5
        .byte   W01
        .byte                   0
        .byte   W19
        .byte           EOT   , Dn3
        .byte   W48
        .byte   W01
        .byte   PEND
@ 006   ----------------------------------------
        .byte   W96
@ 007   ----------------------------------------
        .byte   W96
@ 008   ----------------------------------------
        .byte   W96
@ 009   ----------------------------------------
        .byte   W96
@ 010   ----------------------------------------
        .byte   W96
@ 011   ----------------------------------------
        .byte   W96
@ 012   ----------------------------------------
_64___Temporal_Tower_11_12:
        .byte   W14
        .byte           VOICE , 46
        .byte   W01
        .byte           PAN   , c_v+53
        .byte           VOL   , 105
        .byte   W80
        .byte   W01
        .byte   PEND
@ 013   ----------------------------------------
_64___Temporal_Tower_11_13:
        .byte   W12
        .byte           N03   , Bn3 , v065
        .byte   W30
        .byte                   Dn3 , v045
        .byte   W18
        .byte                   En3 , v065
        .byte   W36
        .byte   PEND
@ 014   ----------------------------------------
_64___Temporal_Tower_11_14:
        .byte   W30
        .byte           N03   , Dn3 , v065
        .byte   W30
        .byte                   An2
        .byte   W36
        .byte   PEND
@ 015   ----------------------------------------
_64___Temporal_Tower_11_15:
        .byte   W12
        .byte           N03   , En3 , v065
        .byte   W30
        .byte                   Gn2 , v045
        .byte   W18
        .byte                   An2 , v065
        .byte   W36
        .byte   PEND
@ 016   ----------------------------------------
_64___Temporal_Tower_11_16:
        .byte   W30
        .byte           N03   , Dn3 , v065
        .byte   W30
        .byte                   An3
        .byte   W36
        .byte   PEND
@ 017   ----------------------------------------
        .byte   PATT
         .word  _64___Temporal_Tower_11_13
@ 018   ----------------------------------------
        .byte   PATT
         .word  _64___Temporal_Tower_11_14
@ 019   ----------------------------------------
        .byte   PATT
         .word  _64___Temporal_Tower_11_15
@ 020   ----------------------------------------
        .byte   PATT
         .word  _64___Temporal_Tower_11_16
@ 021   ----------------------------------------
        .byte   W96
@ 022   ----------------------------------------
        .byte   W96
@ 023   ----------------------------------------
        .byte   W96
@ 024   ----------------------------------------
        .byte   W96
@ 025   ----------------------------------------
        .byte   W96
@ 026   ----------------------------------------
        .byte   W96
@ 027   ----------------------------------------
        .byte   W96
@ 028   ----------------------------------------
        .byte   W96
@ 029   ----------------------------------------
        .byte   W96
@ 030   ----------------------------------------
        .byte   W96
@ 031   ----------------------------------------
        .byte   W96
@ 032   ----------------------------------------
        .byte   W96
@ 033   ----------------------------------------
        .byte   W96
@ 034   ----------------------------------------
        .byte   W96
@ 035   ----------------------------------------
        .byte   W96
@ 036   ----------------------------------------
        .byte   W96
@ 037   ----------------------------------------
        .byte   PATT
         .word  _64___Temporal_Tower_11_13
@ 038   ----------------------------------------
        .byte   PATT
         .word  _64___Temporal_Tower_11_14
@ 039   ----------------------------------------
        .byte   PATT
         .word  _64___Temporal_Tower_11_15
@ 040   ----------------------------------------
        .byte   PATT
         .word  _64___Temporal_Tower_11_16
@ 041   ----------------------------------------
        .byte   PATT
         .word  _64___Temporal_Tower_11_13
@ 042   ----------------------------------------
        .byte   PATT
         .word  _64___Temporal_Tower_11_14
@ 043   ----------------------------------------
        .byte   PATT
         .word  _64___Temporal_Tower_11_15
@ 044   ----------------------------------------
        .byte   PATT
         .word  _64___Temporal_Tower_11_16
@ 045   ----------------------------------------
        .byte   W96
@ 046   ----------------------------------------
        .byte   W96
@ 047   ----------------------------------------
        .byte   W96
@ 048   ----------------------------------------
        .byte   W96
@ 049   ----------------------------------------
        .byte   W96
@ 050   ----------------------------------------
        .byte   PATT
         .word  _64___Temporal_Tower_8_12
@ 051   ----------------------------------------
        .byte   PATT
         .word  _64___Temporal_Tower_8_13
@ 052   ----------------------------------------
        .byte   PATT
         .word  _64___Temporal_Tower_8_14
@ 053   ----------------------------------------
        .byte   PATT
         .word  _64___Temporal_Tower_8_15
@ 054   ----------------------------------------
        .byte   PATT
         .word  _64___Temporal_Tower_8_16
@ 055   ----------------------------------------
        .byte   PATT
         .word  _64___Temporal_Tower_8_13
@ 056   ----------------------------------------
        .byte   PATT
         .word  _64___Temporal_Tower_8_14
@ 057   ----------------------------------------
        .byte   PATT
         .word  _64___Temporal_Tower_8_15
@ 058   ----------------------------------------
        .byte   PATT
         .word  _64___Temporal_Tower_8_16
@ 059   ----------------------------------------
        .byte   W96
@ 060   ----------------------------------------
        .byte   W96
@ 061   ----------------------------------------
        .byte   W96
@ 062   ----------------------------------------
        .byte   W96
@ 063   ----------------------------------------
        .byte   W96
@ 064   ----------------------------------------
        .byte   W96
@ 065   ----------------------------------------
_64___Temporal_Tower_11_65:
        .byte   W36
        .byte   W02
        .byte           VOICE , 52
        .byte   W01
        .byte           VOL   , 99
        .byte           PAN   , c_v+10
        .byte   W56
        .byte           VOL   , 45
        .byte   W01
        .byte   PEND
@ 066   ----------------------------------------
        .byte   PATT
         .word  _64___Temporal_Tower_11_4
@ 067   ----------------------------------------
        .byte   PATT
         .word  _64___Temporal_Tower_11_5
@ 068   ----------------------------------------
        .byte   W96
@ 069   ----------------------------------------
        .byte   W96
@ 070   ----------------------------------------
        .byte   W96
@ 071   ----------------------------------------
        .byte   W96
@ 072   ----------------------------------------
        .byte   W96
@ 073   ----------------------------------------
        .byte   W96
@ 074   ----------------------------------------
        .byte   PATT
         .word  _64___Temporal_Tower_11_12
@ 075   ----------------------------------------
        .byte   PATT
         .word  _64___Temporal_Tower_11_13
@ 076   ----------------------------------------
        .byte   PATT
         .word  _64___Temporal_Tower_11_14
@ 077   ----------------------------------------
        .byte   PATT
         .word  _64___Temporal_Tower_11_15
@ 078   ----------------------------------------
        .byte   PATT
         .word  _64___Temporal_Tower_11_16
@ 079   ----------------------------------------
        .byte   PATT
         .word  _64___Temporal_Tower_11_13
@ 080   ----------------------------------------
        .byte   PATT
         .word  _64___Temporal_Tower_11_14
@ 081   ----------------------------------------
        .byte   PATT
         .word  _64___Temporal_Tower_11_15
@ 082   ----------------------------------------
        .byte   PATT
         .word  _64___Temporal_Tower_11_16
@ 083   ----------------------------------------
        .byte   W96
@ 084   ----------------------------------------
        .byte   W96
@ 085   ----------------------------------------
        .byte   W96
@ 086   ----------------------------------------
        .byte   W96
@ 087   ----------------------------------------
        .byte   W96
@ 088   ----------------------------------------
        .byte   W96
@ 089   ----------------------------------------
        .byte   W96
@ 090   ----------------------------------------
        .byte   W96
@ 091   ----------------------------------------
        .byte   W96
@ 092   ----------------------------------------
        .byte   W96
@ 093   ----------------------------------------
        .byte   W96
@ 094   ----------------------------------------
        .byte   W96
@ 095   ----------------------------------------
        .byte   W96
@ 096   ----------------------------------------
        .byte   W96
@ 097   ----------------------------------------
        .byte   W96
@ 098   ----------------------------------------
        .byte   W96
@ 099   ----------------------------------------
        .byte   PATT
         .word  _64___Temporal_Tower_11_13
@ 100   ----------------------------------------
        .byte   PATT
         .word  _64___Temporal_Tower_11_14
@ 101   ----------------------------------------
        .byte   PATT
         .word  _64___Temporal_Tower_11_15
@ 102   ----------------------------------------
        .byte   PATT
         .word  _64___Temporal_Tower_11_16
@ 103   ----------------------------------------
        .byte   PATT
         .word  _64___Temporal_Tower_11_13
@ 104   ----------------------------------------
        .byte   PATT
         .word  _64___Temporal_Tower_11_14
@ 105   ----------------------------------------
        .byte   PATT
         .word  _64___Temporal_Tower_11_15
@ 106   ----------------------------------------
        .byte   PATT
         .word  _64___Temporal_Tower_11_16
@ 107   ----------------------------------------
        .byte   W96
@ 108   ----------------------------------------
        .byte   W96
@ 109   ----------------------------------------
        .byte   W96
@ 110   ----------------------------------------
        .byte   W96
@ 111   ----------------------------------------
        .byte   W96
@ 112   ----------------------------------------
        .byte   PATT
         .word  _64___Temporal_Tower_8_12
@ 113   ----------------------------------------
        .byte   PATT
         .word  _64___Temporal_Tower_8_13
@ 114   ----------------------------------------
        .byte   PATT
         .word  _64___Temporal_Tower_8_14
@ 115   ----------------------------------------
        .byte   PATT
         .word  _64___Temporal_Tower_8_15
@ 116   ----------------------------------------
        .byte   PATT
         .word  _64___Temporal_Tower_8_16
@ 117   ----------------------------------------
        .byte   PATT
         .word  _64___Temporal_Tower_8_13
@ 118   ----------------------------------------
        .byte   PATT
         .word  _64___Temporal_Tower_8_14
@ 119   ----------------------------------------
        .byte   PATT
         .word  _64___Temporal_Tower_8_15
@ 120   ----------------------------------------
        .byte   PATT
         .word  _64___Temporal_Tower_8_16
@ 121   ----------------------------------------
        .byte   W96
@ 122   ----------------------------------------
        .byte   W96
@ 123   ----------------------------------------
        .byte   W96
@ 124   ----------------------------------------
        .byte   W96
@ 125   ----------------------------------------
        .byte   W96
@ 126   ----------------------------------------
        .byte   W96
@ 127   ----------------------------------------
        .byte   PATT
         .word  _64___Temporal_Tower_11_65
@ 128   ----------------------------------------
        .byte   PATT
         .word  _64___Temporal_Tower_11_4
@ 129   ----------------------------------------
        .byte   PATT
         .word  _64___Temporal_Tower_11_5
@ 130   ----------------------------------------
        .byte   W96
@ 131   ----------------------------------------
        .byte   W96
@ 132   ----------------------------------------
        .byte   W92
        .byte   W03
        .byte   FINE


@********************** End of Song ***********************@

        .align  2
_64___Temporal_Tower:
        .byte   12                      @ Num Tracks
        .byte   0                       @ Unknown
        .byte   _64___Temporal_Tower_pri @ Priority
        .byte   _64___Temporal_Tower_rev @ Reverb

        .word   _64___Temporal_Tower_grp

        .word   _64___Temporal_Tower_0
        .word   _64___Temporal_Tower_1
        .word   _64___Temporal_Tower_2
        .word   _64___Temporal_Tower_3
        .word   _64___Temporal_Tower_4
        .word   _64___Temporal_Tower_5
        .word   _64___Temporal_Tower_6
        .word   _64___Temporal_Tower_7
        .word   _64___Temporal_Tower_8
        .word   _64___Temporal_Tower_9
        .word   _64___Temporal_Tower_10
        .word   _64___Temporal_Tower_11

        .end
