//Event file generated from Sappy .s format.
        #include "MPlayDef.event"

        #define    _00___Random_Dungeon_Theme_3_grp  voicegroup000
        #define    _00___Random_Dungeon_Theme_3_pri  0
        #define    _00___Random_Dungeon_Theme_3_rev  0
        #define    _00___Random_Dungeon_Theme_3_key  0

        // .rodata
        // _00___Random_Dungeon_Theme_3
        ALIGN 4

//****************** Track 0 (Midi-Chn.0) ******************//

_00___Random_Dungeon_Theme_3_0:
        BYTE   KEYSH   _00___Random_Dungeon_Theme_3_key+0
// 000   ----------------------------------------
        BYTE   W24
// 001   ----------------------------------------
        BYTE   TEMPO   132/2
        BYTE           VOL     91
        BYTE           VOICE   48
        BYTE           N06     Dn1   v127
        BYTE   W36
        BYTE                   Dn1
        BYTE   W24
        BYTE                   Dn1
        BYTE   W24
        BYTE                   Dn1
        BYTE   W12
// 002   ----------------------------------------
_00___Random_Dungeon_Theme_3_0_2:
        BYTE           N06     Dn1   v127
        BYTE   W36
        BYTE                   Dn1
        BYTE   W24
        BYTE                   Dn1
        BYTE   W24
        BYTE                   Dn1
        BYTE   W12
        BYTE   PEND
// 003   ----------------------------------------
        BYTE   PATT
         POIN2  _00___Random_Dungeon_Theme_3_0_2
// 004   ----------------------------------------
        BYTE   PATT
         POIN2  _00___Random_Dungeon_Theme_3_0_2
// 005   ----------------------------------------
        BYTE   PATT
         POIN2  _00___Random_Dungeon_Theme_3_0_2
// 006   ----------------------------------------
        BYTE   PATT
         POIN2  _00___Random_Dungeon_Theme_3_0_2
// 007   ----------------------------------------
        BYTE   PATT
         POIN2  _00___Random_Dungeon_Theme_3_0_2
// 008   ----------------------------------------
        BYTE   PATT
         POIN2  _00___Random_Dungeon_Theme_3_0_2
// 009   ----------------------------------------
        BYTE   PATT
         POIN2  _00___Random_Dungeon_Theme_3_0_2
// 010   ----------------------------------------
        BYTE   PATT
         POIN2  _00___Random_Dungeon_Theme_3_0_2
// 011   ----------------------------------------
_00___Random_Dungeon_Theme_3_0_11:
        BYTE           N06     Gn1   v127
        BYTE   W36
        BYTE                   Dn1
        BYTE   W24
        BYTE                   Dn1
        BYTE   W24
        BYTE                   Dn1
        BYTE   W12
        BYTE   PEND
// 012   ----------------------------------------
        BYTE   PATT
         POIN2  _00___Random_Dungeon_Theme_3_0_2
// 013   ----------------------------------------
        BYTE   PATT
         POIN2  _00___Random_Dungeon_Theme_3_0_2
// 014   ----------------------------------------
        BYTE   PATT
         POIN2  _00___Random_Dungeon_Theme_3_0_2
// 015   ----------------------------------------
        BYTE   PATT
         POIN2  _00___Random_Dungeon_Theme_3_0_2
// 016   ----------------------------------------
        BYTE   PATT
         POIN2  _00___Random_Dungeon_Theme_3_0_2
// 017   ----------------------------------------
        BYTE   PATT
         POIN2  _00___Random_Dungeon_Theme_3_0_2
// 018   ----------------------------------------
        BYTE   PATT
         POIN2  _00___Random_Dungeon_Theme_3_0_2
// 019   ----------------------------------------
        BYTE   PATT
         POIN2  _00___Random_Dungeon_Theme_3_0_11
// 020   ----------------------------------------
        BYTE   PATT
         POIN2  _00___Random_Dungeon_Theme_3_0_2
// 021   ----------------------------------------
_00___Random_Dungeon_Theme_3_0_21:
        BYTE           N06     Gn1   v127
        BYTE   W36
        BYTE                   Dn1
        BYTE   W36
        BYTE                   An1
        BYTE   W12
        BYTE                   An1
        BYTE   W12
        BYTE   PEND
// 022   ----------------------------------------
_00___Random_Dungeon_Theme_3_0_22:
        BYTE           N06     An1   v127
        BYTE   W36
        BYTE                   An1
        BYTE   W24
        BYTE                   An1
        BYTE   W24
        BYTE                   An1
        BYTE   W12
        BYTE   PEND
// 023   ----------------------------------------
_00___Random_Dungeon_Theme_3_0_23:
        BYTE           N06     Gn1   v105
        BYTE   W24
        BYTE                   Gn1
        BYTE   W24
        BYTE                   Gn1
        BYTE   W24
        BYTE                   Gn1
        BYTE   W24
        BYTE   PEND
// 024   ----------------------------------------
        BYTE   PATT
         POIN2  _00___Random_Dungeon_Theme_3_0_23
// 025   ----------------------------------------
_00___Random_Dungeon_Theme_3_0_25:
        BYTE           N06     Fn1   v105
        BYTE   W24
        BYTE                   Fn1
        BYTE   W24
        BYTE                   Fn1
        BYTE   W24
        BYTE                   Fn1
        BYTE   W24
        BYTE   PEND
// 026   ----------------------------------------
        BYTE   PATT
         POIN2  _00___Random_Dungeon_Theme_3_0_25
// 027   ----------------------------------------
_00___Random_Dungeon_Theme_3_0_27:
        BYTE           N06     Ds1   v105
        BYTE   W24
        BYTE                   Ds1
        BYTE   W24
        BYTE                   Ds1
        BYTE   W24
        BYTE                   Ds1
        BYTE   W24
        BYTE   PEND
// 028   ----------------------------------------
        BYTE   PATT
         POIN2  _00___Random_Dungeon_Theme_3_0_27
// 029   ----------------------------------------
_00___Random_Dungeon_Theme_3_0_29:
        BYTE           N06     Cs1   v105
        BYTE   W24
        BYTE                   Cs1
        BYTE   W24
        BYTE                   Cs1
        BYTE   W24
        BYTE                   Cs1
        BYTE   W24
        BYTE   PEND
// 030   ----------------------------------------
        BYTE   PATT
         POIN2  _00___Random_Dungeon_Theme_3_0_29
// 031   ----------------------------------------
_00___Random_Dungeon_Theme_3_0_31:
        BYTE           N06     Cn1   v127
        BYTE   W36
        BYTE                   Cn1
        BYTE   W24
        BYTE                   Cn1
        BYTE   W24
        BYTE                   Cn1
        BYTE   W12
        BYTE   PEND
// 032   ----------------------------------------
        BYTE   PATT
         POIN2  _00___Random_Dungeon_Theme_3_0_31
// 033   ----------------------------------------
_00___Random_Dungeon_Theme_3_0_33:
        BYTE           N06     As0   v127
        BYTE   W36
        BYTE                   As0
        BYTE   W24
        BYTE                   As0
        BYTE   W24
        BYTE                   As0
        BYTE   W12
        BYTE   PEND
// 034   ----------------------------------------
        BYTE   PATT
         POIN2  _00___Random_Dungeon_Theme_3_0_33
// 035   ----------------------------------------
_00___Random_Dungeon_Theme_3_0_35:
        BYTE           N06     Ds1   v127
        BYTE   W36
        BYTE                   Ds1
        BYTE   W24
        BYTE                   Ds1
        BYTE   W24
        BYTE                   Ds1
        BYTE   W12
        BYTE   PEND
// 036   ----------------------------------------
_00___Random_Dungeon_Theme_3_0_36:
        BYTE           N06     Fn1   v127
        BYTE   W36
        BYTE                   Fn1
        BYTE   W24
        BYTE                   Fn1
        BYTE   W24
        BYTE                   Fn1
        BYTE   W12
        BYTE   PEND
// 037   ----------------------------------------
_00___Random_Dungeon_Theme_3_0_37:
        BYTE           N06     Gs1   v127
        BYTE   W36
        BYTE                   Gs1
        BYTE   W24
        BYTE                   Gs1
        BYTE   W24
        BYTE                   Gs1
        BYTE   W12
        BYTE   PEND
// 038   ----------------------------------------
_00___Random_Dungeon_Theme_3_0_38:
        BYTE           N06     As1   v127
        BYTE   W36
        BYTE                   As1
        BYTE   W12
        BYTE                   Cn2
        BYTE   W36
        BYTE                   Cn2
        BYTE   W12
        BYTE   PEND
// 039   ----------------------------------------
        BYTE   PATT
         POIN2  _00___Random_Dungeon_Theme_3_0_2
// 040   ----------------------------------------
        BYTE   PATT
         POIN2  _00___Random_Dungeon_Theme_3_0_2
// 041   ----------------------------------------
        BYTE   PATT
         POIN2  _00___Random_Dungeon_Theme_3_0_2
// 042   ----------------------------------------
        BYTE   PATT
         POIN2  _00___Random_Dungeon_Theme_3_0_2
// 043   ----------------------------------------
        BYTE   PATT
         POIN2  _00___Random_Dungeon_Theme_3_0_2
// 044   ----------------------------------------
        BYTE   PATT
         POIN2  _00___Random_Dungeon_Theme_3_0_2
// 045   ----------------------------------------
        BYTE   PATT
         POIN2  _00___Random_Dungeon_Theme_3_0_2
// 046   ----------------------------------------
        BYTE   PATT
         POIN2  _00___Random_Dungeon_Theme_3_0_2
// 047   ----------------------------------------
        BYTE   PATT
         POIN2  _00___Random_Dungeon_Theme_3_0_2
// 048   ----------------------------------------
        BYTE   PATT
         POIN2  _00___Random_Dungeon_Theme_3_0_2
// 049   ----------------------------------------
        BYTE   PATT
         POIN2  _00___Random_Dungeon_Theme_3_0_11
// 050   ----------------------------------------
        BYTE   PATT
         POIN2  _00___Random_Dungeon_Theme_3_0_2
// 051   ----------------------------------------
        BYTE   PATT
         POIN2  _00___Random_Dungeon_Theme_3_0_2
// 052   ----------------------------------------
        BYTE   PATT
         POIN2  _00___Random_Dungeon_Theme_3_0_2
// 053   ----------------------------------------
        BYTE   PATT
         POIN2  _00___Random_Dungeon_Theme_3_0_2
// 054   ----------------------------------------
        BYTE   PATT
         POIN2  _00___Random_Dungeon_Theme_3_0_2
// 055   ----------------------------------------
        BYTE   PATT
         POIN2  _00___Random_Dungeon_Theme_3_0_2
// 056   ----------------------------------------
        BYTE   PATT
         POIN2  _00___Random_Dungeon_Theme_3_0_2
// 057   ----------------------------------------
        BYTE   PATT
         POIN2  _00___Random_Dungeon_Theme_3_0_11
// 058   ----------------------------------------
        BYTE   PATT
         POIN2  _00___Random_Dungeon_Theme_3_0_2
// 059   ----------------------------------------
        BYTE   PATT
         POIN2  _00___Random_Dungeon_Theme_3_0_21
// 060   ----------------------------------------
        BYTE   PATT
         POIN2  _00___Random_Dungeon_Theme_3_0_22
// 061   ----------------------------------------
        BYTE   PATT
         POIN2  _00___Random_Dungeon_Theme_3_0_23
// 062   ----------------------------------------
        BYTE   PATT
         POIN2  _00___Random_Dungeon_Theme_3_0_23
// 063   ----------------------------------------
        BYTE   PATT
         POIN2  _00___Random_Dungeon_Theme_3_0_25
// 064   ----------------------------------------
        BYTE   PATT
         POIN2  _00___Random_Dungeon_Theme_3_0_25
// 065   ----------------------------------------
        BYTE   PATT
         POIN2  _00___Random_Dungeon_Theme_3_0_27
// 066   ----------------------------------------
        BYTE   PATT
         POIN2  _00___Random_Dungeon_Theme_3_0_27
// 067   ----------------------------------------
        BYTE   PATT
         POIN2  _00___Random_Dungeon_Theme_3_0_29
// 068   ----------------------------------------
        BYTE   PATT
         POIN2  _00___Random_Dungeon_Theme_3_0_29
// 069   ----------------------------------------
        BYTE   PATT
         POIN2  _00___Random_Dungeon_Theme_3_0_31
// 070   ----------------------------------------
        BYTE   PATT
         POIN2  _00___Random_Dungeon_Theme_3_0_31
// 071   ----------------------------------------
        BYTE   PATT
         POIN2  _00___Random_Dungeon_Theme_3_0_33
// 072   ----------------------------------------
        BYTE   PATT
         POIN2  _00___Random_Dungeon_Theme_3_0_33
// 073   ----------------------------------------
        BYTE   PATT
         POIN2  _00___Random_Dungeon_Theme_3_0_35
// 074   ----------------------------------------
        BYTE   PATT
         POIN2  _00___Random_Dungeon_Theme_3_0_36
// 075   ----------------------------------------
        BYTE   PATT
         POIN2  _00___Random_Dungeon_Theme_3_0_37
// 076   ----------------------------------------
        BYTE   PATT
         POIN2  _00___Random_Dungeon_Theme_3_0_38
// 077   ----------------------------------------
        BYTE   PATT
         POIN2  _00___Random_Dungeon_Theme_3_0_2
// 078   ----------------------------------------
        BYTE   PATT
         POIN2  _00___Random_Dungeon_Theme_3_0_2
// 079   ----------------------------------------
        BYTE   PATT
         POIN2  _00___Random_Dungeon_Theme_3_0_2
// 080   ----------------------------------------
        BYTE   PATT
         POIN2  _00___Random_Dungeon_Theme_3_0_2
// 081   ----------------------------------------
        BYTE   FINE

//****************** Track 1 (Midi-Chn.1) ******************//

_00___Random_Dungeon_Theme_3_1:
        BYTE   KEYSH   _00___Random_Dungeon_Theme_3_key+0
// 000   ----------------------------------------
        BYTE   W24
// 001   ----------------------------------------
        BYTE           PAN     c_v-44
        BYTE           VOL     91
        BYTE           VOICE   48
        BYTE           N06     Fs3   v110
        BYTE   W12
        BYTE                   Fs3   v074
        BYTE   W12
        BYTE                   Fs3
        BYTE   W12
        BYTE                   Gn3   v110
        BYTE   W12
        BYTE                   Gn3   v074
        BYTE   W12
        BYTE                   Gn3   v110
        BYTE   W12
        BYTE                   Gn3   v074
        BYTE   W12
        BYTE                   Gn3   v110
        BYTE   W12
// 002   ----------------------------------------
_00___Random_Dungeon_Theme_3_1_2:
        BYTE           N06     Fs3   v110
        BYTE   W12
        BYTE                   Fs3   v074
        BYTE   W12
        BYTE                   Fs3
        BYTE   W12
        BYTE                   En3   v110
        BYTE   W12
        BYTE                   En3   v074
        BYTE   W12
        BYTE                   En3   v110
        BYTE   W12
        BYTE                   En3   v074
        BYTE   W12
        BYTE                   En3   v110
        BYTE   W12
        BYTE   PEND
// 003   ----------------------------------------
_00___Random_Dungeon_Theme_3_1_3:
        BYTE           N06     Fs3   v110
        BYTE   W12
        BYTE                   Fs3   v074
        BYTE   W12
        BYTE                   Fs3
        BYTE   W12
        BYTE                   Gn3   v110
        BYTE   W12
        BYTE                   Gn3   v074
        BYTE   W12
        BYTE                   Gn3   v110
        BYTE   W12
        BYTE                   Gn3   v074
        BYTE   W12
        BYTE                   Gn3   v110
        BYTE   W12
        BYTE   PEND
// 004   ----------------------------------------
        BYTE   PATT
         POIN2  _00___Random_Dungeon_Theme_3_1_2
// 005   ----------------------------------------
_00___Random_Dungeon_Theme_3_1_5:
        BYTE           N06     Dn3   v110
        BYTE   W12
        BYTE                   Dn3   v074
        BYTE   W12
        BYTE                   Dn3
        BYTE   W12
        BYTE                   Dn3   v110
        BYTE   W12
        BYTE                   Dn3   v074
        BYTE   W12
        BYTE                   Dn3   v110
        BYTE   W12
        BYTE                   Dn3   v074
        BYTE   W12
        BYTE                   Dn3   v110
        BYTE   W12
        BYTE   PEND
// 006   ----------------------------------------
_00___Random_Dungeon_Theme_3_1_6:
        BYTE           N06     Dn3   v110
        BYTE   W12
        BYTE                   Dn3   v074
        BYTE   W12
        BYTE                   Dn3
        BYTE   W12
        BYTE                   Cn3   v110
        BYTE   W12
        BYTE                   Cn3   v074
        BYTE   W12
        BYTE                   Cn3   v110
        BYTE   W12
        BYTE                   Cn3   v074
        BYTE   W12
        BYTE                   Cn3   v110
        BYTE   W12
        BYTE   PEND
// 007   ----------------------------------------
        BYTE   PATT
         POIN2  _00___Random_Dungeon_Theme_3_1_5
// 008   ----------------------------------------
        BYTE   PATT
         POIN2  _00___Random_Dungeon_Theme_3_1_6
// 009   ----------------------------------------
        BYTE   PATT
         POIN2  _00___Random_Dungeon_Theme_3_1_5
// 010   ----------------------------------------
        BYTE   PATT
         POIN2  _00___Random_Dungeon_Theme_3_1_6
// 011   ----------------------------------------
        BYTE   PATT
         POIN2  _00___Random_Dungeon_Theme_3_1_5
// 012   ----------------------------------------
        BYTE   PATT
         POIN2  _00___Random_Dungeon_Theme_3_1_5
// 013   ----------------------------------------
_00___Random_Dungeon_Theme_3_1_13:
        BYTE           N06     An3   v120
        BYTE   W12
        BYTE                   An3   v084
        BYTE   W12
        BYTE                   An3
        BYTE   W12
        BYTE                   An3   v120
        BYTE   W12
        BYTE                   An3   v084
        BYTE   W12
        BYTE                   An3   v120
        BYTE   W12
        BYTE                   An3   v084
        BYTE   W12
        BYTE                   An3   v120
        BYTE   W12
        BYTE   PEND
// 014   ----------------------------------------
_00___Random_Dungeon_Theme_3_1_14:
        BYTE           N06     An3   v120
        BYTE   W12
        BYTE                   An3   v084
        BYTE   W12
        BYTE                   An3
        BYTE   W12
        BYTE                   Gn3   v120
        BYTE   W12
        BYTE                   Gn3   v084
        BYTE   W12
        BYTE                   Gn3   v120
        BYTE   W12
        BYTE                   Gn3   v084
        BYTE   W12
        BYTE                   Gn3   v120
        BYTE   W12
        BYTE   PEND
// 015   ----------------------------------------
        BYTE   PATT
         POIN2  _00___Random_Dungeon_Theme_3_1_13
// 016   ----------------------------------------
        BYTE   PATT
         POIN2  _00___Random_Dungeon_Theme_3_1_14
// 017   ----------------------------------------
        BYTE   PATT
         POIN2  _00___Random_Dungeon_Theme_3_1_13
// 018   ----------------------------------------
        BYTE   PATT
         POIN2  _00___Random_Dungeon_Theme_3_1_14
// 019   ----------------------------------------
_00___Random_Dungeon_Theme_3_1_19:
        BYTE           N06     Bn3   v120
        BYTE   W12
        BYTE                   Bn3   v084
        BYTE   W12
        BYTE                   Bn3
        BYTE   W12
        BYTE                   An3   v120
        BYTE   W12
        BYTE                   An3   v084
        BYTE   W12
        BYTE                   An3   v120
        BYTE   W12
        BYTE                   An3   v084
        BYTE   W12
        BYTE                   An3   v120
        BYTE   W12
        BYTE   PEND
// 020   ----------------------------------------
_00___Random_Dungeon_Theme_3_1_20:
        BYTE           N06     Gn3   v120
        BYTE   W12
        BYTE                   Gn3   v084
        BYTE   W12
        BYTE                   Gn3
        BYTE   W12
        BYTE                   An3   v120
        BYTE   W12
        BYTE                   An3   v084
        BYTE   W12
        BYTE                   An3   v120
        BYTE   W12
        BYTE                   An3   v084
        BYTE   W12
        BYTE                   An3   v120
        BYTE   W12
        BYTE   PEND
// 021   ----------------------------------------
_00___Random_Dungeon_Theme_3_1_21:
        BYTE           N06     Bn3   v120
        BYTE   W12
        BYTE                   Bn3   v084
        BYTE   W12
        BYTE                   Bn3
        BYTE   W12
        BYTE                   An3   v120
        BYTE   W12
        BYTE                   An3   v084
        BYTE   W12
        BYTE                   An3
        BYTE   W12
        BYTE                   An3   v120
        BYTE   W12
        BYTE                   An3   v084
        BYTE   W12
        BYTE   PEND
// 022   ----------------------------------------
        BYTE   PATT
         POIN2  _00___Random_Dungeon_Theme_3_1_13
// 023   ----------------------------------------
_00___Random_Dungeon_Theme_3_1_23:
        BYTE           N06     Bn2   v115
        BYTE   W24
        BYTE                   Bn2
        BYTE   W24
        BYTE                   Bn2
        BYTE   W24
        BYTE                   Bn2
        BYTE   W24
        BYTE   PEND
// 024   ----------------------------------------
        BYTE   PATT
         POIN2  _00___Random_Dungeon_Theme_3_1_23
// 025   ----------------------------------------
_00___Random_Dungeon_Theme_3_1_25:
        BYTE           N06     An2   v115
        BYTE   W24
        BYTE                   An2
        BYTE   W24
        BYTE                   An2
        BYTE   W24
        BYTE                   An2
        BYTE   W24
        BYTE   PEND
// 026   ----------------------------------------
        BYTE   PATT
         POIN2  _00___Random_Dungeon_Theme_3_1_25
// 027   ----------------------------------------
_00___Random_Dungeon_Theme_3_1_27:
        BYTE           N06     Gn2   v115
        BYTE   W24
        BYTE                   Gn2
        BYTE   W24
        BYTE                   Gn2
        BYTE   W24
        BYTE                   Gn2
        BYTE   W24
        BYTE   PEND
// 028   ----------------------------------------
        BYTE   PATT
         POIN2  _00___Random_Dungeon_Theme_3_1_27
// 029   ----------------------------------------
_00___Random_Dungeon_Theme_3_1_29:
        BYTE           N06     Fn2   v115
        BYTE   W24
        BYTE                   Fn2
        BYTE   W24
        BYTE                   Fn2
        BYTE   W24
        BYTE                   Fn2
        BYTE   W24
        BYTE   PEND
// 030   ----------------------------------------
        BYTE   PATT
         POIN2  _00___Random_Dungeon_Theme_3_1_29
// 031   ----------------------------------------
_00___Random_Dungeon_Theme_3_1_31:
        BYTE           N06     Cn4   v120
        BYTE   W12
        BYTE                   Cn4   v084
        BYTE   W12
        BYTE                   Cn4
        BYTE   W12
        BYTE                   Cn4   v120
        BYTE   W12
        BYTE                   Cn4   v084
        BYTE   W12
        BYTE                   Cn4   v120
        BYTE   W12
        BYTE                   Cn4   v084
        BYTE   W12
        BYTE                   Cn4   v120
        BYTE   W12
        BYTE   PEND
// 032   ----------------------------------------
        BYTE   PATT
         POIN2  _00___Random_Dungeon_Theme_3_1_31
// 033   ----------------------------------------
_00___Random_Dungeon_Theme_3_1_33:
        BYTE           N06     Dn4   v120
        BYTE   W12
        BYTE                   Dn4   v084
        BYTE   W12
        BYTE                   Dn4
        BYTE   W12
        BYTE                   Dn4   v120
        BYTE   W12
        BYTE                   Dn4   v084
        BYTE   W12
        BYTE                   Dn4   v120
        BYTE   W12
        BYTE                   Dn4   v084
        BYTE   W12
        BYTE                   Dn4   v120
        BYTE   W12
        BYTE   PEND
// 034   ----------------------------------------
        BYTE   PATT
         POIN2  _00___Random_Dungeon_Theme_3_1_33
// 035   ----------------------------------------
_00___Random_Dungeon_Theme_3_1_35:
        BYTE           N06     Ds4   v120
        BYTE   W12
        BYTE                   Ds4   v084
        BYTE   W12
        BYTE                   Ds4
        BYTE   W12
        BYTE                   Ds4   v120
        BYTE   W12
        BYTE                   Ds4   v084
        BYTE   W12
        BYTE                   Ds4   v120
        BYTE   W12
        BYTE                   Ds4   v084
        BYTE   W12
        BYTE                   Ds4   v120
        BYTE   W12
        BYTE   PEND
// 036   ----------------------------------------
_00___Random_Dungeon_Theme_3_1_36:
        BYTE           N06     Fn4   v120
        BYTE   W12
        BYTE                   Fn4   v084
        BYTE   W12
        BYTE                   Fn4
        BYTE   W12
        BYTE                   Fn4   v120
        BYTE   W12
        BYTE                   Fn4   v084
        BYTE   W12
        BYTE                   Fn4   v120
        BYTE   W12
        BYTE                   Fn4   v084
        BYTE   W12
        BYTE                   Fn4   v120
        BYTE   W12
        BYTE   PEND
// 037   ----------------------------------------
_00___Random_Dungeon_Theme_3_1_37:
        BYTE           N06     Gs4   v120
        BYTE   W12
        BYTE                   Gs4   v084
        BYTE   W12
        BYTE                   Gs4
        BYTE   W12
        BYTE                   Gs4   v120
        BYTE   W12
        BYTE                   Gs4   v084
        BYTE   W12
        BYTE                   Gs4   v120
        BYTE   W12
        BYTE                   Gs4   v084
        BYTE   W12
        BYTE                   Gs4   v120
        BYTE   W12
        BYTE   PEND
// 038   ----------------------------------------
_00___Random_Dungeon_Theme_3_1_38:
        BYTE           N06     As4   v120
        BYTE   W12
        BYTE                   As4   v084
        BYTE   W12
        BYTE                   As4
        BYTE   W12
        BYTE                   As4   v120
        BYTE   W12
        BYTE                   As4
        BYTE   W12
        BYTE                   As4   v084
        BYTE   W12
        BYTE                   As4
        BYTE   W12
        BYTE                   As4   v120
        BYTE   W12
        BYTE   PEND
// 039   ----------------------------------------
_00___Random_Dungeon_Theme_3_1_39:
        BYTE           N06     Fs4   v120
        BYTE   W12
        BYTE                   Fs4   v084
        BYTE   W12
        BYTE                   Fs4
        BYTE   W12
        BYTE                   En4   v120
        BYTE   W12
        BYTE                   En4   v084
        BYTE   W12
        BYTE                   En4   v120
        BYTE   W12
        BYTE                   En4   v084
        BYTE   W12
        BYTE                   En4   v120
        BYTE   W12
        BYTE   PEND
// 040   ----------------------------------------
        BYTE   PATT
         POIN2  _00___Random_Dungeon_Theme_3_1_39
// 041   ----------------------------------------
        BYTE   PATT
         POIN2  _00___Random_Dungeon_Theme_3_1_3
// 042   ----------------------------------------
        BYTE   PATT
         POIN2  _00___Random_Dungeon_Theme_3_1_2
// 043   ----------------------------------------
        BYTE   PATT
         POIN2  _00___Random_Dungeon_Theme_3_1_5
// 044   ----------------------------------------
        BYTE   PATT
         POIN2  _00___Random_Dungeon_Theme_3_1_6
// 045   ----------------------------------------
        BYTE   PATT
         POIN2  _00___Random_Dungeon_Theme_3_1_5
// 046   ----------------------------------------
        BYTE   PATT
         POIN2  _00___Random_Dungeon_Theme_3_1_6
// 047   ----------------------------------------
        BYTE   PATT
         POIN2  _00___Random_Dungeon_Theme_3_1_5
// 048   ----------------------------------------
        BYTE   PATT
         POIN2  _00___Random_Dungeon_Theme_3_1_6
// 049   ----------------------------------------
        BYTE   PATT
         POIN2  _00___Random_Dungeon_Theme_3_1_5
// 050   ----------------------------------------
        BYTE   PATT
         POIN2  _00___Random_Dungeon_Theme_3_1_5
// 051   ----------------------------------------
        BYTE   PATT
         POIN2  _00___Random_Dungeon_Theme_3_1_13
// 052   ----------------------------------------
        BYTE   PATT
         POIN2  _00___Random_Dungeon_Theme_3_1_14
// 053   ----------------------------------------
        BYTE   PATT
         POIN2  _00___Random_Dungeon_Theme_3_1_13
// 054   ----------------------------------------
        BYTE   PATT
         POIN2  _00___Random_Dungeon_Theme_3_1_14
// 055   ----------------------------------------
        BYTE   PATT
         POIN2  _00___Random_Dungeon_Theme_3_1_13
// 056   ----------------------------------------
        BYTE   PATT
         POIN2  _00___Random_Dungeon_Theme_3_1_14
// 057   ----------------------------------------
        BYTE   PATT
         POIN2  _00___Random_Dungeon_Theme_3_1_19
// 058   ----------------------------------------
        BYTE   PATT
         POIN2  _00___Random_Dungeon_Theme_3_1_20
// 059   ----------------------------------------
        BYTE   PATT
         POIN2  _00___Random_Dungeon_Theme_3_1_21
// 060   ----------------------------------------
        BYTE   PATT
         POIN2  _00___Random_Dungeon_Theme_3_1_13
// 061   ----------------------------------------
        BYTE   PATT
         POIN2  _00___Random_Dungeon_Theme_3_1_23
// 062   ----------------------------------------
        BYTE   PATT
         POIN2  _00___Random_Dungeon_Theme_3_1_23
// 063   ----------------------------------------
        BYTE   PATT
         POIN2  _00___Random_Dungeon_Theme_3_1_25
// 064   ----------------------------------------
        BYTE   PATT
         POIN2  _00___Random_Dungeon_Theme_3_1_25
// 065   ----------------------------------------
        BYTE   PATT
         POIN2  _00___Random_Dungeon_Theme_3_1_27
// 066   ----------------------------------------
        BYTE   PATT
         POIN2  _00___Random_Dungeon_Theme_3_1_27
// 067   ----------------------------------------
        BYTE   PATT
         POIN2  _00___Random_Dungeon_Theme_3_1_29
// 068   ----------------------------------------
        BYTE   PATT
         POIN2  _00___Random_Dungeon_Theme_3_1_29
// 069   ----------------------------------------
        BYTE   PATT
         POIN2  _00___Random_Dungeon_Theme_3_1_31
// 070   ----------------------------------------
        BYTE   PATT
         POIN2  _00___Random_Dungeon_Theme_3_1_31
// 071   ----------------------------------------
        BYTE   PATT
         POIN2  _00___Random_Dungeon_Theme_3_1_33
// 072   ----------------------------------------
        BYTE   PATT
         POIN2  _00___Random_Dungeon_Theme_3_1_33
// 073   ----------------------------------------
        BYTE   PATT
         POIN2  _00___Random_Dungeon_Theme_3_1_35
// 074   ----------------------------------------
        BYTE   PATT
         POIN2  _00___Random_Dungeon_Theme_3_1_36
// 075   ----------------------------------------
        BYTE   PATT
         POIN2  _00___Random_Dungeon_Theme_3_1_37
// 076   ----------------------------------------
        BYTE   PATT
         POIN2  _00___Random_Dungeon_Theme_3_1_38
// 077   ----------------------------------------
        BYTE   PATT
         POIN2  _00___Random_Dungeon_Theme_3_1_39
// 078   ----------------------------------------
        BYTE   PATT
         POIN2  _00___Random_Dungeon_Theme_3_1_39
// 079   ----------------------------------------
        BYTE   PATT
         POIN2  _00___Random_Dungeon_Theme_3_1_3
// 080   ----------------------------------------
        BYTE   PATT
         POIN2  _00___Random_Dungeon_Theme_3_1_2
// 081   ----------------------------------------
        BYTE   FINE

//****************** Track 2 (Midi-Chn.2) ******************//

_00___Random_Dungeon_Theme_3_2:
        BYTE   KEYSH   _00___Random_Dungeon_Theme_3_key+0
// 000   ----------------------------------------
        BYTE   W24
// 001   ----------------------------------------
        BYTE           PAN     c_v-10
        BYTE           VOL     91
        BYTE           VOICE   48
        BYTE           N06     Dn3   v110
        BYTE   W12
        BYTE                   Dn3   v074
        BYTE   W12
        BYTE                   Dn3
        BYTE   W12
        BYTE                   Dn3   v110
        BYTE   W12
        BYTE                   Dn3   v074
        BYTE   W12
        BYTE                   Dn3   v110
        BYTE   W12
        BYTE                   Dn3   v074
        BYTE   W12
        BYTE                   Dn3   v110
        BYTE   W12
// 002   ----------------------------------------
        BYTE   PATT
         POIN2  _00___Random_Dungeon_Theme_3_1_6
// 003   ----------------------------------------
        BYTE   PATT
         POIN2  _00___Random_Dungeon_Theme_3_1_5
// 004   ----------------------------------------
        BYTE   PATT
         POIN2  _00___Random_Dungeon_Theme_3_1_6
// 005   ----------------------------------------
_00___Random_Dungeon_Theme_3_2_5:
        BYTE           N06     An2   v110
        BYTE   W12
        BYTE                   An2   v074
        BYTE   W12
        BYTE                   An2
        BYTE   W12
        BYTE                   An2   v110
        BYTE   W12
        BYTE                   An2   v074
        BYTE   W12
        BYTE                   An2   v110
        BYTE   W12
        BYTE                   An2   v074
        BYTE   W12
        BYTE                   An2   v110
        BYTE   W12
        BYTE   PEND
// 006   ----------------------------------------
_00___Random_Dungeon_Theme_3_2_6:
        BYTE           N06     An2   v110
        BYTE   W12
        BYTE                   An2   v074
        BYTE   W12
        BYTE                   An2
        BYTE   W12
        BYTE                   Gn2   v110
        BYTE   W12
        BYTE                   Gn2   v074
        BYTE   W12
        BYTE                   Gn2   v110
        BYTE   W12
        BYTE                   Gn2   v074
        BYTE   W12
        BYTE                   Gn2   v110
        BYTE   W12
        BYTE   PEND
// 007   ----------------------------------------
        BYTE   PATT
         POIN2  _00___Random_Dungeon_Theme_3_2_5
// 008   ----------------------------------------
        BYTE   PATT
         POIN2  _00___Random_Dungeon_Theme_3_2_6
// 009   ----------------------------------------
        BYTE   PATT
         POIN2  _00___Random_Dungeon_Theme_3_2_5
// 010   ----------------------------------------
        BYTE   PATT
         POIN2  _00___Random_Dungeon_Theme_3_2_6
// 011   ----------------------------------------
_00___Random_Dungeon_Theme_3_2_11:
        BYTE           N06     Bn2   v110
        BYTE   W12
        BYTE                   Bn2   v074
        BYTE   W12
        BYTE                   Bn2
        BYTE   W12
        BYTE                   An2   v110
        BYTE   W12
        BYTE                   An2   v074
        BYTE   W12
        BYTE                   An2   v110
        BYTE   W12
        BYTE                   An2   v074
        BYTE   W12
        BYTE                   An2   v110
        BYTE   W12
        BYTE   PEND
// 012   ----------------------------------------
_00___Random_Dungeon_Theme_3_2_12:
        BYTE           N06     Gn2   v110
        BYTE   W12
        BYTE                   Gn2   v074
        BYTE   W12
        BYTE                   Gn2
        BYTE   W12
        BYTE                   An2   v110
        BYTE   W12
        BYTE                   An2   v074
        BYTE   W12
        BYTE                   An2   v110
        BYTE   W12
        BYTE                   An2   v074
        BYTE   W12
        BYTE                   An2   v110
        BYTE   W12
        BYTE   PEND
// 013   ----------------------------------------
_00___Random_Dungeon_Theme_3_2_13:
        BYTE           N06     Fs3   v120
        BYTE   W12
        BYTE                   Fs3   v084
        BYTE   W12
        BYTE                   Fs3
        BYTE   W12
        BYTE                   Gn3   v120
        BYTE   W12
        BYTE                   Gn3   v084
        BYTE   W12
        BYTE                   Gn3   v120
        BYTE   W12
        BYTE                   Gn3   v084
        BYTE   W12
        BYTE                   Gn3   v120
        BYTE   W12
        BYTE   PEND
// 014   ----------------------------------------
_00___Random_Dungeon_Theme_3_2_14:
        BYTE           N06     Fs3   v120
        BYTE   W12
        BYTE                   Fs3   v084
        BYTE   W12
        BYTE                   Fs3
        BYTE   W12
        BYTE                   En3   v120
        BYTE   W12
        BYTE                   En3   v084
        BYTE   W12
        BYTE                   En3   v120
        BYTE   W12
        BYTE                   En3   v084
        BYTE   W12
        BYTE                   En3   v120
        BYTE   W12
        BYTE   PEND
// 015   ----------------------------------------
        BYTE   PATT
         POIN2  _00___Random_Dungeon_Theme_3_2_13
// 016   ----------------------------------------
        BYTE   PATT
         POIN2  _00___Random_Dungeon_Theme_3_2_14
// 017   ----------------------------------------
        BYTE   PATT
         POIN2  _00___Random_Dungeon_Theme_3_2_13
// 018   ----------------------------------------
        BYTE   PATT
         POIN2  _00___Random_Dungeon_Theme_3_2_14
// 019   ----------------------------------------
_00___Random_Dungeon_Theme_3_2_19:
        BYTE           N06     Gn3   v120
        BYTE   W12
        BYTE                   Gn3   v084
        BYTE   W12
        BYTE                   Gn3
        BYTE   W12
        BYTE                   Fs3   v120
        BYTE   W12
        BYTE                   Fs3   v084
        BYTE   W12
        BYTE                   Fs3   v120
        BYTE   W12
        BYTE                   Fs3   v084
        BYTE   W12
        BYTE                   Fs3   v120
        BYTE   W12
        BYTE   PEND
// 020   ----------------------------------------
_00___Random_Dungeon_Theme_3_2_20:
        BYTE           N06     En3   v120
        BYTE   W12
        BYTE                   En3   v084
        BYTE   W12
        BYTE                   En3
        BYTE   W12
        BYTE                   Fs3   v120
        BYTE   W12
        BYTE                   Fs3   v084
        BYTE   W12
        BYTE                   Fs3   v120
        BYTE   W12
        BYTE                   Fs3   v084
        BYTE   W12
        BYTE                   Fs3   v120
        BYTE   W12
        BYTE   PEND
// 021   ----------------------------------------
_00___Random_Dungeon_Theme_3_2_21:
        BYTE           N06     Gn3   v120
        BYTE   W12
        BYTE                   Gn3   v084
        BYTE   W12
        BYTE                   Gn3
        BYTE   W12
        BYTE                   Fs3   v120
        BYTE   W12
        BYTE                   Fs3   v084
        BYTE   W12
        BYTE                   Fs3
        BYTE   W12
        BYTE                   En3   v120
        BYTE   W12
        BYTE                   En3   v084
        BYTE   W12
        BYTE   PEND
// 022   ----------------------------------------
_00___Random_Dungeon_Theme_3_2_22:
        BYTE           N06     En3   v120
        BYTE   W12
        BYTE                   En3   v084
        BYTE   W12
        BYTE                   En3
        BYTE   W12
        BYTE                   En3   v120
        BYTE   W12
        BYTE                   En3   v084
        BYTE   W12
        BYTE                   En3   v120
        BYTE   W12
        BYTE                   En3   v084
        BYTE   W12
        BYTE                   En3   v120
        BYTE   W12
        BYTE   PEND
// 023   ----------------------------------------
        BYTE   PATT
         POIN2  _00___Random_Dungeon_Theme_3_1_27
// 024   ----------------------------------------
        BYTE   PATT
         POIN2  _00___Random_Dungeon_Theme_3_1_27
// 025   ----------------------------------------
        BYTE   PATT
         POIN2  _00___Random_Dungeon_Theme_3_1_29
// 026   ----------------------------------------
        BYTE   PATT
         POIN2  _00___Random_Dungeon_Theme_3_1_29
// 027   ----------------------------------------
_00___Random_Dungeon_Theme_3_2_27:
        BYTE           N06     Ds2   v115
        BYTE   W24
        BYTE                   Ds2
        BYTE   W24
        BYTE                   Ds2
        BYTE   W24
        BYTE                   Ds2
        BYTE   W24
        BYTE   PEND
// 028   ----------------------------------------
        BYTE   PATT
         POIN2  _00___Random_Dungeon_Theme_3_2_27
// 029   ----------------------------------------
_00___Random_Dungeon_Theme_3_2_29:
        BYTE           N06     Cs2   v115
        BYTE   W24
        BYTE                   Cs2
        BYTE   W24
        BYTE                   Cs2
        BYTE   W24
        BYTE                   Cs2
        BYTE   W24
        BYTE   PEND
// 030   ----------------------------------------
        BYTE   PATT
         POIN2  _00___Random_Dungeon_Theme_3_2_29
// 031   ----------------------------------------
_00___Random_Dungeon_Theme_3_2_31:
        BYTE           N06     Gn3   v120
        BYTE   W12
        BYTE                   Gn3   v084
        BYTE   W12
        BYTE                   Gn3
        BYTE   W12
        BYTE                   Gn3   v120
        BYTE   W12
        BYTE                   Gn3   v084
        BYTE   W12
        BYTE                   Gn3   v120
        BYTE   W12
        BYTE                   Gn3   v084
        BYTE   W12
        BYTE                   Gn3   v120
        BYTE   W12
        BYTE   PEND
// 032   ----------------------------------------
        BYTE   PATT
         POIN2  _00___Random_Dungeon_Theme_3_2_31
// 033   ----------------------------------------
_00___Random_Dungeon_Theme_3_2_33:
        BYTE           N06     As3   v120
        BYTE   W12
        BYTE                   As3   v084
        BYTE   W12
        BYTE                   As3
        BYTE   W12
        BYTE                   As3   v120
        BYTE   W12
        BYTE                   As3   v084
        BYTE   W12
        BYTE                   As3   v120
        BYTE   W12
        BYTE                   As3   v084
        BYTE   W12
        BYTE                   As3   v120
        BYTE   W12
        BYTE   PEND
// 034   ----------------------------------------
        BYTE   PATT
         POIN2  _00___Random_Dungeon_Theme_3_2_33
// 035   ----------------------------------------
        BYTE   PATT
         POIN2  _00___Random_Dungeon_Theme_3_2_33
// 036   ----------------------------------------
        BYTE   PATT
         POIN2  _00___Random_Dungeon_Theme_3_1_31
// 037   ----------------------------------------
        BYTE   PATT
         POIN2  _00___Random_Dungeon_Theme_3_1_35
// 038   ----------------------------------------
_00___Random_Dungeon_Theme_3_2_38:
        BYTE           N06     Fn4   v120
        BYTE   W12
        BYTE                   Fn4   v084
        BYTE   W12
        BYTE                   Fn4
        BYTE   W12
        BYTE                   Fn4   v120
        BYTE   W12
        BYTE                   Gn4
        BYTE   W12
        BYTE                   Gn4   v084
        BYTE   W12
        BYTE                   Gn4
        BYTE   W12
        BYTE                   Gn4   v120
        BYTE   W12
        BYTE   PEND
// 039   ----------------------------------------
        BYTE   PATT
         POIN2  _00___Random_Dungeon_Theme_3_1_33
// 040   ----------------------------------------
        BYTE   PATT
         POIN2  _00___Random_Dungeon_Theme_3_1_33
// 041   ----------------------------------------
        BYTE   PATT
         POIN2  _00___Random_Dungeon_Theme_3_1_5
// 042   ----------------------------------------
        BYTE   PATT
         POIN2  _00___Random_Dungeon_Theme_3_1_6
// 043   ----------------------------------------
        BYTE   PATT
         POIN2  _00___Random_Dungeon_Theme_3_2_5
// 044   ----------------------------------------
        BYTE   PATT
         POIN2  _00___Random_Dungeon_Theme_3_2_6
// 045   ----------------------------------------
        BYTE   PATT
         POIN2  _00___Random_Dungeon_Theme_3_2_5
// 046   ----------------------------------------
        BYTE   PATT
         POIN2  _00___Random_Dungeon_Theme_3_2_6
// 047   ----------------------------------------
        BYTE   PATT
         POIN2  _00___Random_Dungeon_Theme_3_2_5
// 048   ----------------------------------------
        BYTE   PATT
         POIN2  _00___Random_Dungeon_Theme_3_2_6
// 049   ----------------------------------------
        BYTE   PATT
         POIN2  _00___Random_Dungeon_Theme_3_2_11
// 050   ----------------------------------------
        BYTE   PATT
         POIN2  _00___Random_Dungeon_Theme_3_2_12
// 051   ----------------------------------------
        BYTE   PATT
         POIN2  _00___Random_Dungeon_Theme_3_2_13
// 052   ----------------------------------------
        BYTE   PATT
         POIN2  _00___Random_Dungeon_Theme_3_2_14
// 053   ----------------------------------------
        BYTE   PATT
         POIN2  _00___Random_Dungeon_Theme_3_2_13
// 054   ----------------------------------------
        BYTE   PATT
         POIN2  _00___Random_Dungeon_Theme_3_2_14
// 055   ----------------------------------------
        BYTE   PATT
         POIN2  _00___Random_Dungeon_Theme_3_2_13
// 056   ----------------------------------------
        BYTE   PATT
         POIN2  _00___Random_Dungeon_Theme_3_2_14
// 057   ----------------------------------------
        BYTE   PATT
         POIN2  _00___Random_Dungeon_Theme_3_2_19
// 058   ----------------------------------------
        BYTE   PATT
         POIN2  _00___Random_Dungeon_Theme_3_2_20
// 059   ----------------------------------------
        BYTE   PATT
         POIN2  _00___Random_Dungeon_Theme_3_2_21
// 060   ----------------------------------------
        BYTE   PATT
         POIN2  _00___Random_Dungeon_Theme_3_2_22
// 061   ----------------------------------------
        BYTE   PATT
         POIN2  _00___Random_Dungeon_Theme_3_1_27
// 062   ----------------------------------------
        BYTE   PATT
         POIN2  _00___Random_Dungeon_Theme_3_1_27
// 063   ----------------------------------------
        BYTE   PATT
         POIN2  _00___Random_Dungeon_Theme_3_1_29
// 064   ----------------------------------------
        BYTE   PATT
         POIN2  _00___Random_Dungeon_Theme_3_1_29
// 065   ----------------------------------------
        BYTE   PATT
         POIN2  _00___Random_Dungeon_Theme_3_2_27
// 066   ----------------------------------------
        BYTE   PATT
         POIN2  _00___Random_Dungeon_Theme_3_2_27
// 067   ----------------------------------------
        BYTE   PATT
         POIN2  _00___Random_Dungeon_Theme_3_2_29
// 068   ----------------------------------------
        BYTE   PATT
         POIN2  _00___Random_Dungeon_Theme_3_2_29
// 069   ----------------------------------------
        BYTE   PATT
         POIN2  _00___Random_Dungeon_Theme_3_2_31
// 070   ----------------------------------------
        BYTE   PATT
         POIN2  _00___Random_Dungeon_Theme_3_2_31
// 071   ----------------------------------------
        BYTE   PATT
         POIN2  _00___Random_Dungeon_Theme_3_2_33
// 072   ----------------------------------------
        BYTE   PATT
         POIN2  _00___Random_Dungeon_Theme_3_2_33
// 073   ----------------------------------------
        BYTE   PATT
         POIN2  _00___Random_Dungeon_Theme_3_2_33
// 074   ----------------------------------------
        BYTE   PATT
         POIN2  _00___Random_Dungeon_Theme_3_1_31
// 075   ----------------------------------------
        BYTE   PATT
         POIN2  _00___Random_Dungeon_Theme_3_1_35
// 076   ----------------------------------------
        BYTE   PATT
         POIN2  _00___Random_Dungeon_Theme_3_2_38
// 077   ----------------------------------------
        BYTE   PATT
         POIN2  _00___Random_Dungeon_Theme_3_1_33
// 078   ----------------------------------------
        BYTE   PATT
         POIN2  _00___Random_Dungeon_Theme_3_1_33
// 079   ----------------------------------------
        BYTE   PATT
         POIN2  _00___Random_Dungeon_Theme_3_1_5
// 080   ----------------------------------------
        BYTE   PATT
         POIN2  _00___Random_Dungeon_Theme_3_1_6
// 081   ----------------------------------------
        BYTE   FINE

//****************** Track 3 (Midi-Chn.3) ******************//

_00___Random_Dungeon_Theme_3_3:
        BYTE   KEYSH   _00___Random_Dungeon_Theme_3_key+0
// 000   ----------------------------------------
        BYTE   W24
// 001   ----------------------------------------
        BYTE           PAN     c_v+26
        BYTE           VOL     91
        BYTE           VOICE   48
        BYTE           N06     An2   v110
        BYTE   W12
        BYTE                   An2   v074
        BYTE   W12
        BYTE                   An2
        BYTE   W12
        BYTE                   An2   v110
        BYTE   W12
        BYTE                   An2   v074
        BYTE   W12
        BYTE                   An2   v110
        BYTE   W12
        BYTE                   An2   v074
        BYTE   W12
        BYTE                   An2   v110
        BYTE   W12
// 002   ----------------------------------------
        BYTE   PATT
         POIN2  _00___Random_Dungeon_Theme_3_2_6
// 003   ----------------------------------------
        BYTE   PATT
         POIN2  _00___Random_Dungeon_Theme_3_2_5
// 004   ----------------------------------------
        BYTE   PATT
         POIN2  _00___Random_Dungeon_Theme_3_2_6
// 005   ----------------------------------------
_00___Random_Dungeon_Theme_3_3_5:
        BYTE           N06     Fs2   v110
        BYTE   W12
        BYTE                   Fs2   v074
        BYTE   W12
        BYTE                   Fs2
        BYTE   W12
        BYTE                   Gn2   v110
        BYTE   W12
        BYTE                   Gn2   v074
        BYTE   W12
        BYTE                   Gn2   v110
        BYTE   W12
        BYTE                   Gn2   v074
        BYTE   W12
        BYTE                   Gn2   v110
        BYTE   W12
        BYTE   PEND
// 006   ----------------------------------------
_00___Random_Dungeon_Theme_3_3_6:
        BYTE           N06     Fs2   v110
        BYTE   W12
        BYTE                   Fs2   v074
        BYTE   W12
        BYTE                   Fs2
        BYTE   W12
        BYTE                   En2   v110
        BYTE   W12
        BYTE                   En2   v074
        BYTE   W12
        BYTE                   En2   v110
        BYTE   W12
        BYTE                   En2   v074
        BYTE   W12
        BYTE                   En2   v110
        BYTE   W12
        BYTE   PEND
// 007   ----------------------------------------
        BYTE   PATT
         POIN2  _00___Random_Dungeon_Theme_3_3_5
// 008   ----------------------------------------
        BYTE   PATT
         POIN2  _00___Random_Dungeon_Theme_3_3_6
// 009   ----------------------------------------
        BYTE   PATT
         POIN2  _00___Random_Dungeon_Theme_3_3_5
// 010   ----------------------------------------
        BYTE   PATT
         POIN2  _00___Random_Dungeon_Theme_3_3_6
// 011   ----------------------------------------
_00___Random_Dungeon_Theme_3_3_11:
        BYTE           N06     Gn2   v110
        BYTE   W12
        BYTE                   Gn2   v074
        BYTE   W12
        BYTE                   Gn2
        BYTE   W12
        BYTE                   Fs2   v110
        BYTE   W12
        BYTE                   Fs2   v074
        BYTE   W12
        BYTE                   Fs2   v110
        BYTE   W12
        BYTE                   Fs2   v074
        BYTE   W12
        BYTE                   Fs2   v110
        BYTE   W12
        BYTE   PEND
// 012   ----------------------------------------
_00___Random_Dungeon_Theme_3_3_12:
        BYTE           N06     En2   v110
        BYTE   W12
        BYTE                   En2   v074
        BYTE   W12
        BYTE                   En2
        BYTE   W12
        BYTE                   Fs2   v110
        BYTE   W12
        BYTE                   Fs2   v074
        BYTE   W12
        BYTE                   Fs2   v110
        BYTE   W12
        BYTE                   Fs2   v074
        BYTE   W12
        BYTE                   Fs2   v110
        BYTE   W12
        BYTE   PEND
// 013   ----------------------------------------
_00___Random_Dungeon_Theme_3_3_13:
        BYTE           N06     Dn3   v120
        BYTE   W12
        BYTE                   Dn3   v084
        BYTE   W12
        BYTE                   Dn3
        BYTE   W12
        BYTE                   Dn3   v120
        BYTE   W12
        BYTE                   Dn3   v084
        BYTE   W12
        BYTE                   Dn3   v120
        BYTE   W12
        BYTE                   Dn3   v084
        BYTE   W12
        BYTE                   Dn3   v120
        BYTE   W12
        BYTE   PEND
// 014   ----------------------------------------
_00___Random_Dungeon_Theme_3_3_14:
        BYTE           N06     Dn3   v120
        BYTE   W12
        BYTE                   Dn3   v084
        BYTE   W12
        BYTE                   Dn3
        BYTE   W12
        BYTE                   Cn3   v120
        BYTE   W12
        BYTE                   Cn3   v084
        BYTE   W12
        BYTE                   Cn3   v120
        BYTE   W12
        BYTE                   Cn3   v084
        BYTE   W12
        BYTE                   Cn3   v120
        BYTE   W12
        BYTE   PEND
// 015   ----------------------------------------
        BYTE   PATT
         POIN2  _00___Random_Dungeon_Theme_3_3_13
// 016   ----------------------------------------
        BYTE   PATT
         POIN2  _00___Random_Dungeon_Theme_3_3_14
// 017   ----------------------------------------
        BYTE   PATT
         POIN2  _00___Random_Dungeon_Theme_3_3_13
// 018   ----------------------------------------
        BYTE   PATT
         POIN2  _00___Random_Dungeon_Theme_3_3_14
// 019   ----------------------------------------
        BYTE   PATT
         POIN2  _00___Random_Dungeon_Theme_3_3_13
// 020   ----------------------------------------
        BYTE   PATT
         POIN2  _00___Random_Dungeon_Theme_3_3_13
// 021   ----------------------------------------
_00___Random_Dungeon_Theme_3_3_21:
        BYTE           N06     Dn3   v120
        BYTE   W12
        BYTE                   Dn3   v084
        BYTE   W12
        BYTE                   Dn3
        BYTE   W12
        BYTE                   Dn3   v120
        BYTE   W12
        BYTE                   Dn3   v084
        BYTE   W12
        BYTE                   Dn3
        BYTE   W12
        BYTE                   Cs3   v120
        BYTE   W12
        BYTE                   Cs3   v084
        BYTE   W12
        BYTE   PEND
// 022   ----------------------------------------
_00___Random_Dungeon_Theme_3_3_22:
        BYTE           N06     Cs3   v120
        BYTE   W12
        BYTE                   Cs3   v084
        BYTE   W12
        BYTE                   Cs3
        BYTE   W12
        BYTE                   Cs3   v120
        BYTE   W12
        BYTE                   Cs3   v084
        BYTE   W12
        BYTE                   Cs3   v120
        BYTE   W12
        BYTE                   Cs3   v084
        BYTE   W12
        BYTE                   Cs3   v120
        BYTE   W12
        BYTE   PEND
// 023   ----------------------------------------
_00___Random_Dungeon_Theme_3_3_23:
        BYTE           N06     Dn2   v115
        BYTE   W24
        BYTE                   Dn2
        BYTE   W24
        BYTE                   Dn2
        BYTE   W24
        BYTE                   Dn2
        BYTE   W24
        BYTE   PEND
// 024   ----------------------------------------
        BYTE   PATT
         POIN2  _00___Random_Dungeon_Theme_3_3_23
// 025   ----------------------------------------
_00___Random_Dungeon_Theme_3_3_25:
        BYTE           N06     Cn2   v115
        BYTE   W24
        BYTE                   Cn2
        BYTE   W24
        BYTE                   Cn2
        BYTE   W24
        BYTE                   Cn2
        BYTE   W24
        BYTE   PEND
// 026   ----------------------------------------
        BYTE   PATT
         POIN2  _00___Random_Dungeon_Theme_3_3_25
// 027   ----------------------------------------
_00___Random_Dungeon_Theme_3_3_27:
        BYTE           N06     As1   v115
        BYTE   W24
        BYTE                   As1
        BYTE   W24
        BYTE                   As1
        BYTE   W24
        BYTE                   As1
        BYTE   W24
        BYTE   PEND
// 028   ----------------------------------------
        BYTE   PATT
         POIN2  _00___Random_Dungeon_Theme_3_3_27
// 029   ----------------------------------------
_00___Random_Dungeon_Theme_3_3_29:
        BYTE           N06     Gs1   v115
        BYTE   W24
        BYTE                   Gs1
        BYTE   W24
        BYTE                   Gs1
        BYTE   W24
        BYTE                   Gs1
        BYTE   W24
        BYTE   PEND
// 030   ----------------------------------------
        BYTE   PATT
         POIN2  _00___Random_Dungeon_Theme_3_3_29
// 031   ----------------------------------------
        BYTE   PATT
         POIN2  _00___Random_Dungeon_Theme_3_2_22
// 032   ----------------------------------------
        BYTE   PATT
         POIN2  _00___Random_Dungeon_Theme_3_2_22
// 033   ----------------------------------------
_00___Random_Dungeon_Theme_3_3_33:
        BYTE           N06     Fn3   v120
        BYTE   W12
        BYTE                   Fn3   v084
        BYTE   W12
        BYTE                   Fn3
        BYTE   W12
        BYTE                   Fn3   v120
        BYTE   W12
        BYTE                   Fn3   v084
        BYTE   W12
        BYTE                   Fn3   v120
        BYTE   W12
        BYTE                   Fn3   v084
        BYTE   W12
        BYTE                   Fn3   v120
        BYTE   W12
        BYTE   PEND
// 034   ----------------------------------------
        BYTE   PATT
         POIN2  _00___Random_Dungeon_Theme_3_3_33
// 035   ----------------------------------------
        BYTE   PATT
         POIN2  _00___Random_Dungeon_Theme_3_2_31
// 036   ----------------------------------------
        BYTE   PATT
         POIN2  _00___Random_Dungeon_Theme_3_1_13
// 037   ----------------------------------------
        BYTE   PATT
         POIN2  _00___Random_Dungeon_Theme_3_1_31
// 038   ----------------------------------------
_00___Random_Dungeon_Theme_3_3_38:
        BYTE           N06     Dn4   v120
        BYTE   W12
        BYTE                   Dn4   v084
        BYTE   W12
        BYTE                   Dn4
        BYTE   W12
        BYTE                   Dn4   v120
        BYTE   W12
        BYTE                   En4
        BYTE   W12
        BYTE                   En4   v084
        BYTE   W12
        BYTE                   En4
        BYTE   W12
        BYTE                   En4   v120
        BYTE   W12
        BYTE   PEND
// 039   ----------------------------------------
        BYTE   PATT
         POIN2  _00___Random_Dungeon_Theme_3_1_13
// 040   ----------------------------------------
        BYTE   PATT
         POIN2  _00___Random_Dungeon_Theme_3_1_13
// 041   ----------------------------------------
        BYTE   PATT
         POIN2  _00___Random_Dungeon_Theme_3_2_5
// 042   ----------------------------------------
        BYTE   PATT
         POIN2  _00___Random_Dungeon_Theme_3_2_6
// 043   ----------------------------------------
        BYTE   PATT
         POIN2  _00___Random_Dungeon_Theme_3_3_5
// 044   ----------------------------------------
        BYTE   PATT
         POIN2  _00___Random_Dungeon_Theme_3_3_6
// 045   ----------------------------------------
        BYTE   PATT
         POIN2  _00___Random_Dungeon_Theme_3_3_5
// 046   ----------------------------------------
        BYTE   PATT
         POIN2  _00___Random_Dungeon_Theme_3_3_6
// 047   ----------------------------------------
        BYTE   PATT
         POIN2  _00___Random_Dungeon_Theme_3_3_5
// 048   ----------------------------------------
        BYTE   PATT
         POIN2  _00___Random_Dungeon_Theme_3_3_6
// 049   ----------------------------------------
        BYTE   PATT
         POIN2  _00___Random_Dungeon_Theme_3_3_11
// 050   ----------------------------------------
        BYTE   PATT
         POIN2  _00___Random_Dungeon_Theme_3_3_12
// 051   ----------------------------------------
        BYTE   PATT
         POIN2  _00___Random_Dungeon_Theme_3_3_13
// 052   ----------------------------------------
        BYTE   PATT
         POIN2  _00___Random_Dungeon_Theme_3_3_14
// 053   ----------------------------------------
        BYTE   PATT
         POIN2  _00___Random_Dungeon_Theme_3_3_13
// 054   ----------------------------------------
        BYTE   PATT
         POIN2  _00___Random_Dungeon_Theme_3_3_14
// 055   ----------------------------------------
        BYTE   PATT
         POIN2  _00___Random_Dungeon_Theme_3_3_13
// 056   ----------------------------------------
        BYTE   PATT
         POIN2  _00___Random_Dungeon_Theme_3_3_14
// 057   ----------------------------------------
        BYTE   PATT
         POIN2  _00___Random_Dungeon_Theme_3_3_13
// 058   ----------------------------------------
        BYTE   PATT
         POIN2  _00___Random_Dungeon_Theme_3_3_13
// 059   ----------------------------------------
        BYTE   PATT
         POIN2  _00___Random_Dungeon_Theme_3_3_21
// 060   ----------------------------------------
        BYTE   PATT
         POIN2  _00___Random_Dungeon_Theme_3_3_22
// 061   ----------------------------------------
        BYTE   PATT
         POIN2  _00___Random_Dungeon_Theme_3_3_23
// 062   ----------------------------------------
        BYTE   PATT
         POIN2  _00___Random_Dungeon_Theme_3_3_23
// 063   ----------------------------------------
        BYTE   PATT
         POIN2  _00___Random_Dungeon_Theme_3_3_25
// 064   ----------------------------------------
        BYTE   PATT
         POIN2  _00___Random_Dungeon_Theme_3_3_25
// 065   ----------------------------------------
        BYTE   PATT
         POIN2  _00___Random_Dungeon_Theme_3_3_27
// 066   ----------------------------------------
        BYTE   PATT
         POIN2  _00___Random_Dungeon_Theme_3_3_27
// 067   ----------------------------------------
        BYTE   PATT
         POIN2  _00___Random_Dungeon_Theme_3_3_29
// 068   ----------------------------------------
        BYTE   PATT
         POIN2  _00___Random_Dungeon_Theme_3_3_29
// 069   ----------------------------------------
        BYTE   PATT
         POIN2  _00___Random_Dungeon_Theme_3_2_22
// 070   ----------------------------------------
        BYTE   PATT
         POIN2  _00___Random_Dungeon_Theme_3_2_22
// 071   ----------------------------------------
        BYTE   PATT
         POIN2  _00___Random_Dungeon_Theme_3_3_33
// 072   ----------------------------------------
        BYTE   PATT
         POIN2  _00___Random_Dungeon_Theme_3_3_33
// 073   ----------------------------------------
        BYTE   PATT
         POIN2  _00___Random_Dungeon_Theme_3_2_31
// 074   ----------------------------------------
        BYTE   PATT
         POIN2  _00___Random_Dungeon_Theme_3_1_13
// 075   ----------------------------------------
        BYTE   PATT
         POIN2  _00___Random_Dungeon_Theme_3_1_31
// 076   ----------------------------------------
        BYTE   PATT
         POIN2  _00___Random_Dungeon_Theme_3_3_38
// 077   ----------------------------------------
        BYTE   PATT
         POIN2  _00___Random_Dungeon_Theme_3_1_13
// 078   ----------------------------------------
        BYTE   PATT
         POIN2  _00___Random_Dungeon_Theme_3_1_13
// 079   ----------------------------------------
        BYTE   PATT
         POIN2  _00___Random_Dungeon_Theme_3_2_5
// 080   ----------------------------------------
        BYTE   PATT
         POIN2  _00___Random_Dungeon_Theme_3_2_6
// 081   ----------------------------------------
        BYTE   FINE

//****************** Track 4 (Midi-Chn.4) ******************//

_00___Random_Dungeon_Theme_3_4:
        BYTE   KEYSH   _00___Random_Dungeon_Theme_3_key+0
// 000   ----------------------------------------
        BYTE   W24
// 001   ----------------------------------------
        BYTE           VOL     99
        BYTE           VOICE   61
        BYTE   W96
// 002   ----------------------------------------
        BYTE   W96
// 003   ----------------------------------------
        BYTE   W96
// 004   ----------------------------------------
        BYTE   W96
// 005   ----------------------------------------
        BYTE   W96
// 006   ----------------------------------------
        BYTE   W96
// 007   ----------------------------------------
        BYTE   W96
// 008   ----------------------------------------
        BYTE   W96
// 009   ----------------------------------------
        BYTE   W96
// 010   ----------------------------------------
        BYTE   W96
// 011   ----------------------------------------
        BYTE   W96
// 012   ----------------------------------------
        BYTE   W96
// 013   ----------------------------------------
_00___Random_Dungeon_Theme_3_4_13:
        BYTE           N12     An3   v127
        BYTE   W12
        BYTE           N06     An3   v064
        BYTE   W06
        BYTE                   Dn4   v127
        BYTE   W06
        BYTE                   Fs4
        BYTE   W06
        BYTE                   Fs4   v064
        BYTE   W06
        BYTE           N12     Gn4   v127
        BYTE   W12
        BYTE                   Gn4   v064
        BYTE   W12
        BYTE                   Gn4   v127
        BYTE   W12
        BYTE                   Gn4   v064
        BYTE   W12
        BYTE           N06     Gn4   v127
        BYTE   W06
        BYTE                   Gn4   v064
        BYTE   W06
        BYTE   PEND
// 014   ----------------------------------------
_00___Random_Dungeon_Theme_3_4_14:
        BYTE           N12     Fs4   v127
        BYTE   W12
        BYTE           N06     Fs4   v064
        BYTE   W06
        BYTE                   Dn4   v127
        BYTE   W06
        BYTE                   An3
        BYTE   W06
        BYTE                   An3   v064
        BYTE   W06
        BYTE           N48     Cn4   v127
        BYTE   W48
        BYTE           N12     Cn4   v064
        BYTE   W12
        BYTE   PEND
// 015   ----------------------------------------
        BYTE   PATT
         POIN2  _00___Random_Dungeon_Theme_3_4_13
// 016   ----------------------------------------
_00___Random_Dungeon_Theme_3_4_16:
        BYTE           N12     Fs4   v127
        BYTE   W12
        BYTE           N06     Fs4   v064
        BYTE   W06
        BYTE                   Dn4   v127
        BYTE   W06
        BYTE                   An3
        BYTE   W06
        BYTE                   An3   v064
        BYTE   W06
        BYTE           N48     Gn3   v127
        BYTE   W48
        BYTE           N12     Gn3   v064
        BYTE   W12
        BYTE   PEND
// 017   ----------------------------------------
        BYTE   PATT
         POIN2  _00___Random_Dungeon_Theme_3_4_13
// 018   ----------------------------------------
_00___Random_Dungeon_Theme_3_4_18:
        BYTE           N12     Fs4   v127
        BYTE   W12
        BYTE           N06     Fs4   v064
        BYTE   W06
        BYTE                   Dn4   v127
        BYTE   W06
        BYTE                   An3
        BYTE   W06
        BYTE                   An3   v064
        BYTE   W06
        BYTE           N12     Cn4   v127
        BYTE   W12
        BYTE                   Cn4   v064
        BYTE   W12
        BYTE           N24     Cn4   v127
        BYTE   W24
        BYTE           N12     Dn4
        BYTE   W12
        BYTE   PEND
// 019   ----------------------------------------
_00___Random_Dungeon_Theme_3_4_19:
        BYTE           N12     Bn3   v127
        BYTE   W12
        BYTE           N06     Bn3   v064
        BYTE   W06
        BYTE                   An3   v127
        BYTE   W06
        BYTE                   Gn3
        BYTE   W06
        BYTE                   Gn3   v064
        BYTE   W06
        BYTE           TIE     An3   v127
        BYTE   W60
        BYTE   PEND
// 020   ----------------------------------------
_00___Random_Dungeon_Theme_3_4_20:
        BYTE   W48
        BYTE           EOT     An3
        BYTE           N12     An3   v064
        BYTE   W12
        BYTE           N18     Dn4   v127
        BYTE   W18
        BYTE           N06     Dn4   v064
        BYTE   W06
        BYTE                   Dn4   v127
        BYTE   W06
        BYTE                   Dn4   v064
        BYTE   W06
        BYTE   PEND
// 021   ----------------------------------------
_00___Random_Dungeon_Theme_3_4_21:
        BYTE           N12     Gn4   v080
        BYTE           N12     Bn4   v127
        BYTE   W12
        BYTE           N06     Gn4   v064
        BYTE           N06     Bn4
        BYTE   W06
        BYTE                   Fs4   v080
        BYTE           N06     An4   v127
        BYTE   W06
        BYTE                   En4   v080
        BYTE           N06     Gn4   v127
        BYTE   W06
        BYTE                   En4   v064
        BYTE           N06     Gn4
        BYTE   W06
        BYTE           N18     Fs4   v080
        BYTE           N18     An4   v127
        BYTE   W18
        BYTE           N06     Fs4   v064
        BYTE           N06     An4
        BYTE   W06
        BYTE                   An3   v080
        BYTE           N06     Dn4   v127
        BYTE   W06
        BYTE                   An3   v064
        BYTE           N06     Dn4
        BYTE   W06
        BYTE           N96     Cs4   v080
        BYTE           N96     En4   v127
        BYTE   W24
        BYTE   PEND
// 022   ----------------------------------------
_00___Random_Dungeon_Theme_3_4_22:
        BYTE           VOL     98
        BYTE   W09
        BYTE                   97
        BYTE   W03
        BYTE                   96
        BYTE   W03
        BYTE                   95
        BYTE   W03
        BYTE                   94
        BYTE   W06
        BYTE                   93
        BYTE   W03
        BYTE                   92
        BYTE   W03
        BYTE                   90
        BYTE   W03
        BYTE                   88
        BYTE   W03
        BYTE                   86
        BYTE   W03
        BYTE                   84
        BYTE   W03
        BYTE                   81
        BYTE   W03
        BYTE                   79
        BYTE   W03
        BYTE                   77
        BYTE   W03
        BYTE                   75
        BYTE   W03
        BYTE                   72
        BYTE   W03
        BYTE                   68
        BYTE   W03
        BYTE                   65
        BYTE   W03
        BYTE                   62
        BYTE   W03
        BYTE                   59
        BYTE   W03
        BYTE                   55
        BYTE   W03
        BYTE                   51
        BYTE   W24
        BYTE   PEND
// 023   ----------------------------------------
        BYTE   W96
// 024   ----------------------------------------
        BYTE   W96
// 025   ----------------------------------------
        BYTE   W96
// 026   ----------------------------------------
        BYTE   W96
// 027   ----------------------------------------
        BYTE   W96
// 028   ----------------------------------------
        BYTE   W96
// 029   ----------------------------------------
        BYTE   W96
// 030   ----------------------------------------
_00___Random_Dungeon_Theme_3_4_30:
        BYTE   W48
        BYTE           VOL     99
        BYTE   W24
        BYTE           N12     Cn3   v127
        BYTE   W12
        BYTE           N06     Cn3   v064
        BYTE   W06
        BYTE                   Cn3   v127
        BYTE   W06
        BYTE   PEND
// 031   ----------------------------------------
_00___Random_Dungeon_Theme_3_4_31:
        BYTE           N06     En3   v127
        BYTE   W06
        BYTE                   En3   v064
        BYTE   W18
        BYTE           N30     En3   v127
        BYTE   W30
        BYTE           N06     En3   v064
        BYTE   W06
        BYTE                   Gn3   v127
        BYTE   W06
        BYTE                   Gn3   v064
        BYTE   W06
        BYTE           N12     Fs3   v127
        BYTE   W12
        BYTE           N06     Fs3   v064
        BYTE   W06
        BYTE                   Gn3   v127
        BYTE   W06
        BYTE   PEND
// 032   ----------------------------------------
_00___Random_Dungeon_Theme_3_4_32:
        BYTE           N06     Fs3   v127
        BYTE   W06
        BYTE                   Fs3   v064
        BYTE   W18
        BYTE           N42     En3   v127
        BYTE   W42
        BYTE           N06     En3   v064
        BYTE   W06
        BYTE           N24     Dn3   v127
        BYTE   W24
        BYTE   PEND
// 033   ----------------------------------------
_00___Random_Dungeon_Theme_3_4_33:
        BYTE           N06     Cn3   v127
        BYTE   W06
        BYTE                   Cn3   v064
        BYTE   W12
        BYTE                   As2   v127
        BYTE   W06
        BYTE           N48
        BYTE   W48
        BYTE           N12     As2   v064
        BYTE   W12
        BYTE           N06     Fn3   v127
        BYTE   W06
        BYTE                   As3
        BYTE   W06
        BYTE   PEND
// 034   ----------------------------------------
_00___Random_Dungeon_Theme_3_4_34:
        BYTE           N60     Dn4   v127
        BYTE   W60
        BYTE           N12     Dn4   v064
        BYTE   W12
        BYTE           N24     Fn3   v127
        BYTE   W24
        BYTE   PEND
// 035   ----------------------------------------
_00___Random_Dungeon_Theme_3_4_35:
        BYTE           N06     As3   v127
        BYTE   W06
        BYTE           N12     As3   v064
        BYTE   W12
        BYTE           N06     As3   v127
        BYTE   W06
        BYTE           N24
        BYTE   W24
        BYTE           N12     As3   v064
        BYTE   W12
        BYTE           N06     Ds4   v127
        BYTE   W06
        BYTE                   Ds4   v064
        BYTE   W06
        BYTE           N12     Dn4   v127
        BYTE   W12
        BYTE           N06     Dn4   v064
        BYTE   W06
        BYTE                   Ds4   v127
        BYTE   W06
        BYTE   PEND
// 036   ----------------------------------------
_00___Random_Dungeon_Theme_3_4_36:
        BYTE           N18     Dn4   v127
        BYTE   W18
        BYTE           N06     Dn4   v064
        BYTE   W06
        BYTE           N18     Cn4   v127
        BYTE   W18
        BYTE           N06     Cn4   v064
        BYTE   W06
        BYTE           N18     As3   v127
        BYTE   W18
        BYTE           N06     As3   v064
        BYTE   W06
        BYTE           N18     An3   v127
        BYTE   W18
        BYTE           N06     An3   v064
        BYTE   W06
        BYTE   PEND
// 037   ----------------------------------------
_00___Random_Dungeon_Theme_3_4_37:
        BYTE           N06     Fn3   v080
        BYTE           N06     As3   v127
        BYTE   W06
        BYTE           N12     Fn3   v064
        BYTE           N12     As3
        BYTE   W18
        BYTE           N60     Fn3   v080
        BYTE           N60     As3   v127
        BYTE   W60
        BYTE           N12     Fn3   v064
        BYTE           N12     As3
        BYTE   W12
        BYTE   PEND
// 038   ----------------------------------------
_00___Random_Dungeon_Theme_3_4_38:
        BYTE           N06     Fn4   v080
        BYTE           N06     As4   v127
        BYTE   W06
        BYTE           N12     Fn4   v064
        BYTE           N12     As4
        BYTE   W18
        BYTE           N60     Fn4   v080
        BYTE           N60     As4   v127
        BYTE   W60
        BYTE           N12     Fn4   v064
        BYTE           N12     As4
        BYTE   W12
        BYTE   PEND
// 039   ----------------------------------------
        BYTE   W96
// 040   ----------------------------------------
        BYTE   W96
// 041   ----------------------------------------
        BYTE   W96
// 042   ----------------------------------------
        BYTE   W96
// 043   ----------------------------------------
        BYTE   W96
// 044   ----------------------------------------
        BYTE   W96
// 045   ----------------------------------------
        BYTE   W96
// 046   ----------------------------------------
        BYTE   W96
// 047   ----------------------------------------
        BYTE   W96
// 048   ----------------------------------------
        BYTE   W96
// 049   ----------------------------------------
        BYTE   W96
// 050   ----------------------------------------
        BYTE   W96
// 051   ----------------------------------------
        BYTE   PATT
         POIN2  _00___Random_Dungeon_Theme_3_4_13
// 052   ----------------------------------------
        BYTE   PATT
         POIN2  _00___Random_Dungeon_Theme_3_4_14
// 053   ----------------------------------------
        BYTE   PATT
         POIN2  _00___Random_Dungeon_Theme_3_4_13
// 054   ----------------------------------------
        BYTE   PATT
         POIN2  _00___Random_Dungeon_Theme_3_4_16
// 055   ----------------------------------------
        BYTE   PATT
         POIN2  _00___Random_Dungeon_Theme_3_4_13
// 056   ----------------------------------------
        BYTE   PATT
         POIN2  _00___Random_Dungeon_Theme_3_4_18
// 057   ----------------------------------------
        BYTE   PATT
         POIN2  _00___Random_Dungeon_Theme_3_4_19
// 058   ----------------------------------------
        BYTE   PATT
         POIN2  _00___Random_Dungeon_Theme_3_4_20
// 059   ----------------------------------------
        BYTE   PATT
         POIN2  _00___Random_Dungeon_Theme_3_4_21
// 060   ----------------------------------------
        BYTE   PATT
         POIN2  _00___Random_Dungeon_Theme_3_4_22
// 061   ----------------------------------------
        BYTE   W96
// 062   ----------------------------------------
        BYTE   W96
// 063   ----------------------------------------
        BYTE   W96
// 064   ----------------------------------------
        BYTE   W96
// 065   ----------------------------------------
        BYTE   W96
// 066   ----------------------------------------
        BYTE   W96
// 067   ----------------------------------------
        BYTE   W96
// 068   ----------------------------------------
        BYTE   PATT
         POIN2  _00___Random_Dungeon_Theme_3_4_30
// 069   ----------------------------------------
        BYTE   PATT
         POIN2  _00___Random_Dungeon_Theme_3_4_31
// 070   ----------------------------------------
        BYTE   PATT
         POIN2  _00___Random_Dungeon_Theme_3_4_32
// 071   ----------------------------------------
        BYTE   PATT
         POIN2  _00___Random_Dungeon_Theme_3_4_33
// 072   ----------------------------------------
        BYTE   PATT
         POIN2  _00___Random_Dungeon_Theme_3_4_34
// 073   ----------------------------------------
        BYTE   PATT
         POIN2  _00___Random_Dungeon_Theme_3_4_35
// 074   ----------------------------------------
        BYTE   PATT
         POIN2  _00___Random_Dungeon_Theme_3_4_36
// 075   ----------------------------------------
        BYTE   PATT
         POIN2  _00___Random_Dungeon_Theme_3_4_37
// 076   ----------------------------------------
        BYTE   PATT
         POIN2  _00___Random_Dungeon_Theme_3_4_38
// 077   ----------------------------------------
        BYTE   W96
// 078   ----------------------------------------
        BYTE   W96
// 079   ----------------------------------------
        BYTE   W96
// 080   ----------------------------------------
        BYTE   W96
// 081   ----------------------------------------
        BYTE   FINE

//****************** Track 5 (Midi-Chn.5) ******************//

_00___Random_Dungeon_Theme_3_5:
        BYTE   KEYSH   _00___Random_Dungeon_Theme_3_key+0
// 000   ----------------------------------------
        BYTE   W24
// 001   ----------------------------------------
        BYTE           PAN     c_v-64
        BYTE           VOL     50
        BYTE           VOICE   61
        BYTE   W96
// 002   ----------------------------------------
        BYTE   W96
// 003   ----------------------------------------
        BYTE   W96
// 004   ----------------------------------------
        BYTE   W96
// 005   ----------------------------------------
        BYTE   W96
// 006   ----------------------------------------
        BYTE   W96
// 007   ----------------------------------------
        BYTE   W96
// 008   ----------------------------------------
        BYTE   W96
// 009   ----------------------------------------
        BYTE   W96
// 010   ----------------------------------------
        BYTE   W96
// 011   ----------------------------------------
        BYTE   W96
// 012   ----------------------------------------
        BYTE   W96
// 013   ----------------------------------------
_00___Random_Dungeon_Theme_3_5_13:
        BYTE   W12
        BYTE           N12     An3   v127
        BYTE   W12
        BYTE           N06     An3   v064
        BYTE   W06
        BYTE                   Dn4   v127
        BYTE   W06
        BYTE                   Fs4
        BYTE   W06
        BYTE                   Fs4   v064
        BYTE   W06
        BYTE           N12     Gn4   v127
        BYTE   W12
        BYTE                   Gn4   v064
        BYTE   W12
        BYTE                   Gn4   v127
        BYTE   W12
        BYTE                   Gn4   v064
        BYTE   W12
        BYTE   PEND
// 014   ----------------------------------------
_00___Random_Dungeon_Theme_3_5_14:
        BYTE           N06     Gn4   v127
        BYTE   W06
        BYTE                   Gn4   v064
        BYTE   W06
        BYTE           N12     Fs4   v127
        BYTE   W12
        BYTE           N06     Fs4   v064
        BYTE   W06
        BYTE                   Dn4   v127
        BYTE   W06
        BYTE                   An3
        BYTE   W06
        BYTE                   An3   v064
        BYTE   W06
        BYTE           N48     Cn4   v127
        BYTE   W48
        BYTE   PEND
// 015   ----------------------------------------
_00___Random_Dungeon_Theme_3_5_15:
        BYTE           N12     Cn4   v064
        BYTE   W12
        BYTE                   An3   v127
        BYTE   W12
        BYTE           N06     An3   v064
        BYTE   W06
        BYTE                   Dn4   v127
        BYTE   W06
        BYTE                   Fs4
        BYTE   W06
        BYTE                   Fs4   v064
        BYTE   W06
        BYTE           N12     Gn4   v127
        BYTE   W12
        BYTE                   Gn4   v064
        BYTE   W12
        BYTE                   Gn4   v127
        BYTE   W12
        BYTE                   Gn4   v064
        BYTE   W12
        BYTE   PEND
// 016   ----------------------------------------
_00___Random_Dungeon_Theme_3_5_16:
        BYTE           N06     Gn4   v127
        BYTE   W06
        BYTE                   Gn4   v064
        BYTE   W06
        BYTE           N12     Fs4   v127
        BYTE   W12
        BYTE           N06     Fs4   v064
        BYTE   W06
        BYTE                   Dn4   v127
        BYTE   W06
        BYTE                   An3
        BYTE   W06
        BYTE                   An3   v064
        BYTE   W06
        BYTE           N48     Gn3   v127
        BYTE   W48
        BYTE   PEND
// 017   ----------------------------------------
_00___Random_Dungeon_Theme_3_5_17:
        BYTE           N12     Gn3   v064
        BYTE   W12
        BYTE                   An3   v127
        BYTE   W12
        BYTE           N06     An3   v064
        BYTE   W06
        BYTE                   Dn4   v127
        BYTE   W06
        BYTE                   Fs4
        BYTE   W06
        BYTE                   Fs4   v064
        BYTE   W06
        BYTE           N12     Gn4   v127
        BYTE   W12
        BYTE                   Gn4   v064
        BYTE   W12
        BYTE                   Gn4   v127
        BYTE   W12
        BYTE                   Gn4   v064
        BYTE   W12
        BYTE   PEND
// 018   ----------------------------------------
_00___Random_Dungeon_Theme_3_5_18:
        BYTE           N06     Gn4   v127
        BYTE   W06
        BYTE                   Gn4   v064
        BYTE   W06
        BYTE           N12     Fs4   v127
        BYTE   W12
        BYTE           N06     Fs4   v064
        BYTE   W06
        BYTE                   Dn4   v127
        BYTE   W06
        BYTE                   An3
        BYTE   W06
        BYTE                   An3   v064
        BYTE   W06
        BYTE           N12     Cn4   v127
        BYTE   W12
        BYTE                   Cn4   v064
        BYTE   W12
        BYTE           N24     Cn4   v127
        BYTE   W24
        BYTE   PEND
// 019   ----------------------------------------
_00___Random_Dungeon_Theme_3_5_19:
        BYTE           N12     Dn4   v127
        BYTE   W12
        BYTE                   Bn3
        BYTE   W12
        BYTE           N06     Bn3   v064
        BYTE   W06
        BYTE                   An3   v127
        BYTE   W06
        BYTE                   Gn3
        BYTE   W06
        BYTE                   Gn3   v064
        BYTE   W06
        BYTE           TIE     An3   v127
        BYTE   W48
        BYTE   PEND
// 020   ----------------------------------------
_00___Random_Dungeon_Theme_3_5_20:
        BYTE   W60
        BYTE           EOT     An3
        BYTE           N12     An3   v064
        BYTE   W12
        BYTE           N18     Dn4   v127
        BYTE   W18
        BYTE           N06     Dn4   v064
        BYTE   W06
        BYTE   PEND
// 021   ----------------------------------------
_00___Random_Dungeon_Theme_3_5_21:
        BYTE           N06     Dn4   v127
        BYTE   W06
        BYTE                   Dn4   v064
        BYTE   W06
        BYTE           N12     Bn4   v127
        BYTE   W12
        BYTE           N06     Bn4   v064
        BYTE   W06
        BYTE                   An4   v127
        BYTE   W06
        BYTE                   Gn4
        BYTE   W06
        BYTE                   Gn4   v064
        BYTE   W06
        BYTE           N18     An4   v127
        BYTE   W18
        BYTE           N06     An4   v064
        BYTE   W06
        BYTE                   Dn4   v127
        BYTE   W06
        BYTE                   Dn4   v064
        BYTE   W06
        BYTE           N96     En4   v127
        BYTE   W12
        BYTE   PEND
// 022   ----------------------------------------
_00___Random_Dungeon_Theme_3_5_22:
        BYTE   W12
        BYTE           VOL     49
        BYTE   W12
        BYTE                   48
        BYTE   W06
        BYTE                   47
        BYTE   W06
        BYTE                   46
        BYTE   W06
        BYTE                   45
        BYTE   W03
        BYTE                   44
        BYTE   W03
        BYTE                   43
        BYTE   W03
        BYTE                   42
        BYTE   W03
        BYTE                   41
        BYTE   W03
        BYTE                   40
        BYTE   W03
        BYTE                   38
        BYTE   W03
        BYTE                   37
        BYTE   W03
        BYTE                   36
        BYTE   W03
        BYTE                   34
        BYTE   W03
        BYTE                   33
        BYTE   W03
        BYTE                   31
        BYTE   W03
        BYTE                   29
        BYTE   W03
        BYTE                   27
        BYTE   W03
        BYTE                   26
        BYTE   W12
        BYTE   PEND
// 023   ----------------------------------------
        BYTE   W96
// 024   ----------------------------------------
        BYTE   W96
// 025   ----------------------------------------
        BYTE   W96
// 026   ----------------------------------------
        BYTE   W96
// 027   ----------------------------------------
        BYTE   W96
// 028   ----------------------------------------
        BYTE   W96
// 029   ----------------------------------------
        BYTE   W96
// 030   ----------------------------------------
_00___Random_Dungeon_Theme_3_5_30:
        BYTE   W60
        BYTE           VOL     50
        BYTE   W24
        BYTE           N12     Cn3   v127
        BYTE   W12
        BYTE   PEND
// 031   ----------------------------------------
_00___Random_Dungeon_Theme_3_5_31:
        BYTE           N06     Cn3   v064
        BYTE   W06
        BYTE                   Cn3   v127
        BYTE   W06
        BYTE                   En3
        BYTE   W06
        BYTE                   En3   v064
        BYTE   W18
        BYTE           N30     En3   v127
        BYTE   W30
        BYTE           N06     En3   v064
        BYTE   W06
        BYTE                   Gn3   v127
        BYTE   W06
        BYTE                   Gn3   v064
        BYTE   W06
        BYTE           N12     Fs3   v127
        BYTE   W12
        BYTE   PEND
// 032   ----------------------------------------
_00___Random_Dungeon_Theme_3_5_32:
        BYTE           N06     Fs3   v064
        BYTE   W06
        BYTE                   Gn3   v127
        BYTE   W06
        BYTE                   Fs3
        BYTE   W06
        BYTE                   Fs3   v064
        BYTE   W18
        BYTE           N42     En3   v127
        BYTE   W42
        BYTE           N06     En3   v064
        BYTE   W06
        BYTE           N24     Dn3   v127
        BYTE   W12
        BYTE   PEND
// 033   ----------------------------------------
_00___Random_Dungeon_Theme_3_5_33:
        BYTE   W12
        BYTE           N06     Cn3   v127
        BYTE   W06
        BYTE                   Cn3   v064
        BYTE   W12
        BYTE                   As2   v127
        BYTE   W06
        BYTE           N48
        BYTE   W48
        BYTE           N12     As2   v064
        BYTE   W12
        BYTE   PEND
// 034   ----------------------------------------
_00___Random_Dungeon_Theme_3_5_34:
        BYTE           N06     Fn3   v127
        BYTE   W06
        BYTE                   As3
        BYTE   W06
        BYTE           N60     Dn4
        BYTE   W60
        BYTE           N12     Dn4   v064
        BYTE   W12
        BYTE           N24     Fn3   v127
        BYTE   W12
        BYTE   PEND
// 035   ----------------------------------------
_00___Random_Dungeon_Theme_3_5_35:
        BYTE   W12
        BYTE           N06     As3   v127
        BYTE   W06
        BYTE           N12     As3   v064
        BYTE   W12
        BYTE           N06     As3   v127
        BYTE   W06
        BYTE           N24
        BYTE   W24
        BYTE           N12     As3   v064
        BYTE   W12
        BYTE           N06     Ds4   v127
        BYTE   W06
        BYTE                   Ds4   v064
        BYTE   W06
        BYTE           N12     Dn4   v127
        BYTE   W12
        BYTE   PEND
// 036   ----------------------------------------
_00___Random_Dungeon_Theme_3_5_36:
        BYTE           N06     Dn4   v064
        BYTE   W06
        BYTE                   Ds4   v127
        BYTE   W06
        BYTE           N18     Dn4
        BYTE   W18
        BYTE           N06     Dn4   v064
        BYTE   W06
        BYTE           N18     Cn4   v127
        BYTE   W18
        BYTE           N06     Cn4   v064
        BYTE   W06
        BYTE           N18     As3   v127
        BYTE   W18
        BYTE           N06     As3   v064
        BYTE   W06
        BYTE           N18     An3   v127
        BYTE   W12
        BYTE   PEND
// 037   ----------------------------------------
_00___Random_Dungeon_Theme_3_5_37:
        BYTE   W06
        BYTE           N06     An3   v064
        BYTE   W06
        BYTE                   Fn3   v080
        BYTE           N06     As3   v127
        BYTE   W06
        BYTE           N12     Fn3   v064
        BYTE           N12     As3
        BYTE   W18
        BYTE           N60     Fn3   v080
        BYTE           N60     As3   v127
        BYTE   W60
        BYTE   PEND
// 038   ----------------------------------------
_00___Random_Dungeon_Theme_3_5_38:
        BYTE           N12     Fn3   v064
        BYTE           N12     As3
        BYTE   W12
        BYTE           N06     Fn4   v080
        BYTE           N06     As4   v127
        BYTE   W06
        BYTE           N12     Fn4   v064
        BYTE           N12     As4
        BYTE   W18
        BYTE           N60     Fn4   v080
        BYTE           N60     As4   v127
        BYTE   W60
        BYTE   PEND
// 039   ----------------------------------------
_00___Random_Dungeon_Theme_3_5_39:
        BYTE           N12     Fn4   v064
        BYTE           N12     As4
        BYTE   W96
        BYTE   PEND
// 040   ----------------------------------------
        BYTE   W96
// 041   ----------------------------------------
        BYTE   W96
// 042   ----------------------------------------
        BYTE   W96
// 043   ----------------------------------------
        BYTE   W96
// 044   ----------------------------------------
        BYTE   W96
// 045   ----------------------------------------
        BYTE   W96
// 046   ----------------------------------------
        BYTE   W96
// 047   ----------------------------------------
        BYTE   W96
// 048   ----------------------------------------
        BYTE   W96
// 049   ----------------------------------------
        BYTE   W96
// 050   ----------------------------------------
        BYTE   W96
// 051   ----------------------------------------
        BYTE   PATT
         POIN2  _00___Random_Dungeon_Theme_3_5_13
// 052   ----------------------------------------
        BYTE   PATT
         POIN2  _00___Random_Dungeon_Theme_3_5_14
// 053   ----------------------------------------
        BYTE   PATT
         POIN2  _00___Random_Dungeon_Theme_3_5_15
// 054   ----------------------------------------
        BYTE   PATT
         POIN2  _00___Random_Dungeon_Theme_3_5_16
// 055   ----------------------------------------
        BYTE   PATT
         POIN2  _00___Random_Dungeon_Theme_3_5_17
// 056   ----------------------------------------
        BYTE   PATT
         POIN2  _00___Random_Dungeon_Theme_3_5_18
// 057   ----------------------------------------
        BYTE   PATT
         POIN2  _00___Random_Dungeon_Theme_3_5_19
// 058   ----------------------------------------
        BYTE   PATT
         POIN2  _00___Random_Dungeon_Theme_3_5_20
// 059   ----------------------------------------
        BYTE   PATT
         POIN2  _00___Random_Dungeon_Theme_3_5_21
// 060   ----------------------------------------
        BYTE   PATT
         POIN2  _00___Random_Dungeon_Theme_3_5_22
// 061   ----------------------------------------
        BYTE   W96
// 062   ----------------------------------------
        BYTE   W96
// 063   ----------------------------------------
        BYTE   W96
// 064   ----------------------------------------
        BYTE   W96
// 065   ----------------------------------------
        BYTE   W96
// 066   ----------------------------------------
        BYTE   W96
// 067   ----------------------------------------
        BYTE   W96
// 068   ----------------------------------------
        BYTE   PATT
         POIN2  _00___Random_Dungeon_Theme_3_5_30
// 069   ----------------------------------------
        BYTE   PATT
         POIN2  _00___Random_Dungeon_Theme_3_5_31
// 070   ----------------------------------------
        BYTE   PATT
         POIN2  _00___Random_Dungeon_Theme_3_5_32
// 071   ----------------------------------------
        BYTE   PATT
         POIN2  _00___Random_Dungeon_Theme_3_5_33
// 072   ----------------------------------------
        BYTE   PATT
         POIN2  _00___Random_Dungeon_Theme_3_5_34
// 073   ----------------------------------------
        BYTE   PATT
         POIN2  _00___Random_Dungeon_Theme_3_5_35
// 074   ----------------------------------------
        BYTE   PATT
         POIN2  _00___Random_Dungeon_Theme_3_5_36
// 075   ----------------------------------------
        BYTE   PATT
         POIN2  _00___Random_Dungeon_Theme_3_5_37
// 076   ----------------------------------------
        BYTE   PATT
         POIN2  _00___Random_Dungeon_Theme_3_5_38
// 077   ----------------------------------------
        BYTE   PATT
         POIN2  _00___Random_Dungeon_Theme_3_5_39
// 078   ----------------------------------------
        BYTE   W96
// 079   ----------------------------------------
        BYTE   W96
// 080   ----------------------------------------
        BYTE   W96
// 081   ----------------------------------------
        BYTE   FINE

//****************** Track 6 (Midi-Chn.6) ******************//

_00___Random_Dungeon_Theme_3_6:
        BYTE   KEYSH   _00___Random_Dungeon_Theme_3_key+0
// 000   ----------------------------------------
        BYTE   W24
// 001   ----------------------------------------
        BYTE           PAN     c_v+63
        BYTE           VOL     41
        BYTE           VOICE   61
        BYTE   W96
// 002   ----------------------------------------
        BYTE   W96
// 003   ----------------------------------------
        BYTE   W96
// 004   ----------------------------------------
        BYTE   W96
// 005   ----------------------------------------
        BYTE   W96
// 006   ----------------------------------------
        BYTE   W96
// 007   ----------------------------------------
        BYTE   W96
// 008   ----------------------------------------
        BYTE   W96
// 009   ----------------------------------------
        BYTE   W96
// 010   ----------------------------------------
        BYTE   W96
// 011   ----------------------------------------
        BYTE   W96
// 012   ----------------------------------------
        BYTE   W96
// 013   ----------------------------------------
_00___Random_Dungeon_Theme_3_6_13:
        BYTE   W24
        BYTE           N12     An3   v127
        BYTE   W12
        BYTE           N06     An3   v064
        BYTE   W06
        BYTE                   Dn4   v127
        BYTE   W06
        BYTE                   Fs4
        BYTE   W06
        BYTE                   Fs4   v064
        BYTE   W06
        BYTE           N12     Gn4   v127
        BYTE   W12
        BYTE                   Gn4   v064
        BYTE   W12
        BYTE                   Gn4   v127
        BYTE   W12
        BYTE   PEND
// 014   ----------------------------------------
_00___Random_Dungeon_Theme_3_6_14:
        BYTE           N12     Gn4   v064
        BYTE   W12
        BYTE           N06     Gn4   v127
        BYTE   W06
        BYTE                   Gn4   v064
        BYTE   W06
        BYTE           N12     Fs4   v127
        BYTE   W12
        BYTE           N06     Fs4   v064
        BYTE   W06
        BYTE                   Dn4   v127
        BYTE   W06
        BYTE                   An3
        BYTE   W06
        BYTE                   An3   v064
        BYTE   W06
        BYTE           N48     Cn4   v127
        BYTE   W36
        BYTE   PEND
// 015   ----------------------------------------
_00___Random_Dungeon_Theme_3_6_15:
        BYTE   W12
        BYTE           N12     Cn4   v064
        BYTE   W12
        BYTE                   An3   v127
        BYTE   W12
        BYTE           N06     An3   v064
        BYTE   W06
        BYTE                   Dn4   v127
        BYTE   W06
        BYTE                   Fs4
        BYTE   W06
        BYTE                   Fs4   v064
        BYTE   W06
        BYTE           N12     Gn4   v127
        BYTE   W12
        BYTE                   Gn4   v064
        BYTE   W12
        BYTE                   Gn4   v127
        BYTE   W12
        BYTE   PEND
// 016   ----------------------------------------
_00___Random_Dungeon_Theme_3_6_16:
        BYTE           N12     Gn4   v064
        BYTE   W12
        BYTE           N06     Gn4   v127
        BYTE   W06
        BYTE                   Gn4   v064
        BYTE   W06
        BYTE           N12     Fs4   v127
        BYTE   W12
        BYTE           N06     Fs4   v064
        BYTE   W06
        BYTE                   Dn4   v127
        BYTE   W06
        BYTE                   An3
        BYTE   W06
        BYTE                   An3   v064
        BYTE   W06
        BYTE           N48     Gn3   v127
        BYTE   W36
        BYTE   PEND
// 017   ----------------------------------------
_00___Random_Dungeon_Theme_3_6_17:
        BYTE   W12
        BYTE           N12     Gn3   v064
        BYTE   W12
        BYTE                   An3   v127
        BYTE   W12
        BYTE           N06     An3   v064
        BYTE   W06
        BYTE                   Dn4   v127
        BYTE   W06
        BYTE                   Fs4
        BYTE   W06
        BYTE                   Fs4   v064
        BYTE   W06
        BYTE           N12     Gn4   v127
        BYTE   W12
        BYTE                   Gn4   v064
        BYTE   W12
        BYTE                   Gn4   v127
        BYTE   W12
        BYTE   PEND
// 018   ----------------------------------------
_00___Random_Dungeon_Theme_3_6_18:
        BYTE           N12     Gn4   v064
        BYTE   W12
        BYTE           N06     Gn4   v127
        BYTE   W06
        BYTE                   Gn4   v064
        BYTE   W06
        BYTE           N12     Fs4   v127
        BYTE   W12
        BYTE           N06     Fs4   v064
        BYTE   W06
        BYTE                   Dn4   v127
        BYTE   W06
        BYTE                   An3
        BYTE   W06
        BYTE                   An3   v064
        BYTE   W06
        BYTE           N12     Cn4   v127
        BYTE   W12
        BYTE                   Cn4   v064
        BYTE   W12
        BYTE           N24     Cn4   v127
        BYTE   W12
        BYTE   PEND
// 019   ----------------------------------------
_00___Random_Dungeon_Theme_3_6_19:
        BYTE   W12
        BYTE           N12     Dn4   v127
        BYTE   W12
        BYTE                   Bn3
        BYTE   W12
        BYTE           N06     Bn3   v064
        BYTE   W06
        BYTE                   An3   v127
        BYTE   W06
        BYTE                   Gn3
        BYTE   W06
        BYTE                   Gn3   v064
        BYTE   W06
        BYTE           TIE     An3   v127
        BYTE   W36
        BYTE   PEND
// 020   ----------------------------------------
_00___Random_Dungeon_Theme_3_6_20:
        BYTE   W72
        BYTE           EOT     An3
        BYTE           N12     An3   v064
        BYTE   W12
        BYTE           N18     Dn4   v127
        BYTE   W12
        BYTE   PEND
// 021   ----------------------------------------
_00___Random_Dungeon_Theme_3_6_21:
        BYTE   W06
        BYTE           N06     Dn4   v064
        BYTE   W06
        BYTE                   Dn4   v127
        BYTE   W06
        BYTE                   Dn4   v064
        BYTE   W06
        BYTE           N12     Bn4   v127
        BYTE   W12
        BYTE           N06     Bn4   v064
        BYTE   W06
        BYTE                   An4   v127
        BYTE   W06
        BYTE                   Gn4
        BYTE   W06
        BYTE                   Gn4   v064
        BYTE   W06
        BYTE           N18     An4   v127
        BYTE   W18
        BYTE           N06     An4   v064
        BYTE   W06
        BYTE                   Dn4   v127
        BYTE   W06
        BYTE                   Dn4   v064
        BYTE   W06
        BYTE   PEND
// 022   ----------------------------------------
_00___Random_Dungeon_Theme_3_6_22:
        BYTE           N96     En4   v127
        BYTE   W36
        BYTE           VOL     40
        BYTE   W06
        BYTE                   39
        BYTE   W09
        BYTE                   38
        BYTE   W03
        BYTE                   37
        BYTE   W06
        BYTE                   36
        BYTE   W03
        BYTE                   35
        BYTE   W03
        BYTE                   34
        BYTE   W03
        BYTE                   33
        BYTE   W03
        BYTE                   32
        BYTE   W03
        BYTE                   31
        BYTE   W03
        BYTE                   30
        BYTE   W03
        BYTE                   28
        BYTE   W03
        BYTE                   27
        BYTE   W03
        BYTE                   26
        BYTE   W03
        BYTE                   24
        BYTE   W03
        BYTE                   23
        BYTE   W03
        BYTE   PEND
// 023   ----------------------------------------
        BYTE                   21
        BYTE   W96
// 024   ----------------------------------------
        BYTE   W96
// 025   ----------------------------------------
        BYTE   W96
// 026   ----------------------------------------
        BYTE   W96
// 027   ----------------------------------------
        BYTE   W96
// 028   ----------------------------------------
        BYTE   W96
// 029   ----------------------------------------
        BYTE   W96
// 030   ----------------------------------------
        BYTE   W96
// 031   ----------------------------------------
        BYTE   W96
// 032   ----------------------------------------
        BYTE   W96
// 033   ----------------------------------------
        BYTE   W96
// 034   ----------------------------------------
        BYTE   W96
// 035   ----------------------------------------
_00___Random_Dungeon_Theme_3_6_35:
        BYTE           VOL     41
        BYTE           N24     Fn3   v127
        BYTE   W24
        BYTE           N06     As3
        BYTE   W06
        BYTE           N12     As3   v064
        BYTE   W12
        BYTE           N06     As3   v127
        BYTE   W06
        BYTE           N24
        BYTE   W24
        BYTE           N12     As3   v064
        BYTE   W12
        BYTE           N06     Ds4   v127
        BYTE   W06
        BYTE                   Ds4   v064
        BYTE   W06
        BYTE   PEND
// 036   ----------------------------------------
_00___Random_Dungeon_Theme_3_6_36:
        BYTE           N12     Dn4   v127
        BYTE   W12
        BYTE           N06     Dn4   v064
        BYTE   W06
        BYTE                   Ds4   v127
        BYTE   W06
        BYTE           N18     Dn4
        BYTE   W18
        BYTE           N06     Dn4   v064
        BYTE   W06
        BYTE           N18     Cn4   v127
        BYTE   W18
        BYTE           N06     Cn4   v064
        BYTE   W06
        BYTE           N18     As3   v127
        BYTE   W18
        BYTE           N06     As3   v064
        BYTE   W06
        BYTE   PEND
// 037   ----------------------------------------
_00___Random_Dungeon_Theme_3_6_37:
        BYTE           N18     An3   v127
        BYTE   W18
        BYTE           N06     An3   v064
        BYTE   W06
        BYTE                   Fn3   v080
        BYTE           N06     As3   v127
        BYTE   W06
        BYTE           N12     Fn3   v064
        BYTE           N12     As3
        BYTE   W18
        BYTE           N60     Fn3   v080
        BYTE           N60     As3   v127
        BYTE   W48
        BYTE   PEND
// 038   ----------------------------------------
_00___Random_Dungeon_Theme_3_6_38:
        BYTE   W12
        BYTE           N12     Fn3   v064
        BYTE           N12     As3
        BYTE   W12
        BYTE           N06     Fn4   v080
        BYTE           N06     As4   v127
        BYTE   W06
        BYTE           N12     Fn4   v064
        BYTE           N12     As4
        BYTE   W18
        BYTE           N60     Fn4   v080
        BYTE           N60     As4   v127
        BYTE   W48
        BYTE   PEND
// 039   ----------------------------------------
_00___Random_Dungeon_Theme_3_6_39:
        BYTE   W12
        BYTE           N12     Fn4   v064
        BYTE           N12     As4
        BYTE   W84
        BYTE   PEND
// 040   ----------------------------------------
        BYTE   W96
// 041   ----------------------------------------
        BYTE   W96
// 042   ----------------------------------------
        BYTE   W96
// 043   ----------------------------------------
        BYTE   W96
// 044   ----------------------------------------
        BYTE   W96
// 045   ----------------------------------------
        BYTE   W96
// 046   ----------------------------------------
        BYTE   W96
// 047   ----------------------------------------
        BYTE   W96
// 048   ----------------------------------------
        BYTE   W96
// 049   ----------------------------------------
        BYTE   W96
// 050   ----------------------------------------
        BYTE   W96
// 051   ----------------------------------------
        BYTE   PATT
         POIN2  _00___Random_Dungeon_Theme_3_6_13
// 052   ----------------------------------------
        BYTE   PATT
         POIN2  _00___Random_Dungeon_Theme_3_6_14
// 053   ----------------------------------------
        BYTE   PATT
         POIN2  _00___Random_Dungeon_Theme_3_6_15
// 054   ----------------------------------------
        BYTE   PATT
         POIN2  _00___Random_Dungeon_Theme_3_6_16
// 055   ----------------------------------------
        BYTE   PATT
         POIN2  _00___Random_Dungeon_Theme_3_6_17
// 056   ----------------------------------------
        BYTE   PATT
         POIN2  _00___Random_Dungeon_Theme_3_6_18
// 057   ----------------------------------------
        BYTE   PATT
         POIN2  _00___Random_Dungeon_Theme_3_6_19
// 058   ----------------------------------------
        BYTE   PATT
         POIN2  _00___Random_Dungeon_Theme_3_6_20
// 059   ----------------------------------------
        BYTE   PATT
         POIN2  _00___Random_Dungeon_Theme_3_6_21
// 060   ----------------------------------------
        BYTE   PATT
         POIN2  _00___Random_Dungeon_Theme_3_6_22
// 061   ----------------------------------------
        BYTE           VOL     21
        BYTE   W96
// 062   ----------------------------------------
        BYTE   W96
// 063   ----------------------------------------
        BYTE   W96
// 064   ----------------------------------------
        BYTE   W96
// 065   ----------------------------------------
        BYTE   W96
// 066   ----------------------------------------
        BYTE   W96
// 067   ----------------------------------------
        BYTE   W96
// 068   ----------------------------------------
        BYTE   W96
// 069   ----------------------------------------
        BYTE   W96
// 070   ----------------------------------------
        BYTE   W96
// 071   ----------------------------------------
        BYTE   W96
// 072   ----------------------------------------
        BYTE   W96
// 073   ----------------------------------------
        BYTE   PATT
         POIN2  _00___Random_Dungeon_Theme_3_6_35
// 074   ----------------------------------------
        BYTE   PATT
         POIN2  _00___Random_Dungeon_Theme_3_6_36
// 075   ----------------------------------------
        BYTE   PATT
         POIN2  _00___Random_Dungeon_Theme_3_6_37
// 076   ----------------------------------------
        BYTE   PATT
         POIN2  _00___Random_Dungeon_Theme_3_6_38
// 077   ----------------------------------------
        BYTE   PATT
         POIN2  _00___Random_Dungeon_Theme_3_6_39
// 078   ----------------------------------------
        BYTE   W96
// 079   ----------------------------------------
        BYTE   W96
// 080   ----------------------------------------
        BYTE   W96
// 081   ----------------------------------------
        BYTE   FINE

//****************** Track 7 (Midi-Chn.7) ******************//

_00___Random_Dungeon_Theme_3_7:
        BYTE   KEYSH   _00___Random_Dungeon_Theme_3_key+0
// 000   ----------------------------------------
        BYTE   W24
// 001   ----------------------------------------
        BYTE           PAN     c_v-10
        BYTE           VOL     95
        BYTE           VOICE   65
        BYTE   W96
// 002   ----------------------------------------
        BYTE   W96
// 003   ----------------------------------------
        BYTE   W96
// 004   ----------------------------------------
        BYTE   W96
// 005   ----------------------------------------
_00___Random_Dungeon_Theme_3_7_5:
        BYTE           N12     An2   v127
        BYTE   W18
        BYTE           N06     Dn3
        BYTE   W06
        BYTE                   Fs3
        BYTE   W12
        BYTE           N12     Gn3
        BYTE   W24
        BYTE                   Gn3
        BYTE   W24
        BYTE           N06
        BYTE   W12
        BYTE   PEND
// 006   ----------------------------------------
_00___Random_Dungeon_Theme_3_7_6:
        BYTE           N12     Fs3   v127
        BYTE   W18
        BYTE           N06     Dn3
        BYTE   W06
        BYTE                   An2
        BYTE   W12
        BYTE           N48     Cn3
        BYTE   W60
        BYTE   PEND
// 007   ----------------------------------------
        BYTE   PATT
         POIN2  _00___Random_Dungeon_Theme_3_7_5
// 008   ----------------------------------------
_00___Random_Dungeon_Theme_3_7_8:
        BYTE           N12     Fs3   v127
        BYTE   W18
        BYTE           N06     Dn3
        BYTE   W06
        BYTE                   An2
        BYTE   W12
        BYTE           N48     Gn2
        BYTE   W60
        BYTE   PEND
// 009   ----------------------------------------
        BYTE   PATT
         POIN2  _00___Random_Dungeon_Theme_3_7_5
// 010   ----------------------------------------
_00___Random_Dungeon_Theme_3_7_10:
        BYTE           N12     Fs3   v127
        BYTE   W18
        BYTE           N06     Dn3
        BYTE   W06
        BYTE                   An2
        BYTE   W12
        BYTE           N12     Cn3
        BYTE   W24
        BYTE           N24
        BYTE   W24
        BYTE           N12     Dn3
        BYTE   W12
        BYTE   PEND
// 011   ----------------------------------------
_00___Random_Dungeon_Theme_3_7_11:
        BYTE           N12     Bn2   v127
        BYTE   W18
        BYTE           N06     An2
        BYTE   W06
        BYTE                   Gn2
        BYTE   W12
        BYTE           TIE     An2
        BYTE   W60
        BYTE   PEND
// 012   ----------------------------------------
        BYTE   W48
        BYTE           EOT
        BYTE   W48
// 013   ----------------------------------------
_00___Random_Dungeon_Theme_3_7_13:
        BYTE           VOL     94
        BYTE           N96     An2   v100
        BYTE   W22
        BYTE           VOL     93
        BYTE   W02
        BYTE                   92
        BYTE   W01
        BYTE                   91
        BYTE   W05
        BYTE                   89
        BYTE   W01
        BYTE                   88
        BYTE   W02
        BYTE                   87
        BYTE   W01
        BYTE                   86
        BYTE   W03
        BYTE                   85
        BYTE   W02
        BYTE                   84
        BYTE   W01
        BYTE                   83
        BYTE   W02
        BYTE                   82
        BYTE   W01
        BYTE                   81
        BYTE   W03
        BYTE                   80
        BYTE   W02
        BYTE                   79
        BYTE   W01
        BYTE                   78
        BYTE   W02
        BYTE                   77
        BYTE   W03
        BYTE                   76
        BYTE   W01
        BYTE                   75
        BYTE   W02
        BYTE                   73
        BYTE   W04
        BYTE                   72
        BYTE   W02
        BYTE                   71
        BYTE   W01
        BYTE                   70
        BYTE   W02
        BYTE                   69
        BYTE   W03
        BYTE                   68
        BYTE   W01
        BYTE                   67
        BYTE   W02
        BYTE                   66
        BYTE   W01
        BYTE                   65
        BYTE   W02
        BYTE                   64
        BYTE   W01
        BYTE                   63
        BYTE   W02
        BYTE                   62
        BYTE   W03
        BYTE                   61
        BYTE   W01
        BYTE                   60
        BYTE   W03
        BYTE                   59
        BYTE   W02
        BYTE                   58
        BYTE   W01
        BYTE                   57
        BYTE   W02
        BYTE                   56
        BYTE   W01
        BYTE                   55
        BYTE   W02
        BYTE                   54
        BYTE   W01
        BYTE                   53
        BYTE   W02
        BYTE   PEND
// 014   ----------------------------------------
_00___Random_Dungeon_Theme_3_7_14:
        BYTE   W24
        BYTE           VOL     95
        BYTE   W36
        BYTE           N12     Gn2   v100
        BYTE   W12
        BYTE           N06     Dn3
        BYTE   W12
        BYTE                   Gn3
        BYTE   W12
        BYTE   PEND
// 015   ----------------------------------------
_00___Random_Dungeon_Theme_3_7_15:
        BYTE           N96     An3   v100
        BYTE   W32
        BYTE   W01
        BYTE           VOL     93
        BYTE   W03
        BYTE                   91
        BYTE   W03
        BYTE                   90
        BYTE   W03
        BYTE                   88
        BYTE   W03
        BYTE                   86
        BYTE   W03
        BYTE                   85
        BYTE   W03
        BYTE                   83
        BYTE   W03
        BYTE                   81
        BYTE   W06
        BYTE                   79
        BYTE   W03
        BYTE                   77
        BYTE   W03
        BYTE                   75
        BYTE   W03
        BYTE                   73
        BYTE   W03
        BYTE                   72
        BYTE   W03
        BYTE                   71
        BYTE   W03
        BYTE                   69
        BYTE   W03
        BYTE                   68
        BYTE   W03
        BYTE                   66
        BYTE   W03
        BYTE                   64
        BYTE   W03
        BYTE                   63
        BYTE   W03
        BYTE                   61
        BYTE   W03
        BYTE   PEND
// 016   ----------------------------------------
_00___Random_Dungeon_Theme_3_7_16:
        BYTE           VOL     60
        BYTE   W21
        BYTE                   95
        BYTE   W36
        BYTE   W03
        BYTE           N06     Gn3   v100
        BYTE   W12
        BYTE           N12     Fs3
        BYTE   W18
        BYTE           N06     Dn3
        BYTE   W06
        BYTE   PEND
// 017   ----------------------------------------
_00___Random_Dungeon_Theme_3_7_17:
        BYTE           N96     An2   v100
        BYTE   W24
        BYTE   W03
        BYTE           VOL     94
        BYTE   W01
        BYTE                   93
        BYTE   W02
        BYTE                   92
        BYTE   W01
        BYTE                   91
        BYTE   W05
        BYTE                   89
        BYTE   W01
        BYTE                   88
        BYTE   W02
        BYTE                   87
        BYTE   W01
        BYTE                   86
        BYTE   W03
        BYTE                   85
        BYTE   W02
        BYTE                   84
        BYTE   W01
        BYTE                   83
        BYTE   W02
        BYTE                   82
        BYTE   W01
        BYTE                   81
        BYTE   W03
        BYTE                   80
        BYTE   W02
        BYTE                   79
        BYTE   W01
        BYTE                   78
        BYTE   W02
        BYTE                   77
        BYTE   W03
        BYTE                   76
        BYTE   W01
        BYTE                   75
        BYTE   W02
        BYTE                   73
        BYTE   W03
        BYTE                   72
        BYTE   W03
        BYTE                   71
        BYTE   W01
        BYTE                   70
        BYTE   W02
        BYTE                   69
        BYTE   W03
        BYTE                   68
        BYTE   W01
        BYTE                   66
        BYTE   W02
        BYTE                   65
        BYTE   W01
        BYTE                   64
        BYTE   W03
        BYTE                   63
        BYTE   W02
        BYTE                   62
        BYTE   W03
        BYTE                   61
        BYTE   W01
        BYTE                   60
        BYTE   W02
        BYTE                   59
        BYTE   W01
        BYTE                   58
        BYTE   W05
        BYTE   PEND
// 018   ----------------------------------------
_00___Random_Dungeon_Theme_3_7_18:
        BYTE   W12
        BYTE           VOL     95
        BYTE   W12
        BYTE           N12     An2   v100
        BYTE   W18
        BYTE           N06
        BYTE   W06
        BYTE                   Cn3
        BYTE   W12
        BYTE                   An2
        BYTE   W12
        BYTE                   Cn3
        BYTE   W12
        BYTE                   Dn3
        BYTE   W12
        BYTE   PEND
// 019   ----------------------------------------
_00___Random_Dungeon_Theme_3_7_19:
        BYTE           N24     Dn3   v100
        BYTE           N24     Gn3
        BYTE   W36
        BYTE           N36     Dn3
        BYTE           N36     Fs3
        BYTE   W60
        BYTE   PEND
// 020   ----------------------------------------
_00___Random_Dungeon_Theme_3_7_20:
        BYTE           N24     Dn3   v100
        BYTE           N24     En3
        BYTE   W36
        BYTE           N36     Dn3
        BYTE           N36     Fs3
        BYTE   W60
        BYTE   PEND
// 021   ----------------------------------------
_00___Random_Dungeon_Theme_3_7_21:
        BYTE           N24     Dn3   v100
        BYTE           N24     Gn3
        BYTE   W36
        BYTE                   Dn3
        BYTE           N24     Fs3
        BYTE   W36
        BYTE           N96     Cs3
        BYTE           N96     En3
        BYTE   W24
        BYTE   PEND
// 022   ----------------------------------------
        BYTE   W96
// 023   ----------------------------------------
        BYTE   W96
// 024   ----------------------------------------
        BYTE   W96
// 025   ----------------------------------------
_00___Random_Dungeon_Theme_3_7_25:
        BYTE   W60
        BYTE           VOL     93
        BYTE           N12     Fn3   v100
        BYTE   W12
        BYTE                   En3
        BYTE   W12
        BYTE                   Fn3
        BYTE   W12
        BYTE   PEND
// 026   ----------------------------------------
_00___Random_Dungeon_Theme_3_7_26:
        BYTE           N24     En3   v100
        BYTE   W24
        BYTE           N36     Dn3
        BYTE   W36
        BYTE           N12     Cn3
        BYTE   W12
        BYTE                   Gn2
        BYTE   W12
        BYTE                   Cn3
        BYTE   W12
        BYTE   PEND
// 027   ----------------------------------------
_00___Random_Dungeon_Theme_3_7_27:
        BYTE           N96     As2   v100
        BYTE   W24
        BYTE   W03
        BYTE           VOL     94
        BYTE   W01
        BYTE                   93
        BYTE   W03
        BYTE                   92
        BYTE   W02
        BYTE                   91
        BYTE   W06
        BYTE                   90
        BYTE   W01
        BYTE                   89
        BYTE   W02
        BYTE                   88
        BYTE   W03
        BYTE                   87
        BYTE   W01
        BYTE                   86
        BYTE   W05
        BYTE                   85
        BYTE   W01
        BYTE                   84
        BYTE   W02
        BYTE                   83
        BYTE   W01
        BYTE                   82
        BYTE   W03
        BYTE                   81
        BYTE   W05
        BYTE                   80
        BYTE   W03
        BYTE                   79
        BYTE   W01
        BYTE                   78
        BYTE   W02
        BYTE                   77
        BYTE   W04
        BYTE                   76
        BYTE   W02
        BYTE                   75
        BYTE   W01
        BYTE                   74
        BYTE   W02
        BYTE                   73
        BYTE   W04
        BYTE                   72
        BYTE   W03
        BYTE                   71
        BYTE   W03
        BYTE                   70
        BYTE   W02
        BYTE                   69
        BYTE   W04
        BYTE                   95
        BYTE   W02
        BYTE   PEND
// 028   ----------------------------------------
_00___Random_Dungeon_Theme_3_7_28:
        BYTE           VOL     94
        BYTE           N48     Cn3   v100
        BYTE   W01
        BYTE           VOL     93
        BYTE   W02
        BYTE                   92
        BYTE   W01
        BYTE                   91
        BYTE   W06
        BYTE                   89
        BYTE   W03
        BYTE                   88
        BYTE   W02
        BYTE                   87
        BYTE   W01
        BYTE                   86
        BYTE   W03
        BYTE                   85
        BYTE   W02
        BYTE                   84
        BYTE   W01
        BYTE                   83
        BYTE   W03
        BYTE                   82
        BYTE   W02
        BYTE                   81
        BYTE   W04
        BYTE                   80
        BYTE   W02
        BYTE                   79
        BYTE   W01
        BYTE                   78
        BYTE   W02
        BYTE                   77
        BYTE   W04
        BYTE                   76
        BYTE   W02
        BYTE                   75
        BYTE   W01
        BYTE                   74
        BYTE   W02
        BYTE                   73
        BYTE   W03
        BYTE                   72
        BYTE           N48     As2
        BYTE   W01
        BYTE           VOL     95
        BYTE   W02
        BYTE                   93
        BYTE   W01
        BYTE                   92
        BYTE   W02
        BYTE                   91
        BYTE   W04
        BYTE                   90
        BYTE   W02
        BYTE                   89
        BYTE   W01
        BYTE                   87
        BYTE   W02
        BYTE                   86
        BYTE   W03
        BYTE                   85
        BYTE   W01
        BYTE                   84
        BYTE   W02
        BYTE                   83
        BYTE   W01
        BYTE                   82
        BYTE   W02
        BYTE                   81
        BYTE   W03
        BYTE                   80
        BYTE   W01
        BYTE                   79
        BYTE   W02
        BYTE                   78
        BYTE   W01
        BYTE                   77
        BYTE   W02
        BYTE                   76
        BYTE   W01
        BYTE                   75
        BYTE   W02
        BYTE                   74
        BYTE   W01
        BYTE                   73
        BYTE   W03
        BYTE                   72
        BYTE   W02
        BYTE                   71
        BYTE   W01
        BYTE                   70
        BYTE   W05
        BYTE   PEND
// 029   ----------------------------------------
_00___Random_Dungeon_Theme_3_7_29:
        BYTE           VOL     72
        BYTE           N56     Cs3   v100   gtp2
        BYTE   W01
        BYTE           VOL     95
        BYTE   W02
        BYTE                   93
        BYTE   W01
        BYTE                   92
        BYTE   W02
        BYTE                   91
        BYTE   W04
        BYTE                   90
        BYTE   W02
        BYTE                   89
        BYTE   W01
        BYTE                   87
        BYTE   W02
        BYTE                   86
        BYTE   W03
        BYTE                   85
        BYTE   W01
        BYTE                   84
        BYTE   W02
        BYTE                   83
        BYTE   W01
        BYTE                   82
        BYTE   W02
        BYTE                   81
        BYTE   W03
        BYTE                   80
        BYTE   W01
        BYTE                   79
        BYTE   W02
        BYTE                   78
        BYTE   W01
        BYTE                   77
        BYTE   W02
        BYTE                   76
        BYTE   W01
        BYTE                   75
        BYTE   W02
        BYTE                   74
        BYTE   W01
        BYTE                   73
        BYTE   W03
        BYTE                   72
        BYTE   W02
        BYTE                   71
        BYTE   W01
        BYTE                   70
        BYTE   W17
        BYTE                   82
        BYTE           N12     Gs3
        BYTE   W03
        BYTE           VOL     83
        BYTE   W03
        BYTE                   84
        BYTE   W01
        BYTE                   85
        BYTE   W02
        BYTE                   86
        BYTE   W03
        BYTE           N12     Gn3
        BYTE   W01
        BYTE           VOL     87
        BYTE   W02
        BYTE                   88
        BYTE   W03
        BYTE                   89
        BYTE   W03
        BYTE                   90
        BYTE   W01
        BYTE                   91
        BYTE   W02
        BYTE           N12     Gs3
        BYTE   W04
        BYTE           VOL     92
        BYTE   W02
        BYTE                   93
        BYTE   W03
        BYTE                   94
        BYTE   W01
        BYTE                   95
        BYTE   W02
        BYTE   PEND
// 030   ----------------------------------------
_00___Random_Dungeon_Theme_3_7_30:
        BYTE           N24     Gn3   v100
        BYTE   W24
        BYTE                   Fn3
        BYTE   W24
        BYTE                   As2
        BYTE   W24
        BYTE                   Fn3
        BYTE   W24
        BYTE   PEND
// 031   ----------------------------------------
_00___Random_Dungeon_Theme_3_7_31:
        BYTE           VOL     93
        BYTE           N96     En3   v100
        BYTE   W03
        BYTE           VOL     92
        BYTE   W01
        BYTE                   91
        BYTE   W06
        BYTE                   90
        BYTE   W02
        BYTE                   89
        BYTE   W01
        BYTE                   88
        BYTE   W02
        BYTE                   87
        BYTE   W03
        BYTE                   86
        BYTE   W03
        BYTE                   85
        BYTE   W01
        BYTE                   84
        BYTE   W02
        BYTE                   83
        BYTE   W03
        BYTE                   82
        BYTE   W01
        BYTE                   81
        BYTE   W05
        BYTE                   80
        BYTE   W03
        BYTE                   79
        BYTE   W01
        BYTE                   78
        BYTE   W02
        BYTE                   77
        BYTE   W04
        BYTE                   76
        BYTE   W02
        BYTE                   75
        BYTE   W01
        BYTE                   74
        BYTE   W02
        BYTE                   73
        BYTE   W04
        BYTE                   72
        BYTE   W03
        BYTE                   71
        BYTE   W02
        BYTE                   70
        BYTE   W01
        BYTE                   69
        BYTE   W05
        BYTE                   68
        BYTE   W01
        BYTE                   67
        BYTE   W02
        BYTE                   66
        BYTE   W01
        BYTE                   65
        BYTE   W03
        BYTE                   64
        BYTE   W03
        BYTE                   63
        BYTE   W03
        BYTE                   62
        BYTE   W03
        BYTE                   61
        BYTE   W02
        BYTE                   60
        BYTE   W04
        BYTE                   59
        BYTE   W02
        BYTE                   58
        BYTE   W01
        BYTE                   57
        BYTE   W02
        BYTE                   56
        BYTE   W04
        BYTE                   55
        BYTE   W02
        BYTE   PEND
// 032   ----------------------------------------
_00___Random_Dungeon_Theme_3_7_32:
        BYTE           VOL     54
        BYTE   W24
        BYTE                   95
        BYTE           N24     Cn3   v090
        BYTE   W24
        BYTE                   Dn3
        BYTE   W24
        BYTE                   En3
        BYTE   W24
        BYTE   PEND
// 033   ----------------------------------------
_00___Random_Dungeon_Theme_3_7_33:
        BYTE           N96     Dn3   v090
        BYTE   W06
        BYTE           VOL     94
        BYTE   W01
        BYTE                   93
        BYTE   W02
        BYTE                   92
        BYTE   W01
        BYTE                   91
        BYTE   W04
        BYTE                   90
        BYTE   W02
        BYTE                   89
        BYTE   W01
        BYTE                   88
        BYTE   W02
        BYTE                   87
        BYTE   W01
        BYTE                   86
        BYTE   W03
        BYTE                   85
        BYTE   W01
        BYTE                   84
        BYTE   W02
        BYTE                   83
        BYTE   W01
        BYTE                   82
        BYTE   W02
        BYTE                   81
        BYTE   W04
        BYTE                   80
        BYTE   W01
        BYTE                   79
        BYTE   W02
        BYTE                   78
        BYTE   W02
        BYTE                   77
        BYTE   W02
        BYTE                   76
        BYTE   W02
        BYTE                   75
        BYTE   W01
        BYTE                   74
        BYTE   W02
        BYTE                   73
        BYTE   W02
        BYTE                   72
        BYTE   W03
        BYTE                   71
        BYTE   W02
        BYTE                   70
        BYTE   W01
        BYTE                   69
        BYTE   W03
        BYTE                   68
        BYTE   W01
        BYTE                   67
        BYTE   W02
        BYTE                   66
        BYTE   W01
        BYTE                   65
        BYTE   W01
        BYTE                   64
        BYTE   W03
        BYTE                   63
        BYTE   W02
        BYTE                   62
        BYTE   W03
        BYTE                   61
        BYTE   W01
        BYTE                   60
        BYTE   W03
        BYTE                   59
        BYTE   W02
        BYTE                   58
        BYTE   W01
        BYTE                   57
        BYTE   W01
        BYTE                   56
        BYTE   W03
        BYTE                   55
        BYTE   W02
        BYTE                   54
        BYTE   W01
        BYTE                   53
        BYTE   W03
        BYTE                   52
        BYTE   W03
        BYTE                   51
        BYTE   W01
        BYTE                   50
        BYTE   W02
        BYTE                   49
        BYTE   W01
        BYTE                   48
        BYTE   W01
        BYTE                   47
        BYTE   W02
        BYTE   PEND
// 034   ----------------------------------------
        BYTE   W96
// 035   ----------------------------------------
_00___Random_Dungeon_Theme_3_7_35:
        BYTE           VOL     93
        BYTE           N96     As2   v100
        BYTE   W03
        BYTE           VOL     92
        BYTE   W01
        BYTE                   91
        BYTE   W06
        BYTE                   90
        BYTE   W02
        BYTE                   89
        BYTE   W01
        BYTE                   88
        BYTE   W02
        BYTE                   87
        BYTE   W03
        BYTE                   86
        BYTE   W03
        BYTE                   85
        BYTE   W01
        BYTE                   84
        BYTE   W02
        BYTE                   83
        BYTE   W03
        BYTE                   82
        BYTE   W01
        BYTE                   81
        BYTE   W05
        BYTE                   80
        BYTE   W03
        BYTE                   79
        BYTE   W01
        BYTE                   78
        BYTE   W02
        BYTE                   77
        BYTE   W04
        BYTE                   76
        BYTE   W02
        BYTE                   75
        BYTE   W01
        BYTE                   74
        BYTE   W02
        BYTE                   73
        BYTE   W04
        BYTE                   72
        BYTE   W03
        BYTE                   71
        BYTE   W02
        BYTE                   70
        BYTE   W01
        BYTE                   69
        BYTE   W05
        BYTE                   68
        BYTE   W01
        BYTE                   67
        BYTE   W02
        BYTE                   66
        BYTE   W01
        BYTE                   65
        BYTE   W03
        BYTE                   64
        BYTE   W03
        BYTE                   63
        BYTE   W03
        BYTE                   62
        BYTE   W03
        BYTE                   61
        BYTE   W02
        BYTE                   60
        BYTE   W04
        BYTE                   59
        BYTE   W02
        BYTE                   58
        BYTE   W01
        BYTE                   57
        BYTE   W02
        BYTE                   56
        BYTE   W04
        BYTE                   55
        BYTE   W02
        BYTE   PEND
// 036   ----------------------------------------
_00___Random_Dungeon_Theme_3_7_36:
        BYTE           VOL     54
        BYTE   W24
        BYTE                   95
        BYTE           N24     An2   v090
        BYTE   W24
        BYTE                   As2
        BYTE   W24
        BYTE                   Cn3
        BYTE   W24
        BYTE   PEND
// 037   ----------------------------------------
_00___Random_Dungeon_Theme_3_7_37:
        BYTE           N24     As2   v127
        BYTE   W36
        BYTE           N04
        BYTE   W06
        BYTE                   As2
        BYTE   W06
        BYTE           N24
        BYTE   W36
        BYTE           N04
        BYTE   W06
        BYTE                   As2
        BYTE   W06
        BYTE   PEND
// 038   ----------------------------------------
_00___Random_Dungeon_Theme_3_7_38:
        BYTE           N24     As3   v127
        BYTE   W36
        BYTE           N04
        BYTE   W06
        BYTE                   As3
        BYTE   W06
        BYTE           N40
        BYTE   W48
        BYTE   PEND
// 039   ----------------------------------------
_00___Random_Dungeon_Theme_3_7_39:
        BYTE           N06     An3   v127
        BYTE   W24
        BYTE           TIE
        BYTE   W48
        BYTE   W03
        BYTE           VOL     93
        BYTE   W03
        BYTE                   92
        BYTE   W01
        BYTE                   91
        BYTE   W05
        BYTE                   90
        BYTE   W01
        BYTE                   89
        BYTE   W02
        BYTE                   88
        BYTE   W01
        BYTE                   87
        BYTE   W02
        BYTE                   86
        BYTE   W03
        BYTE                   85
        BYTE   W01
        BYTE                   84
        BYTE   W02
        BYTE   PEND
// 040   ----------------------------------------
_00___Random_Dungeon_Theme_3_7_40:
        BYTE           VOL     83
        BYTE   W01
        BYTE                   82
        BYTE   W02
        BYTE                   81
        BYTE   W04
        BYTE                   80
        BYTE   W02
        BYTE                   79
        BYTE   W01
        BYTE                   78
        BYTE   W02
        BYTE                   77
        BYTE   W03
        BYTE                   76
        BYTE   W01
        BYTE                   75
        BYTE   W02
        BYTE                   74
        BYTE   W01
        BYTE                   73
        BYTE   W03
        BYTE                   72
        BYTE   W03
        BYTE                   71
        BYTE   W03
        BYTE                   70
        BYTE   W02
        BYTE                   69
        BYTE   W01
        BYTE                   68
        BYTE   W03
        BYTE                   67
        BYTE   W02
        BYTE                   66
        BYTE   W01
        BYTE                   64
        BYTE   W05
        BYTE                   63
        BYTE   W01
        BYTE                   62
        BYTE   W03
        BYTE                   61
        BYTE   W02
        BYTE                   60
        BYTE   W03
        BYTE                   59
        BYTE   W01
        BYTE                   58
        BYTE   W02
        BYTE                   57
        BYTE   W01
        BYTE                   56
        BYTE   W03
        BYTE                   55
        BYTE   W02
        BYTE                   54
        BYTE   W01
        BYTE                   53
        BYTE   W03
        BYTE                   52
        BYTE   W03
        BYTE                   51
        BYTE   W02
        BYTE                   50
        BYTE   W01
        BYTE                   49
        BYTE   W02
        BYTE                   48
        BYTE   W01
        BYTE                   47
        BYTE   W03
        BYTE                   46
        BYTE   W02
        BYTE                   45
        BYTE   W03
        BYTE                   43
        BYTE   W06
        BYTE                   42
        BYTE   W01
        BYTE                   40
        BYTE   W02
        BYTE                   39
        BYTE   W03
        BYTE                   38
        BYTE   W03
        BYTE   PEND
// 041   ----------------------------------------
        BYTE           EOT     An3
        BYTE   W96
// 042   ----------------------------------------
        BYTE           VOL     95
        BYTE   W96
// 043   ----------------------------------------
        BYTE   PATT
         POIN2  _00___Random_Dungeon_Theme_3_7_5
// 044   ----------------------------------------
        BYTE   PATT
         POIN2  _00___Random_Dungeon_Theme_3_7_6
// 045   ----------------------------------------
        BYTE   PATT
         POIN2  _00___Random_Dungeon_Theme_3_7_5
// 046   ----------------------------------------
        BYTE   PATT
         POIN2  _00___Random_Dungeon_Theme_3_7_8
// 047   ----------------------------------------
        BYTE   PATT
         POIN2  _00___Random_Dungeon_Theme_3_7_5
// 048   ----------------------------------------
        BYTE   PATT
         POIN2  _00___Random_Dungeon_Theme_3_7_10
// 049   ----------------------------------------
        BYTE   PATT
         POIN2  _00___Random_Dungeon_Theme_3_7_11
// 050   ----------------------------------------
        BYTE   W48
        BYTE           EOT     An2
        BYTE   W48
// 051   ----------------------------------------
        BYTE   PATT
         POIN2  _00___Random_Dungeon_Theme_3_7_13
// 052   ----------------------------------------
        BYTE   PATT
         POIN2  _00___Random_Dungeon_Theme_3_7_14
// 053   ----------------------------------------
        BYTE   PATT
         POIN2  _00___Random_Dungeon_Theme_3_7_15
// 054   ----------------------------------------
        BYTE   PATT
         POIN2  _00___Random_Dungeon_Theme_3_7_16
// 055   ----------------------------------------
        BYTE   PATT
         POIN2  _00___Random_Dungeon_Theme_3_7_17
// 056   ----------------------------------------
        BYTE   PATT
         POIN2  _00___Random_Dungeon_Theme_3_7_18
// 057   ----------------------------------------
        BYTE   PATT
         POIN2  _00___Random_Dungeon_Theme_3_7_19
// 058   ----------------------------------------
        BYTE   PATT
         POIN2  _00___Random_Dungeon_Theme_3_7_20
// 059   ----------------------------------------
        BYTE   PATT
         POIN2  _00___Random_Dungeon_Theme_3_7_21
// 060   ----------------------------------------
        BYTE   W96
// 061   ----------------------------------------
        BYTE   W96
// 062   ----------------------------------------
        BYTE   W96
// 063   ----------------------------------------
        BYTE   PATT
         POIN2  _00___Random_Dungeon_Theme_3_7_25
// 064   ----------------------------------------
        BYTE   PATT
         POIN2  _00___Random_Dungeon_Theme_3_7_26
// 065   ----------------------------------------
        BYTE   PATT
         POIN2  _00___Random_Dungeon_Theme_3_7_27
// 066   ----------------------------------------
        BYTE   PATT
         POIN2  _00___Random_Dungeon_Theme_3_7_28
// 067   ----------------------------------------
        BYTE   PATT
         POIN2  _00___Random_Dungeon_Theme_3_7_29
// 068   ----------------------------------------
        BYTE   PATT
         POIN2  _00___Random_Dungeon_Theme_3_7_30
// 069   ----------------------------------------
        BYTE   PATT
         POIN2  _00___Random_Dungeon_Theme_3_7_31
// 070   ----------------------------------------
        BYTE   PATT
         POIN2  _00___Random_Dungeon_Theme_3_7_32
// 071   ----------------------------------------
        BYTE   PATT
         POIN2  _00___Random_Dungeon_Theme_3_7_33
// 072   ----------------------------------------
        BYTE   W96
// 073   ----------------------------------------
        BYTE   PATT
         POIN2  _00___Random_Dungeon_Theme_3_7_35
// 074   ----------------------------------------
        BYTE   PATT
         POIN2  _00___Random_Dungeon_Theme_3_7_36
// 075   ----------------------------------------
        BYTE   PATT
         POIN2  _00___Random_Dungeon_Theme_3_7_37
// 076   ----------------------------------------
        BYTE   PATT
         POIN2  _00___Random_Dungeon_Theme_3_7_38
// 077   ----------------------------------------
        BYTE   PATT
         POIN2  _00___Random_Dungeon_Theme_3_7_39
// 078   ----------------------------------------
        BYTE   PATT
         POIN2  _00___Random_Dungeon_Theme_3_7_40
// 079   ----------------------------------------
        BYTE           EOT     An3
        BYTE   W96
// 080   ----------------------------------------
        BYTE           VOL     95
        BYTE   W96
// 081   ----------------------------------------
        BYTE   FINE

//****************** Track 8 (Midi-Chn.8) ******************//

_00___Random_Dungeon_Theme_3_8:
        BYTE   KEYSH   _00___Random_Dungeon_Theme_3_key+0
// 000   ----------------------------------------
        BYTE   W24
// 001   ----------------------------------------
        BYTE           PAN     c_v+63
        BYTE           VOL     50
        BYTE           VOICE   65
        BYTE   W96
// 002   ----------------------------------------
        BYTE   W96
// 003   ----------------------------------------
        BYTE   W96
// 004   ----------------------------------------
        BYTE   W96
// 005   ----------------------------------------
_00___Random_Dungeon_Theme_3_8_5:
        BYTE   W12
        BYTE           N12     An2   v127
        BYTE   W18
        BYTE           N06     Dn3
        BYTE   W06
        BYTE                   Fs3
        BYTE   W12
        BYTE           N12     Gn3
        BYTE   W24
        BYTE                   Gn3
        BYTE   W24
        BYTE   PEND
// 006   ----------------------------------------
_00___Random_Dungeon_Theme_3_8_6:
        BYTE           N06     Gn3   v127
        BYTE   W12
        BYTE           N12     Fs3
        BYTE   W18
        BYTE           N06     Dn3
        BYTE   W06
        BYTE                   An2
        BYTE   W12
        BYTE           N48     Cn3
        BYTE   W48
        BYTE   PEND
// 007   ----------------------------------------
        BYTE   PATT
         POIN2  _00___Random_Dungeon_Theme_3_8_5
// 008   ----------------------------------------
_00___Random_Dungeon_Theme_3_8_8:
        BYTE           N06     Gn3   v127
        BYTE   W12
        BYTE           N12     Fs3
        BYTE   W18
        BYTE           N06     Dn3
        BYTE   W06
        BYTE                   An2
        BYTE   W12
        BYTE           N48     Gn2
        BYTE   W48
        BYTE   PEND
// 009   ----------------------------------------
        BYTE   PATT
         POIN2  _00___Random_Dungeon_Theme_3_8_5
// 010   ----------------------------------------
_00___Random_Dungeon_Theme_3_8_10:
        BYTE           N06     Gn3   v127
        BYTE   W12
        BYTE           N12     Fs3
        BYTE   W18
        BYTE           N06     Dn3
        BYTE   W06
        BYTE                   An2
        BYTE   W12
        BYTE           N12     Cn3
        BYTE   W24
        BYTE           N24
        BYTE   W24
        BYTE   PEND
// 011   ----------------------------------------
_00___Random_Dungeon_Theme_3_8_11:
        BYTE           N12     Dn3   v127
        BYTE   W12
        BYTE                   Bn2
        BYTE   W18
        BYTE           N06     An2
        BYTE   W06
        BYTE                   Gn2
        BYTE   W12
        BYTE           TIE     An2
        BYTE   W48
        BYTE   PEND
// 012   ----------------------------------------
        BYTE   W60
        BYTE           EOT
        BYTE   W36
// 013   ----------------------------------------
_00___Random_Dungeon_Theme_3_8_13:
        BYTE   W12
        BYTE           VOL     49
        BYTE           N96     An2   v100
        BYTE   W24
        BYTE           VOL     48
        BYTE   W03
        BYTE                   47
        BYTE   W03
        BYTE                   46
        BYTE   W03
        BYTE                   45
        BYTE   W04
        BYTE                   44
        BYTE   W03
        BYTE                   43
        BYTE   W05
        BYTE                   42
        BYTE   W03
        BYTE                   41
        BYTE   W03
        BYTE                   40
        BYTE   W04
        BYTE                   39
        BYTE   W02
        BYTE                   38
        BYTE   W06
        BYTE                   37
        BYTE   W01
        BYTE                   36
        BYTE   W05
        BYTE                   35
        BYTE   W03
        BYTE                   34
        BYTE   W04
        BYTE                   33
        BYTE   W03
        BYTE                   32
        BYTE   W03
        BYTE                   31
        BYTE   W02
        BYTE   PEND
// 014   ----------------------------------------
_00___Random_Dungeon_Theme_3_8_14:
        BYTE   W03
        BYTE           VOL     30
        BYTE   W03
        BYTE                   29
        BYTE   W03
        BYTE                   28
        BYTE   W03
        BYTE                   27
        BYTE   W24
        BYTE                   50
        BYTE   W36
        BYTE           N12     Gn2   v100
        BYTE   W12
        BYTE           N06     Dn3
        BYTE   W12
        BYTE   PEND
// 015   ----------------------------------------
_00___Random_Dungeon_Theme_3_8_15:
        BYTE           N06     Gn3   v100
        BYTE   W12
        BYTE           N96     An3
        BYTE   W32
        BYTE   W01
        BYTE           VOL     49
        BYTE   W03
        BYTE                   47
        BYTE   W06
        BYTE                   46
        BYTE   W03
        BYTE                   45
        BYTE   W03
        BYTE                   44
        BYTE   W03
        BYTE                   43
        BYTE   W06
        BYTE                   42
        BYTE   W03
        BYTE                   41
        BYTE   W03
        BYTE                   40
        BYTE   W03
        BYTE                   39
        BYTE   W03
        BYTE                   38
        BYTE   W06
        BYTE                   37
        BYTE   W03
        BYTE                   36
        BYTE   W03
        BYTE                   35
        BYTE   W03
        BYTE   PEND
// 016   ----------------------------------------
_00___Random_Dungeon_Theme_3_8_16:
        BYTE           VOL     34
        BYTE   W06
        BYTE                   33
        BYTE   W03
        BYTE                   32
        BYTE   W03
        BYTE                   31
        BYTE   W21
        BYTE                   50
        BYTE   W36
        BYTE   W03
        BYTE           N06     Gn3   v100
        BYTE   W12
        BYTE           N12     Fs3
        BYTE   W12
        BYTE   PEND
// 017   ----------------------------------------
_00___Random_Dungeon_Theme_3_8_17:
        BYTE   W06
        BYTE           N06     Dn3   v100
        BYTE   W06
        BYTE           N96     An2
        BYTE   W24
        BYTE   W03
        BYTE           VOL     49
        BYTE   W03
        BYTE                   48
        BYTE   W03
        BYTE                   47
        BYTE   W03
        BYTE                   46
        BYTE   W03
        BYTE                   45
        BYTE   W04
        BYTE                   44
        BYTE   W03
        BYTE                   43
        BYTE   W05
        BYTE                   42
        BYTE   W03
        BYTE                   41
        BYTE   W03
        BYTE                   40
        BYTE   W04
        BYTE                   39
        BYTE   W02
        BYTE                   38
        BYTE   W04
        BYTE                   37
        BYTE   W03
        BYTE                   36
        BYTE   W05
        BYTE                   35
        BYTE   W01
        BYTE                   34
        BYTE   W06
        BYTE                   33
        BYTE   W02
        BYTE   PEND
// 018   ----------------------------------------
_00___Random_Dungeon_Theme_3_8_18:
        BYTE   W01
        BYTE           VOL     32
        BYTE   W03
        BYTE                   31
        BYTE   W03
        BYTE                   30
        BYTE   W17
        BYTE                   50
        BYTE   W12
        BYTE           N12     An2   v100
        BYTE   W18
        BYTE           N06
        BYTE   W06
        BYTE                   Cn3
        BYTE   W12
        BYTE                   An2
        BYTE   W12
        BYTE                   Cn3
        BYTE   W12
        BYTE   PEND
// 019   ----------------------------------------
_00___Random_Dungeon_Theme_3_8_19:
        BYTE           N06     Dn3   v100
        BYTE   W12
        BYTE           N24
        BYTE           N24     Gn3
        BYTE   W36
        BYTE           N36     Dn3
        BYTE           N36     Fs3
        BYTE   W48
        BYTE   PEND
// 020   ----------------------------------------
_00___Random_Dungeon_Theme_3_8_20:
        BYTE   W12
        BYTE           N24     Dn3   v100
        BYTE           N24     En3
        BYTE   W36
        BYTE           N36     Dn3
        BYTE           N36     Fs3
        BYTE   W48
        BYTE   PEND
// 021   ----------------------------------------
        BYTE   W96
// 022   ----------------------------------------
        BYTE   W96
// 023   ----------------------------------------
        BYTE   W96
// 024   ----------------------------------------
        BYTE   W96
// 025   ----------------------------------------
_00___Random_Dungeon_Theme_3_8_25:
        BYTE   W72
        BYTE           VOL     49
        BYTE           N12     Fn3   v100
        BYTE   W12
        BYTE                   En3
        BYTE   W12
        BYTE   PEND
// 026   ----------------------------------------
_00___Random_Dungeon_Theme_3_8_26:
        BYTE           N12     Fn3   v100
        BYTE   W12
        BYTE           N24     En3
        BYTE   W24
        BYTE           N36     Dn3
        BYTE   W36
        BYTE           N12     Cn3
        BYTE   W12
        BYTE                   Gn2
        BYTE   W12
        BYTE   PEND
// 027   ----------------------------------------
_00___Random_Dungeon_Theme_3_8_27:
        BYTE           N12     Cn3   v100
        BYTE   W12
        BYTE           N96     As2
        BYTE   W30
        BYTE   W01
        BYTE           VOL     48
        BYTE   W03
        BYTE                   47
        BYTE   W06
        BYTE                   46
        BYTE   W05
        BYTE                   45
        BYTE   W06
        BYTE                   44
        BYTE   W03
        BYTE                   43
        BYTE   W07
        BYTE                   42
        BYTE   W05
        BYTE                   41
        BYTE   W03
        BYTE                   40
        BYTE   W06
        BYTE                   39
        BYTE   W03
        BYTE                   38
        BYTE   W06
        BYTE   PEND
// 028   ----------------------------------------
_00___Random_Dungeon_Theme_3_8_28:
        BYTE   W01
        BYTE           VOL     37
        BYTE   W03
        BYTE                   36
        BYTE   W06
        BYTE                   50
        BYTE   W02
        BYTE                   49
        BYTE           N48     Cn3   v100
        BYTE   W03
        BYTE           VOL     48
        BYTE   W03
        BYTE                   47
        BYTE   W04
        BYTE                   46
        BYTE   W05
        BYTE                   45
        BYTE   W04
        BYTE                   44
        BYTE   W03
        BYTE                   43
        BYTE   W08
        BYTE                   42
        BYTE   W03
        BYTE                   41
        BYTE   W03
        BYTE                   40
        BYTE   W06
        BYTE                   39
        BYTE   W03
        BYTE                   38
        BYTE   W03
        BYTE           N48     As2
        BYTE   W01
        BYTE           VOL     50
        BYTE   W02
        BYTE                   49
        BYTE   W01
        BYTE                   48
        BYTE   W03
        BYTE                   47
        BYTE   W05
        BYTE                   46
        BYTE   W01
        BYTE                   45
        BYTE   W05
        BYTE                   44
        BYTE   W03
        BYTE                   43
        BYTE   W04
        BYTE                   42
        BYTE   W03
        BYTE                   41
        BYTE   W03
        BYTE                   40
        BYTE   W03
        BYTE                   39
        BYTE   W02
        BYTE   PEND
// 029   ----------------------------------------
_00___Random_Dungeon_Theme_3_8_29:
        BYTE   W01
        BYTE           VOL     38
        BYTE   W05
        BYTE                   37
        BYTE   W01
        BYTE                   36
        BYTE   W05
        BYTE                   38
        BYTE           N56     Cs3   v100   gtp2
        BYTE   W01
        BYTE           VOL     50
        BYTE   W02
        BYTE                   49
        BYTE   W01
        BYTE                   48
        BYTE   W03
        BYTE                   47
        BYTE   W05
        BYTE                   46
        BYTE   W01
        BYTE                   45
        BYTE   W05
        BYTE                   44
        BYTE   W03
        BYTE                   43
        BYTE   W04
        BYTE                   42
        BYTE   W03
        BYTE                   41
        BYTE   W03
        BYTE                   40
        BYTE   W03
        BYTE                   39
        BYTE   W03
        BYTE                   38
        BYTE   W05
        BYTE                   37
        BYTE   W01
        BYTE                   36
        BYTE   W17
        BYTE                   43
        BYTE           N12     Gs3
        BYTE   W06
        BYTE           VOL     44
        BYTE   W03
        BYTE                   45
        BYTE   W03
        BYTE           N12     Gn3
        BYTE   W03
        BYTE           VOL     46
        BYTE   W06
        BYTE                   47
        BYTE   W03
        BYTE   PEND
// 030   ----------------------------------------
_00___Random_Dungeon_Theme_3_8_30:
        BYTE           N12     Gs3   v100
        BYTE   W03
        BYTE           VOL     48
        BYTE   W03
        BYTE                   49
        BYTE   W04
        BYTE                   50
        BYTE   W02
        BYTE           N24     Gn3
        BYTE   W24
        BYTE                   Fn3
        BYTE   W24
        BYTE                   As2
        BYTE   W24
        BYTE                   Fn3
        BYTE   W12
        BYTE   PEND
// 031   ----------------------------------------
        BYTE   W96
// 032   ----------------------------------------
_00___Random_Dungeon_Theme_3_8_32:
        BYTE   W24
        BYTE           VOL     28
        BYTE   W12
        BYTE                   50
        BYTE           N24     Cn3   v090
        BYTE   W24
        BYTE                   Dn3
        BYTE   W24
        BYTE                   En3
        BYTE   W12
        BYTE   PEND
// 033   ----------------------------------------
_00___Random_Dungeon_Theme_3_8_33:
        BYTE   W12
        BYTE           N96     Dn3   v090
        BYTE   W06
        BYTE           VOL     49
        BYTE   W03
        BYTE                   48
        BYTE   W03
        BYTE                   47
        BYTE   W04
        BYTE                   46
        BYTE   W03
        BYTE                   45
        BYTE   W04
        BYTE                   44
        BYTE   W03
        BYTE                   43
        BYTE   W05
        BYTE                   42
        BYTE   W03
        BYTE                   41
        BYTE   W04
        BYTE                   40
        BYTE   W04
        BYTE                   39
        BYTE   W03
        BYTE                   38
        BYTE   W04
        BYTE                   37
        BYTE   W03
        BYTE                   36
        BYTE   W04
        BYTE                   35
        BYTE   W03
        BYTE                   34
        BYTE   W05
        BYTE                   33
        BYTE   W04
        BYTE                   32
        BYTE   W02
        BYTE                   31
        BYTE   W05
        BYTE                   30
        BYTE   W02
        BYTE                   29
        BYTE   W05
        BYTE                   28
        BYTE   W02
        BYTE   PEND
// 034   ----------------------------------------
_00___Random_Dungeon_Theme_3_8_34:
        BYTE   W01
        BYTE           VOL     27
        BYTE   W04
        BYTE                   26
        BYTE   W04
        BYTE                   25
        BYTE   W84
        BYTE   W03
        BYTE   PEND
// 035   ----------------------------------------
_00___Random_Dungeon_Theme_3_8_35:
        BYTE   W12
        BYTE           VOL     49
        BYTE           N96     As2   v100
        BYTE   W03
        BYTE           VOL     48
        BYTE   W03
        BYTE                   47
        BYTE   W06
        BYTE                   46
        BYTE   W03
        BYTE                   45
        BYTE   W06
        BYTE                   44
        BYTE   W03
        BYTE                   43
        BYTE   W07
        BYTE                   42
        BYTE   W05
        BYTE                   41
        BYTE   W03
        BYTE                   40
        BYTE   W06
        BYTE                   39
        BYTE   W03
        BYTE                   38
        BYTE   W06
        BYTE                   37
        BYTE   W03
        BYTE                   36
        BYTE   W06
        BYTE                   35
        BYTE   W03
        BYTE                   34
        BYTE   W07
        BYTE                   33
        BYTE   W03
        BYTE                   32
        BYTE   W05
        BYTE                   31
        BYTE   W03
        BYTE   PEND
// 036   ----------------------------------------
_00___Random_Dungeon_Theme_3_8_36:
        BYTE   W03
        BYTE           VOL     30
        BYTE   W03
        BYTE                   29
        BYTE   W06
        BYTE                   28
        BYTE   W24
        BYTE                   50
        BYTE           N24     An2   v090
        BYTE   W24
        BYTE                   As2
        BYTE   W24
        BYTE                   Cn3
        BYTE   W12
        BYTE   PEND
// 037   ----------------------------------------
_00___Random_Dungeon_Theme_3_8_37:
        BYTE   W12
        BYTE           N24     As2   v127
        BYTE   W36
        BYTE           N04
        BYTE   W06
        BYTE                   As2
        BYTE   W06
        BYTE           N24
        BYTE   W36
        BYTE   PEND
// 038   ----------------------------------------
_00___Random_Dungeon_Theme_3_8_38:
        BYTE           N04     As2   v127
        BYTE   W06
        BYTE                   As2
        BYTE   W06
        BYTE           N24     As3
        BYTE   W36
        BYTE           N04
        BYTE   W06
        BYTE                   As3
        BYTE   W06
        BYTE           N40
        BYTE   W36
        BYTE   PEND
// 039   ----------------------------------------
_00___Random_Dungeon_Theme_3_8_39:
        BYTE   W12
        BYTE           N06     An3   v127
        BYTE   W24
        BYTE           TIE
        BYTE   W48
        BYTE   W03
        BYTE           VOL     49
        BYTE   W03
        BYTE                   48
        BYTE   W03
        BYTE                   47
        BYTE   W03
        BYTE   PEND
// 040   ----------------------------------------
_00___Random_Dungeon_Theme_3_8_40:
        BYTE   W01
        BYTE           VOL     46
        BYTE   W03
        BYTE                   45
        BYTE   W05
        BYTE                   44
        BYTE   W03
        BYTE                   43
        BYTE   W06
        BYTE                   42
        BYTE   W03
        BYTE                   41
        BYTE   W03
        BYTE                   40
        BYTE   W04
        BYTE                   39
        BYTE   W03
        BYTE                   38
        BYTE   W05
        BYTE                   37
        BYTE   W04
        BYTE                   36
        BYTE   W03
        BYTE                   35
        BYTE   W05
        BYTE                   34
        BYTE   W06
        BYTE                   33
        BYTE   W03
        BYTE                   32
        BYTE   W03
        BYTE                   31
        BYTE   W04
        BYTE                   30
        BYTE   W03
        BYTE                   29
        BYTE   W05
        BYTE                   28
        BYTE   W03
        BYTE                   27
        BYTE   W04
        BYTE                   26
        BYTE   W05
        BYTE                   25
        BYTE   W04
        BYTE                   24
        BYTE   W05
        BYTE                   23
        BYTE   W01
        BYTE                   22
        BYTE   W02
        BYTE   PEND
// 041   ----------------------------------------
_00___Random_Dungeon_Theme_3_8_41:
        BYTE   W04
        BYTE           VOL     21
        BYTE   W02
        BYTE                   20
        BYTE   W06
        BYTE           EOT     An3
        BYTE   W84
        BYTE   PEND
// 042   ----------------------------------------
        BYTE   W12
        BYTE           VOL     50
        BYTE   W84
// 043   ----------------------------------------
        BYTE   PATT
         POIN2  _00___Random_Dungeon_Theme_3_8_5
// 044   ----------------------------------------
        BYTE   PATT
         POIN2  _00___Random_Dungeon_Theme_3_8_6
// 045   ----------------------------------------
        BYTE   PATT
         POIN2  _00___Random_Dungeon_Theme_3_8_5
// 046   ----------------------------------------
        BYTE   PATT
         POIN2  _00___Random_Dungeon_Theme_3_8_8
// 047   ----------------------------------------
        BYTE   PATT
         POIN2  _00___Random_Dungeon_Theme_3_8_5
// 048   ----------------------------------------
        BYTE   PATT
         POIN2  _00___Random_Dungeon_Theme_3_8_10
// 049   ----------------------------------------
        BYTE   PATT
         POIN2  _00___Random_Dungeon_Theme_3_8_11
// 050   ----------------------------------------
        BYTE   W60
        BYTE           EOT     An2
        BYTE   W36
// 051   ----------------------------------------
        BYTE   PATT
         POIN2  _00___Random_Dungeon_Theme_3_8_13
// 052   ----------------------------------------
        BYTE   PATT
         POIN2  _00___Random_Dungeon_Theme_3_8_14
// 053   ----------------------------------------
        BYTE   PATT
         POIN2  _00___Random_Dungeon_Theme_3_8_15
// 054   ----------------------------------------
        BYTE   PATT
         POIN2  _00___Random_Dungeon_Theme_3_8_16
// 055   ----------------------------------------
        BYTE   PATT
         POIN2  _00___Random_Dungeon_Theme_3_8_17
// 056   ----------------------------------------
        BYTE   PATT
         POIN2  _00___Random_Dungeon_Theme_3_8_18
// 057   ----------------------------------------
        BYTE   PATT
         POIN2  _00___Random_Dungeon_Theme_3_8_19
// 058   ----------------------------------------
        BYTE   PATT
         POIN2  _00___Random_Dungeon_Theme_3_8_20
// 059   ----------------------------------------
        BYTE   W96
// 060   ----------------------------------------
        BYTE   W96
// 061   ----------------------------------------
        BYTE   W96
// 062   ----------------------------------------
        BYTE   W96
// 063   ----------------------------------------
        BYTE   PATT
         POIN2  _00___Random_Dungeon_Theme_3_8_25
// 064   ----------------------------------------
        BYTE   PATT
         POIN2  _00___Random_Dungeon_Theme_3_8_26
// 065   ----------------------------------------
        BYTE   PATT
         POIN2  _00___Random_Dungeon_Theme_3_8_27
// 066   ----------------------------------------
        BYTE   PATT
         POIN2  _00___Random_Dungeon_Theme_3_8_28
// 067   ----------------------------------------
        BYTE   PATT
         POIN2  _00___Random_Dungeon_Theme_3_8_29
// 068   ----------------------------------------
        BYTE   PATT
         POIN2  _00___Random_Dungeon_Theme_3_8_30
// 069   ----------------------------------------
        BYTE   W96
// 070   ----------------------------------------
        BYTE   PATT
         POIN2  _00___Random_Dungeon_Theme_3_8_32
// 071   ----------------------------------------
        BYTE   PATT
         POIN2  _00___Random_Dungeon_Theme_3_8_33
// 072   ----------------------------------------
        BYTE   PATT
         POIN2  _00___Random_Dungeon_Theme_3_8_34
// 073   ----------------------------------------
        BYTE   PATT
         POIN2  _00___Random_Dungeon_Theme_3_8_35
// 074   ----------------------------------------
        BYTE   PATT
         POIN2  _00___Random_Dungeon_Theme_3_8_36
// 075   ----------------------------------------
        BYTE   PATT
         POIN2  _00___Random_Dungeon_Theme_3_8_37
// 076   ----------------------------------------
        BYTE   PATT
         POIN2  _00___Random_Dungeon_Theme_3_8_38
// 077   ----------------------------------------
        BYTE   PATT
         POIN2  _00___Random_Dungeon_Theme_3_8_39
// 078   ----------------------------------------
        BYTE   PATT
         POIN2  _00___Random_Dungeon_Theme_3_8_40
// 079   ----------------------------------------
        BYTE   PATT
         POIN2  _00___Random_Dungeon_Theme_3_8_41
// 080   ----------------------------------------
        BYTE   W12
        BYTE           VOL     50
        BYTE   W84
// 081   ----------------------------------------
        BYTE   FINE

//****************** Track 9 (Midi-Chn.9) ******************//

_00___Random_Dungeon_Theme_3_9:
        BYTE   KEYSH   _00___Random_Dungeon_Theme_3_key+0
// 000   ----------------------------------------
        BYTE   W24
// 001   ----------------------------------------
        BYTE           VOL     66
        BYTE           VOICE   0
        BYTE           N06     En1   v127
        BYTE   W12
        BYTE                   En1   v077
        BYTE   W06
        BYTE                   En1   v078
        BYTE   W06
        BYTE                   En1
        BYTE   W12
        BYTE                   En1   v127
        BYTE   W12
        BYTE                   En1   v078
        BYTE   W06
        BYTE                   En1   v079
        BYTE   W06
        BYTE                   En1   v127
        BYTE   W12
        BYTE                   En1   v078
        BYTE   W06
        BYTE                   En1   v077
        BYTE   W06
        BYTE                   En1   v127
        BYTE   W12
// 002   ----------------------------------------
_00___Random_Dungeon_Theme_3_9_2:
        BYTE           N06     En1   v127
        BYTE   W12
        BYTE                   En1   v077
        BYTE   W06
        BYTE                   En1   v078
        BYTE   W06
        BYTE                   En1
        BYTE   W12
        BYTE                   En1   v127
        BYTE   W12
        BYTE                   En1   v078
        BYTE   W06
        BYTE                   En1   v079
        BYTE   W06
        BYTE                   En1   v127
        BYTE   W12
        BYTE                   En1   v078
        BYTE   W06
        BYTE                   En1   v077
        BYTE   W06
        BYTE                   En1   v127
        BYTE   W12
        BYTE   PEND
// 003   ----------------------------------------
        BYTE   PATT
         POIN2  _00___Random_Dungeon_Theme_3_9_2
// 004   ----------------------------------------
        BYTE           N06     En1   v127
        BYTE   W12
        BYTE                   En1   v077
        BYTE   W06
        BYTE                   En1   v078
        BYTE   W06
        BYTE                   En1
        BYTE   W12
        BYTE                   En1   v127
        BYTE   W12
        BYTE           N04     As4   v028
        BYTE           N06     En1   v078
        BYTE   W04
        BYTE           N04     As4   v037
        BYTE   W02
        BYTE           N06     En1   v079
        BYTE   W02
        BYTE           N04     As4   v045
        BYTE   W04
        BYTE                   As4   v053
        BYTE           N06     En1   v127
        BYTE   W04
        BYTE           N04     As4   v061
        BYTE   W04
        BYTE                   As4   v070
        BYTE   W04
        BYTE                   As4   v078
        BYTE           N06     En1
        BYTE   W04
        BYTE           N04     As4   v086
        BYTE   W02
        BYTE           N06     En1   v077
        BYTE   W02
        BYTE           N04     As4   v094
        BYTE   W04
        BYTE                   As4   v103
        BYTE           N06     En1   v127
        BYTE   W04
        BYTE           N04     As4   v111
        BYTE   W04
        BYTE                   As4   v119
        BYTE   W04
// 005   ----------------------------------------
_00___Random_Dungeon_Theme_3_9_5:
        BYTE           N06     En1   v127
        BYTE           N06     As4
        BYTE   W12
        BYTE                   En1   v077
        BYTE   W06
        BYTE                   En1   v078
        BYTE   W06
        BYTE                   En1
        BYTE   W12
        BYTE                   En1   v127
        BYTE   W12
        BYTE                   En1   v078
        BYTE   W06
        BYTE                   En1   v079
        BYTE   W06
        BYTE                   En1   v127
        BYTE   W12
        BYTE                   En1   v078
        BYTE   W06
        BYTE                   En1   v077
        BYTE   W06
        BYTE                   En1   v127
        BYTE   W12
        BYTE   PEND
// 006   ----------------------------------------
        BYTE   PATT
         POIN2  _00___Random_Dungeon_Theme_3_9_2
// 007   ----------------------------------------
        BYTE   PATT
         POIN2  _00___Random_Dungeon_Theme_3_9_5
// 008   ----------------------------------------
        BYTE   PATT
         POIN2  _00___Random_Dungeon_Theme_3_9_2
// 009   ----------------------------------------
        BYTE   PATT
         POIN2  _00___Random_Dungeon_Theme_3_9_5
// 010   ----------------------------------------
        BYTE   PATT
         POIN2  _00___Random_Dungeon_Theme_3_9_2
// 011   ----------------------------------------
        BYTE   PATT
         POIN2  _00___Random_Dungeon_Theme_3_9_5
// 012   ----------------------------------------
        BYTE   PATT
         POIN2  _00___Random_Dungeon_Theme_3_9_2
// 013   ----------------------------------------
        BYTE   PATT
         POIN2  _00___Random_Dungeon_Theme_3_9_5
// 014   ----------------------------------------
        BYTE   PATT
         POIN2  _00___Random_Dungeon_Theme_3_9_2
// 015   ----------------------------------------
        BYTE   PATT
         POIN2  _00___Random_Dungeon_Theme_3_9_5
// 016   ----------------------------------------
        BYTE   PATT
         POIN2  _00___Random_Dungeon_Theme_3_9_2
// 017   ----------------------------------------
        BYTE   PATT
         POIN2  _00___Random_Dungeon_Theme_3_9_5
// 018   ----------------------------------------
        BYTE   PATT
         POIN2  _00___Random_Dungeon_Theme_3_9_2
// 019   ----------------------------------------
        BYTE   PATT
         POIN2  _00___Random_Dungeon_Theme_3_9_5
// 020   ----------------------------------------
        BYTE   PATT
         POIN2  _00___Random_Dungeon_Theme_3_9_2
// 021   ----------------------------------------
_00___Random_Dungeon_Theme_3_9_21:
        BYTE           N06     En1   v127
        BYTE           N06     As4
        BYTE   W12
        BYTE                   En1   v077
        BYTE   W06
        BYTE                   En1   v078
        BYTE   W06
        BYTE                   En1
        BYTE   W12
        BYTE                   En1   v127
        BYTE           N06     As4
        BYTE   W12
        BYTE                   En1   v078
        BYTE   W06
        BYTE                   En1   v079
        BYTE   W06
        BYTE                   En1   v084
        BYTE   W12
        BYTE                   En1   v127
        BYTE           N06     As4
        BYTE   W06
        BYTE                   En1   v077
        BYTE   W06
        BYTE                   En1   v083
        BYTE   W12
        BYTE   PEND
// 022   ----------------------------------------
        BYTE   PATT
         POIN2  _00___Random_Dungeon_Theme_3_9_2
// 023   ----------------------------------------
_00___Random_Dungeon_Theme_3_9_23:
        BYTE           N06     En1   v080
        BYTE           N24     As4   v064
        BYTE   W36
        BYTE           N06     En1   v080
        BYTE   W06
        BYTE                   En1
        BYTE   W06
        BYTE                   En1
        BYTE   W36
        BYTE                   En1
        BYTE   W06
        BYTE                   En1
        BYTE   W06
        BYTE   PEND
// 024   ----------------------------------------
_00___Random_Dungeon_Theme_3_9_24:
        BYTE           N06     En1   v080
        BYTE   W36
        BYTE                   En1
        BYTE   W06
        BYTE                   En1
        BYTE   W06
        BYTE                   En1
        BYTE   W12
        BYTE                   En1
        BYTE   W24
        BYTE                   En1
        BYTE   W12
        BYTE   PEND
// 025   ----------------------------------------
        BYTE   PATT
         POIN2  _00___Random_Dungeon_Theme_3_9_23
// 026   ----------------------------------------
        BYTE   PATT
         POIN2  _00___Random_Dungeon_Theme_3_9_24
// 027   ----------------------------------------
        BYTE   PATT
         POIN2  _00___Random_Dungeon_Theme_3_9_23
// 028   ----------------------------------------
        BYTE   PATT
         POIN2  _00___Random_Dungeon_Theme_3_9_24
// 029   ----------------------------------------
        BYTE   PATT
         POIN2  _00___Random_Dungeon_Theme_3_9_23
// 030   ----------------------------------------
_00___Random_Dungeon_Theme_3_9_30:
        BYTE           N04     As4   v008
        BYTE           N06     En1   v080
        BYTE   W04
        BYTE           N04     As4   v013
        BYTE   W04
        BYTE                   As4   v017
        BYTE   W04
        BYTE                   As4   v022
        BYTE   W04
        BYTE                   As4   v026
        BYTE   W04
        BYTE                   As4   v030
        BYTE   W04
        BYTE                   As4   v035
        BYTE   W04
        BYTE                   As4   v039
        BYTE   W04
        BYTE                   As4   v043
        BYTE   W04
        BYTE                   As4   v048
        BYTE           N06     En1   v080
        BYTE   W04
        BYTE           N04     As4   v052
        BYTE   W02
        BYTE           N06     En1   v080
        BYTE   W02
        BYTE           N04     As4   v057
        BYTE   W04
        BYTE                   As4   v061
        BYTE           N06     En1   v080
        BYTE   W04
        BYTE           N04     As4   v065
        BYTE   W04
        BYTE                   As4   v069
        BYTE   W04
        BYTE                   As4   v074
        BYTE           N06     En1   v080
        BYTE   W04
        BYTE           N04     As4   v078
        BYTE   W04
        BYTE                   As4   v082
        BYTE   W04
        BYTE                   As4   v087
        BYTE   W04
        BYTE                   As4   v091
        BYTE   W04
        BYTE                   As4   v095
        BYTE   W04
        BYTE                   As4   v100
        BYTE           N06     En1   v080
        BYTE   W04
        BYTE           N04     As4   v104
        BYTE   W04
        BYTE                   As4   v109
        BYTE   W04
        BYTE   PEND
// 031   ----------------------------------------
        BYTE   PATT
         POIN2  _00___Random_Dungeon_Theme_3_9_5
// 032   ----------------------------------------
        BYTE   PATT
         POIN2  _00___Random_Dungeon_Theme_3_9_2
// 033   ----------------------------------------
        BYTE   PATT
         POIN2  _00___Random_Dungeon_Theme_3_9_2
// 034   ----------------------------------------
        BYTE   PATT
         POIN2  _00___Random_Dungeon_Theme_3_9_2
// 035   ----------------------------------------
        BYTE   PATT
         POIN2  _00___Random_Dungeon_Theme_3_9_2
// 036   ----------------------------------------
        BYTE   PATT
         POIN2  _00___Random_Dungeon_Theme_3_9_2
// 037   ----------------------------------------
        BYTE   PATT
         POIN2  _00___Random_Dungeon_Theme_3_9_2
// 038   ----------------------------------------
_00___Random_Dungeon_Theme_3_9_38:
        BYTE           N06     En1   v127
        BYTE   W12
        BYTE                   En1   v077
        BYTE   W06
        BYTE                   En1   v078
        BYTE   W06
        BYTE                   En1
        BYTE   W12
        BYTE                   En1   v127
        BYTE   W12
        BYTE                   En1   v126
        BYTE   W06
        BYTE                   En1   v079
        BYTE   W06
        BYTE                   En1
        BYTE   W12
        BYTE                   En1   v078
        BYTE   W06
        BYTE                   En1   v077
        BYTE   W06
        BYTE                   En1   v127
        BYTE   W12
        BYTE   PEND
// 039   ----------------------------------------
_00___Random_Dungeon_Theme_3_9_39:
        BYTE           N06     En1   v127
        BYTE   W12
        BYTE                   En1   v077
        BYTE   W06
        BYTE                   En1   v078
        BYTE   W06
        BYTE           N03     En1   v127
        BYTE           N06     As4
        BYTE   W03
        BYTE           N03     En1   v089
        BYTE   W03
        BYTE                   En1   v081
        BYTE   W03
        BYTE                   En1   v074
        BYTE   W03
        BYTE                   En1   v066
        BYTE   W03
        BYTE                   En1   v098
        BYTE   W03
        BYTE                   En1   v091
        BYTE   W03
        BYTE                   En1   v083
        BYTE   W03
        BYTE                   En1   v071
        BYTE   W03
        BYTE                   En1   v070
        BYTE   W03
        BYTE                   En1   v068
        BYTE   W03
        BYTE                   En1   v066
        BYTE   W03
        BYTE                   En1   v065
        BYTE   W03
        BYTE                   En1   v062
        BYTE   W03
        BYTE                   En1
        BYTE   W03
        BYTE                   En1
        BYTE   W03
        BYTE                   En1
        BYTE   W03
        BYTE                   En1
        BYTE   W03
        BYTE                   En1
        BYTE   W03
        BYTE                   En1
        BYTE   W03
        BYTE                   En1
        BYTE   W03
        BYTE                   En1
        BYTE   W03
        BYTE                   En1
        BYTE   W03
        BYTE                   En1
        BYTE   W03
        BYTE   PEND
// 040   ----------------------------------------
_00___Random_Dungeon_Theme_3_9_40:
        BYTE           N03     En1   v062
        BYTE   W03
        BYTE                   En1
        BYTE   W03
        BYTE                   En1
        BYTE   W03
        BYTE                   En1
        BYTE   W03
        BYTE                   En1
        BYTE   W03
        BYTE                   En1
        BYTE   W03
        BYTE                   En1
        BYTE   W03
        BYTE                   En1
        BYTE   W03
        BYTE                   En1
        BYTE   W03
        BYTE                   En1
        BYTE   W03
        BYTE                   En1
        BYTE   W03
        BYTE                   En1
        BYTE   W03
        BYTE                   En1
        BYTE   W03
        BYTE                   En1
        BYTE   W03
        BYTE                   En1
        BYTE   W03
        BYTE                   En1
        BYTE   W03
        BYTE                   En1
        BYTE   W03
        BYTE                   En1
        BYTE   W03
        BYTE                   En1
        BYTE   W03
        BYTE                   En1
        BYTE   W03
        BYTE                   En1
        BYTE   W03
        BYTE                   En1
        BYTE   W03
        BYTE                   En1   v064
        BYTE   W03
        BYTE                   En1   v065
        BYTE   W03
        BYTE                   En1   v066
        BYTE   W03
        BYTE                   En1   v067
        BYTE   W03
        BYTE                   En1   v068
        BYTE   W03
        BYTE                   En1   v070
        BYTE   W03
        BYTE                   En1   v071
        BYTE   W03
        BYTE                   En1   v068
        BYTE   W03
        BYTE                   En1   v080
        BYTE   W03
        BYTE                   En1   v099
        BYTE   W03
        BYTE   PEND
// 041   ----------------------------------------
        BYTE   PATT
         POIN2  _00___Random_Dungeon_Theme_3_9_2
// 042   ----------------------------------------
_00___Random_Dungeon_Theme_3_9_42:
        BYTE           N06     En1   v127
        BYTE   W12
        BYTE                   En1   v077
        BYTE   W06
        BYTE                   En1   v078
        BYTE   W06
        BYTE                   En1
        BYTE   W12
        BYTE                   En1   v127
        BYTE   W12
        BYTE           N04     As4   v028
        BYTE           N06     En1   v078
        BYTE   W04
        BYTE           N04     As4   v032
        BYTE   W02
        BYTE           N06     En1   v079
        BYTE   W02
        BYTE           N04     As4   v036
        BYTE   W04
        BYTE                   As4   v040
        BYTE           N06     En1   v127
        BYTE   W04
        BYTE           N04     As4   v044
        BYTE   W04
        BYTE                   As4   v048
        BYTE   W04
        BYTE                   As4   v052
        BYTE           N06     En1   v078
        BYTE   W04
        BYTE           N04     As4   v057
        BYTE   W02
        BYTE           N06     En1   v077
        BYTE   W02
        BYTE           N04     As4   v061
        BYTE   W04
        BYTE                   As4   v065
        BYTE           N06     En1   v127
        BYTE   W04
        BYTE           N04     As4   v069
        BYTE   W04
        BYTE                   As4   v073
        BYTE   W04
        BYTE   PEND
// 043   ----------------------------------------
        BYTE   PATT
         POIN2  _00___Random_Dungeon_Theme_3_9_5
// 044   ----------------------------------------
        BYTE   PATT
         POIN2  _00___Random_Dungeon_Theme_3_9_2
// 045   ----------------------------------------
        BYTE   PATT
         POIN2  _00___Random_Dungeon_Theme_3_9_5
// 046   ----------------------------------------
        BYTE   PATT
         POIN2  _00___Random_Dungeon_Theme_3_9_2
// 047   ----------------------------------------
        BYTE   PATT
         POIN2  _00___Random_Dungeon_Theme_3_9_5
// 048   ----------------------------------------
        BYTE   PATT
         POIN2  _00___Random_Dungeon_Theme_3_9_2
// 049   ----------------------------------------
        BYTE   PATT
         POIN2  _00___Random_Dungeon_Theme_3_9_5
// 050   ----------------------------------------
        BYTE   PATT
         POIN2  _00___Random_Dungeon_Theme_3_9_2
// 051   ----------------------------------------
        BYTE   PATT
         POIN2  _00___Random_Dungeon_Theme_3_9_5
// 052   ----------------------------------------
        BYTE   PATT
         POIN2  _00___Random_Dungeon_Theme_3_9_2
// 053   ----------------------------------------
        BYTE   PATT
         POIN2  _00___Random_Dungeon_Theme_3_9_5
// 054   ----------------------------------------
        BYTE   PATT
         POIN2  _00___Random_Dungeon_Theme_3_9_2
// 055   ----------------------------------------
        BYTE   PATT
         POIN2  _00___Random_Dungeon_Theme_3_9_5
// 056   ----------------------------------------
        BYTE   PATT
         POIN2  _00___Random_Dungeon_Theme_3_9_2
// 057   ----------------------------------------
        BYTE   PATT
         POIN2  _00___Random_Dungeon_Theme_3_9_5
// 058   ----------------------------------------
        BYTE   PATT
         POIN2  _00___Random_Dungeon_Theme_3_9_2
// 059   ----------------------------------------
        BYTE   PATT
         POIN2  _00___Random_Dungeon_Theme_3_9_21
// 060   ----------------------------------------
        BYTE   PATT
         POIN2  _00___Random_Dungeon_Theme_3_9_2
// 061   ----------------------------------------
        BYTE   PATT
         POIN2  _00___Random_Dungeon_Theme_3_9_23
// 062   ----------------------------------------
        BYTE   PATT
         POIN2  _00___Random_Dungeon_Theme_3_9_24
// 063   ----------------------------------------
        BYTE   PATT
         POIN2  _00___Random_Dungeon_Theme_3_9_23
// 064   ----------------------------------------
        BYTE   PATT
         POIN2  _00___Random_Dungeon_Theme_3_9_24
// 065   ----------------------------------------
        BYTE   PATT
         POIN2  _00___Random_Dungeon_Theme_3_9_23
// 066   ----------------------------------------
        BYTE   PATT
         POIN2  _00___Random_Dungeon_Theme_3_9_24
// 067   ----------------------------------------
        BYTE   PATT
         POIN2  _00___Random_Dungeon_Theme_3_9_23
// 068   ----------------------------------------
        BYTE   PATT
         POIN2  _00___Random_Dungeon_Theme_3_9_30
// 069   ----------------------------------------
        BYTE   PATT
         POIN2  _00___Random_Dungeon_Theme_3_9_5
// 070   ----------------------------------------
        BYTE   PATT
         POIN2  _00___Random_Dungeon_Theme_3_9_2
// 071   ----------------------------------------
        BYTE   PATT
         POIN2  _00___Random_Dungeon_Theme_3_9_2
// 072   ----------------------------------------
        BYTE   PATT
         POIN2  _00___Random_Dungeon_Theme_3_9_2
// 073   ----------------------------------------
        BYTE   PATT
         POIN2  _00___Random_Dungeon_Theme_3_9_2
// 074   ----------------------------------------
        BYTE   PATT
         POIN2  _00___Random_Dungeon_Theme_3_9_2
// 075   ----------------------------------------
        BYTE   PATT
         POIN2  _00___Random_Dungeon_Theme_3_9_2
// 076   ----------------------------------------
        BYTE   PATT
         POIN2  _00___Random_Dungeon_Theme_3_9_38
// 077   ----------------------------------------
        BYTE   PATT
         POIN2  _00___Random_Dungeon_Theme_3_9_39
// 078   ----------------------------------------
        BYTE   PATT
         POIN2  _00___Random_Dungeon_Theme_3_9_40
// 079   ----------------------------------------
        BYTE   PATT
         POIN2  _00___Random_Dungeon_Theme_3_9_2
// 080   ----------------------------------------
        BYTE   PATT
         POIN2  _00___Random_Dungeon_Theme_3_9_42
// 081   ----------------------------------------
        BYTE   FINE

//***************** Track 10 (Midi-Chn.10) *****************//

_00___Random_Dungeon_Theme_3_10:
        BYTE   KEYSH   _00___Random_Dungeon_Theme_3_key+0
// 000   ----------------------------------------
        BYTE   W24
// 001   ----------------------------------------
        BYTE           PAN     c_v+63
        BYTE           VOL     45
        BYTE           VOICE   65
        BYTE   W96
// 002   ----------------------------------------
        BYTE   W96
// 003   ----------------------------------------
        BYTE   W96
// 004   ----------------------------------------
        BYTE   W96
// 005   ----------------------------------------
_00___Random_Dungeon_Theme_3_10_5:
        BYTE   W24
        BYTE           N12     An2   v127
        BYTE   W18
        BYTE           N06     Dn3
        BYTE   W06
        BYTE                   Fs3
        BYTE   W12
        BYTE           N12     Gn3
        BYTE   W24
        BYTE                   Gn3
        BYTE   W12
        BYTE   PEND
// 006   ----------------------------------------
_00___Random_Dungeon_Theme_3_10_6:
        BYTE   W12
        BYTE           N06     Gn3   v127
        BYTE   W12
        BYTE           N12     Fs3
        BYTE   W18
        BYTE           N06     Dn3
        BYTE   W06
        BYTE                   An2
        BYTE   W12
        BYTE           N48     Cn3
        BYTE   W36
        BYTE   PEND
// 007   ----------------------------------------
        BYTE   PATT
         POIN2  _00___Random_Dungeon_Theme_3_10_5
// 008   ----------------------------------------
_00___Random_Dungeon_Theme_3_10_8:
        BYTE   W12
        BYTE           N06     Gn3   v127
        BYTE   W12
        BYTE           N12     Fs3
        BYTE   W18
        BYTE           N06     Dn3
        BYTE   W06
        BYTE                   An2
        BYTE   W12
        BYTE           N48     Gn2
        BYTE   W36
        BYTE   PEND
// 009   ----------------------------------------
        BYTE   PATT
         POIN2  _00___Random_Dungeon_Theme_3_10_5
// 010   ----------------------------------------
_00___Random_Dungeon_Theme_3_10_10:
        BYTE   W12
        BYTE           N06     Gn3   v127
        BYTE   W12
        BYTE           N12     Fs3
        BYTE   W18
        BYTE           N06     Dn3
        BYTE   W06
        BYTE                   An2
        BYTE   W12
        BYTE           N12     Cn3
        BYTE   W24
        BYTE           N24
        BYTE   W12
        BYTE   PEND
// 011   ----------------------------------------
_00___Random_Dungeon_Theme_3_10_11:
        BYTE   W12
        BYTE           N12     Dn3   v127
        BYTE   W12
        BYTE                   Bn2
        BYTE   W18
        BYTE           N06     An2
        BYTE   W06
        BYTE                   Gn2
        BYTE   W12
        BYTE           TIE     An2
        BYTE   W36
        BYTE   PEND
// 012   ----------------------------------------
        BYTE   W72
        BYTE           EOT
        BYTE   W24
// 013   ----------------------------------------
        BYTE   W96
// 014   ----------------------------------------
        BYTE   W96
// 015   ----------------------------------------
        BYTE   W96
// 016   ----------------------------------------
        BYTE   W96
// 017   ----------------------------------------
        BYTE   W96
// 018   ----------------------------------------
        BYTE   W96
// 019   ----------------------------------------
        BYTE   W96
// 020   ----------------------------------------
        BYTE   W96
// 021   ----------------------------------------
        BYTE   W96
// 022   ----------------------------------------
        BYTE   W96
// 023   ----------------------------------------
        BYTE   W96
// 024   ----------------------------------------
        BYTE   W96
// 025   ----------------------------------------
_00___Random_Dungeon_Theme_3_10_25:
        BYTE   W84
        BYTE           N12     Fn3   v100
        BYTE   W12
        BYTE   PEND
// 026   ----------------------------------------
_00___Random_Dungeon_Theme_3_10_26:
        BYTE           N12     En3   v100
        BYTE   W12
        BYTE                   Fn3
        BYTE   W12
        BYTE           N24     En3
        BYTE   W24
        BYTE           N36     Dn3
        BYTE   W36
        BYTE           N12     Cn3
        BYTE   W12
        BYTE   PEND
// 027   ----------------------------------------
_00___Random_Dungeon_Theme_3_10_27:
        BYTE           N12     Gn2   v100
        BYTE   W12
        BYTE                   Cn3
        BYTE   W12
        BYTE           N96     As2
        BYTE   W30
        BYTE   W01
        BYTE           VOL     44
        BYTE   W03
        BYTE                   43
        BYTE   W06
        BYTE                   42
        BYTE   W06
        BYTE                   41
        BYTE   W06
        BYTE                   40
        BYTE   W03
        BYTE                   39
        BYTE   W08
        BYTE                   38
        BYTE   W04
        BYTE                   37
        BYTE   W05
        BYTE   PEND
// 028   ----------------------------------------
_00___Random_Dungeon_Theme_3_10_28:
        BYTE   W01
        BYTE           VOL     36
        BYTE   W05
        BYTE                   35
        BYTE   W07
        BYTE                   34
        BYTE   W03
        BYTE                   33
        BYTE   W06
        BYTE                   45
        BYTE   W02
        BYTE           N48     Cn3   v100
        BYTE   W03
        BYTE           VOL     44
        BYTE   W03
        BYTE                   43
        BYTE   W04
        BYTE                   42
        BYTE   W06
        BYTE                   41
        BYTE   W05
        BYTE                   40
        BYTE   W04
        BYTE                   39
        BYTE   W06
        BYTE                   38
        BYTE   W03
        BYTE                   37
        BYTE   W06
        BYTE                   36
        BYTE   W05
        BYTE                   35
        BYTE   W03
        BYTE           N48     As2
        BYTE   W01
        BYTE           VOL     45
        BYTE   W03
        BYTE                   44
        BYTE   W03
        BYTE                   43
        BYTE   W05
        BYTE                   42
        BYTE   W03
        BYTE                   41
        BYTE   W04
        BYTE                   40
        BYTE   W03
        BYTE                   39
        BYTE   W02
        BYTE   PEND
// 029   ----------------------------------------
_00___Random_Dungeon_Theme_3_10_29:
        BYTE   W03
        BYTE           VOL     38
        BYTE   W03
        BYTE                   37
        BYTE   W03
        BYTE                   36
        BYTE   W04
        BYTE                   35
        BYTE   W05
        BYTE                   34
        BYTE   W01
        BYTE                   33
        BYTE   W05
        BYTE                   35
        BYTE           N56     Cs3   v100   gtp2
        BYTE   W01
        BYTE           VOL     45
        BYTE   W03
        BYTE                   44
        BYTE   W03
        BYTE                   43
        BYTE   W05
        BYTE                   42
        BYTE   W03
        BYTE                   41
        BYTE   W04
        BYTE                   40
        BYTE   W03
        BYTE                   39
        BYTE   W05
        BYTE                   38
        BYTE   W03
        BYTE                   37
        BYTE   W03
        BYTE                   36
        BYTE   W04
        BYTE                   35
        BYTE   W05
        BYTE                   34
        BYTE   W01
        BYTE                   33
        BYTE   W17
        BYTE                   39
        BYTE           N12     Gs3
        BYTE   W03
        BYTE           VOL     40
        BYTE   W04
        BYTE                   41
        BYTE   W05
        BYTE   PEND
// 030   ----------------------------------------
_00___Random_Dungeon_Theme_3_10_30:
        BYTE           N12     Gn3   v100
        BYTE   W01
        BYTE           VOL     42
        BYTE   W08
        BYTE                   43
        BYTE   W03
        BYTE           N12     Gs3
        BYTE   W03
        BYTE           VOL     44
        BYTE   W03
        BYTE                   45
        BYTE   W06
        BYTE           N24     Gn3
        BYTE   W24
        BYTE                   Fn3
        BYTE   W48
        BYTE   PEND
// 031   ----------------------------------------
        BYTE   W96
// 032   ----------------------------------------
        BYTE   W96
// 033   ----------------------------------------
        BYTE   W96
// 034   ----------------------------------------
        BYTE   W96
// 035   ----------------------------------------
        BYTE   W96
// 036   ----------------------------------------
        BYTE   W96
// 037   ----------------------------------------
        BYTE   W96
// 038   ----------------------------------------
        BYTE   W96
// 039   ----------------------------------------
_00___Random_Dungeon_Theme_3_10_39:
        BYTE   W24
        BYTE           N06     An3   v127
        BYTE   W24
        BYTE           TIE
        BYTE   W48
        BYTE   PEND
// 040   ----------------------------------------
_00___Random_Dungeon_Theme_3_10_40:
        BYTE   W06
        BYTE           VOL     44
        BYTE   W03
        BYTE                   43
        BYTE   W04
        BYTE                   42
        BYTE   W05
        BYTE                   41
        BYTE   W04
        BYTE                   40
        BYTE   W03
        BYTE                   39
        BYTE   W06
        BYTE                   38
        BYTE   W03
        BYTE                   37
        BYTE   W05
        BYTE                   36
        BYTE   W04
        BYTE                   35
        BYTE   W05
        BYTE                   34
        BYTE   W04
        BYTE                   33
        BYTE   W03
        BYTE                   32
        BYTE   W06
        BYTE                   31
        BYTE   W05
        BYTE                   30
        BYTE   W03
        BYTE                   29
        BYTE   W06
        BYTE                   28
        BYTE   W03
        BYTE                   27
        BYTE   W04
        BYTE                   26
        BYTE   W05
        BYTE                   25
        BYTE   W04
        BYTE                   24
        BYTE   W03
        BYTE                   23
        BYTE   W02
        BYTE   PEND
// 041   ----------------------------------------
_00___Random_Dungeon_Theme_3_10_41:
        BYTE   W04
        BYTE           VOL     22
        BYTE   W05
        BYTE                   21
        BYTE   W01
        BYTE                   20
        BYTE   W06
        BYTE                   19
        BYTE   W05
        BYTE                   18
        BYTE   W03
        BYTE           EOT     An3
        BYTE   W72
        BYTE   PEND
// 042   ----------------------------------------
        BYTE   W24
        BYTE           VOL     45
        BYTE   W72
// 043   ----------------------------------------
        BYTE   PATT
         POIN2  _00___Random_Dungeon_Theme_3_10_5
// 044   ----------------------------------------
        BYTE   PATT
         POIN2  _00___Random_Dungeon_Theme_3_10_6
// 045   ----------------------------------------
        BYTE   PATT
         POIN2  _00___Random_Dungeon_Theme_3_10_5
// 046   ----------------------------------------
        BYTE   PATT
         POIN2  _00___Random_Dungeon_Theme_3_10_8
// 047   ----------------------------------------
        BYTE   PATT
         POIN2  _00___Random_Dungeon_Theme_3_10_5
// 048   ----------------------------------------
        BYTE   PATT
         POIN2  _00___Random_Dungeon_Theme_3_10_10
// 049   ----------------------------------------
        BYTE   PATT
         POIN2  _00___Random_Dungeon_Theme_3_10_11
// 050   ----------------------------------------
        BYTE   W72
        BYTE           EOT     An2
        BYTE   W24
// 051   ----------------------------------------
        BYTE   W96
// 052   ----------------------------------------
        BYTE   W96
// 053   ----------------------------------------
        BYTE   W96
// 054   ----------------------------------------
        BYTE   W96
// 055   ----------------------------------------
        BYTE   W96
// 056   ----------------------------------------
        BYTE   W96
// 057   ----------------------------------------
        BYTE   W96
// 058   ----------------------------------------
        BYTE   W96
// 059   ----------------------------------------
        BYTE   W96
// 060   ----------------------------------------
        BYTE   W96
// 061   ----------------------------------------
        BYTE   W96
// 062   ----------------------------------------
        BYTE   W96
// 063   ----------------------------------------
        BYTE   PATT
         POIN2  _00___Random_Dungeon_Theme_3_10_25
// 064   ----------------------------------------
        BYTE   PATT
         POIN2  _00___Random_Dungeon_Theme_3_10_26
// 065   ----------------------------------------
        BYTE   PATT
         POIN2  _00___Random_Dungeon_Theme_3_10_27
// 066   ----------------------------------------
        BYTE   PATT
         POIN2  _00___Random_Dungeon_Theme_3_10_28
// 067   ----------------------------------------
        BYTE   PATT
         POIN2  _00___Random_Dungeon_Theme_3_10_29
// 068   ----------------------------------------
        BYTE   PATT
         POIN2  _00___Random_Dungeon_Theme_3_10_30
// 069   ----------------------------------------
        BYTE   W96
// 070   ----------------------------------------
        BYTE   W96
// 071   ----------------------------------------
        BYTE   W96
// 072   ----------------------------------------
        BYTE   W96
// 073   ----------------------------------------
        BYTE   W96
// 074   ----------------------------------------
        BYTE   W96
// 075   ----------------------------------------
        BYTE   W96
// 076   ----------------------------------------
        BYTE   W96
// 077   ----------------------------------------
        BYTE   PATT
         POIN2  _00___Random_Dungeon_Theme_3_10_39
// 078   ----------------------------------------
        BYTE   PATT
         POIN2  _00___Random_Dungeon_Theme_3_10_40
// 079   ----------------------------------------
        BYTE   PATT
         POIN2  _00___Random_Dungeon_Theme_3_10_41
// 080   ----------------------------------------
        BYTE   W24
        BYTE           VOL     45
        BYTE   W72
// 081   ----------------------------------------
        BYTE   FINE

//***************** Track 11 (Midi-Chn.11) *****************//

_00___Random_Dungeon_Theme_3_11:
        BYTE   KEYSH   _00___Random_Dungeon_Theme_3_key+0
// 000   ----------------------------------------
        BYTE   W24
// 001   ----------------------------------------
        BYTE           PAN     c_v+16
        BYTE           VOL     74
        BYTE           VOICE   65
        BYTE           N06     Dn2   v110
        BYTE   W36
        BYTE                   Dn2
        BYTE   W24
        BYTE                   Dn2
        BYTE   W24
        BYTE                   Dn2
        BYTE   W12
// 002   ----------------------------------------
_00___Random_Dungeon_Theme_3_11_2:
        BYTE           N06     Dn2   v110
        BYTE   W36
        BYTE                   Dn2
        BYTE   W24
        BYTE                   Dn2
        BYTE   W24
        BYTE                   Dn2
        BYTE   W12
        BYTE   PEND
// 003   ----------------------------------------
        BYTE   PATT
         POIN2  _00___Random_Dungeon_Theme_3_11_2
// 004   ----------------------------------------
        BYTE   PATT
         POIN2  _00___Random_Dungeon_Theme_3_11_2
// 005   ----------------------------------------
        BYTE   PATT
         POIN2  _00___Random_Dungeon_Theme_3_11_2
// 006   ----------------------------------------
        BYTE   PATT
         POIN2  _00___Random_Dungeon_Theme_3_11_2
// 007   ----------------------------------------
        BYTE   PATT
         POIN2  _00___Random_Dungeon_Theme_3_11_2
// 008   ----------------------------------------
        BYTE   PATT
         POIN2  _00___Random_Dungeon_Theme_3_11_2
// 009   ----------------------------------------
        BYTE   PATT
         POIN2  _00___Random_Dungeon_Theme_3_11_2
// 010   ----------------------------------------
        BYTE   PATT
         POIN2  _00___Random_Dungeon_Theme_3_11_2
// 011   ----------------------------------------
_00___Random_Dungeon_Theme_3_11_11:
        BYTE           N06     Dn2   v110
        BYTE   W36
        BYTE                   Dn2
        BYTE   W24
        BYTE                   Dn2
        BYTE           N18     Gn2   v127
        BYTE           N18     An2
        BYTE   W18
        BYTE           N06     Gn2   v060
        BYTE           N06     An2
        BYTE   W06
        BYTE                   Dn2   v110
        BYTE           N06     Gn2   v127
        BYTE           N06     An2
        BYTE   W06
        BYTE                   Gn2   v060
        BYTE           N06     An2
        BYTE   W06
        BYTE   PEND
// 012   ----------------------------------------
_00___Random_Dungeon_Theme_3_11_12:
        BYTE           N06     Dn2   v110
        BYTE           N12     Cn3   v127
        BYTE           N12     En3
        BYTE   W12
        BYTE           N06     Cn3   v060
        BYTE           N06     En3
        BYTE   W06
        BYTE                   Dn3   v127
        BYTE           N06     Fs3
        BYTE   W06
        BYTE                   En3
        BYTE           N06     Gn3
        BYTE   W06
        BYTE                   En3   v060
        BYTE           N06     Gn3
        BYTE   W06
        BYTE                   Dn2   v110
        BYTE           N48     Dn3   v127
        BYTE           N48     Fs3
        BYTE   W24
        BYTE           N06     Dn2   v110
        BYTE   W24
        BYTE                   Dn2
        BYTE           N06     Dn3   v060
        BYTE           N06     Fs3
        BYTE   W06
        BYTE                   Dn3   v040
        BYTE           N06     Fs3
        BYTE   W06
        BYTE   PEND
// 013   ----------------------------------------
        BYTE   PATT
         POIN2  _00___Random_Dungeon_Theme_3_11_2
// 014   ----------------------------------------
        BYTE   PATT
         POIN2  _00___Random_Dungeon_Theme_3_11_2
// 015   ----------------------------------------
        BYTE   PATT
         POIN2  _00___Random_Dungeon_Theme_3_11_2
// 016   ----------------------------------------
        BYTE   PATT
         POIN2  _00___Random_Dungeon_Theme_3_11_2
// 017   ----------------------------------------
        BYTE   PATT
         POIN2  _00___Random_Dungeon_Theme_3_11_2
// 018   ----------------------------------------
        BYTE   PATT
         POIN2  _00___Random_Dungeon_Theme_3_11_2
// 019   ----------------------------------------
        BYTE   PATT
         POIN2  _00___Random_Dungeon_Theme_3_11_11
// 020   ----------------------------------------
        BYTE   PATT
         POIN2  _00___Random_Dungeon_Theme_3_11_12
// 021   ----------------------------------------
_00___Random_Dungeon_Theme_3_11_21:
        BYTE           N06     Dn2   v110
        BYTE   W36
        BYTE                   Dn2
        BYTE   W36
        BYTE                   An1
        BYTE           N12     An2   v127
        BYTE           N12     En3
        BYTE   W12
        BYTE           N06     An1   v110
        BYTE   W06
        BYTE           N04     An2   v127
        BYTE           N04     En3
        BYTE   W06
        BYTE   PEND
// 022   ----------------------------------------
_00___Random_Dungeon_Theme_3_11_22:
        BYTE           N06     An1   v110
        BYTE           N96     An2   v127
        BYTE           N96     En3
        BYTE   W36
        BYTE           N06     An1   v110
        BYTE   W24
        BYTE                   An1
        BYTE   W24
        BYTE                   An1
        BYTE   W12
        BYTE   PEND
// 023   ----------------------------------------
_00___Random_Dungeon_Theme_3_11_23:
        BYTE           N06     Gn1   v110
        BYTE   W24
        BYTE                   Gn1
        BYTE   W24
        BYTE                   Gn1
        BYTE   W24
        BYTE                   Gn1
        BYTE   W24
        BYTE   PEND
// 024   ----------------------------------------
        BYTE   PATT
         POIN2  _00___Random_Dungeon_Theme_3_11_23
// 025   ----------------------------------------
_00___Random_Dungeon_Theme_3_11_25:
        BYTE           N06     Fn1   v110
        BYTE   W24
        BYTE                   Fn1
        BYTE   W24
        BYTE                   Fn1
        BYTE   W24
        BYTE                   Fn1
        BYTE   W24
        BYTE   PEND
// 026   ----------------------------------------
        BYTE   PATT
         POIN2  _00___Random_Dungeon_Theme_3_11_25
// 027   ----------------------------------------
_00___Random_Dungeon_Theme_3_11_27:
        BYTE           N06     Ds2   v110
        BYTE   W24
        BYTE                   Ds2
        BYTE   W24
        BYTE                   Ds2
        BYTE   W24
        BYTE                   Ds2
        BYTE   W24
        BYTE   PEND
// 028   ----------------------------------------
        BYTE   PATT
         POIN2  _00___Random_Dungeon_Theme_3_11_27
// 029   ----------------------------------------
_00___Random_Dungeon_Theme_3_11_29:
        BYTE           N06     Cs2   v110
        BYTE   W24
        BYTE                   Cs2
        BYTE   W24
        BYTE                   Cs2
        BYTE   W24
        BYTE                   Cs2
        BYTE   W24
        BYTE   PEND
// 030   ----------------------------------------
        BYTE   PATT
         POIN2  _00___Random_Dungeon_Theme_3_11_29
// 031   ----------------------------------------
_00___Random_Dungeon_Theme_3_11_31:
        BYTE           N06     Cn1   v127
        BYTE   W36
        BYTE                   Cn1
        BYTE   W06
        BYTE           N04     Gn2   v110
        BYTE           N04     Cn3
        BYTE   W06
        BYTE           N96     Gn2
        BYTE           N96     Cn3
        BYTE   W12
        BYTE           N06     Cn1   v127
        BYTE   W24
        BYTE                   Cn1
        BYTE   W12
        BYTE   PEND
// 032   ----------------------------------------
        BYTE   PATT
         POIN2  _00___Random_Dungeon_Theme_3_0_31
// 033   ----------------------------------------
_00___Random_Dungeon_Theme_3_11_33:
        BYTE           N06     As0   v127
        BYTE   W36
        BYTE                   As0
        BYTE   W06
        BYTE           N04     As2   v110
        BYTE           N04     Dn3
        BYTE   W06
        BYTE           N96     As2
        BYTE           N96     Dn3
        BYTE   W12
        BYTE           N06     As0   v127
        BYTE   W24
        BYTE                   As0
        BYTE   W12
        BYTE   PEND
// 034   ----------------------------------------
        BYTE   PATT
         POIN2  _00___Random_Dungeon_Theme_3_0_33
// 035   ----------------------------------------
_00___Random_Dungeon_Theme_3_11_35:
        BYTE           N06     Ds1   v127
        BYTE   W36
        BYTE                   Ds1
        BYTE   W06
        BYTE           N04     As2   v110
        BYTE           N04     Ds3
        BYTE   W06
        BYTE           N48     As2
        BYTE           N48     Ds3
        BYTE   W12
        BYTE           N06     Ds1   v127
        BYTE   W24
        BYTE                   Ds1
        BYTE   W12
        BYTE   PEND
// 036   ----------------------------------------
_00___Random_Dungeon_Theme_3_11_36:
        BYTE           N06     Fn1   v127
        BYTE   W18
        BYTE           N04     An2   v110
        BYTE           N04     Cn3
        BYTE   W06
        BYTE           N48     An2
        BYTE           N48     Cn3
        BYTE   W12
        BYTE           N06     Fn1   v127
        BYTE   W24
        BYTE                   Fn1
        BYTE   W24
        BYTE                   Fn1
        BYTE   W12
        BYTE   PEND
// 037   ----------------------------------------
_00___Random_Dungeon_Theme_3_11_37:
        BYTE           N06     Gs1   v127
        BYTE   W18
        BYTE           N04     Cn3   v110
        BYTE           N04     Fn3
        BYTE   W06
        BYTE           N48     Cn3
        BYTE           N48     Fn3
        BYTE   W12
        BYTE           N06     Gs1   v127
        BYTE   W24
        BYTE                   Gs1
        BYTE   W24
        BYTE                   Gs1
        BYTE   W12
        BYTE   PEND
// 038   ----------------------------------------
_00___Random_Dungeon_Theme_3_11_38:
        BYTE           N06     As1   v127
        BYTE   W18
        BYTE           N04     Dn3   v110
        BYTE           N04     Fn3
        BYTE   W06
        BYTE           N24     Dn3
        BYTE           N24     Fn3
        BYTE   W12
        BYTE           N06     As1   v127
        BYTE   W12
        BYTE                   Cn2
        BYTE   W18
        BYTE           N04     En3   v110
        BYTE           N04     Gn3
        BYTE   W06
        BYTE           N24     En3
        BYTE           N24     Gn3
        BYTE   W12
        BYTE           N06     Cn2   v127
        BYTE   W12
        BYTE   PEND
// 039   ----------------------------------------
_00___Random_Dungeon_Theme_3_11_39:
        BYTE           N04     Fs3   v110
        BYTE           N04     An3
        BYTE           N06     Dn2
        BYTE   W24
        BYTE           TIE     Fs3
        BYTE           TIE     An3
        BYTE   W12
        BYTE           N06     Dn2
        BYTE   W24
        BYTE                   Dn2
        BYTE   W24
        BYTE                   Dn2
        BYTE   W12
        BYTE   PEND
// 040   ----------------------------------------
        BYTE   PATT
         POIN2  _00___Random_Dungeon_Theme_3_11_2
// 041   ----------------------------------------
_00___Random_Dungeon_Theme_3_11_41:
        BYTE           EOT     Fs3
        BYTE                   An3
        BYTE           N06     Dn2   v110
        BYTE   W36
        BYTE                   Dn2
        BYTE   W24
        BYTE                   Dn2
        BYTE   W24
        BYTE                   Dn2
        BYTE   W12
        BYTE   PEND
// 042   ----------------------------------------
        BYTE   PATT
         POIN2  _00___Random_Dungeon_Theme_3_11_2
// 043   ----------------------------------------
        BYTE   PATT
         POIN2  _00___Random_Dungeon_Theme_3_11_2
// 044   ----------------------------------------
        BYTE   PATT
         POIN2  _00___Random_Dungeon_Theme_3_11_2
// 045   ----------------------------------------
        BYTE   PATT
         POIN2  _00___Random_Dungeon_Theme_3_11_2
// 046   ----------------------------------------
        BYTE   PATT
         POIN2  _00___Random_Dungeon_Theme_3_11_2
// 047   ----------------------------------------
        BYTE   PATT
         POIN2  _00___Random_Dungeon_Theme_3_11_2
// 048   ----------------------------------------
        BYTE   PATT
         POIN2  _00___Random_Dungeon_Theme_3_11_2
// 049   ----------------------------------------
        BYTE   PATT
         POIN2  _00___Random_Dungeon_Theme_3_11_11
// 050   ----------------------------------------
        BYTE   PATT
         POIN2  _00___Random_Dungeon_Theme_3_11_12
// 051   ----------------------------------------
        BYTE   PATT
         POIN2  _00___Random_Dungeon_Theme_3_11_2
// 052   ----------------------------------------
        BYTE   PATT
         POIN2  _00___Random_Dungeon_Theme_3_11_2
// 053   ----------------------------------------
        BYTE   PATT
         POIN2  _00___Random_Dungeon_Theme_3_11_2
// 054   ----------------------------------------
        BYTE   PATT
         POIN2  _00___Random_Dungeon_Theme_3_11_2
// 055   ----------------------------------------
        BYTE   PATT
         POIN2  _00___Random_Dungeon_Theme_3_11_2
// 056   ----------------------------------------
        BYTE   PATT
         POIN2  _00___Random_Dungeon_Theme_3_11_2
// 057   ----------------------------------------
        BYTE   PATT
         POIN2  _00___Random_Dungeon_Theme_3_11_11
// 058   ----------------------------------------
        BYTE   PATT
         POIN2  _00___Random_Dungeon_Theme_3_11_12
// 059   ----------------------------------------
        BYTE   PATT
         POIN2  _00___Random_Dungeon_Theme_3_11_21
// 060   ----------------------------------------
        BYTE   PATT
         POIN2  _00___Random_Dungeon_Theme_3_11_22
// 061   ----------------------------------------
        BYTE   PATT
         POIN2  _00___Random_Dungeon_Theme_3_11_23
// 062   ----------------------------------------
        BYTE   PATT
         POIN2  _00___Random_Dungeon_Theme_3_11_23
// 063   ----------------------------------------
        BYTE   PATT
         POIN2  _00___Random_Dungeon_Theme_3_11_25
// 064   ----------------------------------------
        BYTE   PATT
         POIN2  _00___Random_Dungeon_Theme_3_11_25
// 065   ----------------------------------------
        BYTE   PATT
         POIN2  _00___Random_Dungeon_Theme_3_11_27
// 066   ----------------------------------------
        BYTE   PATT
         POIN2  _00___Random_Dungeon_Theme_3_11_27
// 067   ----------------------------------------
        BYTE   PATT
         POIN2  _00___Random_Dungeon_Theme_3_11_29
// 068   ----------------------------------------
        BYTE   PATT
         POIN2  _00___Random_Dungeon_Theme_3_11_29
// 069   ----------------------------------------
        BYTE   PATT
         POIN2  _00___Random_Dungeon_Theme_3_11_31
// 070   ----------------------------------------
        BYTE   PATT
         POIN2  _00___Random_Dungeon_Theme_3_0_31
// 071   ----------------------------------------
        BYTE   PATT
         POIN2  _00___Random_Dungeon_Theme_3_11_33
// 072   ----------------------------------------
        BYTE   PATT
         POIN2  _00___Random_Dungeon_Theme_3_0_33
// 073   ----------------------------------------
        BYTE   PATT
         POIN2  _00___Random_Dungeon_Theme_3_11_35
// 074   ----------------------------------------
        BYTE   PATT
         POIN2  _00___Random_Dungeon_Theme_3_11_36
// 075   ----------------------------------------
        BYTE   PATT
         POIN2  _00___Random_Dungeon_Theme_3_11_37
// 076   ----------------------------------------
        BYTE   PATT
         POIN2  _00___Random_Dungeon_Theme_3_11_38
// 077   ----------------------------------------
        BYTE   PATT
         POIN2  _00___Random_Dungeon_Theme_3_11_39
// 078   ----------------------------------------
        BYTE   PATT
         POIN2  _00___Random_Dungeon_Theme_3_11_2
// 079   ----------------------------------------
        BYTE   PATT
         POIN2  _00___Random_Dungeon_Theme_3_11_41
// 080   ----------------------------------------
        BYTE   PATT
         POIN2  _00___Random_Dungeon_Theme_3_11_2
// 081   ----------------------------------------
        BYTE   FINE

//***************** Track 12 (Midi-Chn.12) *****************//

_00___Random_Dungeon_Theme_3_12:
        BYTE   KEYSH   _00___Random_Dungeon_Theme_3_key+0
// 000   ----------------------------------------
        BYTE   W24
// 001   ----------------------------------------
        BYTE           VOL     53
        BYTE           VOICE   48
        BYTE   W06
        BYTE           N06     Fs3   v110
        BYTE   W06
        BYTE                   Dn1   v127
        BYTE   W06
        BYTE                   Fs3   v074
        BYTE   W12
        BYTE                   Fs3
        BYTE   W12
        BYTE                   Gn3   v110
        BYTE   W06
        BYTE                   Dn1   v127
        BYTE   W06
        BYTE                   Gn3   v074
        BYTE   W12
        BYTE                   Gn3   v110
        BYTE   W06
        BYTE                   Dn1   v127
        BYTE   W06
        BYTE                   Gn3   v074
        BYTE   W12
        BYTE                   Gn3   v110
        BYTE   W06
// 002   ----------------------------------------
_00___Random_Dungeon_Theme_3_12_2:
        BYTE           N06     Dn1   v127
        BYTE   W06
        BYTE                   Fs3   v110
        BYTE   W06
        BYTE                   Dn1   v127
        BYTE   W06
        BYTE                   Fs3   v074
        BYTE   W12
        BYTE                   Fs3
        BYTE   W12
        BYTE                   En3   v110
        BYTE   W06
        BYTE                   Dn1   v127
        BYTE   W06
        BYTE                   En3   v074
        BYTE   W12
        BYTE                   En3   v110
        BYTE   W06
        BYTE                   Dn1   v127
        BYTE   W06
        BYTE                   En3   v074
        BYTE   W12
        BYTE                   En3   v110
        BYTE   W06
        BYTE   PEND
// 003   ----------------------------------------
        BYTE                   Dn1   v127
        BYTE   W06
        BYTE                   Fs3   v110
        BYTE   W06
        BYTE                   Dn1   v127
        BYTE   W06
        BYTE                   Fs3   v074
        BYTE   W12
        BYTE                   Fs3
        BYTE   W12
        BYTE                   Gn3   v110
        BYTE   W06
        BYTE                   Dn1   v127
        BYTE   W06
        BYTE                   Gn3   v074
        BYTE   W12
        BYTE                   Gn3   v110
        BYTE   W06
        BYTE                   Dn1   v127
        BYTE   W06
        BYTE                   Gn3   v074
        BYTE   W12
        BYTE                   Gn3   v110
        BYTE   W06
// 004   ----------------------------------------
        BYTE   PATT
         POIN2  _00___Random_Dungeon_Theme_3_12_2
// 005   ----------------------------------------
_00___Random_Dungeon_Theme_3_12_5:
        BYTE           N06     Dn1   v127
        BYTE   W06
        BYTE                   Dn3   v110
        BYTE   W06
        BYTE                   Dn1   v127
        BYTE   W06
        BYTE                   Dn3   v074
        BYTE   W12
        BYTE                   Dn3
        BYTE   W12
        BYTE                   Dn3   v110
        BYTE   W06
        BYTE                   Dn1   v127
        BYTE   W06
        BYTE                   Dn3   v074
        BYTE   W12
        BYTE                   Dn3   v110
        BYTE   W06
        BYTE                   Dn1   v127
        BYTE   W06
        BYTE                   Dn3   v074
        BYTE   W12
        BYTE                   Dn3   v110
        BYTE   W06
        BYTE   PEND
// 006   ----------------------------------------
_00___Random_Dungeon_Theme_3_12_6:
        BYTE           N06     Dn1   v127
        BYTE   W06
        BYTE                   Dn3   v110
        BYTE   W06
        BYTE                   Dn1   v127
        BYTE   W06
        BYTE                   Dn3   v074
        BYTE   W12
        BYTE                   Dn3
        BYTE   W12
        BYTE                   Cn3   v110
        BYTE   W06
        BYTE                   Dn1   v127
        BYTE   W06
        BYTE                   Cn3   v074
        BYTE   W12
        BYTE                   Cn3   v110
        BYTE   W06
        BYTE                   Dn1   v127
        BYTE   W06
        BYTE                   Cn3   v074
        BYTE   W12
        BYTE                   Cn3   v110
        BYTE   W06
        BYTE   PEND
// 007   ----------------------------------------
        BYTE   PATT
         POIN2  _00___Random_Dungeon_Theme_3_12_5
// 008   ----------------------------------------
        BYTE   PATT
         POIN2  _00___Random_Dungeon_Theme_3_12_6
// 009   ----------------------------------------
        BYTE   PATT
         POIN2  _00___Random_Dungeon_Theme_3_12_5
// 010   ----------------------------------------
        BYTE   PATT
         POIN2  _00___Random_Dungeon_Theme_3_12_6
// 011   ----------------------------------------
_00___Random_Dungeon_Theme_3_12_11:
        BYTE           N06     Dn1   v127
        BYTE   W06
        BYTE                   Dn3   v110
        BYTE   W06
        BYTE                   Gn1   v127
        BYTE   W06
        BYTE                   Dn3   v074
        BYTE   W12
        BYTE                   Dn3
        BYTE   W12
        BYTE                   Dn3   v110
        BYTE   W06
        BYTE                   Dn1   v127
        BYTE   W06
        BYTE                   Dn3   v074
        BYTE   W12
        BYTE                   Dn3   v110
        BYTE   W06
        BYTE                   Dn1   v127
        BYTE   W06
        BYTE                   Dn3   v074
        BYTE   W12
        BYTE                   Dn3   v110
        BYTE   W06
        BYTE   PEND
// 012   ----------------------------------------
        BYTE   PATT
         POIN2  _00___Random_Dungeon_Theme_3_12_5
// 013   ----------------------------------------
        BYTE   W96
// 014   ----------------------------------------
        BYTE   W96
// 015   ----------------------------------------
        BYTE   W96
// 016   ----------------------------------------
        BYTE   W96
// 017   ----------------------------------------
        BYTE   W96
// 018   ----------------------------------------
        BYTE   W96
// 019   ----------------------------------------
        BYTE   W96
// 020   ----------------------------------------
        BYTE   W96
// 021   ----------------------------------------
        BYTE   W72
        BYTE           VOL     83
        BYTE   W24
// 022   ----------------------------------------
_00___Random_Dungeon_Theme_3_12_22:
        BYTE   W60
        BYTE   W03
        BYTE           VOL     74
        BYTE   W09
        BYTE           N24     An2   v127
        BYTE   W12
        BYTE           VOL     75
        BYTE   W12
        BYTE   PEND
// 023   ----------------------------------------
_00___Random_Dungeon_Theme_3_12_23:
        BYTE           N60     Bn2   v127
        BYTE   W09
        BYTE           VOL     76
        BYTE   W15
        BYTE                   77
        BYTE   W06
        BYTE                   78
        BYTE   W06
        BYTE                   79
        BYTE   W09
        BYTE                   80
        BYTE   W09
        BYTE                   81
        BYTE   W03
        BYTE                   82
        BYTE   W03
        BYTE                   83
        BYTE           N12     Dn3
        BYTE   W12
        BYTE                   Cs3
        BYTE   W12
        BYTE                   Dn3
        BYTE   W12
        BYTE   PEND
// 024   ----------------------------------------
_00___Random_Dungeon_Theme_3_12_24:
        BYTE           N24     Cs3   v127
        BYTE   W24
        BYTE           N48     Bn2
        BYTE   W48
        BYTE           N24     An2
        BYTE   W24
        BYTE   PEND
// 025   ----------------------------------------
_00___Random_Dungeon_Theme_3_12_25:
        BYTE           N24     Gn2   v127
        BYTE   W24
        BYTE                   An2
        BYTE   W24
        BYTE           N36     En3
        BYTE   W36
        BYTE           N12     An2
        BYTE   W12
        BYTE   PEND
// 026   ----------------------------------------
_00___Random_Dungeon_Theme_3_12_26:
        BYTE           N72     En3   v127
        BYTE   W24
        BYTE           VOL     82
        BYTE   W03
        BYTE                   81
        BYTE   W06
        BYTE                   80
        BYTE   W12
        BYTE                   79
        BYTE   W09
        BYTE                   78
        BYTE   W03
        BYTE                   77
        BYTE   W03
        BYTE                   76
        BYTE   W06
        BYTE                   75
        BYTE   W06
        BYTE                   73
        BYTE           N24     Cn3
        BYTE   W03
        BYTE           VOL     76
        BYTE   W03
        BYTE                   77
        BYTE   W03
        BYTE                   79
        BYTE   W06
        BYTE                   80
        BYTE   W06
        BYTE                   81
        BYTE   W03
        BYTE   PEND
// 027   ----------------------------------------
_00___Random_Dungeon_Theme_3_12_27:
        BYTE           N60     Gn3   v127
        BYTE   W03
        BYTE           VOL     83
        BYTE   W56
        BYTE   W01
        BYTE           N12     As3
        BYTE   W12
        BYTE                   An3
        BYTE   W12
        BYTE                   As3
        BYTE   W12
        BYTE   PEND
// 028   ----------------------------------------
_00___Random_Dungeon_Theme_3_12_28:
        BYTE           N24     An3   v127
        BYTE   W24
        BYTE           N48     Gn3
        BYTE   W48
        BYTE           N24     Fn3
        BYTE   W24
        BYTE   PEND
// 029   ----------------------------------------
_00___Random_Dungeon_Theme_3_12_29:
        BYTE           N24     Ds3   v127
        BYTE   W24
        BYTE                   Fn3
        BYTE   W24
        BYTE           N36     Cn4
        BYTE   W36
        BYTE           N12     Fn3
        BYTE   W12
        BYTE   PEND
// 030   ----------------------------------------
_00___Random_Dungeon_Theme_3_12_30:
        BYTE           N96     Cn4   v127
        BYTE   W15
        BYTE           VOL     82
        BYTE   W12
        BYTE                   81
        BYTE   W06
        BYTE                   80
        BYTE   W06
        BYTE                   79
        BYTE   W09
        BYTE                   77
        BYTE   W03
        BYTE                   76
        BYTE   W06
        BYTE                   75
        BYTE   W03
        BYTE                   74
        BYTE   W03
        BYTE                   72
        BYTE   W03
        BYTE                   71
        BYTE   W03
        BYTE                   70
        BYTE   W03
        BYTE                   69
        BYTE   W03
        BYTE                   67
        BYTE   W03
        BYTE                   66
        BYTE   W03
        BYTE                   64
        BYTE   W03
        BYTE                   63
        BYTE   W03
        BYTE                   61
        BYTE   W03
        BYTE                   60
        BYTE   W03
        BYTE                   57
        BYTE   W03
        BYTE   PEND
// 031   ----------------------------------------
_00___Random_Dungeon_Theme_3_12_31:
        BYTE           N96     Gn3   v100
        BYTE   W03
        BYTE           VOL     62
        BYTE   W03
        BYTE                   65
        BYTE   W03
        BYTE                   66
        BYTE   W03
        BYTE                   68
        BYTE   W03
        BYTE                   69
        BYTE   W03
        BYTE                   70
        BYTE   W03
        BYTE                   71
        BYTE   W03
        BYTE                   72
        BYTE   W03
        BYTE                   73
        BYTE   W03
        BYTE                   74
        BYTE   W03
        BYTE                   75
        BYTE   W03
        BYTE                   76
        BYTE   W06
        BYTE                   77
        BYTE   W03
        BYTE                   78
        BYTE   W03
        BYTE                   79
        BYTE   W06
        BYTE                   80
        BYTE   W06
        BYTE                   81
        BYTE   W03
        BYTE                   82
        BYTE   W03
        BYTE                   83
        BYTE   W30
        BYTE   PEND
// 032   ----------------------------------------
_00___Random_Dungeon_Theme_3_12_32:
        BYTE           N48     Fs3   v100
        BYTE   W48
        BYTE                   En3
        BYTE   W48
        BYTE   PEND
// 033   ----------------------------------------
_00___Random_Dungeon_Theme_3_12_33:
        BYTE           N48     Dn3   v100
        BYTE   W48
        BYTE                   Cn3
        BYTE   W48
        BYTE   PEND
// 034   ----------------------------------------
_00___Random_Dungeon_Theme_3_12_34:
        BYTE           N48     As2   v100
        BYTE   W48
        BYTE                   An2
        BYTE   W48
        BYTE   PEND
// 035   ----------------------------------------
        BYTE           N96     Gn2
        BYTE   W96
// 036   ----------------------------------------
        BYTE                   An2
        BYTE   W96
// 037   ----------------------------------------
_00___Random_Dungeon_Theme_3_12_37:
        BYTE           N12     As2   v106
        BYTE   W12
        BYTE                   Cn3   v111
        BYTE   W12
        BYTE                   Dn3   v113
        BYTE   W12
        BYTE                   Ds3   v115
        BYTE   W12
        BYTE                   Fn3   v117
        BYTE   W12
        BYTE                   Gn3   v118
        BYTE   W12
        BYTE                   Gs3   v119
        BYTE   W12
        BYTE                   As3   v120
        BYTE   W12
        BYTE   PEND
// 038   ----------------------------------------
_00___Random_Dungeon_Theme_3_12_38:
        BYTE           N12     Fn3   v121
        BYTE   W12
        BYTE                   Gn3   v122
        BYTE   W12
        BYTE                   Gs3   v123
        BYTE   W12
        BYTE                   As3   v124
        BYTE   W12
        BYTE                   Cn4   v125
        BYTE   W12
        BYTE                   Dn4
        BYTE   W12
        BYTE                   En4   v127
        BYTE   W12
        BYTE                   Cn4
        BYTE   W12
        BYTE   PEND
// 039   ----------------------------------------
        BYTE   W96
// 040   ----------------------------------------
        BYTE           VOL     41
        BYTE   W96
// 041   ----------------------------------------
        BYTE   W96
// 042   ----------------------------------------
        BYTE   W96
// 043   ----------------------------------------
        BYTE   PATT
         POIN2  _00___Random_Dungeon_Theme_3_12_5
// 044   ----------------------------------------
        BYTE   PATT
         POIN2  _00___Random_Dungeon_Theme_3_12_6
// 045   ----------------------------------------
        BYTE   PATT
         POIN2  _00___Random_Dungeon_Theme_3_12_5
// 046   ----------------------------------------
        BYTE   PATT
         POIN2  _00___Random_Dungeon_Theme_3_12_6
// 047   ----------------------------------------
        BYTE   PATT
         POIN2  _00___Random_Dungeon_Theme_3_12_5
// 048   ----------------------------------------
        BYTE   PATT
         POIN2  _00___Random_Dungeon_Theme_3_12_6
// 049   ----------------------------------------
        BYTE   PATT
         POIN2  _00___Random_Dungeon_Theme_3_12_11
// 050   ----------------------------------------
        BYTE   PATT
         POIN2  _00___Random_Dungeon_Theme_3_12_5
// 051   ----------------------------------------
        BYTE   W96
// 052   ----------------------------------------
        BYTE   W96
// 053   ----------------------------------------
        BYTE   W96
// 054   ----------------------------------------
        BYTE   W96
// 055   ----------------------------------------
        BYTE   W96
// 056   ----------------------------------------
        BYTE   W96
// 057   ----------------------------------------
        BYTE   W96
// 058   ----------------------------------------
        BYTE   W96
// 059   ----------------------------------------
        BYTE   W72
        BYTE           VOL     83
        BYTE   W24
// 060   ----------------------------------------
        BYTE   PATT
         POIN2  _00___Random_Dungeon_Theme_3_12_22
// 061   ----------------------------------------
        BYTE   PATT
         POIN2  _00___Random_Dungeon_Theme_3_12_23
// 062   ----------------------------------------
        BYTE   PATT
         POIN2  _00___Random_Dungeon_Theme_3_12_24
// 063   ----------------------------------------
        BYTE   PATT
         POIN2  _00___Random_Dungeon_Theme_3_12_25
// 064   ----------------------------------------
        BYTE   PATT
         POIN2  _00___Random_Dungeon_Theme_3_12_26
// 065   ----------------------------------------
        BYTE   PATT
         POIN2  _00___Random_Dungeon_Theme_3_12_27
// 066   ----------------------------------------
        BYTE   PATT
         POIN2  _00___Random_Dungeon_Theme_3_12_28
// 067   ----------------------------------------
        BYTE   PATT
         POIN2  _00___Random_Dungeon_Theme_3_12_29
// 068   ----------------------------------------
        BYTE   PATT
         POIN2  _00___Random_Dungeon_Theme_3_12_30
// 069   ----------------------------------------
        BYTE   PATT
         POIN2  _00___Random_Dungeon_Theme_3_12_31
// 070   ----------------------------------------
        BYTE   PATT
         POIN2  _00___Random_Dungeon_Theme_3_12_32
// 071   ----------------------------------------
        BYTE   PATT
         POIN2  _00___Random_Dungeon_Theme_3_12_33
// 072   ----------------------------------------
        BYTE   PATT
         POIN2  _00___Random_Dungeon_Theme_3_12_34
// 073   ----------------------------------------
        BYTE           N96     Gn2   v100
        BYTE   W96
// 074   ----------------------------------------
        BYTE                   An2
        BYTE   W96
// 075   ----------------------------------------
        BYTE   PATT
         POIN2  _00___Random_Dungeon_Theme_3_12_37
// 076   ----------------------------------------
        BYTE   PATT
         POIN2  _00___Random_Dungeon_Theme_3_12_38
// 077   ----------------------------------------
        BYTE   W96
// 078   ----------------------------------------
        BYTE           VOL     41
        BYTE   W96
// 079   ----------------------------------------
        BYTE   W96
// 080   ----------------------------------------
        BYTE   W96
// 081   ----------------------------------------
        BYTE   FINE

//***************** Track 13 (Midi-Chn.13) *****************//

_00___Random_Dungeon_Theme_3_13:
        BYTE   KEYSH   _00___Random_Dungeon_Theme_3_key+0
// 000   ----------------------------------------
        BYTE   W24
// 001   ----------------------------------------
        BYTE           PAN     c_v-64
        BYTE           VOL     41
        BYTE           VOICE   48
        BYTE   W06
        BYTE           N06     Dn3   v110
        BYTE   W12
        BYTE                   Dn3   v074
        BYTE   W12
        BYTE                   Dn3
        BYTE   W12
        BYTE                   Dn3   v110
        BYTE   W12
        BYTE                   Dn3   v074
        BYTE   W12
        BYTE                   Dn3   v110
        BYTE   W12
        BYTE                   Dn3   v074
        BYTE   W12
        BYTE                   Dn3   v110
        BYTE   W06
// 002   ----------------------------------------
_00___Random_Dungeon_Theme_3_13_2:
        BYTE   W06
        BYTE           N06     Dn3   v110
        BYTE   W12
        BYTE                   Dn3   v074
        BYTE   W12
        BYTE                   Dn3
        BYTE   W12
        BYTE                   Cn3   v110
        BYTE   W12
        BYTE                   Cn3   v074
        BYTE   W12
        BYTE                   Cn3   v110
        BYTE   W12
        BYTE                   Cn3   v074
        BYTE   W12
        BYTE                   Cn3   v110
        BYTE   W06
        BYTE   PEND
// 003   ----------------------------------------
        BYTE   W06
        BYTE                   Dn3
        BYTE   W12
        BYTE                   Dn3   v074
        BYTE   W12
        BYTE                   Dn3
        BYTE   W12
        BYTE                   Dn3   v110
        BYTE   W12
        BYTE                   Dn3   v074
        BYTE   W12
        BYTE                   Dn3   v110
        BYTE   W12
        BYTE                   Dn3   v074
        BYTE   W12
        BYTE                   Dn3   v110
        BYTE   W06
// 004   ----------------------------------------
        BYTE   PATT
         POIN2  _00___Random_Dungeon_Theme_3_13_2
// 005   ----------------------------------------
_00___Random_Dungeon_Theme_3_13_5:
        BYTE   W06
        BYTE           N06     An2   v110
        BYTE   W12
        BYTE                   An2   v074
        BYTE   W12
        BYTE                   An2
        BYTE   W12
        BYTE                   An2   v110
        BYTE   W12
        BYTE                   An2   v074
        BYTE   W12
        BYTE                   An2   v110
        BYTE   W12
        BYTE                   An2   v074
        BYTE   W12
        BYTE                   An2   v110
        BYTE   W06
        BYTE   PEND
// 006   ----------------------------------------
_00___Random_Dungeon_Theme_3_13_6:
        BYTE   W06
        BYTE           N06     An2   v110
        BYTE   W12
        BYTE                   An2   v074
        BYTE   W12
        BYTE                   An2
        BYTE   W12
        BYTE                   Gn2   v110
        BYTE   W12
        BYTE                   Gn2   v074
        BYTE   W12
        BYTE                   Gn2   v110
        BYTE   W12
        BYTE                   Gn2   v074
        BYTE   W12
        BYTE                   Gn2   v110
        BYTE   W06
        BYTE   PEND
// 007   ----------------------------------------
        BYTE   PATT
         POIN2  _00___Random_Dungeon_Theme_3_13_5
// 008   ----------------------------------------
        BYTE   PATT
         POIN2  _00___Random_Dungeon_Theme_3_13_6
// 009   ----------------------------------------
        BYTE   PATT
         POIN2  _00___Random_Dungeon_Theme_3_13_5
// 010   ----------------------------------------
        BYTE   PATT
         POIN2  _00___Random_Dungeon_Theme_3_13_6
// 011   ----------------------------------------
_00___Random_Dungeon_Theme_3_13_11:
        BYTE   W06
        BYTE           N06     Bn2   v110
        BYTE   W12
        BYTE                   Bn2   v074
        BYTE   W12
        BYTE                   Bn2
        BYTE   W12
        BYTE                   An2   v110
        BYTE   W12
        BYTE                   An2   v074
        BYTE   W12
        BYTE                   An2   v110
        BYTE   W12
        BYTE                   An2   v074
        BYTE   W12
        BYTE                   An2   v110
        BYTE   W06
        BYTE   PEND
// 012   ----------------------------------------
_00___Random_Dungeon_Theme_3_13_12:
        BYTE   W06
        BYTE           N06     Gn2   v110
        BYTE   W12
        BYTE                   Gn2   v074
        BYTE   W12
        BYTE                   Gn2
        BYTE   W12
        BYTE                   An2   v110
        BYTE   W12
        BYTE                   An2   v074
        BYTE   W12
        BYTE                   An2   v110
        BYTE   W12
        BYTE                   An2   v074
        BYTE   W12
        BYTE                   An2   v110
        BYTE   W06
        BYTE   PEND
// 013   ----------------------------------------
        BYTE   W96
// 014   ----------------------------------------
        BYTE   W96
// 015   ----------------------------------------
        BYTE   W96
// 016   ----------------------------------------
        BYTE   W96
// 017   ----------------------------------------
        BYTE   W96
// 018   ----------------------------------------
        BYTE   W96
// 019   ----------------------------------------
        BYTE   W96
// 020   ----------------------------------------
        BYTE   W96
// 021   ----------------------------------------
        BYTE   W96
// 022   ----------------------------------------
_00___Random_Dungeon_Theme_3_13_22:
        BYTE   W72
        BYTE   W03
        BYTE           VOL     37
        BYTE   W09
        BYTE           N24     An2   v127
        BYTE   W12
        BYTE   PEND
// 023   ----------------------------------------
_00___Random_Dungeon_Theme_3_13_23:
        BYTE   W12
        BYTE           N60     Bn2   v127
        BYTE   W09
        BYTE           VOL     38
        BYTE   W15
        BYTE                   39
        BYTE   W21
        BYTE                   40
        BYTE   W09
        BYTE                   41
        BYTE   W06
        BYTE           N12     Dn3
        BYTE   W12
        BYTE                   Cs3
        BYTE   W12
        BYTE   PEND
// 024   ----------------------------------------
_00___Random_Dungeon_Theme_3_13_24:
        BYTE           N12     Dn3   v127
        BYTE   W12
        BYTE           N24     Cs3
        BYTE   W24
        BYTE           N48     Bn2
        BYTE   W48
        BYTE           N24     An2
        BYTE   W12
        BYTE   PEND
// 025   ----------------------------------------
_00___Random_Dungeon_Theme_3_13_25:
        BYTE   W12
        BYTE           N24     Gn2   v127
        BYTE   W24
        BYTE                   An2
        BYTE   W24
        BYTE           N36     En3
        BYTE   W36
        BYTE   PEND
// 026   ----------------------------------------
_00___Random_Dungeon_Theme_3_13_26:
        BYTE           N12     An2   v127
        BYTE   W12
        BYTE           N72     En3
        BYTE   W32
        BYTE   W01
        BYTE           VOL     40
        BYTE   W12
        BYTE                   39
        BYTE   W15
        BYTE                   38
        BYTE   W06
        BYTE                   37
        BYTE   W06
        BYTE           N24     Cn3
        BYTE   W03
        BYTE           VOL     38
        BYTE   W03
        BYTE                   39
        BYTE   W06
        BYTE   PEND
// 027   ----------------------------------------
_00___Random_Dungeon_Theme_3_13_27:
        BYTE   W03
        BYTE           VOL     40
        BYTE   W06
        BYTE                   41
        BYTE   W03
        BYTE           N60     Gn3   v127
        BYTE   W60
        BYTE           N12     As3
        BYTE   W12
        BYTE                   An3
        BYTE   W12
        BYTE   PEND
// 028   ----------------------------------------
_00___Random_Dungeon_Theme_3_13_28:
        BYTE           N12     As3   v127
        BYTE   W12
        BYTE           N24     An3
        BYTE   W24
        BYTE           N48     Gn3
        BYTE   W48
        BYTE           N24     Fn3
        BYTE   W12
        BYTE   PEND
// 029   ----------------------------------------
_00___Random_Dungeon_Theme_3_13_29:
        BYTE   W12
        BYTE           N24     Ds3   v127
        BYTE   W24
        BYTE                   Fn3
        BYTE   W24
        BYTE           N36     Cn4
        BYTE   W36
        BYTE   PEND
// 030   ----------------------------------------
_00___Random_Dungeon_Theme_3_13_30:
        BYTE           N12     Fn3   v127
        BYTE   W12
        BYTE           N96     Cn4
        BYTE   W32
        BYTE   W01
        BYTE           VOL     40
        BYTE   W06
        BYTE                   39
        BYTE   W12
        BYTE                   38
        BYTE   W06
        BYTE                   37
        BYTE   W06
        BYTE                   36
        BYTE   W03
        BYTE                   35
        BYTE   W06
        BYTE                   34
        BYTE   W03
        BYTE                   33
        BYTE   W06
        BYTE                   32
        BYTE   W03
        BYTE   PEND
// 031   ----------------------------------------
_00___Random_Dungeon_Theme_3_13_31:
        BYTE           VOL     31
        BYTE   W03
        BYTE                   30
        BYTE   W06
        BYTE                   29
        BYTE   W03
        BYTE                   28
        BYTE           N96     Gn3   v100
        BYTE   W03
        BYTE           VOL     31
        BYTE   W03
        BYTE                   32
        BYTE   W03
        BYTE                   33
        BYTE   W03
        BYTE                   34
        BYTE   W03
        BYTE                   35
        BYTE   W09
        BYTE                   36
        BYTE   W03
        BYTE                   37
        BYTE   W09
        BYTE                   38
        BYTE   W06
        BYTE                   39
        BYTE   W12
        BYTE                   40
        BYTE   W06
        BYTE                   41
        BYTE   W24
        BYTE   PEND
// 032   ----------------------------------------
_00___Random_Dungeon_Theme_3_13_32:
        BYTE   W12
        BYTE           N48     Fs3   v100
        BYTE   W48
        BYTE                   En3
        BYTE   W36
        BYTE   PEND
// 033   ----------------------------------------
_00___Random_Dungeon_Theme_3_13_33:
        BYTE   W12
        BYTE           N48     Dn3   v100
        BYTE   W48
        BYTE                   Cn3
        BYTE   W36
        BYTE   PEND
// 034   ----------------------------------------
_00___Random_Dungeon_Theme_3_13_34:
        BYTE   W12
        BYTE           N48     As2   v100
        BYTE   W48
        BYTE                   An2
        BYTE   W36
        BYTE   PEND
// 035   ----------------------------------------
_00___Random_Dungeon_Theme_3_13_35:
        BYTE   W12
        BYTE           N96     Gn2   v100
        BYTE   W84
        BYTE   PEND
// 036   ----------------------------------------
_00___Random_Dungeon_Theme_3_13_36:
        BYTE   W12
        BYTE           N96     An2   v100
        BYTE   W84
        BYTE   PEND
// 037   ----------------------------------------
_00___Random_Dungeon_Theme_3_13_37:
        BYTE   W12
        BYTE           N12     As2   v106
        BYTE   W12
        BYTE                   Cn3   v111
        BYTE   W12
        BYTE                   Dn3   v113
        BYTE   W12
        BYTE                   Ds3   v115
        BYTE   W12
        BYTE                   Fn3   v117
        BYTE   W12
        BYTE                   Gn3   v118
        BYTE   W12
        BYTE                   Gs3   v119
        BYTE   W12
        BYTE   PEND
// 038   ----------------------------------------
_00___Random_Dungeon_Theme_3_13_38:
        BYTE           N12     As3   v120
        BYTE   W12
        BYTE                   Fn3   v121
        BYTE   W12
        BYTE                   Gn3   v122
        BYTE   W12
        BYTE                   Gs3   v123
        BYTE   W12
        BYTE                   As3   v124
        BYTE   W12
        BYTE                   Cn4   v125
        BYTE   W12
        BYTE                   Dn4
        BYTE   W12
        BYTE                   En4   v127
        BYTE   W12
        BYTE   PEND
// 039   ----------------------------------------
        BYTE                   Cn4
        BYTE   W96
// 040   ----------------------------------------
        BYTE           PAN     c_v-54
        BYTE   W96
// 041   ----------------------------------------
        BYTE   W96
// 042   ----------------------------------------
        BYTE   W96
// 043   ----------------------------------------
        BYTE   PATT
         POIN2  _00___Random_Dungeon_Theme_3_13_5
// 044   ----------------------------------------
        BYTE   PATT
         POIN2  _00___Random_Dungeon_Theme_3_13_6
// 045   ----------------------------------------
        BYTE   PATT
         POIN2  _00___Random_Dungeon_Theme_3_13_5
// 046   ----------------------------------------
        BYTE   PATT
         POIN2  _00___Random_Dungeon_Theme_3_13_6
// 047   ----------------------------------------
        BYTE   PATT
         POIN2  _00___Random_Dungeon_Theme_3_13_5
// 048   ----------------------------------------
        BYTE   PATT
         POIN2  _00___Random_Dungeon_Theme_3_13_6
// 049   ----------------------------------------
        BYTE   PATT
         POIN2  _00___Random_Dungeon_Theme_3_13_11
// 050   ----------------------------------------
        BYTE   PATT
         POIN2  _00___Random_Dungeon_Theme_3_13_12
// 051   ----------------------------------------
        BYTE   W96
// 052   ----------------------------------------
        BYTE   W96
// 053   ----------------------------------------
        BYTE   W96
// 054   ----------------------------------------
        BYTE   W96
// 055   ----------------------------------------
        BYTE   W96
// 056   ----------------------------------------
        BYTE   W96
// 057   ----------------------------------------
        BYTE   W96
// 058   ----------------------------------------
        BYTE   W96
// 059   ----------------------------------------
        BYTE   W72
        BYTE           PAN     c_v-64
        BYTE   W24
// 060   ----------------------------------------
        BYTE   PATT
         POIN2  _00___Random_Dungeon_Theme_3_13_22
// 061   ----------------------------------------
        BYTE   PATT
         POIN2  _00___Random_Dungeon_Theme_3_13_23
// 062   ----------------------------------------
        BYTE   PATT
         POIN2  _00___Random_Dungeon_Theme_3_13_24
// 063   ----------------------------------------
        BYTE   PATT
         POIN2  _00___Random_Dungeon_Theme_3_13_25
// 064   ----------------------------------------
        BYTE   PATT
         POIN2  _00___Random_Dungeon_Theme_3_13_26
// 065   ----------------------------------------
        BYTE   PATT
         POIN2  _00___Random_Dungeon_Theme_3_13_27
// 066   ----------------------------------------
        BYTE   PATT
         POIN2  _00___Random_Dungeon_Theme_3_13_28
// 067   ----------------------------------------
        BYTE   PATT
         POIN2  _00___Random_Dungeon_Theme_3_13_29
// 068   ----------------------------------------
        BYTE   PATT
         POIN2  _00___Random_Dungeon_Theme_3_13_30
// 069   ----------------------------------------
        BYTE   PATT
         POIN2  _00___Random_Dungeon_Theme_3_13_31
// 070   ----------------------------------------
        BYTE   PATT
         POIN2  _00___Random_Dungeon_Theme_3_13_32
// 071   ----------------------------------------
        BYTE   PATT
         POIN2  _00___Random_Dungeon_Theme_3_13_33
// 072   ----------------------------------------
        BYTE   PATT
         POIN2  _00___Random_Dungeon_Theme_3_13_34
// 073   ----------------------------------------
        BYTE   PATT
         POIN2  _00___Random_Dungeon_Theme_3_13_35
// 074   ----------------------------------------
        BYTE   PATT
         POIN2  _00___Random_Dungeon_Theme_3_13_36
// 075   ----------------------------------------
        BYTE   PATT
         POIN2  _00___Random_Dungeon_Theme_3_13_37
// 076   ----------------------------------------
        BYTE   PATT
         POIN2  _00___Random_Dungeon_Theme_3_13_38
// 077   ----------------------------------------
        BYTE           N12     Cn4   v127
        BYTE   W96
// 078   ----------------------------------------
        BYTE           PAN     c_v-54
        BYTE   W96
// 079   ----------------------------------------
        BYTE   W96
// 080   ----------------------------------------
        BYTE   W96
// 081   ----------------------------------------
        BYTE   FINE

//***************** Track 14 (Midi-Chn.14) *****************//

_00___Random_Dungeon_Theme_3_14:
        BYTE   KEYSH   _00___Random_Dungeon_Theme_3_key+0
// 000   ----------------------------------------
        BYTE   W24
// 001   ----------------------------------------
        BYTE           PAN     c_v+63
        BYTE           VOL     41
        BYTE           VOICE   48
        BYTE   W06
        BYTE           N06     An2   v110
        BYTE   W12
        BYTE                   An2   v074
        BYTE   W12
        BYTE                   An2
        BYTE   W12
        BYTE                   An2   v110
        BYTE   W12
        BYTE                   An2   v074
        BYTE   W12
        BYTE                   An2   v110
        BYTE   W12
        BYTE                   An2   v074
        BYTE   W12
        BYTE                   An2   v110
        BYTE   W06
// 002   ----------------------------------------
        BYTE   PATT
         POIN2  _00___Random_Dungeon_Theme_3_13_6
// 003   ----------------------------------------
        BYTE   PATT
         POIN2  _00___Random_Dungeon_Theme_3_13_5
// 004   ----------------------------------------
        BYTE   PATT
         POIN2  _00___Random_Dungeon_Theme_3_13_6
// 005   ----------------------------------------
_00___Random_Dungeon_Theme_3_14_5:
        BYTE   W06
        BYTE           N06     Fs2   v110
        BYTE   W12
        BYTE                   Fs2   v074
        BYTE   W12
        BYTE                   Fs2
        BYTE   W12
        BYTE                   Gn2   v110
        BYTE   W12
        BYTE                   Gn2   v074
        BYTE   W12
        BYTE                   Gn2   v110
        BYTE   W12
        BYTE                   Gn2   v074
        BYTE   W12
        BYTE                   Gn2   v110
        BYTE   W06
        BYTE   PEND
// 006   ----------------------------------------
_00___Random_Dungeon_Theme_3_14_6:
        BYTE   W06
        BYTE           N06     Fs2   v110
        BYTE   W12
        BYTE                   Fs2   v074
        BYTE   W12
        BYTE                   Fs2
        BYTE   W12
        BYTE                   En2   v110
        BYTE   W12
        BYTE                   En2   v074
        BYTE   W12
        BYTE                   En2   v110
        BYTE   W12
        BYTE                   En2   v074
        BYTE   W12
        BYTE                   En2   v110
        BYTE   W06
        BYTE   PEND
// 007   ----------------------------------------
        BYTE   PATT
         POIN2  _00___Random_Dungeon_Theme_3_14_5
// 008   ----------------------------------------
        BYTE   PATT
         POIN2  _00___Random_Dungeon_Theme_3_14_6
// 009   ----------------------------------------
        BYTE   PATT
         POIN2  _00___Random_Dungeon_Theme_3_14_5
// 010   ----------------------------------------
        BYTE   PATT
         POIN2  _00___Random_Dungeon_Theme_3_14_6
// 011   ----------------------------------------
_00___Random_Dungeon_Theme_3_14_11:
        BYTE   W06
        BYTE           N06     Gn2   v110
        BYTE   W12
        BYTE                   Gn2   v074
        BYTE   W12
        BYTE                   Gn2
        BYTE   W12
        BYTE                   Fs2   v110
        BYTE   W12
        BYTE                   Fs2   v074
        BYTE   W12
        BYTE                   Fs2   v110
        BYTE   W12
        BYTE                   Fs2   v074
        BYTE   W12
        BYTE                   Fs2   v110
        BYTE   W06
        BYTE   PEND
// 012   ----------------------------------------
_00___Random_Dungeon_Theme_3_14_12:
        BYTE   W06
        BYTE           N06     En2   v110
        BYTE   W12
        BYTE                   En2   v074
        BYTE   W12
        BYTE                   En2
        BYTE   W12
        BYTE                   Fs2   v110
        BYTE   W12
        BYTE                   Fs2   v074
        BYTE   W12
        BYTE                   Fs2   v110
        BYTE   W12
        BYTE                   Fs2   v074
        BYTE   W12
        BYTE                   Fs2   v110
        BYTE   W06
        BYTE   PEND
// 013   ----------------------------------------
        BYTE   W96
// 014   ----------------------------------------
        BYTE   W96
// 015   ----------------------------------------
        BYTE   W96
// 016   ----------------------------------------
        BYTE   W96
// 017   ----------------------------------------
        BYTE   W96
// 018   ----------------------------------------
        BYTE   W96
// 019   ----------------------------------------
        BYTE   W96
// 020   ----------------------------------------
        BYTE   W96
// 021   ----------------------------------------
        BYTE   W72
        BYTE           VOL     37
        BYTE   W24
// 022   ----------------------------------------
        BYTE   W84
        BYTE   W03
        BYTE                   33
        BYTE   W09
// 023   ----------------------------------------
_00___Random_Dungeon_Theme_3_14_23:
        BYTE           N24     An2   v127
        BYTE   W12
        BYTE           VOL     34
        BYTE   W12
        BYTE           N60     Bn2
        BYTE   W24
        BYTE           VOL     35
        BYTE   W21
        BYTE                   36
        BYTE   W12
        BYTE                   37
        BYTE   W03
        BYTE           N12     Dn3
        BYTE   W12
        BYTE   PEND
// 024   ----------------------------------------
_00___Random_Dungeon_Theme_3_14_24:
        BYTE           N12     Cs3   v127
        BYTE   W12
        BYTE                   Dn3
        BYTE   W12
        BYTE           N24     Cs3
        BYTE   W24
        BYTE           N48     Bn2
        BYTE   W48
        BYTE   PEND
// 025   ----------------------------------------
_00___Random_Dungeon_Theme_3_14_25:
        BYTE           N24     An2   v127
        BYTE   W24
        BYTE                   Gn2
        BYTE   W24
        BYTE                   An2
        BYTE   W24
        BYTE           N36     En3
        BYTE   W24
        BYTE   PEND
// 026   ----------------------------------------
_00___Random_Dungeon_Theme_3_14_26:
        BYTE   W12
        BYTE           N12     An2   v127
        BYTE   W12
        BYTE           N72     En3
        BYTE   W24
        BYTE   W03
        BYTE           VOL     36
        BYTE   W18
        BYTE                   35
        BYTE   W15
        BYTE                   34
        BYTE   W12
        BYTE   PEND
// 027   ----------------------------------------
_00___Random_Dungeon_Theme_3_14_27:
        BYTE           VOL     33
        BYTE           N24     Cn3   v127
        BYTE   W03
        BYTE           VOL     34
        BYTE   W03
        BYTE                   35
        BYTE   W09
        BYTE                   36
        BYTE   W09
        BYTE           N60     Gn3
        BYTE   W03
        BYTE           VOL     37
        BYTE   W56
        BYTE   W01
        BYTE           N12     As3
        BYTE   W12
        BYTE   PEND
// 028   ----------------------------------------
_00___Random_Dungeon_Theme_3_14_28:
        BYTE           N12     An3   v127
        BYTE   W12
        BYTE                   As3
        BYTE   W12
        BYTE           N24     An3
        BYTE   W24
        BYTE           N48     Gn3
        BYTE   W48
        BYTE   PEND
// 029   ----------------------------------------
_00___Random_Dungeon_Theme_3_14_29:
        BYTE           N24     Fn3   v127
        BYTE   W24
        BYTE                   Ds3
        BYTE   W24
        BYTE                   Fn3
        BYTE   W24
        BYTE           N36     Cn4
        BYTE   W24
        BYTE   PEND
// 030   ----------------------------------------
_00___Random_Dungeon_Theme_3_14_30:
        BYTE   W12
        BYTE           N12     Fn3   v127
        BYTE   W12
        BYTE           N96     Cn4
        BYTE   W24
        BYTE   W03
        BYTE           VOL     36
        BYTE   W12
        BYTE                   35
        BYTE   W12
        BYTE                   34
        BYTE   W09
        BYTE                   33
        BYTE   W06
        BYTE                   32
        BYTE   W06
        BYTE   PEND
// 031   ----------------------------------------
_00___Random_Dungeon_Theme_3_14_31:
        BYTE           VOL     31
        BYTE   W03
        BYTE                   30
        BYTE   W06
        BYTE                   29
        BYTE   W03
        BYTE                   28
        BYTE   W03
        BYTE                   27
        BYTE   W06
        BYTE                   26
        BYTE   W06
        BYTE                   28
        BYTE   W03
        BYTE                   29
        BYTE   W03
        BYTE                   30
        BYTE   W06
        BYTE                   31
        BYTE   W03
        BYTE                   32
        BYTE   W09
        BYTE                   33
        BYTE   W06
        BYTE                   34
        BYTE   W09
        BYTE                   35
        BYTE   W12
        BYTE                   36
        BYTE   W09
        BYTE                   37
        BYTE   W09
        BYTE   PEND
// 032   ----------------------------------------
_00___Random_Dungeon_Theme_3_14_32:
        BYTE   W72
        BYTE           N48     En3   v100
        BYTE   W24
        BYTE   PEND
// 033   ----------------------------------------
_00___Random_Dungeon_Theme_3_14_33:
        BYTE   W24
        BYTE           N48     Dn3   v100
        BYTE   W48
        BYTE                   Cn3
        BYTE   W24
        BYTE   PEND
// 034   ----------------------------------------
_00___Random_Dungeon_Theme_3_14_34:
        BYTE   W24
        BYTE           N48     As2   v100
        BYTE   W48
        BYTE                   An2
        BYTE   W24
        BYTE   PEND
// 035   ----------------------------------------
_00___Random_Dungeon_Theme_3_14_35:
        BYTE   W24
        BYTE           N96     Gn2   v100
        BYTE   W72
        BYTE   PEND
// 036   ----------------------------------------
_00___Random_Dungeon_Theme_3_14_36:
        BYTE   W24
        BYTE           N96     An2   v100
        BYTE   W72
        BYTE   PEND
// 037   ----------------------------------------
_00___Random_Dungeon_Theme_3_14_37:
        BYTE   W24
        BYTE           N12     As2   v106
        BYTE   W12
        BYTE                   Cn3   v111
        BYTE   W12
        BYTE                   Dn3   v113
        BYTE   W12
        BYTE                   Ds3   v115
        BYTE   W12
        BYTE                   Fn3   v117
        BYTE   W12
        BYTE                   Gn3   v118
        BYTE   W12
        BYTE   PEND
// 038   ----------------------------------------
_00___Random_Dungeon_Theme_3_14_38:
        BYTE           N12     Gs3   v119
        BYTE   W12
        BYTE                   As3   v120
        BYTE   W12
        BYTE                   Fn3   v121
        BYTE   W12
        BYTE                   Gn3   v122
        BYTE   W12
        BYTE                   Gs3   v123
        BYTE   W12
        BYTE                   As3   v124
        BYTE   W12
        BYTE                   Cn4   v125
        BYTE   W12
        BYTE                   Dn4
        BYTE   W12
        BYTE   PEND
// 039   ----------------------------------------
_00___Random_Dungeon_Theme_3_14_39:
        BYTE           N12     En4   v127
        BYTE   W12
        BYTE                   Cn4
        BYTE   W84
        BYTE   PEND
// 040   ----------------------------------------
        BYTE           PAN     c_v+56
        BYTE           VOL     41
        BYTE   W96
// 041   ----------------------------------------
        BYTE   W96
// 042   ----------------------------------------
        BYTE   W96
// 043   ----------------------------------------
        BYTE   PATT
         POIN2  _00___Random_Dungeon_Theme_3_14_5
// 044   ----------------------------------------
        BYTE   PATT
         POIN2  _00___Random_Dungeon_Theme_3_14_6
// 045   ----------------------------------------
        BYTE   PATT
         POIN2  _00___Random_Dungeon_Theme_3_14_5
// 046   ----------------------------------------
        BYTE   PATT
         POIN2  _00___Random_Dungeon_Theme_3_14_6
// 047   ----------------------------------------
        BYTE   PATT
         POIN2  _00___Random_Dungeon_Theme_3_14_5
// 048   ----------------------------------------
        BYTE   PATT
         POIN2  _00___Random_Dungeon_Theme_3_14_6
// 049   ----------------------------------------
        BYTE   PATT
         POIN2  _00___Random_Dungeon_Theme_3_14_11
// 050   ----------------------------------------
        BYTE   PATT
         POIN2  _00___Random_Dungeon_Theme_3_14_12
// 051   ----------------------------------------
        BYTE   W96
// 052   ----------------------------------------
        BYTE   W96
// 053   ----------------------------------------
        BYTE   W96
// 054   ----------------------------------------
        BYTE   W96
// 055   ----------------------------------------
        BYTE   W96
// 056   ----------------------------------------
        BYTE   W96
// 057   ----------------------------------------
        BYTE   W96
// 058   ----------------------------------------
        BYTE   W96
// 059   ----------------------------------------
        BYTE   W72
        BYTE           PAN     c_v+63
        BYTE           VOL     37
        BYTE   W24
// 060   ----------------------------------------
        BYTE   W84
        BYTE   W03
        BYTE                   33
        BYTE   W09
// 061   ----------------------------------------
        BYTE   PATT
         POIN2  _00___Random_Dungeon_Theme_3_14_23
// 062   ----------------------------------------
        BYTE   PATT
         POIN2  _00___Random_Dungeon_Theme_3_14_24
// 063   ----------------------------------------
        BYTE   PATT
         POIN2  _00___Random_Dungeon_Theme_3_14_25
// 064   ----------------------------------------
        BYTE   PATT
         POIN2  _00___Random_Dungeon_Theme_3_14_26
// 065   ----------------------------------------
        BYTE   PATT
         POIN2  _00___Random_Dungeon_Theme_3_14_27
// 066   ----------------------------------------
        BYTE   PATT
         POIN2  _00___Random_Dungeon_Theme_3_14_28
// 067   ----------------------------------------
        BYTE   PATT
         POIN2  _00___Random_Dungeon_Theme_3_14_29
// 068   ----------------------------------------
        BYTE   PATT
         POIN2  _00___Random_Dungeon_Theme_3_14_30
// 069   ----------------------------------------
        BYTE   PATT
         POIN2  _00___Random_Dungeon_Theme_3_14_31
// 070   ----------------------------------------
        BYTE   PATT
         POIN2  _00___Random_Dungeon_Theme_3_14_32
// 071   ----------------------------------------
        BYTE   PATT
         POIN2  _00___Random_Dungeon_Theme_3_14_33
// 072   ----------------------------------------
        BYTE   PATT
         POIN2  _00___Random_Dungeon_Theme_3_14_34
// 073   ----------------------------------------
        BYTE   PATT
         POIN2  _00___Random_Dungeon_Theme_3_14_35
// 074   ----------------------------------------
        BYTE   PATT
         POIN2  _00___Random_Dungeon_Theme_3_14_36
// 075   ----------------------------------------
        BYTE   PATT
         POIN2  _00___Random_Dungeon_Theme_3_14_37
// 076   ----------------------------------------
        BYTE   PATT
         POIN2  _00___Random_Dungeon_Theme_3_14_38
// 077   ----------------------------------------
        BYTE   PATT
         POIN2  _00___Random_Dungeon_Theme_3_14_39
// 078   ----------------------------------------
        BYTE           PAN     c_v+56
        BYTE           VOL     41
        BYTE   W96
// 079   ----------------------------------------
        BYTE   W96
// 080   ----------------------------------------
        BYTE   W96
// 081   ----------------------------------------
        BYTE   FINE

//***************** Track 15 (Midi-Chn.15) *****************//

_00___Random_Dungeon_Theme_3_15:
        BYTE   KEYSH   _00___Random_Dungeon_Theme_3_key+0
// 000   ----------------------------------------
        BYTE   W24
// 001   ----------------------------------------
        BYTE           PAN     c_v+16
        BYTE           VOL     99
        BYTE           VOICE   47
        BYTE   W96
// 002   ----------------------------------------
        BYTE   W96
// 003   ----------------------------------------
_00___Random_Dungeon_Theme_3_15_3:
        BYTE           N36     Dn1   v127
        BYTE   W36
        BYTE           N24
        BYTE   W24
        BYTE                   Dn1
        BYTE   W24
        BYTE           N12
        BYTE   W12
        BYTE   PEND
// 004   ----------------------------------------
        BYTE   PATT
         POIN2  _00___Random_Dungeon_Theme_3_15_3
// 005   ----------------------------------------
        BYTE           TIE     Dn1   v127
        BYTE   W96
// 006   ----------------------------------------
_00___Random_Dungeon_Theme_3_15_6:
        BYTE   W84
        BYTE           EOT     Dn1
        BYTE           N12     An1   v127
        BYTE   W12
        BYTE   PEND
// 007   ----------------------------------------
        BYTE           TIE     Dn1
        BYTE   W96
// 008   ----------------------------------------
_00___Random_Dungeon_Theme_3_15_8:
        BYTE   W72
        BYTE           EOT     Dn1
        BYTE           N06     An1   v127
        BYTE   W06
        BYTE                   An1
        BYTE   W06
        BYTE                   An1
        BYTE   W06
        BYTE                   An1
        BYTE   W06
        BYTE   PEND
// 009   ----------------------------------------
        BYTE           TIE     Dn1
        BYTE   W96
// 010   ----------------------------------------
        BYTE   PATT
         POIN2  _00___Random_Dungeon_Theme_3_15_6
// 011   ----------------------------------------
        BYTE           TIE     Dn1   v127
        BYTE   W96
// 012   ----------------------------------------
        BYTE   PATT
         POIN2  _00___Random_Dungeon_Theme_3_15_6
// 013   ----------------------------------------
        BYTE           TIE     Dn1   v127
        BYTE   W96
// 014   ----------------------------------------
        BYTE   PATT
         POIN2  _00___Random_Dungeon_Theme_3_15_6
// 015   ----------------------------------------
        BYTE           TIE     Dn1   v127
        BYTE   W96
// 016   ----------------------------------------
        BYTE   PATT
         POIN2  _00___Random_Dungeon_Theme_3_15_8
// 017   ----------------------------------------
        BYTE           TIE     Dn1   v127
        BYTE   W96
// 018   ----------------------------------------
        BYTE   PATT
         POIN2  _00___Random_Dungeon_Theme_3_15_6
// 019   ----------------------------------------
_00___Random_Dungeon_Theme_3_15_19:
        BYTE           N36     Gn1   v127
        BYTE   W36
        BYTE           N60     Dn1
        BYTE   W60
        BYTE   PEND
// 020   ----------------------------------------
_00___Random_Dungeon_Theme_3_15_20:
        BYTE           N36     Dn1   v127
        BYTE   W36
        BYTE           N48
        BYTE   W48
        BYTE           N12     An1
        BYTE   W12
        BYTE   PEND
// 021   ----------------------------------------
_00___Random_Dungeon_Theme_3_15_21:
        BYTE           N36     Gn1   v127
        BYTE   W36
        BYTE                   Dn1
        BYTE   W36
        BYTE           N24     An1
        BYTE   W24
        BYTE   PEND
// 022   ----------------------------------------
_00___Random_Dungeon_Theme_3_15_22:
        BYTE           N18     Dn1   v127
        BYTE   W18
        BYTE           N06
        BYTE   W06
        BYTE           N12
        BYTE   W12
        BYTE           N24
        BYTE   W24
        BYTE           N12
        BYTE   W12
        BYTE           N06
        BYTE   W06
        BYTE           N18
        BYTE   W18
        BYTE   PEND
// 023   ----------------------------------------
_00___Random_Dungeon_Theme_3_15_23:
        BYTE           N36     Gn1   v127
        BYTE   W36
        BYTE           N06     Gn1   v080
        BYTE   W06
        BYTE                   Gn1
        BYTE   W06
        BYTE                   Gn1
        BYTE   W06
        BYTE           N30
        BYTE   W30
        BYTE           N06
        BYTE   W06
        BYTE                   Gn1
        BYTE   W06
        BYTE   PEND
// 024   ----------------------------------------
_00___Random_Dungeon_Theme_3_15_24:
        BYTE           N36     Gn1   v080
        BYTE   W36
        BYTE           N06
        BYTE   W06
        BYTE                   Gn1
        BYTE   W06
        BYTE           N36
        BYTE   W36
        BYTE           N12     Gn1   v127
        BYTE   W12
        BYTE   PEND
// 025   ----------------------------------------
_00___Random_Dungeon_Theme_3_15_25:
        BYTE           N36     Fn1   v127
        BYTE   W36
        BYTE           N06     Fn1   v080
        BYTE   W06
        BYTE                   Fn1
        BYTE   W06
        BYTE           N36
        BYTE   W36
        BYTE           N06
        BYTE   W06
        BYTE                   Fn1
        BYTE   W06
        BYTE   PEND
// 026   ----------------------------------------
_00___Random_Dungeon_Theme_3_15_26:
        BYTE           N36     Fn1   v080
        BYTE   W36
        BYTE           N06
        BYTE   W06
        BYTE                   Fn1
        BYTE   W06
        BYTE           N24
        BYTE   W24
        BYTE           N06     Fn1   v127
        BYTE   W06
        BYTE                   Fn1
        BYTE   W06
        BYTE                   Fn1
        BYTE   W06
        BYTE                   Fn1
        BYTE   W06
        BYTE   PEND
// 027   ----------------------------------------
_00___Random_Dungeon_Theme_3_15_27:
        BYTE           N36     Ds1   v127
        BYTE   W36
        BYTE           N06     Ds1   v080
        BYTE   W06
        BYTE                   Ds1
        BYTE   W06
        BYTE           N36
        BYTE   W36
        BYTE           N06
        BYTE   W06
        BYTE                   Ds1
        BYTE   W06
        BYTE   PEND
// 028   ----------------------------------------
_00___Random_Dungeon_Theme_3_15_28:
        BYTE           N36     Ds1   v080
        BYTE   W36
        BYTE           N06
        BYTE   W06
        BYTE                   Ds1
        BYTE   W06
        BYTE           N36
        BYTE   W36
        BYTE           N12     Ds1   v127
        BYTE   W12
        BYTE   PEND
// 029   ----------------------------------------
_00___Random_Dungeon_Theme_3_15_29:
        BYTE           N36     Cs1   v127
        BYTE   W36
        BYTE           N06     Cs1   v080
        BYTE   W06
        BYTE                   Cs1
        BYTE   W06
        BYTE           N36
        BYTE   W36
        BYTE           N06
        BYTE   W06
        BYTE                   Cs1
        BYTE   W06
        BYTE   PEND
// 030   ----------------------------------------
_00___Random_Dungeon_Theme_3_15_30:
        BYTE           N36     Cs1   v080
        BYTE   W36
        BYTE           N06
        BYTE   W06
        BYTE                   Cs1
        BYTE   W06
        BYTE           N24
        BYTE   W24
        BYTE           N06     Cs1   v127
        BYTE   W06
        BYTE                   Cs1
        BYTE   W06
        BYTE                   Cs1
        BYTE   W06
        BYTE                   Cs1
        BYTE   W06
        BYTE   PEND
// 031   ----------------------------------------
_00___Random_Dungeon_Theme_3_15_31:
        BYTE           N36     Cn2   v127
        BYTE   W36
        BYTE           N24
        BYTE   W24
        BYTE                   Cn2
        BYTE   W24
        BYTE           N12     Gn1
        BYTE   W12
        BYTE   PEND
// 032   ----------------------------------------
        BYTE   PATT
         POIN2  _00___Random_Dungeon_Theme_3_15_31
// 033   ----------------------------------------
_00___Random_Dungeon_Theme_3_15_33:
        BYTE           N36     As1   v127
        BYTE   W36
        BYTE           N24
        BYTE   W24
        BYTE                   As1
        BYTE   W24
        BYTE           N12     Fn1
        BYTE   W12
        BYTE   PEND
// 034   ----------------------------------------
        BYTE   PATT
         POIN2  _00___Random_Dungeon_Theme_3_15_33
// 035   ----------------------------------------
_00___Random_Dungeon_Theme_3_15_35:
        BYTE           N36     Ds1   v127
        BYTE   W36
        BYTE           N24
        BYTE   W24
        BYTE                   Ds1
        BYTE   W24
        BYTE           N12     As1
        BYTE   W12
        BYTE   PEND
// 036   ----------------------------------------
_00___Random_Dungeon_Theme_3_15_36:
        BYTE           N36     Fn1   v127
        BYTE   W36
        BYTE           N24
        BYTE   W24
        BYTE                   Fn1
        BYTE   W24
        BYTE           N12     Cn1
        BYTE   W12
        BYTE   PEND
// 037   ----------------------------------------
_00___Random_Dungeon_Theme_3_15_37:
        BYTE           N36     Gs1   v127
        BYTE   W36
        BYTE           N24
        BYTE   W24
        BYTE                   Gs1
        BYTE   W24
        BYTE           N12     Ds1
        BYTE   W12
        BYTE   PEND
// 038   ----------------------------------------
_00___Random_Dungeon_Theme_3_15_38:
        BYTE           N36     As1   v127
        BYTE   W36
        BYTE           N12
        BYTE   W12
        BYTE           N36     Cn2
        BYTE   W36
        BYTE           N12
        BYTE   W12
        BYTE   PEND
// 039   ----------------------------------------
_00___Random_Dungeon_Theme_3_15_39:
        BYTE           N36     Dn2   v127
        BYTE   W36
        BYTE           N24
        BYTE   W24
        BYTE                   Dn2
        BYTE   W24
        BYTE           N12
        BYTE   W12
        BYTE   PEND
// 040   ----------------------------------------
        BYTE   PATT
         POIN2  _00___Random_Dungeon_Theme_3_15_39
// 041   ----------------------------------------
        BYTE   PATT
         POIN2  _00___Random_Dungeon_Theme_3_15_39
// 042   ----------------------------------------
        BYTE   PATT
         POIN2  _00___Random_Dungeon_Theme_3_15_39
// 043   ----------------------------------------
        BYTE           TIE     Dn1   v127
        BYTE   W96
// 044   ----------------------------------------
        BYTE   PATT
         POIN2  _00___Random_Dungeon_Theme_3_15_6
// 045   ----------------------------------------
        BYTE           TIE     Dn1   v127
        BYTE   W96
// 046   ----------------------------------------
        BYTE   PATT
         POIN2  _00___Random_Dungeon_Theme_3_15_8
// 047   ----------------------------------------
        BYTE           TIE     Dn1   v127
        BYTE   W96
// 048   ----------------------------------------
        BYTE   PATT
         POIN2  _00___Random_Dungeon_Theme_3_15_6
// 049   ----------------------------------------
        BYTE           TIE     Dn1   v127
        BYTE   W96
// 050   ----------------------------------------
        BYTE   PATT
         POIN2  _00___Random_Dungeon_Theme_3_15_6
// 051   ----------------------------------------
        BYTE           TIE     Dn1   v127
        BYTE   W96
// 052   ----------------------------------------
        BYTE   PATT
         POIN2  _00___Random_Dungeon_Theme_3_15_6
// 053   ----------------------------------------
        BYTE           TIE     Dn1   v127
        BYTE   W96
// 054   ----------------------------------------
        BYTE   PATT
         POIN2  _00___Random_Dungeon_Theme_3_15_8
// 055   ----------------------------------------
        BYTE           TIE     Dn1   v127
        BYTE   W96
// 056   ----------------------------------------
        BYTE   PATT
         POIN2  _00___Random_Dungeon_Theme_3_15_6
// 057   ----------------------------------------
        BYTE   PATT
         POIN2  _00___Random_Dungeon_Theme_3_15_19
// 058   ----------------------------------------
        BYTE   PATT
         POIN2  _00___Random_Dungeon_Theme_3_15_20
// 059   ----------------------------------------
        BYTE   PATT
         POIN2  _00___Random_Dungeon_Theme_3_15_21
// 060   ----------------------------------------
        BYTE   PATT
         POIN2  _00___Random_Dungeon_Theme_3_15_22
// 061   ----------------------------------------
        BYTE   PATT
         POIN2  _00___Random_Dungeon_Theme_3_15_23
// 062   ----------------------------------------
        BYTE   PATT
         POIN2  _00___Random_Dungeon_Theme_3_15_24
// 063   ----------------------------------------
        BYTE   PATT
         POIN2  _00___Random_Dungeon_Theme_3_15_25
// 064   ----------------------------------------
        BYTE   PATT
         POIN2  _00___Random_Dungeon_Theme_3_15_26
// 065   ----------------------------------------
        BYTE   PATT
         POIN2  _00___Random_Dungeon_Theme_3_15_27
// 066   ----------------------------------------
        BYTE   PATT
         POIN2  _00___Random_Dungeon_Theme_3_15_28
// 067   ----------------------------------------
        BYTE   PATT
         POIN2  _00___Random_Dungeon_Theme_3_15_29
// 068   ----------------------------------------
        BYTE   PATT
         POIN2  _00___Random_Dungeon_Theme_3_15_30
// 069   ----------------------------------------
        BYTE   PATT
         POIN2  _00___Random_Dungeon_Theme_3_15_31
// 070   ----------------------------------------
        BYTE   PATT
         POIN2  _00___Random_Dungeon_Theme_3_15_31
// 071   ----------------------------------------
        BYTE   PATT
         POIN2  _00___Random_Dungeon_Theme_3_15_33
// 072   ----------------------------------------
        BYTE   PATT
         POIN2  _00___Random_Dungeon_Theme_3_15_33
// 073   ----------------------------------------
        BYTE   PATT
         POIN2  _00___Random_Dungeon_Theme_3_15_35
// 074   ----------------------------------------
        BYTE   PATT
         POIN2  _00___Random_Dungeon_Theme_3_15_36
// 075   ----------------------------------------
        BYTE   PATT
         POIN2  _00___Random_Dungeon_Theme_3_15_37
// 076   ----------------------------------------
        BYTE   PATT
         POIN2  _00___Random_Dungeon_Theme_3_15_38
// 077   ----------------------------------------
        BYTE   PATT
         POIN2  _00___Random_Dungeon_Theme_3_15_39
// 078   ----------------------------------------
        BYTE   PATT
         POIN2  _00___Random_Dungeon_Theme_3_15_39
// 079   ----------------------------------------
        BYTE   PATT
         POIN2  _00___Random_Dungeon_Theme_3_15_39
// 080   ----------------------------------------
        BYTE   PATT
         POIN2  _00___Random_Dungeon_Theme_3_15_39
// 081   ----------------------------------------
        BYTE   FINE


//********************** End of Song ***********************//

        ALIGN 4
_00___Random_Dungeon_Theme_3:
        BYTE   16                      // Num Tracks
        BYTE   0                       // Unknown
        BYTE   _00___Random_Dungeon_Theme_3_pri // Priority
        BYTE   _00___Random_Dungeon_Theme_3_rev // Reverb

        POIN2   _00___Random_Dungeon_Theme_3_grp

        POIN2   _00___Random_Dungeon_Theme_3_0
        POIN2   _00___Random_Dungeon_Theme_3_1
        POIN2   _00___Random_Dungeon_Theme_3_2
        POIN2   _00___Random_Dungeon_Theme_3_3
        POIN2   _00___Random_Dungeon_Theme_3_4
        POIN2   _00___Random_Dungeon_Theme_3_5
        POIN2   _00___Random_Dungeon_Theme_3_6
        POIN2   _00___Random_Dungeon_Theme_3_7
        POIN2   _00___Random_Dungeon_Theme_3_8
        POIN2   _00___Random_Dungeon_Theme_3_9
        POIN2   _00___Random_Dungeon_Theme_3_10
        POIN2   _00___Random_Dungeon_Theme_3_11
        POIN2   _00___Random_Dungeon_Theme_3_12
        POIN2   _00___Random_Dungeon_Theme_3_13
        POIN2   _00___Random_Dungeon_Theme_3_14
        POIN2   _00___Random_Dungeon_Theme_3_15

        
