        .include "MPlayDef.s"

        .equ    _00___Random_Dungeon_Theme_3_grp, voicegroup000
        .equ    _00___Random_Dungeon_Theme_3_pri, 0
        .equ    _00___Random_Dungeon_Theme_3_rev, 0
        .equ    _00___Random_Dungeon_Theme_3_key, 0

        .section .rodata
        .global _00___Random_Dungeon_Theme_3
        .align  2

@****************** Track 0 (Midi-Chn.0) ******************@

_00___Random_Dungeon_Theme_3_0:
        .byte   KEYSH , _00___Random_Dungeon_Theme_3_key+0
@ 000   ----------------------------------------
        .byte   W24
@ 001   ----------------------------------------
        .byte   TEMPO , 132/2
        .byte           VOL   , 91
        .byte           VOICE , 48
        .byte           N06   , Dn1 , v127
        .byte   W36
        .byte                   Dn1
        .byte   W24
        .byte                   Dn1
        .byte   W24
        .byte                   Dn1
        .byte   W12
@ 002   ----------------------------------------
_00___Random_Dungeon_Theme_3_0_2:
        .byte           N06   , Dn1 , v127
        .byte   W36
        .byte                   Dn1
        .byte   W24
        .byte                   Dn1
        .byte   W24
        .byte                   Dn1
        .byte   W12
        .byte   PEND
@ 003   ----------------------------------------
        .byte   PATT
         .word  _00___Random_Dungeon_Theme_3_0_2
@ 004   ----------------------------------------
        .byte   PATT
         .word  _00___Random_Dungeon_Theme_3_0_2
@ 005   ----------------------------------------
        .byte   PATT
         .word  _00___Random_Dungeon_Theme_3_0_2
@ 006   ----------------------------------------
        .byte   PATT
         .word  _00___Random_Dungeon_Theme_3_0_2
@ 007   ----------------------------------------
        .byte   PATT
         .word  _00___Random_Dungeon_Theme_3_0_2
@ 008   ----------------------------------------
        .byte   PATT
         .word  _00___Random_Dungeon_Theme_3_0_2
@ 009   ----------------------------------------
        .byte   PATT
         .word  _00___Random_Dungeon_Theme_3_0_2
@ 010   ----------------------------------------
        .byte   PATT
         .word  _00___Random_Dungeon_Theme_3_0_2
@ 011   ----------------------------------------
_00___Random_Dungeon_Theme_3_0_11:
        .byte           N06   , Gn1 , v127
        .byte   W36
        .byte                   Dn1
        .byte   W24
        .byte                   Dn1
        .byte   W24
        .byte                   Dn1
        .byte   W12
        .byte   PEND
@ 012   ----------------------------------------
        .byte   PATT
         .word  _00___Random_Dungeon_Theme_3_0_2
@ 013   ----------------------------------------
        .byte   PATT
         .word  _00___Random_Dungeon_Theme_3_0_2
@ 014   ----------------------------------------
        .byte   PATT
         .word  _00___Random_Dungeon_Theme_3_0_2
@ 015   ----------------------------------------
        .byte   PATT
         .word  _00___Random_Dungeon_Theme_3_0_2
@ 016   ----------------------------------------
        .byte   PATT
         .word  _00___Random_Dungeon_Theme_3_0_2
@ 017   ----------------------------------------
        .byte   PATT
         .word  _00___Random_Dungeon_Theme_3_0_2
@ 018   ----------------------------------------
        .byte   PATT
         .word  _00___Random_Dungeon_Theme_3_0_2
@ 019   ----------------------------------------
        .byte   PATT
         .word  _00___Random_Dungeon_Theme_3_0_11
@ 020   ----------------------------------------
        .byte   PATT
         .word  _00___Random_Dungeon_Theme_3_0_2
@ 021   ----------------------------------------
_00___Random_Dungeon_Theme_3_0_21:
        .byte           N06   , Gn1 , v127
        .byte   W36
        .byte                   Dn1
        .byte   W36
        .byte                   An1
        .byte   W12
        .byte                   An1
        .byte   W12
        .byte   PEND
@ 022   ----------------------------------------
_00___Random_Dungeon_Theme_3_0_22:
        .byte           N06   , An1 , v127
        .byte   W36
        .byte                   An1
        .byte   W24
        .byte                   An1
        .byte   W24
        .byte                   An1
        .byte   W12
        .byte   PEND
@ 023   ----------------------------------------
_00___Random_Dungeon_Theme_3_0_23:
        .byte           N06   , Gn1 , v105
        .byte   W24
        .byte                   Gn1
        .byte   W24
        .byte                   Gn1
        .byte   W24
        .byte                   Gn1
        .byte   W24
        .byte   PEND
@ 024   ----------------------------------------
        .byte   PATT
         .word  _00___Random_Dungeon_Theme_3_0_23
@ 025   ----------------------------------------
_00___Random_Dungeon_Theme_3_0_25:
        .byte           N06   , Fn1 , v105
        .byte   W24
        .byte                   Fn1
        .byte   W24
        .byte                   Fn1
        .byte   W24
        .byte                   Fn1
        .byte   W24
        .byte   PEND
@ 026   ----------------------------------------
        .byte   PATT
         .word  _00___Random_Dungeon_Theme_3_0_25
@ 027   ----------------------------------------
_00___Random_Dungeon_Theme_3_0_27:
        .byte           N06   , Ds1 , v105
        .byte   W24
        .byte                   Ds1
        .byte   W24
        .byte                   Ds1
        .byte   W24
        .byte                   Ds1
        .byte   W24
        .byte   PEND
@ 028   ----------------------------------------
        .byte   PATT
         .word  _00___Random_Dungeon_Theme_3_0_27
@ 029   ----------------------------------------
_00___Random_Dungeon_Theme_3_0_29:
        .byte           N06   , Cs1 , v105
        .byte   W24
        .byte                   Cs1
        .byte   W24
        .byte                   Cs1
        .byte   W24
        .byte                   Cs1
        .byte   W24
        .byte   PEND
@ 030   ----------------------------------------
        .byte   PATT
         .word  _00___Random_Dungeon_Theme_3_0_29
@ 031   ----------------------------------------
_00___Random_Dungeon_Theme_3_0_31:
        .byte           N06   , Cn1 , v127
        .byte   W36
        .byte                   Cn1
        .byte   W24
        .byte                   Cn1
        .byte   W24
        .byte                   Cn1
        .byte   W12
        .byte   PEND
@ 032   ----------------------------------------
        .byte   PATT
         .word  _00___Random_Dungeon_Theme_3_0_31
@ 033   ----------------------------------------
_00___Random_Dungeon_Theme_3_0_33:
        .byte           N06   , As0 , v127
        .byte   W36
        .byte                   As0
        .byte   W24
        .byte                   As0
        .byte   W24
        .byte                   As0
        .byte   W12
        .byte   PEND
@ 034   ----------------------------------------
        .byte   PATT
         .word  _00___Random_Dungeon_Theme_3_0_33
@ 035   ----------------------------------------
_00___Random_Dungeon_Theme_3_0_35:
        .byte           N06   , Ds1 , v127
        .byte   W36
        .byte                   Ds1
        .byte   W24
        .byte                   Ds1
        .byte   W24
        .byte                   Ds1
        .byte   W12
        .byte   PEND
@ 036   ----------------------------------------
_00___Random_Dungeon_Theme_3_0_36:
        .byte           N06   , Fn1 , v127
        .byte   W36
        .byte                   Fn1
        .byte   W24
        .byte                   Fn1
        .byte   W24
        .byte                   Fn1
        .byte   W12
        .byte   PEND
@ 037   ----------------------------------------
_00___Random_Dungeon_Theme_3_0_37:
        .byte           N06   , Gs1 , v127
        .byte   W36
        .byte                   Gs1
        .byte   W24
        .byte                   Gs1
        .byte   W24
        .byte                   Gs1
        .byte   W12
        .byte   PEND
@ 038   ----------------------------------------
_00___Random_Dungeon_Theme_3_0_38:
        .byte           N06   , As1 , v127
        .byte   W36
        .byte                   As1
        .byte   W12
        .byte                   Cn2
        .byte   W36
        .byte                   Cn2
        .byte   W12
        .byte   PEND
@ 039   ----------------------------------------
        .byte   PATT
         .word  _00___Random_Dungeon_Theme_3_0_2
@ 040   ----------------------------------------
        .byte   PATT
         .word  _00___Random_Dungeon_Theme_3_0_2
@ 041   ----------------------------------------
        .byte   PATT
         .word  _00___Random_Dungeon_Theme_3_0_2
@ 042   ----------------------------------------
        .byte   PATT
         .word  _00___Random_Dungeon_Theme_3_0_2
@ 043   ----------------------------------------
        .byte   PATT
         .word  _00___Random_Dungeon_Theme_3_0_2
@ 044   ----------------------------------------
        .byte   PATT
         .word  _00___Random_Dungeon_Theme_3_0_2
@ 045   ----------------------------------------
        .byte   PATT
         .word  _00___Random_Dungeon_Theme_3_0_2
@ 046   ----------------------------------------
        .byte   PATT
         .word  _00___Random_Dungeon_Theme_3_0_2
@ 047   ----------------------------------------
        .byte   PATT
         .word  _00___Random_Dungeon_Theme_3_0_2
@ 048   ----------------------------------------
        .byte   PATT
         .word  _00___Random_Dungeon_Theme_3_0_2
@ 049   ----------------------------------------
        .byte   PATT
         .word  _00___Random_Dungeon_Theme_3_0_11
@ 050   ----------------------------------------
        .byte   PATT
         .word  _00___Random_Dungeon_Theme_3_0_2
@ 051   ----------------------------------------
        .byte   PATT
         .word  _00___Random_Dungeon_Theme_3_0_2
@ 052   ----------------------------------------
        .byte   PATT
         .word  _00___Random_Dungeon_Theme_3_0_2
@ 053   ----------------------------------------
        .byte   PATT
         .word  _00___Random_Dungeon_Theme_3_0_2
@ 054   ----------------------------------------
        .byte   PATT
         .word  _00___Random_Dungeon_Theme_3_0_2
@ 055   ----------------------------------------
        .byte   PATT
         .word  _00___Random_Dungeon_Theme_3_0_2
@ 056   ----------------------------------------
        .byte   PATT
         .word  _00___Random_Dungeon_Theme_3_0_2
@ 057   ----------------------------------------
        .byte   PATT
         .word  _00___Random_Dungeon_Theme_3_0_11
@ 058   ----------------------------------------
        .byte   PATT
         .word  _00___Random_Dungeon_Theme_3_0_2
@ 059   ----------------------------------------
        .byte   PATT
         .word  _00___Random_Dungeon_Theme_3_0_21
@ 060   ----------------------------------------
        .byte   PATT
         .word  _00___Random_Dungeon_Theme_3_0_22
@ 061   ----------------------------------------
        .byte   PATT
         .word  _00___Random_Dungeon_Theme_3_0_23
@ 062   ----------------------------------------
        .byte   PATT
         .word  _00___Random_Dungeon_Theme_3_0_23
@ 063   ----------------------------------------
        .byte   PATT
         .word  _00___Random_Dungeon_Theme_3_0_25
@ 064   ----------------------------------------
        .byte   PATT
         .word  _00___Random_Dungeon_Theme_3_0_25
@ 065   ----------------------------------------
        .byte   PATT
         .word  _00___Random_Dungeon_Theme_3_0_27
@ 066   ----------------------------------------
        .byte   PATT
         .word  _00___Random_Dungeon_Theme_3_0_27
@ 067   ----------------------------------------
        .byte   PATT
         .word  _00___Random_Dungeon_Theme_3_0_29
@ 068   ----------------------------------------
        .byte   PATT
         .word  _00___Random_Dungeon_Theme_3_0_29
@ 069   ----------------------------------------
        .byte   PATT
         .word  _00___Random_Dungeon_Theme_3_0_31
@ 070   ----------------------------------------
        .byte   PATT
         .word  _00___Random_Dungeon_Theme_3_0_31
@ 071   ----------------------------------------
        .byte   PATT
         .word  _00___Random_Dungeon_Theme_3_0_33
@ 072   ----------------------------------------
        .byte   PATT
         .word  _00___Random_Dungeon_Theme_3_0_33
@ 073   ----------------------------------------
        .byte   PATT
         .word  _00___Random_Dungeon_Theme_3_0_35
@ 074   ----------------------------------------
        .byte   PATT
         .word  _00___Random_Dungeon_Theme_3_0_36
@ 075   ----------------------------------------
        .byte   PATT
         .word  _00___Random_Dungeon_Theme_3_0_37
@ 076   ----------------------------------------
        .byte   PATT
         .word  _00___Random_Dungeon_Theme_3_0_38
@ 077   ----------------------------------------
        .byte   PATT
         .word  _00___Random_Dungeon_Theme_3_0_2
@ 078   ----------------------------------------
        .byte   PATT
         .word  _00___Random_Dungeon_Theme_3_0_2
@ 079   ----------------------------------------
        .byte   PATT
         .word  _00___Random_Dungeon_Theme_3_0_2
@ 080   ----------------------------------------
        .byte   PATT
         .word  _00___Random_Dungeon_Theme_3_0_2
@ 081   ----------------------------------------
        .byte   FINE

@****************** Track 1 (Midi-Chn.1) ******************@

_00___Random_Dungeon_Theme_3_1:
        .byte   KEYSH , _00___Random_Dungeon_Theme_3_key+0
@ 000   ----------------------------------------
        .byte   W24
@ 001   ----------------------------------------
        .byte           PAN   , c_v-44
        .byte           VOL   , 91
        .byte           VOICE , 48
        .byte           N06   , Fs3 , v110
        .byte   W12
        .byte                   Fs3 , v074
        .byte   W12
        .byte                   Fs3
        .byte   W12
        .byte                   Gn3 , v110
        .byte   W12
        .byte                   Gn3 , v074
        .byte   W12
        .byte                   Gn3 , v110
        .byte   W12
        .byte                   Gn3 , v074
        .byte   W12
        .byte                   Gn3 , v110
        .byte   W12
@ 002   ----------------------------------------
_00___Random_Dungeon_Theme_3_1_2:
        .byte           N06   , Fs3 , v110
        .byte   W12
        .byte                   Fs3 , v074
        .byte   W12
        .byte                   Fs3
        .byte   W12
        .byte                   En3 , v110
        .byte   W12
        .byte                   En3 , v074
        .byte   W12
        .byte                   En3 , v110
        .byte   W12
        .byte                   En3 , v074
        .byte   W12
        .byte                   En3 , v110
        .byte   W12
        .byte   PEND
@ 003   ----------------------------------------
_00___Random_Dungeon_Theme_3_1_3:
        .byte           N06   , Fs3 , v110
        .byte   W12
        .byte                   Fs3 , v074
        .byte   W12
        .byte                   Fs3
        .byte   W12
        .byte                   Gn3 , v110
        .byte   W12
        .byte                   Gn3 , v074
        .byte   W12
        .byte                   Gn3 , v110
        .byte   W12
        .byte                   Gn3 , v074
        .byte   W12
        .byte                   Gn3 , v110
        .byte   W12
        .byte   PEND
@ 004   ----------------------------------------
        .byte   PATT
         .word  _00___Random_Dungeon_Theme_3_1_2
@ 005   ----------------------------------------
_00___Random_Dungeon_Theme_3_1_5:
        .byte           N06   , Dn3 , v110
        .byte   W12
        .byte                   Dn3 , v074
        .byte   W12
        .byte                   Dn3
        .byte   W12
        .byte                   Dn3 , v110
        .byte   W12
        .byte                   Dn3 , v074
        .byte   W12
        .byte                   Dn3 , v110
        .byte   W12
        .byte                   Dn3 , v074
        .byte   W12
        .byte                   Dn3 , v110
        .byte   W12
        .byte   PEND
@ 006   ----------------------------------------
_00___Random_Dungeon_Theme_3_1_6:
        .byte           N06   , Dn3 , v110
        .byte   W12
        .byte                   Dn3 , v074
        .byte   W12
        .byte                   Dn3
        .byte   W12
        .byte                   Cn3 , v110
        .byte   W12
        .byte                   Cn3 , v074
        .byte   W12
        .byte                   Cn3 , v110
        .byte   W12
        .byte                   Cn3 , v074
        .byte   W12
        .byte                   Cn3 , v110
        .byte   W12
        .byte   PEND
@ 007   ----------------------------------------
        .byte   PATT
         .word  _00___Random_Dungeon_Theme_3_1_5
@ 008   ----------------------------------------
        .byte   PATT
         .word  _00___Random_Dungeon_Theme_3_1_6
@ 009   ----------------------------------------
        .byte   PATT
         .word  _00___Random_Dungeon_Theme_3_1_5
@ 010   ----------------------------------------
        .byte   PATT
         .word  _00___Random_Dungeon_Theme_3_1_6
@ 011   ----------------------------------------
        .byte   PATT
         .word  _00___Random_Dungeon_Theme_3_1_5
@ 012   ----------------------------------------
        .byte   PATT
         .word  _00___Random_Dungeon_Theme_3_1_5
@ 013   ----------------------------------------
_00___Random_Dungeon_Theme_3_1_13:
        .byte           N06   , An3 , v120
        .byte   W12
        .byte                   An3 , v084
        .byte   W12
        .byte                   An3
        .byte   W12
        .byte                   An3 , v120
        .byte   W12
        .byte                   An3 , v084
        .byte   W12
        .byte                   An3 , v120
        .byte   W12
        .byte                   An3 , v084
        .byte   W12
        .byte                   An3 , v120
        .byte   W12
        .byte   PEND
@ 014   ----------------------------------------
_00___Random_Dungeon_Theme_3_1_14:
        .byte           N06   , An3 , v120
        .byte   W12
        .byte                   An3 , v084
        .byte   W12
        .byte                   An3
        .byte   W12
        .byte                   Gn3 , v120
        .byte   W12
        .byte                   Gn3 , v084
        .byte   W12
        .byte                   Gn3 , v120
        .byte   W12
        .byte                   Gn3 , v084
        .byte   W12
        .byte                   Gn3 , v120
        .byte   W12
        .byte   PEND
@ 015   ----------------------------------------
        .byte   PATT
         .word  _00___Random_Dungeon_Theme_3_1_13
@ 016   ----------------------------------------
        .byte   PATT
         .word  _00___Random_Dungeon_Theme_3_1_14
@ 017   ----------------------------------------
        .byte   PATT
         .word  _00___Random_Dungeon_Theme_3_1_13
@ 018   ----------------------------------------
        .byte   PATT
         .word  _00___Random_Dungeon_Theme_3_1_14
@ 019   ----------------------------------------
_00___Random_Dungeon_Theme_3_1_19:
        .byte           N06   , Bn3 , v120
        .byte   W12
        .byte                   Bn3 , v084
        .byte   W12
        .byte                   Bn3
        .byte   W12
        .byte                   An3 , v120
        .byte   W12
        .byte                   An3 , v084
        .byte   W12
        .byte                   An3 , v120
        .byte   W12
        .byte                   An3 , v084
        .byte   W12
        .byte                   An3 , v120
        .byte   W12
        .byte   PEND
@ 020   ----------------------------------------
_00___Random_Dungeon_Theme_3_1_20:
        .byte           N06   , Gn3 , v120
        .byte   W12
        .byte                   Gn3 , v084
        .byte   W12
        .byte                   Gn3
        .byte   W12
        .byte                   An3 , v120
        .byte   W12
        .byte                   An3 , v084
        .byte   W12
        .byte                   An3 , v120
        .byte   W12
        .byte                   An3 , v084
        .byte   W12
        .byte                   An3 , v120
        .byte   W12
        .byte   PEND
@ 021   ----------------------------------------
_00___Random_Dungeon_Theme_3_1_21:
        .byte           N06   , Bn3 , v120
        .byte   W12
        .byte                   Bn3 , v084
        .byte   W12
        .byte                   Bn3
        .byte   W12
        .byte                   An3 , v120
        .byte   W12
        .byte                   An3 , v084
        .byte   W12
        .byte                   An3
        .byte   W12
        .byte                   An3 , v120
        .byte   W12
        .byte                   An3 , v084
        .byte   W12
        .byte   PEND
@ 022   ----------------------------------------
        .byte   PATT
         .word  _00___Random_Dungeon_Theme_3_1_13
@ 023   ----------------------------------------
_00___Random_Dungeon_Theme_3_1_23:
        .byte           N06   , Bn2 , v115
        .byte   W24
        .byte                   Bn2
        .byte   W24
        .byte                   Bn2
        .byte   W24
        .byte                   Bn2
        .byte   W24
        .byte   PEND
@ 024   ----------------------------------------
        .byte   PATT
         .word  _00___Random_Dungeon_Theme_3_1_23
@ 025   ----------------------------------------
_00___Random_Dungeon_Theme_3_1_25:
        .byte           N06   , An2 , v115
        .byte   W24
        .byte                   An2
        .byte   W24
        .byte                   An2
        .byte   W24
        .byte                   An2
        .byte   W24
        .byte   PEND
@ 026   ----------------------------------------
        .byte   PATT
         .word  _00___Random_Dungeon_Theme_3_1_25
@ 027   ----------------------------------------
_00___Random_Dungeon_Theme_3_1_27:
        .byte           N06   , Gn2 , v115
        .byte   W24
        .byte                   Gn2
        .byte   W24
        .byte                   Gn2
        .byte   W24
        .byte                   Gn2
        .byte   W24
        .byte   PEND
@ 028   ----------------------------------------
        .byte   PATT
         .word  _00___Random_Dungeon_Theme_3_1_27
@ 029   ----------------------------------------
_00___Random_Dungeon_Theme_3_1_29:
        .byte           N06   , Fn2 , v115
        .byte   W24
        .byte                   Fn2
        .byte   W24
        .byte                   Fn2
        .byte   W24
        .byte                   Fn2
        .byte   W24
        .byte   PEND
@ 030   ----------------------------------------
        .byte   PATT
         .word  _00___Random_Dungeon_Theme_3_1_29
@ 031   ----------------------------------------
_00___Random_Dungeon_Theme_3_1_31:
        .byte           N06   , Cn4 , v120
        .byte   W12
        .byte                   Cn4 , v084
        .byte   W12
        .byte                   Cn4
        .byte   W12
        .byte                   Cn4 , v120
        .byte   W12
        .byte                   Cn4 , v084
        .byte   W12
        .byte                   Cn4 , v120
        .byte   W12
        .byte                   Cn4 , v084
        .byte   W12
        .byte                   Cn4 , v120
        .byte   W12
        .byte   PEND
@ 032   ----------------------------------------
        .byte   PATT
         .word  _00___Random_Dungeon_Theme_3_1_31
@ 033   ----------------------------------------
_00___Random_Dungeon_Theme_3_1_33:
        .byte           N06   , Dn4 , v120
        .byte   W12
        .byte                   Dn4 , v084
        .byte   W12
        .byte                   Dn4
        .byte   W12
        .byte                   Dn4 , v120
        .byte   W12
        .byte                   Dn4 , v084
        .byte   W12
        .byte                   Dn4 , v120
        .byte   W12
        .byte                   Dn4 , v084
        .byte   W12
        .byte                   Dn4 , v120
        .byte   W12
        .byte   PEND
@ 034   ----------------------------------------
        .byte   PATT
         .word  _00___Random_Dungeon_Theme_3_1_33
@ 035   ----------------------------------------
_00___Random_Dungeon_Theme_3_1_35:
        .byte           N06   , Ds4 , v120
        .byte   W12
        .byte                   Ds4 , v084
        .byte   W12
        .byte                   Ds4
        .byte   W12
        .byte                   Ds4 , v120
        .byte   W12
        .byte                   Ds4 , v084
        .byte   W12
        .byte                   Ds4 , v120
        .byte   W12
        .byte                   Ds4 , v084
        .byte   W12
        .byte                   Ds4 , v120
        .byte   W12
        .byte   PEND
@ 036   ----------------------------------------
_00___Random_Dungeon_Theme_3_1_36:
        .byte           N06   , Fn4 , v120
        .byte   W12
        .byte                   Fn4 , v084
        .byte   W12
        .byte                   Fn4
        .byte   W12
        .byte                   Fn4 , v120
        .byte   W12
        .byte                   Fn4 , v084
        .byte   W12
        .byte                   Fn4 , v120
        .byte   W12
        .byte                   Fn4 , v084
        .byte   W12
        .byte                   Fn4 , v120
        .byte   W12
        .byte   PEND
@ 037   ----------------------------------------
_00___Random_Dungeon_Theme_3_1_37:
        .byte           N06   , Gs4 , v120
        .byte   W12
        .byte                   Gs4 , v084
        .byte   W12
        .byte                   Gs4
        .byte   W12
        .byte                   Gs4 , v120
        .byte   W12
        .byte                   Gs4 , v084
        .byte   W12
        .byte                   Gs4 , v120
        .byte   W12
        .byte                   Gs4 , v084
        .byte   W12
        .byte                   Gs4 , v120
        .byte   W12
        .byte   PEND
@ 038   ----------------------------------------
_00___Random_Dungeon_Theme_3_1_38:
        .byte           N06   , As4 , v120
        .byte   W12
        .byte                   As4 , v084
        .byte   W12
        .byte                   As4
        .byte   W12
        .byte                   As4 , v120
        .byte   W12
        .byte                   As4
        .byte   W12
        .byte                   As4 , v084
        .byte   W12
        .byte                   As4
        .byte   W12
        .byte                   As4 , v120
        .byte   W12
        .byte   PEND
@ 039   ----------------------------------------
_00___Random_Dungeon_Theme_3_1_39:
        .byte           N06   , Fs4 , v120
        .byte   W12
        .byte                   Fs4 , v084
        .byte   W12
        .byte                   Fs4
        .byte   W12
        .byte                   En4 , v120
        .byte   W12
        .byte                   En4 , v084
        .byte   W12
        .byte                   En4 , v120
        .byte   W12
        .byte                   En4 , v084
        .byte   W12
        .byte                   En4 , v120
        .byte   W12
        .byte   PEND
@ 040   ----------------------------------------
        .byte   PATT
         .word  _00___Random_Dungeon_Theme_3_1_39
@ 041   ----------------------------------------
        .byte   PATT
         .word  _00___Random_Dungeon_Theme_3_1_3
@ 042   ----------------------------------------
        .byte   PATT
         .word  _00___Random_Dungeon_Theme_3_1_2
@ 043   ----------------------------------------
        .byte   PATT
         .word  _00___Random_Dungeon_Theme_3_1_5
@ 044   ----------------------------------------
        .byte   PATT
         .word  _00___Random_Dungeon_Theme_3_1_6
@ 045   ----------------------------------------
        .byte   PATT
         .word  _00___Random_Dungeon_Theme_3_1_5
@ 046   ----------------------------------------
        .byte   PATT
         .word  _00___Random_Dungeon_Theme_3_1_6
@ 047   ----------------------------------------
        .byte   PATT
         .word  _00___Random_Dungeon_Theme_3_1_5
@ 048   ----------------------------------------
        .byte   PATT
         .word  _00___Random_Dungeon_Theme_3_1_6
@ 049   ----------------------------------------
        .byte   PATT
         .word  _00___Random_Dungeon_Theme_3_1_5
@ 050   ----------------------------------------
        .byte   PATT
         .word  _00___Random_Dungeon_Theme_3_1_5
@ 051   ----------------------------------------
        .byte   PATT
         .word  _00___Random_Dungeon_Theme_3_1_13
@ 052   ----------------------------------------
        .byte   PATT
         .word  _00___Random_Dungeon_Theme_3_1_14
@ 053   ----------------------------------------
        .byte   PATT
         .word  _00___Random_Dungeon_Theme_3_1_13
@ 054   ----------------------------------------
        .byte   PATT
         .word  _00___Random_Dungeon_Theme_3_1_14
@ 055   ----------------------------------------
        .byte   PATT
         .word  _00___Random_Dungeon_Theme_3_1_13
@ 056   ----------------------------------------
        .byte   PATT
         .word  _00___Random_Dungeon_Theme_3_1_14
@ 057   ----------------------------------------
        .byte   PATT
         .word  _00___Random_Dungeon_Theme_3_1_19
@ 058   ----------------------------------------
        .byte   PATT
         .word  _00___Random_Dungeon_Theme_3_1_20
@ 059   ----------------------------------------
        .byte   PATT
         .word  _00___Random_Dungeon_Theme_3_1_21
@ 060   ----------------------------------------
        .byte   PATT
         .word  _00___Random_Dungeon_Theme_3_1_13
@ 061   ----------------------------------------
        .byte   PATT
         .word  _00___Random_Dungeon_Theme_3_1_23
@ 062   ----------------------------------------
        .byte   PATT
         .word  _00___Random_Dungeon_Theme_3_1_23
@ 063   ----------------------------------------
        .byte   PATT
         .word  _00___Random_Dungeon_Theme_3_1_25
@ 064   ----------------------------------------
        .byte   PATT
         .word  _00___Random_Dungeon_Theme_3_1_25
@ 065   ----------------------------------------
        .byte   PATT
         .word  _00___Random_Dungeon_Theme_3_1_27
@ 066   ----------------------------------------
        .byte   PATT
         .word  _00___Random_Dungeon_Theme_3_1_27
@ 067   ----------------------------------------
        .byte   PATT
         .word  _00___Random_Dungeon_Theme_3_1_29
@ 068   ----------------------------------------
        .byte   PATT
         .word  _00___Random_Dungeon_Theme_3_1_29
@ 069   ----------------------------------------
        .byte   PATT
         .word  _00___Random_Dungeon_Theme_3_1_31
@ 070   ----------------------------------------
        .byte   PATT
         .word  _00___Random_Dungeon_Theme_3_1_31
@ 071   ----------------------------------------
        .byte   PATT
         .word  _00___Random_Dungeon_Theme_3_1_33
@ 072   ----------------------------------------
        .byte   PATT
         .word  _00___Random_Dungeon_Theme_3_1_33
@ 073   ----------------------------------------
        .byte   PATT
         .word  _00___Random_Dungeon_Theme_3_1_35
@ 074   ----------------------------------------
        .byte   PATT
         .word  _00___Random_Dungeon_Theme_3_1_36
@ 075   ----------------------------------------
        .byte   PATT
         .word  _00___Random_Dungeon_Theme_3_1_37
@ 076   ----------------------------------------
        .byte   PATT
         .word  _00___Random_Dungeon_Theme_3_1_38
@ 077   ----------------------------------------
        .byte   PATT
         .word  _00___Random_Dungeon_Theme_3_1_39
@ 078   ----------------------------------------
        .byte   PATT
         .word  _00___Random_Dungeon_Theme_3_1_39
@ 079   ----------------------------------------
        .byte   PATT
         .word  _00___Random_Dungeon_Theme_3_1_3
@ 080   ----------------------------------------
        .byte   PATT
         .word  _00___Random_Dungeon_Theme_3_1_2
@ 081   ----------------------------------------
        .byte   FINE

@****************** Track 2 (Midi-Chn.2) ******************@

_00___Random_Dungeon_Theme_3_2:
        .byte   KEYSH , _00___Random_Dungeon_Theme_3_key+0
@ 000   ----------------------------------------
        .byte   W24
@ 001   ----------------------------------------
        .byte           PAN   , c_v-10
        .byte           VOL   , 91
        .byte           VOICE , 48
        .byte           N06   , Dn3 , v110
        .byte   W12
        .byte                   Dn3 , v074
        .byte   W12
        .byte                   Dn3
        .byte   W12
        .byte                   Dn3 , v110
        .byte   W12
        .byte                   Dn3 , v074
        .byte   W12
        .byte                   Dn3 , v110
        .byte   W12
        .byte                   Dn3 , v074
        .byte   W12
        .byte                   Dn3 , v110
        .byte   W12
@ 002   ----------------------------------------
        .byte   PATT
         .word  _00___Random_Dungeon_Theme_3_1_6
@ 003   ----------------------------------------
        .byte   PATT
         .word  _00___Random_Dungeon_Theme_3_1_5
@ 004   ----------------------------------------
        .byte   PATT
         .word  _00___Random_Dungeon_Theme_3_1_6
@ 005   ----------------------------------------
_00___Random_Dungeon_Theme_3_2_5:
        .byte           N06   , An2 , v110
        .byte   W12
        .byte                   An2 , v074
        .byte   W12
        .byte                   An2
        .byte   W12
        .byte                   An2 , v110
        .byte   W12
        .byte                   An2 , v074
        .byte   W12
        .byte                   An2 , v110
        .byte   W12
        .byte                   An2 , v074
        .byte   W12
        .byte                   An2 , v110
        .byte   W12
        .byte   PEND
@ 006   ----------------------------------------
_00___Random_Dungeon_Theme_3_2_6:
        .byte           N06   , An2 , v110
        .byte   W12
        .byte                   An2 , v074
        .byte   W12
        .byte                   An2
        .byte   W12
        .byte                   Gn2 , v110
        .byte   W12
        .byte                   Gn2 , v074
        .byte   W12
        .byte                   Gn2 , v110
        .byte   W12
        .byte                   Gn2 , v074
        .byte   W12
        .byte                   Gn2 , v110
        .byte   W12
        .byte   PEND
@ 007   ----------------------------------------
        .byte   PATT
         .word  _00___Random_Dungeon_Theme_3_2_5
@ 008   ----------------------------------------
        .byte   PATT
         .word  _00___Random_Dungeon_Theme_3_2_6
@ 009   ----------------------------------------
        .byte   PATT
         .word  _00___Random_Dungeon_Theme_3_2_5
@ 010   ----------------------------------------
        .byte   PATT
         .word  _00___Random_Dungeon_Theme_3_2_6
@ 011   ----------------------------------------
_00___Random_Dungeon_Theme_3_2_11:
        .byte           N06   , Bn2 , v110
        .byte   W12
        .byte                   Bn2 , v074
        .byte   W12
        .byte                   Bn2
        .byte   W12
        .byte                   An2 , v110
        .byte   W12
        .byte                   An2 , v074
        .byte   W12
        .byte                   An2 , v110
        .byte   W12
        .byte                   An2 , v074
        .byte   W12
        .byte                   An2 , v110
        .byte   W12
        .byte   PEND
@ 012   ----------------------------------------
_00___Random_Dungeon_Theme_3_2_12:
        .byte           N06   , Gn2 , v110
        .byte   W12
        .byte                   Gn2 , v074
        .byte   W12
        .byte                   Gn2
        .byte   W12
        .byte                   An2 , v110
        .byte   W12
        .byte                   An2 , v074
        .byte   W12
        .byte                   An2 , v110
        .byte   W12
        .byte                   An2 , v074
        .byte   W12
        .byte                   An2 , v110
        .byte   W12
        .byte   PEND
@ 013   ----------------------------------------
_00___Random_Dungeon_Theme_3_2_13:
        .byte           N06   , Fs3 , v120
        .byte   W12
        .byte                   Fs3 , v084
        .byte   W12
        .byte                   Fs3
        .byte   W12
        .byte                   Gn3 , v120
        .byte   W12
        .byte                   Gn3 , v084
        .byte   W12
        .byte                   Gn3 , v120
        .byte   W12
        .byte                   Gn3 , v084
        .byte   W12
        .byte                   Gn3 , v120
        .byte   W12
        .byte   PEND
@ 014   ----------------------------------------
_00___Random_Dungeon_Theme_3_2_14:
        .byte           N06   , Fs3 , v120
        .byte   W12
        .byte                   Fs3 , v084
        .byte   W12
        .byte                   Fs3
        .byte   W12
        .byte                   En3 , v120
        .byte   W12
        .byte                   En3 , v084
        .byte   W12
        .byte                   En3 , v120
        .byte   W12
        .byte                   En3 , v084
        .byte   W12
        .byte                   En3 , v120
        .byte   W12
        .byte   PEND
@ 015   ----------------------------------------
        .byte   PATT
         .word  _00___Random_Dungeon_Theme_3_2_13
@ 016   ----------------------------------------
        .byte   PATT
         .word  _00___Random_Dungeon_Theme_3_2_14
@ 017   ----------------------------------------
        .byte   PATT
         .word  _00___Random_Dungeon_Theme_3_2_13
@ 018   ----------------------------------------
        .byte   PATT
         .word  _00___Random_Dungeon_Theme_3_2_14
@ 019   ----------------------------------------
_00___Random_Dungeon_Theme_3_2_19:
        .byte           N06   , Gn3 , v120
        .byte   W12
        .byte                   Gn3 , v084
        .byte   W12
        .byte                   Gn3
        .byte   W12
        .byte                   Fs3 , v120
        .byte   W12
        .byte                   Fs3 , v084
        .byte   W12
        .byte                   Fs3 , v120
        .byte   W12
        .byte                   Fs3 , v084
        .byte   W12
        .byte                   Fs3 , v120
        .byte   W12
        .byte   PEND
@ 020   ----------------------------------------
_00___Random_Dungeon_Theme_3_2_20:
        .byte           N06   , En3 , v120
        .byte   W12
        .byte                   En3 , v084
        .byte   W12
        .byte                   En3
        .byte   W12
        .byte                   Fs3 , v120
        .byte   W12
        .byte                   Fs3 , v084
        .byte   W12
        .byte                   Fs3 , v120
        .byte   W12
        .byte                   Fs3 , v084
        .byte   W12
        .byte                   Fs3 , v120
        .byte   W12
        .byte   PEND
@ 021   ----------------------------------------
_00___Random_Dungeon_Theme_3_2_21:
        .byte           N06   , Gn3 , v120
        .byte   W12
        .byte                   Gn3 , v084
        .byte   W12
        .byte                   Gn3
        .byte   W12
        .byte                   Fs3 , v120
        .byte   W12
        .byte                   Fs3 , v084
        .byte   W12
        .byte                   Fs3
        .byte   W12
        .byte                   En3 , v120
        .byte   W12
        .byte                   En3 , v084
        .byte   W12
        .byte   PEND
@ 022   ----------------------------------------
_00___Random_Dungeon_Theme_3_2_22:
        .byte           N06   , En3 , v120
        .byte   W12
        .byte                   En3 , v084
        .byte   W12
        .byte                   En3
        .byte   W12
        .byte                   En3 , v120
        .byte   W12
        .byte                   En3 , v084
        .byte   W12
        .byte                   En3 , v120
        .byte   W12
        .byte                   En3 , v084
        .byte   W12
        .byte                   En3 , v120
        .byte   W12
        .byte   PEND
@ 023   ----------------------------------------
        .byte   PATT
         .word  _00___Random_Dungeon_Theme_3_1_27
@ 024   ----------------------------------------
        .byte   PATT
         .word  _00___Random_Dungeon_Theme_3_1_27
@ 025   ----------------------------------------
        .byte   PATT
         .word  _00___Random_Dungeon_Theme_3_1_29
@ 026   ----------------------------------------
        .byte   PATT
         .word  _00___Random_Dungeon_Theme_3_1_29
@ 027   ----------------------------------------
_00___Random_Dungeon_Theme_3_2_27:
        .byte           N06   , Ds2 , v115
        .byte   W24
        .byte                   Ds2
        .byte   W24
        .byte                   Ds2
        .byte   W24
        .byte                   Ds2
        .byte   W24
        .byte   PEND
@ 028   ----------------------------------------
        .byte   PATT
         .word  _00___Random_Dungeon_Theme_3_2_27
@ 029   ----------------------------------------
_00___Random_Dungeon_Theme_3_2_29:
        .byte           N06   , Cs2 , v115
        .byte   W24
        .byte                   Cs2
        .byte   W24
        .byte                   Cs2
        .byte   W24
        .byte                   Cs2
        .byte   W24
        .byte   PEND
@ 030   ----------------------------------------
        .byte   PATT
         .word  _00___Random_Dungeon_Theme_3_2_29
@ 031   ----------------------------------------
_00___Random_Dungeon_Theme_3_2_31:
        .byte           N06   , Gn3 , v120
        .byte   W12
        .byte                   Gn3 , v084
        .byte   W12
        .byte                   Gn3
        .byte   W12
        .byte                   Gn3 , v120
        .byte   W12
        .byte                   Gn3 , v084
        .byte   W12
        .byte                   Gn3 , v120
        .byte   W12
        .byte                   Gn3 , v084
        .byte   W12
        .byte                   Gn3 , v120
        .byte   W12
        .byte   PEND
@ 032   ----------------------------------------
        .byte   PATT
         .word  _00___Random_Dungeon_Theme_3_2_31
@ 033   ----------------------------------------
_00___Random_Dungeon_Theme_3_2_33:
        .byte           N06   , As3 , v120
        .byte   W12
        .byte                   As3 , v084
        .byte   W12
        .byte                   As3
        .byte   W12
        .byte                   As3 , v120
        .byte   W12
        .byte                   As3 , v084
        .byte   W12
        .byte                   As3 , v120
        .byte   W12
        .byte                   As3 , v084
        .byte   W12
        .byte                   As3 , v120
        .byte   W12
        .byte   PEND
@ 034   ----------------------------------------
        .byte   PATT
         .word  _00___Random_Dungeon_Theme_3_2_33
@ 035   ----------------------------------------
        .byte   PATT
         .word  _00___Random_Dungeon_Theme_3_2_33
@ 036   ----------------------------------------
        .byte   PATT
         .word  _00___Random_Dungeon_Theme_3_1_31
@ 037   ----------------------------------------
        .byte   PATT
         .word  _00___Random_Dungeon_Theme_3_1_35
@ 038   ----------------------------------------
_00___Random_Dungeon_Theme_3_2_38:
        .byte           N06   , Fn4 , v120
        .byte   W12
        .byte                   Fn4 , v084
        .byte   W12
        .byte                   Fn4
        .byte   W12
        .byte                   Fn4 , v120
        .byte   W12
        .byte                   Gn4
        .byte   W12
        .byte                   Gn4 , v084
        .byte   W12
        .byte                   Gn4
        .byte   W12
        .byte                   Gn4 , v120
        .byte   W12
        .byte   PEND
@ 039   ----------------------------------------
        .byte   PATT
         .word  _00___Random_Dungeon_Theme_3_1_33
@ 040   ----------------------------------------
        .byte   PATT
         .word  _00___Random_Dungeon_Theme_3_1_33
@ 041   ----------------------------------------
        .byte   PATT
         .word  _00___Random_Dungeon_Theme_3_1_5
@ 042   ----------------------------------------
        .byte   PATT
         .word  _00___Random_Dungeon_Theme_3_1_6
@ 043   ----------------------------------------
        .byte   PATT
         .word  _00___Random_Dungeon_Theme_3_2_5
@ 044   ----------------------------------------
        .byte   PATT
         .word  _00___Random_Dungeon_Theme_3_2_6
@ 045   ----------------------------------------
        .byte   PATT
         .word  _00___Random_Dungeon_Theme_3_2_5
@ 046   ----------------------------------------
        .byte   PATT
         .word  _00___Random_Dungeon_Theme_3_2_6
@ 047   ----------------------------------------
        .byte   PATT
         .word  _00___Random_Dungeon_Theme_3_2_5
@ 048   ----------------------------------------
        .byte   PATT
         .word  _00___Random_Dungeon_Theme_3_2_6
@ 049   ----------------------------------------
        .byte   PATT
         .word  _00___Random_Dungeon_Theme_3_2_11
@ 050   ----------------------------------------
        .byte   PATT
         .word  _00___Random_Dungeon_Theme_3_2_12
@ 051   ----------------------------------------
        .byte   PATT
         .word  _00___Random_Dungeon_Theme_3_2_13
@ 052   ----------------------------------------
        .byte   PATT
         .word  _00___Random_Dungeon_Theme_3_2_14
@ 053   ----------------------------------------
        .byte   PATT
         .word  _00___Random_Dungeon_Theme_3_2_13
@ 054   ----------------------------------------
        .byte   PATT
         .word  _00___Random_Dungeon_Theme_3_2_14
@ 055   ----------------------------------------
        .byte   PATT
         .word  _00___Random_Dungeon_Theme_3_2_13
@ 056   ----------------------------------------
        .byte   PATT
         .word  _00___Random_Dungeon_Theme_3_2_14
@ 057   ----------------------------------------
        .byte   PATT
         .word  _00___Random_Dungeon_Theme_3_2_19
@ 058   ----------------------------------------
        .byte   PATT
         .word  _00___Random_Dungeon_Theme_3_2_20
@ 059   ----------------------------------------
        .byte   PATT
         .word  _00___Random_Dungeon_Theme_3_2_21
@ 060   ----------------------------------------
        .byte   PATT
         .word  _00___Random_Dungeon_Theme_3_2_22
@ 061   ----------------------------------------
        .byte   PATT
         .word  _00___Random_Dungeon_Theme_3_1_27
@ 062   ----------------------------------------
        .byte   PATT
         .word  _00___Random_Dungeon_Theme_3_1_27
@ 063   ----------------------------------------
        .byte   PATT
         .word  _00___Random_Dungeon_Theme_3_1_29
@ 064   ----------------------------------------
        .byte   PATT
         .word  _00___Random_Dungeon_Theme_3_1_29
@ 065   ----------------------------------------
        .byte   PATT
         .word  _00___Random_Dungeon_Theme_3_2_27
@ 066   ----------------------------------------
        .byte   PATT
         .word  _00___Random_Dungeon_Theme_3_2_27
@ 067   ----------------------------------------
        .byte   PATT
         .word  _00___Random_Dungeon_Theme_3_2_29
@ 068   ----------------------------------------
        .byte   PATT
         .word  _00___Random_Dungeon_Theme_3_2_29
@ 069   ----------------------------------------
        .byte   PATT
         .word  _00___Random_Dungeon_Theme_3_2_31
@ 070   ----------------------------------------
        .byte   PATT
         .word  _00___Random_Dungeon_Theme_3_2_31
@ 071   ----------------------------------------
        .byte   PATT
         .word  _00___Random_Dungeon_Theme_3_2_33
@ 072   ----------------------------------------
        .byte   PATT
         .word  _00___Random_Dungeon_Theme_3_2_33
@ 073   ----------------------------------------
        .byte   PATT
         .word  _00___Random_Dungeon_Theme_3_2_33
@ 074   ----------------------------------------
        .byte   PATT
         .word  _00___Random_Dungeon_Theme_3_1_31
@ 075   ----------------------------------------
        .byte   PATT
         .word  _00___Random_Dungeon_Theme_3_1_35
@ 076   ----------------------------------------
        .byte   PATT
         .word  _00___Random_Dungeon_Theme_3_2_38
@ 077   ----------------------------------------
        .byte   PATT
         .word  _00___Random_Dungeon_Theme_3_1_33
@ 078   ----------------------------------------
        .byte   PATT
         .word  _00___Random_Dungeon_Theme_3_1_33
@ 079   ----------------------------------------
        .byte   PATT
         .word  _00___Random_Dungeon_Theme_3_1_5
@ 080   ----------------------------------------
        .byte   PATT
         .word  _00___Random_Dungeon_Theme_3_1_6
@ 081   ----------------------------------------
        .byte   FINE

@****************** Track 3 (Midi-Chn.3) ******************@

_00___Random_Dungeon_Theme_3_3:
        .byte   KEYSH , _00___Random_Dungeon_Theme_3_key+0
@ 000   ----------------------------------------
        .byte   W24
@ 001   ----------------------------------------
        .byte           PAN   , c_v+26
        .byte           VOL   , 91
        .byte           VOICE , 48
        .byte           N06   , An2 , v110
        .byte   W12
        .byte                   An2 , v074
        .byte   W12
        .byte                   An2
        .byte   W12
        .byte                   An2 , v110
        .byte   W12
        .byte                   An2 , v074
        .byte   W12
        .byte                   An2 , v110
        .byte   W12
        .byte                   An2 , v074
        .byte   W12
        .byte                   An2 , v110
        .byte   W12
@ 002   ----------------------------------------
        .byte   PATT
         .word  _00___Random_Dungeon_Theme_3_2_6
@ 003   ----------------------------------------
        .byte   PATT
         .word  _00___Random_Dungeon_Theme_3_2_5
@ 004   ----------------------------------------
        .byte   PATT
         .word  _00___Random_Dungeon_Theme_3_2_6
@ 005   ----------------------------------------
_00___Random_Dungeon_Theme_3_3_5:
        .byte           N06   , Fs2 , v110
        .byte   W12
        .byte                   Fs2 , v074
        .byte   W12
        .byte                   Fs2
        .byte   W12
        .byte                   Gn2 , v110
        .byte   W12
        .byte                   Gn2 , v074
        .byte   W12
        .byte                   Gn2 , v110
        .byte   W12
        .byte                   Gn2 , v074
        .byte   W12
        .byte                   Gn2 , v110
        .byte   W12
        .byte   PEND
@ 006   ----------------------------------------
_00___Random_Dungeon_Theme_3_3_6:
        .byte           N06   , Fs2 , v110
        .byte   W12
        .byte                   Fs2 , v074
        .byte   W12
        .byte                   Fs2
        .byte   W12
        .byte                   En2 , v110
        .byte   W12
        .byte                   En2 , v074
        .byte   W12
        .byte                   En2 , v110
        .byte   W12
        .byte                   En2 , v074
        .byte   W12
        .byte                   En2 , v110
        .byte   W12
        .byte   PEND
@ 007   ----------------------------------------
        .byte   PATT
         .word  _00___Random_Dungeon_Theme_3_3_5
@ 008   ----------------------------------------
        .byte   PATT
         .word  _00___Random_Dungeon_Theme_3_3_6
@ 009   ----------------------------------------
        .byte   PATT
         .word  _00___Random_Dungeon_Theme_3_3_5
@ 010   ----------------------------------------
        .byte   PATT
         .word  _00___Random_Dungeon_Theme_3_3_6
@ 011   ----------------------------------------
_00___Random_Dungeon_Theme_3_3_11:
        .byte           N06   , Gn2 , v110
        .byte   W12
        .byte                   Gn2 , v074
        .byte   W12
        .byte                   Gn2
        .byte   W12
        .byte                   Fs2 , v110
        .byte   W12
        .byte                   Fs2 , v074
        .byte   W12
        .byte                   Fs2 , v110
        .byte   W12
        .byte                   Fs2 , v074
        .byte   W12
        .byte                   Fs2 , v110
        .byte   W12
        .byte   PEND
@ 012   ----------------------------------------
_00___Random_Dungeon_Theme_3_3_12:
        .byte           N06   , En2 , v110
        .byte   W12
        .byte                   En2 , v074
        .byte   W12
        .byte                   En2
        .byte   W12
        .byte                   Fs2 , v110
        .byte   W12
        .byte                   Fs2 , v074
        .byte   W12
        .byte                   Fs2 , v110
        .byte   W12
        .byte                   Fs2 , v074
        .byte   W12
        .byte                   Fs2 , v110
        .byte   W12
        .byte   PEND
@ 013   ----------------------------------------
_00___Random_Dungeon_Theme_3_3_13:
        .byte           N06   , Dn3 , v120
        .byte   W12
        .byte                   Dn3 , v084
        .byte   W12
        .byte                   Dn3
        .byte   W12
        .byte                   Dn3 , v120
        .byte   W12
        .byte                   Dn3 , v084
        .byte   W12
        .byte                   Dn3 , v120
        .byte   W12
        .byte                   Dn3 , v084
        .byte   W12
        .byte                   Dn3 , v120
        .byte   W12
        .byte   PEND
@ 014   ----------------------------------------
_00___Random_Dungeon_Theme_3_3_14:
        .byte           N06   , Dn3 , v120
        .byte   W12
        .byte                   Dn3 , v084
        .byte   W12
        .byte                   Dn3
        .byte   W12
        .byte                   Cn3 , v120
        .byte   W12
        .byte                   Cn3 , v084
        .byte   W12
        .byte                   Cn3 , v120
        .byte   W12
        .byte                   Cn3 , v084
        .byte   W12
        .byte                   Cn3 , v120
        .byte   W12
        .byte   PEND
@ 015   ----------------------------------------
        .byte   PATT
         .word  _00___Random_Dungeon_Theme_3_3_13
@ 016   ----------------------------------------
        .byte   PATT
         .word  _00___Random_Dungeon_Theme_3_3_14
@ 017   ----------------------------------------
        .byte   PATT
         .word  _00___Random_Dungeon_Theme_3_3_13
@ 018   ----------------------------------------
        .byte   PATT
         .word  _00___Random_Dungeon_Theme_3_3_14
@ 019   ----------------------------------------
        .byte   PATT
         .word  _00___Random_Dungeon_Theme_3_3_13
@ 020   ----------------------------------------
        .byte   PATT
         .word  _00___Random_Dungeon_Theme_3_3_13
@ 021   ----------------------------------------
_00___Random_Dungeon_Theme_3_3_21:
        .byte           N06   , Dn3 , v120
        .byte   W12
        .byte                   Dn3 , v084
        .byte   W12
        .byte                   Dn3
        .byte   W12
        .byte                   Dn3 , v120
        .byte   W12
        .byte                   Dn3 , v084
        .byte   W12
        .byte                   Dn3
        .byte   W12
        .byte                   Cs3 , v120
        .byte   W12
        .byte                   Cs3 , v084
        .byte   W12
        .byte   PEND
@ 022   ----------------------------------------
_00___Random_Dungeon_Theme_3_3_22:
        .byte           N06   , Cs3 , v120
        .byte   W12
        .byte                   Cs3 , v084
        .byte   W12
        .byte                   Cs3
        .byte   W12
        .byte                   Cs3 , v120
        .byte   W12
        .byte                   Cs3 , v084
        .byte   W12
        .byte                   Cs3 , v120
        .byte   W12
        .byte                   Cs3 , v084
        .byte   W12
        .byte                   Cs3 , v120
        .byte   W12
        .byte   PEND
@ 023   ----------------------------------------
_00___Random_Dungeon_Theme_3_3_23:
        .byte           N06   , Dn2 , v115
        .byte   W24
        .byte                   Dn2
        .byte   W24
        .byte                   Dn2
        .byte   W24
        .byte                   Dn2
        .byte   W24
        .byte   PEND
@ 024   ----------------------------------------
        .byte   PATT
         .word  _00___Random_Dungeon_Theme_3_3_23
@ 025   ----------------------------------------
_00___Random_Dungeon_Theme_3_3_25:
        .byte           N06   , Cn2 , v115
        .byte   W24
        .byte                   Cn2
        .byte   W24
        .byte                   Cn2
        .byte   W24
        .byte                   Cn2
        .byte   W24
        .byte   PEND
@ 026   ----------------------------------------
        .byte   PATT
         .word  _00___Random_Dungeon_Theme_3_3_25
@ 027   ----------------------------------------
_00___Random_Dungeon_Theme_3_3_27:
        .byte           N06   , As1 , v115
        .byte   W24
        .byte                   As1
        .byte   W24
        .byte                   As1
        .byte   W24
        .byte                   As1
        .byte   W24
        .byte   PEND
@ 028   ----------------------------------------
        .byte   PATT
         .word  _00___Random_Dungeon_Theme_3_3_27
@ 029   ----------------------------------------
_00___Random_Dungeon_Theme_3_3_29:
        .byte           N06   , Gs1 , v115
        .byte   W24
        .byte                   Gs1
        .byte   W24
        .byte                   Gs1
        .byte   W24
        .byte                   Gs1
        .byte   W24
        .byte   PEND
@ 030   ----------------------------------------
        .byte   PATT
         .word  _00___Random_Dungeon_Theme_3_3_29
@ 031   ----------------------------------------
        .byte   PATT
         .word  _00___Random_Dungeon_Theme_3_2_22
@ 032   ----------------------------------------
        .byte   PATT
         .word  _00___Random_Dungeon_Theme_3_2_22
@ 033   ----------------------------------------
_00___Random_Dungeon_Theme_3_3_33:
        .byte           N06   , Fn3 , v120
        .byte   W12
        .byte                   Fn3 , v084
        .byte   W12
        .byte                   Fn3
        .byte   W12
        .byte                   Fn3 , v120
        .byte   W12
        .byte                   Fn3 , v084
        .byte   W12
        .byte                   Fn3 , v120
        .byte   W12
        .byte                   Fn3 , v084
        .byte   W12
        .byte                   Fn3 , v120
        .byte   W12
        .byte   PEND
@ 034   ----------------------------------------
        .byte   PATT
         .word  _00___Random_Dungeon_Theme_3_3_33
@ 035   ----------------------------------------
        .byte   PATT
         .word  _00___Random_Dungeon_Theme_3_2_31
@ 036   ----------------------------------------
        .byte   PATT
         .word  _00___Random_Dungeon_Theme_3_1_13
@ 037   ----------------------------------------
        .byte   PATT
         .word  _00___Random_Dungeon_Theme_3_1_31
@ 038   ----------------------------------------
_00___Random_Dungeon_Theme_3_3_38:
        .byte           N06   , Dn4 , v120
        .byte   W12
        .byte                   Dn4 , v084
        .byte   W12
        .byte                   Dn4
        .byte   W12
        .byte                   Dn4 , v120
        .byte   W12
        .byte                   En4
        .byte   W12
        .byte                   En4 , v084
        .byte   W12
        .byte                   En4
        .byte   W12
        .byte                   En4 , v120
        .byte   W12
        .byte   PEND
@ 039   ----------------------------------------
        .byte   PATT
         .word  _00___Random_Dungeon_Theme_3_1_13
@ 040   ----------------------------------------
        .byte   PATT
         .word  _00___Random_Dungeon_Theme_3_1_13
@ 041   ----------------------------------------
        .byte   PATT
         .word  _00___Random_Dungeon_Theme_3_2_5
@ 042   ----------------------------------------
        .byte   PATT
         .word  _00___Random_Dungeon_Theme_3_2_6
@ 043   ----------------------------------------
        .byte   PATT
         .word  _00___Random_Dungeon_Theme_3_3_5
@ 044   ----------------------------------------
        .byte   PATT
         .word  _00___Random_Dungeon_Theme_3_3_6
@ 045   ----------------------------------------
        .byte   PATT
         .word  _00___Random_Dungeon_Theme_3_3_5
@ 046   ----------------------------------------
        .byte   PATT
         .word  _00___Random_Dungeon_Theme_3_3_6
@ 047   ----------------------------------------
        .byte   PATT
         .word  _00___Random_Dungeon_Theme_3_3_5
@ 048   ----------------------------------------
        .byte   PATT
         .word  _00___Random_Dungeon_Theme_3_3_6
@ 049   ----------------------------------------
        .byte   PATT
         .word  _00___Random_Dungeon_Theme_3_3_11
@ 050   ----------------------------------------
        .byte   PATT
         .word  _00___Random_Dungeon_Theme_3_3_12
@ 051   ----------------------------------------
        .byte   PATT
         .word  _00___Random_Dungeon_Theme_3_3_13
@ 052   ----------------------------------------
        .byte   PATT
         .word  _00___Random_Dungeon_Theme_3_3_14
@ 053   ----------------------------------------
        .byte   PATT
         .word  _00___Random_Dungeon_Theme_3_3_13
@ 054   ----------------------------------------
        .byte   PATT
         .word  _00___Random_Dungeon_Theme_3_3_14
@ 055   ----------------------------------------
        .byte   PATT
         .word  _00___Random_Dungeon_Theme_3_3_13
@ 056   ----------------------------------------
        .byte   PATT
         .word  _00___Random_Dungeon_Theme_3_3_14
@ 057   ----------------------------------------
        .byte   PATT
         .word  _00___Random_Dungeon_Theme_3_3_13
@ 058   ----------------------------------------
        .byte   PATT
         .word  _00___Random_Dungeon_Theme_3_3_13
@ 059   ----------------------------------------
        .byte   PATT
         .word  _00___Random_Dungeon_Theme_3_3_21
@ 060   ----------------------------------------
        .byte   PATT
         .word  _00___Random_Dungeon_Theme_3_3_22
@ 061   ----------------------------------------
        .byte   PATT
         .word  _00___Random_Dungeon_Theme_3_3_23
@ 062   ----------------------------------------
        .byte   PATT
         .word  _00___Random_Dungeon_Theme_3_3_23
@ 063   ----------------------------------------
        .byte   PATT
         .word  _00___Random_Dungeon_Theme_3_3_25
@ 064   ----------------------------------------
        .byte   PATT
         .word  _00___Random_Dungeon_Theme_3_3_25
@ 065   ----------------------------------------
        .byte   PATT
         .word  _00___Random_Dungeon_Theme_3_3_27
@ 066   ----------------------------------------
        .byte   PATT
         .word  _00___Random_Dungeon_Theme_3_3_27
@ 067   ----------------------------------------
        .byte   PATT
         .word  _00___Random_Dungeon_Theme_3_3_29
@ 068   ----------------------------------------
        .byte   PATT
         .word  _00___Random_Dungeon_Theme_3_3_29
@ 069   ----------------------------------------
        .byte   PATT
         .word  _00___Random_Dungeon_Theme_3_2_22
@ 070   ----------------------------------------
        .byte   PATT
         .word  _00___Random_Dungeon_Theme_3_2_22
@ 071   ----------------------------------------
        .byte   PATT
         .word  _00___Random_Dungeon_Theme_3_3_33
@ 072   ----------------------------------------
        .byte   PATT
         .word  _00___Random_Dungeon_Theme_3_3_33
@ 073   ----------------------------------------
        .byte   PATT
         .word  _00___Random_Dungeon_Theme_3_2_31
@ 074   ----------------------------------------
        .byte   PATT
         .word  _00___Random_Dungeon_Theme_3_1_13
@ 075   ----------------------------------------
        .byte   PATT
         .word  _00___Random_Dungeon_Theme_3_1_31
@ 076   ----------------------------------------
        .byte   PATT
         .word  _00___Random_Dungeon_Theme_3_3_38
@ 077   ----------------------------------------
        .byte   PATT
         .word  _00___Random_Dungeon_Theme_3_1_13
@ 078   ----------------------------------------
        .byte   PATT
         .word  _00___Random_Dungeon_Theme_3_1_13
@ 079   ----------------------------------------
        .byte   PATT
         .word  _00___Random_Dungeon_Theme_3_2_5
@ 080   ----------------------------------------
        .byte   PATT
         .word  _00___Random_Dungeon_Theme_3_2_6
@ 081   ----------------------------------------
        .byte   FINE

@****************** Track 4 (Midi-Chn.4) ******************@

_00___Random_Dungeon_Theme_3_4:
        .byte   KEYSH , _00___Random_Dungeon_Theme_3_key+0
@ 000   ----------------------------------------
        .byte   W24
@ 001   ----------------------------------------
        .byte           VOL   , 99
        .byte           VOICE , 61
        .byte   W96
@ 002   ----------------------------------------
        .byte   W96
@ 003   ----------------------------------------
        .byte   W96
@ 004   ----------------------------------------
        .byte   W96
@ 005   ----------------------------------------
        .byte   W96
@ 006   ----------------------------------------
        .byte   W96
@ 007   ----------------------------------------
        .byte   W96
@ 008   ----------------------------------------
        .byte   W96
@ 009   ----------------------------------------
        .byte   W96
@ 010   ----------------------------------------
        .byte   W96
@ 011   ----------------------------------------
        .byte   W96
@ 012   ----------------------------------------
        .byte   W96
@ 013   ----------------------------------------
_00___Random_Dungeon_Theme_3_4_13:
        .byte           N12   , An3 , v127
        .byte   W12
        .byte           N06   , An3 , v064
        .byte   W06
        .byte                   Dn4 , v127
        .byte   W06
        .byte                   Fs4
        .byte   W06
        .byte                   Fs4 , v064
        .byte   W06
        .byte           N12   , Gn4 , v127
        .byte   W12
        .byte                   Gn4 , v064
        .byte   W12
        .byte                   Gn4 , v127
        .byte   W12
        .byte                   Gn4 , v064
        .byte   W12
        .byte           N06   , Gn4 , v127
        .byte   W06
        .byte                   Gn4 , v064
        .byte   W06
        .byte   PEND
@ 014   ----------------------------------------
_00___Random_Dungeon_Theme_3_4_14:
        .byte           N12   , Fs4 , v127
        .byte   W12
        .byte           N06   , Fs4 , v064
        .byte   W06
        .byte                   Dn4 , v127
        .byte   W06
        .byte                   An3
        .byte   W06
        .byte                   An3 , v064
        .byte   W06
        .byte           N48   , Cn4 , v127
        .byte   W48
        .byte           N12   , Cn4 , v064
        .byte   W12
        .byte   PEND
@ 015   ----------------------------------------
        .byte   PATT
         .word  _00___Random_Dungeon_Theme_3_4_13
@ 016   ----------------------------------------
_00___Random_Dungeon_Theme_3_4_16:
        .byte           N12   , Fs4 , v127
        .byte   W12
        .byte           N06   , Fs4 , v064
        .byte   W06
        .byte                   Dn4 , v127
        .byte   W06
        .byte                   An3
        .byte   W06
        .byte                   An3 , v064
        .byte   W06
        .byte           N48   , Gn3 , v127
        .byte   W48
        .byte           N12   , Gn3 , v064
        .byte   W12
        .byte   PEND
@ 017   ----------------------------------------
        .byte   PATT
         .word  _00___Random_Dungeon_Theme_3_4_13
@ 018   ----------------------------------------
_00___Random_Dungeon_Theme_3_4_18:
        .byte           N12   , Fs4 , v127
        .byte   W12
        .byte           N06   , Fs4 , v064
        .byte   W06
        .byte                   Dn4 , v127
        .byte   W06
        .byte                   An3
        .byte   W06
        .byte                   An3 , v064
        .byte   W06
        .byte           N12   , Cn4 , v127
        .byte   W12
        .byte                   Cn4 , v064
        .byte   W12
        .byte           N24   , Cn4 , v127
        .byte   W24
        .byte           N12   , Dn4
        .byte   W12
        .byte   PEND
@ 019   ----------------------------------------
_00___Random_Dungeon_Theme_3_4_19:
        .byte           N12   , Bn3 , v127
        .byte   W12
        .byte           N06   , Bn3 , v064
        .byte   W06
        .byte                   An3 , v127
        .byte   W06
        .byte                   Gn3
        .byte   W06
        .byte                   Gn3 , v064
        .byte   W06
        .byte           TIE   , An3 , v127
        .byte   W60
        .byte   PEND
@ 020   ----------------------------------------
_00___Random_Dungeon_Theme_3_4_20:
        .byte   W48
        .byte           EOT   , An3
        .byte           N12   , An3 , v064
        .byte   W12
        .byte           N18   , Dn4 , v127
        .byte   W18
        .byte           N06   , Dn4 , v064
        .byte   W06
        .byte                   Dn4 , v127
        .byte   W06
        .byte                   Dn4 , v064
        .byte   W06
        .byte   PEND
@ 021   ----------------------------------------
_00___Random_Dungeon_Theme_3_4_21:
        .byte           N12   , Gn4 , v080
        .byte           N12   , Bn4 , v127
        .byte   W12
        .byte           N06   , Gn4 , v064
        .byte           N06   , Bn4
        .byte   W06
        .byte                   Fs4 , v080
        .byte           N06   , An4 , v127
        .byte   W06
        .byte                   En4 , v080
        .byte           N06   , Gn4 , v127
        .byte   W06
        .byte                   En4 , v064
        .byte           N06   , Gn4
        .byte   W06
        .byte           N18   , Fs4 , v080
        .byte           N18   , An4 , v127
        .byte   W18
        .byte           N06   , Fs4 , v064
        .byte           N06   , An4
        .byte   W06
        .byte                   An3 , v080
        .byte           N06   , Dn4 , v127
        .byte   W06
        .byte                   An3 , v064
        .byte           N06   , Dn4
        .byte   W06
        .byte           N96   , Cs4 , v080
        .byte           N96   , En4 , v127
        .byte   W24
        .byte   PEND
@ 022   ----------------------------------------
_00___Random_Dungeon_Theme_3_4_22:
        .byte           VOL   , 98
        .byte   W09
        .byte                   97
        .byte   W03
        .byte                   96
        .byte   W03
        .byte                   95
        .byte   W03
        .byte                   94
        .byte   W06
        .byte                   93
        .byte   W03
        .byte                   92
        .byte   W03
        .byte                   90
        .byte   W03
        .byte                   88
        .byte   W03
        .byte                   86
        .byte   W03
        .byte                   84
        .byte   W03
        .byte                   81
        .byte   W03
        .byte                   79
        .byte   W03
        .byte                   77
        .byte   W03
        .byte                   75
        .byte   W03
        .byte                   72
        .byte   W03
        .byte                   68
        .byte   W03
        .byte                   65
        .byte   W03
        .byte                   62
        .byte   W03
        .byte                   59
        .byte   W03
        .byte                   55
        .byte   W03
        .byte                   51
        .byte   W24
        .byte   PEND
@ 023   ----------------------------------------
        .byte   W96
@ 024   ----------------------------------------
        .byte   W96
@ 025   ----------------------------------------
        .byte   W96
@ 026   ----------------------------------------
        .byte   W96
@ 027   ----------------------------------------
        .byte   W96
@ 028   ----------------------------------------
        .byte   W96
@ 029   ----------------------------------------
        .byte   W96
@ 030   ----------------------------------------
_00___Random_Dungeon_Theme_3_4_30:
        .byte   W48
        .byte           VOL   , 99
        .byte   W24
        .byte           N12   , Cn3 , v127
        .byte   W12
        .byte           N06   , Cn3 , v064
        .byte   W06
        .byte                   Cn3 , v127
        .byte   W06
        .byte   PEND
@ 031   ----------------------------------------
_00___Random_Dungeon_Theme_3_4_31:
        .byte           N06   , En3 , v127
        .byte   W06
        .byte                   En3 , v064
        .byte   W18
        .byte           N30   , En3 , v127
        .byte   W30
        .byte           N06   , En3 , v064
        .byte   W06
        .byte                   Gn3 , v127
        .byte   W06
        .byte                   Gn3 , v064
        .byte   W06
        .byte           N12   , Fs3 , v127
        .byte   W12
        .byte           N06   , Fs3 , v064
        .byte   W06
        .byte                   Gn3 , v127
        .byte   W06
        .byte   PEND
@ 032   ----------------------------------------
_00___Random_Dungeon_Theme_3_4_32:
        .byte           N06   , Fs3 , v127
        .byte   W06
        .byte                   Fs3 , v064
        .byte   W18
        .byte           N42   , En3 , v127
        .byte   W42
        .byte           N06   , En3 , v064
        .byte   W06
        .byte           N24   , Dn3 , v127
        .byte   W24
        .byte   PEND
@ 033   ----------------------------------------
_00___Random_Dungeon_Theme_3_4_33:
        .byte           N06   , Cn3 , v127
        .byte   W06
        .byte                   Cn3 , v064
        .byte   W12
        .byte                   As2 , v127
        .byte   W06
        .byte           N48
        .byte   W48
        .byte           N12   , As2 , v064
        .byte   W12
        .byte           N06   , Fn3 , v127
        .byte   W06
        .byte                   As3
        .byte   W06
        .byte   PEND
@ 034   ----------------------------------------
_00___Random_Dungeon_Theme_3_4_34:
        .byte           N60   , Dn4 , v127
        .byte   W60
        .byte           N12   , Dn4 , v064
        .byte   W12
        .byte           N24   , Fn3 , v127
        .byte   W24
        .byte   PEND
@ 035   ----------------------------------------
_00___Random_Dungeon_Theme_3_4_35:
        .byte           N06   , As3 , v127
        .byte   W06
        .byte           N12   , As3 , v064
        .byte   W12
        .byte           N06   , As3 , v127
        .byte   W06
        .byte           N24
        .byte   W24
        .byte           N12   , As3 , v064
        .byte   W12
        .byte           N06   , Ds4 , v127
        .byte   W06
        .byte                   Ds4 , v064
        .byte   W06
        .byte           N12   , Dn4 , v127
        .byte   W12
        .byte           N06   , Dn4 , v064
        .byte   W06
        .byte                   Ds4 , v127
        .byte   W06
        .byte   PEND
@ 036   ----------------------------------------
_00___Random_Dungeon_Theme_3_4_36:
        .byte           N18   , Dn4 , v127
        .byte   W18
        .byte           N06   , Dn4 , v064
        .byte   W06
        .byte           N18   , Cn4 , v127
        .byte   W18
        .byte           N06   , Cn4 , v064
        .byte   W06
        .byte           N18   , As3 , v127
        .byte   W18
        .byte           N06   , As3 , v064
        .byte   W06
        .byte           N18   , An3 , v127
        .byte   W18
        .byte           N06   , An3 , v064
        .byte   W06
        .byte   PEND
@ 037   ----------------------------------------
_00___Random_Dungeon_Theme_3_4_37:
        .byte           N06   , Fn3 , v080
        .byte           N06   , As3 , v127
        .byte   W06
        .byte           N12   , Fn3 , v064
        .byte           N12   , As3
        .byte   W18
        .byte           N60   , Fn3 , v080
        .byte           N60   , As3 , v127
        .byte   W60
        .byte           N12   , Fn3 , v064
        .byte           N12   , As3
        .byte   W12
        .byte   PEND
@ 038   ----------------------------------------
_00___Random_Dungeon_Theme_3_4_38:
        .byte           N06   , Fn4 , v080
        .byte           N06   , As4 , v127
        .byte   W06
        .byte           N12   , Fn4 , v064
        .byte           N12   , As4
        .byte   W18
        .byte           N60   , Fn4 , v080
        .byte           N60   , As4 , v127
        .byte   W60
        .byte           N12   , Fn4 , v064
        .byte           N12   , As4
        .byte   W12
        .byte   PEND
@ 039   ----------------------------------------
        .byte   W96
@ 040   ----------------------------------------
        .byte   W96
@ 041   ----------------------------------------
        .byte   W96
@ 042   ----------------------------------------
        .byte   W96
@ 043   ----------------------------------------
        .byte   W96
@ 044   ----------------------------------------
        .byte   W96
@ 045   ----------------------------------------
        .byte   W96
@ 046   ----------------------------------------
        .byte   W96
@ 047   ----------------------------------------
        .byte   W96
@ 048   ----------------------------------------
        .byte   W96
@ 049   ----------------------------------------
        .byte   W96
@ 050   ----------------------------------------
        .byte   W96
@ 051   ----------------------------------------
        .byte   PATT
         .word  _00___Random_Dungeon_Theme_3_4_13
@ 052   ----------------------------------------
        .byte   PATT
         .word  _00___Random_Dungeon_Theme_3_4_14
@ 053   ----------------------------------------
        .byte   PATT
         .word  _00___Random_Dungeon_Theme_3_4_13
@ 054   ----------------------------------------
        .byte   PATT
         .word  _00___Random_Dungeon_Theme_3_4_16
@ 055   ----------------------------------------
        .byte   PATT
         .word  _00___Random_Dungeon_Theme_3_4_13
@ 056   ----------------------------------------
        .byte   PATT
         .word  _00___Random_Dungeon_Theme_3_4_18
@ 057   ----------------------------------------
        .byte   PATT
         .word  _00___Random_Dungeon_Theme_3_4_19
@ 058   ----------------------------------------
        .byte   PATT
         .word  _00___Random_Dungeon_Theme_3_4_20
@ 059   ----------------------------------------
        .byte   PATT
         .word  _00___Random_Dungeon_Theme_3_4_21
@ 060   ----------------------------------------
        .byte   PATT
         .word  _00___Random_Dungeon_Theme_3_4_22
@ 061   ----------------------------------------
        .byte   W96
@ 062   ----------------------------------------
        .byte   W96
@ 063   ----------------------------------------
        .byte   W96
@ 064   ----------------------------------------
        .byte   W96
@ 065   ----------------------------------------
        .byte   W96
@ 066   ----------------------------------------
        .byte   W96
@ 067   ----------------------------------------
        .byte   W96
@ 068   ----------------------------------------
        .byte   PATT
         .word  _00___Random_Dungeon_Theme_3_4_30
@ 069   ----------------------------------------
        .byte   PATT
         .word  _00___Random_Dungeon_Theme_3_4_31
@ 070   ----------------------------------------
        .byte   PATT
         .word  _00___Random_Dungeon_Theme_3_4_32
@ 071   ----------------------------------------
        .byte   PATT
         .word  _00___Random_Dungeon_Theme_3_4_33
@ 072   ----------------------------------------
        .byte   PATT
         .word  _00___Random_Dungeon_Theme_3_4_34
@ 073   ----------------------------------------
        .byte   PATT
         .word  _00___Random_Dungeon_Theme_3_4_35
@ 074   ----------------------------------------
        .byte   PATT
         .word  _00___Random_Dungeon_Theme_3_4_36
@ 075   ----------------------------------------
        .byte   PATT
         .word  _00___Random_Dungeon_Theme_3_4_37
@ 076   ----------------------------------------
        .byte   PATT
         .word  _00___Random_Dungeon_Theme_3_4_38
@ 077   ----------------------------------------
        .byte   W96
@ 078   ----------------------------------------
        .byte   W96
@ 079   ----------------------------------------
        .byte   W96
@ 080   ----------------------------------------
        .byte   W96
@ 081   ----------------------------------------
        .byte   FINE

@****************** Track 5 (Midi-Chn.5) ******************@

_00___Random_Dungeon_Theme_3_5:
        .byte   KEYSH , _00___Random_Dungeon_Theme_3_key+0
@ 000   ----------------------------------------
        .byte   W24
@ 001   ----------------------------------------
        .byte           PAN   , c_v-64
        .byte           VOL   , 50
        .byte           VOICE , 61
        .byte   W96
@ 002   ----------------------------------------
        .byte   W96
@ 003   ----------------------------------------
        .byte   W96
@ 004   ----------------------------------------
        .byte   W96
@ 005   ----------------------------------------
        .byte   W96
@ 006   ----------------------------------------
        .byte   W96
@ 007   ----------------------------------------
        .byte   W96
@ 008   ----------------------------------------
        .byte   W96
@ 009   ----------------------------------------
        .byte   W96
@ 010   ----------------------------------------
        .byte   W96
@ 011   ----------------------------------------
        .byte   W96
@ 012   ----------------------------------------
        .byte   W96
@ 013   ----------------------------------------
_00___Random_Dungeon_Theme_3_5_13:
        .byte   W12
        .byte           N12   , An3 , v127
        .byte   W12
        .byte           N06   , An3 , v064
        .byte   W06
        .byte                   Dn4 , v127
        .byte   W06
        .byte                   Fs4
        .byte   W06
        .byte                   Fs4 , v064
        .byte   W06
        .byte           N12   , Gn4 , v127
        .byte   W12
        .byte                   Gn4 , v064
        .byte   W12
        .byte                   Gn4 , v127
        .byte   W12
        .byte                   Gn4 , v064
        .byte   W12
        .byte   PEND
@ 014   ----------------------------------------
_00___Random_Dungeon_Theme_3_5_14:
        .byte           N06   , Gn4 , v127
        .byte   W06
        .byte                   Gn4 , v064
        .byte   W06
        .byte           N12   , Fs4 , v127
        .byte   W12
        .byte           N06   , Fs4 , v064
        .byte   W06
        .byte                   Dn4 , v127
        .byte   W06
        .byte                   An3
        .byte   W06
        .byte                   An3 , v064
        .byte   W06
        .byte           N48   , Cn4 , v127
        .byte   W48
        .byte   PEND
@ 015   ----------------------------------------
_00___Random_Dungeon_Theme_3_5_15:
        .byte           N12   , Cn4 , v064
        .byte   W12
        .byte                   An3 , v127
        .byte   W12
        .byte           N06   , An3 , v064
        .byte   W06
        .byte                   Dn4 , v127
        .byte   W06
        .byte                   Fs4
        .byte   W06
        .byte                   Fs4 , v064
        .byte   W06
        .byte           N12   , Gn4 , v127
        .byte   W12
        .byte                   Gn4 , v064
        .byte   W12
        .byte                   Gn4 , v127
        .byte   W12
        .byte                   Gn4 , v064
        .byte   W12
        .byte   PEND
@ 016   ----------------------------------------
_00___Random_Dungeon_Theme_3_5_16:
        .byte           N06   , Gn4 , v127
        .byte   W06
        .byte                   Gn4 , v064
        .byte   W06
        .byte           N12   , Fs4 , v127
        .byte   W12
        .byte           N06   , Fs4 , v064
        .byte   W06
        .byte                   Dn4 , v127
        .byte   W06
        .byte                   An3
        .byte   W06
        .byte                   An3 , v064
        .byte   W06
        .byte           N48   , Gn3 , v127
        .byte   W48
        .byte   PEND
@ 017   ----------------------------------------
_00___Random_Dungeon_Theme_3_5_17:
        .byte           N12   , Gn3 , v064
        .byte   W12
        .byte                   An3 , v127
        .byte   W12
        .byte           N06   , An3 , v064
        .byte   W06
        .byte                   Dn4 , v127
        .byte   W06
        .byte                   Fs4
        .byte   W06
        .byte                   Fs4 , v064
        .byte   W06
        .byte           N12   , Gn4 , v127
        .byte   W12
        .byte                   Gn4 , v064
        .byte   W12
        .byte                   Gn4 , v127
        .byte   W12
        .byte                   Gn4 , v064
        .byte   W12
        .byte   PEND
@ 018   ----------------------------------------
_00___Random_Dungeon_Theme_3_5_18:
        .byte           N06   , Gn4 , v127
        .byte   W06
        .byte                   Gn4 , v064
        .byte   W06
        .byte           N12   , Fs4 , v127
        .byte   W12
        .byte           N06   , Fs4 , v064
        .byte   W06
        .byte                   Dn4 , v127
        .byte   W06
        .byte                   An3
        .byte   W06
        .byte                   An3 , v064
        .byte   W06
        .byte           N12   , Cn4 , v127
        .byte   W12
        .byte                   Cn4 , v064
        .byte   W12
        .byte           N24   , Cn4 , v127
        .byte   W24
        .byte   PEND
@ 019   ----------------------------------------
_00___Random_Dungeon_Theme_3_5_19:
        .byte           N12   , Dn4 , v127
        .byte   W12
        .byte                   Bn3
        .byte   W12
        .byte           N06   , Bn3 , v064
        .byte   W06
        .byte                   An3 , v127
        .byte   W06
        .byte                   Gn3
        .byte   W06
        .byte                   Gn3 , v064
        .byte   W06
        .byte           TIE   , An3 , v127
        .byte   W48
        .byte   PEND
@ 020   ----------------------------------------
_00___Random_Dungeon_Theme_3_5_20:
        .byte   W60
        .byte           EOT   , An3
        .byte           N12   , An3 , v064
        .byte   W12
        .byte           N18   , Dn4 , v127
        .byte   W18
        .byte           N06   , Dn4 , v064
        .byte   W06
        .byte   PEND
@ 021   ----------------------------------------
_00___Random_Dungeon_Theme_3_5_21:
        .byte           N06   , Dn4 , v127
        .byte   W06
        .byte                   Dn4 , v064
        .byte   W06
        .byte           N12   , Bn4 , v127
        .byte   W12
        .byte           N06   , Bn4 , v064
        .byte   W06
        .byte                   An4 , v127
        .byte   W06
        .byte                   Gn4
        .byte   W06
        .byte                   Gn4 , v064
        .byte   W06
        .byte           N18   , An4 , v127
        .byte   W18
        .byte           N06   , An4 , v064
        .byte   W06
        .byte                   Dn4 , v127
        .byte   W06
        .byte                   Dn4 , v064
        .byte   W06
        .byte           N96   , En4 , v127
        .byte   W12
        .byte   PEND
@ 022   ----------------------------------------
_00___Random_Dungeon_Theme_3_5_22:
        .byte   W12
        .byte           VOL   , 49
        .byte   W12
        .byte                   48
        .byte   W06
        .byte                   47
        .byte   W06
        .byte                   46
        .byte   W06
        .byte                   45
        .byte   W03
        .byte                   44
        .byte   W03
        .byte                   43
        .byte   W03
        .byte                   42
        .byte   W03
        .byte                   41
        .byte   W03
        .byte                   40
        .byte   W03
        .byte                   38
        .byte   W03
        .byte                   37
        .byte   W03
        .byte                   36
        .byte   W03
        .byte                   34
        .byte   W03
        .byte                   33
        .byte   W03
        .byte                   31
        .byte   W03
        .byte                   29
        .byte   W03
        .byte                   27
        .byte   W03
        .byte                   26
        .byte   W12
        .byte   PEND
@ 023   ----------------------------------------
        .byte   W96
@ 024   ----------------------------------------
        .byte   W96
@ 025   ----------------------------------------
        .byte   W96
@ 026   ----------------------------------------
        .byte   W96
@ 027   ----------------------------------------
        .byte   W96
@ 028   ----------------------------------------
        .byte   W96
@ 029   ----------------------------------------
        .byte   W96
@ 030   ----------------------------------------
_00___Random_Dungeon_Theme_3_5_30:
        .byte   W60
        .byte           VOL   , 50
        .byte   W24
        .byte           N12   , Cn3 , v127
        .byte   W12
        .byte   PEND
@ 031   ----------------------------------------
_00___Random_Dungeon_Theme_3_5_31:
        .byte           N06   , Cn3 , v064
        .byte   W06
        .byte                   Cn3 , v127
        .byte   W06
        .byte                   En3
        .byte   W06
        .byte                   En3 , v064
        .byte   W18
        .byte           N30   , En3 , v127
        .byte   W30
        .byte           N06   , En3 , v064
        .byte   W06
        .byte                   Gn3 , v127
        .byte   W06
        .byte                   Gn3 , v064
        .byte   W06
        .byte           N12   , Fs3 , v127
        .byte   W12
        .byte   PEND
@ 032   ----------------------------------------
_00___Random_Dungeon_Theme_3_5_32:
        .byte           N06   , Fs3 , v064
        .byte   W06
        .byte                   Gn3 , v127
        .byte   W06
        .byte                   Fs3
        .byte   W06
        .byte                   Fs3 , v064
        .byte   W18
        .byte           N42   , En3 , v127
        .byte   W42
        .byte           N06   , En3 , v064
        .byte   W06
        .byte           N24   , Dn3 , v127
        .byte   W12
        .byte   PEND
@ 033   ----------------------------------------
_00___Random_Dungeon_Theme_3_5_33:
        .byte   W12
        .byte           N06   , Cn3 , v127
        .byte   W06
        .byte                   Cn3 , v064
        .byte   W12
        .byte                   As2 , v127
        .byte   W06
        .byte           N48
        .byte   W48
        .byte           N12   , As2 , v064
        .byte   W12
        .byte   PEND
@ 034   ----------------------------------------
_00___Random_Dungeon_Theme_3_5_34:
        .byte           N06   , Fn3 , v127
        .byte   W06
        .byte                   As3
        .byte   W06
        .byte           N60   , Dn4
        .byte   W60
        .byte           N12   , Dn4 , v064
        .byte   W12
        .byte           N24   , Fn3 , v127
        .byte   W12
        .byte   PEND
@ 035   ----------------------------------------
_00___Random_Dungeon_Theme_3_5_35:
        .byte   W12
        .byte           N06   , As3 , v127
        .byte   W06
        .byte           N12   , As3 , v064
        .byte   W12
        .byte           N06   , As3 , v127
        .byte   W06
        .byte           N24
        .byte   W24
        .byte           N12   , As3 , v064
        .byte   W12
        .byte           N06   , Ds4 , v127
        .byte   W06
        .byte                   Ds4 , v064
        .byte   W06
        .byte           N12   , Dn4 , v127
        .byte   W12
        .byte   PEND
@ 036   ----------------------------------------
_00___Random_Dungeon_Theme_3_5_36:
        .byte           N06   , Dn4 , v064
        .byte   W06
        .byte                   Ds4 , v127
        .byte   W06
        .byte           N18   , Dn4
        .byte   W18
        .byte           N06   , Dn4 , v064
        .byte   W06
        .byte           N18   , Cn4 , v127
        .byte   W18
        .byte           N06   , Cn4 , v064
        .byte   W06
        .byte           N18   , As3 , v127
        .byte   W18
        .byte           N06   , As3 , v064
        .byte   W06
        .byte           N18   , An3 , v127
        .byte   W12
        .byte   PEND
@ 037   ----------------------------------------
_00___Random_Dungeon_Theme_3_5_37:
        .byte   W06
        .byte           N06   , An3 , v064
        .byte   W06
        .byte                   Fn3 , v080
        .byte           N06   , As3 , v127
        .byte   W06
        .byte           N12   , Fn3 , v064
        .byte           N12   , As3
        .byte   W18
        .byte           N60   , Fn3 , v080
        .byte           N60   , As3 , v127
        .byte   W60
        .byte   PEND
@ 038   ----------------------------------------
_00___Random_Dungeon_Theme_3_5_38:
        .byte           N12   , Fn3 , v064
        .byte           N12   , As3
        .byte   W12
        .byte           N06   , Fn4 , v080
        .byte           N06   , As4 , v127
        .byte   W06
        .byte           N12   , Fn4 , v064
        .byte           N12   , As4
        .byte   W18
        .byte           N60   , Fn4 , v080
        .byte           N60   , As4 , v127
        .byte   W60
        .byte   PEND
@ 039   ----------------------------------------
_00___Random_Dungeon_Theme_3_5_39:
        .byte           N12   , Fn4 , v064
        .byte           N12   , As4
        .byte   W96
        .byte   PEND
@ 040   ----------------------------------------
        .byte   W96
@ 041   ----------------------------------------
        .byte   W96
@ 042   ----------------------------------------
        .byte   W96
@ 043   ----------------------------------------
        .byte   W96
@ 044   ----------------------------------------
        .byte   W96
@ 045   ----------------------------------------
        .byte   W96
@ 046   ----------------------------------------
        .byte   W96
@ 047   ----------------------------------------
        .byte   W96
@ 048   ----------------------------------------
        .byte   W96
@ 049   ----------------------------------------
        .byte   W96
@ 050   ----------------------------------------
        .byte   W96
@ 051   ----------------------------------------
        .byte   PATT
         .word  _00___Random_Dungeon_Theme_3_5_13
@ 052   ----------------------------------------
        .byte   PATT
         .word  _00___Random_Dungeon_Theme_3_5_14
@ 053   ----------------------------------------
        .byte   PATT
         .word  _00___Random_Dungeon_Theme_3_5_15
@ 054   ----------------------------------------
        .byte   PATT
         .word  _00___Random_Dungeon_Theme_3_5_16
@ 055   ----------------------------------------
        .byte   PATT
         .word  _00___Random_Dungeon_Theme_3_5_17
@ 056   ----------------------------------------
        .byte   PATT
         .word  _00___Random_Dungeon_Theme_3_5_18
@ 057   ----------------------------------------
        .byte   PATT
         .word  _00___Random_Dungeon_Theme_3_5_19
@ 058   ----------------------------------------
        .byte   PATT
         .word  _00___Random_Dungeon_Theme_3_5_20
@ 059   ----------------------------------------
        .byte   PATT
         .word  _00___Random_Dungeon_Theme_3_5_21
@ 060   ----------------------------------------
        .byte   PATT
         .word  _00___Random_Dungeon_Theme_3_5_22
@ 061   ----------------------------------------
        .byte   W96
@ 062   ----------------------------------------
        .byte   W96
@ 063   ----------------------------------------
        .byte   W96
@ 064   ----------------------------------------
        .byte   W96
@ 065   ----------------------------------------
        .byte   W96
@ 066   ----------------------------------------
        .byte   W96
@ 067   ----------------------------------------
        .byte   W96
@ 068   ----------------------------------------
        .byte   PATT
         .word  _00___Random_Dungeon_Theme_3_5_30
@ 069   ----------------------------------------
        .byte   PATT
         .word  _00___Random_Dungeon_Theme_3_5_31
@ 070   ----------------------------------------
        .byte   PATT
         .word  _00___Random_Dungeon_Theme_3_5_32
@ 071   ----------------------------------------
        .byte   PATT
         .word  _00___Random_Dungeon_Theme_3_5_33
@ 072   ----------------------------------------
        .byte   PATT
         .word  _00___Random_Dungeon_Theme_3_5_34
@ 073   ----------------------------------------
        .byte   PATT
         .word  _00___Random_Dungeon_Theme_3_5_35
@ 074   ----------------------------------------
        .byte   PATT
         .word  _00___Random_Dungeon_Theme_3_5_36
@ 075   ----------------------------------------
        .byte   PATT
         .word  _00___Random_Dungeon_Theme_3_5_37
@ 076   ----------------------------------------
        .byte   PATT
         .word  _00___Random_Dungeon_Theme_3_5_38
@ 077   ----------------------------------------
        .byte   PATT
         .word  _00___Random_Dungeon_Theme_3_5_39
@ 078   ----------------------------------------
        .byte   W96
@ 079   ----------------------------------------
        .byte   W96
@ 080   ----------------------------------------
        .byte   W96
@ 081   ----------------------------------------
        .byte   FINE

@****************** Track 6 (Midi-Chn.6) ******************@

_00___Random_Dungeon_Theme_3_6:
        .byte   KEYSH , _00___Random_Dungeon_Theme_3_key+0
@ 000   ----------------------------------------
        .byte   W24
@ 001   ----------------------------------------
        .byte           PAN   , c_v+63
        .byte           VOL   , 41
        .byte           VOICE , 61
        .byte   W96
@ 002   ----------------------------------------
        .byte   W96
@ 003   ----------------------------------------
        .byte   W96
@ 004   ----------------------------------------
        .byte   W96
@ 005   ----------------------------------------
        .byte   W96
@ 006   ----------------------------------------
        .byte   W96
@ 007   ----------------------------------------
        .byte   W96
@ 008   ----------------------------------------
        .byte   W96
@ 009   ----------------------------------------
        .byte   W96
@ 010   ----------------------------------------
        .byte   W96
@ 011   ----------------------------------------
        .byte   W96
@ 012   ----------------------------------------
        .byte   W96
@ 013   ----------------------------------------
_00___Random_Dungeon_Theme_3_6_13:
        .byte   W24
        .byte           N12   , An3 , v127
        .byte   W12
        .byte           N06   , An3 , v064
        .byte   W06
        .byte                   Dn4 , v127
        .byte   W06
        .byte                   Fs4
        .byte   W06
        .byte                   Fs4 , v064
        .byte   W06
        .byte           N12   , Gn4 , v127
        .byte   W12
        .byte                   Gn4 , v064
        .byte   W12
        .byte                   Gn4 , v127
        .byte   W12
        .byte   PEND
@ 014   ----------------------------------------
_00___Random_Dungeon_Theme_3_6_14:
        .byte           N12   , Gn4 , v064
        .byte   W12
        .byte           N06   , Gn4 , v127
        .byte   W06
        .byte                   Gn4 , v064
        .byte   W06
        .byte           N12   , Fs4 , v127
        .byte   W12
        .byte           N06   , Fs4 , v064
        .byte   W06
        .byte                   Dn4 , v127
        .byte   W06
        .byte                   An3
        .byte   W06
        .byte                   An3 , v064
        .byte   W06
        .byte           N48   , Cn4 , v127
        .byte   W36
        .byte   PEND
@ 015   ----------------------------------------
_00___Random_Dungeon_Theme_3_6_15:
        .byte   W12
        .byte           N12   , Cn4 , v064
        .byte   W12
        .byte                   An3 , v127
        .byte   W12
        .byte           N06   , An3 , v064
        .byte   W06
        .byte                   Dn4 , v127
        .byte   W06
        .byte                   Fs4
        .byte   W06
        .byte                   Fs4 , v064
        .byte   W06
        .byte           N12   , Gn4 , v127
        .byte   W12
        .byte                   Gn4 , v064
        .byte   W12
        .byte                   Gn4 , v127
        .byte   W12
        .byte   PEND
@ 016   ----------------------------------------
_00___Random_Dungeon_Theme_3_6_16:
        .byte           N12   , Gn4 , v064
        .byte   W12
        .byte           N06   , Gn4 , v127
        .byte   W06
        .byte                   Gn4 , v064
        .byte   W06
        .byte           N12   , Fs4 , v127
        .byte   W12
        .byte           N06   , Fs4 , v064
        .byte   W06
        .byte                   Dn4 , v127
        .byte   W06
        .byte                   An3
        .byte   W06
        .byte                   An3 , v064
        .byte   W06
        .byte           N48   , Gn3 , v127
        .byte   W36
        .byte   PEND
@ 017   ----------------------------------------
_00___Random_Dungeon_Theme_3_6_17:
        .byte   W12
        .byte           N12   , Gn3 , v064
        .byte   W12
        .byte                   An3 , v127
        .byte   W12
        .byte           N06   , An3 , v064
        .byte   W06
        .byte                   Dn4 , v127
        .byte   W06
        .byte                   Fs4
        .byte   W06
        .byte                   Fs4 , v064
        .byte   W06
        .byte           N12   , Gn4 , v127
        .byte   W12
        .byte                   Gn4 , v064
        .byte   W12
        .byte                   Gn4 , v127
        .byte   W12
        .byte   PEND
@ 018   ----------------------------------------
_00___Random_Dungeon_Theme_3_6_18:
        .byte           N12   , Gn4 , v064
        .byte   W12
        .byte           N06   , Gn4 , v127
        .byte   W06
        .byte                   Gn4 , v064
        .byte   W06
        .byte           N12   , Fs4 , v127
        .byte   W12
        .byte           N06   , Fs4 , v064
        .byte   W06
        .byte                   Dn4 , v127
        .byte   W06
        .byte                   An3
        .byte   W06
        .byte                   An3 , v064
        .byte   W06
        .byte           N12   , Cn4 , v127
        .byte   W12
        .byte                   Cn4 , v064
        .byte   W12
        .byte           N24   , Cn4 , v127
        .byte   W12
        .byte   PEND
@ 019   ----------------------------------------
_00___Random_Dungeon_Theme_3_6_19:
        .byte   W12
        .byte           N12   , Dn4 , v127
        .byte   W12
        .byte                   Bn3
        .byte   W12
        .byte           N06   , Bn3 , v064
        .byte   W06
        .byte                   An3 , v127
        .byte   W06
        .byte                   Gn3
        .byte   W06
        .byte                   Gn3 , v064
        .byte   W06
        .byte           TIE   , An3 , v127
        .byte   W36
        .byte   PEND
@ 020   ----------------------------------------
_00___Random_Dungeon_Theme_3_6_20:
        .byte   W72
        .byte           EOT   , An3
        .byte           N12   , An3 , v064
        .byte   W12
        .byte           N18   , Dn4 , v127
        .byte   W12
        .byte   PEND
@ 021   ----------------------------------------
_00___Random_Dungeon_Theme_3_6_21:
        .byte   W06
        .byte           N06   , Dn4 , v064
        .byte   W06
        .byte                   Dn4 , v127
        .byte   W06
        .byte                   Dn4 , v064
        .byte   W06
        .byte           N12   , Bn4 , v127
        .byte   W12
        .byte           N06   , Bn4 , v064
        .byte   W06
        .byte                   An4 , v127
        .byte   W06
        .byte                   Gn4
        .byte   W06
        .byte                   Gn4 , v064
        .byte   W06
        .byte           N18   , An4 , v127
        .byte   W18
        .byte           N06   , An4 , v064
        .byte   W06
        .byte                   Dn4 , v127
        .byte   W06
        .byte                   Dn4 , v064
        .byte   W06
        .byte   PEND
@ 022   ----------------------------------------
_00___Random_Dungeon_Theme_3_6_22:
        .byte           N96   , En4 , v127
        .byte   W36
        .byte           VOL   , 40
        .byte   W06
        .byte                   39
        .byte   W09
        .byte                   38
        .byte   W03
        .byte                   37
        .byte   W06
        .byte                   36
        .byte   W03
        .byte                   35
        .byte   W03
        .byte                   34
        .byte   W03
        .byte                   33
        .byte   W03
        .byte                   32
        .byte   W03
        .byte                   31
        .byte   W03
        .byte                   30
        .byte   W03
        .byte                   28
        .byte   W03
        .byte                   27
        .byte   W03
        .byte                   26
        .byte   W03
        .byte                   24
        .byte   W03
        .byte                   23
        .byte   W03
        .byte   PEND
@ 023   ----------------------------------------
        .byte                   21
        .byte   W96
@ 024   ----------------------------------------
        .byte   W96
@ 025   ----------------------------------------
        .byte   W96
@ 026   ----------------------------------------
        .byte   W96
@ 027   ----------------------------------------
        .byte   W96
@ 028   ----------------------------------------
        .byte   W96
@ 029   ----------------------------------------
        .byte   W96
@ 030   ----------------------------------------
        .byte   W96
@ 031   ----------------------------------------
        .byte   W96
@ 032   ----------------------------------------
        .byte   W96
@ 033   ----------------------------------------
        .byte   W96
@ 034   ----------------------------------------
        .byte   W96
@ 035   ----------------------------------------
_00___Random_Dungeon_Theme_3_6_35:
        .byte           VOL   , 41
        .byte           N24   , Fn3 , v127
        .byte   W24
        .byte           N06   , As3
        .byte   W06
        .byte           N12   , As3 , v064
        .byte   W12
        .byte           N06   , As3 , v127
        .byte   W06
        .byte           N24
        .byte   W24
        .byte           N12   , As3 , v064
        .byte   W12
        .byte           N06   , Ds4 , v127
        .byte   W06
        .byte                   Ds4 , v064
        .byte   W06
        .byte   PEND
@ 036   ----------------------------------------
_00___Random_Dungeon_Theme_3_6_36:
        .byte           N12   , Dn4 , v127
        .byte   W12
        .byte           N06   , Dn4 , v064
        .byte   W06
        .byte                   Ds4 , v127
        .byte   W06
        .byte           N18   , Dn4
        .byte   W18
        .byte           N06   , Dn4 , v064
        .byte   W06
        .byte           N18   , Cn4 , v127
        .byte   W18
        .byte           N06   , Cn4 , v064
        .byte   W06
        .byte           N18   , As3 , v127
        .byte   W18
        .byte           N06   , As3 , v064
        .byte   W06
        .byte   PEND
@ 037   ----------------------------------------
_00___Random_Dungeon_Theme_3_6_37:
        .byte           N18   , An3 , v127
        .byte   W18
        .byte           N06   , An3 , v064
        .byte   W06
        .byte                   Fn3 , v080
        .byte           N06   , As3 , v127
        .byte   W06
        .byte           N12   , Fn3 , v064
        .byte           N12   , As3
        .byte   W18
        .byte           N60   , Fn3 , v080
        .byte           N60   , As3 , v127
        .byte   W48
        .byte   PEND
@ 038   ----------------------------------------
_00___Random_Dungeon_Theme_3_6_38:
        .byte   W12
        .byte           N12   , Fn3 , v064
        .byte           N12   , As3
        .byte   W12
        .byte           N06   , Fn4 , v080
        .byte           N06   , As4 , v127
        .byte   W06
        .byte           N12   , Fn4 , v064
        .byte           N12   , As4
        .byte   W18
        .byte           N60   , Fn4 , v080
        .byte           N60   , As4 , v127
        .byte   W48
        .byte   PEND
@ 039   ----------------------------------------
_00___Random_Dungeon_Theme_3_6_39:
        .byte   W12
        .byte           N12   , Fn4 , v064
        .byte           N12   , As4
        .byte   W84
        .byte   PEND
@ 040   ----------------------------------------
        .byte   W96
@ 041   ----------------------------------------
        .byte   W96
@ 042   ----------------------------------------
        .byte   W96
@ 043   ----------------------------------------
        .byte   W96
@ 044   ----------------------------------------
        .byte   W96
@ 045   ----------------------------------------
        .byte   W96
@ 046   ----------------------------------------
        .byte   W96
@ 047   ----------------------------------------
        .byte   W96
@ 048   ----------------------------------------
        .byte   W96
@ 049   ----------------------------------------
        .byte   W96
@ 050   ----------------------------------------
        .byte   W96
@ 051   ----------------------------------------
        .byte   PATT
         .word  _00___Random_Dungeon_Theme_3_6_13
@ 052   ----------------------------------------
        .byte   PATT
         .word  _00___Random_Dungeon_Theme_3_6_14
@ 053   ----------------------------------------
        .byte   PATT
         .word  _00___Random_Dungeon_Theme_3_6_15
@ 054   ----------------------------------------
        .byte   PATT
         .word  _00___Random_Dungeon_Theme_3_6_16
@ 055   ----------------------------------------
        .byte   PATT
         .word  _00___Random_Dungeon_Theme_3_6_17
@ 056   ----------------------------------------
        .byte   PATT
         .word  _00___Random_Dungeon_Theme_3_6_18
@ 057   ----------------------------------------
        .byte   PATT
         .word  _00___Random_Dungeon_Theme_3_6_19
@ 058   ----------------------------------------
        .byte   PATT
         .word  _00___Random_Dungeon_Theme_3_6_20
@ 059   ----------------------------------------
        .byte   PATT
         .word  _00___Random_Dungeon_Theme_3_6_21
@ 060   ----------------------------------------
        .byte   PATT
         .word  _00___Random_Dungeon_Theme_3_6_22
@ 061   ----------------------------------------
        .byte           VOL   , 21
        .byte   W96
@ 062   ----------------------------------------
        .byte   W96
@ 063   ----------------------------------------
        .byte   W96
@ 064   ----------------------------------------
        .byte   W96
@ 065   ----------------------------------------
        .byte   W96
@ 066   ----------------------------------------
        .byte   W96
@ 067   ----------------------------------------
        .byte   W96
@ 068   ----------------------------------------
        .byte   W96
@ 069   ----------------------------------------
        .byte   W96
@ 070   ----------------------------------------
        .byte   W96
@ 071   ----------------------------------------
        .byte   W96
@ 072   ----------------------------------------
        .byte   W96
@ 073   ----------------------------------------
        .byte   PATT
         .word  _00___Random_Dungeon_Theme_3_6_35
@ 074   ----------------------------------------
        .byte   PATT
         .word  _00___Random_Dungeon_Theme_3_6_36
@ 075   ----------------------------------------
        .byte   PATT
         .word  _00___Random_Dungeon_Theme_3_6_37
@ 076   ----------------------------------------
        .byte   PATT
         .word  _00___Random_Dungeon_Theme_3_6_38
@ 077   ----------------------------------------
        .byte   PATT
         .word  _00___Random_Dungeon_Theme_3_6_39
@ 078   ----------------------------------------
        .byte   W96
@ 079   ----------------------------------------
        .byte   W96
@ 080   ----------------------------------------
        .byte   W96
@ 081   ----------------------------------------
        .byte   FINE

@****************** Track 7 (Midi-Chn.7) ******************@

_00___Random_Dungeon_Theme_3_7:
        .byte   KEYSH , _00___Random_Dungeon_Theme_3_key+0
@ 000   ----------------------------------------
        .byte   W24
@ 001   ----------------------------------------
        .byte           PAN   , c_v-10
        .byte           VOL   , 95
        .byte           VOICE , 65
        .byte   W96
@ 002   ----------------------------------------
        .byte   W96
@ 003   ----------------------------------------
        .byte   W96
@ 004   ----------------------------------------
        .byte   W96
@ 005   ----------------------------------------
_00___Random_Dungeon_Theme_3_7_5:
        .byte           N12   , An2 , v127
        .byte   W18
        .byte           N06   , Dn3
        .byte   W06
        .byte                   Fs3
        .byte   W12
        .byte           N12   , Gn3
        .byte   W24
        .byte                   Gn3
        .byte   W24
        .byte           N06
        .byte   W12
        .byte   PEND
@ 006   ----------------------------------------
_00___Random_Dungeon_Theme_3_7_6:
        .byte           N12   , Fs3 , v127
        .byte   W18
        .byte           N06   , Dn3
        .byte   W06
        .byte                   An2
        .byte   W12
        .byte           N48   , Cn3
        .byte   W60
        .byte   PEND
@ 007   ----------------------------------------
        .byte   PATT
         .word  _00___Random_Dungeon_Theme_3_7_5
@ 008   ----------------------------------------
_00___Random_Dungeon_Theme_3_7_8:
        .byte           N12   , Fs3 , v127
        .byte   W18
        .byte           N06   , Dn3
        .byte   W06
        .byte                   An2
        .byte   W12
        .byte           N48   , Gn2
        .byte   W60
        .byte   PEND
@ 009   ----------------------------------------
        .byte   PATT
         .word  _00___Random_Dungeon_Theme_3_7_5
@ 010   ----------------------------------------
_00___Random_Dungeon_Theme_3_7_10:
        .byte           N12   , Fs3 , v127
        .byte   W18
        .byte           N06   , Dn3
        .byte   W06
        .byte                   An2
        .byte   W12
        .byte           N12   , Cn3
        .byte   W24
        .byte           N24
        .byte   W24
        .byte           N12   , Dn3
        .byte   W12
        .byte   PEND
@ 011   ----------------------------------------
_00___Random_Dungeon_Theme_3_7_11:
        .byte           N12   , Bn2 , v127
        .byte   W18
        .byte           N06   , An2
        .byte   W06
        .byte                   Gn2
        .byte   W12
        .byte           TIE   , An2
        .byte   W60
        .byte   PEND
@ 012   ----------------------------------------
        .byte   W48
        .byte           EOT
        .byte   W48
@ 013   ----------------------------------------
_00___Random_Dungeon_Theme_3_7_13:
        .byte           VOL   , 94
        .byte           N96   , An2 , v100
        .byte   W22
        .byte           VOL   , 93
        .byte   W02
        .byte                   92
        .byte   W01
        .byte                   91
        .byte   W05
        .byte                   89
        .byte   W01
        .byte                   88
        .byte   W02
        .byte                   87
        .byte   W01
        .byte                   86
        .byte   W03
        .byte                   85
        .byte   W02
        .byte                   84
        .byte   W01
        .byte                   83
        .byte   W02
        .byte                   82
        .byte   W01
        .byte                   81
        .byte   W03
        .byte                   80
        .byte   W02
        .byte                   79
        .byte   W01
        .byte                   78
        .byte   W02
        .byte                   77
        .byte   W03
        .byte                   76
        .byte   W01
        .byte                   75
        .byte   W02
        .byte                   73
        .byte   W04
        .byte                   72
        .byte   W02
        .byte                   71
        .byte   W01
        .byte                   70
        .byte   W02
        .byte                   69
        .byte   W03
        .byte                   68
        .byte   W01
        .byte                   67
        .byte   W02
        .byte                   66
        .byte   W01
        .byte                   65
        .byte   W02
        .byte                   64
        .byte   W01
        .byte                   63
        .byte   W02
        .byte                   62
        .byte   W03
        .byte                   61
        .byte   W01
        .byte                   60
        .byte   W03
        .byte                   59
        .byte   W02
        .byte                   58
        .byte   W01
        .byte                   57
        .byte   W02
        .byte                   56
        .byte   W01
        .byte                   55
        .byte   W02
        .byte                   54
        .byte   W01
        .byte                   53
        .byte   W02
        .byte   PEND
@ 014   ----------------------------------------
_00___Random_Dungeon_Theme_3_7_14:
        .byte   W24
        .byte           VOL   , 95
        .byte   W36
        .byte           N12   , Gn2 , v100
        .byte   W12
        .byte           N06   , Dn3
        .byte   W12
        .byte                   Gn3
        .byte   W12
        .byte   PEND
@ 015   ----------------------------------------
_00___Random_Dungeon_Theme_3_7_15:
        .byte           N96   , An3 , v100
        .byte   W32
        .byte   W01
        .byte           VOL   , 93
        .byte   W03
        .byte                   91
        .byte   W03
        .byte                   90
        .byte   W03
        .byte                   88
        .byte   W03
        .byte                   86
        .byte   W03
        .byte                   85
        .byte   W03
        .byte                   83
        .byte   W03
        .byte                   81
        .byte   W06
        .byte                   79
        .byte   W03
        .byte                   77
        .byte   W03
        .byte                   75
        .byte   W03
        .byte                   73
        .byte   W03
        .byte                   72
        .byte   W03
        .byte                   71
        .byte   W03
        .byte                   69
        .byte   W03
        .byte                   68
        .byte   W03
        .byte                   66
        .byte   W03
        .byte                   64
        .byte   W03
        .byte                   63
        .byte   W03
        .byte                   61
        .byte   W03
        .byte   PEND
@ 016   ----------------------------------------
_00___Random_Dungeon_Theme_3_7_16:
        .byte           VOL   , 60
        .byte   W21
        .byte                   95
        .byte   W36
        .byte   W03
        .byte           N06   , Gn3 , v100
        .byte   W12
        .byte           N12   , Fs3
        .byte   W18
        .byte           N06   , Dn3
        .byte   W06
        .byte   PEND
@ 017   ----------------------------------------
_00___Random_Dungeon_Theme_3_7_17:
        .byte           N96   , An2 , v100
        .byte   W24
        .byte   W03
        .byte           VOL   , 94
        .byte   W01
        .byte                   93
        .byte   W02
        .byte                   92
        .byte   W01
        .byte                   91
        .byte   W05
        .byte                   89
        .byte   W01
        .byte                   88
        .byte   W02
        .byte                   87
        .byte   W01
        .byte                   86
        .byte   W03
        .byte                   85
        .byte   W02
        .byte                   84
        .byte   W01
        .byte                   83
        .byte   W02
        .byte                   82
        .byte   W01
        .byte                   81
        .byte   W03
        .byte                   80
        .byte   W02
        .byte                   79
        .byte   W01
        .byte                   78
        .byte   W02
        .byte                   77
        .byte   W03
        .byte                   76
        .byte   W01
        .byte                   75
        .byte   W02
        .byte                   73
        .byte   W03
        .byte                   72
        .byte   W03
        .byte                   71
        .byte   W01
        .byte                   70
        .byte   W02
        .byte                   69
        .byte   W03
        .byte                   68
        .byte   W01
        .byte                   66
        .byte   W02
        .byte                   65
        .byte   W01
        .byte                   64
        .byte   W03
        .byte                   63
        .byte   W02
        .byte                   62
        .byte   W03
        .byte                   61
        .byte   W01
        .byte                   60
        .byte   W02
        .byte                   59
        .byte   W01
        .byte                   58
        .byte   W05
        .byte   PEND
@ 018   ----------------------------------------
_00___Random_Dungeon_Theme_3_7_18:
        .byte   W12
        .byte           VOL   , 95
        .byte   W12
        .byte           N12   , An2 , v100
        .byte   W18
        .byte           N06
        .byte   W06
        .byte                   Cn3
        .byte   W12
        .byte                   An2
        .byte   W12
        .byte                   Cn3
        .byte   W12
        .byte                   Dn3
        .byte   W12
        .byte   PEND
@ 019   ----------------------------------------
_00___Random_Dungeon_Theme_3_7_19:
        .byte           N24   , Dn3 , v100
        .byte           N24   , Gn3
        .byte   W36
        .byte           N36   , Dn3
        .byte           N36   , Fs3
        .byte   W60
        .byte   PEND
@ 020   ----------------------------------------
_00___Random_Dungeon_Theme_3_7_20:
        .byte           N24   , Dn3 , v100
        .byte           N24   , En3
        .byte   W36
        .byte           N36   , Dn3
        .byte           N36   , Fs3
        .byte   W60
        .byte   PEND
@ 021   ----------------------------------------
_00___Random_Dungeon_Theme_3_7_21:
        .byte           N24   , Dn3 , v100
        .byte           N24   , Gn3
        .byte   W36
        .byte                   Dn3
        .byte           N24   , Fs3
        .byte   W36
        .byte           N96   , Cs3
        .byte           N96   , En3
        .byte   W24
        .byte   PEND
@ 022   ----------------------------------------
        .byte   W96
@ 023   ----------------------------------------
        .byte   W96
@ 024   ----------------------------------------
        .byte   W96
@ 025   ----------------------------------------
_00___Random_Dungeon_Theme_3_7_25:
        .byte   W60
        .byte           VOL   , 93
        .byte           N12   , Fn3 , v100
        .byte   W12
        .byte                   En3
        .byte   W12
        .byte                   Fn3
        .byte   W12
        .byte   PEND
@ 026   ----------------------------------------
_00___Random_Dungeon_Theme_3_7_26:
        .byte           N24   , En3 , v100
        .byte   W24
        .byte           N36   , Dn3
        .byte   W36
        .byte           N12   , Cn3
        .byte   W12
        .byte                   Gn2
        .byte   W12
        .byte                   Cn3
        .byte   W12
        .byte   PEND
@ 027   ----------------------------------------
_00___Random_Dungeon_Theme_3_7_27:
        .byte           N96   , As2 , v100
        .byte   W24
        .byte   W03
        .byte           VOL   , 94
        .byte   W01
        .byte                   93
        .byte   W03
        .byte                   92
        .byte   W02
        .byte                   91
        .byte   W06
        .byte                   90
        .byte   W01
        .byte                   89
        .byte   W02
        .byte                   88
        .byte   W03
        .byte                   87
        .byte   W01
        .byte                   86
        .byte   W05
        .byte                   85
        .byte   W01
        .byte                   84
        .byte   W02
        .byte                   83
        .byte   W01
        .byte                   82
        .byte   W03
        .byte                   81
        .byte   W05
        .byte                   80
        .byte   W03
        .byte                   79
        .byte   W01
        .byte                   78
        .byte   W02
        .byte                   77
        .byte   W04
        .byte                   76
        .byte   W02
        .byte                   75
        .byte   W01
        .byte                   74
        .byte   W02
        .byte                   73
        .byte   W04
        .byte                   72
        .byte   W03
        .byte                   71
        .byte   W03
        .byte                   70
        .byte   W02
        .byte                   69
        .byte   W04
        .byte                   95
        .byte   W02
        .byte   PEND
@ 028   ----------------------------------------
_00___Random_Dungeon_Theme_3_7_28:
        .byte           VOL   , 94
        .byte           N48   , Cn3 , v100
        .byte   W01
        .byte           VOL   , 93
        .byte   W02
        .byte                   92
        .byte   W01
        .byte                   91
        .byte   W06
        .byte                   89
        .byte   W03
        .byte                   88
        .byte   W02
        .byte                   87
        .byte   W01
        .byte                   86
        .byte   W03
        .byte                   85
        .byte   W02
        .byte                   84
        .byte   W01
        .byte                   83
        .byte   W03
        .byte                   82
        .byte   W02
        .byte                   81
        .byte   W04
        .byte                   80
        .byte   W02
        .byte                   79
        .byte   W01
        .byte                   78
        .byte   W02
        .byte                   77
        .byte   W04
        .byte                   76
        .byte   W02
        .byte                   75
        .byte   W01
        .byte                   74
        .byte   W02
        .byte                   73
        .byte   W03
        .byte                   72
        .byte           N48   , As2
        .byte   W01
        .byte           VOL   , 95
        .byte   W02
        .byte                   93
        .byte   W01
        .byte                   92
        .byte   W02
        .byte                   91
        .byte   W04
        .byte                   90
        .byte   W02
        .byte                   89
        .byte   W01
        .byte                   87
        .byte   W02
        .byte                   86
        .byte   W03
        .byte                   85
        .byte   W01
        .byte                   84
        .byte   W02
        .byte                   83
        .byte   W01
        .byte                   82
        .byte   W02
        .byte                   81
        .byte   W03
        .byte                   80
        .byte   W01
        .byte                   79
        .byte   W02
        .byte                   78
        .byte   W01
        .byte                   77
        .byte   W02
        .byte                   76
        .byte   W01
        .byte                   75
        .byte   W02
        .byte                   74
        .byte   W01
        .byte                   73
        .byte   W03
        .byte                   72
        .byte   W02
        .byte                   71
        .byte   W01
        .byte                   70
        .byte   W05
        .byte   PEND
@ 029   ----------------------------------------
_00___Random_Dungeon_Theme_3_7_29:
        .byte           VOL   , 72
        .byte           N56   , Cs3 , v100 , gtp2
        .byte   W01
        .byte           VOL   , 95
        .byte   W02
        .byte                   93
        .byte   W01
        .byte                   92
        .byte   W02
        .byte                   91
        .byte   W04
        .byte                   90
        .byte   W02
        .byte                   89
        .byte   W01
        .byte                   87
        .byte   W02
        .byte                   86
        .byte   W03
        .byte                   85
        .byte   W01
        .byte                   84
        .byte   W02
        .byte                   83
        .byte   W01
        .byte                   82
        .byte   W02
        .byte                   81
        .byte   W03
        .byte                   80
        .byte   W01
        .byte                   79
        .byte   W02
        .byte                   78
        .byte   W01
        .byte                   77
        .byte   W02
        .byte                   76
        .byte   W01
        .byte                   75
        .byte   W02
        .byte                   74
        .byte   W01
        .byte                   73
        .byte   W03
        .byte                   72
        .byte   W02
        .byte                   71
        .byte   W01
        .byte                   70
        .byte   W17
        .byte                   82
        .byte           N12   , Gs3
        .byte   W03
        .byte           VOL   , 83
        .byte   W03
        .byte                   84
        .byte   W01
        .byte                   85
        .byte   W02
        .byte                   86
        .byte   W03
        .byte           N12   , Gn3
        .byte   W01
        .byte           VOL   , 87
        .byte   W02
        .byte                   88
        .byte   W03
        .byte                   89
        .byte   W03
        .byte                   90
        .byte   W01
        .byte                   91
        .byte   W02
        .byte           N12   , Gs3
        .byte   W04
        .byte           VOL   , 92
        .byte   W02
        .byte                   93
        .byte   W03
        .byte                   94
        .byte   W01
        .byte                   95
        .byte   W02
        .byte   PEND
@ 030   ----------------------------------------
_00___Random_Dungeon_Theme_3_7_30:
        .byte           N24   , Gn3 , v100
        .byte   W24
        .byte                   Fn3
        .byte   W24
        .byte                   As2
        .byte   W24
        .byte                   Fn3
        .byte   W24
        .byte   PEND
@ 031   ----------------------------------------
_00___Random_Dungeon_Theme_3_7_31:
        .byte           VOL   , 93
        .byte           N96   , En3 , v100
        .byte   W03
        .byte           VOL   , 92
        .byte   W01
        .byte                   91
        .byte   W06
        .byte                   90
        .byte   W02
        .byte                   89
        .byte   W01
        .byte                   88
        .byte   W02
        .byte                   87
        .byte   W03
        .byte                   86
        .byte   W03
        .byte                   85
        .byte   W01
        .byte                   84
        .byte   W02
        .byte                   83
        .byte   W03
        .byte                   82
        .byte   W01
        .byte                   81
        .byte   W05
        .byte                   80
        .byte   W03
        .byte                   79
        .byte   W01
        .byte                   78
        .byte   W02
        .byte                   77
        .byte   W04
        .byte                   76
        .byte   W02
        .byte                   75
        .byte   W01
        .byte                   74
        .byte   W02
        .byte                   73
        .byte   W04
        .byte                   72
        .byte   W03
        .byte                   71
        .byte   W02
        .byte                   70
        .byte   W01
        .byte                   69
        .byte   W05
        .byte                   68
        .byte   W01
        .byte                   67
        .byte   W02
        .byte                   66
        .byte   W01
        .byte                   65
        .byte   W03
        .byte                   64
        .byte   W03
        .byte                   63
        .byte   W03
        .byte                   62
        .byte   W03
        .byte                   61
        .byte   W02
        .byte                   60
        .byte   W04
        .byte                   59
        .byte   W02
        .byte                   58
        .byte   W01
        .byte                   57
        .byte   W02
        .byte                   56
        .byte   W04
        .byte                   55
        .byte   W02
        .byte   PEND
@ 032   ----------------------------------------
_00___Random_Dungeon_Theme_3_7_32:
        .byte           VOL   , 54
        .byte   W24
        .byte                   95
        .byte           N24   , Cn3 , v090
        .byte   W24
        .byte                   Dn3
        .byte   W24
        .byte                   En3
        .byte   W24
        .byte   PEND
@ 033   ----------------------------------------
_00___Random_Dungeon_Theme_3_7_33:
        .byte           N96   , Dn3 , v090
        .byte   W06
        .byte           VOL   , 94
        .byte   W01
        .byte                   93
        .byte   W02
        .byte                   92
        .byte   W01
        .byte                   91
        .byte   W04
        .byte                   90
        .byte   W02
        .byte                   89
        .byte   W01
        .byte                   88
        .byte   W02
        .byte                   87
        .byte   W01
        .byte                   86
        .byte   W03
        .byte                   85
        .byte   W01
        .byte                   84
        .byte   W02
        .byte                   83
        .byte   W01
        .byte                   82
        .byte   W02
        .byte                   81
        .byte   W04
        .byte                   80
        .byte   W01
        .byte                   79
        .byte   W02
        .byte                   78
        .byte   W02
        .byte                   77
        .byte   W02
        .byte                   76
        .byte   W02
        .byte                   75
        .byte   W01
        .byte                   74
        .byte   W02
        .byte                   73
        .byte   W02
        .byte                   72
        .byte   W03
        .byte                   71
        .byte   W02
        .byte                   70
        .byte   W01
        .byte                   69
        .byte   W03
        .byte                   68
        .byte   W01
        .byte                   67
        .byte   W02
        .byte                   66
        .byte   W01
        .byte                   65
        .byte   W01
        .byte                   64
        .byte   W03
        .byte                   63
        .byte   W02
        .byte                   62
        .byte   W03
        .byte                   61
        .byte   W01
        .byte                   60
        .byte   W03
        .byte                   59
        .byte   W02
        .byte                   58
        .byte   W01
        .byte                   57
        .byte   W01
        .byte                   56
        .byte   W03
        .byte                   55
        .byte   W02
        .byte                   54
        .byte   W01
        .byte                   53
        .byte   W03
        .byte                   52
        .byte   W03
        .byte                   51
        .byte   W01
        .byte                   50
        .byte   W02
        .byte                   49
        .byte   W01
        .byte                   48
        .byte   W01
        .byte                   47
        .byte   W02
        .byte   PEND
@ 034   ----------------------------------------
        .byte   W96
@ 035   ----------------------------------------
_00___Random_Dungeon_Theme_3_7_35:
        .byte           VOL   , 93
        .byte           N96   , As2 , v100
        .byte   W03
        .byte           VOL   , 92
        .byte   W01
        .byte                   91
        .byte   W06
        .byte                   90
        .byte   W02
        .byte                   89
        .byte   W01
        .byte                   88
        .byte   W02
        .byte                   87
        .byte   W03
        .byte                   86
        .byte   W03
        .byte                   85
        .byte   W01
        .byte                   84
        .byte   W02
        .byte                   83
        .byte   W03
        .byte                   82
        .byte   W01
        .byte                   81
        .byte   W05
        .byte                   80
        .byte   W03
        .byte                   79
        .byte   W01
        .byte                   78
        .byte   W02
        .byte                   77
        .byte   W04
        .byte                   76
        .byte   W02
        .byte                   75
        .byte   W01
        .byte                   74
        .byte   W02
        .byte                   73
        .byte   W04
        .byte                   72
        .byte   W03
        .byte                   71
        .byte   W02
        .byte                   70
        .byte   W01
        .byte                   69
        .byte   W05
        .byte                   68
        .byte   W01
        .byte                   67
        .byte   W02
        .byte                   66
        .byte   W01
        .byte                   65
        .byte   W03
        .byte                   64
        .byte   W03
        .byte                   63
        .byte   W03
        .byte                   62
        .byte   W03
        .byte                   61
        .byte   W02
        .byte                   60
        .byte   W04
        .byte                   59
        .byte   W02
        .byte                   58
        .byte   W01
        .byte                   57
        .byte   W02
        .byte                   56
        .byte   W04
        .byte                   55
        .byte   W02
        .byte   PEND
@ 036   ----------------------------------------
_00___Random_Dungeon_Theme_3_7_36:
        .byte           VOL   , 54
        .byte   W24
        .byte                   95
        .byte           N24   , An2 , v090
        .byte   W24
        .byte                   As2
        .byte   W24
        .byte                   Cn3
        .byte   W24
        .byte   PEND
@ 037   ----------------------------------------
_00___Random_Dungeon_Theme_3_7_37:
        .byte           N24   , As2 , v127
        .byte   W36
        .byte           N04
        .byte   W06
        .byte                   As2
        .byte   W06
        .byte           N24
        .byte   W36
        .byte           N04
        .byte   W06
        .byte                   As2
        .byte   W06
        .byte   PEND
@ 038   ----------------------------------------
_00___Random_Dungeon_Theme_3_7_38:
        .byte           N24   , As3 , v127
        .byte   W36
        .byte           N04
        .byte   W06
        .byte                   As3
        .byte   W06
        .byte           N40
        .byte   W48
        .byte   PEND
@ 039   ----------------------------------------
_00___Random_Dungeon_Theme_3_7_39:
        .byte           N06   , An3 , v127
        .byte   W24
        .byte           TIE
        .byte   W48
        .byte   W03
        .byte           VOL   , 93
        .byte   W03
        .byte                   92
        .byte   W01
        .byte                   91
        .byte   W05
        .byte                   90
        .byte   W01
        .byte                   89
        .byte   W02
        .byte                   88
        .byte   W01
        .byte                   87
        .byte   W02
        .byte                   86
        .byte   W03
        .byte                   85
        .byte   W01
        .byte                   84
        .byte   W02
        .byte   PEND
@ 040   ----------------------------------------
_00___Random_Dungeon_Theme_3_7_40:
        .byte           VOL   , 83
        .byte   W01
        .byte                   82
        .byte   W02
        .byte                   81
        .byte   W04
        .byte                   80
        .byte   W02
        .byte                   79
        .byte   W01
        .byte                   78
        .byte   W02
        .byte                   77
        .byte   W03
        .byte                   76
        .byte   W01
        .byte                   75
        .byte   W02
        .byte                   74
        .byte   W01
        .byte                   73
        .byte   W03
        .byte                   72
        .byte   W03
        .byte                   71
        .byte   W03
        .byte                   70
        .byte   W02
        .byte                   69
        .byte   W01
        .byte                   68
        .byte   W03
        .byte                   67
        .byte   W02
        .byte                   66
        .byte   W01
        .byte                   64
        .byte   W05
        .byte                   63
        .byte   W01
        .byte                   62
        .byte   W03
        .byte                   61
        .byte   W02
        .byte                   60
        .byte   W03
        .byte                   59
        .byte   W01
        .byte                   58
        .byte   W02
        .byte                   57
        .byte   W01
        .byte                   56
        .byte   W03
        .byte                   55
        .byte   W02
        .byte                   54
        .byte   W01
        .byte                   53
        .byte   W03
        .byte                   52
        .byte   W03
        .byte                   51
        .byte   W02
        .byte                   50
        .byte   W01
        .byte                   49
        .byte   W02
        .byte                   48
        .byte   W01
        .byte                   47
        .byte   W03
        .byte                   46
        .byte   W02
        .byte                   45
        .byte   W03
        .byte                   43
        .byte   W06
        .byte                   42
        .byte   W01
        .byte                   40
        .byte   W02
        .byte                   39
        .byte   W03
        .byte                   38
        .byte   W03
        .byte   PEND
@ 041   ----------------------------------------
        .byte           EOT   , An3
        .byte   W96
@ 042   ----------------------------------------
        .byte           VOL   , 95
        .byte   W96
@ 043   ----------------------------------------
        .byte   PATT
         .word  _00___Random_Dungeon_Theme_3_7_5
@ 044   ----------------------------------------
        .byte   PATT
         .word  _00___Random_Dungeon_Theme_3_7_6
@ 045   ----------------------------------------
        .byte   PATT
         .word  _00___Random_Dungeon_Theme_3_7_5
@ 046   ----------------------------------------
        .byte   PATT
         .word  _00___Random_Dungeon_Theme_3_7_8
@ 047   ----------------------------------------
        .byte   PATT
         .word  _00___Random_Dungeon_Theme_3_7_5
@ 048   ----------------------------------------
        .byte   PATT
         .word  _00___Random_Dungeon_Theme_3_7_10
@ 049   ----------------------------------------
        .byte   PATT
         .word  _00___Random_Dungeon_Theme_3_7_11
@ 050   ----------------------------------------
        .byte   W48
        .byte           EOT   , An2
        .byte   W48
@ 051   ----------------------------------------
        .byte   PATT
         .word  _00___Random_Dungeon_Theme_3_7_13
@ 052   ----------------------------------------
        .byte   PATT
         .word  _00___Random_Dungeon_Theme_3_7_14
@ 053   ----------------------------------------
        .byte   PATT
         .word  _00___Random_Dungeon_Theme_3_7_15
@ 054   ----------------------------------------
        .byte   PATT
         .word  _00___Random_Dungeon_Theme_3_7_16
@ 055   ----------------------------------------
        .byte   PATT
         .word  _00___Random_Dungeon_Theme_3_7_17
@ 056   ----------------------------------------
        .byte   PATT
         .word  _00___Random_Dungeon_Theme_3_7_18
@ 057   ----------------------------------------
        .byte   PATT
         .word  _00___Random_Dungeon_Theme_3_7_19
@ 058   ----------------------------------------
        .byte   PATT
         .word  _00___Random_Dungeon_Theme_3_7_20
@ 059   ----------------------------------------
        .byte   PATT
         .word  _00___Random_Dungeon_Theme_3_7_21
@ 060   ----------------------------------------
        .byte   W96
@ 061   ----------------------------------------
        .byte   W96
@ 062   ----------------------------------------
        .byte   W96
@ 063   ----------------------------------------
        .byte   PATT
         .word  _00___Random_Dungeon_Theme_3_7_25
@ 064   ----------------------------------------
        .byte   PATT
         .word  _00___Random_Dungeon_Theme_3_7_26
@ 065   ----------------------------------------
        .byte   PATT
         .word  _00___Random_Dungeon_Theme_3_7_27
@ 066   ----------------------------------------
        .byte   PATT
         .word  _00___Random_Dungeon_Theme_3_7_28
@ 067   ----------------------------------------
        .byte   PATT
         .word  _00___Random_Dungeon_Theme_3_7_29
@ 068   ----------------------------------------
        .byte   PATT
         .word  _00___Random_Dungeon_Theme_3_7_30
@ 069   ----------------------------------------
        .byte   PATT
         .word  _00___Random_Dungeon_Theme_3_7_31
@ 070   ----------------------------------------
        .byte   PATT
         .word  _00___Random_Dungeon_Theme_3_7_32
@ 071   ----------------------------------------
        .byte   PATT
         .word  _00___Random_Dungeon_Theme_3_7_33
@ 072   ----------------------------------------
        .byte   W96
@ 073   ----------------------------------------
        .byte   PATT
         .word  _00___Random_Dungeon_Theme_3_7_35
@ 074   ----------------------------------------
        .byte   PATT
         .word  _00___Random_Dungeon_Theme_3_7_36
@ 075   ----------------------------------------
        .byte   PATT
         .word  _00___Random_Dungeon_Theme_3_7_37
@ 076   ----------------------------------------
        .byte   PATT
         .word  _00___Random_Dungeon_Theme_3_7_38
@ 077   ----------------------------------------
        .byte   PATT
         .word  _00___Random_Dungeon_Theme_3_7_39
@ 078   ----------------------------------------
        .byte   PATT
         .word  _00___Random_Dungeon_Theme_3_7_40
@ 079   ----------------------------------------
        .byte           EOT   , An3
        .byte   W96
@ 080   ----------------------------------------
        .byte           VOL   , 95
        .byte   W96
@ 081   ----------------------------------------
        .byte   FINE

@****************** Track 8 (Midi-Chn.8) ******************@

_00___Random_Dungeon_Theme_3_8:
        .byte   KEYSH , _00___Random_Dungeon_Theme_3_key+0
@ 000   ----------------------------------------
        .byte   W24
@ 001   ----------------------------------------
        .byte           PAN   , c_v+63
        .byte           VOL   , 50
        .byte           VOICE , 65
        .byte   W96
@ 002   ----------------------------------------
        .byte   W96
@ 003   ----------------------------------------
        .byte   W96
@ 004   ----------------------------------------
        .byte   W96
@ 005   ----------------------------------------
_00___Random_Dungeon_Theme_3_8_5:
        .byte   W12
        .byte           N12   , An2 , v127
        .byte   W18
        .byte           N06   , Dn3
        .byte   W06
        .byte                   Fs3
        .byte   W12
        .byte           N12   , Gn3
        .byte   W24
        .byte                   Gn3
        .byte   W24
        .byte   PEND
@ 006   ----------------------------------------
_00___Random_Dungeon_Theme_3_8_6:
        .byte           N06   , Gn3 , v127
        .byte   W12
        .byte           N12   , Fs3
        .byte   W18
        .byte           N06   , Dn3
        .byte   W06
        .byte                   An2
        .byte   W12
        .byte           N48   , Cn3
        .byte   W48
        .byte   PEND
@ 007   ----------------------------------------
        .byte   PATT
         .word  _00___Random_Dungeon_Theme_3_8_5
@ 008   ----------------------------------------
_00___Random_Dungeon_Theme_3_8_8:
        .byte           N06   , Gn3 , v127
        .byte   W12
        .byte           N12   , Fs3
        .byte   W18
        .byte           N06   , Dn3
        .byte   W06
        .byte                   An2
        .byte   W12
        .byte           N48   , Gn2
        .byte   W48
        .byte   PEND
@ 009   ----------------------------------------
        .byte   PATT
         .word  _00___Random_Dungeon_Theme_3_8_5
@ 010   ----------------------------------------
_00___Random_Dungeon_Theme_3_8_10:
        .byte           N06   , Gn3 , v127
        .byte   W12
        .byte           N12   , Fs3
        .byte   W18
        .byte           N06   , Dn3
        .byte   W06
        .byte                   An2
        .byte   W12
        .byte           N12   , Cn3
        .byte   W24
        .byte           N24
        .byte   W24
        .byte   PEND
@ 011   ----------------------------------------
_00___Random_Dungeon_Theme_3_8_11:
        .byte           N12   , Dn3 , v127
        .byte   W12
        .byte                   Bn2
        .byte   W18
        .byte           N06   , An2
        .byte   W06
        .byte                   Gn2
        .byte   W12
        .byte           TIE   , An2
        .byte   W48
        .byte   PEND
@ 012   ----------------------------------------
        .byte   W60
        .byte           EOT
        .byte   W36
@ 013   ----------------------------------------
_00___Random_Dungeon_Theme_3_8_13:
        .byte   W12
        .byte           VOL   , 49
        .byte           N96   , An2 , v100
        .byte   W24
        .byte           VOL   , 48
        .byte   W03
        .byte                   47
        .byte   W03
        .byte                   46
        .byte   W03
        .byte                   45
        .byte   W04
        .byte                   44
        .byte   W03
        .byte                   43
        .byte   W05
        .byte                   42
        .byte   W03
        .byte                   41
        .byte   W03
        .byte                   40
        .byte   W04
        .byte                   39
        .byte   W02
        .byte                   38
        .byte   W06
        .byte                   37
        .byte   W01
        .byte                   36
        .byte   W05
        .byte                   35
        .byte   W03
        .byte                   34
        .byte   W04
        .byte                   33
        .byte   W03
        .byte                   32
        .byte   W03
        .byte                   31
        .byte   W02
        .byte   PEND
@ 014   ----------------------------------------
_00___Random_Dungeon_Theme_3_8_14:
        .byte   W03
        .byte           VOL   , 30
        .byte   W03
        .byte                   29
        .byte   W03
        .byte                   28
        .byte   W03
        .byte                   27
        .byte   W24
        .byte                   50
        .byte   W36
        .byte           N12   , Gn2 , v100
        .byte   W12
        .byte           N06   , Dn3
        .byte   W12
        .byte   PEND
@ 015   ----------------------------------------
_00___Random_Dungeon_Theme_3_8_15:
        .byte           N06   , Gn3 , v100
        .byte   W12
        .byte           N96   , An3
        .byte   W32
        .byte   W01
        .byte           VOL   , 49
        .byte   W03
        .byte                   47
        .byte   W06
        .byte                   46
        .byte   W03
        .byte                   45
        .byte   W03
        .byte                   44
        .byte   W03
        .byte                   43
        .byte   W06
        .byte                   42
        .byte   W03
        .byte                   41
        .byte   W03
        .byte                   40
        .byte   W03
        .byte                   39
        .byte   W03
        .byte                   38
        .byte   W06
        .byte                   37
        .byte   W03
        .byte                   36
        .byte   W03
        .byte                   35
        .byte   W03
        .byte   PEND
@ 016   ----------------------------------------
_00___Random_Dungeon_Theme_3_8_16:
        .byte           VOL   , 34
        .byte   W06
        .byte                   33
        .byte   W03
        .byte                   32
        .byte   W03
        .byte                   31
        .byte   W21
        .byte                   50
        .byte   W36
        .byte   W03
        .byte           N06   , Gn3 , v100
        .byte   W12
        .byte           N12   , Fs3
        .byte   W12
        .byte   PEND
@ 017   ----------------------------------------
_00___Random_Dungeon_Theme_3_8_17:
        .byte   W06
        .byte           N06   , Dn3 , v100
        .byte   W06
        .byte           N96   , An2
        .byte   W24
        .byte   W03
        .byte           VOL   , 49
        .byte   W03
        .byte                   48
        .byte   W03
        .byte                   47
        .byte   W03
        .byte                   46
        .byte   W03
        .byte                   45
        .byte   W04
        .byte                   44
        .byte   W03
        .byte                   43
        .byte   W05
        .byte                   42
        .byte   W03
        .byte                   41
        .byte   W03
        .byte                   40
        .byte   W04
        .byte                   39
        .byte   W02
        .byte                   38
        .byte   W04
        .byte                   37
        .byte   W03
        .byte                   36
        .byte   W05
        .byte                   35
        .byte   W01
        .byte                   34
        .byte   W06
        .byte                   33
        .byte   W02
        .byte   PEND
@ 018   ----------------------------------------
_00___Random_Dungeon_Theme_3_8_18:
        .byte   W01
        .byte           VOL   , 32
        .byte   W03
        .byte                   31
        .byte   W03
        .byte                   30
        .byte   W17
        .byte                   50
        .byte   W12
        .byte           N12   , An2 , v100
        .byte   W18
        .byte           N06
        .byte   W06
        .byte                   Cn3
        .byte   W12
        .byte                   An2
        .byte   W12
        .byte                   Cn3
        .byte   W12
        .byte   PEND
@ 019   ----------------------------------------
_00___Random_Dungeon_Theme_3_8_19:
        .byte           N06   , Dn3 , v100
        .byte   W12
        .byte           N24
        .byte           N24   , Gn3
        .byte   W36
        .byte           N36   , Dn3
        .byte           N36   , Fs3
        .byte   W48
        .byte   PEND
@ 020   ----------------------------------------
_00___Random_Dungeon_Theme_3_8_20:
        .byte   W12
        .byte           N24   , Dn3 , v100
        .byte           N24   , En3
        .byte   W36
        .byte           N36   , Dn3
        .byte           N36   , Fs3
        .byte   W48
        .byte   PEND
@ 021   ----------------------------------------
        .byte   W96
@ 022   ----------------------------------------
        .byte   W96
@ 023   ----------------------------------------
        .byte   W96
@ 024   ----------------------------------------
        .byte   W96
@ 025   ----------------------------------------
_00___Random_Dungeon_Theme_3_8_25:
        .byte   W72
        .byte           VOL   , 49
        .byte           N12   , Fn3 , v100
        .byte   W12
        .byte                   En3
        .byte   W12
        .byte   PEND
@ 026   ----------------------------------------
_00___Random_Dungeon_Theme_3_8_26:
        .byte           N12   , Fn3 , v100
        .byte   W12
        .byte           N24   , En3
        .byte   W24
        .byte           N36   , Dn3
        .byte   W36
        .byte           N12   , Cn3
        .byte   W12
        .byte                   Gn2
        .byte   W12
        .byte   PEND
@ 027   ----------------------------------------
_00___Random_Dungeon_Theme_3_8_27:
        .byte           N12   , Cn3 , v100
        .byte   W12
        .byte           N96   , As2
        .byte   W30
        .byte   W01
        .byte           VOL   , 48
        .byte   W03
        .byte                   47
        .byte   W06
        .byte                   46
        .byte   W05
        .byte                   45
        .byte   W06
        .byte                   44
        .byte   W03
        .byte                   43
        .byte   W07
        .byte                   42
        .byte   W05
        .byte                   41
        .byte   W03
        .byte                   40
        .byte   W06
        .byte                   39
        .byte   W03
        .byte                   38
        .byte   W06
        .byte   PEND
@ 028   ----------------------------------------
_00___Random_Dungeon_Theme_3_8_28:
        .byte   W01
        .byte           VOL   , 37
        .byte   W03
        .byte                   36
        .byte   W06
        .byte                   50
        .byte   W02
        .byte                   49
        .byte           N48   , Cn3 , v100
        .byte   W03
        .byte           VOL   , 48
        .byte   W03
        .byte                   47
        .byte   W04
        .byte                   46
        .byte   W05
        .byte                   45
        .byte   W04
        .byte                   44
        .byte   W03
        .byte                   43
        .byte   W08
        .byte                   42
        .byte   W03
        .byte                   41
        .byte   W03
        .byte                   40
        .byte   W06
        .byte                   39
        .byte   W03
        .byte                   38
        .byte   W03
        .byte           N48   , As2
        .byte   W01
        .byte           VOL   , 50
        .byte   W02
        .byte                   49
        .byte   W01
        .byte                   48
        .byte   W03
        .byte                   47
        .byte   W05
        .byte                   46
        .byte   W01
        .byte                   45
        .byte   W05
        .byte                   44
        .byte   W03
        .byte                   43
        .byte   W04
        .byte                   42
        .byte   W03
        .byte                   41
        .byte   W03
        .byte                   40
        .byte   W03
        .byte                   39
        .byte   W02
        .byte   PEND
@ 029   ----------------------------------------
_00___Random_Dungeon_Theme_3_8_29:
        .byte   W01
        .byte           VOL   , 38
        .byte   W05
        .byte                   37
        .byte   W01
        .byte                   36
        .byte   W05
        .byte                   38
        .byte           N56   , Cs3 , v100 , gtp2
        .byte   W01
        .byte           VOL   , 50
        .byte   W02
        .byte                   49
        .byte   W01
        .byte                   48
        .byte   W03
        .byte                   47
        .byte   W05
        .byte                   46
        .byte   W01
        .byte                   45
        .byte   W05
        .byte                   44
        .byte   W03
        .byte                   43
        .byte   W04
        .byte                   42
        .byte   W03
        .byte                   41
        .byte   W03
        .byte                   40
        .byte   W03
        .byte                   39
        .byte   W03
        .byte                   38
        .byte   W05
        .byte                   37
        .byte   W01
        .byte                   36
        .byte   W17
        .byte                   43
        .byte           N12   , Gs3
        .byte   W06
        .byte           VOL   , 44
        .byte   W03
        .byte                   45
        .byte   W03
        .byte           N12   , Gn3
        .byte   W03
        .byte           VOL   , 46
        .byte   W06
        .byte                   47
        .byte   W03
        .byte   PEND
@ 030   ----------------------------------------
_00___Random_Dungeon_Theme_3_8_30:
        .byte           N12   , Gs3 , v100
        .byte   W03
        .byte           VOL   , 48
        .byte   W03
        .byte                   49
        .byte   W04
        .byte                   50
        .byte   W02
        .byte           N24   , Gn3
        .byte   W24
        .byte                   Fn3
        .byte   W24
        .byte                   As2
        .byte   W24
        .byte                   Fn3
        .byte   W12
        .byte   PEND
@ 031   ----------------------------------------
        .byte   W96
@ 032   ----------------------------------------
_00___Random_Dungeon_Theme_3_8_32:
        .byte   W24
        .byte           VOL   , 28
        .byte   W12
        .byte                   50
        .byte           N24   , Cn3 , v090
        .byte   W24
        .byte                   Dn3
        .byte   W24
        .byte                   En3
        .byte   W12
        .byte   PEND
@ 033   ----------------------------------------
_00___Random_Dungeon_Theme_3_8_33:
        .byte   W12
        .byte           N96   , Dn3 , v090
        .byte   W06
        .byte           VOL   , 49
        .byte   W03
        .byte                   48
        .byte   W03
        .byte                   47
        .byte   W04
        .byte                   46
        .byte   W03
        .byte                   45
        .byte   W04
        .byte                   44
        .byte   W03
        .byte                   43
        .byte   W05
        .byte                   42
        .byte   W03
        .byte                   41
        .byte   W04
        .byte                   40
        .byte   W04
        .byte                   39
        .byte   W03
        .byte                   38
        .byte   W04
        .byte                   37
        .byte   W03
        .byte                   36
        .byte   W04
        .byte                   35
        .byte   W03
        .byte                   34
        .byte   W05
        .byte                   33
        .byte   W04
        .byte                   32
        .byte   W02
        .byte                   31
        .byte   W05
        .byte                   30
        .byte   W02
        .byte                   29
        .byte   W05
        .byte                   28
        .byte   W02
        .byte   PEND
@ 034   ----------------------------------------
_00___Random_Dungeon_Theme_3_8_34:
        .byte   W01
        .byte           VOL   , 27
        .byte   W04
        .byte                   26
        .byte   W04
        .byte                   25
        .byte   W84
        .byte   W03
        .byte   PEND
@ 035   ----------------------------------------
_00___Random_Dungeon_Theme_3_8_35:
        .byte   W12
        .byte           VOL   , 49
        .byte           N96   , As2 , v100
        .byte   W03
        .byte           VOL   , 48
        .byte   W03
        .byte                   47
        .byte   W06
        .byte                   46
        .byte   W03
        .byte                   45
        .byte   W06
        .byte                   44
        .byte   W03
        .byte                   43
        .byte   W07
        .byte                   42
        .byte   W05
        .byte                   41
        .byte   W03
        .byte                   40
        .byte   W06
        .byte                   39
        .byte   W03
        .byte                   38
        .byte   W06
        .byte                   37
        .byte   W03
        .byte                   36
        .byte   W06
        .byte                   35
        .byte   W03
        .byte                   34
        .byte   W07
        .byte                   33
        .byte   W03
        .byte                   32
        .byte   W05
        .byte                   31
        .byte   W03
        .byte   PEND
@ 036   ----------------------------------------
_00___Random_Dungeon_Theme_3_8_36:
        .byte   W03
        .byte           VOL   , 30
        .byte   W03
        .byte                   29
        .byte   W06
        .byte                   28
        .byte   W24
        .byte                   50
        .byte           N24   , An2 , v090
        .byte   W24
        .byte                   As2
        .byte   W24
        .byte                   Cn3
        .byte   W12
        .byte   PEND
@ 037   ----------------------------------------
_00___Random_Dungeon_Theme_3_8_37:
        .byte   W12
        .byte           N24   , As2 , v127
        .byte   W36
        .byte           N04
        .byte   W06
        .byte                   As2
        .byte   W06
        .byte           N24
        .byte   W36
        .byte   PEND
@ 038   ----------------------------------------
_00___Random_Dungeon_Theme_3_8_38:
        .byte           N04   , As2 , v127
        .byte   W06
        .byte                   As2
        .byte   W06
        .byte           N24   , As3
        .byte   W36
        .byte           N04
        .byte   W06
        .byte                   As3
        .byte   W06
        .byte           N40
        .byte   W36
        .byte   PEND
@ 039   ----------------------------------------
_00___Random_Dungeon_Theme_3_8_39:
        .byte   W12
        .byte           N06   , An3 , v127
        .byte   W24
        .byte           TIE
        .byte   W48
        .byte   W03
        .byte           VOL   , 49
        .byte   W03
        .byte                   48
        .byte   W03
        .byte                   47
        .byte   W03
        .byte   PEND
@ 040   ----------------------------------------
_00___Random_Dungeon_Theme_3_8_40:
        .byte   W01
        .byte           VOL   , 46
        .byte   W03
        .byte                   45
        .byte   W05
        .byte                   44
        .byte   W03
        .byte                   43
        .byte   W06
        .byte                   42
        .byte   W03
        .byte                   41
        .byte   W03
        .byte                   40
        .byte   W04
        .byte                   39
        .byte   W03
        .byte                   38
        .byte   W05
        .byte                   37
        .byte   W04
        .byte                   36
        .byte   W03
        .byte                   35
        .byte   W05
        .byte                   34
        .byte   W06
        .byte                   33
        .byte   W03
        .byte                   32
        .byte   W03
        .byte                   31
        .byte   W04
        .byte                   30
        .byte   W03
        .byte                   29
        .byte   W05
        .byte                   28
        .byte   W03
        .byte                   27
        .byte   W04
        .byte                   26
        .byte   W05
        .byte                   25
        .byte   W04
        .byte                   24
        .byte   W05
        .byte                   23
        .byte   W01
        .byte                   22
        .byte   W02
        .byte   PEND
@ 041   ----------------------------------------
_00___Random_Dungeon_Theme_3_8_41:
        .byte   W04
        .byte           VOL   , 21
        .byte   W02
        .byte                   20
        .byte   W06
        .byte           EOT   , An3
        .byte   W84
        .byte   PEND
@ 042   ----------------------------------------
        .byte   W12
        .byte           VOL   , 50
        .byte   W84
@ 043   ----------------------------------------
        .byte   PATT
         .word  _00___Random_Dungeon_Theme_3_8_5
@ 044   ----------------------------------------
        .byte   PATT
         .word  _00___Random_Dungeon_Theme_3_8_6
@ 045   ----------------------------------------
        .byte   PATT
         .word  _00___Random_Dungeon_Theme_3_8_5
@ 046   ----------------------------------------
        .byte   PATT
         .word  _00___Random_Dungeon_Theme_3_8_8
@ 047   ----------------------------------------
        .byte   PATT
         .word  _00___Random_Dungeon_Theme_3_8_5
@ 048   ----------------------------------------
        .byte   PATT
         .word  _00___Random_Dungeon_Theme_3_8_10
@ 049   ----------------------------------------
        .byte   PATT
         .word  _00___Random_Dungeon_Theme_3_8_11
@ 050   ----------------------------------------
        .byte   W60
        .byte           EOT   , An2
        .byte   W36
@ 051   ----------------------------------------
        .byte   PATT
         .word  _00___Random_Dungeon_Theme_3_8_13
@ 052   ----------------------------------------
        .byte   PATT
         .word  _00___Random_Dungeon_Theme_3_8_14
@ 053   ----------------------------------------
        .byte   PATT
         .word  _00___Random_Dungeon_Theme_3_8_15
@ 054   ----------------------------------------
        .byte   PATT
         .word  _00___Random_Dungeon_Theme_3_8_16
@ 055   ----------------------------------------
        .byte   PATT
         .word  _00___Random_Dungeon_Theme_3_8_17
@ 056   ----------------------------------------
        .byte   PATT
         .word  _00___Random_Dungeon_Theme_3_8_18
@ 057   ----------------------------------------
        .byte   PATT
         .word  _00___Random_Dungeon_Theme_3_8_19
@ 058   ----------------------------------------
        .byte   PATT
         .word  _00___Random_Dungeon_Theme_3_8_20
@ 059   ----------------------------------------
        .byte   W96
@ 060   ----------------------------------------
        .byte   W96
@ 061   ----------------------------------------
        .byte   W96
@ 062   ----------------------------------------
        .byte   W96
@ 063   ----------------------------------------
        .byte   PATT
         .word  _00___Random_Dungeon_Theme_3_8_25
@ 064   ----------------------------------------
        .byte   PATT
         .word  _00___Random_Dungeon_Theme_3_8_26
@ 065   ----------------------------------------
        .byte   PATT
         .word  _00___Random_Dungeon_Theme_3_8_27
@ 066   ----------------------------------------
        .byte   PATT
         .word  _00___Random_Dungeon_Theme_3_8_28
@ 067   ----------------------------------------
        .byte   PATT
         .word  _00___Random_Dungeon_Theme_3_8_29
@ 068   ----------------------------------------
        .byte   PATT
         .word  _00___Random_Dungeon_Theme_3_8_30
@ 069   ----------------------------------------
        .byte   W96
@ 070   ----------------------------------------
        .byte   PATT
         .word  _00___Random_Dungeon_Theme_3_8_32
@ 071   ----------------------------------------
        .byte   PATT
         .word  _00___Random_Dungeon_Theme_3_8_33
@ 072   ----------------------------------------
        .byte   PATT
         .word  _00___Random_Dungeon_Theme_3_8_34
@ 073   ----------------------------------------
        .byte   PATT
         .word  _00___Random_Dungeon_Theme_3_8_35
@ 074   ----------------------------------------
        .byte   PATT
         .word  _00___Random_Dungeon_Theme_3_8_36
@ 075   ----------------------------------------
        .byte   PATT
         .word  _00___Random_Dungeon_Theme_3_8_37
@ 076   ----------------------------------------
        .byte   PATT
         .word  _00___Random_Dungeon_Theme_3_8_38
@ 077   ----------------------------------------
        .byte   PATT
         .word  _00___Random_Dungeon_Theme_3_8_39
@ 078   ----------------------------------------
        .byte   PATT
         .word  _00___Random_Dungeon_Theme_3_8_40
@ 079   ----------------------------------------
        .byte   PATT
         .word  _00___Random_Dungeon_Theme_3_8_41
@ 080   ----------------------------------------
        .byte   W12
        .byte           VOL   , 50
        .byte   W84
@ 081   ----------------------------------------
        .byte   FINE

@****************** Track 9 (Midi-Chn.9) ******************@

_00___Random_Dungeon_Theme_3_9:
        .byte   KEYSH , _00___Random_Dungeon_Theme_3_key+0
@ 000   ----------------------------------------
        .byte   W24
@ 001   ----------------------------------------
        .byte           VOL   , 66
        .byte           VOICE , 0
        .byte           N06   , En1 , v127
        .byte   W12
        .byte                   En1 , v077
        .byte   W06
        .byte                   En1 , v078
        .byte   W06
        .byte                   En1
        .byte   W12
        .byte                   En1 , v127
        .byte   W12
        .byte                   En1 , v078
        .byte   W06
        .byte                   En1 , v079
        .byte   W06
        .byte                   En1 , v127
        .byte   W12
        .byte                   En1 , v078
        .byte   W06
        .byte                   En1 , v077
        .byte   W06
        .byte                   En1 , v127
        .byte   W12
@ 002   ----------------------------------------
_00___Random_Dungeon_Theme_3_9_2:
        .byte           N06   , En1 , v127
        .byte   W12
        .byte                   En1 , v077
        .byte   W06
        .byte                   En1 , v078
        .byte   W06
        .byte                   En1
        .byte   W12
        .byte                   En1 , v127
        .byte   W12
        .byte                   En1 , v078
        .byte   W06
        .byte                   En1 , v079
        .byte   W06
        .byte                   En1 , v127
        .byte   W12
        .byte                   En1 , v078
        .byte   W06
        .byte                   En1 , v077
        .byte   W06
        .byte                   En1 , v127
        .byte   W12
        .byte   PEND
@ 003   ----------------------------------------
        .byte   PATT
         .word  _00___Random_Dungeon_Theme_3_9_2
@ 004   ----------------------------------------
        .byte           N06   , En1 , v127
        .byte   W12
        .byte                   En1 , v077
        .byte   W06
        .byte                   En1 , v078
        .byte   W06
        .byte                   En1
        .byte   W12
        .byte                   En1 , v127
        .byte   W12
        .byte           N04   , As4 , v028
        .byte           N06   , En1 , v078
        .byte   W04
        .byte           N04   , As4 , v037
        .byte   W02
        .byte           N06   , En1 , v079
        .byte   W02
        .byte           N04   , As4 , v045
        .byte   W04
        .byte                   As4 , v053
        .byte           N06   , En1 , v127
        .byte   W04
        .byte           N04   , As4 , v061
        .byte   W04
        .byte                   As4 , v070
        .byte   W04
        .byte                   As4 , v078
        .byte           N06   , En1
        .byte   W04
        .byte           N04   , As4 , v086
        .byte   W02
        .byte           N06   , En1 , v077
        .byte   W02
        .byte           N04   , As4 , v094
        .byte   W04
        .byte                   As4 , v103
        .byte           N06   , En1 , v127
        .byte   W04
        .byte           N04   , As4 , v111
        .byte   W04
        .byte                   As4 , v119
        .byte   W04
@ 005   ----------------------------------------
_00___Random_Dungeon_Theme_3_9_5:
        .byte           N06   , En1 , v127
        .byte           N06   , As4
        .byte   W12
        .byte                   En1 , v077
        .byte   W06
        .byte                   En1 , v078
        .byte   W06
        .byte                   En1
        .byte   W12
        .byte                   En1 , v127
        .byte   W12
        .byte                   En1 , v078
        .byte   W06
        .byte                   En1 , v079
        .byte   W06
        .byte                   En1 , v127
        .byte   W12
        .byte                   En1 , v078
        .byte   W06
        .byte                   En1 , v077
        .byte   W06
        .byte                   En1 , v127
        .byte   W12
        .byte   PEND
@ 006   ----------------------------------------
        .byte   PATT
         .word  _00___Random_Dungeon_Theme_3_9_2
@ 007   ----------------------------------------
        .byte   PATT
         .word  _00___Random_Dungeon_Theme_3_9_5
@ 008   ----------------------------------------
        .byte   PATT
         .word  _00___Random_Dungeon_Theme_3_9_2
@ 009   ----------------------------------------
        .byte   PATT
         .word  _00___Random_Dungeon_Theme_3_9_5
@ 010   ----------------------------------------
        .byte   PATT
         .word  _00___Random_Dungeon_Theme_3_9_2
@ 011   ----------------------------------------
        .byte   PATT
         .word  _00___Random_Dungeon_Theme_3_9_5
@ 012   ----------------------------------------
        .byte   PATT
         .word  _00___Random_Dungeon_Theme_3_9_2
@ 013   ----------------------------------------
        .byte   PATT
         .word  _00___Random_Dungeon_Theme_3_9_5
@ 014   ----------------------------------------
        .byte   PATT
         .word  _00___Random_Dungeon_Theme_3_9_2
@ 015   ----------------------------------------
        .byte   PATT
         .word  _00___Random_Dungeon_Theme_3_9_5
@ 016   ----------------------------------------
        .byte   PATT
         .word  _00___Random_Dungeon_Theme_3_9_2
@ 017   ----------------------------------------
        .byte   PATT
         .word  _00___Random_Dungeon_Theme_3_9_5
@ 018   ----------------------------------------
        .byte   PATT
         .word  _00___Random_Dungeon_Theme_3_9_2
@ 019   ----------------------------------------
        .byte   PATT
         .word  _00___Random_Dungeon_Theme_3_9_5
@ 020   ----------------------------------------
        .byte   PATT
         .word  _00___Random_Dungeon_Theme_3_9_2
@ 021   ----------------------------------------
_00___Random_Dungeon_Theme_3_9_21:
        .byte           N06   , En1 , v127
        .byte           N06   , As4
        .byte   W12
        .byte                   En1 , v077
        .byte   W06
        .byte                   En1 , v078
        .byte   W06
        .byte                   En1
        .byte   W12
        .byte                   En1 , v127
        .byte           N06   , As4
        .byte   W12
        .byte                   En1 , v078
        .byte   W06
        .byte                   En1 , v079
        .byte   W06
        .byte                   En1 , v084
        .byte   W12
        .byte                   En1 , v127
        .byte           N06   , As4
        .byte   W06
        .byte                   En1 , v077
        .byte   W06
        .byte                   En1 , v083
        .byte   W12
        .byte   PEND
@ 022   ----------------------------------------
        .byte   PATT
         .word  _00___Random_Dungeon_Theme_3_9_2
@ 023   ----------------------------------------
_00___Random_Dungeon_Theme_3_9_23:
        .byte           N06   , En1 , v080
        .byte           N24   , As4 , v064
        .byte   W36
        .byte           N06   , En1 , v080
        .byte   W06
        .byte                   En1
        .byte   W06
        .byte                   En1
        .byte   W36
        .byte                   En1
        .byte   W06
        .byte                   En1
        .byte   W06
        .byte   PEND
@ 024   ----------------------------------------
_00___Random_Dungeon_Theme_3_9_24:
        .byte           N06   , En1 , v080
        .byte   W36
        .byte                   En1
        .byte   W06
        .byte                   En1
        .byte   W06
        .byte                   En1
        .byte   W12
        .byte                   En1
        .byte   W24
        .byte                   En1
        .byte   W12
        .byte   PEND
@ 025   ----------------------------------------
        .byte   PATT
         .word  _00___Random_Dungeon_Theme_3_9_23
@ 026   ----------------------------------------
        .byte   PATT
         .word  _00___Random_Dungeon_Theme_3_9_24
@ 027   ----------------------------------------
        .byte   PATT
         .word  _00___Random_Dungeon_Theme_3_9_23
@ 028   ----------------------------------------
        .byte   PATT
         .word  _00___Random_Dungeon_Theme_3_9_24
@ 029   ----------------------------------------
        .byte   PATT
         .word  _00___Random_Dungeon_Theme_3_9_23
@ 030   ----------------------------------------
_00___Random_Dungeon_Theme_3_9_30:
        .byte           N04   , As4 , v008
        .byte           N06   , En1 , v080
        .byte   W04
        .byte           N04   , As4 , v013
        .byte   W04
        .byte                   As4 , v017
        .byte   W04
        .byte                   As4 , v022
        .byte   W04
        .byte                   As4 , v026
        .byte   W04
        .byte                   As4 , v030
        .byte   W04
        .byte                   As4 , v035
        .byte   W04
        .byte                   As4 , v039
        .byte   W04
        .byte                   As4 , v043
        .byte   W04
        .byte                   As4 , v048
        .byte           N06   , En1 , v080
        .byte   W04
        .byte           N04   , As4 , v052
        .byte   W02
        .byte           N06   , En1 , v080
        .byte   W02
        .byte           N04   , As4 , v057
        .byte   W04
        .byte                   As4 , v061
        .byte           N06   , En1 , v080
        .byte   W04
        .byte           N04   , As4 , v065
        .byte   W04
        .byte                   As4 , v069
        .byte   W04
        .byte                   As4 , v074
        .byte           N06   , En1 , v080
        .byte   W04
        .byte           N04   , As4 , v078
        .byte   W04
        .byte                   As4 , v082
        .byte   W04
        .byte                   As4 , v087
        .byte   W04
        .byte                   As4 , v091
        .byte   W04
        .byte                   As4 , v095
        .byte   W04
        .byte                   As4 , v100
        .byte           N06   , En1 , v080
        .byte   W04
        .byte           N04   , As4 , v104
        .byte   W04
        .byte                   As4 , v109
        .byte   W04
        .byte   PEND
@ 031   ----------------------------------------
        .byte   PATT
         .word  _00___Random_Dungeon_Theme_3_9_5
@ 032   ----------------------------------------
        .byte   PATT
         .word  _00___Random_Dungeon_Theme_3_9_2
@ 033   ----------------------------------------
        .byte   PATT
         .word  _00___Random_Dungeon_Theme_3_9_2
@ 034   ----------------------------------------
        .byte   PATT
         .word  _00___Random_Dungeon_Theme_3_9_2
@ 035   ----------------------------------------
        .byte   PATT
         .word  _00___Random_Dungeon_Theme_3_9_2
@ 036   ----------------------------------------
        .byte   PATT
         .word  _00___Random_Dungeon_Theme_3_9_2
@ 037   ----------------------------------------
        .byte   PATT
         .word  _00___Random_Dungeon_Theme_3_9_2
@ 038   ----------------------------------------
_00___Random_Dungeon_Theme_3_9_38:
        .byte           N06   , En1 , v127
        .byte   W12
        .byte                   En1 , v077
        .byte   W06
        .byte                   En1 , v078
        .byte   W06
        .byte                   En1
        .byte   W12
        .byte                   En1 , v127
        .byte   W12
        .byte                   En1 , v126
        .byte   W06
        .byte                   En1 , v079
        .byte   W06
        .byte                   En1
        .byte   W12
        .byte                   En1 , v078
        .byte   W06
        .byte                   En1 , v077
        .byte   W06
        .byte                   En1 , v127
        .byte   W12
        .byte   PEND
@ 039   ----------------------------------------
_00___Random_Dungeon_Theme_3_9_39:
        .byte           N06   , En1 , v127
        .byte   W12
        .byte                   En1 , v077
        .byte   W06
        .byte                   En1 , v078
        .byte   W06
        .byte           N03   , En1 , v127
        .byte           N06   , As4
        .byte   W03
        .byte           N03   , En1 , v089
        .byte   W03
        .byte                   En1 , v081
        .byte   W03
        .byte                   En1 , v074
        .byte   W03
        .byte                   En1 , v066
        .byte   W03
        .byte                   En1 , v098
        .byte   W03
        .byte                   En1 , v091
        .byte   W03
        .byte                   En1 , v083
        .byte   W03
        .byte                   En1 , v071
        .byte   W03
        .byte                   En1 , v070
        .byte   W03
        .byte                   En1 , v068
        .byte   W03
        .byte                   En1 , v066
        .byte   W03
        .byte                   En1 , v065
        .byte   W03
        .byte                   En1 , v062
        .byte   W03
        .byte                   En1
        .byte   W03
        .byte                   En1
        .byte   W03
        .byte                   En1
        .byte   W03
        .byte                   En1
        .byte   W03
        .byte                   En1
        .byte   W03
        .byte                   En1
        .byte   W03
        .byte                   En1
        .byte   W03
        .byte                   En1
        .byte   W03
        .byte                   En1
        .byte   W03
        .byte                   En1
        .byte   W03
        .byte   PEND
@ 040   ----------------------------------------
_00___Random_Dungeon_Theme_3_9_40:
        .byte           N03   , En1 , v062
        .byte   W03
        .byte                   En1
        .byte   W03
        .byte                   En1
        .byte   W03
        .byte                   En1
        .byte   W03
        .byte                   En1
        .byte   W03
        .byte                   En1
        .byte   W03
        .byte                   En1
        .byte   W03
        .byte                   En1
        .byte   W03
        .byte                   En1
        .byte   W03
        .byte                   En1
        .byte   W03
        .byte                   En1
        .byte   W03
        .byte                   En1
        .byte   W03
        .byte                   En1
        .byte   W03
        .byte                   En1
        .byte   W03
        .byte                   En1
        .byte   W03
        .byte                   En1
        .byte   W03
        .byte                   En1
        .byte   W03
        .byte                   En1
        .byte   W03
        .byte                   En1
        .byte   W03
        .byte                   En1
        .byte   W03
        .byte                   En1
        .byte   W03
        .byte                   En1
        .byte   W03
        .byte                   En1 , v064
        .byte   W03
        .byte                   En1 , v065
        .byte   W03
        .byte                   En1 , v066
        .byte   W03
        .byte                   En1 , v067
        .byte   W03
        .byte                   En1 , v068
        .byte   W03
        .byte                   En1 , v070
        .byte   W03
        .byte                   En1 , v071
        .byte   W03
        .byte                   En1 , v068
        .byte   W03
        .byte                   En1 , v080
        .byte   W03
        .byte                   En1 , v099
        .byte   W03
        .byte   PEND
@ 041   ----------------------------------------
        .byte   PATT
         .word  _00___Random_Dungeon_Theme_3_9_2
@ 042   ----------------------------------------
_00___Random_Dungeon_Theme_3_9_42:
        .byte           N06   , En1 , v127
        .byte   W12
        .byte                   En1 , v077
        .byte   W06
        .byte                   En1 , v078
        .byte   W06
        .byte                   En1
        .byte   W12
        .byte                   En1 , v127
        .byte   W12
        .byte           N04   , As4 , v028
        .byte           N06   , En1 , v078
        .byte   W04
        .byte           N04   , As4 , v032
        .byte   W02
        .byte           N06   , En1 , v079
        .byte   W02
        .byte           N04   , As4 , v036
        .byte   W04
        .byte                   As4 , v040
        .byte           N06   , En1 , v127
        .byte   W04
        .byte           N04   , As4 , v044
        .byte   W04
        .byte                   As4 , v048
        .byte   W04
        .byte                   As4 , v052
        .byte           N06   , En1 , v078
        .byte   W04
        .byte           N04   , As4 , v057
        .byte   W02
        .byte           N06   , En1 , v077
        .byte   W02
        .byte           N04   , As4 , v061
        .byte   W04
        .byte                   As4 , v065
        .byte           N06   , En1 , v127
        .byte   W04
        .byte           N04   , As4 , v069
        .byte   W04
        .byte                   As4 , v073
        .byte   W04
        .byte   PEND
@ 043   ----------------------------------------
        .byte   PATT
         .word  _00___Random_Dungeon_Theme_3_9_5
@ 044   ----------------------------------------
        .byte   PATT
         .word  _00___Random_Dungeon_Theme_3_9_2
@ 045   ----------------------------------------
        .byte   PATT
         .word  _00___Random_Dungeon_Theme_3_9_5
@ 046   ----------------------------------------
        .byte   PATT
         .word  _00___Random_Dungeon_Theme_3_9_2
@ 047   ----------------------------------------
        .byte   PATT
         .word  _00___Random_Dungeon_Theme_3_9_5
@ 048   ----------------------------------------
        .byte   PATT
         .word  _00___Random_Dungeon_Theme_3_9_2
@ 049   ----------------------------------------
        .byte   PATT
         .word  _00___Random_Dungeon_Theme_3_9_5
@ 050   ----------------------------------------
        .byte   PATT
         .word  _00___Random_Dungeon_Theme_3_9_2
@ 051   ----------------------------------------
        .byte   PATT
         .word  _00___Random_Dungeon_Theme_3_9_5
@ 052   ----------------------------------------
        .byte   PATT
         .word  _00___Random_Dungeon_Theme_3_9_2
@ 053   ----------------------------------------
        .byte   PATT
         .word  _00___Random_Dungeon_Theme_3_9_5
@ 054   ----------------------------------------
        .byte   PATT
         .word  _00___Random_Dungeon_Theme_3_9_2
@ 055   ----------------------------------------
        .byte   PATT
         .word  _00___Random_Dungeon_Theme_3_9_5
@ 056   ----------------------------------------
        .byte   PATT
         .word  _00___Random_Dungeon_Theme_3_9_2
@ 057   ----------------------------------------
        .byte   PATT
         .word  _00___Random_Dungeon_Theme_3_9_5
@ 058   ----------------------------------------
        .byte   PATT
         .word  _00___Random_Dungeon_Theme_3_9_2
@ 059   ----------------------------------------
        .byte   PATT
         .word  _00___Random_Dungeon_Theme_3_9_21
@ 060   ----------------------------------------
        .byte   PATT
         .word  _00___Random_Dungeon_Theme_3_9_2
@ 061   ----------------------------------------
        .byte   PATT
         .word  _00___Random_Dungeon_Theme_3_9_23
@ 062   ----------------------------------------
        .byte   PATT
         .word  _00___Random_Dungeon_Theme_3_9_24
@ 063   ----------------------------------------
        .byte   PATT
         .word  _00___Random_Dungeon_Theme_3_9_23
@ 064   ----------------------------------------
        .byte   PATT
         .word  _00___Random_Dungeon_Theme_3_9_24
@ 065   ----------------------------------------
        .byte   PATT
         .word  _00___Random_Dungeon_Theme_3_9_23
@ 066   ----------------------------------------
        .byte   PATT
         .word  _00___Random_Dungeon_Theme_3_9_24
@ 067   ----------------------------------------
        .byte   PATT
         .word  _00___Random_Dungeon_Theme_3_9_23
@ 068   ----------------------------------------
        .byte   PATT
         .word  _00___Random_Dungeon_Theme_3_9_30
@ 069   ----------------------------------------
        .byte   PATT
         .word  _00___Random_Dungeon_Theme_3_9_5
@ 070   ----------------------------------------
        .byte   PATT
         .word  _00___Random_Dungeon_Theme_3_9_2
@ 071   ----------------------------------------
        .byte   PATT
         .word  _00___Random_Dungeon_Theme_3_9_2
@ 072   ----------------------------------------
        .byte   PATT
         .word  _00___Random_Dungeon_Theme_3_9_2
@ 073   ----------------------------------------
        .byte   PATT
         .word  _00___Random_Dungeon_Theme_3_9_2
@ 074   ----------------------------------------
        .byte   PATT
         .word  _00___Random_Dungeon_Theme_3_9_2
@ 075   ----------------------------------------
        .byte   PATT
         .word  _00___Random_Dungeon_Theme_3_9_2
@ 076   ----------------------------------------
        .byte   PATT
         .word  _00___Random_Dungeon_Theme_3_9_38
@ 077   ----------------------------------------
        .byte   PATT
         .word  _00___Random_Dungeon_Theme_3_9_39
@ 078   ----------------------------------------
        .byte   PATT
         .word  _00___Random_Dungeon_Theme_3_9_40
@ 079   ----------------------------------------
        .byte   PATT
         .word  _00___Random_Dungeon_Theme_3_9_2
@ 080   ----------------------------------------
        .byte   PATT
         .word  _00___Random_Dungeon_Theme_3_9_42
@ 081   ----------------------------------------
        .byte   FINE

@***************** Track 10 (Midi-Chn.10) *****************@

_00___Random_Dungeon_Theme_3_10:
        .byte   KEYSH , _00___Random_Dungeon_Theme_3_key+0
@ 000   ----------------------------------------
        .byte   W24
@ 001   ----------------------------------------
        .byte           PAN   , c_v+63
        .byte           VOL   , 45
        .byte           VOICE , 65
        .byte   W96
@ 002   ----------------------------------------
        .byte   W96
@ 003   ----------------------------------------
        .byte   W96
@ 004   ----------------------------------------
        .byte   W96
@ 005   ----------------------------------------
_00___Random_Dungeon_Theme_3_10_5:
        .byte   W24
        .byte           N12   , An2 , v127
        .byte   W18
        .byte           N06   , Dn3
        .byte   W06
        .byte                   Fs3
        .byte   W12
        .byte           N12   , Gn3
        .byte   W24
        .byte                   Gn3
        .byte   W12
        .byte   PEND
@ 006   ----------------------------------------
_00___Random_Dungeon_Theme_3_10_6:
        .byte   W12
        .byte           N06   , Gn3 , v127
        .byte   W12
        .byte           N12   , Fs3
        .byte   W18
        .byte           N06   , Dn3
        .byte   W06
        .byte                   An2
        .byte   W12
        .byte           N48   , Cn3
        .byte   W36
        .byte   PEND
@ 007   ----------------------------------------
        .byte   PATT
         .word  _00___Random_Dungeon_Theme_3_10_5
@ 008   ----------------------------------------
_00___Random_Dungeon_Theme_3_10_8:
        .byte   W12
        .byte           N06   , Gn3 , v127
        .byte   W12
        .byte           N12   , Fs3
        .byte   W18
        .byte           N06   , Dn3
        .byte   W06
        .byte                   An2
        .byte   W12
        .byte           N48   , Gn2
        .byte   W36
        .byte   PEND
@ 009   ----------------------------------------
        .byte   PATT
         .word  _00___Random_Dungeon_Theme_3_10_5
@ 010   ----------------------------------------
_00___Random_Dungeon_Theme_3_10_10:
        .byte   W12
        .byte           N06   , Gn3 , v127
        .byte   W12
        .byte           N12   , Fs3
        .byte   W18
        .byte           N06   , Dn3
        .byte   W06
        .byte                   An2
        .byte   W12
        .byte           N12   , Cn3
        .byte   W24
        .byte           N24
        .byte   W12
        .byte   PEND
@ 011   ----------------------------------------
_00___Random_Dungeon_Theme_3_10_11:
        .byte   W12
        .byte           N12   , Dn3 , v127
        .byte   W12
        .byte                   Bn2
        .byte   W18
        .byte           N06   , An2
        .byte   W06
        .byte                   Gn2
        .byte   W12
        .byte           TIE   , An2
        .byte   W36
        .byte   PEND
@ 012   ----------------------------------------
        .byte   W72
        .byte           EOT
        .byte   W24
@ 013   ----------------------------------------
        .byte   W96
@ 014   ----------------------------------------
        .byte   W96
@ 015   ----------------------------------------
        .byte   W96
@ 016   ----------------------------------------
        .byte   W96
@ 017   ----------------------------------------
        .byte   W96
@ 018   ----------------------------------------
        .byte   W96
@ 019   ----------------------------------------
        .byte   W96
@ 020   ----------------------------------------
        .byte   W96
@ 021   ----------------------------------------
        .byte   W96
@ 022   ----------------------------------------
        .byte   W96
@ 023   ----------------------------------------
        .byte   W96
@ 024   ----------------------------------------
        .byte   W96
@ 025   ----------------------------------------
_00___Random_Dungeon_Theme_3_10_25:
        .byte   W84
        .byte           N12   , Fn3 , v100
        .byte   W12
        .byte   PEND
@ 026   ----------------------------------------
_00___Random_Dungeon_Theme_3_10_26:
        .byte           N12   , En3 , v100
        .byte   W12
        .byte                   Fn3
        .byte   W12
        .byte           N24   , En3
        .byte   W24
        .byte           N36   , Dn3
        .byte   W36
        .byte           N12   , Cn3
        .byte   W12
        .byte   PEND
@ 027   ----------------------------------------
_00___Random_Dungeon_Theme_3_10_27:
        .byte           N12   , Gn2 , v100
        .byte   W12
        .byte                   Cn3
        .byte   W12
        .byte           N96   , As2
        .byte   W30
        .byte   W01
        .byte           VOL   , 44
        .byte   W03
        .byte                   43
        .byte   W06
        .byte                   42
        .byte   W06
        .byte                   41
        .byte   W06
        .byte                   40
        .byte   W03
        .byte                   39
        .byte   W08
        .byte                   38
        .byte   W04
        .byte                   37
        .byte   W05
        .byte   PEND
@ 028   ----------------------------------------
_00___Random_Dungeon_Theme_3_10_28:
        .byte   W01
        .byte           VOL   , 36
        .byte   W05
        .byte                   35
        .byte   W07
        .byte                   34
        .byte   W03
        .byte                   33
        .byte   W06
        .byte                   45
        .byte   W02
        .byte           N48   , Cn3 , v100
        .byte   W03
        .byte           VOL   , 44
        .byte   W03
        .byte                   43
        .byte   W04
        .byte                   42
        .byte   W06
        .byte                   41
        .byte   W05
        .byte                   40
        .byte   W04
        .byte                   39
        .byte   W06
        .byte                   38
        .byte   W03
        .byte                   37
        .byte   W06
        .byte                   36
        .byte   W05
        .byte                   35
        .byte   W03
        .byte           N48   , As2
        .byte   W01
        .byte           VOL   , 45
        .byte   W03
        .byte                   44
        .byte   W03
        .byte                   43
        .byte   W05
        .byte                   42
        .byte   W03
        .byte                   41
        .byte   W04
        .byte                   40
        .byte   W03
        .byte                   39
        .byte   W02
        .byte   PEND
@ 029   ----------------------------------------
_00___Random_Dungeon_Theme_3_10_29:
        .byte   W03
        .byte           VOL   , 38
        .byte   W03
        .byte                   37
        .byte   W03
        .byte                   36
        .byte   W04
        .byte                   35
        .byte   W05
        .byte                   34
        .byte   W01
        .byte                   33
        .byte   W05
        .byte                   35
        .byte           N56   , Cs3 , v100 , gtp2
        .byte   W01
        .byte           VOL   , 45
        .byte   W03
        .byte                   44
        .byte   W03
        .byte                   43
        .byte   W05
        .byte                   42
        .byte   W03
        .byte                   41
        .byte   W04
        .byte                   40
        .byte   W03
        .byte                   39
        .byte   W05
        .byte                   38
        .byte   W03
        .byte                   37
        .byte   W03
        .byte                   36
        .byte   W04
        .byte                   35
        .byte   W05
        .byte                   34
        .byte   W01
        .byte                   33
        .byte   W17
        .byte                   39
        .byte           N12   , Gs3
        .byte   W03
        .byte           VOL   , 40
        .byte   W04
        .byte                   41
        .byte   W05
        .byte   PEND
@ 030   ----------------------------------------
_00___Random_Dungeon_Theme_3_10_30:
        .byte           N12   , Gn3 , v100
        .byte   W01
        .byte           VOL   , 42
        .byte   W08
        .byte                   43
        .byte   W03
        .byte           N12   , Gs3
        .byte   W03
        .byte           VOL   , 44
        .byte   W03
        .byte                   45
        .byte   W06
        .byte           N24   , Gn3
        .byte   W24
        .byte                   Fn3
        .byte   W48
        .byte   PEND
@ 031   ----------------------------------------
        .byte   W96
@ 032   ----------------------------------------
        .byte   W96
@ 033   ----------------------------------------
        .byte   W96
@ 034   ----------------------------------------
        .byte   W96
@ 035   ----------------------------------------
        .byte   W96
@ 036   ----------------------------------------
        .byte   W96
@ 037   ----------------------------------------
        .byte   W96
@ 038   ----------------------------------------
        .byte   W96
@ 039   ----------------------------------------
_00___Random_Dungeon_Theme_3_10_39:
        .byte   W24
        .byte           N06   , An3 , v127
        .byte   W24
        .byte           TIE
        .byte   W48
        .byte   PEND
@ 040   ----------------------------------------
_00___Random_Dungeon_Theme_3_10_40:
        .byte   W06
        .byte           VOL   , 44
        .byte   W03
        .byte                   43
        .byte   W04
        .byte                   42
        .byte   W05
        .byte                   41
        .byte   W04
        .byte                   40
        .byte   W03
        .byte                   39
        .byte   W06
        .byte                   38
        .byte   W03
        .byte                   37
        .byte   W05
        .byte                   36
        .byte   W04
        .byte                   35
        .byte   W05
        .byte                   34
        .byte   W04
        .byte                   33
        .byte   W03
        .byte                   32
        .byte   W06
        .byte                   31
        .byte   W05
        .byte                   30
        .byte   W03
        .byte                   29
        .byte   W06
        .byte                   28
        .byte   W03
        .byte                   27
        .byte   W04
        .byte                   26
        .byte   W05
        .byte                   25
        .byte   W04
        .byte                   24
        .byte   W03
        .byte                   23
        .byte   W02
        .byte   PEND
@ 041   ----------------------------------------
_00___Random_Dungeon_Theme_3_10_41:
        .byte   W04
        .byte           VOL   , 22
        .byte   W05
        .byte                   21
        .byte   W01
        .byte                   20
        .byte   W06
        .byte                   19
        .byte   W05
        .byte                   18
        .byte   W03
        .byte           EOT   , An3
        .byte   W72
        .byte   PEND
@ 042   ----------------------------------------
        .byte   W24
        .byte           VOL   , 45
        .byte   W72
@ 043   ----------------------------------------
        .byte   PATT
         .word  _00___Random_Dungeon_Theme_3_10_5
@ 044   ----------------------------------------
        .byte   PATT
         .word  _00___Random_Dungeon_Theme_3_10_6
@ 045   ----------------------------------------
        .byte   PATT
         .word  _00___Random_Dungeon_Theme_3_10_5
@ 046   ----------------------------------------
        .byte   PATT
         .word  _00___Random_Dungeon_Theme_3_10_8
@ 047   ----------------------------------------
        .byte   PATT
         .word  _00___Random_Dungeon_Theme_3_10_5
@ 048   ----------------------------------------
        .byte   PATT
         .word  _00___Random_Dungeon_Theme_3_10_10
@ 049   ----------------------------------------
        .byte   PATT
         .word  _00___Random_Dungeon_Theme_3_10_11
@ 050   ----------------------------------------
        .byte   W72
        .byte           EOT   , An2
        .byte   W24
@ 051   ----------------------------------------
        .byte   W96
@ 052   ----------------------------------------
        .byte   W96
@ 053   ----------------------------------------
        .byte   W96
@ 054   ----------------------------------------
        .byte   W96
@ 055   ----------------------------------------
        .byte   W96
@ 056   ----------------------------------------
        .byte   W96
@ 057   ----------------------------------------
        .byte   W96
@ 058   ----------------------------------------
        .byte   W96
@ 059   ----------------------------------------
        .byte   W96
@ 060   ----------------------------------------
        .byte   W96
@ 061   ----------------------------------------
        .byte   W96
@ 062   ----------------------------------------
        .byte   W96
@ 063   ----------------------------------------
        .byte   PATT
         .word  _00___Random_Dungeon_Theme_3_10_25
@ 064   ----------------------------------------
        .byte   PATT
         .word  _00___Random_Dungeon_Theme_3_10_26
@ 065   ----------------------------------------
        .byte   PATT
         .word  _00___Random_Dungeon_Theme_3_10_27
@ 066   ----------------------------------------
        .byte   PATT
         .word  _00___Random_Dungeon_Theme_3_10_28
@ 067   ----------------------------------------
        .byte   PATT
         .word  _00___Random_Dungeon_Theme_3_10_29
@ 068   ----------------------------------------
        .byte   PATT
         .word  _00___Random_Dungeon_Theme_3_10_30
@ 069   ----------------------------------------
        .byte   W96
@ 070   ----------------------------------------
        .byte   W96
@ 071   ----------------------------------------
        .byte   W96
@ 072   ----------------------------------------
        .byte   W96
@ 073   ----------------------------------------
        .byte   W96
@ 074   ----------------------------------------
        .byte   W96
@ 075   ----------------------------------------
        .byte   W96
@ 076   ----------------------------------------
        .byte   W96
@ 077   ----------------------------------------
        .byte   PATT
         .word  _00___Random_Dungeon_Theme_3_10_39
@ 078   ----------------------------------------
        .byte   PATT
         .word  _00___Random_Dungeon_Theme_3_10_40
@ 079   ----------------------------------------
        .byte   PATT
         .word  _00___Random_Dungeon_Theme_3_10_41
@ 080   ----------------------------------------
        .byte   W24
        .byte           VOL   , 45
        .byte   W72
@ 081   ----------------------------------------
        .byte   FINE

@***************** Track 11 (Midi-Chn.11) *****************@

_00___Random_Dungeon_Theme_3_11:
        .byte   KEYSH , _00___Random_Dungeon_Theme_3_key+0
@ 000   ----------------------------------------
        .byte   W24
@ 001   ----------------------------------------
        .byte           PAN   , c_v+16
        .byte           VOL   , 74
        .byte           VOICE , 65
        .byte           N06   , Dn2 , v110
        .byte   W36
        .byte                   Dn2
        .byte   W24
        .byte                   Dn2
        .byte   W24
        .byte                   Dn2
        .byte   W12
@ 002   ----------------------------------------
_00___Random_Dungeon_Theme_3_11_2:
        .byte           N06   , Dn2 , v110
        .byte   W36
        .byte                   Dn2
        .byte   W24
        .byte                   Dn2
        .byte   W24
        .byte                   Dn2
        .byte   W12
        .byte   PEND
@ 003   ----------------------------------------
        .byte   PATT
         .word  _00___Random_Dungeon_Theme_3_11_2
@ 004   ----------------------------------------
        .byte   PATT
         .word  _00___Random_Dungeon_Theme_3_11_2
@ 005   ----------------------------------------
        .byte   PATT
         .word  _00___Random_Dungeon_Theme_3_11_2
@ 006   ----------------------------------------
        .byte   PATT
         .word  _00___Random_Dungeon_Theme_3_11_2
@ 007   ----------------------------------------
        .byte   PATT
         .word  _00___Random_Dungeon_Theme_3_11_2
@ 008   ----------------------------------------
        .byte   PATT
         .word  _00___Random_Dungeon_Theme_3_11_2
@ 009   ----------------------------------------
        .byte   PATT
         .word  _00___Random_Dungeon_Theme_3_11_2
@ 010   ----------------------------------------
        .byte   PATT
         .word  _00___Random_Dungeon_Theme_3_11_2
@ 011   ----------------------------------------
_00___Random_Dungeon_Theme_3_11_11:
        .byte           N06   , Dn2 , v110
        .byte   W36
        .byte                   Dn2
        .byte   W24
        .byte                   Dn2
        .byte           N18   , Gn2 , v127
        .byte           N18   , An2
        .byte   W18
        .byte           N06   , Gn2 , v060
        .byte           N06   , An2
        .byte   W06
        .byte                   Dn2 , v110
        .byte           N06   , Gn2 , v127
        .byte           N06   , An2
        .byte   W06
        .byte                   Gn2 , v060
        .byte           N06   , An2
        .byte   W06
        .byte   PEND
@ 012   ----------------------------------------
_00___Random_Dungeon_Theme_3_11_12:
        .byte           N06   , Dn2 , v110
        .byte           N12   , Cn3 , v127
        .byte           N12   , En3
        .byte   W12
        .byte           N06   , Cn3 , v060
        .byte           N06   , En3
        .byte   W06
        .byte                   Dn3 , v127
        .byte           N06   , Fs3
        .byte   W06
        .byte                   En3
        .byte           N06   , Gn3
        .byte   W06
        .byte                   En3 , v060
        .byte           N06   , Gn3
        .byte   W06
        .byte                   Dn2 , v110
        .byte           N48   , Dn3 , v127
        .byte           N48   , Fs3
        .byte   W24
        .byte           N06   , Dn2 , v110
        .byte   W24
        .byte                   Dn2
        .byte           N06   , Dn3 , v060
        .byte           N06   , Fs3
        .byte   W06
        .byte                   Dn3 , v040
        .byte           N06   , Fs3
        .byte   W06
        .byte   PEND
@ 013   ----------------------------------------
        .byte   PATT
         .word  _00___Random_Dungeon_Theme_3_11_2
@ 014   ----------------------------------------
        .byte   PATT
         .word  _00___Random_Dungeon_Theme_3_11_2
@ 015   ----------------------------------------
        .byte   PATT
         .word  _00___Random_Dungeon_Theme_3_11_2
@ 016   ----------------------------------------
        .byte   PATT
         .word  _00___Random_Dungeon_Theme_3_11_2
@ 017   ----------------------------------------
        .byte   PATT
         .word  _00___Random_Dungeon_Theme_3_11_2
@ 018   ----------------------------------------
        .byte   PATT
         .word  _00___Random_Dungeon_Theme_3_11_2
@ 019   ----------------------------------------
        .byte   PATT
         .word  _00___Random_Dungeon_Theme_3_11_11
@ 020   ----------------------------------------
        .byte   PATT
         .word  _00___Random_Dungeon_Theme_3_11_12
@ 021   ----------------------------------------
_00___Random_Dungeon_Theme_3_11_21:
        .byte           N06   , Dn2 , v110
        .byte   W36
        .byte                   Dn2
        .byte   W36
        .byte                   An1
        .byte           N12   , An2 , v127
        .byte           N12   , En3
        .byte   W12
        .byte           N06   , An1 , v110
        .byte   W06
        .byte           N04   , An2 , v127
        .byte           N04   , En3
        .byte   W06
        .byte   PEND
@ 022   ----------------------------------------
_00___Random_Dungeon_Theme_3_11_22:
        .byte           N06   , An1 , v110
        .byte           N96   , An2 , v127
        .byte           N96   , En3
        .byte   W36
        .byte           N06   , An1 , v110
        .byte   W24
        .byte                   An1
        .byte   W24
        .byte                   An1
        .byte   W12
        .byte   PEND
@ 023   ----------------------------------------
_00___Random_Dungeon_Theme_3_11_23:
        .byte           N06   , Gn1 , v110
        .byte   W24
        .byte                   Gn1
        .byte   W24
        .byte                   Gn1
        .byte   W24
        .byte                   Gn1
        .byte   W24
        .byte   PEND
@ 024   ----------------------------------------
        .byte   PATT
         .word  _00___Random_Dungeon_Theme_3_11_23
@ 025   ----------------------------------------
_00___Random_Dungeon_Theme_3_11_25:
        .byte           N06   , Fn1 , v110
        .byte   W24
        .byte                   Fn1
        .byte   W24
        .byte                   Fn1
        .byte   W24
        .byte                   Fn1
        .byte   W24
        .byte   PEND
@ 026   ----------------------------------------
        .byte   PATT
         .word  _00___Random_Dungeon_Theme_3_11_25
@ 027   ----------------------------------------
_00___Random_Dungeon_Theme_3_11_27:
        .byte           N06   , Ds2 , v110
        .byte   W24
        .byte                   Ds2
        .byte   W24
        .byte                   Ds2
        .byte   W24
        .byte                   Ds2
        .byte   W24
        .byte   PEND
@ 028   ----------------------------------------
        .byte   PATT
         .word  _00___Random_Dungeon_Theme_3_11_27
@ 029   ----------------------------------------
_00___Random_Dungeon_Theme_3_11_29:
        .byte           N06   , Cs2 , v110
        .byte   W24
        .byte                   Cs2
        .byte   W24
        .byte                   Cs2
        .byte   W24
        .byte                   Cs2
        .byte   W24
        .byte   PEND
@ 030   ----------------------------------------
        .byte   PATT
         .word  _00___Random_Dungeon_Theme_3_11_29
@ 031   ----------------------------------------
_00___Random_Dungeon_Theme_3_11_31:
        .byte           N06   , Cn1 , v127
        .byte   W36
        .byte                   Cn1
        .byte   W06
        .byte           N04   , Gn2 , v110
        .byte           N04   , Cn3
        .byte   W06
        .byte           N96   , Gn2
        .byte           N96   , Cn3
        .byte   W12
        .byte           N06   , Cn1 , v127
        .byte   W24
        .byte                   Cn1
        .byte   W12
        .byte   PEND
@ 032   ----------------------------------------
        .byte   PATT
         .word  _00___Random_Dungeon_Theme_3_0_31
@ 033   ----------------------------------------
_00___Random_Dungeon_Theme_3_11_33:
        .byte           N06   , As0 , v127
        .byte   W36
        .byte                   As0
        .byte   W06
        .byte           N04   , As2 , v110
        .byte           N04   , Dn3
        .byte   W06
        .byte           N96   , As2
        .byte           N96   , Dn3
        .byte   W12
        .byte           N06   , As0 , v127
        .byte   W24
        .byte                   As0
        .byte   W12
        .byte   PEND
@ 034   ----------------------------------------
        .byte   PATT
         .word  _00___Random_Dungeon_Theme_3_0_33
@ 035   ----------------------------------------
_00___Random_Dungeon_Theme_3_11_35:
        .byte           N06   , Ds1 , v127
        .byte   W36
        .byte                   Ds1
        .byte   W06
        .byte           N04   , As2 , v110
        .byte           N04   , Ds3
        .byte   W06
        .byte           N48   , As2
        .byte           N48   , Ds3
        .byte   W12
        .byte           N06   , Ds1 , v127
        .byte   W24
        .byte                   Ds1
        .byte   W12
        .byte   PEND
@ 036   ----------------------------------------
_00___Random_Dungeon_Theme_3_11_36:
        .byte           N06   , Fn1 , v127
        .byte   W18
        .byte           N04   , An2 , v110
        .byte           N04   , Cn3
        .byte   W06
        .byte           N48   , An2
        .byte           N48   , Cn3
        .byte   W12
        .byte           N06   , Fn1 , v127
        .byte   W24
        .byte                   Fn1
        .byte   W24
        .byte                   Fn1
        .byte   W12
        .byte   PEND
@ 037   ----------------------------------------
_00___Random_Dungeon_Theme_3_11_37:
        .byte           N06   , Gs1 , v127
        .byte   W18
        .byte           N04   , Cn3 , v110
        .byte           N04   , Fn3
        .byte   W06
        .byte           N48   , Cn3
        .byte           N48   , Fn3
        .byte   W12
        .byte           N06   , Gs1 , v127
        .byte   W24
        .byte                   Gs1
        .byte   W24
        .byte                   Gs1
        .byte   W12
        .byte   PEND
@ 038   ----------------------------------------
_00___Random_Dungeon_Theme_3_11_38:
        .byte           N06   , As1 , v127
        .byte   W18
        .byte           N04   , Dn3 , v110
        .byte           N04   , Fn3
        .byte   W06
        .byte           N24   , Dn3
        .byte           N24   , Fn3
        .byte   W12
        .byte           N06   , As1 , v127
        .byte   W12
        .byte                   Cn2
        .byte   W18
        .byte           N04   , En3 , v110
        .byte           N04   , Gn3
        .byte   W06
        .byte           N24   , En3
        .byte           N24   , Gn3
        .byte   W12
        .byte           N06   , Cn2 , v127
        .byte   W12
        .byte   PEND
@ 039   ----------------------------------------
_00___Random_Dungeon_Theme_3_11_39:
        .byte           N04   , Fs3 , v110
        .byte           N04   , An3
        .byte           N06   , Dn2
        .byte   W24
        .byte           TIE   , Fs3
        .byte           TIE   , An3
        .byte   W12
        .byte           N06   , Dn2
        .byte   W24
        .byte                   Dn2
        .byte   W24
        .byte                   Dn2
        .byte   W12
        .byte   PEND
@ 040   ----------------------------------------
        .byte   PATT
         .word  _00___Random_Dungeon_Theme_3_11_2
@ 041   ----------------------------------------
_00___Random_Dungeon_Theme_3_11_41:
        .byte           EOT   , Fs3
        .byte                   An3
        .byte           N06   , Dn2 , v110
        .byte   W36
        .byte                   Dn2
        .byte   W24
        .byte                   Dn2
        .byte   W24
        .byte                   Dn2
        .byte   W12
        .byte   PEND
@ 042   ----------------------------------------
        .byte   PATT
         .word  _00___Random_Dungeon_Theme_3_11_2
@ 043   ----------------------------------------
        .byte   PATT
         .word  _00___Random_Dungeon_Theme_3_11_2
@ 044   ----------------------------------------
        .byte   PATT
         .word  _00___Random_Dungeon_Theme_3_11_2
@ 045   ----------------------------------------
        .byte   PATT
         .word  _00___Random_Dungeon_Theme_3_11_2
@ 046   ----------------------------------------
        .byte   PATT
         .word  _00___Random_Dungeon_Theme_3_11_2
@ 047   ----------------------------------------
        .byte   PATT
         .word  _00___Random_Dungeon_Theme_3_11_2
@ 048   ----------------------------------------
        .byte   PATT
         .word  _00___Random_Dungeon_Theme_3_11_2
@ 049   ----------------------------------------
        .byte   PATT
         .word  _00___Random_Dungeon_Theme_3_11_11
@ 050   ----------------------------------------
        .byte   PATT
         .word  _00___Random_Dungeon_Theme_3_11_12
@ 051   ----------------------------------------
        .byte   PATT
         .word  _00___Random_Dungeon_Theme_3_11_2
@ 052   ----------------------------------------
        .byte   PATT
         .word  _00___Random_Dungeon_Theme_3_11_2
@ 053   ----------------------------------------
        .byte   PATT
         .word  _00___Random_Dungeon_Theme_3_11_2
@ 054   ----------------------------------------
        .byte   PATT
         .word  _00___Random_Dungeon_Theme_3_11_2
@ 055   ----------------------------------------
        .byte   PATT
         .word  _00___Random_Dungeon_Theme_3_11_2
@ 056   ----------------------------------------
        .byte   PATT
         .word  _00___Random_Dungeon_Theme_3_11_2
@ 057   ----------------------------------------
        .byte   PATT
         .word  _00___Random_Dungeon_Theme_3_11_11
@ 058   ----------------------------------------
        .byte   PATT
         .word  _00___Random_Dungeon_Theme_3_11_12
@ 059   ----------------------------------------
        .byte   PATT
         .word  _00___Random_Dungeon_Theme_3_11_21
@ 060   ----------------------------------------
        .byte   PATT
         .word  _00___Random_Dungeon_Theme_3_11_22
@ 061   ----------------------------------------
        .byte   PATT
         .word  _00___Random_Dungeon_Theme_3_11_23
@ 062   ----------------------------------------
        .byte   PATT
         .word  _00___Random_Dungeon_Theme_3_11_23
@ 063   ----------------------------------------
        .byte   PATT
         .word  _00___Random_Dungeon_Theme_3_11_25
@ 064   ----------------------------------------
        .byte   PATT
         .word  _00___Random_Dungeon_Theme_3_11_25
@ 065   ----------------------------------------
        .byte   PATT
         .word  _00___Random_Dungeon_Theme_3_11_27
@ 066   ----------------------------------------
        .byte   PATT
         .word  _00___Random_Dungeon_Theme_3_11_27
@ 067   ----------------------------------------
        .byte   PATT
         .word  _00___Random_Dungeon_Theme_3_11_29
@ 068   ----------------------------------------
        .byte   PATT
         .word  _00___Random_Dungeon_Theme_3_11_29
@ 069   ----------------------------------------
        .byte   PATT
         .word  _00___Random_Dungeon_Theme_3_11_31
@ 070   ----------------------------------------
        .byte   PATT
         .word  _00___Random_Dungeon_Theme_3_0_31
@ 071   ----------------------------------------
        .byte   PATT
         .word  _00___Random_Dungeon_Theme_3_11_33
@ 072   ----------------------------------------
        .byte   PATT
         .word  _00___Random_Dungeon_Theme_3_0_33
@ 073   ----------------------------------------
        .byte   PATT
         .word  _00___Random_Dungeon_Theme_3_11_35
@ 074   ----------------------------------------
        .byte   PATT
         .word  _00___Random_Dungeon_Theme_3_11_36
@ 075   ----------------------------------------
        .byte   PATT
         .word  _00___Random_Dungeon_Theme_3_11_37
@ 076   ----------------------------------------
        .byte   PATT
         .word  _00___Random_Dungeon_Theme_3_11_38
@ 077   ----------------------------------------
        .byte   PATT
         .word  _00___Random_Dungeon_Theme_3_11_39
@ 078   ----------------------------------------
        .byte   PATT
         .word  _00___Random_Dungeon_Theme_3_11_2
@ 079   ----------------------------------------
        .byte   PATT
         .word  _00___Random_Dungeon_Theme_3_11_41
@ 080   ----------------------------------------
        .byte   PATT
         .word  _00___Random_Dungeon_Theme_3_11_2
@ 081   ----------------------------------------
        .byte   FINE

@***************** Track 12 (Midi-Chn.12) *****************@

_00___Random_Dungeon_Theme_3_12:
        .byte   KEYSH , _00___Random_Dungeon_Theme_3_key+0
@ 000   ----------------------------------------
        .byte   W24
@ 001   ----------------------------------------
        .byte           VOL   , 53
        .byte           VOICE , 48
        .byte   W06
        .byte           N06   , Fs3 , v110
        .byte   W06
        .byte                   Dn1 , v127
        .byte   W06
        .byte                   Fs3 , v074
        .byte   W12
        .byte                   Fs3
        .byte   W12
        .byte                   Gn3 , v110
        .byte   W06
        .byte                   Dn1 , v127
        .byte   W06
        .byte                   Gn3 , v074
        .byte   W12
        .byte                   Gn3 , v110
        .byte   W06
        .byte                   Dn1 , v127
        .byte   W06
        .byte                   Gn3 , v074
        .byte   W12
        .byte                   Gn3 , v110
        .byte   W06
@ 002   ----------------------------------------
_00___Random_Dungeon_Theme_3_12_2:
        .byte           N06   , Dn1 , v127
        .byte   W06
        .byte                   Fs3 , v110
        .byte   W06
        .byte                   Dn1 , v127
        .byte   W06
        .byte                   Fs3 , v074
        .byte   W12
        .byte                   Fs3
        .byte   W12
        .byte                   En3 , v110
        .byte   W06
        .byte                   Dn1 , v127
        .byte   W06
        .byte                   En3 , v074
        .byte   W12
        .byte                   En3 , v110
        .byte   W06
        .byte                   Dn1 , v127
        .byte   W06
        .byte                   En3 , v074
        .byte   W12
        .byte                   En3 , v110
        .byte   W06
        .byte   PEND
@ 003   ----------------------------------------
        .byte                   Dn1 , v127
        .byte   W06
        .byte                   Fs3 , v110
        .byte   W06
        .byte                   Dn1 , v127
        .byte   W06
        .byte                   Fs3 , v074
        .byte   W12
        .byte                   Fs3
        .byte   W12
        .byte                   Gn3 , v110
        .byte   W06
        .byte                   Dn1 , v127
        .byte   W06
        .byte                   Gn3 , v074
        .byte   W12
        .byte                   Gn3 , v110
        .byte   W06
        .byte                   Dn1 , v127
        .byte   W06
        .byte                   Gn3 , v074
        .byte   W12
        .byte                   Gn3 , v110
        .byte   W06
@ 004   ----------------------------------------
        .byte   PATT
         .word  _00___Random_Dungeon_Theme_3_12_2
@ 005   ----------------------------------------
_00___Random_Dungeon_Theme_3_12_5:
        .byte           N06   , Dn1 , v127
        .byte   W06
        .byte                   Dn3 , v110
        .byte   W06
        .byte                   Dn1 , v127
        .byte   W06
        .byte                   Dn3 , v074
        .byte   W12
        .byte                   Dn3
        .byte   W12
        .byte                   Dn3 , v110
        .byte   W06
        .byte                   Dn1 , v127
        .byte   W06
        .byte                   Dn3 , v074
        .byte   W12
        .byte                   Dn3 , v110
        .byte   W06
        .byte                   Dn1 , v127
        .byte   W06
        .byte                   Dn3 , v074
        .byte   W12
        .byte                   Dn3 , v110
        .byte   W06
        .byte   PEND
@ 006   ----------------------------------------
_00___Random_Dungeon_Theme_3_12_6:
        .byte           N06   , Dn1 , v127
        .byte   W06
        .byte                   Dn3 , v110
        .byte   W06
        .byte                   Dn1 , v127
        .byte   W06
        .byte                   Dn3 , v074
        .byte   W12
        .byte                   Dn3
        .byte   W12
        .byte                   Cn3 , v110
        .byte   W06
        .byte                   Dn1 , v127
        .byte   W06
        .byte                   Cn3 , v074
        .byte   W12
        .byte                   Cn3 , v110
        .byte   W06
        .byte                   Dn1 , v127
        .byte   W06
        .byte                   Cn3 , v074
        .byte   W12
        .byte                   Cn3 , v110
        .byte   W06
        .byte   PEND
@ 007   ----------------------------------------
        .byte   PATT
         .word  _00___Random_Dungeon_Theme_3_12_5
@ 008   ----------------------------------------
        .byte   PATT
         .word  _00___Random_Dungeon_Theme_3_12_6
@ 009   ----------------------------------------
        .byte   PATT
         .word  _00___Random_Dungeon_Theme_3_12_5
@ 010   ----------------------------------------
        .byte   PATT
         .word  _00___Random_Dungeon_Theme_3_12_6
@ 011   ----------------------------------------
_00___Random_Dungeon_Theme_3_12_11:
        .byte           N06   , Dn1 , v127
        .byte   W06
        .byte                   Dn3 , v110
        .byte   W06
        .byte                   Gn1 , v127
        .byte   W06
        .byte                   Dn3 , v074
        .byte   W12
        .byte                   Dn3
        .byte   W12
        .byte                   Dn3 , v110
        .byte   W06
        .byte                   Dn1 , v127
        .byte   W06
        .byte                   Dn3 , v074
        .byte   W12
        .byte                   Dn3 , v110
        .byte   W06
        .byte                   Dn1 , v127
        .byte   W06
        .byte                   Dn3 , v074
        .byte   W12
        .byte                   Dn3 , v110
        .byte   W06
        .byte   PEND
@ 012   ----------------------------------------
        .byte   PATT
         .word  _00___Random_Dungeon_Theme_3_12_5
@ 013   ----------------------------------------
        .byte   W96
@ 014   ----------------------------------------
        .byte   W96
@ 015   ----------------------------------------
        .byte   W96
@ 016   ----------------------------------------
        .byte   W96
@ 017   ----------------------------------------
        .byte   W96
@ 018   ----------------------------------------
        .byte   W96
@ 019   ----------------------------------------
        .byte   W96
@ 020   ----------------------------------------
        .byte   W96
@ 021   ----------------------------------------
        .byte   W72
        .byte           VOL   , 83
        .byte   W24
@ 022   ----------------------------------------
_00___Random_Dungeon_Theme_3_12_22:
        .byte   W60
        .byte   W03
        .byte           VOL   , 74
        .byte   W09
        .byte           N24   , An2 , v127
        .byte   W12
        .byte           VOL   , 75
        .byte   W12
        .byte   PEND
@ 023   ----------------------------------------
_00___Random_Dungeon_Theme_3_12_23:
        .byte           N60   , Bn2 , v127
        .byte   W09
        .byte           VOL   , 76
        .byte   W15
        .byte                   77
        .byte   W06
        .byte                   78
        .byte   W06
        .byte                   79
        .byte   W09
        .byte                   80
        .byte   W09
        .byte                   81
        .byte   W03
        .byte                   82
        .byte   W03
        .byte                   83
        .byte           N12   , Dn3
        .byte   W12
        .byte                   Cs3
        .byte   W12
        .byte                   Dn3
        .byte   W12
        .byte   PEND
@ 024   ----------------------------------------
_00___Random_Dungeon_Theme_3_12_24:
        .byte           N24   , Cs3 , v127
        .byte   W24
        .byte           N48   , Bn2
        .byte   W48
        .byte           N24   , An2
        .byte   W24
        .byte   PEND
@ 025   ----------------------------------------
_00___Random_Dungeon_Theme_3_12_25:
        .byte           N24   , Gn2 , v127
        .byte   W24
        .byte                   An2
        .byte   W24
        .byte           N36   , En3
        .byte   W36
        .byte           N12   , An2
        .byte   W12
        .byte   PEND
@ 026   ----------------------------------------
_00___Random_Dungeon_Theme_3_12_26:
        .byte           N72   , En3 , v127
        .byte   W24
        .byte           VOL   , 82
        .byte   W03
        .byte                   81
        .byte   W06
        .byte                   80
        .byte   W12
        .byte                   79
        .byte   W09
        .byte                   78
        .byte   W03
        .byte                   77
        .byte   W03
        .byte                   76
        .byte   W06
        .byte                   75
        .byte   W06
        .byte                   73
        .byte           N24   , Cn3
        .byte   W03
        .byte           VOL   , 76
        .byte   W03
        .byte                   77
        .byte   W03
        .byte                   79
        .byte   W06
        .byte                   80
        .byte   W06
        .byte                   81
        .byte   W03
        .byte   PEND
@ 027   ----------------------------------------
_00___Random_Dungeon_Theme_3_12_27:
        .byte           N60   , Gn3 , v127
        .byte   W03
        .byte           VOL   , 83
        .byte   W56
        .byte   W01
        .byte           N12   , As3
        .byte   W12
        .byte                   An3
        .byte   W12
        .byte                   As3
        .byte   W12
        .byte   PEND
@ 028   ----------------------------------------
_00___Random_Dungeon_Theme_3_12_28:
        .byte           N24   , An3 , v127
        .byte   W24
        .byte           N48   , Gn3
        .byte   W48
        .byte           N24   , Fn3
        .byte   W24
        .byte   PEND
@ 029   ----------------------------------------
_00___Random_Dungeon_Theme_3_12_29:
        .byte           N24   , Ds3 , v127
        .byte   W24
        .byte                   Fn3
        .byte   W24
        .byte           N36   , Cn4
        .byte   W36
        .byte           N12   , Fn3
        .byte   W12
        .byte   PEND
@ 030   ----------------------------------------
_00___Random_Dungeon_Theme_3_12_30:
        .byte           N96   , Cn4 , v127
        .byte   W15
        .byte           VOL   , 82
        .byte   W12
        .byte                   81
        .byte   W06
        .byte                   80
        .byte   W06
        .byte                   79
        .byte   W09
        .byte                   77
        .byte   W03
        .byte                   76
        .byte   W06
        .byte                   75
        .byte   W03
        .byte                   74
        .byte   W03
        .byte                   72
        .byte   W03
        .byte                   71
        .byte   W03
        .byte                   70
        .byte   W03
        .byte                   69
        .byte   W03
        .byte                   67
        .byte   W03
        .byte                   66
        .byte   W03
        .byte                   64
        .byte   W03
        .byte                   63
        .byte   W03
        .byte                   61
        .byte   W03
        .byte                   60
        .byte   W03
        .byte                   57
        .byte   W03
        .byte   PEND
@ 031   ----------------------------------------
_00___Random_Dungeon_Theme_3_12_31:
        .byte           N96   , Gn3 , v100
        .byte   W03
        .byte           VOL   , 62
        .byte   W03
        .byte                   65
        .byte   W03
        .byte                   66
        .byte   W03
        .byte                   68
        .byte   W03
        .byte                   69
        .byte   W03
        .byte                   70
        .byte   W03
        .byte                   71
        .byte   W03
        .byte                   72
        .byte   W03
        .byte                   73
        .byte   W03
        .byte                   74
        .byte   W03
        .byte                   75
        .byte   W03
        .byte                   76
        .byte   W06
        .byte                   77
        .byte   W03
        .byte                   78
        .byte   W03
        .byte                   79
        .byte   W06
        .byte                   80
        .byte   W06
        .byte                   81
        .byte   W03
        .byte                   82
        .byte   W03
        .byte                   83
        .byte   W30
        .byte   PEND
@ 032   ----------------------------------------
_00___Random_Dungeon_Theme_3_12_32:
        .byte           N48   , Fs3 , v100
        .byte   W48
        .byte                   En3
        .byte   W48
        .byte   PEND
@ 033   ----------------------------------------
_00___Random_Dungeon_Theme_3_12_33:
        .byte           N48   , Dn3 , v100
        .byte   W48
        .byte                   Cn3
        .byte   W48
        .byte   PEND
@ 034   ----------------------------------------
_00___Random_Dungeon_Theme_3_12_34:
        .byte           N48   , As2 , v100
        .byte   W48
        .byte                   An2
        .byte   W48
        .byte   PEND
@ 035   ----------------------------------------
        .byte           N96   , Gn2
        .byte   W96
@ 036   ----------------------------------------
        .byte                   An2
        .byte   W96
@ 037   ----------------------------------------
_00___Random_Dungeon_Theme_3_12_37:
        .byte           N12   , As2 , v106
        .byte   W12
        .byte                   Cn3 , v111
        .byte   W12
        .byte                   Dn3 , v113
        .byte   W12
        .byte                   Ds3 , v115
        .byte   W12
        .byte                   Fn3 , v117
        .byte   W12
        .byte                   Gn3 , v118
        .byte   W12
        .byte                   Gs3 , v119
        .byte   W12
        .byte                   As3 , v120
        .byte   W12
        .byte   PEND
@ 038   ----------------------------------------
_00___Random_Dungeon_Theme_3_12_38:
        .byte           N12   , Fn3 , v121
        .byte   W12
        .byte                   Gn3 , v122
        .byte   W12
        .byte                   Gs3 , v123
        .byte   W12
        .byte                   As3 , v124
        .byte   W12
        .byte                   Cn4 , v125
        .byte   W12
        .byte                   Dn4
        .byte   W12
        .byte                   En4 , v127
        .byte   W12
        .byte                   Cn4
        .byte   W12
        .byte   PEND
@ 039   ----------------------------------------
        .byte   W96
@ 040   ----------------------------------------
        .byte           VOL   , 41
        .byte   W96
@ 041   ----------------------------------------
        .byte   W96
@ 042   ----------------------------------------
        .byte   W96
@ 043   ----------------------------------------
        .byte   PATT
         .word  _00___Random_Dungeon_Theme_3_12_5
@ 044   ----------------------------------------
        .byte   PATT
         .word  _00___Random_Dungeon_Theme_3_12_6
@ 045   ----------------------------------------
        .byte   PATT
         .word  _00___Random_Dungeon_Theme_3_12_5
@ 046   ----------------------------------------
        .byte   PATT
         .word  _00___Random_Dungeon_Theme_3_12_6
@ 047   ----------------------------------------
        .byte   PATT
         .word  _00___Random_Dungeon_Theme_3_12_5
@ 048   ----------------------------------------
        .byte   PATT
         .word  _00___Random_Dungeon_Theme_3_12_6
@ 049   ----------------------------------------
        .byte   PATT
         .word  _00___Random_Dungeon_Theme_3_12_11
@ 050   ----------------------------------------
        .byte   PATT
         .word  _00___Random_Dungeon_Theme_3_12_5
@ 051   ----------------------------------------
        .byte   W96
@ 052   ----------------------------------------
        .byte   W96
@ 053   ----------------------------------------
        .byte   W96
@ 054   ----------------------------------------
        .byte   W96
@ 055   ----------------------------------------
        .byte   W96
@ 056   ----------------------------------------
        .byte   W96
@ 057   ----------------------------------------
        .byte   W96
@ 058   ----------------------------------------
        .byte   W96
@ 059   ----------------------------------------
        .byte   W72
        .byte           VOL   , 83
        .byte   W24
@ 060   ----------------------------------------
        .byte   PATT
         .word  _00___Random_Dungeon_Theme_3_12_22
@ 061   ----------------------------------------
        .byte   PATT
         .word  _00___Random_Dungeon_Theme_3_12_23
@ 062   ----------------------------------------
        .byte   PATT
         .word  _00___Random_Dungeon_Theme_3_12_24
@ 063   ----------------------------------------
        .byte   PATT
         .word  _00___Random_Dungeon_Theme_3_12_25
@ 064   ----------------------------------------
        .byte   PATT
         .word  _00___Random_Dungeon_Theme_3_12_26
@ 065   ----------------------------------------
        .byte   PATT
         .word  _00___Random_Dungeon_Theme_3_12_27
@ 066   ----------------------------------------
        .byte   PATT
         .word  _00___Random_Dungeon_Theme_3_12_28
@ 067   ----------------------------------------
        .byte   PATT
         .word  _00___Random_Dungeon_Theme_3_12_29
@ 068   ----------------------------------------
        .byte   PATT
         .word  _00___Random_Dungeon_Theme_3_12_30
@ 069   ----------------------------------------
        .byte   PATT
         .word  _00___Random_Dungeon_Theme_3_12_31
@ 070   ----------------------------------------
        .byte   PATT
         .word  _00___Random_Dungeon_Theme_3_12_32
@ 071   ----------------------------------------
        .byte   PATT
         .word  _00___Random_Dungeon_Theme_3_12_33
@ 072   ----------------------------------------
        .byte   PATT
         .word  _00___Random_Dungeon_Theme_3_12_34
@ 073   ----------------------------------------
        .byte           N96   , Gn2 , v100
        .byte   W96
@ 074   ----------------------------------------
        .byte                   An2
        .byte   W96
@ 075   ----------------------------------------
        .byte   PATT
         .word  _00___Random_Dungeon_Theme_3_12_37
@ 076   ----------------------------------------
        .byte   PATT
         .word  _00___Random_Dungeon_Theme_3_12_38
@ 077   ----------------------------------------
        .byte   W96
@ 078   ----------------------------------------
        .byte           VOL   , 41
        .byte   W96
@ 079   ----------------------------------------
        .byte   W96
@ 080   ----------------------------------------
        .byte   W96
@ 081   ----------------------------------------
        .byte   FINE

@***************** Track 13 (Midi-Chn.13) *****************@

_00___Random_Dungeon_Theme_3_13:
        .byte   KEYSH , _00___Random_Dungeon_Theme_3_key+0
@ 000   ----------------------------------------
        .byte   W24
@ 001   ----------------------------------------
        .byte           PAN   , c_v-64
        .byte           VOL   , 41
        .byte           VOICE , 48
        .byte   W06
        .byte           N06   , Dn3 , v110
        .byte   W12
        .byte                   Dn3 , v074
        .byte   W12
        .byte                   Dn3
        .byte   W12
        .byte                   Dn3 , v110
        .byte   W12
        .byte                   Dn3 , v074
        .byte   W12
        .byte                   Dn3 , v110
        .byte   W12
        .byte                   Dn3 , v074
        .byte   W12
        .byte                   Dn3 , v110
        .byte   W06
@ 002   ----------------------------------------
_00___Random_Dungeon_Theme_3_13_2:
        .byte   W06
        .byte           N06   , Dn3 , v110
        .byte   W12
        .byte                   Dn3 , v074
        .byte   W12
        .byte                   Dn3
        .byte   W12
        .byte                   Cn3 , v110
        .byte   W12
        .byte                   Cn3 , v074
        .byte   W12
        .byte                   Cn3 , v110
        .byte   W12
        .byte                   Cn3 , v074
        .byte   W12
        .byte                   Cn3 , v110
        .byte   W06
        .byte   PEND
@ 003   ----------------------------------------
        .byte   W06
        .byte                   Dn3
        .byte   W12
        .byte                   Dn3 , v074
        .byte   W12
        .byte                   Dn3
        .byte   W12
        .byte                   Dn3 , v110
        .byte   W12
        .byte                   Dn3 , v074
        .byte   W12
        .byte                   Dn3 , v110
        .byte   W12
        .byte                   Dn3 , v074
        .byte   W12
        .byte                   Dn3 , v110
        .byte   W06
@ 004   ----------------------------------------
        .byte   PATT
         .word  _00___Random_Dungeon_Theme_3_13_2
@ 005   ----------------------------------------
_00___Random_Dungeon_Theme_3_13_5:
        .byte   W06
        .byte           N06   , An2 , v110
        .byte   W12
        .byte                   An2 , v074
        .byte   W12
        .byte                   An2
        .byte   W12
        .byte                   An2 , v110
        .byte   W12
        .byte                   An2 , v074
        .byte   W12
        .byte                   An2 , v110
        .byte   W12
        .byte                   An2 , v074
        .byte   W12
        .byte                   An2 , v110
        .byte   W06
        .byte   PEND
@ 006   ----------------------------------------
_00___Random_Dungeon_Theme_3_13_6:
        .byte   W06
        .byte           N06   , An2 , v110
        .byte   W12
        .byte                   An2 , v074
        .byte   W12
        .byte                   An2
        .byte   W12
        .byte                   Gn2 , v110
        .byte   W12
        .byte                   Gn2 , v074
        .byte   W12
        .byte                   Gn2 , v110
        .byte   W12
        .byte                   Gn2 , v074
        .byte   W12
        .byte                   Gn2 , v110
        .byte   W06
        .byte   PEND
@ 007   ----------------------------------------
        .byte   PATT
         .word  _00___Random_Dungeon_Theme_3_13_5
@ 008   ----------------------------------------
        .byte   PATT
         .word  _00___Random_Dungeon_Theme_3_13_6
@ 009   ----------------------------------------
        .byte   PATT
         .word  _00___Random_Dungeon_Theme_3_13_5
@ 010   ----------------------------------------
        .byte   PATT
         .word  _00___Random_Dungeon_Theme_3_13_6
@ 011   ----------------------------------------
_00___Random_Dungeon_Theme_3_13_11:
        .byte   W06
        .byte           N06   , Bn2 , v110
        .byte   W12
        .byte                   Bn2 , v074
        .byte   W12
        .byte                   Bn2
        .byte   W12
        .byte                   An2 , v110
        .byte   W12
        .byte                   An2 , v074
        .byte   W12
        .byte                   An2 , v110
        .byte   W12
        .byte                   An2 , v074
        .byte   W12
        .byte                   An2 , v110
        .byte   W06
        .byte   PEND
@ 012   ----------------------------------------
_00___Random_Dungeon_Theme_3_13_12:
        .byte   W06
        .byte           N06   , Gn2 , v110
        .byte   W12
        .byte                   Gn2 , v074
        .byte   W12
        .byte                   Gn2
        .byte   W12
        .byte                   An2 , v110
        .byte   W12
        .byte                   An2 , v074
        .byte   W12
        .byte                   An2 , v110
        .byte   W12
        .byte                   An2 , v074
        .byte   W12
        .byte                   An2 , v110
        .byte   W06
        .byte   PEND
@ 013   ----------------------------------------
        .byte   W96
@ 014   ----------------------------------------
        .byte   W96
@ 015   ----------------------------------------
        .byte   W96
@ 016   ----------------------------------------
        .byte   W96
@ 017   ----------------------------------------
        .byte   W96
@ 018   ----------------------------------------
        .byte   W96
@ 019   ----------------------------------------
        .byte   W96
@ 020   ----------------------------------------
        .byte   W96
@ 021   ----------------------------------------
        .byte   W96
@ 022   ----------------------------------------
_00___Random_Dungeon_Theme_3_13_22:
        .byte   W72
        .byte   W03
        .byte           VOL   , 37
        .byte   W09
        .byte           N24   , An2 , v127
        .byte   W12
        .byte   PEND
@ 023   ----------------------------------------
_00___Random_Dungeon_Theme_3_13_23:
        .byte   W12
        .byte           N60   , Bn2 , v127
        .byte   W09
        .byte           VOL   , 38
        .byte   W15
        .byte                   39
        .byte   W21
        .byte                   40
        .byte   W09
        .byte                   41
        .byte   W06
        .byte           N12   , Dn3
        .byte   W12
        .byte                   Cs3
        .byte   W12
        .byte   PEND
@ 024   ----------------------------------------
_00___Random_Dungeon_Theme_3_13_24:
        .byte           N12   , Dn3 , v127
        .byte   W12
        .byte           N24   , Cs3
        .byte   W24
        .byte           N48   , Bn2
        .byte   W48
        .byte           N24   , An2
        .byte   W12
        .byte   PEND
@ 025   ----------------------------------------
_00___Random_Dungeon_Theme_3_13_25:
        .byte   W12
        .byte           N24   , Gn2 , v127
        .byte   W24
        .byte                   An2
        .byte   W24
        .byte           N36   , En3
        .byte   W36
        .byte   PEND
@ 026   ----------------------------------------
_00___Random_Dungeon_Theme_3_13_26:
        .byte           N12   , An2 , v127
        .byte   W12
        .byte           N72   , En3
        .byte   W32
        .byte   W01
        .byte           VOL   , 40
        .byte   W12
        .byte                   39
        .byte   W15
        .byte                   38
        .byte   W06
        .byte                   37
        .byte   W06
        .byte           N24   , Cn3
        .byte   W03
        .byte           VOL   , 38
        .byte   W03
        .byte                   39
        .byte   W06
        .byte   PEND
@ 027   ----------------------------------------
_00___Random_Dungeon_Theme_3_13_27:
        .byte   W03
        .byte           VOL   , 40
        .byte   W06
        .byte                   41
        .byte   W03
        .byte           N60   , Gn3 , v127
        .byte   W60
        .byte           N12   , As3
        .byte   W12
        .byte                   An3
        .byte   W12
        .byte   PEND
@ 028   ----------------------------------------
_00___Random_Dungeon_Theme_3_13_28:
        .byte           N12   , As3 , v127
        .byte   W12
        .byte           N24   , An3
        .byte   W24
        .byte           N48   , Gn3
        .byte   W48
        .byte           N24   , Fn3
        .byte   W12
        .byte   PEND
@ 029   ----------------------------------------
_00___Random_Dungeon_Theme_3_13_29:
        .byte   W12
        .byte           N24   , Ds3 , v127
        .byte   W24
        .byte                   Fn3
        .byte   W24
        .byte           N36   , Cn4
        .byte   W36
        .byte   PEND
@ 030   ----------------------------------------
_00___Random_Dungeon_Theme_3_13_30:
        .byte           N12   , Fn3 , v127
        .byte   W12
        .byte           N96   , Cn4
        .byte   W32
        .byte   W01
        .byte           VOL   , 40
        .byte   W06
        .byte                   39
        .byte   W12
        .byte                   38
        .byte   W06
        .byte                   37
        .byte   W06
        .byte                   36
        .byte   W03
        .byte                   35
        .byte   W06
        .byte                   34
        .byte   W03
        .byte                   33
        .byte   W06
        .byte                   32
        .byte   W03
        .byte   PEND
@ 031   ----------------------------------------
_00___Random_Dungeon_Theme_3_13_31:
        .byte           VOL   , 31
        .byte   W03
        .byte                   30
        .byte   W06
        .byte                   29
        .byte   W03
        .byte                   28
        .byte           N96   , Gn3 , v100
        .byte   W03
        .byte           VOL   , 31
        .byte   W03
        .byte                   32
        .byte   W03
        .byte                   33
        .byte   W03
        .byte                   34
        .byte   W03
        .byte                   35
        .byte   W09
        .byte                   36
        .byte   W03
        .byte                   37
        .byte   W09
        .byte                   38
        .byte   W06
        .byte                   39
        .byte   W12
        .byte                   40
        .byte   W06
        .byte                   41
        .byte   W24
        .byte   PEND
@ 032   ----------------------------------------
_00___Random_Dungeon_Theme_3_13_32:
        .byte   W12
        .byte           N48   , Fs3 , v100
        .byte   W48
        .byte                   En3
        .byte   W36
        .byte   PEND
@ 033   ----------------------------------------
_00___Random_Dungeon_Theme_3_13_33:
        .byte   W12
        .byte           N48   , Dn3 , v100
        .byte   W48
        .byte                   Cn3
        .byte   W36
        .byte   PEND
@ 034   ----------------------------------------
_00___Random_Dungeon_Theme_3_13_34:
        .byte   W12
        .byte           N48   , As2 , v100
        .byte   W48
        .byte                   An2
        .byte   W36
        .byte   PEND
@ 035   ----------------------------------------
_00___Random_Dungeon_Theme_3_13_35:
        .byte   W12
        .byte           N96   , Gn2 , v100
        .byte   W84
        .byte   PEND
@ 036   ----------------------------------------
_00___Random_Dungeon_Theme_3_13_36:
        .byte   W12
        .byte           N96   , An2 , v100
        .byte   W84
        .byte   PEND
@ 037   ----------------------------------------
_00___Random_Dungeon_Theme_3_13_37:
        .byte   W12
        .byte           N12   , As2 , v106
        .byte   W12
        .byte                   Cn3 , v111
        .byte   W12
        .byte                   Dn3 , v113
        .byte   W12
        .byte                   Ds3 , v115
        .byte   W12
        .byte                   Fn3 , v117
        .byte   W12
        .byte                   Gn3 , v118
        .byte   W12
        .byte                   Gs3 , v119
        .byte   W12
        .byte   PEND
@ 038   ----------------------------------------
_00___Random_Dungeon_Theme_3_13_38:
        .byte           N12   , As3 , v120
        .byte   W12
        .byte                   Fn3 , v121
        .byte   W12
        .byte                   Gn3 , v122
        .byte   W12
        .byte                   Gs3 , v123
        .byte   W12
        .byte                   As3 , v124
        .byte   W12
        .byte                   Cn4 , v125
        .byte   W12
        .byte                   Dn4
        .byte   W12
        .byte                   En4 , v127
        .byte   W12
        .byte   PEND
@ 039   ----------------------------------------
        .byte                   Cn4
        .byte   W96
@ 040   ----------------------------------------
        .byte           PAN   , c_v-54
        .byte   W96
@ 041   ----------------------------------------
        .byte   W96
@ 042   ----------------------------------------
        .byte   W96
@ 043   ----------------------------------------
        .byte   PATT
         .word  _00___Random_Dungeon_Theme_3_13_5
@ 044   ----------------------------------------
        .byte   PATT
         .word  _00___Random_Dungeon_Theme_3_13_6
@ 045   ----------------------------------------
        .byte   PATT
         .word  _00___Random_Dungeon_Theme_3_13_5
@ 046   ----------------------------------------
        .byte   PATT
         .word  _00___Random_Dungeon_Theme_3_13_6
@ 047   ----------------------------------------
        .byte   PATT
         .word  _00___Random_Dungeon_Theme_3_13_5
@ 048   ----------------------------------------
        .byte   PATT
         .word  _00___Random_Dungeon_Theme_3_13_6
@ 049   ----------------------------------------
        .byte   PATT
         .word  _00___Random_Dungeon_Theme_3_13_11
@ 050   ----------------------------------------
        .byte   PATT
         .word  _00___Random_Dungeon_Theme_3_13_12
@ 051   ----------------------------------------
        .byte   W96
@ 052   ----------------------------------------
        .byte   W96
@ 053   ----------------------------------------
        .byte   W96
@ 054   ----------------------------------------
        .byte   W96
@ 055   ----------------------------------------
        .byte   W96
@ 056   ----------------------------------------
        .byte   W96
@ 057   ----------------------------------------
        .byte   W96
@ 058   ----------------------------------------
        .byte   W96
@ 059   ----------------------------------------
        .byte   W72
        .byte           PAN   , c_v-64
        .byte   W24
@ 060   ----------------------------------------
        .byte   PATT
         .word  _00___Random_Dungeon_Theme_3_13_22
@ 061   ----------------------------------------
        .byte   PATT
         .word  _00___Random_Dungeon_Theme_3_13_23
@ 062   ----------------------------------------
        .byte   PATT
         .word  _00___Random_Dungeon_Theme_3_13_24
@ 063   ----------------------------------------
        .byte   PATT
         .word  _00___Random_Dungeon_Theme_3_13_25
@ 064   ----------------------------------------
        .byte   PATT
         .word  _00___Random_Dungeon_Theme_3_13_26
@ 065   ----------------------------------------
        .byte   PATT
         .word  _00___Random_Dungeon_Theme_3_13_27
@ 066   ----------------------------------------
        .byte   PATT
         .word  _00___Random_Dungeon_Theme_3_13_28
@ 067   ----------------------------------------
        .byte   PATT
         .word  _00___Random_Dungeon_Theme_3_13_29
@ 068   ----------------------------------------
        .byte   PATT
         .word  _00___Random_Dungeon_Theme_3_13_30
@ 069   ----------------------------------------
        .byte   PATT
         .word  _00___Random_Dungeon_Theme_3_13_31
@ 070   ----------------------------------------
        .byte   PATT
         .word  _00___Random_Dungeon_Theme_3_13_32
@ 071   ----------------------------------------
        .byte   PATT
         .word  _00___Random_Dungeon_Theme_3_13_33
@ 072   ----------------------------------------
        .byte   PATT
         .word  _00___Random_Dungeon_Theme_3_13_34
@ 073   ----------------------------------------
        .byte   PATT
         .word  _00___Random_Dungeon_Theme_3_13_35
@ 074   ----------------------------------------
        .byte   PATT
         .word  _00___Random_Dungeon_Theme_3_13_36
@ 075   ----------------------------------------
        .byte   PATT
         .word  _00___Random_Dungeon_Theme_3_13_37
@ 076   ----------------------------------------
        .byte   PATT
         .word  _00___Random_Dungeon_Theme_3_13_38
@ 077   ----------------------------------------
        .byte           N12   , Cn4 , v127
        .byte   W96
@ 078   ----------------------------------------
        .byte           PAN   , c_v-54
        .byte   W96
@ 079   ----------------------------------------
        .byte   W96
@ 080   ----------------------------------------
        .byte   W96
@ 081   ----------------------------------------
        .byte   FINE

@***************** Track 14 (Midi-Chn.14) *****************@

_00___Random_Dungeon_Theme_3_14:
        .byte   KEYSH , _00___Random_Dungeon_Theme_3_key+0
@ 000   ----------------------------------------
        .byte   W24
@ 001   ----------------------------------------
        .byte           PAN   , c_v+63
        .byte           VOL   , 41
        .byte           VOICE , 48
        .byte   W06
        .byte           N06   , An2 , v110
        .byte   W12
        .byte                   An2 , v074
        .byte   W12
        .byte                   An2
        .byte   W12
        .byte                   An2 , v110
        .byte   W12
        .byte                   An2 , v074
        .byte   W12
        .byte                   An2 , v110
        .byte   W12
        .byte                   An2 , v074
        .byte   W12
        .byte                   An2 , v110
        .byte   W06
@ 002   ----------------------------------------
        .byte   PATT
         .word  _00___Random_Dungeon_Theme_3_13_6
@ 003   ----------------------------------------
        .byte   PATT
         .word  _00___Random_Dungeon_Theme_3_13_5
@ 004   ----------------------------------------
        .byte   PATT
         .word  _00___Random_Dungeon_Theme_3_13_6
@ 005   ----------------------------------------
_00___Random_Dungeon_Theme_3_14_5:
        .byte   W06
        .byte           N06   , Fs2 , v110
        .byte   W12
        .byte                   Fs2 , v074
        .byte   W12
        .byte                   Fs2
        .byte   W12
        .byte                   Gn2 , v110
        .byte   W12
        .byte                   Gn2 , v074
        .byte   W12
        .byte                   Gn2 , v110
        .byte   W12
        .byte                   Gn2 , v074
        .byte   W12
        .byte                   Gn2 , v110
        .byte   W06
        .byte   PEND
@ 006   ----------------------------------------
_00___Random_Dungeon_Theme_3_14_6:
        .byte   W06
        .byte           N06   , Fs2 , v110
        .byte   W12
        .byte                   Fs2 , v074
        .byte   W12
        .byte                   Fs2
        .byte   W12
        .byte                   En2 , v110
        .byte   W12
        .byte                   En2 , v074
        .byte   W12
        .byte                   En2 , v110
        .byte   W12
        .byte                   En2 , v074
        .byte   W12
        .byte                   En2 , v110
        .byte   W06
        .byte   PEND
@ 007   ----------------------------------------
        .byte   PATT
         .word  _00___Random_Dungeon_Theme_3_14_5
@ 008   ----------------------------------------
        .byte   PATT
         .word  _00___Random_Dungeon_Theme_3_14_6
@ 009   ----------------------------------------
        .byte   PATT
         .word  _00___Random_Dungeon_Theme_3_14_5
@ 010   ----------------------------------------
        .byte   PATT
         .word  _00___Random_Dungeon_Theme_3_14_6
@ 011   ----------------------------------------
_00___Random_Dungeon_Theme_3_14_11:
        .byte   W06
        .byte           N06   , Gn2 , v110
        .byte   W12
        .byte                   Gn2 , v074
        .byte   W12
        .byte                   Gn2
        .byte   W12
        .byte                   Fs2 , v110
        .byte   W12
        .byte                   Fs2 , v074
        .byte   W12
        .byte                   Fs2 , v110
        .byte   W12
        .byte                   Fs2 , v074
        .byte   W12
        .byte                   Fs2 , v110
        .byte   W06
        .byte   PEND
@ 012   ----------------------------------------
_00___Random_Dungeon_Theme_3_14_12:
        .byte   W06
        .byte           N06   , En2 , v110
        .byte   W12
        .byte                   En2 , v074
        .byte   W12
        .byte                   En2
        .byte   W12
        .byte                   Fs2 , v110
        .byte   W12
        .byte                   Fs2 , v074
        .byte   W12
        .byte                   Fs2 , v110
        .byte   W12
        .byte                   Fs2 , v074
        .byte   W12
        .byte                   Fs2 , v110
        .byte   W06
        .byte   PEND
@ 013   ----------------------------------------
        .byte   W96
@ 014   ----------------------------------------
        .byte   W96
@ 015   ----------------------------------------
        .byte   W96
@ 016   ----------------------------------------
        .byte   W96
@ 017   ----------------------------------------
        .byte   W96
@ 018   ----------------------------------------
        .byte   W96
@ 019   ----------------------------------------
        .byte   W96
@ 020   ----------------------------------------
        .byte   W96
@ 021   ----------------------------------------
        .byte   W72
        .byte           VOL   , 37
        .byte   W24
@ 022   ----------------------------------------
        .byte   W84
        .byte   W03
        .byte                   33
        .byte   W09
@ 023   ----------------------------------------
_00___Random_Dungeon_Theme_3_14_23:
        .byte           N24   , An2 , v127
        .byte   W12
        .byte           VOL   , 34
        .byte   W12
        .byte           N60   , Bn2
        .byte   W24
        .byte           VOL   , 35
        .byte   W21
        .byte                   36
        .byte   W12
        .byte                   37
        .byte   W03
        .byte           N12   , Dn3
        .byte   W12
        .byte   PEND
@ 024   ----------------------------------------
_00___Random_Dungeon_Theme_3_14_24:
        .byte           N12   , Cs3 , v127
        .byte   W12
        .byte                   Dn3
        .byte   W12
        .byte           N24   , Cs3
        .byte   W24
        .byte           N48   , Bn2
        .byte   W48
        .byte   PEND
@ 025   ----------------------------------------
_00___Random_Dungeon_Theme_3_14_25:
        .byte           N24   , An2 , v127
        .byte   W24
        .byte                   Gn2
        .byte   W24
        .byte                   An2
        .byte   W24
        .byte           N36   , En3
        .byte   W24
        .byte   PEND
@ 026   ----------------------------------------
_00___Random_Dungeon_Theme_3_14_26:
        .byte   W12
        .byte           N12   , An2 , v127
        .byte   W12
        .byte           N72   , En3
        .byte   W24
        .byte   W03
        .byte           VOL   , 36
        .byte   W18
        .byte                   35
        .byte   W15
        .byte                   34
        .byte   W12
        .byte   PEND
@ 027   ----------------------------------------
_00___Random_Dungeon_Theme_3_14_27:
        .byte           VOL   , 33
        .byte           N24   , Cn3 , v127
        .byte   W03
        .byte           VOL   , 34
        .byte   W03
        .byte                   35
        .byte   W09
        .byte                   36
        .byte   W09
        .byte           N60   , Gn3
        .byte   W03
        .byte           VOL   , 37
        .byte   W56
        .byte   W01
        .byte           N12   , As3
        .byte   W12
        .byte   PEND
@ 028   ----------------------------------------
_00___Random_Dungeon_Theme_3_14_28:
        .byte           N12   , An3 , v127
        .byte   W12
        .byte                   As3
        .byte   W12
        .byte           N24   , An3
        .byte   W24
        .byte           N48   , Gn3
        .byte   W48
        .byte   PEND
@ 029   ----------------------------------------
_00___Random_Dungeon_Theme_3_14_29:
        .byte           N24   , Fn3 , v127
        .byte   W24
        .byte                   Ds3
        .byte   W24
        .byte                   Fn3
        .byte   W24
        .byte           N36   , Cn4
        .byte   W24
        .byte   PEND
@ 030   ----------------------------------------
_00___Random_Dungeon_Theme_3_14_30:
        .byte   W12
        .byte           N12   , Fn3 , v127
        .byte   W12
        .byte           N96   , Cn4
        .byte   W24
        .byte   W03
        .byte           VOL   , 36
        .byte   W12
        .byte                   35
        .byte   W12
        .byte                   34
        .byte   W09
        .byte                   33
        .byte   W06
        .byte                   32
        .byte   W06
        .byte   PEND
@ 031   ----------------------------------------
_00___Random_Dungeon_Theme_3_14_31:
        .byte           VOL   , 31
        .byte   W03
        .byte                   30
        .byte   W06
        .byte                   29
        .byte   W03
        .byte                   28
        .byte   W03
        .byte                   27
        .byte   W06
        .byte                   26
        .byte   W06
        .byte                   28
        .byte   W03
        .byte                   29
        .byte   W03
        .byte                   30
        .byte   W06
        .byte                   31
        .byte   W03
        .byte                   32
        .byte   W09
        .byte                   33
        .byte   W06
        .byte                   34
        .byte   W09
        .byte                   35
        .byte   W12
        .byte                   36
        .byte   W09
        .byte                   37
        .byte   W09
        .byte   PEND
@ 032   ----------------------------------------
_00___Random_Dungeon_Theme_3_14_32:
        .byte   W72
        .byte           N48   , En3 , v100
        .byte   W24
        .byte   PEND
@ 033   ----------------------------------------
_00___Random_Dungeon_Theme_3_14_33:
        .byte   W24
        .byte           N48   , Dn3 , v100
        .byte   W48
        .byte                   Cn3
        .byte   W24
        .byte   PEND
@ 034   ----------------------------------------
_00___Random_Dungeon_Theme_3_14_34:
        .byte   W24
        .byte           N48   , As2 , v100
        .byte   W48
        .byte                   An2
        .byte   W24
        .byte   PEND
@ 035   ----------------------------------------
_00___Random_Dungeon_Theme_3_14_35:
        .byte   W24
        .byte           N96   , Gn2 , v100
        .byte   W72
        .byte   PEND
@ 036   ----------------------------------------
_00___Random_Dungeon_Theme_3_14_36:
        .byte   W24
        .byte           N96   , An2 , v100
        .byte   W72
        .byte   PEND
@ 037   ----------------------------------------
_00___Random_Dungeon_Theme_3_14_37:
        .byte   W24
        .byte           N12   , As2 , v106
        .byte   W12
        .byte                   Cn3 , v111
        .byte   W12
        .byte                   Dn3 , v113
        .byte   W12
        .byte                   Ds3 , v115
        .byte   W12
        .byte                   Fn3 , v117
        .byte   W12
        .byte                   Gn3 , v118
        .byte   W12
        .byte   PEND
@ 038   ----------------------------------------
_00___Random_Dungeon_Theme_3_14_38:
        .byte           N12   , Gs3 , v119
        .byte   W12
        .byte                   As3 , v120
        .byte   W12
        .byte                   Fn3 , v121
        .byte   W12
        .byte                   Gn3 , v122
        .byte   W12
        .byte                   Gs3 , v123
        .byte   W12
        .byte                   As3 , v124
        .byte   W12
        .byte                   Cn4 , v125
        .byte   W12
        .byte                   Dn4
        .byte   W12
        .byte   PEND
@ 039   ----------------------------------------
_00___Random_Dungeon_Theme_3_14_39:
        .byte           N12   , En4 , v127
        .byte   W12
        .byte                   Cn4
        .byte   W84
        .byte   PEND
@ 040   ----------------------------------------
        .byte           PAN   , c_v+56
        .byte           VOL   , 41
        .byte   W96
@ 041   ----------------------------------------
        .byte   W96
@ 042   ----------------------------------------
        .byte   W96
@ 043   ----------------------------------------
        .byte   PATT
         .word  _00___Random_Dungeon_Theme_3_14_5
@ 044   ----------------------------------------
        .byte   PATT
         .word  _00___Random_Dungeon_Theme_3_14_6
@ 045   ----------------------------------------
        .byte   PATT
         .word  _00___Random_Dungeon_Theme_3_14_5
@ 046   ----------------------------------------
        .byte   PATT
         .word  _00___Random_Dungeon_Theme_3_14_6
@ 047   ----------------------------------------
        .byte   PATT
         .word  _00___Random_Dungeon_Theme_3_14_5
@ 048   ----------------------------------------
        .byte   PATT
         .word  _00___Random_Dungeon_Theme_3_14_6
@ 049   ----------------------------------------
        .byte   PATT
         .word  _00___Random_Dungeon_Theme_3_14_11
@ 050   ----------------------------------------
        .byte   PATT
         .word  _00___Random_Dungeon_Theme_3_14_12
@ 051   ----------------------------------------
        .byte   W96
@ 052   ----------------------------------------
        .byte   W96
@ 053   ----------------------------------------
        .byte   W96
@ 054   ----------------------------------------
        .byte   W96
@ 055   ----------------------------------------
        .byte   W96
@ 056   ----------------------------------------
        .byte   W96
@ 057   ----------------------------------------
        .byte   W96
@ 058   ----------------------------------------
        .byte   W96
@ 059   ----------------------------------------
        .byte   W72
        .byte           PAN   , c_v+63
        .byte           VOL   , 37
        .byte   W24
@ 060   ----------------------------------------
        .byte   W84
        .byte   W03
        .byte                   33
        .byte   W09
@ 061   ----------------------------------------
        .byte   PATT
         .word  _00___Random_Dungeon_Theme_3_14_23
@ 062   ----------------------------------------
        .byte   PATT
         .word  _00___Random_Dungeon_Theme_3_14_24
@ 063   ----------------------------------------
        .byte   PATT
         .word  _00___Random_Dungeon_Theme_3_14_25
@ 064   ----------------------------------------
        .byte   PATT
         .word  _00___Random_Dungeon_Theme_3_14_26
@ 065   ----------------------------------------
        .byte   PATT
         .word  _00___Random_Dungeon_Theme_3_14_27
@ 066   ----------------------------------------
        .byte   PATT
         .word  _00___Random_Dungeon_Theme_3_14_28
@ 067   ----------------------------------------
        .byte   PATT
         .word  _00___Random_Dungeon_Theme_3_14_29
@ 068   ----------------------------------------
        .byte   PATT
         .word  _00___Random_Dungeon_Theme_3_14_30
@ 069   ----------------------------------------
        .byte   PATT
         .word  _00___Random_Dungeon_Theme_3_14_31
@ 070   ----------------------------------------
        .byte   PATT
         .word  _00___Random_Dungeon_Theme_3_14_32
@ 071   ----------------------------------------
        .byte   PATT
         .word  _00___Random_Dungeon_Theme_3_14_33
@ 072   ----------------------------------------
        .byte   PATT
         .word  _00___Random_Dungeon_Theme_3_14_34
@ 073   ----------------------------------------
        .byte   PATT
         .word  _00___Random_Dungeon_Theme_3_14_35
@ 074   ----------------------------------------
        .byte   PATT
         .word  _00___Random_Dungeon_Theme_3_14_36
@ 075   ----------------------------------------
        .byte   PATT
         .word  _00___Random_Dungeon_Theme_3_14_37
@ 076   ----------------------------------------
        .byte   PATT
         .word  _00___Random_Dungeon_Theme_3_14_38
@ 077   ----------------------------------------
        .byte   PATT
         .word  _00___Random_Dungeon_Theme_3_14_39
@ 078   ----------------------------------------
        .byte           PAN   , c_v+56
        .byte           VOL   , 41
        .byte   W96
@ 079   ----------------------------------------
        .byte   W96
@ 080   ----------------------------------------
        .byte   W96
@ 081   ----------------------------------------
        .byte   FINE

@***************** Track 15 (Midi-Chn.15) *****************@

_00___Random_Dungeon_Theme_3_15:
        .byte   KEYSH , _00___Random_Dungeon_Theme_3_key+0
@ 000   ----------------------------------------
        .byte   W24
@ 001   ----------------------------------------
        .byte           PAN   , c_v+16
        .byte           VOL   , 99
        .byte           VOICE , 47
        .byte   W96
@ 002   ----------------------------------------
        .byte   W96
@ 003   ----------------------------------------
_00___Random_Dungeon_Theme_3_15_3:
        .byte           N36   , Dn1 , v127
        .byte   W36
        .byte           N24
        .byte   W24
        .byte                   Dn1
        .byte   W24
        .byte           N12
        .byte   W12
        .byte   PEND
@ 004   ----------------------------------------
        .byte   PATT
         .word  _00___Random_Dungeon_Theme_3_15_3
@ 005   ----------------------------------------
        .byte           TIE   , Dn1 , v127
        .byte   W96
@ 006   ----------------------------------------
_00___Random_Dungeon_Theme_3_15_6:
        .byte   W84
        .byte           EOT   , Dn1
        .byte           N12   , An1 , v127
        .byte   W12
        .byte   PEND
@ 007   ----------------------------------------
        .byte           TIE   , Dn1
        .byte   W96
@ 008   ----------------------------------------
_00___Random_Dungeon_Theme_3_15_8:
        .byte   W72
        .byte           EOT   , Dn1
        .byte           N06   , An1 , v127
        .byte   W06
        .byte                   An1
        .byte   W06
        .byte                   An1
        .byte   W06
        .byte                   An1
        .byte   W06
        .byte   PEND
@ 009   ----------------------------------------
        .byte           TIE   , Dn1
        .byte   W96
@ 010   ----------------------------------------
        .byte   PATT
         .word  _00___Random_Dungeon_Theme_3_15_6
@ 011   ----------------------------------------
        .byte           TIE   , Dn1 , v127
        .byte   W96
@ 012   ----------------------------------------
        .byte   PATT
         .word  _00___Random_Dungeon_Theme_3_15_6
@ 013   ----------------------------------------
        .byte           TIE   , Dn1 , v127
        .byte   W96
@ 014   ----------------------------------------
        .byte   PATT
         .word  _00___Random_Dungeon_Theme_3_15_6
@ 015   ----------------------------------------
        .byte           TIE   , Dn1 , v127
        .byte   W96
@ 016   ----------------------------------------
        .byte   PATT
         .word  _00___Random_Dungeon_Theme_3_15_8
@ 017   ----------------------------------------
        .byte           TIE   , Dn1 , v127
        .byte   W96
@ 018   ----------------------------------------
        .byte   PATT
         .word  _00___Random_Dungeon_Theme_3_15_6
@ 019   ----------------------------------------
_00___Random_Dungeon_Theme_3_15_19:
        .byte           N36   , Gn1 , v127
        .byte   W36
        .byte           N60   , Dn1
        .byte   W60
        .byte   PEND
@ 020   ----------------------------------------
_00___Random_Dungeon_Theme_3_15_20:
        .byte           N36   , Dn1 , v127
        .byte   W36
        .byte           N48
        .byte   W48
        .byte           N12   , An1
        .byte   W12
        .byte   PEND
@ 021   ----------------------------------------
_00___Random_Dungeon_Theme_3_15_21:
        .byte           N36   , Gn1 , v127
        .byte   W36
        .byte                   Dn1
        .byte   W36
        .byte           N24   , An1
        .byte   W24
        .byte   PEND
@ 022   ----------------------------------------
_00___Random_Dungeon_Theme_3_15_22:
        .byte           N18   , Dn1 , v127
        .byte   W18
        .byte           N06
        .byte   W06
        .byte           N12
        .byte   W12
        .byte           N24
        .byte   W24
        .byte           N12
        .byte   W12
        .byte           N06
        .byte   W06
        .byte           N18
        .byte   W18
        .byte   PEND
@ 023   ----------------------------------------
_00___Random_Dungeon_Theme_3_15_23:
        .byte           N36   , Gn1 , v127
        .byte   W36
        .byte           N06   , Gn1 , v080
        .byte   W06
        .byte                   Gn1
        .byte   W06
        .byte                   Gn1
        .byte   W06
        .byte           N30
        .byte   W30
        .byte           N06
        .byte   W06
        .byte                   Gn1
        .byte   W06
        .byte   PEND
@ 024   ----------------------------------------
_00___Random_Dungeon_Theme_3_15_24:
        .byte           N36   , Gn1 , v080
        .byte   W36
        .byte           N06
        .byte   W06
        .byte                   Gn1
        .byte   W06
        .byte           N36
        .byte   W36
        .byte           N12   , Gn1 , v127
        .byte   W12
        .byte   PEND
@ 025   ----------------------------------------
_00___Random_Dungeon_Theme_3_15_25:
        .byte           N36   , Fn1 , v127
        .byte   W36
        .byte           N06   , Fn1 , v080
        .byte   W06
        .byte                   Fn1
        .byte   W06
        .byte           N36
        .byte   W36
        .byte           N06
        .byte   W06
        .byte                   Fn1
        .byte   W06
        .byte   PEND
@ 026   ----------------------------------------
_00___Random_Dungeon_Theme_3_15_26:
        .byte           N36   , Fn1 , v080
        .byte   W36
        .byte           N06
        .byte   W06
        .byte                   Fn1
        .byte   W06
        .byte           N24
        .byte   W24
        .byte           N06   , Fn1 , v127
        .byte   W06
        .byte                   Fn1
        .byte   W06
        .byte                   Fn1
        .byte   W06
        .byte                   Fn1
        .byte   W06
        .byte   PEND
@ 027   ----------------------------------------
_00___Random_Dungeon_Theme_3_15_27:
        .byte           N36   , Ds1 , v127
        .byte   W36
        .byte           N06   , Ds1 , v080
        .byte   W06
        .byte                   Ds1
        .byte   W06
        .byte           N36
        .byte   W36
        .byte           N06
        .byte   W06
        .byte                   Ds1
        .byte   W06
        .byte   PEND
@ 028   ----------------------------------------
_00___Random_Dungeon_Theme_3_15_28:
        .byte           N36   , Ds1 , v080
        .byte   W36
        .byte           N06
        .byte   W06
        .byte                   Ds1
        .byte   W06
        .byte           N36
        .byte   W36
        .byte           N12   , Ds1 , v127
        .byte   W12
        .byte   PEND
@ 029   ----------------------------------------
_00___Random_Dungeon_Theme_3_15_29:
        .byte           N36   , Cs1 , v127
        .byte   W36
        .byte           N06   , Cs1 , v080
        .byte   W06
        .byte                   Cs1
        .byte   W06
        .byte           N36
        .byte   W36
        .byte           N06
        .byte   W06
        .byte                   Cs1
        .byte   W06
        .byte   PEND
@ 030   ----------------------------------------
_00___Random_Dungeon_Theme_3_15_30:
        .byte           N36   , Cs1 , v080
        .byte   W36
        .byte           N06
        .byte   W06
        .byte                   Cs1
        .byte   W06
        .byte           N24
        .byte   W24
        .byte           N06   , Cs1 , v127
        .byte   W06
        .byte                   Cs1
        .byte   W06
        .byte                   Cs1
        .byte   W06
        .byte                   Cs1
        .byte   W06
        .byte   PEND
@ 031   ----------------------------------------
_00___Random_Dungeon_Theme_3_15_31:
        .byte           N36   , Cn2 , v127
        .byte   W36
        .byte           N24
        .byte   W24
        .byte                   Cn2
        .byte   W24
        .byte           N12   , Gn1
        .byte   W12
        .byte   PEND
@ 032   ----------------------------------------
        .byte   PATT
         .word  _00___Random_Dungeon_Theme_3_15_31
@ 033   ----------------------------------------
_00___Random_Dungeon_Theme_3_15_33:
        .byte           N36   , As1 , v127
        .byte   W36
        .byte           N24
        .byte   W24
        .byte                   As1
        .byte   W24
        .byte           N12   , Fn1
        .byte   W12
        .byte   PEND
@ 034   ----------------------------------------
        .byte   PATT
         .word  _00___Random_Dungeon_Theme_3_15_33
@ 035   ----------------------------------------
_00___Random_Dungeon_Theme_3_15_35:
        .byte           N36   , Ds1 , v127
        .byte   W36
        .byte           N24
        .byte   W24
        .byte                   Ds1
        .byte   W24
        .byte           N12   , As1
        .byte   W12
        .byte   PEND
@ 036   ----------------------------------------
_00___Random_Dungeon_Theme_3_15_36:
        .byte           N36   , Fn1 , v127
        .byte   W36
        .byte           N24
        .byte   W24
        .byte                   Fn1
        .byte   W24
        .byte           N12   , Cn1
        .byte   W12
        .byte   PEND
@ 037   ----------------------------------------
_00___Random_Dungeon_Theme_3_15_37:
        .byte           N36   , Gs1 , v127
        .byte   W36
        .byte           N24
        .byte   W24
        .byte                   Gs1
        .byte   W24
        .byte           N12   , Ds1
        .byte   W12
        .byte   PEND
@ 038   ----------------------------------------
_00___Random_Dungeon_Theme_3_15_38:
        .byte           N36   , As1 , v127
        .byte   W36
        .byte           N12
        .byte   W12
        .byte           N36   , Cn2
        .byte   W36
        .byte           N12
        .byte   W12
        .byte   PEND
@ 039   ----------------------------------------
_00___Random_Dungeon_Theme_3_15_39:
        .byte           N36   , Dn2 , v127
        .byte   W36
        .byte           N24
        .byte   W24
        .byte                   Dn2
        .byte   W24
        .byte           N12
        .byte   W12
        .byte   PEND
@ 040   ----------------------------------------
        .byte   PATT
         .word  _00___Random_Dungeon_Theme_3_15_39
@ 041   ----------------------------------------
        .byte   PATT
         .word  _00___Random_Dungeon_Theme_3_15_39
@ 042   ----------------------------------------
        .byte   PATT
         .word  _00___Random_Dungeon_Theme_3_15_39
@ 043   ----------------------------------------
        .byte           TIE   , Dn1 , v127
        .byte   W96
@ 044   ----------------------------------------
        .byte   PATT
         .word  _00___Random_Dungeon_Theme_3_15_6
@ 045   ----------------------------------------
        .byte           TIE   , Dn1 , v127
        .byte   W96
@ 046   ----------------------------------------
        .byte   PATT
         .word  _00___Random_Dungeon_Theme_3_15_8
@ 047   ----------------------------------------
        .byte           TIE   , Dn1 , v127
        .byte   W96
@ 048   ----------------------------------------
        .byte   PATT
         .word  _00___Random_Dungeon_Theme_3_15_6
@ 049   ----------------------------------------
        .byte           TIE   , Dn1 , v127
        .byte   W96
@ 050   ----------------------------------------
        .byte   PATT
         .word  _00___Random_Dungeon_Theme_3_15_6
@ 051   ----------------------------------------
        .byte           TIE   , Dn1 , v127
        .byte   W96
@ 052   ----------------------------------------
        .byte   PATT
         .word  _00___Random_Dungeon_Theme_3_15_6
@ 053   ----------------------------------------
        .byte           TIE   , Dn1 , v127
        .byte   W96
@ 054   ----------------------------------------
        .byte   PATT
         .word  _00___Random_Dungeon_Theme_3_15_8
@ 055   ----------------------------------------
        .byte           TIE   , Dn1 , v127
        .byte   W96
@ 056   ----------------------------------------
        .byte   PATT
         .word  _00___Random_Dungeon_Theme_3_15_6
@ 057   ----------------------------------------
        .byte   PATT
         .word  _00___Random_Dungeon_Theme_3_15_19
@ 058   ----------------------------------------
        .byte   PATT
         .word  _00___Random_Dungeon_Theme_3_15_20
@ 059   ----------------------------------------
        .byte   PATT
         .word  _00___Random_Dungeon_Theme_3_15_21
@ 060   ----------------------------------------
        .byte   PATT
         .word  _00___Random_Dungeon_Theme_3_15_22
@ 061   ----------------------------------------
        .byte   PATT
         .word  _00___Random_Dungeon_Theme_3_15_23
@ 062   ----------------------------------------
        .byte   PATT
         .word  _00___Random_Dungeon_Theme_3_15_24
@ 063   ----------------------------------------
        .byte   PATT
         .word  _00___Random_Dungeon_Theme_3_15_25
@ 064   ----------------------------------------
        .byte   PATT
         .word  _00___Random_Dungeon_Theme_3_15_26
@ 065   ----------------------------------------
        .byte   PATT
         .word  _00___Random_Dungeon_Theme_3_15_27
@ 066   ----------------------------------------
        .byte   PATT
         .word  _00___Random_Dungeon_Theme_3_15_28
@ 067   ----------------------------------------
        .byte   PATT
         .word  _00___Random_Dungeon_Theme_3_15_29
@ 068   ----------------------------------------
        .byte   PATT
         .word  _00___Random_Dungeon_Theme_3_15_30
@ 069   ----------------------------------------
        .byte   PATT
         .word  _00___Random_Dungeon_Theme_3_15_31
@ 070   ----------------------------------------
        .byte   PATT
         .word  _00___Random_Dungeon_Theme_3_15_31
@ 071   ----------------------------------------
        .byte   PATT
         .word  _00___Random_Dungeon_Theme_3_15_33
@ 072   ----------------------------------------
        .byte   PATT
         .word  _00___Random_Dungeon_Theme_3_15_33
@ 073   ----------------------------------------
        .byte   PATT
         .word  _00___Random_Dungeon_Theme_3_15_35
@ 074   ----------------------------------------
        .byte   PATT
         .word  _00___Random_Dungeon_Theme_3_15_36
@ 075   ----------------------------------------
        .byte   PATT
         .word  _00___Random_Dungeon_Theme_3_15_37
@ 076   ----------------------------------------
        .byte   PATT
         .word  _00___Random_Dungeon_Theme_3_15_38
@ 077   ----------------------------------------
        .byte   PATT
         .word  _00___Random_Dungeon_Theme_3_15_39
@ 078   ----------------------------------------
        .byte   PATT
         .word  _00___Random_Dungeon_Theme_3_15_39
@ 079   ----------------------------------------
        .byte   PATT
         .word  _00___Random_Dungeon_Theme_3_15_39
@ 080   ----------------------------------------
        .byte   PATT
         .word  _00___Random_Dungeon_Theme_3_15_39
@ 081   ----------------------------------------
        .byte   FINE


@********************** End of Song ***********************@

        .align  2
_00___Random_Dungeon_Theme_3:
        .byte   16                      @ Num Tracks
        .byte   0                       @ Unknown
        .byte   _00___Random_Dungeon_Theme_3_pri @ Priority
        .byte   _00___Random_Dungeon_Theme_3_rev @ Reverb

        .word   _00___Random_Dungeon_Theme_3_grp

        .word   _00___Random_Dungeon_Theme_3_0
        .word   _00___Random_Dungeon_Theme_3_1
        .word   _00___Random_Dungeon_Theme_3_2
        .word   _00___Random_Dungeon_Theme_3_3
        .word   _00___Random_Dungeon_Theme_3_4
        .word   _00___Random_Dungeon_Theme_3_5
        .word   _00___Random_Dungeon_Theme_3_6
        .word   _00___Random_Dungeon_Theme_3_7
        .word   _00___Random_Dungeon_Theme_3_8
        .word   _00___Random_Dungeon_Theme_3_9
        .word   _00___Random_Dungeon_Theme_3_10
        .word   _00___Random_Dungeon_Theme_3_11
        .word   _00___Random_Dungeon_Theme_3_12
        .word   _00___Random_Dungeon_Theme_3_13
        .word   _00___Random_Dungeon_Theme_3_14
        .word   _00___Random_Dungeon_Theme_3_15

        .end
