//Event file generated from Sappy .s format.
        #include "MPlayDef.event"

        #define    _34___Vast_Ice_Mountain_grp  voicegroup000
        #define    _34___Vast_Ice_Mountain_pri  0
        #define    _34___Vast_Ice_Mountain_rev  0
        #define    _34___Vast_Ice_Mountain_key  0

        // .rodata
        // _34___Vast_Ice_Mountain
        ALIGN 4

//****************** Track 0 (Midi-Chn.0) ******************//

_34___Vast_Ice_Mountain_0:
        BYTE   KEYSH   _34___Vast_Ice_Mountain_key+0
// 000   ----------------------------------------
        BYTE   W24
// 001   ----------------------------------------
        BYTE   TEMPO   96/2
        BYTE           VOL     91
        BYTE           VOICE   39
        BYTE           N12     An0   v127
        BYTE   W12
        BYTE                   An0
        BYTE   W84
// 002   ----------------------------------------
_34___Vast_Ice_Mountain_0_2:
        BYTE   W78
        BYTE           N06     En0   v127
        BYTE   W06
        BYTE                   Gn0
        BYTE   W06
        BYTE                   En0
        BYTE   W06
        BYTE   PEND
// 003   ----------------------------------------
        BYTE           N12     An0
        BYTE   W12
        BYTE                   An0
        BYTE   W84
// 004   ----------------------------------------
        BYTE   PATT
         POIN2  _34___Vast_Ice_Mountain_0_2
// 005   ----------------------------------------
_34___Vast_Ice_Mountain_0_5:
        BYTE           N12     An0   v127
        BYTE   W12
        BYTE                   An0
        BYTE   W12
        BYTE                   An0   v062
        BYTE   W12
        BYTE                   An0   v127
        BYTE   W12
        BYTE                   An0
        BYTE   W12
        BYTE                   An0   v061
        BYTE   W12
        BYTE                   An0   v127
        BYTE   W12
        BYTE                   An0   v061
        BYTE   W12
        BYTE   PEND
// 006   ----------------------------------------
        BYTE   PATT
         POIN2  _34___Vast_Ice_Mountain_0_5
// 007   ----------------------------------------
        BYTE   PATT
         POIN2  _34___Vast_Ice_Mountain_0_5
// 008   ----------------------------------------
        BYTE   PATT
         POIN2  _34___Vast_Ice_Mountain_0_5
// 009   ----------------------------------------
        BYTE   PATT
         POIN2  _34___Vast_Ice_Mountain_0_5
// 010   ----------------------------------------
        BYTE   PATT
         POIN2  _34___Vast_Ice_Mountain_0_5
// 011   ----------------------------------------
        BYTE   PATT
         POIN2  _34___Vast_Ice_Mountain_0_5
// 012   ----------------------------------------
        BYTE   PATT
         POIN2  _34___Vast_Ice_Mountain_0_5
// 013   ----------------------------------------
        BYTE   PATT
         POIN2  _34___Vast_Ice_Mountain_0_5
// 014   ----------------------------------------
        BYTE   PATT
         POIN2  _34___Vast_Ice_Mountain_0_5
// 015   ----------------------------------------
        BYTE   PATT
         POIN2  _34___Vast_Ice_Mountain_0_5
// 016   ----------------------------------------
        BYTE   PATT
         POIN2  _34___Vast_Ice_Mountain_0_5
// 017   ----------------------------------------
        BYTE   PATT
         POIN2  _34___Vast_Ice_Mountain_0_5
// 018   ----------------------------------------
        BYTE   PATT
         POIN2  _34___Vast_Ice_Mountain_0_5
// 019   ----------------------------------------
        BYTE   PATT
         POIN2  _34___Vast_Ice_Mountain_0_5
// 020   ----------------------------------------
        BYTE   PATT
         POIN2  _34___Vast_Ice_Mountain_0_5
// 021   ----------------------------------------
        BYTE   PATT
         POIN2  _34___Vast_Ice_Mountain_0_5
// 022   ----------------------------------------
        BYTE   PATT
         POIN2  _34___Vast_Ice_Mountain_0_5
// 023   ----------------------------------------
        BYTE   PATT
         POIN2  _34___Vast_Ice_Mountain_0_5
// 024   ----------------------------------------
        BYTE   PATT
         POIN2  _34___Vast_Ice_Mountain_0_5
// 025   ----------------------------------------
        BYTE   PATT
         POIN2  _34___Vast_Ice_Mountain_0_5
// 026   ----------------------------------------
        BYTE   PATT
         POIN2  _34___Vast_Ice_Mountain_0_5
// 027   ----------------------------------------
        BYTE   PATT
         POIN2  _34___Vast_Ice_Mountain_0_5
// 028   ----------------------------------------
_34___Vast_Ice_Mountain_0_28:
        BYTE           N12     Gn0   v127
        BYTE   W12
        BYTE                   Gn0
        BYTE   W12
        BYTE                   Gn0   v062
        BYTE   W12
        BYTE                   Gn0   v127
        BYTE   W12
        BYTE                   Gn0
        BYTE   W12
        BYTE                   Gn0   v061
        BYTE   W12
        BYTE                   Gn0   v127
        BYTE   W12
        BYTE                   Gn0   v061
        BYTE   W12
        BYTE   PEND
// 029   ----------------------------------------
_34___Vast_Ice_Mountain_0_29:
        BYTE           N12     Fn0   v127
        BYTE   W12
        BYTE                   Fn0
        BYTE   W12
        BYTE                   Fn0   v062
        BYTE   W12
        BYTE                   Fn0   v127
        BYTE   W12
        BYTE                   Fn0
        BYTE   W12
        BYTE                   Fn0   v061
        BYTE   W12
        BYTE                   Fn0   v127
        BYTE   W12
        BYTE                   Fn0   v061
        BYTE   W12
        BYTE   PEND
// 030   ----------------------------------------
        BYTE   PATT
         POIN2  _34___Vast_Ice_Mountain_0_29
// 031   ----------------------------------------
        BYTE   PATT
         POIN2  _34___Vast_Ice_Mountain_0_29
// 032   ----------------------------------------
        BYTE   PATT
         POIN2  _34___Vast_Ice_Mountain_0_29
// 033   ----------------------------------------
        BYTE   PATT
         POIN2  _34___Vast_Ice_Mountain_0_29
// 034   ----------------------------------------
        BYTE   PATT
         POIN2  _34___Vast_Ice_Mountain_0_29
// 035   ----------------------------------------
        BYTE   PATT
         POIN2  _34___Vast_Ice_Mountain_0_29
// 036   ----------------------------------------
        BYTE   PATT
         POIN2  _34___Vast_Ice_Mountain_0_29
// 037   ----------------------------------------
_34___Vast_Ice_Mountain_0_37:
        BYTE           N12     Gs0   v127
        BYTE   W12
        BYTE                   Gs0
        BYTE   W12
        BYTE                   Gs0   v062
        BYTE   W12
        BYTE                   Gs0   v127
        BYTE   W12
        BYTE                   Gs0
        BYTE   W12
        BYTE                   Gs0   v061
        BYTE   W12
        BYTE                   Gs0   v127
        BYTE   W12
        BYTE                   Gs0   v061
        BYTE   W12
        BYTE   PEND
// 038   ----------------------------------------
        BYTE   PATT
         POIN2  _34___Vast_Ice_Mountain_0_37
// 039   ----------------------------------------
        BYTE   PATT
         POIN2  _34___Vast_Ice_Mountain_0_37
// 040   ----------------------------------------
        BYTE   PATT
         POIN2  _34___Vast_Ice_Mountain_0_37
// 041   ----------------------------------------
        BYTE   PATT
         POIN2  _34___Vast_Ice_Mountain_0_37
// 042   ----------------------------------------
        BYTE   PATT
         POIN2  _34___Vast_Ice_Mountain_0_37
// 043   ----------------------------------------
        BYTE   PATT
         POIN2  _34___Vast_Ice_Mountain_0_37
// 044   ----------------------------------------
        BYTE   PATT
         POIN2  _34___Vast_Ice_Mountain_0_37
// 045   ----------------------------------------
        BYTE   PATT
         POIN2  _34___Vast_Ice_Mountain_0_37
// 046   ----------------------------------------
        BYTE   PATT
         POIN2  _34___Vast_Ice_Mountain_0_37
// 047   ----------------------------------------
        BYTE   PATT
         POIN2  _34___Vast_Ice_Mountain_0_5
// 048   ----------------------------------------
        BYTE   PATT
         POIN2  _34___Vast_Ice_Mountain_0_5
// 049   ----------------------------------------
        BYTE   PATT
         POIN2  _34___Vast_Ice_Mountain_0_5
// 050   ----------------------------------------
        BYTE   PATT
         POIN2  _34___Vast_Ice_Mountain_0_5
// 051   ----------------------------------------
        BYTE   PATT
         POIN2  _34___Vast_Ice_Mountain_0_5
// 052   ----------------------------------------
        BYTE   PATT
         POIN2  _34___Vast_Ice_Mountain_0_5
// 053   ----------------------------------------
        BYTE   PATT
         POIN2  _34___Vast_Ice_Mountain_0_5
// 054   ----------------------------------------
        BYTE   PATT
         POIN2  _34___Vast_Ice_Mountain_0_5
// 055   ----------------------------------------
        BYTE   PATT
         POIN2  _34___Vast_Ice_Mountain_0_5
// 056   ----------------------------------------
        BYTE   PATT
         POIN2  _34___Vast_Ice_Mountain_0_5
// 057   ----------------------------------------
        BYTE   PATT
         POIN2  _34___Vast_Ice_Mountain_0_5
// 058   ----------------------------------------
        BYTE   PATT
         POIN2  _34___Vast_Ice_Mountain_0_5
// 059   ----------------------------------------
        BYTE   PATT
         POIN2  _34___Vast_Ice_Mountain_0_5
// 060   ----------------------------------------
        BYTE   PATT
         POIN2  _34___Vast_Ice_Mountain_0_5
// 061   ----------------------------------------
        BYTE   PATT
         POIN2  _34___Vast_Ice_Mountain_0_5
// 062   ----------------------------------------
        BYTE   PATT
         POIN2  _34___Vast_Ice_Mountain_0_5
// 063   ----------------------------------------
        BYTE   PATT
         POIN2  _34___Vast_Ice_Mountain_0_5
// 064   ----------------------------------------
        BYTE   PATT
         POIN2  _34___Vast_Ice_Mountain_0_5
// 065   ----------------------------------------
        BYTE   PATT
         POIN2  _34___Vast_Ice_Mountain_0_5
// 066   ----------------------------------------
        BYTE   PATT
         POIN2  _34___Vast_Ice_Mountain_0_5
// 067   ----------------------------------------
        BYTE   PATT
         POIN2  _34___Vast_Ice_Mountain_0_5
// 068   ----------------------------------------
        BYTE   PATT
         POIN2  _34___Vast_Ice_Mountain_0_5
// 069   ----------------------------------------
        BYTE   PATT
         POIN2  _34___Vast_Ice_Mountain_0_5
// 070   ----------------------------------------
        BYTE   PATT
         POIN2  _34___Vast_Ice_Mountain_0_5
// 071   ----------------------------------------
        BYTE   PATT
         POIN2  _34___Vast_Ice_Mountain_0_5
// 072   ----------------------------------------
        BYTE   PATT
         POIN2  _34___Vast_Ice_Mountain_0_28
// 073   ----------------------------------------
        BYTE   PATT
         POIN2  _34___Vast_Ice_Mountain_0_29
// 074   ----------------------------------------
        BYTE   PATT
         POIN2  _34___Vast_Ice_Mountain_0_29
// 075   ----------------------------------------
        BYTE   PATT
         POIN2  _34___Vast_Ice_Mountain_0_29
// 076   ----------------------------------------
        BYTE   PATT
         POIN2  _34___Vast_Ice_Mountain_0_29
// 077   ----------------------------------------
        BYTE   PATT
         POIN2  _34___Vast_Ice_Mountain_0_29
// 078   ----------------------------------------
        BYTE   PATT
         POIN2  _34___Vast_Ice_Mountain_0_29
// 079   ----------------------------------------
        BYTE   PATT
         POIN2  _34___Vast_Ice_Mountain_0_29
// 080   ----------------------------------------
        BYTE   PATT
         POIN2  _34___Vast_Ice_Mountain_0_29
// 081   ----------------------------------------
        BYTE   PATT
         POIN2  _34___Vast_Ice_Mountain_0_37
// 082   ----------------------------------------
        BYTE   PATT
         POIN2  _34___Vast_Ice_Mountain_0_37
// 083   ----------------------------------------
        BYTE   PATT
         POIN2  _34___Vast_Ice_Mountain_0_37
// 084   ----------------------------------------
        BYTE   PATT
         POIN2  _34___Vast_Ice_Mountain_0_37
// 085   ----------------------------------------
        BYTE   PATT
         POIN2  _34___Vast_Ice_Mountain_0_37
// 086   ----------------------------------------
        BYTE   PATT
         POIN2  _34___Vast_Ice_Mountain_0_37
// 087   ----------------------------------------
        BYTE   PATT
         POIN2  _34___Vast_Ice_Mountain_0_37
// 088   ----------------------------------------
        BYTE   PATT
         POIN2  _34___Vast_Ice_Mountain_0_37
// 089   ----------------------------------------
        BYTE   PATT
         POIN2  _34___Vast_Ice_Mountain_0_37
// 090   ----------------------------------------
        BYTE   PATT
         POIN2  _34___Vast_Ice_Mountain_0_37
// 091   ----------------------------------------
        BYTE   PATT
         POIN2  _34___Vast_Ice_Mountain_0_5
// 092   ----------------------------------------
        BYTE   PATT
         POIN2  _34___Vast_Ice_Mountain_0_5
// 093   ----------------------------------------
        BYTE   FINE

//****************** Track 1 (Midi-Chn.1) ******************//

_34___Vast_Ice_Mountain_1:
        BYTE   KEYSH   _34___Vast_Ice_Mountain_key+0
// 000   ----------------------------------------
        BYTE   W24
// 001   ----------------------------------------
        BYTE           PAN     c_v-10
        BYTE           VOL     74
        BYTE           VOICE   10
        BYTE           N06     En4   v127
        BYTE   W12
        BYTE                   An4
        BYTE   W12
        BYTE                   Bn4
        BYTE   W12
        BYTE                   En5
        BYTE   W12
        BYTE                   An4
        BYTE   W12
        BYTE                   Bn4
        BYTE   W12
        BYTE                   En4
        BYTE   W12
        BYTE                   An4
        BYTE   W12
// 002   ----------------------------------------
_34___Vast_Ice_Mountain_1_2:
        BYTE           N06     Bn4   v127
        BYTE   W12
        BYTE                   En5
        BYTE   W12
        BYTE                   An4
        BYTE   W12
        BYTE                   Bn4
        BYTE   W12
        BYTE                   Dn5
        BYTE   W12
        BYTE                   Gn4
        BYTE   W12
        BYTE                   An4
        BYTE   W12
        BYTE                   Bn3
        BYTE   W12
        BYTE   PEND
// 003   ----------------------------------------
_34___Vast_Ice_Mountain_1_3:
        BYTE           N06     En4   v127
        BYTE   W12
        BYTE                   An4
        BYTE   W12
        BYTE                   Bn4
        BYTE   W12
        BYTE                   En5
        BYTE   W12
        BYTE                   An4
        BYTE   W12
        BYTE                   Bn4
        BYTE   W12
        BYTE                   En4
        BYTE   W12
        BYTE                   An4
        BYTE   W12
        BYTE   PEND
// 004   ----------------------------------------
        BYTE   PATT
         POIN2  _34___Vast_Ice_Mountain_1_2
// 005   ----------------------------------------
        BYTE   PATT
         POIN2  _34___Vast_Ice_Mountain_1_3
// 006   ----------------------------------------
        BYTE   PATT
         POIN2  _34___Vast_Ice_Mountain_1_2
// 007   ----------------------------------------
        BYTE   PATT
         POIN2  _34___Vast_Ice_Mountain_1_3
// 008   ----------------------------------------
        BYTE   PATT
         POIN2  _34___Vast_Ice_Mountain_1_2
// 009   ----------------------------------------
        BYTE   PATT
         POIN2  _34___Vast_Ice_Mountain_1_3
// 010   ----------------------------------------
        BYTE   PATT
         POIN2  _34___Vast_Ice_Mountain_1_2
// 011   ----------------------------------------
        BYTE   PATT
         POIN2  _34___Vast_Ice_Mountain_1_3
// 012   ----------------------------------------
        BYTE   PATT
         POIN2  _34___Vast_Ice_Mountain_1_2
// 013   ----------------------------------------
_34___Vast_Ice_Mountain_1_13:
        BYTE           N06     En5   v127
        BYTE   W12
        BYTE                   An5
        BYTE   W12
        BYTE                   Bn5
        BYTE   W12
        BYTE                   En6
        BYTE   W12
        BYTE                   An5
        BYTE   W12
        BYTE                   Bn5
        BYTE   W12
        BYTE                   En5
        BYTE   W12
        BYTE                   An5
        BYTE   W12
        BYTE   PEND
// 014   ----------------------------------------
_34___Vast_Ice_Mountain_1_14:
        BYTE           N06     Bn5   v127
        BYTE   W12
        BYTE                   En6
        BYTE   W12
        BYTE                   An5
        BYTE   W12
        BYTE                   Bn5
        BYTE   W12
        BYTE                   Dn6
        BYTE   W12
        BYTE                   Gn5
        BYTE   W12
        BYTE                   An5
        BYTE   W12
        BYTE                   Bn4
        BYTE   W12
        BYTE   PEND
// 015   ----------------------------------------
        BYTE   PATT
         POIN2  _34___Vast_Ice_Mountain_1_13
// 016   ----------------------------------------
        BYTE   PATT
         POIN2  _34___Vast_Ice_Mountain_1_14
// 017   ----------------------------------------
        BYTE   PATT
         POIN2  _34___Vast_Ice_Mountain_1_13
// 018   ----------------------------------------
        BYTE   PATT
         POIN2  _34___Vast_Ice_Mountain_1_14
// 019   ----------------------------------------
        BYTE   PATT
         POIN2  _34___Vast_Ice_Mountain_1_13
// 020   ----------------------------------------
        BYTE   PATT
         POIN2  _34___Vast_Ice_Mountain_1_14
// 021   ----------------------------------------
        BYTE   PATT
         POIN2  _34___Vast_Ice_Mountain_1_13
// 022   ----------------------------------------
        BYTE   PATT
         POIN2  _34___Vast_Ice_Mountain_1_14
// 023   ----------------------------------------
        BYTE   PATT
         POIN2  _34___Vast_Ice_Mountain_1_13
// 024   ----------------------------------------
        BYTE   PATT
         POIN2  _34___Vast_Ice_Mountain_1_14
// 025   ----------------------------------------
        BYTE   PATT
         POIN2  _34___Vast_Ice_Mountain_1_13
// 026   ----------------------------------------
        BYTE   PATT
         POIN2  _34___Vast_Ice_Mountain_1_14
// 027   ----------------------------------------
        BYTE   PATT
         POIN2  _34___Vast_Ice_Mountain_1_13
// 028   ----------------------------------------
        BYTE   PATT
         POIN2  _34___Vast_Ice_Mountain_1_14
// 029   ----------------------------------------
_34___Vast_Ice_Mountain_1_29:
        BYTE           N06     En5   v127
        BYTE   W12
        BYTE                   An5
        BYTE   W12
        BYTE                   En6
        BYTE   W12
        BYTE                   En5
        BYTE   W12
        BYTE                   An5
        BYTE   W12
        BYTE                   Dn6
        BYTE   W12
        BYTE                   En5
        BYTE   W12
        BYTE                   An5
        BYTE   W12
        BYTE   PEND
// 030   ----------------------------------------
_34___Vast_Ice_Mountain_1_30:
        BYTE           N06     Cn6   v127
        BYTE   W12
        BYTE                   En5
        BYTE   W12
        BYTE                   An5
        BYTE   W12
        BYTE                   Bn5
        BYTE   W12
        BYTE                   En5
        BYTE   W12
        BYTE                   An5
        BYTE   W12
        BYTE                   Bn5
        BYTE   W12
        BYTE                   Dn5
        BYTE   W12
        BYTE   PEND
// 031   ----------------------------------------
        BYTE   PATT
         POIN2  _34___Vast_Ice_Mountain_1_29
// 032   ----------------------------------------
        BYTE   PATT
         POIN2  _34___Vast_Ice_Mountain_1_30
// 033   ----------------------------------------
_34___Vast_Ice_Mountain_1_33:
        BYTE           N06     Ds5   v127
        BYTE   W12
        BYTE                   Gs5
        BYTE   W12
        BYTE                   Ds6
        BYTE   W12
        BYTE                   Ds5
        BYTE   W12
        BYTE                   Gs5
        BYTE   W12
        BYTE                   Dn6
        BYTE   W12
        BYTE                   Ds5
        BYTE   W12
        BYTE                   Gs5
        BYTE   W12
        BYTE   PEND
// 034   ----------------------------------------
_34___Vast_Ice_Mountain_1_34:
        BYTE           N06     Cn6   v127
        BYTE   W12
        BYTE                   Ds5
        BYTE   W12
        BYTE                   Gs5
        BYTE   W12
        BYTE                   As5
        BYTE   W12
        BYTE                   Ds5
        BYTE   W12
        BYTE                   Gs5
        BYTE   W12
        BYTE                   As5
        BYTE   W12
        BYTE                   Dn5
        BYTE   W12
        BYTE   PEND
// 035   ----------------------------------------
        BYTE   PATT
         POIN2  _34___Vast_Ice_Mountain_1_33
// 036   ----------------------------------------
        BYTE   PATT
         POIN2  _34___Vast_Ice_Mountain_1_34
// 037   ----------------------------------------
_34___Vast_Ice_Mountain_1_37:
        BYTE           N06     Gn5   v127
        BYTE   W12
        BYTE                   Cn6
        BYTE   W12
        BYTE                   Gn6
        BYTE   W12
        BYTE                   Gn5
        BYTE   W12
        BYTE                   Cn6
        BYTE   W12
        BYTE                   Fn6
        BYTE   W12
        BYTE                   Gn5
        BYTE   W12
        BYTE                   Cn6
        BYTE   W12
        BYTE   PEND
// 038   ----------------------------------------
_34___Vast_Ice_Mountain_1_38:
        BYTE           N06     Ds6   v127
        BYTE   W12
        BYTE                   Gn5
        BYTE   W12
        BYTE                   Cn6
        BYTE   W12
        BYTE                   Dn6
        BYTE   W12
        BYTE                   Gn5
        BYTE   W12
        BYTE                   Cn6
        BYTE   W12
        BYTE                   Dn6
        BYTE   W12
        BYTE                   Fn5
        BYTE   W12
        BYTE   PEND
// 039   ----------------------------------------
        BYTE   PATT
         POIN2  _34___Vast_Ice_Mountain_1_37
// 040   ----------------------------------------
        BYTE   PATT
         POIN2  _34___Vast_Ice_Mountain_1_38
// 041   ----------------------------------------
_34___Vast_Ice_Mountain_1_41:
        BYTE           N06     Fs5   v127
        BYTE   W12
        BYTE                   Bn5
        BYTE   W12
        BYTE                   Fs6
        BYTE   W12
        BYTE                   Fs5
        BYTE   W12
        BYTE                   Bn5
        BYTE   W12
        BYTE                   Fn6
        BYTE   W12
        BYTE                   Fs5
        BYTE   W12
        BYTE                   Bn5
        BYTE   W12
        BYTE   PEND
// 042   ----------------------------------------
_34___Vast_Ice_Mountain_1_42:
        BYTE           N06     Ds6   v127
        BYTE   W12
        BYTE                   Fs5
        BYTE   W12
        BYTE                   Bn5
        BYTE   W12
        BYTE                   Cs6
        BYTE   W12
        BYTE                   Fs5
        BYTE   W12
        BYTE                   Bn5
        BYTE   W12
        BYTE                   Cs6
        BYTE   W12
        BYTE                   Fn5
        BYTE   W12
        BYTE   PEND
// 043   ----------------------------------------
        BYTE   PATT
         POIN2  _34___Vast_Ice_Mountain_1_41
// 044   ----------------------------------------
        BYTE   PATT
         POIN2  _34___Vast_Ice_Mountain_1_42
// 045   ----------------------------------------
_34___Vast_Ice_Mountain_1_45:
        BYTE           N06     Ds5   v127
        BYTE   W12
        BYTE                   As5
        BYTE   W12
        BYTE                   Ds6
        BYTE   W12
        BYTE                   Ds5
        BYTE   W12
        BYTE                   As5
        BYTE   W12
        BYTE                   Fn6
        BYTE   W12
        BYTE                   Ds5
        BYTE   W12
        BYTE                   As5
        BYTE   W12
        BYTE   PEND
// 046   ----------------------------------------
_34___Vast_Ice_Mountain_1_46:
        BYTE           N06     Ds6   v127
        BYTE   W12
        BYTE                   Ds5
        BYTE   W12
        BYTE                   As5
        BYTE   W12
        BYTE                   Fn6
        BYTE   W12
        BYTE                   Ds5
        BYTE   W12
        BYTE                   As5
        BYTE   W12
        BYTE                   Ds6
        BYTE   W12
        BYTE                   Fn5
        BYTE   W12
        BYTE   PEND
// 047   ----------------------------------------
_34___Vast_Ice_Mountain_1_47:
        BYTE           N06     En5   v127
        BYTE   W12
        BYTE                   Bn5
        BYTE   W12
        BYTE                   En6
        BYTE   W12
        BYTE                   En5
        BYTE   W12
        BYTE                   Bn5
        BYTE   W12
        BYTE                   Fs6
        BYTE   W12
        BYTE                   En5
        BYTE   W12
        BYTE                   Bn5
        BYTE   W12
        BYTE   PEND
// 048   ----------------------------------------
_34___Vast_Ice_Mountain_1_48:
        BYTE           N06     En6   v127
        BYTE   W12
        BYTE                   En5
        BYTE   W12
        BYTE                   Bn5
        BYTE   W12
        BYTE                   Dn6
        BYTE   W12
        BYTE                   En5
        BYTE   W12
        BYTE                   Bn5
        BYTE   W12
        BYTE                   En6
        BYTE   W12
        BYTE                   Fs5
        BYTE   W12
        BYTE   PEND
// 049   ----------------------------------------
        BYTE   PATT
         POIN2  _34___Vast_Ice_Mountain_1_3
// 050   ----------------------------------------
        BYTE   PATT
         POIN2  _34___Vast_Ice_Mountain_1_2
// 051   ----------------------------------------
        BYTE   PATT
         POIN2  _34___Vast_Ice_Mountain_1_3
// 052   ----------------------------------------
        BYTE   PATT
         POIN2  _34___Vast_Ice_Mountain_1_2
// 053   ----------------------------------------
        BYTE   PATT
         POIN2  _34___Vast_Ice_Mountain_1_3
// 054   ----------------------------------------
        BYTE   PATT
         POIN2  _34___Vast_Ice_Mountain_1_2
// 055   ----------------------------------------
        BYTE   PATT
         POIN2  _34___Vast_Ice_Mountain_1_3
// 056   ----------------------------------------
        BYTE   PATT
         POIN2  _34___Vast_Ice_Mountain_1_2
// 057   ----------------------------------------
        BYTE   PATT
         POIN2  _34___Vast_Ice_Mountain_1_13
// 058   ----------------------------------------
        BYTE   PATT
         POIN2  _34___Vast_Ice_Mountain_1_14
// 059   ----------------------------------------
        BYTE   PATT
         POIN2  _34___Vast_Ice_Mountain_1_13
// 060   ----------------------------------------
        BYTE   PATT
         POIN2  _34___Vast_Ice_Mountain_1_14
// 061   ----------------------------------------
        BYTE   PATT
         POIN2  _34___Vast_Ice_Mountain_1_13
// 062   ----------------------------------------
        BYTE   PATT
         POIN2  _34___Vast_Ice_Mountain_1_14
// 063   ----------------------------------------
        BYTE   PATT
         POIN2  _34___Vast_Ice_Mountain_1_13
// 064   ----------------------------------------
        BYTE   PATT
         POIN2  _34___Vast_Ice_Mountain_1_14
// 065   ----------------------------------------
        BYTE   PATT
         POIN2  _34___Vast_Ice_Mountain_1_13
// 066   ----------------------------------------
        BYTE   PATT
         POIN2  _34___Vast_Ice_Mountain_1_14
// 067   ----------------------------------------
        BYTE   PATT
         POIN2  _34___Vast_Ice_Mountain_1_13
// 068   ----------------------------------------
        BYTE   PATT
         POIN2  _34___Vast_Ice_Mountain_1_14
// 069   ----------------------------------------
        BYTE   PATT
         POIN2  _34___Vast_Ice_Mountain_1_13
// 070   ----------------------------------------
        BYTE   PATT
         POIN2  _34___Vast_Ice_Mountain_1_14
// 071   ----------------------------------------
        BYTE   PATT
         POIN2  _34___Vast_Ice_Mountain_1_13
// 072   ----------------------------------------
        BYTE   PATT
         POIN2  _34___Vast_Ice_Mountain_1_14
// 073   ----------------------------------------
        BYTE   PATT
         POIN2  _34___Vast_Ice_Mountain_1_29
// 074   ----------------------------------------
        BYTE   PATT
         POIN2  _34___Vast_Ice_Mountain_1_30
// 075   ----------------------------------------
        BYTE   PATT
         POIN2  _34___Vast_Ice_Mountain_1_29
// 076   ----------------------------------------
        BYTE   PATT
         POIN2  _34___Vast_Ice_Mountain_1_30
// 077   ----------------------------------------
        BYTE   PATT
         POIN2  _34___Vast_Ice_Mountain_1_33
// 078   ----------------------------------------
        BYTE   PATT
         POIN2  _34___Vast_Ice_Mountain_1_34
// 079   ----------------------------------------
        BYTE   PATT
         POIN2  _34___Vast_Ice_Mountain_1_33
// 080   ----------------------------------------
        BYTE   PATT
         POIN2  _34___Vast_Ice_Mountain_1_34
// 081   ----------------------------------------
        BYTE   PATT
         POIN2  _34___Vast_Ice_Mountain_1_37
// 082   ----------------------------------------
        BYTE   PATT
         POIN2  _34___Vast_Ice_Mountain_1_38
// 083   ----------------------------------------
        BYTE   PATT
         POIN2  _34___Vast_Ice_Mountain_1_37
// 084   ----------------------------------------
        BYTE   PATT
         POIN2  _34___Vast_Ice_Mountain_1_38
// 085   ----------------------------------------
        BYTE   PATT
         POIN2  _34___Vast_Ice_Mountain_1_41
// 086   ----------------------------------------
        BYTE   PATT
         POIN2  _34___Vast_Ice_Mountain_1_42
// 087   ----------------------------------------
        BYTE   PATT
         POIN2  _34___Vast_Ice_Mountain_1_41
// 088   ----------------------------------------
        BYTE   PATT
         POIN2  _34___Vast_Ice_Mountain_1_42
// 089   ----------------------------------------
        BYTE   PATT
         POIN2  _34___Vast_Ice_Mountain_1_45
// 090   ----------------------------------------
        BYTE   PATT
         POIN2  _34___Vast_Ice_Mountain_1_46
// 091   ----------------------------------------
        BYTE   PATT
         POIN2  _34___Vast_Ice_Mountain_1_47
// 092   ----------------------------------------
        BYTE   PATT
         POIN2  _34___Vast_Ice_Mountain_1_48
// 093   ----------------------------------------
        BYTE   FINE

//****************** Track 2 (Midi-Chn.2) ******************//

_34___Vast_Ice_Mountain_2:
        BYTE   KEYSH   _34___Vast_Ice_Mountain_key+0
// 000   ----------------------------------------
        BYTE   W24
// 001   ----------------------------------------
        BYTE           PAN     c_v-10
        BYTE           VOL     45
        BYTE           VOICE   10
        BYTE   W06
        BYTE           N06     En4   v127
        BYTE   W12
        BYTE                   An4
        BYTE   W12
        BYTE                   Bn4
        BYTE   W12
        BYTE                   En5
        BYTE   W12
        BYTE                   An4
        BYTE   W12
        BYTE                   Bn4
        BYTE   W12
        BYTE                   En4
        BYTE   W12
        BYTE                   An4
        BYTE   W06
// 002   ----------------------------------------
_34___Vast_Ice_Mountain_2_2:
        BYTE   W06
        BYTE           N06     Bn4   v127
        BYTE   W12
        BYTE                   En5
        BYTE   W12
        BYTE                   An4
        BYTE   W12
        BYTE                   Bn4
        BYTE   W12
        BYTE                   Dn5
        BYTE   W12
        BYTE                   Gn4
        BYTE   W12
        BYTE                   An4
        BYTE   W12
        BYTE                   Bn3
        BYTE   W06
        BYTE   PEND
// 003   ----------------------------------------
_34___Vast_Ice_Mountain_2_3:
        BYTE   W06
        BYTE           N06     En4   v127
        BYTE   W12
        BYTE                   An4
        BYTE   W12
        BYTE                   Bn4
        BYTE   W12
        BYTE                   En5
        BYTE   W12
        BYTE                   An4
        BYTE   W12
        BYTE                   Bn4
        BYTE   W12
        BYTE                   En4
        BYTE   W12
        BYTE                   An4
        BYTE   W06
        BYTE   PEND
// 004   ----------------------------------------
        BYTE   PATT
         POIN2  _34___Vast_Ice_Mountain_2_2
// 005   ----------------------------------------
        BYTE   PATT
         POIN2  _34___Vast_Ice_Mountain_2_3
// 006   ----------------------------------------
        BYTE   PATT
         POIN2  _34___Vast_Ice_Mountain_2_2
// 007   ----------------------------------------
        BYTE   PATT
         POIN2  _34___Vast_Ice_Mountain_2_3
// 008   ----------------------------------------
        BYTE   PATT
         POIN2  _34___Vast_Ice_Mountain_2_2
// 009   ----------------------------------------
        BYTE   PATT
         POIN2  _34___Vast_Ice_Mountain_2_3
// 010   ----------------------------------------
        BYTE   PATT
         POIN2  _34___Vast_Ice_Mountain_2_2
// 011   ----------------------------------------
        BYTE   PATT
         POIN2  _34___Vast_Ice_Mountain_2_3
// 012   ----------------------------------------
        BYTE   PATT
         POIN2  _34___Vast_Ice_Mountain_2_2
// 013   ----------------------------------------
_34___Vast_Ice_Mountain_2_13:
        BYTE   W06
        BYTE           N06     En5   v127
        BYTE   W12
        BYTE                   An5
        BYTE   W12
        BYTE                   Bn5
        BYTE   W12
        BYTE                   En6
        BYTE   W12
        BYTE                   An5
        BYTE   W12
        BYTE                   Bn5
        BYTE   W12
        BYTE                   En5
        BYTE   W12
        BYTE                   An5
        BYTE   W06
        BYTE   PEND
// 014   ----------------------------------------
_34___Vast_Ice_Mountain_2_14:
        BYTE   W06
        BYTE           N06     Bn5   v127
        BYTE   W12
        BYTE                   En6
        BYTE   W12
        BYTE                   An5
        BYTE   W12
        BYTE                   Bn5
        BYTE   W12
        BYTE                   Dn6
        BYTE   W12
        BYTE                   Gn5
        BYTE   W12
        BYTE                   An5
        BYTE   W12
        BYTE                   Bn4
        BYTE   W06
        BYTE   PEND
// 015   ----------------------------------------
        BYTE   PATT
         POIN2  _34___Vast_Ice_Mountain_2_13
// 016   ----------------------------------------
        BYTE   PATT
         POIN2  _34___Vast_Ice_Mountain_2_14
// 017   ----------------------------------------
        BYTE   PATT
         POIN2  _34___Vast_Ice_Mountain_2_13
// 018   ----------------------------------------
        BYTE   PATT
         POIN2  _34___Vast_Ice_Mountain_2_14
// 019   ----------------------------------------
        BYTE   PATT
         POIN2  _34___Vast_Ice_Mountain_2_13
// 020   ----------------------------------------
        BYTE   PATT
         POIN2  _34___Vast_Ice_Mountain_2_14
// 021   ----------------------------------------
        BYTE   PATT
         POIN2  _34___Vast_Ice_Mountain_2_13
// 022   ----------------------------------------
        BYTE   PATT
         POIN2  _34___Vast_Ice_Mountain_2_14
// 023   ----------------------------------------
        BYTE   PATT
         POIN2  _34___Vast_Ice_Mountain_2_13
// 024   ----------------------------------------
        BYTE   PATT
         POIN2  _34___Vast_Ice_Mountain_2_14
// 025   ----------------------------------------
        BYTE   PATT
         POIN2  _34___Vast_Ice_Mountain_2_13
// 026   ----------------------------------------
        BYTE   PATT
         POIN2  _34___Vast_Ice_Mountain_2_14
// 027   ----------------------------------------
        BYTE   PATT
         POIN2  _34___Vast_Ice_Mountain_2_13
// 028   ----------------------------------------
        BYTE   PATT
         POIN2  _34___Vast_Ice_Mountain_2_14
// 029   ----------------------------------------
_34___Vast_Ice_Mountain_2_29:
        BYTE   W06
        BYTE           N06     En5   v127
        BYTE   W12
        BYTE                   An5
        BYTE   W12
        BYTE                   En6
        BYTE   W12
        BYTE                   En5
        BYTE   W12
        BYTE                   An5
        BYTE   W12
        BYTE                   Dn6
        BYTE   W12
        BYTE                   En5
        BYTE   W12
        BYTE                   An5
        BYTE   W06
        BYTE   PEND
// 030   ----------------------------------------
_34___Vast_Ice_Mountain_2_30:
        BYTE   W06
        BYTE           N06     Cn6   v127
        BYTE   W12
        BYTE                   En5
        BYTE   W12
        BYTE                   An5
        BYTE   W12
        BYTE                   Bn5
        BYTE   W12
        BYTE                   En5
        BYTE   W12
        BYTE                   An5
        BYTE   W12
        BYTE                   Bn5
        BYTE   W12
        BYTE                   Dn5
        BYTE   W06
        BYTE   PEND
// 031   ----------------------------------------
        BYTE   PATT
         POIN2  _34___Vast_Ice_Mountain_2_29
// 032   ----------------------------------------
        BYTE   PATT
         POIN2  _34___Vast_Ice_Mountain_2_30
// 033   ----------------------------------------
_34___Vast_Ice_Mountain_2_33:
        BYTE   W06
        BYTE           N06     Ds5   v127
        BYTE   W12
        BYTE                   Gs5
        BYTE   W12
        BYTE                   Ds6
        BYTE   W12
        BYTE                   Ds5
        BYTE   W12
        BYTE                   Gs5
        BYTE   W12
        BYTE                   Dn6
        BYTE   W12
        BYTE                   Ds5
        BYTE   W12
        BYTE                   Gs5
        BYTE   W06
        BYTE   PEND
// 034   ----------------------------------------
_34___Vast_Ice_Mountain_2_34:
        BYTE   W06
        BYTE           N06     Cn6   v127
        BYTE   W12
        BYTE                   Ds5
        BYTE   W12
        BYTE                   Gs5
        BYTE   W12
        BYTE                   As5
        BYTE   W12
        BYTE                   Ds5
        BYTE   W12
        BYTE                   Gs5
        BYTE   W12
        BYTE                   As5
        BYTE   W12
        BYTE                   Dn5
        BYTE   W06
        BYTE   PEND
// 035   ----------------------------------------
        BYTE   PATT
         POIN2  _34___Vast_Ice_Mountain_2_33
// 036   ----------------------------------------
        BYTE   PATT
         POIN2  _34___Vast_Ice_Mountain_2_34
// 037   ----------------------------------------
_34___Vast_Ice_Mountain_2_37:
        BYTE   W06
        BYTE           N06     Gn5   v127
        BYTE   W12
        BYTE                   Cn6
        BYTE   W12
        BYTE                   Gn6
        BYTE   W12
        BYTE                   Gn5
        BYTE   W12
        BYTE                   Cn6
        BYTE   W12
        BYTE                   Fn6
        BYTE   W12
        BYTE                   Gn5
        BYTE   W12
        BYTE                   Cn6
        BYTE   W06
        BYTE   PEND
// 038   ----------------------------------------
_34___Vast_Ice_Mountain_2_38:
        BYTE   W06
        BYTE           N06     Ds6   v127
        BYTE   W12
        BYTE                   Gn5
        BYTE   W12
        BYTE                   Cn6
        BYTE   W12
        BYTE                   Dn6
        BYTE   W12
        BYTE                   Gn5
        BYTE   W12
        BYTE                   Cn6
        BYTE   W12
        BYTE                   Dn6
        BYTE   W12
        BYTE                   Fn5
        BYTE   W06
        BYTE   PEND
// 039   ----------------------------------------
        BYTE   PATT
         POIN2  _34___Vast_Ice_Mountain_2_37
// 040   ----------------------------------------
        BYTE   PATT
         POIN2  _34___Vast_Ice_Mountain_2_38
// 041   ----------------------------------------
_34___Vast_Ice_Mountain_2_41:
        BYTE   W06
        BYTE           N06     Fs5   v127
        BYTE   W12
        BYTE                   Bn5
        BYTE   W12
        BYTE                   Fs6
        BYTE   W12
        BYTE                   Fs5
        BYTE   W12
        BYTE                   Bn5
        BYTE   W12
        BYTE                   Fn6
        BYTE   W12
        BYTE                   Fs5
        BYTE   W12
        BYTE                   Bn5
        BYTE   W06
        BYTE   PEND
// 042   ----------------------------------------
_34___Vast_Ice_Mountain_2_42:
        BYTE   W06
        BYTE           N06     Ds6   v127
        BYTE   W12
        BYTE                   Fs5
        BYTE   W12
        BYTE                   Bn5
        BYTE   W12
        BYTE                   Cs6
        BYTE   W12
        BYTE                   Fs5
        BYTE   W12
        BYTE                   Bn5
        BYTE   W12
        BYTE                   Cs6
        BYTE   W12
        BYTE                   Fn5
        BYTE   W06
        BYTE   PEND
// 043   ----------------------------------------
        BYTE   PATT
         POIN2  _34___Vast_Ice_Mountain_2_41
// 044   ----------------------------------------
        BYTE   PATT
         POIN2  _34___Vast_Ice_Mountain_2_42
// 045   ----------------------------------------
_34___Vast_Ice_Mountain_2_45:
        BYTE   W06
        BYTE           N06     Ds5   v127
        BYTE   W12
        BYTE                   As5
        BYTE   W12
        BYTE                   Ds6
        BYTE   W12
        BYTE                   Ds5
        BYTE   W12
        BYTE                   As5
        BYTE   W12
        BYTE                   Fn6
        BYTE   W12
        BYTE                   Ds5
        BYTE   W12
        BYTE                   As5
        BYTE   W06
        BYTE   PEND
// 046   ----------------------------------------
_34___Vast_Ice_Mountain_2_46:
        BYTE   W06
        BYTE           N06     Ds6   v127
        BYTE   W12
        BYTE                   Ds5
        BYTE   W12
        BYTE                   As5
        BYTE   W12
        BYTE                   Fn6
        BYTE   W12
        BYTE                   Ds5
        BYTE   W12
        BYTE                   As5
        BYTE   W12
        BYTE                   Ds6
        BYTE   W12
        BYTE                   Fn5
        BYTE   W06
        BYTE   PEND
// 047   ----------------------------------------
_34___Vast_Ice_Mountain_2_47:
        BYTE   W06
        BYTE           N06     En5   v127
        BYTE   W12
        BYTE                   Bn5
        BYTE   W12
        BYTE                   En6
        BYTE   W12
        BYTE                   En5
        BYTE   W12
        BYTE                   Bn5
        BYTE   W12
        BYTE                   Fs6
        BYTE   W12
        BYTE                   En5
        BYTE   W12
        BYTE                   Bn5
        BYTE   W06
        BYTE   PEND
// 048   ----------------------------------------
_34___Vast_Ice_Mountain_2_48:
        BYTE   W06
        BYTE           N06     En6   v127
        BYTE   W12
        BYTE                   En5
        BYTE   W12
        BYTE                   Bn5
        BYTE   W12
        BYTE                   Dn6
        BYTE   W12
        BYTE                   En5
        BYTE   W12
        BYTE                   Bn5
        BYTE   W12
        BYTE                   En6
        BYTE   W12
        BYTE                   Fs5
        BYTE   W06
        BYTE   PEND
// 049   ----------------------------------------
        BYTE   PATT
         POIN2  _34___Vast_Ice_Mountain_2_3
// 050   ----------------------------------------
        BYTE   PATT
         POIN2  _34___Vast_Ice_Mountain_2_2
// 051   ----------------------------------------
        BYTE   PATT
         POIN2  _34___Vast_Ice_Mountain_2_3
// 052   ----------------------------------------
        BYTE   PATT
         POIN2  _34___Vast_Ice_Mountain_2_2
// 053   ----------------------------------------
        BYTE   PATT
         POIN2  _34___Vast_Ice_Mountain_2_3
// 054   ----------------------------------------
        BYTE   PATT
         POIN2  _34___Vast_Ice_Mountain_2_2
// 055   ----------------------------------------
        BYTE   PATT
         POIN2  _34___Vast_Ice_Mountain_2_3
// 056   ----------------------------------------
        BYTE   PATT
         POIN2  _34___Vast_Ice_Mountain_2_2
// 057   ----------------------------------------
        BYTE   PATT
         POIN2  _34___Vast_Ice_Mountain_2_13
// 058   ----------------------------------------
        BYTE   PATT
         POIN2  _34___Vast_Ice_Mountain_2_14
// 059   ----------------------------------------
        BYTE   PATT
         POIN2  _34___Vast_Ice_Mountain_2_13
// 060   ----------------------------------------
        BYTE   PATT
         POIN2  _34___Vast_Ice_Mountain_2_14
// 061   ----------------------------------------
        BYTE   PATT
         POIN2  _34___Vast_Ice_Mountain_2_13
// 062   ----------------------------------------
        BYTE   PATT
         POIN2  _34___Vast_Ice_Mountain_2_14
// 063   ----------------------------------------
        BYTE   PATT
         POIN2  _34___Vast_Ice_Mountain_2_13
// 064   ----------------------------------------
        BYTE   PATT
         POIN2  _34___Vast_Ice_Mountain_2_14
// 065   ----------------------------------------
        BYTE   PATT
         POIN2  _34___Vast_Ice_Mountain_2_13
// 066   ----------------------------------------
        BYTE   PATT
         POIN2  _34___Vast_Ice_Mountain_2_14
// 067   ----------------------------------------
        BYTE   PATT
         POIN2  _34___Vast_Ice_Mountain_2_13
// 068   ----------------------------------------
        BYTE   PATT
         POIN2  _34___Vast_Ice_Mountain_2_14
// 069   ----------------------------------------
        BYTE   PATT
         POIN2  _34___Vast_Ice_Mountain_2_13
// 070   ----------------------------------------
        BYTE   PATT
         POIN2  _34___Vast_Ice_Mountain_2_14
// 071   ----------------------------------------
        BYTE   PATT
         POIN2  _34___Vast_Ice_Mountain_2_13
// 072   ----------------------------------------
        BYTE   PATT
         POIN2  _34___Vast_Ice_Mountain_2_14
// 073   ----------------------------------------
        BYTE   PATT
         POIN2  _34___Vast_Ice_Mountain_2_29
// 074   ----------------------------------------
        BYTE   PATT
         POIN2  _34___Vast_Ice_Mountain_2_30
// 075   ----------------------------------------
        BYTE   PATT
         POIN2  _34___Vast_Ice_Mountain_2_29
// 076   ----------------------------------------
        BYTE   PATT
         POIN2  _34___Vast_Ice_Mountain_2_30
// 077   ----------------------------------------
        BYTE   PATT
         POIN2  _34___Vast_Ice_Mountain_2_33
// 078   ----------------------------------------
        BYTE   PATT
         POIN2  _34___Vast_Ice_Mountain_2_34
// 079   ----------------------------------------
        BYTE   PATT
         POIN2  _34___Vast_Ice_Mountain_2_33
// 080   ----------------------------------------
        BYTE   PATT
         POIN2  _34___Vast_Ice_Mountain_2_34
// 081   ----------------------------------------
        BYTE   PATT
         POIN2  _34___Vast_Ice_Mountain_2_37
// 082   ----------------------------------------
        BYTE   PATT
         POIN2  _34___Vast_Ice_Mountain_2_38
// 083   ----------------------------------------
        BYTE   PATT
         POIN2  _34___Vast_Ice_Mountain_2_37
// 084   ----------------------------------------
        BYTE   PATT
         POIN2  _34___Vast_Ice_Mountain_2_38
// 085   ----------------------------------------
        BYTE   PATT
         POIN2  _34___Vast_Ice_Mountain_2_41
// 086   ----------------------------------------
        BYTE   PATT
         POIN2  _34___Vast_Ice_Mountain_2_42
// 087   ----------------------------------------
        BYTE   PATT
         POIN2  _34___Vast_Ice_Mountain_2_41
// 088   ----------------------------------------
        BYTE   PATT
         POIN2  _34___Vast_Ice_Mountain_2_42
// 089   ----------------------------------------
        BYTE   PATT
         POIN2  _34___Vast_Ice_Mountain_2_45
// 090   ----------------------------------------
        BYTE   PATT
         POIN2  _34___Vast_Ice_Mountain_2_46
// 091   ----------------------------------------
        BYTE   PATT
         POIN2  _34___Vast_Ice_Mountain_2_47
// 092   ----------------------------------------
        BYTE   PATT
         POIN2  _34___Vast_Ice_Mountain_2_48
// 093   ----------------------------------------
        BYTE   FINE

//****************** Track 3 (Midi-Chn.3) ******************//

_34___Vast_Ice_Mountain_3:
        BYTE   KEYSH   _34___Vast_Ice_Mountain_key+0
// 000   ----------------------------------------
        BYTE   W24
// 001   ----------------------------------------
        BYTE           PAN     c_v+10
        BYTE           VOL     50
        BYTE           VOICE   10
        BYTE   W06
        BYTE           N06     An4   v127
        BYTE   W12
        BYTE                   En4
        BYTE   W12
        BYTE                   Gn4
        BYTE   W12
        BYTE                   Bn4
        BYTE   W12
        BYTE                   Gn4
        BYTE   W12
        BYTE                   En4
        BYTE   W12
        BYTE                   Dn4
        BYTE   W12
        BYTE                   Bn4
        BYTE   W06
// 002   ----------------------------------------
_34___Vast_Ice_Mountain_3_2:
        BYTE   W06
        BYTE           N06     An4   v127
        BYTE   W12
        BYTE                   Gn4
        BYTE   W12
        BYTE                   An4
        BYTE   W12
        BYTE                   Cn5
        BYTE   W12
        BYTE                   Bn4
        BYTE   W12
        BYTE                   An4
        BYTE   W12
        BYTE                   Gn4
        BYTE   W12
        BYTE                   En4
        BYTE   W06
        BYTE   PEND
// 003   ----------------------------------------
_34___Vast_Ice_Mountain_3_3:
        BYTE   W06
        BYTE           N06     An4   v127
        BYTE   W12
        BYTE                   En4
        BYTE   W12
        BYTE                   Gn4
        BYTE   W12
        BYTE                   Bn4
        BYTE   W12
        BYTE                   Gn4
        BYTE   W12
        BYTE                   En4
        BYTE   W12
        BYTE                   Dn4
        BYTE   W12
        BYTE                   Bn4
        BYTE   W06
        BYTE   PEND
// 004   ----------------------------------------
        BYTE   PATT
         POIN2  _34___Vast_Ice_Mountain_3_2
// 005   ----------------------------------------
        BYTE   PATT
         POIN2  _34___Vast_Ice_Mountain_3_3
// 006   ----------------------------------------
        BYTE   PATT
         POIN2  _34___Vast_Ice_Mountain_3_2
// 007   ----------------------------------------
        BYTE   PATT
         POIN2  _34___Vast_Ice_Mountain_3_3
// 008   ----------------------------------------
        BYTE   PATT
         POIN2  _34___Vast_Ice_Mountain_3_2
// 009   ----------------------------------------
        BYTE   PATT
         POIN2  _34___Vast_Ice_Mountain_3_3
// 010   ----------------------------------------
        BYTE   PATT
         POIN2  _34___Vast_Ice_Mountain_3_2
// 011   ----------------------------------------
        BYTE   PATT
         POIN2  _34___Vast_Ice_Mountain_3_3
// 012   ----------------------------------------
        BYTE   PATT
         POIN2  _34___Vast_Ice_Mountain_3_2
// 013   ----------------------------------------
        BYTE   W96
// 014   ----------------------------------------
        BYTE   W96
// 015   ----------------------------------------
_34___Vast_Ice_Mountain_3_15:
        BYTE           PAN     c_v+16
        BYTE           VOL     70
        BYTE           VOICE   17
        BYTE   W96
        BYTE   PEND
// 016   ----------------------------------------
_34___Vast_Ice_Mountain_3_16:
        BYTE           N36     En5   v127
        BYTE   W36
        BYTE           N06     Dn5
        BYTE   W06
        BYTE                   Cn5
        BYTE   W06
        BYTE           N18     Bn4
        BYTE   W18
        BYTE                   Gn4
        BYTE   W18
        BYTE           N12     Dn4
        BYTE   W12
        BYTE   PEND
// 017   ----------------------------------------
        BYTE           N96     En4
        BYTE   W96
// 018   ----------------------------------------
        BYTE   W96
// 019   ----------------------------------------
        BYTE   W96
// 020   ----------------------------------------
_34___Vast_Ice_Mountain_3_20:
        BYTE           N36     An5   v127
        BYTE   W36
        BYTE           N06     Gn5
        BYTE   W06
        BYTE                   Fs5
        BYTE   W06
        BYTE           N18     En5
        BYTE   W18
        BYTE                   Cn5
        BYTE   W18
        BYTE           N12     En5
        BYTE   W12
        BYTE   PEND
// 021   ----------------------------------------
        BYTE           N96     Dn5
        BYTE   W96
// 022   ----------------------------------------
        BYTE   W96
// 023   ----------------------------------------
        BYTE   W96
// 024   ----------------------------------------
        BYTE   W96
// 025   ----------------------------------------
        BYTE   W96
// 026   ----------------------------------------
        BYTE   W96
// 027   ----------------------------------------
        BYTE   W96
// 028   ----------------------------------------
        BYTE   W96
// 029   ----------------------------------------
        BYTE   W96
// 030   ----------------------------------------
        BYTE   W96
// 031   ----------------------------------------
        BYTE   W96
// 032   ----------------------------------------
        BYTE   W96
// 033   ----------------------------------------
        BYTE   W96
// 034   ----------------------------------------
        BYTE   W96
// 035   ----------------------------------------
        BYTE   W96
// 036   ----------------------------------------
_34___Vast_Ice_Mountain_3_36:
        BYTE           PAN     c_v+10
        BYTE           VOL     50
        BYTE           VOICE   10
        BYTE   W96
        BYTE   PEND
// 037   ----------------------------------------
        BYTE   W96
// 038   ----------------------------------------
        BYTE   W96
// 039   ----------------------------------------
        BYTE   W96
// 040   ----------------------------------------
        BYTE   W96
// 041   ----------------------------------------
        BYTE   W96
// 042   ----------------------------------------
        BYTE   W96
// 043   ----------------------------------------
        BYTE   W96
// 044   ----------------------------------------
        BYTE   W96
// 045   ----------------------------------------
        BYTE   W96
// 046   ----------------------------------------
        BYTE   W96
// 047   ----------------------------------------
        BYTE   W96
// 048   ----------------------------------------
        BYTE   W96
// 049   ----------------------------------------
        BYTE   PATT
         POIN2  _34___Vast_Ice_Mountain_3_3
// 050   ----------------------------------------
        BYTE   PATT
         POIN2  _34___Vast_Ice_Mountain_3_2
// 051   ----------------------------------------
        BYTE   PATT
         POIN2  _34___Vast_Ice_Mountain_3_3
// 052   ----------------------------------------
        BYTE   PATT
         POIN2  _34___Vast_Ice_Mountain_3_2
// 053   ----------------------------------------
        BYTE   PATT
         POIN2  _34___Vast_Ice_Mountain_3_3
// 054   ----------------------------------------
        BYTE   PATT
         POIN2  _34___Vast_Ice_Mountain_3_2
// 055   ----------------------------------------
        BYTE   PATT
         POIN2  _34___Vast_Ice_Mountain_3_3
// 056   ----------------------------------------
        BYTE   PATT
         POIN2  _34___Vast_Ice_Mountain_3_2
// 057   ----------------------------------------
        BYTE   W96
// 058   ----------------------------------------
        BYTE   W96
// 059   ----------------------------------------
        BYTE   PATT
         POIN2  _34___Vast_Ice_Mountain_3_15
// 060   ----------------------------------------
        BYTE   PATT
         POIN2  _34___Vast_Ice_Mountain_3_16
// 061   ----------------------------------------
        BYTE           N96     En4   v127
        BYTE   W96
// 062   ----------------------------------------
        BYTE   W96
// 063   ----------------------------------------
        BYTE   W96
// 064   ----------------------------------------
        BYTE   PATT
         POIN2  _34___Vast_Ice_Mountain_3_20
// 065   ----------------------------------------
        BYTE           N96     Dn5   v127
        BYTE   W96
// 066   ----------------------------------------
        BYTE   W96
// 067   ----------------------------------------
        BYTE   W96
// 068   ----------------------------------------
        BYTE   W96
// 069   ----------------------------------------
        BYTE   W96
// 070   ----------------------------------------
        BYTE   W96
// 071   ----------------------------------------
        BYTE   W96
// 072   ----------------------------------------
        BYTE   W96
// 073   ----------------------------------------
        BYTE   W96
// 074   ----------------------------------------
        BYTE   W96
// 075   ----------------------------------------
        BYTE   W96
// 076   ----------------------------------------
        BYTE   W96
// 077   ----------------------------------------
        BYTE   W96
// 078   ----------------------------------------
        BYTE   W96
// 079   ----------------------------------------
        BYTE   W96
// 080   ----------------------------------------
        BYTE   PATT
         POIN2  _34___Vast_Ice_Mountain_3_36
// 081   ----------------------------------------
        BYTE   W96
// 082   ----------------------------------------
        BYTE   W96
// 083   ----------------------------------------
        BYTE   W96
// 084   ----------------------------------------
        BYTE   W96
// 085   ----------------------------------------
        BYTE   W96
// 086   ----------------------------------------
        BYTE   W96
// 087   ----------------------------------------
        BYTE   W96
// 088   ----------------------------------------
        BYTE   W96
// 089   ----------------------------------------
        BYTE   W96
// 090   ----------------------------------------
        BYTE   W96
// 091   ----------------------------------------
        BYTE   W96
// 092   ----------------------------------------
        BYTE   W96
// 093   ----------------------------------------
        BYTE   FINE

//****************** Track 4 (Midi-Chn.4) ******************//

_34___Vast_Ice_Mountain_4:
        BYTE   KEYSH   _34___Vast_Ice_Mountain_key+0
// 000   ----------------------------------------
        BYTE   W24
// 001   ----------------------------------------
        BYTE           VOL     83
        BYTE           VOICE   48
        BYTE           TIE     An0   v127
        BYTE   W96
// 002   ----------------------------------------
        BYTE   W96
// 003   ----------------------------------------
_34___Vast_Ice_Mountain_4_3:
        BYTE           EOT     An0
        BYTE           TIE     An0   v127
        BYTE   W96
        BYTE   PEND
// 004   ----------------------------------------
        BYTE   W96
// 005   ----------------------------------------
        BYTE   PATT
         POIN2  _34___Vast_Ice_Mountain_4_3
// 006   ----------------------------------------
        BYTE   W96
// 007   ----------------------------------------
        BYTE   PATT
         POIN2  _34___Vast_Ice_Mountain_4_3
// 008   ----------------------------------------
        BYTE   W96
// 009   ----------------------------------------
        BYTE   PATT
         POIN2  _34___Vast_Ice_Mountain_4_3
// 010   ----------------------------------------
        BYTE   W96
// 011   ----------------------------------------
        BYTE   PATT
         POIN2  _34___Vast_Ice_Mountain_4_3
// 012   ----------------------------------------
        BYTE   W96
// 013   ----------------------------------------
        BYTE           EOT     An0
        BYTE   W96
// 014   ----------------------------------------
        BYTE   W96
// 015   ----------------------------------------
        BYTE   W96
// 016   ----------------------------------------
        BYTE   W96
// 017   ----------------------------------------
        BYTE   W96
// 018   ----------------------------------------
        BYTE   W96
// 019   ----------------------------------------
        BYTE   W96
// 020   ----------------------------------------
_34___Vast_Ice_Mountain_4_20:
        BYTE   W60
        BYTE           N18     An3   v127
        BYTE   W18
        BYTE                   Cn4
        BYTE   W18
        BYTE   PEND
// 021   ----------------------------------------
_34___Vast_Ice_Mountain_4_21:
        BYTE           N36     En4   v127
        BYTE   W36
        BYTE           N06     Dn4
        BYTE   W06
        BYTE                   Cn4
        BYTE   W06
        BYTE           N18     Bn3
        BYTE   W18
        BYTE                   An3
        BYTE   W18
        BYTE           N06     Bn3
        BYTE   W06
        BYTE                   Cn4
        BYTE   W06
        BYTE   PEND
// 022   ----------------------------------------
_34___Vast_Ice_Mountain_4_22:
        BYTE           N18     Bn3   v127
        BYTE   W18
        BYTE                   Gn3
        BYTE   W18
        BYTE           N30     Dn3
        BYTE   W36
        BYTE           N06     Bn2
        BYTE   W06
        BYTE                   Cn3
        BYTE   W06
        BYTE                   Dn3
        BYTE   W12
        BYTE   PEND
// 023   ----------------------------------------
_34___Vast_Ice_Mountain_4_23:
        BYTE           N18     En3   v127
        BYTE   W18
        BYTE           N12     An3
        BYTE   W18
        BYTE           N60
        BYTE   W60
        BYTE   PEND
// 024   ----------------------------------------
_34___Vast_Ice_Mountain_4_24:
        BYTE   W60
        BYTE           N18     Cn4   v127
        BYTE           N18     An4
        BYTE   W18
        BYTE                   En4
        BYTE           N18     Cn5
        BYTE   W18
        BYTE   PEND
// 025   ----------------------------------------
_34___Vast_Ice_Mountain_4_25:
        BYTE           N36     Gn4   v127
        BYTE           N36     En5
        BYTE   W36
        BYTE           N06     Fn4
        BYTE           N06     Dn5
        BYTE   W06
        BYTE                   En4
        BYTE           N06     Cn5
        BYTE   W06
        BYTE           N18     Dn4
        BYTE           N18     Bn4
        BYTE   W18
        BYTE                   Cn4
        BYTE           N18     An4
        BYTE   W18
        BYTE           N06     Dn4
        BYTE           N06     Bn4
        BYTE   W06
        BYTE                   En4
        BYTE           N06     Cn5
        BYTE   W06
        BYTE   PEND
// 026   ----------------------------------------
_34___Vast_Ice_Mountain_4_26:
        BYTE           N18     Dn4   v127
        BYTE           N18     Bn4
        BYTE   W18
        BYTE                   Bn3
        BYTE           N18     Gn4
        BYTE   W18
        BYTE           N30     Gn3
        BYTE           N30     Dn4
        BYTE   W36
        BYTE           N06     Dn3
        BYTE           N06     Bn3
        BYTE   W06
        BYTE                   En3
        BYTE           N06     Cn4
        BYTE   W06
        BYTE                   Fn3
        BYTE           N06     Dn4
        BYTE   W12
        BYTE   PEND
// 027   ----------------------------------------
_34___Vast_Ice_Mountain_4_27:
        BYTE           N18     Gn3   v127
        BYTE           N18     En4
        BYTE   W18
        BYTE           N12     Cn4
        BYTE           N12     An4
        BYTE   W18
        BYTE           N60     Cn4
        BYTE           N60     An4
        BYTE   W60
        BYTE   PEND
// 028   ----------------------------------------
_34___Vast_Ice_Mountain_4_28:
        BYTE           N18     Cn3   v127
        BYTE           N18     En3
        BYTE   W18
        BYTE           N12
        BYTE           N12     An3
        BYTE   W18
        BYTE           N60     En3
        BYTE           N60     An3
        BYTE   W60
        BYTE   PEND
// 029   ----------------------------------------
        BYTE   W96
// 030   ----------------------------------------
        BYTE   W96
// 031   ----------------------------------------
        BYTE   W96
// 032   ----------------------------------------
        BYTE   W96
// 033   ----------------------------------------
        BYTE   W96
// 034   ----------------------------------------
        BYTE   W96
// 035   ----------------------------------------
        BYTE   W96
// 036   ----------------------------------------
        BYTE   W96
// 037   ----------------------------------------
_34___Vast_Ice_Mountain_4_37:
        BYTE           N36     Ds4   v127
        BYTE   W36
        BYTE           N06     Dn4
        BYTE   W06
        BYTE                   Ds4
        BYTE   W06
        BYTE           N18     Cn4
        BYTE   W18
        BYTE                   Ds4
        BYTE   W18
        BYTE           N12     Gn4
        BYTE   W12
        BYTE   PEND
// 038   ----------------------------------------
_34___Vast_Ice_Mountain_4_38:
        BYTE           N18     Fn4   v127
        BYTE   W18
        BYTE                   Dn4
        BYTE   W18
        BYTE           N36     As3
        BYTE   W48
        BYTE           N06     Cn4
        BYTE   W06
        BYTE                   Dn4
        BYTE   W06
        BYTE   PEND
// 039   ----------------------------------------
        BYTE   PATT
         POIN2  _34___Vast_Ice_Mountain_4_37
// 040   ----------------------------------------
_34___Vast_Ice_Mountain_4_40:
        BYTE           N24     Fn4   v127
        BYTE   W24
        BYTE           N06     Cn4
        BYTE   W06
        BYTE                   Dn4
        BYTE   W06
        BYTE           N36     As4
        BYTE   W36
        BYTE           N06     Gs3
        BYTE   W06
        BYTE                   As3
        BYTE   W06
        BYTE                   Cn4
        BYTE   W06
        BYTE                   Dn4
        BYTE   W06
        BYTE   PEND
// 041   ----------------------------------------
_34___Vast_Ice_Mountain_4_41:
        BYTE           N36     Ds4   v127
        BYTE   W36
        BYTE           N06     Cs4
        BYTE   W06
        BYTE                   Bn3
        BYTE   W06
        BYTE           N18     As3
        BYTE   W18
        BYTE                   Ds4
        BYTE   W18
        BYTE           N12     As4
        BYTE   W12
        BYTE   PEND
// 042   ----------------------------------------
_34___Vast_Ice_Mountain_4_42:
        BYTE           N24     Gs4   v127
        BYTE   W24
        BYTE           N06     Fs4
        BYTE   W06
        BYTE                   Gs4
        BYTE   W06
        BYTE           N36     Fn4
        BYTE   W36
        BYTE           N24     Cs4
        BYTE   W24
        BYTE   PEND
// 043   ----------------------------------------
_34___Vast_Ice_Mountain_4_43:
        BYTE           N36     Fs4   v127
        BYTE   W36
        BYTE           N06     Fn4
        BYTE   W06
        BYTE                   Ds4
        BYTE   W06
        BYTE           N18
        BYTE   W18
        BYTE                   As4
        BYTE   W18
        BYTE           N12     Ds5
        BYTE   W12
        BYTE   PEND
// 044   ----------------------------------------
_34___Vast_Ice_Mountain_4_44:
        BYTE           N18     Cs5   v127
        BYTE   W18
        BYTE                   Gs4
        BYTE   W18
        BYTE           N42     Fn5
        BYTE   W42
        BYTE           N18
        BYTE   W18
        BYTE   PEND
// 045   ----------------------------------------
        BYTE           TIE     Ds5
        BYTE   W96
// 046   ----------------------------------------
        BYTE   W96
// 047   ----------------------------------------
        BYTE           EOT
        BYTE   W96
// 048   ----------------------------------------
        BYTE   W96
// 049   ----------------------------------------
        BYTE           TIE     An0
        BYTE   W96
// 050   ----------------------------------------
        BYTE   W96
// 051   ----------------------------------------
        BYTE   PATT
         POIN2  _34___Vast_Ice_Mountain_4_3
// 052   ----------------------------------------
        BYTE   W96
// 053   ----------------------------------------
        BYTE   PATT
         POIN2  _34___Vast_Ice_Mountain_4_3
// 054   ----------------------------------------
        BYTE   W96
// 055   ----------------------------------------
        BYTE   PATT
         POIN2  _34___Vast_Ice_Mountain_4_3
// 056   ----------------------------------------
        BYTE   W96
// 057   ----------------------------------------
        BYTE           EOT     An0
        BYTE   W96
// 058   ----------------------------------------
        BYTE   W96
// 059   ----------------------------------------
        BYTE   W96
// 060   ----------------------------------------
        BYTE   W96
// 061   ----------------------------------------
        BYTE   W96
// 062   ----------------------------------------
        BYTE   W96
// 063   ----------------------------------------
        BYTE   W96
// 064   ----------------------------------------
        BYTE   PATT
         POIN2  _34___Vast_Ice_Mountain_4_20
// 065   ----------------------------------------
        BYTE   PATT
         POIN2  _34___Vast_Ice_Mountain_4_21
// 066   ----------------------------------------
        BYTE   PATT
         POIN2  _34___Vast_Ice_Mountain_4_22
// 067   ----------------------------------------
        BYTE   PATT
         POIN2  _34___Vast_Ice_Mountain_4_23
// 068   ----------------------------------------
        BYTE   PATT
         POIN2  _34___Vast_Ice_Mountain_4_24
// 069   ----------------------------------------
        BYTE   PATT
         POIN2  _34___Vast_Ice_Mountain_4_25
// 070   ----------------------------------------
        BYTE   PATT
         POIN2  _34___Vast_Ice_Mountain_4_26
// 071   ----------------------------------------
        BYTE   PATT
         POIN2  _34___Vast_Ice_Mountain_4_27
// 072   ----------------------------------------
        BYTE   PATT
         POIN2  _34___Vast_Ice_Mountain_4_28
// 073   ----------------------------------------
        BYTE   W96
// 074   ----------------------------------------
        BYTE   W96
// 075   ----------------------------------------
        BYTE   W96
// 076   ----------------------------------------
        BYTE   W96
// 077   ----------------------------------------
        BYTE   W96
// 078   ----------------------------------------
        BYTE   W96
// 079   ----------------------------------------
        BYTE   W96
// 080   ----------------------------------------
        BYTE   W96
// 081   ----------------------------------------
        BYTE   PATT
         POIN2  _34___Vast_Ice_Mountain_4_37
// 082   ----------------------------------------
        BYTE   PATT
         POIN2  _34___Vast_Ice_Mountain_4_38
// 083   ----------------------------------------
        BYTE   PATT
         POIN2  _34___Vast_Ice_Mountain_4_37
// 084   ----------------------------------------
        BYTE   PATT
         POIN2  _34___Vast_Ice_Mountain_4_40
// 085   ----------------------------------------
        BYTE   PATT
         POIN2  _34___Vast_Ice_Mountain_4_41
// 086   ----------------------------------------
        BYTE   PATT
         POIN2  _34___Vast_Ice_Mountain_4_42
// 087   ----------------------------------------
        BYTE   PATT
         POIN2  _34___Vast_Ice_Mountain_4_43
// 088   ----------------------------------------
        BYTE   PATT
         POIN2  _34___Vast_Ice_Mountain_4_44
// 089   ----------------------------------------
        BYTE           TIE     Ds5   v127
        BYTE   W96
// 090   ----------------------------------------
        BYTE   W96
// 091   ----------------------------------------
        BYTE           EOT
        BYTE   W96
// 092   ----------------------------------------
        BYTE   W96
// 093   ----------------------------------------
        BYTE   FINE

//****************** Track 5 (Midi-Chn.5) ******************//

_34___Vast_Ice_Mountain_5:
        BYTE   KEYSH   _34___Vast_Ice_Mountain_key+0
// 000   ----------------------------------------
        BYTE   W24
// 001   ----------------------------------------
        BYTE           PAN     c_v-24
        BYTE           VOL     83
        BYTE           VOICE   48
        BYTE   W48
        BYTE           N48     Cn3   v127
        BYTE   W48
// 002   ----------------------------------------
        BYTE           N96     Bn2
        BYTE   W96
// 003   ----------------------------------------
        BYTE           N12     Bn2   v080
        BYTE   W12
        BYTE                   Bn2   v060
        BYTE   W12
        BYTE                   Bn2   v040
        BYTE   W24
        BYTE           N48     Cn3   v127
        BYTE   W48
// 004   ----------------------------------------
        BYTE           N96     Bn2
        BYTE   W96
// 005   ----------------------------------------
_34___Vast_Ice_Mountain_5_5:
        BYTE           N12     Bn2   v080
        BYTE   W12
        BYTE                   Bn2   v060
        BYTE   W12
        BYTE                   Bn2   v040
        BYTE   W24
        BYTE           N48     Dn3   v127
        BYTE   W48
        BYTE   PEND
// 006   ----------------------------------------
        BYTE           N96
        BYTE   W96
// 007   ----------------------------------------
_34___Vast_Ice_Mountain_5_7:
        BYTE           N12     Dn3   v080
        BYTE   W12
        BYTE                   Dn3   v060
        BYTE   W12
        BYTE                   Dn3   v040
        BYTE   W24
        BYTE           N48     Dn3   v127
        BYTE   W48
        BYTE   PEND
// 008   ----------------------------------------
        BYTE           N96
        BYTE   W96
// 009   ----------------------------------------
_34___Vast_Ice_Mountain_5_9:
        BYTE           N12     Dn3   v080
        BYTE   W12
        BYTE                   Dn3   v060
        BYTE   W12
        BYTE                   Dn3   v040
        BYTE   W24
        BYTE           N48     Gn4   v120
        BYTE   W48
        BYTE   PEND
// 010   ----------------------------------------
        BYTE           N96     Fs4
        BYTE   W96
// 011   ----------------------------------------
_34___Vast_Ice_Mountain_5_11:
        BYTE           N12     Fs4   v073
        BYTE   W12
        BYTE                   Fs4   v053
        BYTE   W12
        BYTE                   Fs4   v033
        BYTE   W24
        BYTE           N48     Gn4   v120
        BYTE   W48
        BYTE   PEND
// 012   ----------------------------------------
        BYTE           N96     Fs4
        BYTE   W96
// 013   ----------------------------------------
_34___Vast_Ice_Mountain_5_13:
        BYTE           N12     Fs4   v073
        BYTE   W12
        BYTE                   Fs4   v053
        BYTE   W12
        BYTE                   Fs4   v033
        BYTE   W72
        BYTE   PEND
// 014   ----------------------------------------
        BYTE   W96
// 015   ----------------------------------------
        BYTE   W96
// 016   ----------------------------------------
        BYTE   W96
// 017   ----------------------------------------
        BYTE   W96
// 018   ----------------------------------------
        BYTE   W96
// 019   ----------------------------------------
        BYTE   W96
// 020   ----------------------------------------
_34___Vast_Ice_Mountain_5_20:
        BYTE   W72
        BYTE           N18     An3   v080
        BYTE   W18
        BYTE                   Cn4
        BYTE   W06
        BYTE   PEND
// 021   ----------------------------------------
_34___Vast_Ice_Mountain_5_21:
        BYTE   W12
        BYTE           N36     En4   v080
        BYTE   W36
        BYTE           N06     Dn4
        BYTE   W06
        BYTE                   Cn4
        BYTE   W06
        BYTE           N18     Bn3
        BYTE   W18
        BYTE                   An3
        BYTE   W18
        BYTE   PEND
// 022   ----------------------------------------
_34___Vast_Ice_Mountain_5_22:
        BYTE           N06     Bn3   v080
        BYTE   W06
        BYTE                   Cn4
        BYTE   W06
        BYTE           N18     Bn3
        BYTE   W18
        BYTE                   Gn3
        BYTE   W18
        BYTE           N30     Dn3
        BYTE   W36
        BYTE           N06     Bn2
        BYTE   W06
        BYTE                   Cn3
        BYTE   W06
        BYTE   PEND
// 023   ----------------------------------------
_34___Vast_Ice_Mountain_5_23:
        BYTE           N06     Dn3   v080
        BYTE   W12
        BYTE           N18     En3
        BYTE   W18
        BYTE           N12     An3
        BYTE   W18
        BYTE           N60
        BYTE   W48
        BYTE   PEND
// 024   ----------------------------------------
_34___Vast_Ice_Mountain_5_24:
        BYTE   W72
        BYTE           N18     Cn4   v080
        BYTE           N18     An4
        BYTE   W18
        BYTE                   En4
        BYTE           N18     Cn5
        BYTE   W06
        BYTE   PEND
// 025   ----------------------------------------
_34___Vast_Ice_Mountain_5_25:
        BYTE   W12
        BYTE           N36     Gn4   v080
        BYTE           N36     En5
        BYTE   W36
        BYTE           N06     Fn4
        BYTE           N06     Dn5
        BYTE   W06
        BYTE                   En4
        BYTE           N06     Cn5
        BYTE   W06
        BYTE           N18     Dn4
        BYTE           N18     Bn4
        BYTE   W18
        BYTE                   Cn4
        BYTE           N18     An4
        BYTE   W18
        BYTE   PEND
// 026   ----------------------------------------
_34___Vast_Ice_Mountain_5_26:
        BYTE           N06     Dn4   v080
        BYTE           N06     Bn4
        BYTE   W06
        BYTE                   En4
        BYTE           N06     Cn5
        BYTE   W06
        BYTE           N18     Dn4
        BYTE           N18     Bn4
        BYTE   W18
        BYTE                   Bn3
        BYTE           N18     Gn4
        BYTE   W18
        BYTE           N30     Gn3
        BYTE           N30     Dn4
        BYTE   W36
        BYTE           N06     Dn3
        BYTE           N06     Bn3
        BYTE   W06
        BYTE                   En3
        BYTE           N06     Cn4
        BYTE   W06
        BYTE   PEND
// 027   ----------------------------------------
_34___Vast_Ice_Mountain_5_27:
        BYTE           N06     Fn3   v080
        BYTE           N06     Dn4
        BYTE   W12
        BYTE           N18     Gn3
        BYTE           N18     En4
        BYTE   W18
        BYTE           N12     Cn4
        BYTE           N12     An4
        BYTE   W18
        BYTE           N60     Cn4
        BYTE           N60     An4
        BYTE   W48
        BYTE   PEND
// 028   ----------------------------------------
_34___Vast_Ice_Mountain_5_28:
        BYTE   W12
        BYTE           N18     Cn3   v080
        BYTE           N18     En3
        BYTE   W18
        BYTE           N12
        BYTE           N12     An3
        BYTE   W18
        BYTE           N60     En3
        BYTE           N60     An3
        BYTE   W48
        BYTE   PEND
// 029   ----------------------------------------
        BYTE   W96
// 030   ----------------------------------------
        BYTE   W96
// 031   ----------------------------------------
        BYTE   W96
// 032   ----------------------------------------
        BYTE   W96
// 033   ----------------------------------------
        BYTE   W96
// 034   ----------------------------------------
        BYTE   W96
// 035   ----------------------------------------
        BYTE   W96
// 036   ----------------------------------------
        BYTE   W96
// 037   ----------------------------------------
_34___Vast_Ice_Mountain_5_37:
        BYTE   W12
        BYTE           N36     Ds4   v080
        BYTE   W36
        BYTE           N06     Dn4
        BYTE   W06
        BYTE                   Ds4
        BYTE   W06
        BYTE           N18     Cn4
        BYTE   W18
        BYTE                   Ds4
        BYTE   W18
        BYTE   PEND
// 038   ----------------------------------------
_34___Vast_Ice_Mountain_5_38:
        BYTE           N12     Gn4   v080
        BYTE   W12
        BYTE           N18     Fn4
        BYTE   W18
        BYTE                   Dn4
        BYTE   W18
        BYTE           N36     As3
        BYTE   W48
        BYTE   PEND
// 039   ----------------------------------------
_34___Vast_Ice_Mountain_5_39:
        BYTE           N06     Cn4   v080
        BYTE   W06
        BYTE                   Dn4
        BYTE   W06
        BYTE           N36     Ds4
        BYTE   W36
        BYTE           N06     Dn4
        BYTE   W06
        BYTE                   Ds4
        BYTE   W06
        BYTE           N18     Cn4
        BYTE   W18
        BYTE                   Ds4
        BYTE   W18
        BYTE   PEND
// 040   ----------------------------------------
_34___Vast_Ice_Mountain_5_40:
        BYTE           N12     Gn4   v080
        BYTE   W12
        BYTE           N24     Fn4
        BYTE   W24
        BYTE           N06     Cn4
        BYTE   W06
        BYTE                   Dn4
        BYTE   W06
        BYTE           N36     As4
        BYTE   W36
        BYTE           N06     Gs3
        BYTE   W06
        BYTE                   As3
        BYTE   W06
        BYTE   PEND
// 041   ----------------------------------------
_34___Vast_Ice_Mountain_5_41:
        BYTE           N06     Cn4   v080
        BYTE   W06
        BYTE                   Dn4
        BYTE   W06
        BYTE           N36     Ds4
        BYTE   W36
        BYTE           N06     Cs4
        BYTE   W06
        BYTE                   Bn3
        BYTE   W06
        BYTE           N18     As3
        BYTE   W18
        BYTE                   Ds4
        BYTE   W18
        BYTE   PEND
// 042   ----------------------------------------
_34___Vast_Ice_Mountain_5_42:
        BYTE           N12     As4   v080
        BYTE   W12
        BYTE           N24     Gs4
        BYTE   W24
        BYTE           N06     Fs4
        BYTE   W06
        BYTE                   Gs4
        BYTE   W06
        BYTE           N36     Fn4
        BYTE   W36
        BYTE           N24     Cs4
        BYTE   W12
        BYTE   PEND
// 043   ----------------------------------------
_34___Vast_Ice_Mountain_5_43:
        BYTE   W12
        BYTE           N36     Fs4   v080
        BYTE   W36
        BYTE           N06     Fn4
        BYTE   W06
        BYTE                   Ds4
        BYTE   W06
        BYTE           N18
        BYTE   W18
        BYTE                   As4
        BYTE   W18
        BYTE   PEND
// 044   ----------------------------------------
_34___Vast_Ice_Mountain_5_44:
        BYTE           N12     Ds5   v080
        BYTE   W12
        BYTE           N18     Cs5
        BYTE   W18
        BYTE                   Gs4
        BYTE   W18
        BYTE           N42     Fn5
        BYTE   W42
        BYTE           N18
        BYTE   W06
        BYTE   PEND
// 045   ----------------------------------------
        BYTE   W12
        BYTE           TIE     Ds5
        BYTE   W84
// 046   ----------------------------------------
        BYTE   W96
// 047   ----------------------------------------
        BYTE   W12
        BYTE           EOT
        BYTE   W84
// 048   ----------------------------------------
        BYTE   W96
// 049   ----------------------------------------
        BYTE   PATT
         POIN2  _34___Vast_Ice_Mountain_5_5
// 050   ----------------------------------------
        BYTE           N96     Dn3   v127
        BYTE   W96
// 051   ----------------------------------------
        BYTE   PATT
         POIN2  _34___Vast_Ice_Mountain_5_7
// 052   ----------------------------------------
        BYTE           N96     Dn3   v127
        BYTE   W96
// 053   ----------------------------------------
        BYTE   PATT
         POIN2  _34___Vast_Ice_Mountain_5_9
// 054   ----------------------------------------
        BYTE           N96     Fs4   v120
        BYTE   W96
// 055   ----------------------------------------
        BYTE   PATT
         POIN2  _34___Vast_Ice_Mountain_5_11
// 056   ----------------------------------------
        BYTE           N96     Fs4   v120
        BYTE   W96
// 057   ----------------------------------------
        BYTE   PATT
         POIN2  _34___Vast_Ice_Mountain_5_13
// 058   ----------------------------------------
        BYTE   W96
// 059   ----------------------------------------
        BYTE   W96
// 060   ----------------------------------------
        BYTE   W96
// 061   ----------------------------------------
        BYTE   W96
// 062   ----------------------------------------
        BYTE   W96
// 063   ----------------------------------------
        BYTE   W96
// 064   ----------------------------------------
        BYTE   PATT
         POIN2  _34___Vast_Ice_Mountain_5_20
// 065   ----------------------------------------
        BYTE   PATT
         POIN2  _34___Vast_Ice_Mountain_5_21
// 066   ----------------------------------------
        BYTE   PATT
         POIN2  _34___Vast_Ice_Mountain_5_22
// 067   ----------------------------------------
        BYTE   PATT
         POIN2  _34___Vast_Ice_Mountain_5_23
// 068   ----------------------------------------
        BYTE   PATT
         POIN2  _34___Vast_Ice_Mountain_5_24
// 069   ----------------------------------------
        BYTE   PATT
         POIN2  _34___Vast_Ice_Mountain_5_25
// 070   ----------------------------------------
        BYTE   PATT
         POIN2  _34___Vast_Ice_Mountain_5_26
// 071   ----------------------------------------
        BYTE   PATT
         POIN2  _34___Vast_Ice_Mountain_5_27
// 072   ----------------------------------------
        BYTE   PATT
         POIN2  _34___Vast_Ice_Mountain_5_28
// 073   ----------------------------------------
        BYTE   W96
// 074   ----------------------------------------
        BYTE   W96
// 075   ----------------------------------------
        BYTE   W96
// 076   ----------------------------------------
        BYTE   W96
// 077   ----------------------------------------
        BYTE   W96
// 078   ----------------------------------------
        BYTE   W96
// 079   ----------------------------------------
        BYTE   W96
// 080   ----------------------------------------
        BYTE   W96
// 081   ----------------------------------------
        BYTE   PATT
         POIN2  _34___Vast_Ice_Mountain_5_37
// 082   ----------------------------------------
        BYTE   PATT
         POIN2  _34___Vast_Ice_Mountain_5_38
// 083   ----------------------------------------
        BYTE   PATT
         POIN2  _34___Vast_Ice_Mountain_5_39
// 084   ----------------------------------------
        BYTE   PATT
         POIN2  _34___Vast_Ice_Mountain_5_40
// 085   ----------------------------------------
        BYTE   PATT
         POIN2  _34___Vast_Ice_Mountain_5_41
// 086   ----------------------------------------
        BYTE   PATT
         POIN2  _34___Vast_Ice_Mountain_5_42
// 087   ----------------------------------------
        BYTE   PATT
         POIN2  _34___Vast_Ice_Mountain_5_43
// 088   ----------------------------------------
        BYTE   PATT
         POIN2  _34___Vast_Ice_Mountain_5_44
// 089   ----------------------------------------
        BYTE   W12
        BYTE           TIE     Ds5   v080
        BYTE   W84
// 090   ----------------------------------------
        BYTE   W96
// 091   ----------------------------------------
        BYTE   W12
        BYTE           EOT
        BYTE   W84
// 092   ----------------------------------------
        BYTE   W96
// 093   ----------------------------------------
        BYTE   FINE

//****************** Track 6 (Midi-Chn.6) ******************//

_34___Vast_Ice_Mountain_6:
        BYTE   KEYSH   _34___Vast_Ice_Mountain_key+0
// 000   ----------------------------------------
        BYTE   W24
// 001   ----------------------------------------
        BYTE           PAN     c_v+26
        BYTE           VOL     83
        BYTE           VOICE   48
        BYTE   W48
        BYTE           N48     Gn2   v127
        BYTE   W48
// 002   ----------------------------------------
        BYTE           N96     Fs2
        BYTE   W96
// 003   ----------------------------------------
_34___Vast_Ice_Mountain_6_3:
        BYTE           N12     Fs2   v080
        BYTE   W12
        BYTE                   Fs2   v060
        BYTE   W12
        BYTE                   Fs2   v040
        BYTE   W24
        BYTE           N48     Gn2   v127
        BYTE   W48
        BYTE   PEND
// 004   ----------------------------------------
        BYTE           N96     Fs2
        BYTE   W96
// 005   ----------------------------------------
        BYTE   PATT
         POIN2  _34___Vast_Ice_Mountain_6_3
// 006   ----------------------------------------
        BYTE           N96     Fs2   v127
        BYTE   W96
// 007   ----------------------------------------
        BYTE   PATT
         POIN2  _34___Vast_Ice_Mountain_6_3
// 008   ----------------------------------------
        BYTE           N96     Fs2   v127
        BYTE   W96
// 009   ----------------------------------------
_34___Vast_Ice_Mountain_6_9:
        BYTE           N12     Fs2   v080
        BYTE   W12
        BYTE                   Fs2   v060
        BYTE   W12
        BYTE                   Fs2   v040
        BYTE   W24
        BYTE           N48     Dn4   v120
        BYTE   W48
        BYTE   PEND
// 010   ----------------------------------------
        BYTE           N96
        BYTE   W96
// 011   ----------------------------------------
_34___Vast_Ice_Mountain_6_11:
        BYTE           N12     Dn4   v073
        BYTE   W12
        BYTE                   Dn4   v053
        BYTE   W12
        BYTE                   Dn4   v033
        BYTE   W24
        BYTE           N48     Dn4   v120
        BYTE   W48
        BYTE   PEND
// 012   ----------------------------------------
        BYTE           N96
        BYTE   W96
// 013   ----------------------------------------
_34___Vast_Ice_Mountain_6_13:
        BYTE           N12     Dn4   v073
        BYTE   W12
        BYTE                   Dn4   v053
        BYTE   W12
        BYTE                   Dn4   v033
        BYTE   W72
        BYTE   PEND
// 014   ----------------------------------------
        BYTE   W96
// 015   ----------------------------------------
        BYTE   W96
// 016   ----------------------------------------
        BYTE   W96
// 017   ----------------------------------------
        BYTE   W96
// 018   ----------------------------------------
        BYTE   W96
// 019   ----------------------------------------
        BYTE   W96
// 020   ----------------------------------------
_34___Vast_Ice_Mountain_6_20:
        BYTE   W84
        BYTE           N18     An3   v060
        BYTE   W12
        BYTE   PEND
// 021   ----------------------------------------
_34___Vast_Ice_Mountain_6_21:
        BYTE   W06
        BYTE           N18     Cn4   v060
        BYTE   W18
        BYTE           N36     En4
        BYTE   W36
        BYTE           N06     Dn4
        BYTE   W06
        BYTE                   Cn4
        BYTE   W06
        BYTE           N18     Bn3
        BYTE   W18
        BYTE                   An3
        BYTE   W06
        BYTE   PEND
// 022   ----------------------------------------
_34___Vast_Ice_Mountain_6_22:
        BYTE   W12
        BYTE           N06     Bn3   v060
        BYTE   W06
        BYTE                   Cn4
        BYTE   W06
        BYTE           N18     Bn3
        BYTE   W18
        BYTE                   Gn3
        BYTE   W18
        BYTE           N30     Dn3
        BYTE   W36
        BYTE   PEND
// 023   ----------------------------------------
_34___Vast_Ice_Mountain_6_23:
        BYTE           N06     Bn2   v060
        BYTE   W06
        BYTE                   Cn3
        BYTE   W06
        BYTE                   Dn3
        BYTE   W12
        BYTE           N18     En3
        BYTE   W18
        BYTE           N12     An3
        BYTE   W18
        BYTE           N60
        BYTE   W36
        BYTE   PEND
// 024   ----------------------------------------
        BYTE   W96
// 025   ----------------------------------------
        BYTE   W96
// 026   ----------------------------------------
        BYTE   W96
// 027   ----------------------------------------
        BYTE   W96
// 028   ----------------------------------------
        BYTE   W96
// 029   ----------------------------------------
        BYTE   W96
// 030   ----------------------------------------
        BYTE   W96
// 031   ----------------------------------------
        BYTE   W96
// 032   ----------------------------------------
        BYTE   W96
// 033   ----------------------------------------
        BYTE   W96
// 034   ----------------------------------------
        BYTE   W96
// 035   ----------------------------------------
        BYTE   W96
// 036   ----------------------------------------
        BYTE   W96
// 037   ----------------------------------------
_34___Vast_Ice_Mountain_6_37:
        BYTE   W24
        BYTE           N36     Ds4   v060
        BYTE   W36
        BYTE           N06     Dn4
        BYTE   W06
        BYTE                   Ds4
        BYTE   W06
        BYTE           N18     Cn4
        BYTE   W18
        BYTE                   Ds4
        BYTE   W06
        BYTE   PEND
// 038   ----------------------------------------
_34___Vast_Ice_Mountain_6_38:
        BYTE   W12
        BYTE           N12     Gn4   v060
        BYTE   W12
        BYTE           N18     Fn4
        BYTE   W18
        BYTE                   Dn4
        BYTE   W18
        BYTE           N36     As3
        BYTE   W36
        BYTE   PEND
// 039   ----------------------------------------
_34___Vast_Ice_Mountain_6_39:
        BYTE   W12
        BYTE           N06     Cn4   v060
        BYTE   W06
        BYTE                   Dn4
        BYTE   W06
        BYTE           N36     Ds4
        BYTE   W36
        BYTE           N06     Dn4
        BYTE   W06
        BYTE                   Ds4
        BYTE   W06
        BYTE           N18     Cn4
        BYTE   W18
        BYTE                   Ds4
        BYTE   W06
        BYTE   PEND
// 040   ----------------------------------------
_34___Vast_Ice_Mountain_6_40:
        BYTE   W12
        BYTE           N12     Gn4   v060
        BYTE   W12
        BYTE           N24     Fn4
        BYTE   W24
        BYTE           N06     Cn4
        BYTE   W06
        BYTE                   Dn4
        BYTE   W06
        BYTE           N36     As4
        BYTE   W36
        BYTE   PEND
// 041   ----------------------------------------
_34___Vast_Ice_Mountain_6_41:
        BYTE           N06     Gs3   v060
        BYTE   W06
        BYTE                   As3
        BYTE   W06
        BYTE                   Cn4
        BYTE   W06
        BYTE                   Dn4
        BYTE   W06
        BYTE           N36     Ds4
        BYTE   W36
        BYTE           N06     Cs4
        BYTE   W06
        BYTE                   Bn3
        BYTE   W06
        BYTE           N18     As3
        BYTE   W18
        BYTE                   Ds4
        BYTE   W06
        BYTE   PEND
// 042   ----------------------------------------
_34___Vast_Ice_Mountain_6_42:
        BYTE   W12
        BYTE           N12     As4   v060
        BYTE   W12
        BYTE           N24     Gs4
        BYTE   W24
        BYTE           N06     Fs4
        BYTE   W06
        BYTE                   Gs4
        BYTE   W06
        BYTE           N36     Fn4
        BYTE   W36
        BYTE   PEND
// 043   ----------------------------------------
_34___Vast_Ice_Mountain_6_43:
        BYTE           N24     Cs4   v060
        BYTE   W24
        BYTE           N36     Fs4
        BYTE   W36
        BYTE           N06     Fn4
        BYTE   W06
        BYTE                   Ds4
        BYTE   W06
        BYTE           N18
        BYTE   W18
        BYTE                   As4
        BYTE   W06
        BYTE   PEND
// 044   ----------------------------------------
_34___Vast_Ice_Mountain_6_44:
        BYTE   W12
        BYTE           N12     Ds5   v060
        BYTE   W12
        BYTE           N18     Cs5
        BYTE   W18
        BYTE                   Gs4
        BYTE   W18
        BYTE           N42     Fn5
        BYTE   W36
        BYTE   PEND
// 045   ----------------------------------------
_34___Vast_Ice_Mountain_6_45:
        BYTE   W06
        BYTE           N18     Fn5   v060
        BYTE   W18
        BYTE           TIE     Ds5
        BYTE   W72
        BYTE   PEND
// 046   ----------------------------------------
        BYTE   W96
// 047   ----------------------------------------
        BYTE   W24
        BYTE           EOT
        BYTE   W72
// 048   ----------------------------------------
        BYTE   W96
// 049   ----------------------------------------
        BYTE   PATT
         POIN2  _34___Vast_Ice_Mountain_6_3
// 050   ----------------------------------------
        BYTE           N96     Fs2   v127
        BYTE   W96
// 051   ----------------------------------------
        BYTE   PATT
         POIN2  _34___Vast_Ice_Mountain_6_3
// 052   ----------------------------------------
        BYTE           N96     Fs2   v127
        BYTE   W96
// 053   ----------------------------------------
        BYTE   PATT
         POIN2  _34___Vast_Ice_Mountain_6_9
// 054   ----------------------------------------
        BYTE           N96     Dn4   v120
        BYTE   W96
// 055   ----------------------------------------
        BYTE   PATT
         POIN2  _34___Vast_Ice_Mountain_6_11
// 056   ----------------------------------------
        BYTE           N96     Dn4   v120
        BYTE   W96
// 057   ----------------------------------------
        BYTE   PATT
         POIN2  _34___Vast_Ice_Mountain_6_13
// 058   ----------------------------------------
        BYTE   W96
// 059   ----------------------------------------
        BYTE   W96
// 060   ----------------------------------------
        BYTE   W96
// 061   ----------------------------------------
        BYTE   W96
// 062   ----------------------------------------
        BYTE   W96
// 063   ----------------------------------------
        BYTE   W96
// 064   ----------------------------------------
        BYTE   PATT
         POIN2  _34___Vast_Ice_Mountain_6_20
// 065   ----------------------------------------
        BYTE   PATT
         POIN2  _34___Vast_Ice_Mountain_6_21
// 066   ----------------------------------------
        BYTE   PATT
         POIN2  _34___Vast_Ice_Mountain_6_22
// 067   ----------------------------------------
        BYTE   PATT
         POIN2  _34___Vast_Ice_Mountain_6_23
// 068   ----------------------------------------
        BYTE   W96
// 069   ----------------------------------------
        BYTE   W96
// 070   ----------------------------------------
        BYTE   W96
// 071   ----------------------------------------
        BYTE   W96
// 072   ----------------------------------------
        BYTE   W96
// 073   ----------------------------------------
        BYTE   W96
// 074   ----------------------------------------
        BYTE   W96
// 075   ----------------------------------------
        BYTE   W96
// 076   ----------------------------------------
        BYTE   W96
// 077   ----------------------------------------
        BYTE   W96
// 078   ----------------------------------------
        BYTE   W96
// 079   ----------------------------------------
        BYTE   W96
// 080   ----------------------------------------
        BYTE   W96
// 081   ----------------------------------------
        BYTE   PATT
         POIN2  _34___Vast_Ice_Mountain_6_37
// 082   ----------------------------------------
        BYTE   PATT
         POIN2  _34___Vast_Ice_Mountain_6_38
// 083   ----------------------------------------
        BYTE   PATT
         POIN2  _34___Vast_Ice_Mountain_6_39
// 084   ----------------------------------------
        BYTE   PATT
         POIN2  _34___Vast_Ice_Mountain_6_40
// 085   ----------------------------------------
        BYTE   PATT
         POIN2  _34___Vast_Ice_Mountain_6_41
// 086   ----------------------------------------
        BYTE   PATT
         POIN2  _34___Vast_Ice_Mountain_6_42
// 087   ----------------------------------------
        BYTE   PATT
         POIN2  _34___Vast_Ice_Mountain_6_43
// 088   ----------------------------------------
        BYTE   PATT
         POIN2  _34___Vast_Ice_Mountain_6_44
// 089   ----------------------------------------
        BYTE   PATT
         POIN2  _34___Vast_Ice_Mountain_6_45
// 090   ----------------------------------------
        BYTE   W96
// 091   ----------------------------------------
        BYTE   W24
        BYTE           EOT     Ds5
        BYTE   W72
// 092   ----------------------------------------
        BYTE   W96
// 093   ----------------------------------------
        BYTE   FINE

//****************** Track 7 (Midi-Chn.7) ******************//

_34___Vast_Ice_Mountain_7:
        BYTE   KEYSH   _34___Vast_Ice_Mountain_key+0
// 000   ----------------------------------------
        BYTE   W24
// 001   ----------------------------------------
        BYTE           VOL     74
        BYTE           VOICE   52
        BYTE   W96
// 002   ----------------------------------------
        BYTE   W96
// 003   ----------------------------------------
        BYTE   W96
// 004   ----------------------------------------
        BYTE   W96
// 005   ----------------------------------------
        BYTE   W96
// 006   ----------------------------------------
        BYTE   W96
// 007   ----------------------------------------
        BYTE   W96
// 008   ----------------------------------------
        BYTE   W96
// 009   ----------------------------------------
        BYTE   W96
// 010   ----------------------------------------
        BYTE   W96
// 011   ----------------------------------------
        BYTE   W96
// 012   ----------------------------------------
        BYTE   W96
// 013   ----------------------------------------
        BYTE           N96     En3   v127
        BYTE   W96
// 014   ----------------------------------------
        BYTE                   Gn3
        BYTE   W96
// 015   ----------------------------------------
        BYTE                   An3
        BYTE   W96
// 016   ----------------------------------------
        BYTE                   An3
        BYTE   W96
// 017   ----------------------------------------
        BYTE                   En3
        BYTE   W96
// 018   ----------------------------------------
        BYTE                   Gn3
        BYTE   W96
// 019   ----------------------------------------
        BYTE                   An3
        BYTE   W96
// 020   ----------------------------------------
        BYTE                   An3
        BYTE   W96
// 021   ----------------------------------------
        BYTE                   An3
        BYTE   W96
// 022   ----------------------------------------
        BYTE                   Bn3
        BYTE   W96
// 023   ----------------------------------------
        BYTE                   Cn4
        BYTE   W96
// 024   ----------------------------------------
        BYTE                   Bn3
        BYTE   W96
// 025   ----------------------------------------
        BYTE                   An3
        BYTE   W96
// 026   ----------------------------------------
        BYTE                   Bn3
        BYTE   W96
// 027   ----------------------------------------
        BYTE                   Cn4
        BYTE   W96
// 028   ----------------------------------------
        BYTE                   Bn3
        BYTE   W96
// 029   ----------------------------------------
        BYTE                   An2
        BYTE   W96
// 030   ----------------------------------------
        BYTE                   Bn2
        BYTE   W96
// 031   ----------------------------------------
        BYTE                   An2
        BYTE   W96
// 032   ----------------------------------------
        BYTE                   Bn2
        BYTE   W96
// 033   ----------------------------------------
        BYTE                   Cn3
        BYTE   W96
// 034   ----------------------------------------
        BYTE                   Dn3
        BYTE   W96
// 035   ----------------------------------------
        BYTE                   Cn3
        BYTE   W96
// 036   ----------------------------------------
        BYTE                   Dn3
        BYTE   W96
// 037   ----------------------------------------
        BYTE                   Gs3
        BYTE   W96
// 038   ----------------------------------------
        BYTE                   As3
        BYTE   W96
// 039   ----------------------------------------
        BYTE                   Gs3
        BYTE   W96
// 040   ----------------------------------------
        BYTE                   As3
        BYTE   W96
// 041   ----------------------------------------
        BYTE                   Bn3
        BYTE   W96
// 042   ----------------------------------------
        BYTE                   Cs4
        BYTE   W96
// 043   ----------------------------------------
        BYTE                   Bn3
        BYTE   W96
// 044   ----------------------------------------
        BYTE                   Cs4
        BYTE   W96
// 045   ----------------------------------------
        BYTE           TIE     Ds4
        BYTE   W96
// 046   ----------------------------------------
        BYTE   W96
// 047   ----------------------------------------
_34___Vast_Ice_Mountain_7_47:
        BYTE           EOT     Ds4
        BYTE           TIE     En4   v127
        BYTE   W96
        BYTE   PEND
// 048   ----------------------------------------
        BYTE   W96
// 049   ----------------------------------------
        BYTE           EOT
        BYTE   W96
// 050   ----------------------------------------
        BYTE   W96
// 051   ----------------------------------------
        BYTE   W96
// 052   ----------------------------------------
        BYTE   W96
// 053   ----------------------------------------
        BYTE   W96
// 054   ----------------------------------------
        BYTE   W96
// 055   ----------------------------------------
        BYTE   W96
// 056   ----------------------------------------
        BYTE   W96
// 057   ----------------------------------------
        BYTE           N96     En3
        BYTE   W96
// 058   ----------------------------------------
        BYTE                   Gn3
        BYTE   W96
// 059   ----------------------------------------
        BYTE                   An3
        BYTE   W96
// 060   ----------------------------------------
        BYTE                   An3
        BYTE   W96
// 061   ----------------------------------------
        BYTE                   En3
        BYTE   W96
// 062   ----------------------------------------
        BYTE                   Gn3
        BYTE   W96
// 063   ----------------------------------------
        BYTE                   An3
        BYTE   W96
// 064   ----------------------------------------
        BYTE                   An3
        BYTE   W96
// 065   ----------------------------------------
        BYTE                   An3
        BYTE   W96
// 066   ----------------------------------------
        BYTE                   Bn3
        BYTE   W96
// 067   ----------------------------------------
        BYTE                   Cn4
        BYTE   W96
// 068   ----------------------------------------
        BYTE                   Bn3
        BYTE   W96
// 069   ----------------------------------------
        BYTE                   An3
        BYTE   W96
// 070   ----------------------------------------
        BYTE                   Bn3
        BYTE   W96
// 071   ----------------------------------------
        BYTE                   Cn4
        BYTE   W96
// 072   ----------------------------------------
        BYTE                   Bn3
        BYTE   W96
// 073   ----------------------------------------
        BYTE                   An2
        BYTE   W96
// 074   ----------------------------------------
        BYTE                   Bn2
        BYTE   W96
// 075   ----------------------------------------
        BYTE                   An2
        BYTE   W96
// 076   ----------------------------------------
        BYTE                   Bn2
        BYTE   W96
// 077   ----------------------------------------
        BYTE                   Cn3
        BYTE   W96
// 078   ----------------------------------------
        BYTE                   Dn3
        BYTE   W96
// 079   ----------------------------------------
        BYTE                   Cn3
        BYTE   W96
// 080   ----------------------------------------
        BYTE                   Dn3
        BYTE   W96
// 081   ----------------------------------------
        BYTE                   Gs3
        BYTE   W96
// 082   ----------------------------------------
        BYTE                   As3
        BYTE   W96
// 083   ----------------------------------------
        BYTE                   Gs3
        BYTE   W96
// 084   ----------------------------------------
        BYTE                   As3
        BYTE   W96
// 085   ----------------------------------------
        BYTE                   Bn3
        BYTE   W96
// 086   ----------------------------------------
        BYTE                   Cs4
        BYTE   W96
// 087   ----------------------------------------
        BYTE                   Bn3
        BYTE   W96
// 088   ----------------------------------------
        BYTE                   Cs4
        BYTE   W96
// 089   ----------------------------------------
        BYTE           TIE     Ds4
        BYTE   W96
// 090   ----------------------------------------
        BYTE   W96
// 091   ----------------------------------------
        BYTE   PATT
         POIN2  _34___Vast_Ice_Mountain_7_47
// 092   ----------------------------------------
        BYTE   W96
// 093   ----------------------------------------
        BYTE           EOT     En4
        BYTE   FINE

//****************** Track 8 (Midi-Chn.8) ******************//

_34___Vast_Ice_Mountain_8:
        BYTE   KEYSH   _34___Vast_Ice_Mountain_key+0
// 000   ----------------------------------------
        BYTE   W24
// 001   ----------------------------------------
        BYTE           PAN     c_v-54
        BYTE           VOL     74
        BYTE           VOICE   52
        BYTE   W96
// 002   ----------------------------------------
        BYTE   W96
// 003   ----------------------------------------
        BYTE   W96
// 004   ----------------------------------------
        BYTE   W96
// 005   ----------------------------------------
_34___Vast_Ice_Mountain_8_5:
        BYTE   W48
        BYTE           N48     Gn3   v127
        BYTE   W48
        BYTE   PEND
// 006   ----------------------------------------
        BYTE           N96     Fs3
        BYTE   W96
// 007   ----------------------------------------
        BYTE   PATT
         POIN2  _34___Vast_Ice_Mountain_8_5
// 008   ----------------------------------------
        BYTE           N96     Fs3   v127
        BYTE   W96
// 009   ----------------------------------------
_34___Vast_Ice_Mountain_8_9:
        BYTE   W48
        BYTE           N48     Gn4   v127
        BYTE   W48
        BYTE   PEND
// 010   ----------------------------------------
        BYTE           N96     Fs4
        BYTE   W96
// 011   ----------------------------------------
        BYTE   PATT
         POIN2  _34___Vast_Ice_Mountain_8_9
// 012   ----------------------------------------
        BYTE           N96     Fs4   v127
        BYTE   W96
// 013   ----------------------------------------
        BYTE                   Cn3
        BYTE   W96
// 014   ----------------------------------------
        BYTE                   Dn3
        BYTE   W96
// 015   ----------------------------------------
        BYTE                   En3
        BYTE   W96
// 016   ----------------------------------------
        BYTE                   Fs3
        BYTE   W96
// 017   ----------------------------------------
        BYTE                   Cn3
        BYTE   W96
// 018   ----------------------------------------
        BYTE                   Dn3
        BYTE   W96
// 019   ----------------------------------------
        BYTE                   En3
        BYTE   W96
// 020   ----------------------------------------
        BYTE                   Fs3
        BYTE   W96
// 021   ----------------------------------------
        BYTE                   Fn3
        BYTE   W96
// 022   ----------------------------------------
        BYTE                   Gn3
        BYTE   W96
// 023   ----------------------------------------
        BYTE                   An3
        BYTE   W96
// 024   ----------------------------------------
        BYTE                   Gn3
        BYTE   W96
// 025   ----------------------------------------
        BYTE                   Fn3
        BYTE   W96
// 026   ----------------------------------------
        BYTE                   Gn3
        BYTE   W96
// 027   ----------------------------------------
        BYTE                   An3
        BYTE   W96
// 028   ----------------------------------------
        BYTE                   Gn3
        BYTE   W96
// 029   ----------------------------------------
        BYTE                   Fn2
        BYTE   W96
// 030   ----------------------------------------
        BYTE                   Gn2
        BYTE   W96
// 031   ----------------------------------------
        BYTE                   Fn2
        BYTE   W96
// 032   ----------------------------------------
        BYTE                   Gn2
        BYTE   W96
// 033   ----------------------------------------
        BYTE                   Gs2
        BYTE   W96
// 034   ----------------------------------------
        BYTE                   As2
        BYTE   W96
// 035   ----------------------------------------
        BYTE                   Gs2
        BYTE   W96
// 036   ----------------------------------------
        BYTE                   As2
        BYTE   W96
// 037   ----------------------------------------
        BYTE                   Ds3
        BYTE   W96
// 038   ----------------------------------------
        BYTE                   Fn3
        BYTE   W96
// 039   ----------------------------------------
        BYTE                   Ds3
        BYTE   W96
// 040   ----------------------------------------
        BYTE                   Fn3
        BYTE   W96
// 041   ----------------------------------------
        BYTE                   Fs3
        BYTE   W96
// 042   ----------------------------------------
        BYTE                   Gs3
        BYTE   W96
// 043   ----------------------------------------
        BYTE                   Fs3
        BYTE   W96
// 044   ----------------------------------------
        BYTE                   Gs3
        BYTE   W96
// 045   ----------------------------------------
        BYTE           TIE     As3
        BYTE   W96
// 046   ----------------------------------------
        BYTE   W96
// 047   ----------------------------------------
_34___Vast_Ice_Mountain_8_47:
        BYTE           EOT     As3
        BYTE           TIE     Bn3   v127
        BYTE   W96
        BYTE   PEND
// 048   ----------------------------------------
        BYTE   W96
// 049   ----------------------------------------
        BYTE           EOT
        BYTE   W48
        BYTE           N48     Gn3
        BYTE   W48
// 050   ----------------------------------------
        BYTE           N96     Fs3
        BYTE   W96
// 051   ----------------------------------------
        BYTE   PATT
         POIN2  _34___Vast_Ice_Mountain_8_5
// 052   ----------------------------------------
        BYTE           N96     Fs3   v127
        BYTE   W96
// 053   ----------------------------------------
        BYTE   PATT
         POIN2  _34___Vast_Ice_Mountain_8_9
// 054   ----------------------------------------
        BYTE           N96     Fs4   v127
        BYTE   W96
// 055   ----------------------------------------
        BYTE   PATT
         POIN2  _34___Vast_Ice_Mountain_8_9
// 056   ----------------------------------------
        BYTE           N96     Fs4   v127
        BYTE   W96
// 057   ----------------------------------------
        BYTE                   Cn3
        BYTE   W96
// 058   ----------------------------------------
        BYTE                   Dn3
        BYTE   W96
// 059   ----------------------------------------
        BYTE                   En3
        BYTE   W96
// 060   ----------------------------------------
        BYTE                   Fs3
        BYTE   W96
// 061   ----------------------------------------
        BYTE                   Cn3
        BYTE   W96
// 062   ----------------------------------------
        BYTE                   Dn3
        BYTE   W96
// 063   ----------------------------------------
        BYTE                   En3
        BYTE   W96
// 064   ----------------------------------------
        BYTE                   Fs3
        BYTE   W96
// 065   ----------------------------------------
        BYTE                   Fn3
        BYTE   W96
// 066   ----------------------------------------
        BYTE                   Gn3
        BYTE   W96
// 067   ----------------------------------------
        BYTE                   An3
        BYTE   W96
// 068   ----------------------------------------
        BYTE                   Gn3
        BYTE   W96
// 069   ----------------------------------------
        BYTE                   Fn3
        BYTE   W96
// 070   ----------------------------------------
        BYTE                   Gn3
        BYTE   W96
// 071   ----------------------------------------
        BYTE                   An3
        BYTE   W96
// 072   ----------------------------------------
        BYTE                   Gn3
        BYTE   W96
// 073   ----------------------------------------
        BYTE                   Fn2
        BYTE   W96
// 074   ----------------------------------------
        BYTE                   Gn2
        BYTE   W96
// 075   ----------------------------------------
        BYTE                   Fn2
        BYTE   W96
// 076   ----------------------------------------
        BYTE                   Gn2
        BYTE   W96
// 077   ----------------------------------------
        BYTE                   Gs2
        BYTE   W96
// 078   ----------------------------------------
        BYTE                   As2
        BYTE   W96
// 079   ----------------------------------------
        BYTE                   Gs2
        BYTE   W96
// 080   ----------------------------------------
        BYTE                   As2
        BYTE   W96
// 081   ----------------------------------------
        BYTE                   Ds3
        BYTE   W96
// 082   ----------------------------------------
        BYTE                   Fn3
        BYTE   W96
// 083   ----------------------------------------
        BYTE                   Ds3
        BYTE   W96
// 084   ----------------------------------------
        BYTE                   Fn3
        BYTE   W96
// 085   ----------------------------------------
        BYTE                   Fs3
        BYTE   W96
// 086   ----------------------------------------
        BYTE                   Gs3
        BYTE   W96
// 087   ----------------------------------------
        BYTE                   Fs3
        BYTE   W96
// 088   ----------------------------------------
        BYTE                   Gs3
        BYTE   W96
// 089   ----------------------------------------
        BYTE           TIE     As3
        BYTE   W96
// 090   ----------------------------------------
        BYTE   W96
// 091   ----------------------------------------
        BYTE   PATT
         POIN2  _34___Vast_Ice_Mountain_8_47
// 092   ----------------------------------------
        BYTE   W96
// 093   ----------------------------------------
        BYTE           EOT     Bn3
        BYTE   FINE

//****************** Track 9 (Midi-Chn.9) ******************//

_34___Vast_Ice_Mountain_9:
        BYTE   KEYSH   _34___Vast_Ice_Mountain_key+0
// 000   ----------------------------------------
        BYTE   W24
// 001   ----------------------------------------
        BYTE           VOL     83
        BYTE           VOICE   0
        BYTE           N06     Cn1   v127
        BYTE           N06     Fs1
        BYTE   W06
        BYTE                   Fs1   v077
        BYTE   W06
        BYTE                   Cn1   v127
        BYTE           N06     Fs1   v075
        BYTE   W06
        BYTE                   Fs1   v127
        BYTE   W06
        BYTE                   Fs1   v074
        BYTE   W06
        BYTE                   Fs1   v072
        BYTE   W06
        BYTE                   Dn4   v127
        BYTE   W12
        BYTE                   Fs1   v070
        BYTE   W06
        BYTE                   Fs1   v127
        BYTE   W06
        BYTE                   Fs1   v067
        BYTE   W06
        BYTE                   Fs1
        BYTE   W06
        BYTE                   Fs1   v127
        BYTE   W06
        BYTE                   Fs1   v073
        BYTE   W06
        BYTE                   Fs1   v072
        BYTE   W06
        BYTE                   Fs1   v069
        BYTE   W06
// 002   ----------------------------------------
_34___Vast_Ice_Mountain_9_2:
        BYTE           N06     Fs1   v127
        BYTE   W06
        BYTE                   Fs1   v077
        BYTE   W06
        BYTE                   Fs1   v075
        BYTE   W06
        BYTE                   Fs1   v127
        BYTE   W06
        BYTE                   Fs1   v074
        BYTE   W06
        BYTE                   Fs1   v072
        BYTE   W06
        BYTE                   Dn4   v127
        BYTE   W12
        BYTE                   Fs1   v070
        BYTE   W06
        BYTE                   Fs1   v127
        BYTE   W06
        BYTE                   Fs1   v067
        BYTE   W06
        BYTE                   Fs1
        BYTE   W06
        BYTE                   Fs1   v127
        BYTE   W06
        BYTE                   Fs1   v073
        BYTE   W06
        BYTE                   Fs1   v072
        BYTE   W06
        BYTE                   Fs1   v069
        BYTE   W06
        BYTE   PEND
// 003   ----------------------------------------
        BYTE                   Cn1   v127
        BYTE           N06     Fs1
        BYTE   W06
        BYTE                   Fs1   v077
        BYTE   W06
        BYTE                   Cn1   v127
        BYTE           N06     Fs1   v075
        BYTE   W06
        BYTE                   Fs1   v127
        BYTE   W06
        BYTE                   Fs1   v074
        BYTE   W06
        BYTE                   Fs1   v072
        BYTE   W06
        BYTE                   Dn4   v127
        BYTE   W12
        BYTE                   Fs1   v070
        BYTE   W06
        BYTE                   Fs1   v127
        BYTE   W06
        BYTE                   Fs1   v067
        BYTE   W06
        BYTE                   Fs1
        BYTE   W06
        BYTE                   Fs1   v127
        BYTE   W06
        BYTE                   Fs1   v073
        BYTE   W06
        BYTE                   Fs1   v072
        BYTE   W06
        BYTE                   Fs1   v069
        BYTE   W06
// 004   ----------------------------------------
        BYTE   PATT
         POIN2  _34___Vast_Ice_Mountain_9_2
// 005   ----------------------------------------
_34___Vast_Ice_Mountain_9_5:
        BYTE           N06     Cn1   v127
        BYTE           N06     Fs1
        BYTE   W06
        BYTE                   Fs1   v077
        BYTE   W06
        BYTE                   Fs1   v075
        BYTE   W06
        BYTE                   Fs1   v127
        BYTE   W06
        BYTE                   Fs1   v074
        BYTE   W06
        BYTE                   Fs1   v072
        BYTE   W06
        BYTE                   Cn1   v127
        BYTE           N06     Dn4
        BYTE   W12
        BYTE                   Fs1   v070
        BYTE   W06
        BYTE                   Fs1   v127
        BYTE   W06
        BYTE                   Fs1   v067
        BYTE   W06
        BYTE                   Fs1
        BYTE   W06
        BYTE                   Cn1   v127
        BYTE           N06     Fs1
        BYTE   W06
        BYTE                   Fs1   v073
        BYTE   W06
        BYTE                   Cn1   v058
        BYTE           N06     Fs1   v072
        BYTE   W04
        BYTE                   Cn1   v068
        BYTE   W02
        BYTE                   Fs1   v069
        BYTE   W02
        BYTE                   Cn1   v076
        BYTE   W04
        BYTE   PEND
// 006   ----------------------------------------
_34___Vast_Ice_Mountain_9_6:
        BYTE           N06     Cn1   v127
        BYTE           N06     Fs1
        BYTE   W06
        BYTE                   Fs1   v077
        BYTE   W06
        BYTE                   Fs1   v075
        BYTE   W06
        BYTE                   Fs1   v127
        BYTE   W06
        BYTE                   Fs1   v074
        BYTE   W06
        BYTE                   Fs1   v072
        BYTE   W06
        BYTE                   Cn1   v127
        BYTE           N06     Dn4
        BYTE   W12
        BYTE                   Fs1   v070
        BYTE   W06
        BYTE                   Fs1   v127
        BYTE   W06
        BYTE                   Fs1   v067
        BYTE   W06
        BYTE                   Fs1
        BYTE   W06
        BYTE                   Cn1   v127
        BYTE           N06     Fs1
        BYTE   W06
        BYTE                   Fs1   v073
        BYTE   W06
        BYTE                   Fs1   v072
        BYTE   W06
        BYTE                   Fs1   v069
        BYTE   W06
        BYTE   PEND
// 007   ----------------------------------------
_34___Vast_Ice_Mountain_9_7:
        BYTE           N06     Cn1   v127
        BYTE           N06     Fs1
        BYTE   W06
        BYTE                   Fs1   v077
        BYTE   W06
        BYTE                   Fs1   v075
        BYTE   W06
        BYTE                   Fs1   v127
        BYTE   W06
        BYTE                   Fs1   v074
        BYTE   W06
        BYTE                   Fs1   v072
        BYTE   W06
        BYTE                   Cn1   v127
        BYTE           N06     Dn4
        BYTE   W12
        BYTE                   Fs1   v070
        BYTE   W06
        BYTE                   Fs1   v127
        BYTE   W06
        BYTE                   Fs1   v067
        BYTE   W06
        BYTE                   Fs1
        BYTE   W06
        BYTE                   Cn1   v127
        BYTE           N06     Fs1
        BYTE   W06
        BYTE                   Fs1   v073
        BYTE   W06
        BYTE                   Fs1   v072
        BYTE           N06     Cn1   v058
        BYTE   W04
        BYTE                   Cn1   v068
        BYTE   W02
        BYTE                   Fs1   v069
        BYTE   W02
        BYTE                   Cn1   v076
        BYTE   W04
        BYTE   PEND
// 008   ----------------------------------------
        BYTE   PATT
         POIN2  _34___Vast_Ice_Mountain_9_6
// 009   ----------------------------------------
        BYTE   PATT
         POIN2  _34___Vast_Ice_Mountain_9_7
// 010   ----------------------------------------
        BYTE   PATT
         POIN2  _34___Vast_Ice_Mountain_9_6
// 011   ----------------------------------------
        BYTE   PATT
         POIN2  _34___Vast_Ice_Mountain_9_7
// 012   ----------------------------------------
        BYTE   PATT
         POIN2  _34___Vast_Ice_Mountain_9_6
// 013   ----------------------------------------
        BYTE   PATT
         POIN2  _34___Vast_Ice_Mountain_9_5
// 014   ----------------------------------------
        BYTE   PATT
         POIN2  _34___Vast_Ice_Mountain_9_6
// 015   ----------------------------------------
        BYTE   PATT
         POIN2  _34___Vast_Ice_Mountain_9_5
// 016   ----------------------------------------
        BYTE   PATT
         POIN2  _34___Vast_Ice_Mountain_9_6
// 017   ----------------------------------------
        BYTE   PATT
         POIN2  _34___Vast_Ice_Mountain_9_5
// 018   ----------------------------------------
        BYTE   PATT
         POIN2  _34___Vast_Ice_Mountain_9_6
// 019   ----------------------------------------
        BYTE   PATT
         POIN2  _34___Vast_Ice_Mountain_9_5
// 020   ----------------------------------------
        BYTE   PATT
         POIN2  _34___Vast_Ice_Mountain_9_6
// 021   ----------------------------------------
        BYTE   PATT
         POIN2  _34___Vast_Ice_Mountain_9_5
// 022   ----------------------------------------
        BYTE   PATT
         POIN2  _34___Vast_Ice_Mountain_9_6
// 023   ----------------------------------------
        BYTE   PATT
         POIN2  _34___Vast_Ice_Mountain_9_5
// 024   ----------------------------------------
        BYTE   PATT
         POIN2  _34___Vast_Ice_Mountain_9_6
// 025   ----------------------------------------
        BYTE   PATT
         POIN2  _34___Vast_Ice_Mountain_9_7
// 026   ----------------------------------------
        BYTE   PATT
         POIN2  _34___Vast_Ice_Mountain_9_6
// 027   ----------------------------------------
        BYTE   PATT
         POIN2  _34___Vast_Ice_Mountain_9_7
// 028   ----------------------------------------
        BYTE   PATT
         POIN2  _34___Vast_Ice_Mountain_9_6
// 029   ----------------------------------------
        BYTE   PATT
         POIN2  _34___Vast_Ice_Mountain_9_7
// 030   ----------------------------------------
        BYTE   PATT
         POIN2  _34___Vast_Ice_Mountain_9_6
// 031   ----------------------------------------
        BYTE   PATT
         POIN2  _34___Vast_Ice_Mountain_9_7
// 032   ----------------------------------------
        BYTE   PATT
         POIN2  _34___Vast_Ice_Mountain_9_6
// 033   ----------------------------------------
        BYTE   PATT
         POIN2  _34___Vast_Ice_Mountain_9_7
// 034   ----------------------------------------
        BYTE   PATT
         POIN2  _34___Vast_Ice_Mountain_9_6
// 035   ----------------------------------------
        BYTE   PATT
         POIN2  _34___Vast_Ice_Mountain_9_7
// 036   ----------------------------------------
        BYTE   PATT
         POIN2  _34___Vast_Ice_Mountain_9_6
// 037   ----------------------------------------
        BYTE   PATT
         POIN2  _34___Vast_Ice_Mountain_9_7
// 038   ----------------------------------------
        BYTE   PATT
         POIN2  _34___Vast_Ice_Mountain_9_6
// 039   ----------------------------------------
        BYTE   PATT
         POIN2  _34___Vast_Ice_Mountain_9_7
// 040   ----------------------------------------
        BYTE   PATT
         POIN2  _34___Vast_Ice_Mountain_9_6
// 041   ----------------------------------------
        BYTE   PATT
         POIN2  _34___Vast_Ice_Mountain_9_7
// 042   ----------------------------------------
        BYTE   PATT
         POIN2  _34___Vast_Ice_Mountain_9_6
// 043   ----------------------------------------
        BYTE   PATT
         POIN2  _34___Vast_Ice_Mountain_9_7
// 044   ----------------------------------------
        BYTE   PATT
         POIN2  _34___Vast_Ice_Mountain_9_6
// 045   ----------------------------------------
        BYTE   PATT
         POIN2  _34___Vast_Ice_Mountain_9_7
// 046   ----------------------------------------
        BYTE   PATT
         POIN2  _34___Vast_Ice_Mountain_9_6
// 047   ----------------------------------------
        BYTE   PATT
         POIN2  _34___Vast_Ice_Mountain_9_7
// 048   ----------------------------------------
        BYTE   PATT
         POIN2  _34___Vast_Ice_Mountain_9_6
// 049   ----------------------------------------
        BYTE   PATT
         POIN2  _34___Vast_Ice_Mountain_9_5
// 050   ----------------------------------------
        BYTE   PATT
         POIN2  _34___Vast_Ice_Mountain_9_6
// 051   ----------------------------------------
        BYTE   PATT
         POIN2  _34___Vast_Ice_Mountain_9_7
// 052   ----------------------------------------
        BYTE   PATT
         POIN2  _34___Vast_Ice_Mountain_9_6
// 053   ----------------------------------------
        BYTE   PATT
         POIN2  _34___Vast_Ice_Mountain_9_7
// 054   ----------------------------------------
        BYTE   PATT
         POIN2  _34___Vast_Ice_Mountain_9_6
// 055   ----------------------------------------
        BYTE   PATT
         POIN2  _34___Vast_Ice_Mountain_9_7
// 056   ----------------------------------------
        BYTE   PATT
         POIN2  _34___Vast_Ice_Mountain_9_6
// 057   ----------------------------------------
        BYTE   PATT
         POIN2  _34___Vast_Ice_Mountain_9_5
// 058   ----------------------------------------
        BYTE   PATT
         POIN2  _34___Vast_Ice_Mountain_9_6
// 059   ----------------------------------------
        BYTE   PATT
         POIN2  _34___Vast_Ice_Mountain_9_5
// 060   ----------------------------------------
        BYTE   PATT
         POIN2  _34___Vast_Ice_Mountain_9_6
// 061   ----------------------------------------
        BYTE   PATT
         POIN2  _34___Vast_Ice_Mountain_9_5
// 062   ----------------------------------------
        BYTE   PATT
         POIN2  _34___Vast_Ice_Mountain_9_6
// 063   ----------------------------------------
        BYTE   PATT
         POIN2  _34___Vast_Ice_Mountain_9_5
// 064   ----------------------------------------
        BYTE   PATT
         POIN2  _34___Vast_Ice_Mountain_9_6
// 065   ----------------------------------------
        BYTE   PATT
         POIN2  _34___Vast_Ice_Mountain_9_5
// 066   ----------------------------------------
        BYTE   PATT
         POIN2  _34___Vast_Ice_Mountain_9_6
// 067   ----------------------------------------
        BYTE   PATT
         POIN2  _34___Vast_Ice_Mountain_9_5
// 068   ----------------------------------------
        BYTE   PATT
         POIN2  _34___Vast_Ice_Mountain_9_6
// 069   ----------------------------------------
        BYTE   PATT
         POIN2  _34___Vast_Ice_Mountain_9_7
// 070   ----------------------------------------
        BYTE   PATT
         POIN2  _34___Vast_Ice_Mountain_9_6
// 071   ----------------------------------------
        BYTE   PATT
         POIN2  _34___Vast_Ice_Mountain_9_7
// 072   ----------------------------------------
        BYTE   PATT
         POIN2  _34___Vast_Ice_Mountain_9_6
// 073   ----------------------------------------
        BYTE   PATT
         POIN2  _34___Vast_Ice_Mountain_9_7
// 074   ----------------------------------------
        BYTE   PATT
         POIN2  _34___Vast_Ice_Mountain_9_6
// 075   ----------------------------------------
        BYTE   PATT
         POIN2  _34___Vast_Ice_Mountain_9_7
// 076   ----------------------------------------
        BYTE   PATT
         POIN2  _34___Vast_Ice_Mountain_9_6
// 077   ----------------------------------------
        BYTE   PATT
         POIN2  _34___Vast_Ice_Mountain_9_7
// 078   ----------------------------------------
        BYTE   PATT
         POIN2  _34___Vast_Ice_Mountain_9_6
// 079   ----------------------------------------
        BYTE   PATT
         POIN2  _34___Vast_Ice_Mountain_9_7
// 080   ----------------------------------------
        BYTE   PATT
         POIN2  _34___Vast_Ice_Mountain_9_6
// 081   ----------------------------------------
        BYTE   PATT
         POIN2  _34___Vast_Ice_Mountain_9_7
// 082   ----------------------------------------
        BYTE   PATT
         POIN2  _34___Vast_Ice_Mountain_9_6
// 083   ----------------------------------------
        BYTE   PATT
         POIN2  _34___Vast_Ice_Mountain_9_7
// 084   ----------------------------------------
        BYTE   PATT
         POIN2  _34___Vast_Ice_Mountain_9_6
// 085   ----------------------------------------
        BYTE   PATT
         POIN2  _34___Vast_Ice_Mountain_9_7
// 086   ----------------------------------------
        BYTE   PATT
         POIN2  _34___Vast_Ice_Mountain_9_6
// 087   ----------------------------------------
        BYTE   PATT
         POIN2  _34___Vast_Ice_Mountain_9_7
// 088   ----------------------------------------
        BYTE   PATT
         POIN2  _34___Vast_Ice_Mountain_9_6
// 089   ----------------------------------------
        BYTE   PATT
         POIN2  _34___Vast_Ice_Mountain_9_7
// 090   ----------------------------------------
        BYTE   PATT
         POIN2  _34___Vast_Ice_Mountain_9_6
// 091   ----------------------------------------
        BYTE   PATT
         POIN2  _34___Vast_Ice_Mountain_9_7
// 092   ----------------------------------------
        BYTE   PATT
         POIN2  _34___Vast_Ice_Mountain_9_6
// 093   ----------------------------------------
        BYTE   FINE

//***************** Track 10 (Midi-Chn.10) *****************//

_34___Vast_Ice_Mountain_10:
        BYTE   KEYSH   _34___Vast_Ice_Mountain_key+0
// 000   ----------------------------------------
        BYTE   W24
// 001   ----------------------------------------
        BYTE           PAN     c_v+56
        BYTE           VOL     74
        BYTE           VOICE   52
        BYTE   W96
// 002   ----------------------------------------
        BYTE   W96
// 003   ----------------------------------------
        BYTE   W96
// 004   ----------------------------------------
        BYTE   W96
// 005   ----------------------------------------
_34___Vast_Ice_Mountain_10_5:
        BYTE   W48
        BYTE           N48     Bn2   v127
        BYTE   W48
        BYTE   PEND
// 006   ----------------------------------------
        BYTE           N96     An2
        BYTE   W96
// 007   ----------------------------------------
        BYTE   PATT
         POIN2  _34___Vast_Ice_Mountain_10_5
// 008   ----------------------------------------
        BYTE           N96     An2   v127
        BYTE   W96
// 009   ----------------------------------------
_34___Vast_Ice_Mountain_10_9:
        BYTE   W48
        BYTE           N48     Bn3   v127
        BYTE   W48
        BYTE   PEND
// 010   ----------------------------------------
        BYTE           N96     An3
        BYTE   W96
// 011   ----------------------------------------
        BYTE   PATT
         POIN2  _34___Vast_Ice_Mountain_10_9
// 012   ----------------------------------------
        BYTE           N96     An3   v127
        BYTE   W96
// 013   ----------------------------------------
        BYTE                   An2
        BYTE   W96
// 014   ----------------------------------------
        BYTE                   Bn2
        BYTE   W96
// 015   ----------------------------------------
        BYTE                   Cn3
        BYTE   W96
// 016   ----------------------------------------
        BYTE                   Dn3
        BYTE   W96
// 017   ----------------------------------------
        BYTE                   An2
        BYTE   W96
// 018   ----------------------------------------
        BYTE                   Bn2
        BYTE   W96
// 019   ----------------------------------------
        BYTE                   Cn3
        BYTE   W96
// 020   ----------------------------------------
        BYTE                   Dn3
        BYTE   W96
// 021   ----------------------------------------
        BYTE                   Cn3
        BYTE   W96
// 022   ----------------------------------------
        BYTE                   Dn3
        BYTE   W96
// 023   ----------------------------------------
        BYTE                   En3
        BYTE   W96
// 024   ----------------------------------------
        BYTE                   Dn3
        BYTE   W96
// 025   ----------------------------------------
        BYTE                   Cn3
        BYTE   W96
// 026   ----------------------------------------
        BYTE                   Dn3
        BYTE   W96
// 027   ----------------------------------------
        BYTE                   En3
        BYTE   W96
// 028   ----------------------------------------
        BYTE                   En3
        BYTE   W96
// 029   ----------------------------------------
        BYTE                   Cn2
        BYTE   W96
// 030   ----------------------------------------
        BYTE                   Dn2
        BYTE   W96
// 031   ----------------------------------------
        BYTE                   Cn2
        BYTE   W96
// 032   ----------------------------------------
        BYTE                   Dn2
        BYTE   W96
// 033   ----------------------------------------
        BYTE                   Ds2
        BYTE   W96
// 034   ----------------------------------------
        BYTE                   Fn2
        BYTE   W96
// 035   ----------------------------------------
        BYTE                   Ds2
        BYTE   W96
// 036   ----------------------------------------
        BYTE                   Fn2
        BYTE   W96
// 037   ----------------------------------------
        BYTE                   Cn3
        BYTE   W96
// 038   ----------------------------------------
        BYTE                   Dn3
        BYTE   W96
// 039   ----------------------------------------
        BYTE                   Cn3
        BYTE   W96
// 040   ----------------------------------------
        BYTE                   Dn3
        BYTE   W96
// 041   ----------------------------------------
        BYTE                   Ds3
        BYTE   W96
// 042   ----------------------------------------
        BYTE                   Fn3
        BYTE   W96
// 043   ----------------------------------------
        BYTE                   Ds3
        BYTE   W96
// 044   ----------------------------------------
        BYTE                   Fn3
        BYTE   W96
// 045   ----------------------------------------
        BYTE           TIE     Gn3
        BYTE   W96
// 046   ----------------------------------------
        BYTE   W96
// 047   ----------------------------------------
_34___Vast_Ice_Mountain_10_47:
        BYTE           EOT     Gn3
        BYTE           TIE     An3   v127
        BYTE   W96
        BYTE   PEND
// 048   ----------------------------------------
        BYTE   W96
// 049   ----------------------------------------
        BYTE           EOT
        BYTE   W48
        BYTE           N48     Bn2
        BYTE   W48
// 050   ----------------------------------------
        BYTE           N96     An2
        BYTE   W96
// 051   ----------------------------------------
        BYTE   PATT
         POIN2  _34___Vast_Ice_Mountain_10_5
// 052   ----------------------------------------
        BYTE           N96     An2   v127
        BYTE   W96
// 053   ----------------------------------------
        BYTE   PATT
         POIN2  _34___Vast_Ice_Mountain_10_9
// 054   ----------------------------------------
        BYTE           N96     An3   v127
        BYTE   W96
// 055   ----------------------------------------
        BYTE   PATT
         POIN2  _34___Vast_Ice_Mountain_10_9
// 056   ----------------------------------------
        BYTE           N96     An3   v127
        BYTE   W96
// 057   ----------------------------------------
        BYTE                   An2
        BYTE   W96
// 058   ----------------------------------------
        BYTE                   Bn2
        BYTE   W96
// 059   ----------------------------------------
        BYTE                   Cn3
        BYTE   W96
// 060   ----------------------------------------
        BYTE                   Dn3
        BYTE   W96
// 061   ----------------------------------------
        BYTE                   An2
        BYTE   W96
// 062   ----------------------------------------
        BYTE                   Bn2
        BYTE   W96
// 063   ----------------------------------------
        BYTE                   Cn3
        BYTE   W96
// 064   ----------------------------------------
        BYTE                   Dn3
        BYTE   W96
// 065   ----------------------------------------
        BYTE                   Cn3
        BYTE   W96
// 066   ----------------------------------------
        BYTE                   Dn3
        BYTE   W96
// 067   ----------------------------------------
        BYTE                   En3
        BYTE   W96
// 068   ----------------------------------------
        BYTE                   Dn3
        BYTE   W96
// 069   ----------------------------------------
        BYTE                   Cn3
        BYTE   W96
// 070   ----------------------------------------
        BYTE                   Dn3
        BYTE   W96
// 071   ----------------------------------------
        BYTE                   En3
        BYTE   W96
// 072   ----------------------------------------
        BYTE                   En3
        BYTE   W96
// 073   ----------------------------------------
        BYTE                   Cn2
        BYTE   W96
// 074   ----------------------------------------
        BYTE                   Dn2
        BYTE   W96
// 075   ----------------------------------------
        BYTE                   Cn2
        BYTE   W96
// 076   ----------------------------------------
        BYTE                   Dn2
        BYTE   W96
// 077   ----------------------------------------
        BYTE                   Ds2
        BYTE   W96
// 078   ----------------------------------------
        BYTE                   Fn2
        BYTE   W96
// 079   ----------------------------------------
        BYTE                   Ds2
        BYTE   W96
// 080   ----------------------------------------
        BYTE                   Fn2
        BYTE   W96
// 081   ----------------------------------------
        BYTE                   Cn3
        BYTE   W96
// 082   ----------------------------------------
        BYTE                   Dn3
        BYTE   W96
// 083   ----------------------------------------
        BYTE                   Cn3
        BYTE   W96
// 084   ----------------------------------------
        BYTE                   Dn3
        BYTE   W96
// 085   ----------------------------------------
        BYTE                   Ds3
        BYTE   W96
// 086   ----------------------------------------
        BYTE                   Fn3
        BYTE   W96
// 087   ----------------------------------------
        BYTE                   Ds3
        BYTE   W96
// 088   ----------------------------------------
        BYTE                   Fn3
        BYTE   W96
// 089   ----------------------------------------
        BYTE           TIE     Gn3
        BYTE   W96
// 090   ----------------------------------------
        BYTE   W96
// 091   ----------------------------------------
        BYTE   PATT
         POIN2  _34___Vast_Ice_Mountain_10_47
// 092   ----------------------------------------
        BYTE   W96
// 093   ----------------------------------------
        BYTE           EOT     An3
        BYTE   FINE

//***************** Track 11 (Midi-Chn.11) *****************//

_34___Vast_Ice_Mountain_11:
        BYTE   KEYSH   _34___Vast_Ice_Mountain_key+0
// 000   ----------------------------------------
        BYTE   W24
// 001   ----------------------------------------
        BYTE           VOL     79
        BYTE           VOICE   40
        BYTE   W96
// 002   ----------------------------------------
        BYTE   W96
// 003   ----------------------------------------
        BYTE   W96
// 004   ----------------------------------------
        BYTE   W96
// 005   ----------------------------------------
        BYTE   W96
// 006   ----------------------------------------
        BYTE   W96
// 007   ----------------------------------------
        BYTE   W96
// 008   ----------------------------------------
        BYTE   W96
// 009   ----------------------------------------
        BYTE   W96
// 010   ----------------------------------------
        BYTE   W96
// 011   ----------------------------------------
        BYTE   W96
// 012   ----------------------------------------
        BYTE   W96
// 013   ----------------------------------------
_34___Vast_Ice_Mountain_11_13:
        BYTE           N36     An2   v127
        BYTE   W36
        BYTE           N24     Cn3
        BYTE   W24
        BYTE                   En3
        BYTE   W24
        BYTE           N12     An3
        BYTE   W12
        BYTE   PEND
// 014   ----------------------------------------
_34___Vast_Ice_Mountain_11_14:
        BYTE           N36     Bn3   v127
        BYTE   W36
        BYTE           N24     Gn3
        BYTE   W24
        BYTE                   Dn3
        BYTE   W24
        BYTE           N12     Bn2
        BYTE   W12
        BYTE   PEND
// 015   ----------------------------------------
_34___Vast_Ice_Mountain_11_15:
        BYTE           N36     Cn3   v127
        BYTE   W36
        BYTE           TIE     En3
        BYTE   W60
        BYTE   PEND
// 016   ----------------------------------------
        BYTE   W72
        BYTE           EOT
        BYTE   W24
// 017   ----------------------------------------
_34___Vast_Ice_Mountain_11_17:
        BYTE           N36     Cn3   v127
        BYTE   W36
        BYTE           N24     En3
        BYTE   W24
        BYTE                   An3
        BYTE   W24
        BYTE           N12     Cn4
        BYTE   W12
        BYTE   PEND
// 018   ----------------------------------------
_34___Vast_Ice_Mountain_11_18:
        BYTE           N36     Dn4   v127
        BYTE   W36
        BYTE           N24     Bn3
        BYTE   W24
        BYTE                   Gn3
        BYTE   W24
        BYTE           N12     Dn3
        BYTE   W12
        BYTE   PEND
// 019   ----------------------------------------
_34___Vast_Ice_Mountain_11_19:
        BYTE           N36     En3   v127
        BYTE   W36
        BYTE           TIE     An3
        BYTE   W60
        BYTE   PEND
// 020   ----------------------------------------
        BYTE   W72
        BYTE           EOT
        BYTE   W24
// 021   ----------------------------------------
        BYTE   W96
// 022   ----------------------------------------
        BYTE   W96
// 023   ----------------------------------------
        BYTE   W96
// 024   ----------------------------------------
        BYTE   W96
// 025   ----------------------------------------
        BYTE   W96
// 026   ----------------------------------------
        BYTE   W96
// 027   ----------------------------------------
        BYTE   W96
// 028   ----------------------------------------
        BYTE   W96
// 029   ----------------------------------------
        BYTE   W96
// 030   ----------------------------------------
        BYTE   W96
// 031   ----------------------------------------
        BYTE   W96
// 032   ----------------------------------------
_34___Vast_Ice_Mountain_11_32:
        BYTE   W72
        BYTE           N06     Fn3   v115
        BYTE   W06
        BYTE                   Gn3
        BYTE   W06
        BYTE                   An3
        BYTE   W06
        BYTE                   Bn3
        BYTE   W06
        BYTE   PEND
// 033   ----------------------------------------
_34___Vast_Ice_Mountain_11_33:
        BYTE           N36     Cn4   v115
        BYTE   W36
        BYTE           N06     As3
        BYTE   W06
        BYTE                   Gs3
        BYTE   W06
        BYTE           N18     Gn3
        BYTE   W18
        BYTE                   Cn4
        BYTE   W18
        BYTE           N12     Gn4
        BYTE   W12
        BYTE   PEND
// 034   ----------------------------------------
_34___Vast_Ice_Mountain_11_34:
        BYTE           N24     Fn4   v115
        BYTE   W24
        BYTE           N06     Ds4
        BYTE   W06
        BYTE                   Fn4
        BYTE   W06
        BYTE           N36     Dn4
        BYTE   W36
        BYTE           N24     As3
        BYTE   W24
        BYTE   PEND
// 035   ----------------------------------------
_34___Vast_Ice_Mountain_11_35:
        BYTE           N36     Ds4   v115
        BYTE   W36
        BYTE           N06     Dn4
        BYTE   W06
        BYTE                   Cn4
        BYTE   W06
        BYTE           N18
        BYTE   W18
        BYTE                   Gn4
        BYTE   W18
        BYTE           N12     Cn5
        BYTE   W12
        BYTE   PEND
// 036   ----------------------------------------
_34___Vast_Ice_Mountain_11_36:
        BYTE           N18     As4   v115
        BYTE   W18
        BYTE                   Fn4
        BYTE   W18
        BYTE           N60     Dn5
        BYTE   W60
        BYTE   PEND
// 037   ----------------------------------------
        BYTE   W96
// 038   ----------------------------------------
        BYTE   W96
// 039   ----------------------------------------
        BYTE   W96
// 040   ----------------------------------------
_34___Vast_Ice_Mountain_11_40:
        BYTE   W72
        BYTE           N06     Fn4   v100
        BYTE   W06
        BYTE                   Gn4
        BYTE   W06
        BYTE                   Gs4
        BYTE   W06
        BYTE                   As4
        BYTE   W06
        BYTE   PEND
// 041   ----------------------------------------
_34___Vast_Ice_Mountain_11_41:
        BYTE           N36     Bn4   v100
        BYTE   W36
        BYTE           N06     As4
        BYTE   W06
        BYTE                   Gs4
        BYTE   W06
        BYTE           N18     Fs4
        BYTE   W18
        BYTE                   Bn4
        BYTE   W18
        BYTE           N12     Fs5
        BYTE   W12
        BYTE   PEND
// 042   ----------------------------------------
_34___Vast_Ice_Mountain_11_42:
        BYTE           N24     Fn5   v100
        BYTE   W24
        BYTE           N06     Ds5
        BYTE   W06
        BYTE                   Fn5
        BYTE   W06
        BYTE           N36     Cs5
        BYTE   W36
        BYTE           N24     Gs4
        BYTE   W24
        BYTE   PEND
// 043   ----------------------------------------
_34___Vast_Ice_Mountain_11_43:
        BYTE           N36     Ds5   v100
        BYTE   W36
        BYTE           N06     Cs5
        BYTE   W06
        BYTE                   Bn4
        BYTE   W06
        BYTE           N18
        BYTE   W18
        BYTE                   Fs5
        BYTE   W18
        BYTE           N12     As5
        BYTE   W12
        BYTE   PEND
// 044   ----------------------------------------
_34___Vast_Ice_Mountain_11_44:
        BYTE           N18     Gs5   v100
        BYTE   W18
        BYTE                   Fn5
        BYTE   W18
        BYTE           N30     Cs6
        BYTE   W36
        BYTE           N24     Gs5
        BYTE   W24
        BYTE   PEND
// 045   ----------------------------------------
        BYTE           TIE     Gn5
        BYTE   W96
// 046   ----------------------------------------
        BYTE   W96
// 047   ----------------------------------------
        BYTE           EOT
        BYTE   W96
// 048   ----------------------------------------
        BYTE   W96
// 049   ----------------------------------------
        BYTE   W96
// 050   ----------------------------------------
        BYTE   W96
// 051   ----------------------------------------
        BYTE   W96
// 052   ----------------------------------------
        BYTE   W96
// 053   ----------------------------------------
        BYTE   W96
// 054   ----------------------------------------
        BYTE   W96
// 055   ----------------------------------------
        BYTE   W96
// 056   ----------------------------------------
        BYTE   W96
// 057   ----------------------------------------
        BYTE   PATT
         POIN2  _34___Vast_Ice_Mountain_11_13
// 058   ----------------------------------------
        BYTE   PATT
         POIN2  _34___Vast_Ice_Mountain_11_14
// 059   ----------------------------------------
        BYTE   PATT
         POIN2  _34___Vast_Ice_Mountain_11_15
// 060   ----------------------------------------
        BYTE   W72
        BYTE           EOT     En3
        BYTE   W24
// 061   ----------------------------------------
        BYTE   PATT
         POIN2  _34___Vast_Ice_Mountain_11_17
// 062   ----------------------------------------
        BYTE   PATT
         POIN2  _34___Vast_Ice_Mountain_11_18
// 063   ----------------------------------------
        BYTE   PATT
         POIN2  _34___Vast_Ice_Mountain_11_19
// 064   ----------------------------------------
        BYTE   W72
        BYTE           EOT     An3
        BYTE   W24
// 065   ----------------------------------------
        BYTE   W96
// 066   ----------------------------------------
        BYTE   W96
// 067   ----------------------------------------
        BYTE   W96
// 068   ----------------------------------------
        BYTE   W96
// 069   ----------------------------------------
        BYTE   W96
// 070   ----------------------------------------
        BYTE   W96
// 071   ----------------------------------------
        BYTE   W96
// 072   ----------------------------------------
        BYTE   W96
// 073   ----------------------------------------
        BYTE   W96
// 074   ----------------------------------------
        BYTE   W96
// 075   ----------------------------------------
        BYTE   W96
// 076   ----------------------------------------
        BYTE   PATT
         POIN2  _34___Vast_Ice_Mountain_11_32
// 077   ----------------------------------------
        BYTE   PATT
         POIN2  _34___Vast_Ice_Mountain_11_33
// 078   ----------------------------------------
        BYTE   PATT
         POIN2  _34___Vast_Ice_Mountain_11_34
// 079   ----------------------------------------
        BYTE   PATT
         POIN2  _34___Vast_Ice_Mountain_11_35
// 080   ----------------------------------------
        BYTE   PATT
         POIN2  _34___Vast_Ice_Mountain_11_36
// 081   ----------------------------------------
        BYTE   W96
// 082   ----------------------------------------
        BYTE   W96
// 083   ----------------------------------------
        BYTE   W96
// 084   ----------------------------------------
        BYTE   PATT
         POIN2  _34___Vast_Ice_Mountain_11_40
// 085   ----------------------------------------
        BYTE   PATT
         POIN2  _34___Vast_Ice_Mountain_11_41
// 086   ----------------------------------------
        BYTE   PATT
         POIN2  _34___Vast_Ice_Mountain_11_42
// 087   ----------------------------------------
        BYTE   PATT
         POIN2  _34___Vast_Ice_Mountain_11_43
// 088   ----------------------------------------
        BYTE   PATT
         POIN2  _34___Vast_Ice_Mountain_11_44
// 089   ----------------------------------------
        BYTE           TIE     Gn5   v100
        BYTE   W96
// 090   ----------------------------------------
        BYTE   W96
// 091   ----------------------------------------
        BYTE           EOT
        BYTE   W96
// 092   ----------------------------------------
        BYTE   W96
// 093   ----------------------------------------
        BYTE   FINE

//***************** Track 12 (Midi-Chn.12) *****************//

_34___Vast_Ice_Mountain_12:
        BYTE   KEYSH   _34___Vast_Ice_Mountain_key+0
// 000   ----------------------------------------
        BYTE   W24
// 001   ----------------------------------------
        BYTE           PAN     c_v+63
        BYTE           VOL     41
        BYTE           VOICE   40
        BYTE   W96
// 002   ----------------------------------------
        BYTE   W96
// 003   ----------------------------------------
        BYTE   W96
// 004   ----------------------------------------
        BYTE   W96
// 005   ----------------------------------------
        BYTE   W96
// 006   ----------------------------------------
        BYTE   W96
// 007   ----------------------------------------
        BYTE   W96
// 008   ----------------------------------------
        BYTE   W96
// 009   ----------------------------------------
        BYTE   W96
// 010   ----------------------------------------
        BYTE   W96
// 011   ----------------------------------------
        BYTE   W96
// 012   ----------------------------------------
        BYTE   W96
// 013   ----------------------------------------
_34___Vast_Ice_Mountain_12_13:
        BYTE   W12
        BYTE           N36     An2   v127
        BYTE   W36
        BYTE           N24     Cn3
        BYTE   W24
        BYTE                   En3
        BYTE   W24
        BYTE   PEND
// 014   ----------------------------------------
_34___Vast_Ice_Mountain_12_14:
        BYTE           N12     An3   v127
        BYTE   W12
        BYTE           N36     Bn3
        BYTE   W36
        BYTE           N24     Gn3
        BYTE   W24
        BYTE                   Dn3
        BYTE   W24
        BYTE   PEND
// 015   ----------------------------------------
_34___Vast_Ice_Mountain_12_15:
        BYTE           N12     Bn2   v127
        BYTE   W12
        BYTE           N36     Cn3
        BYTE   W36
        BYTE           TIE     En3
        BYTE   W48
        BYTE   PEND
// 016   ----------------------------------------
        BYTE   W84
        BYTE           EOT
        BYTE   W12
// 017   ----------------------------------------
_34___Vast_Ice_Mountain_12_17:
        BYTE   W12
        BYTE           N36     Cn3   v127
        BYTE   W36
        BYTE           N24     En3
        BYTE   W24
        BYTE                   An3
        BYTE   W24
        BYTE   PEND
// 018   ----------------------------------------
_34___Vast_Ice_Mountain_12_18:
        BYTE           N12     Cn4   v127
        BYTE   W12
        BYTE           N36     Dn4
        BYTE   W36
        BYTE           N24     Bn3
        BYTE   W24
        BYTE                   Gn3
        BYTE   W24
        BYTE   PEND
// 019   ----------------------------------------
_34___Vast_Ice_Mountain_12_19:
        BYTE           N12     Dn3   v127
        BYTE   W12
        BYTE           N36     En3
        BYTE   W36
        BYTE           TIE     An3
        BYTE   W48
        BYTE   PEND
// 020   ----------------------------------------
        BYTE   W84
        BYTE           EOT
        BYTE   W12
// 021   ----------------------------------------
        BYTE   W96
// 022   ----------------------------------------
        BYTE   W96
// 023   ----------------------------------------
        BYTE   W96
// 024   ----------------------------------------
        BYTE   W96
// 025   ----------------------------------------
        BYTE   W96
// 026   ----------------------------------------
        BYTE   W96
// 027   ----------------------------------------
        BYTE   W96
// 028   ----------------------------------------
        BYTE   W96
// 029   ----------------------------------------
        BYTE   W96
// 030   ----------------------------------------
        BYTE   W96
// 031   ----------------------------------------
        BYTE   W96
// 032   ----------------------------------------
_34___Vast_Ice_Mountain_12_32:
        BYTE   W84
        BYTE           N06     Fn3   v115
        BYTE   W06
        BYTE                   Gn3
        BYTE   W06
        BYTE   PEND
// 033   ----------------------------------------
_34___Vast_Ice_Mountain_12_33:
        BYTE           N06     An3   v115
        BYTE   W06
        BYTE                   Bn3
        BYTE   W06
        BYTE           N36     Cn4
        BYTE   W36
        BYTE           N06     As3
        BYTE   W06
        BYTE                   Gs3
        BYTE   W06
        BYTE           N18     Gn3
        BYTE   W18
        BYTE                   Cn4
        BYTE   W18
        BYTE   PEND
// 034   ----------------------------------------
_34___Vast_Ice_Mountain_12_34:
        BYTE           N12     Gn4   v115
        BYTE   W12
        BYTE           N24     Fn4
        BYTE   W24
        BYTE           N06     Ds4
        BYTE   W06
        BYTE                   Fn4
        BYTE   W06
        BYTE           N36     Dn4
        BYTE   W36
        BYTE           N24     As3
        BYTE   W12
        BYTE   PEND
// 035   ----------------------------------------
_34___Vast_Ice_Mountain_12_35:
        BYTE   W12
        BYTE           N36     Ds4   v115
        BYTE   W36
        BYTE           N06     Dn4
        BYTE   W06
        BYTE                   Cn4
        BYTE   W06
        BYTE           N18
        BYTE   W18
        BYTE                   Gn4
        BYTE   W18
        BYTE   PEND
// 036   ----------------------------------------
_34___Vast_Ice_Mountain_12_36:
        BYTE           N12     Cn5   v115
        BYTE   W12
        BYTE           N18     As4
        BYTE   W18
        BYTE                   Fn4
        BYTE   W18
        BYTE           N60     Dn5
        BYTE   W48
        BYTE   PEND
// 037   ----------------------------------------
        BYTE   W96
// 038   ----------------------------------------
        BYTE   W96
// 039   ----------------------------------------
        BYTE   W96
// 040   ----------------------------------------
_34___Vast_Ice_Mountain_12_40:
        BYTE   W84
        BYTE           N06     Fn4   v100
        BYTE   W06
        BYTE                   Gn4
        BYTE   W06
        BYTE   PEND
// 041   ----------------------------------------
_34___Vast_Ice_Mountain_12_41:
        BYTE           N06     Gs4   v100
        BYTE   W06
        BYTE                   As4
        BYTE   W06
        BYTE           N36     Bn4
        BYTE   W36
        BYTE           N06     As4
        BYTE   W06
        BYTE                   Gs4
        BYTE   W06
        BYTE           N18     Fs4
        BYTE   W18
        BYTE                   Bn4
        BYTE   W18
        BYTE   PEND
// 042   ----------------------------------------
_34___Vast_Ice_Mountain_12_42:
        BYTE           N12     Fs5   v100
        BYTE   W12
        BYTE           N24     Fn5
        BYTE   W24
        BYTE           N06     Ds5
        BYTE   W06
        BYTE                   Fn5
        BYTE   W06
        BYTE           N36     Cs5
        BYTE   W36
        BYTE           N24     Gs4
        BYTE   W12
        BYTE   PEND
// 043   ----------------------------------------
_34___Vast_Ice_Mountain_12_43:
        BYTE   W12
        BYTE           N36     Ds5   v100
        BYTE   W36
        BYTE           N06     Cs5
        BYTE   W06
        BYTE                   Bn4
        BYTE   W06
        BYTE           N18
        BYTE   W18
        BYTE                   Fs5
        BYTE   W18
        BYTE   PEND
// 044   ----------------------------------------
_34___Vast_Ice_Mountain_12_44:
        BYTE           N12     As5   v100
        BYTE   W12
        BYTE           N18     Gs5
        BYTE   W18
        BYTE                   Fn5
        BYTE   W18
        BYTE           N30     Cs6
        BYTE   W36
        BYTE           N24     Gs5
        BYTE   W12
        BYTE   PEND
// 045   ----------------------------------------
        BYTE   W12
        BYTE           TIE     Gn5
        BYTE   W84
// 046   ----------------------------------------
        BYTE   W96
// 047   ----------------------------------------
        BYTE   W12
        BYTE           EOT
        BYTE   W84
// 048   ----------------------------------------
        BYTE   W96
// 049   ----------------------------------------
        BYTE   W96
// 050   ----------------------------------------
        BYTE   W96
// 051   ----------------------------------------
        BYTE   W96
// 052   ----------------------------------------
        BYTE   W96
// 053   ----------------------------------------
        BYTE   W96
// 054   ----------------------------------------
        BYTE   W96
// 055   ----------------------------------------
        BYTE   W96
// 056   ----------------------------------------
        BYTE   W96
// 057   ----------------------------------------
        BYTE   PATT
         POIN2  _34___Vast_Ice_Mountain_12_13
// 058   ----------------------------------------
        BYTE   PATT
         POIN2  _34___Vast_Ice_Mountain_12_14
// 059   ----------------------------------------
        BYTE   PATT
         POIN2  _34___Vast_Ice_Mountain_12_15
// 060   ----------------------------------------
        BYTE   W84
        BYTE           EOT     En3
        BYTE   W12
// 061   ----------------------------------------
        BYTE   PATT
         POIN2  _34___Vast_Ice_Mountain_12_17
// 062   ----------------------------------------
        BYTE   PATT
         POIN2  _34___Vast_Ice_Mountain_12_18
// 063   ----------------------------------------
        BYTE   PATT
         POIN2  _34___Vast_Ice_Mountain_12_19
// 064   ----------------------------------------
        BYTE   W84
        BYTE           EOT     An3
        BYTE   W12
// 065   ----------------------------------------
        BYTE   W96
// 066   ----------------------------------------
        BYTE   W96
// 067   ----------------------------------------
        BYTE   W96
// 068   ----------------------------------------
        BYTE   W96
// 069   ----------------------------------------
        BYTE   W96
// 070   ----------------------------------------
        BYTE   W96
// 071   ----------------------------------------
        BYTE   W96
// 072   ----------------------------------------
        BYTE   W96
// 073   ----------------------------------------
        BYTE   W96
// 074   ----------------------------------------
        BYTE   W96
// 075   ----------------------------------------
        BYTE   W96
// 076   ----------------------------------------
        BYTE   PATT
         POIN2  _34___Vast_Ice_Mountain_12_32
// 077   ----------------------------------------
        BYTE   PATT
         POIN2  _34___Vast_Ice_Mountain_12_33
// 078   ----------------------------------------
        BYTE   PATT
         POIN2  _34___Vast_Ice_Mountain_12_34
// 079   ----------------------------------------
        BYTE   PATT
         POIN2  _34___Vast_Ice_Mountain_12_35
// 080   ----------------------------------------
        BYTE   PATT
         POIN2  _34___Vast_Ice_Mountain_12_36
// 081   ----------------------------------------
        BYTE   W96
// 082   ----------------------------------------
        BYTE   W96
// 083   ----------------------------------------
        BYTE   W96
// 084   ----------------------------------------
        BYTE   PATT
         POIN2  _34___Vast_Ice_Mountain_12_40
// 085   ----------------------------------------
        BYTE   PATT
         POIN2  _34___Vast_Ice_Mountain_12_41
// 086   ----------------------------------------
        BYTE   PATT
         POIN2  _34___Vast_Ice_Mountain_12_42
// 087   ----------------------------------------
        BYTE   PATT
         POIN2  _34___Vast_Ice_Mountain_12_43
// 088   ----------------------------------------
        BYTE   PATT
         POIN2  _34___Vast_Ice_Mountain_12_44
// 089   ----------------------------------------
        BYTE   W12
        BYTE           TIE     Gn5   v100
        BYTE   W84
// 090   ----------------------------------------
        BYTE   W96
// 091   ----------------------------------------
        BYTE   W12
        BYTE           EOT
        BYTE   W84
// 092   ----------------------------------------
        BYTE   W96
// 093   ----------------------------------------
        BYTE   FINE

//***************** Track 13 (Midi-Chn.13) *****************//

_34___Vast_Ice_Mountain_13:
        BYTE   KEYSH   _34___Vast_Ice_Mountain_key+0
// 000   ----------------------------------------
        BYTE   W24
// 001   ----------------------------------------
        BYTE           VOL     83
        BYTE           VOICE   75
        BYTE   W96
// 002   ----------------------------------------
        BYTE   W96
// 003   ----------------------------------------
        BYTE   W96
// 004   ----------------------------------------
        BYTE   W96
// 005   ----------------------------------------
_34___Vast_Ice_Mountain_13_5:
        BYTE           N06     An3   v115
        BYTE   W06
        BYTE                   Bn3
        BYTE   W06
        BYTE                   Cn4
        BYTE   W06
        BYTE                   An3
        BYTE   W06
        BYTE                   Bn3
        BYTE   W06
        BYTE                   Cn4
        BYTE   W06
        BYTE                   Bn3
        BYTE   W06
        BYTE                   Cn4
        BYTE   W06
        BYTE                   Dn4
        BYTE   W06
        BYTE                   Cn4
        BYTE   W06
        BYTE                   Dn4
        BYTE   W06
        BYTE                   En4
        BYTE   W06
        BYTE                   Dn4
        BYTE   W06
        BYTE                   En4
        BYTE   W06
        BYTE                   Fs4
        BYTE   W06
        BYTE                   Gn4
        BYTE   W06
        BYTE   PEND
// 006   ----------------------------------------
_34___Vast_Ice_Mountain_13_6:
        BYTE           N06     Fs4   v115
        BYTE   W06
        BYTE                   Dn4
        BYTE   W06
        BYTE                   En4
        BYTE   W06
        BYTE                   Fs4
        BYTE   W06
        BYTE                   Dn4
        BYTE   W06
        BYTE                   En4
        BYTE   W06
        BYTE                   Cn4
        BYTE   W06
        BYTE                   Dn4
        BYTE   W06
        BYTE                   En4
        BYTE   W06
        BYTE                   Bn3
        BYTE   W06
        BYTE                   Cn4
        BYTE   W06
        BYTE                   Dn4
        BYTE   W06
        BYTE                   An3
        BYTE   W06
        BYTE                   Cn4
        BYTE   W06
        BYTE                   Bn3
        BYTE   W06
        BYTE                   Gn3
        BYTE   W06
        BYTE   PEND
// 007   ----------------------------------------
        BYTE   PATT
         POIN2  _34___Vast_Ice_Mountain_13_5
// 008   ----------------------------------------
        BYTE   PATT
         POIN2  _34___Vast_Ice_Mountain_13_6
// 009   ----------------------------------------
        BYTE   PATT
         POIN2  _34___Vast_Ice_Mountain_13_5
// 010   ----------------------------------------
        BYTE   PATT
         POIN2  _34___Vast_Ice_Mountain_13_6
// 011   ----------------------------------------
        BYTE   PATT
         POIN2  _34___Vast_Ice_Mountain_13_5
// 012   ----------------------------------------
        BYTE   PATT
         POIN2  _34___Vast_Ice_Mountain_13_6
// 013   ----------------------------------------
        BYTE   W96
// 014   ----------------------------------------
        BYTE   W96
// 015   ----------------------------------------
        BYTE   W96
// 016   ----------------------------------------
        BYTE   W96
// 017   ----------------------------------------
        BYTE   W96
// 018   ----------------------------------------
        BYTE   W96
// 019   ----------------------------------------
        BYTE   W96
// 020   ----------------------------------------
        BYTE   W96
// 021   ----------------------------------------
        BYTE   W96
// 022   ----------------------------------------
        BYTE   W96
// 023   ----------------------------------------
_34___Vast_Ice_Mountain_13_23:
        BYTE   W66
        BYTE           N06     Dn4   v127
        BYTE   W06
        BYTE           N04     En4
        BYTE   W06
        BYTE                   An4
        BYTE   W06
        BYTE                   Cn5
        BYTE   W06
        BYTE                   En5
        BYTE   W06
        BYTE   PEND
// 024   ----------------------------------------
_34___Vast_Ice_Mountain_13_24:
        BYTE           N24     Gn5   v127
        BYTE   W24
        BYTE           N06     Dn5
        BYTE   W06
        BYTE                   En5
        BYTE   W06
        BYTE           N60     Bn5
        BYTE   W60
        BYTE   PEND
// 025   ----------------------------------------
        BYTE   W96
// 026   ----------------------------------------
        BYTE   W96
// 027   ----------------------------------------
_34___Vast_Ice_Mountain_13_27:
        BYTE   W60
        BYTE           N12     En4   v127
        BYTE   W12
        BYTE           N06     Dn4
        BYTE   W06
        BYTE           N04     En4
        BYTE   W06
        BYTE                   An4
        BYTE   W06
        BYTE                   Bn4
        BYTE   W06
        BYTE   PEND
// 028   ----------------------------------------
_34___Vast_Ice_Mountain_13_28:
        BYTE           N18     Cn5   v127
        BYTE   W18
        BYTE                   Bn4
        BYTE   W18
        BYTE           N12     An4
        BYTE   W12
        BYTE           N18     Gn4
        BYTE   W18
        BYTE                   Dn4
        BYTE   W18
        BYTE           N12     En4
        BYTE   W12
        BYTE   PEND
// 029   ----------------------------------------
_34___Vast_Ice_Mountain_13_29:
        BYTE           N36     Cn4   v127
        BYTE   W36
        BYTE           N06     Bn3
        BYTE   W06
        BYTE                   Cn4
        BYTE   W06
        BYTE           N18     An3
        BYTE   W18
        BYTE                   Cn4
        BYTE   W18
        BYTE           N12     En4
        BYTE   W12
        BYTE   PEND
// 030   ----------------------------------------
_34___Vast_Ice_Mountain_13_30:
        BYTE           N18     Dn4   v127
        BYTE   W18
        BYTE                   Bn3
        BYTE   W18
        BYTE           N36     Gn3
        BYTE   W48
        BYTE           N06     An3
        BYTE   W06
        BYTE                   Bn3
        BYTE   W06
        BYTE   PEND
// 031   ----------------------------------------
        BYTE   PATT
         POIN2  _34___Vast_Ice_Mountain_13_29
// 032   ----------------------------------------
_34___Vast_Ice_Mountain_13_32:
        BYTE           N24     Dn4   v127
        BYTE   W24
        BYTE           N06     Cn4
        BYTE   W06
        BYTE                   Dn4
        BYTE   W06
        BYTE           N36     Gn4
        BYTE   W60
        BYTE   PEND
// 033   ----------------------------------------
        BYTE   W96
// 034   ----------------------------------------
        BYTE   W96
// 035   ----------------------------------------
        BYTE   W96
// 036   ----------------------------------------
        BYTE   W96
// 037   ----------------------------------------
        BYTE   W96
// 038   ----------------------------------------
        BYTE   W96
// 039   ----------------------------------------
        BYTE   W96
// 040   ----------------------------------------
_34___Vast_Ice_Mountain_13_40:
        BYTE   W72
        BYTE           N06     Gs4   v127
        BYTE   W06
        BYTE                   As4
        BYTE   W06
        BYTE                   Cn5
        BYTE   W06
        BYTE                   Dn5
        BYTE   W06
        BYTE   PEND
// 041   ----------------------------------------
_34___Vast_Ice_Mountain_13_41:
        BYTE           N36     Ds5   v127
        BYTE   W36
        BYTE           N06     Cs5
        BYTE   W06
        BYTE                   Bn4
        BYTE   W06
        BYTE           N18     As4
        BYTE   W18
        BYTE                   Ds5
        BYTE   W18
        BYTE           N12     As5
        BYTE   W12
        BYTE   PEND
// 042   ----------------------------------------
_34___Vast_Ice_Mountain_13_42:
        BYTE           N24     Gs5   v127
        BYTE   W24
        BYTE           N06     Fs5
        BYTE   W06
        BYTE                   Gs5
        BYTE   W06
        BYTE           N36     Fn5
        BYTE   W36
        BYTE           N24     Cs5
        BYTE   W24
        BYTE   PEND
// 043   ----------------------------------------
_34___Vast_Ice_Mountain_13_43:
        BYTE           N36     Fs5   v127
        BYTE   W36
        BYTE           N06     Fn5
        BYTE   W06
        BYTE                   Ds5
        BYTE   W06
        BYTE           N18
        BYTE   W18
        BYTE                   As5
        BYTE   W18
        BYTE           N12     Ds6
        BYTE   W12
        BYTE   PEND
// 044   ----------------------------------------
_34___Vast_Ice_Mountain_13_44:
        BYTE           N18     Cs6   v127
        BYTE   W18
        BYTE                   Gs5
        BYTE   W18
        BYTE           N30     Fn6
        BYTE   W36
        BYTE           N24     Cs6
        BYTE   W24
        BYTE   PEND
// 045   ----------------------------------------
        BYTE           TIE     Ds6
        BYTE   W96
// 046   ----------------------------------------
        BYTE   W96
// 047   ----------------------------------------
_34___Vast_Ice_Mountain_13_47:
        BYTE           EOT     Ds6
        BYTE           N06     An3   v055
        BYTE   W06
        BYTE                   Bn3   v056
        BYTE   W06
        BYTE                   Cn4
        BYTE   W06
        BYTE                   An3
        BYTE   W06
        BYTE                   Bn3   v057
        BYTE   W06
        BYTE                   Cn4
        BYTE   W06
        BYTE                   Bn3   v058
        BYTE   W06
        BYTE                   Cn4   v059
        BYTE   W06
        BYTE                   Dn4   v060
        BYTE   W06
        BYTE                   Cn4   v061
        BYTE   W06
        BYTE                   Dn4   v062
        BYTE   W06
        BYTE                   En4   v064
        BYTE   W06
        BYTE                   Dn4   v065
        BYTE   W06
        BYTE                   En4   v067
        BYTE   W06
        BYTE                   Fs4   v069
        BYTE   W06
        BYTE                   Gn4   v071
        BYTE   W06
        BYTE   PEND
// 048   ----------------------------------------
_34___Vast_Ice_Mountain_13_48:
        BYTE           N06     Fs4   v073
        BYTE   W06
        BYTE                   Dn4   v076
        BYTE   W06
        BYTE                   En4   v078
        BYTE   W06
        BYTE                   Fs4   v081
        BYTE   W06
        BYTE                   Dn4   v084
        BYTE   W06
        BYTE                   En4   v087
        BYTE   W06
        BYTE                   Cn4   v090
        BYTE   W06
        BYTE                   Dn4   v093
        BYTE   W06
        BYTE                   En4   v096
        BYTE   W06
        BYTE                   Bn3   v100
        BYTE   W06
        BYTE                   Cn4   v103
        BYTE   W06
        BYTE                   Dn4   v107
        BYTE   W06
        BYTE                   An3   v119
        BYTE   W06
        BYTE                   Cn4
        BYTE   W06
        BYTE                   Bn3
        BYTE   W06
        BYTE                   Gn3
        BYTE   W06
        BYTE   PEND
// 049   ----------------------------------------
        BYTE   PATT
         POIN2  _34___Vast_Ice_Mountain_13_5
// 050   ----------------------------------------
        BYTE   PATT
         POIN2  _34___Vast_Ice_Mountain_13_6
// 051   ----------------------------------------
        BYTE   PATT
         POIN2  _34___Vast_Ice_Mountain_13_5
// 052   ----------------------------------------
        BYTE   PATT
         POIN2  _34___Vast_Ice_Mountain_13_6
// 053   ----------------------------------------
        BYTE   PATT
         POIN2  _34___Vast_Ice_Mountain_13_5
// 054   ----------------------------------------
        BYTE   PATT
         POIN2  _34___Vast_Ice_Mountain_13_6
// 055   ----------------------------------------
        BYTE   PATT
         POIN2  _34___Vast_Ice_Mountain_13_5
// 056   ----------------------------------------
        BYTE   PATT
         POIN2  _34___Vast_Ice_Mountain_13_6
// 057   ----------------------------------------
        BYTE   W96
// 058   ----------------------------------------
        BYTE   W96
// 059   ----------------------------------------
        BYTE   W96
// 060   ----------------------------------------
        BYTE   W96
// 061   ----------------------------------------
        BYTE   W96
// 062   ----------------------------------------
        BYTE   W96
// 063   ----------------------------------------
        BYTE   W96
// 064   ----------------------------------------
        BYTE   W96
// 065   ----------------------------------------
        BYTE   W96
// 066   ----------------------------------------
        BYTE   W96
// 067   ----------------------------------------
        BYTE   PATT
         POIN2  _34___Vast_Ice_Mountain_13_23
// 068   ----------------------------------------
        BYTE   PATT
         POIN2  _34___Vast_Ice_Mountain_13_24
// 069   ----------------------------------------
        BYTE   W96
// 070   ----------------------------------------
        BYTE   W96
// 071   ----------------------------------------
        BYTE   PATT
         POIN2  _34___Vast_Ice_Mountain_13_27
// 072   ----------------------------------------
        BYTE   PATT
         POIN2  _34___Vast_Ice_Mountain_13_28
// 073   ----------------------------------------
        BYTE   PATT
         POIN2  _34___Vast_Ice_Mountain_13_29
// 074   ----------------------------------------
        BYTE   PATT
         POIN2  _34___Vast_Ice_Mountain_13_30
// 075   ----------------------------------------
        BYTE   PATT
         POIN2  _34___Vast_Ice_Mountain_13_29
// 076   ----------------------------------------
        BYTE   PATT
         POIN2  _34___Vast_Ice_Mountain_13_32
// 077   ----------------------------------------
        BYTE   W96
// 078   ----------------------------------------
        BYTE   W96
// 079   ----------------------------------------
        BYTE   W96
// 080   ----------------------------------------
        BYTE   W96
// 081   ----------------------------------------
        BYTE   W96
// 082   ----------------------------------------
        BYTE   W96
// 083   ----------------------------------------
        BYTE   W96
// 084   ----------------------------------------
        BYTE   PATT
         POIN2  _34___Vast_Ice_Mountain_13_40
// 085   ----------------------------------------
        BYTE   PATT
         POIN2  _34___Vast_Ice_Mountain_13_41
// 086   ----------------------------------------
        BYTE   PATT
         POIN2  _34___Vast_Ice_Mountain_13_42
// 087   ----------------------------------------
        BYTE   PATT
         POIN2  _34___Vast_Ice_Mountain_13_43
// 088   ----------------------------------------
        BYTE   PATT
         POIN2  _34___Vast_Ice_Mountain_13_44
// 089   ----------------------------------------
        BYTE           TIE     Ds6   v127
        BYTE   W96
// 090   ----------------------------------------
        BYTE   W96
// 091   ----------------------------------------
        BYTE   PATT
         POIN2  _34___Vast_Ice_Mountain_13_47
// 092   ----------------------------------------
        BYTE   PATT
         POIN2  _34___Vast_Ice_Mountain_13_48
// 093   ----------------------------------------
        BYTE   FINE

//***************** Track 14 (Midi-Chn.14) *****************//

_34___Vast_Ice_Mountain_14:
        BYTE   KEYSH   _34___Vast_Ice_Mountain_key+0
// 000   ----------------------------------------
        BYTE   W24
// 001   ----------------------------------------
        BYTE           PAN     c_v-34
        BYTE           VOL     53
        BYTE           VOICE   75
        BYTE   W96
// 002   ----------------------------------------
        BYTE   W96
// 003   ----------------------------------------
        BYTE   W96
// 004   ----------------------------------------
        BYTE   W96
// 005   ----------------------------------------
_34___Vast_Ice_Mountain_14_5:
        BYTE   W12
        BYTE           N06     An3   v115
        BYTE   W06
        BYTE                   Bn3
        BYTE   W06
        BYTE                   Cn4
        BYTE   W06
        BYTE                   An3
        BYTE   W06
        BYTE                   Bn3
        BYTE   W06
        BYTE                   Cn4
        BYTE   W06
        BYTE                   Bn3
        BYTE   W06
        BYTE                   Cn4
        BYTE   W06
        BYTE                   Dn4
        BYTE   W06
        BYTE                   Cn4
        BYTE   W06
        BYTE                   Dn4
        BYTE   W06
        BYTE                   En4
        BYTE   W06
        BYTE                   Dn4
        BYTE   W06
        BYTE                   En4
        BYTE   W06
        BYTE   PEND
// 006   ----------------------------------------
_34___Vast_Ice_Mountain_14_6:
        BYTE           N06     Fs4   v115
        BYTE   W06
        BYTE                   Gn4
        BYTE   W06
        BYTE                   Fs4
        BYTE   W06
        BYTE                   Dn4
        BYTE   W06
        BYTE                   En4
        BYTE   W06
        BYTE                   Fs4
        BYTE   W06
        BYTE                   Dn4
        BYTE   W06
        BYTE                   En4
        BYTE   W06
        BYTE                   Cn4
        BYTE   W06
        BYTE                   Dn4
        BYTE   W06
        BYTE                   En4
        BYTE   W06
        BYTE                   Bn3
        BYTE   W06
        BYTE                   Cn4
        BYTE   W06
        BYTE                   Dn4
        BYTE   W06
        BYTE                   An3
        BYTE   W06
        BYTE                   Cn4
        BYTE   W06
        BYTE   PEND
// 007   ----------------------------------------
_34___Vast_Ice_Mountain_14_7:
        BYTE           N06     Bn3   v115
        BYTE   W06
        BYTE                   Gn3
        BYTE   W06
        BYTE                   An3
        BYTE   W06
        BYTE                   Bn3
        BYTE   W06
        BYTE                   Cn4
        BYTE   W06
        BYTE                   An3
        BYTE   W06
        BYTE                   Bn3
        BYTE   W06
        BYTE                   Cn4
        BYTE   W06
        BYTE                   Bn3
        BYTE   W06
        BYTE                   Cn4
        BYTE   W06
        BYTE                   Dn4
        BYTE   W06
        BYTE                   Cn4
        BYTE   W06
        BYTE                   Dn4
        BYTE   W06
        BYTE                   En4
        BYTE   W06
        BYTE                   Dn4
        BYTE   W06
        BYTE                   En4
        BYTE   W06
        BYTE   PEND
// 008   ----------------------------------------
        BYTE   PATT
         POIN2  _34___Vast_Ice_Mountain_14_6
// 009   ----------------------------------------
        BYTE   PATT
         POIN2  _34___Vast_Ice_Mountain_14_7
// 010   ----------------------------------------
        BYTE   PATT
         POIN2  _34___Vast_Ice_Mountain_14_6
// 011   ----------------------------------------
        BYTE   PATT
         POIN2  _34___Vast_Ice_Mountain_14_7
// 012   ----------------------------------------
        BYTE   PATT
         POIN2  _34___Vast_Ice_Mountain_14_6
// 013   ----------------------------------------
_34___Vast_Ice_Mountain_14_13:
        BYTE           N06     Bn3   v115
        BYTE   W06
        BYTE                   Gn3
        BYTE   W90
        BYTE   PEND
// 014   ----------------------------------------
        BYTE   W96
// 015   ----------------------------------------
        BYTE   W96
// 016   ----------------------------------------
        BYTE   W96
// 017   ----------------------------------------
        BYTE   W96
// 018   ----------------------------------------
        BYTE   W96
// 019   ----------------------------------------
        BYTE   W96
// 020   ----------------------------------------
        BYTE   W96
// 021   ----------------------------------------
        BYTE   W96
// 022   ----------------------------------------
        BYTE   W96
// 023   ----------------------------------------
_34___Vast_Ice_Mountain_14_23:
        BYTE   W78
        BYTE           N06     Dn4   v127
        BYTE   W06
        BYTE           N04     En4
        BYTE   W06
        BYTE                   An4
        BYTE   W06
        BYTE   PEND
// 024   ----------------------------------------
_34___Vast_Ice_Mountain_14_24:
        BYTE           N04     Cn5   v127
        BYTE   W06
        BYTE                   En5
        BYTE   W06
        BYTE           N24     Gn5
        BYTE   W24
        BYTE           N06     Dn5
        BYTE   W06
        BYTE                   En5
        BYTE   W06
        BYTE           N60     Bn5
        BYTE   W48
        BYTE   PEND
// 025   ----------------------------------------
        BYTE   W96
// 026   ----------------------------------------
        BYTE   W96
// 027   ----------------------------------------
_34___Vast_Ice_Mountain_14_27:
        BYTE   W72
        BYTE           N12     En4   v127
        BYTE   W12
        BYTE           N06     Dn4
        BYTE   W06
        BYTE           N04     En4
        BYTE   W06
        BYTE   PEND
// 028   ----------------------------------------
_34___Vast_Ice_Mountain_14_28:
        BYTE           N04     An4   v127
        BYTE   W06
        BYTE                   Bn4
        BYTE   W06
        BYTE           N18     Cn5
        BYTE   W18
        BYTE                   Bn4
        BYTE   W18
        BYTE           N12     An4
        BYTE   W12
        BYTE           N18     Gn4
        BYTE   W18
        BYTE                   Dn4
        BYTE   W18
        BYTE   PEND
// 029   ----------------------------------------
_34___Vast_Ice_Mountain_14_29:
        BYTE           N12     En4   v127
        BYTE   W12
        BYTE           N36     Cn4
        BYTE   W36
        BYTE           N06     Bn3
        BYTE   W06
        BYTE                   Cn4
        BYTE   W06
        BYTE           N18     An3
        BYTE   W18
        BYTE                   Cn4
        BYTE   W18
        BYTE   PEND
// 030   ----------------------------------------
_34___Vast_Ice_Mountain_14_30:
        BYTE           N12     En4   v127
        BYTE   W12
        BYTE           N18     Dn4
        BYTE   W18
        BYTE                   Bn3
        BYTE   W18
        BYTE           N36     Gn3
        BYTE   W48
        BYTE   PEND
// 031   ----------------------------------------
_34___Vast_Ice_Mountain_14_31:
        BYTE           N06     An3   v127
        BYTE   W06
        BYTE                   Bn3
        BYTE   W06
        BYTE           N36     Cn4
        BYTE   W36
        BYTE           N06     Bn3
        BYTE   W06
        BYTE                   Cn4
        BYTE   W06
        BYTE           N18     An3
        BYTE   W18
        BYTE                   Cn4
        BYTE   W18
        BYTE   PEND
// 032   ----------------------------------------
_34___Vast_Ice_Mountain_14_32:
        BYTE           N12     En4   v127
        BYTE   W12
        BYTE           N24     Dn4
        BYTE   W24
        BYTE           N06     Cn4
        BYTE   W06
        BYTE                   Dn4
        BYTE   W06
        BYTE           N36     Gn4
        BYTE   W48
        BYTE   PEND
// 033   ----------------------------------------
        BYTE   W96
// 034   ----------------------------------------
        BYTE   W96
// 035   ----------------------------------------
        BYTE   W96
// 036   ----------------------------------------
        BYTE   W96
// 037   ----------------------------------------
        BYTE   W96
// 038   ----------------------------------------
        BYTE   W96
// 039   ----------------------------------------
        BYTE   W96
// 040   ----------------------------------------
_34___Vast_Ice_Mountain_14_40:
        BYTE   W84
        BYTE           N06     Gs4   v127
        BYTE   W06
        BYTE                   As4
        BYTE   W06
        BYTE   PEND
// 041   ----------------------------------------
_34___Vast_Ice_Mountain_14_41:
        BYTE           N06     Cn5   v127
        BYTE   W06
        BYTE                   Dn5
        BYTE   W06
        BYTE           N36     Ds5
        BYTE   W36
        BYTE           N06     Cs5
        BYTE   W06
        BYTE                   Bn4
        BYTE   W06
        BYTE           N18     As4
        BYTE   W18
        BYTE                   Ds5
        BYTE   W18
        BYTE   PEND
// 042   ----------------------------------------
_34___Vast_Ice_Mountain_14_42:
        BYTE           N12     As5   v127
        BYTE   W12
        BYTE           N24     Gs5
        BYTE   W24
        BYTE           N06     Fs5
        BYTE   W06
        BYTE                   Gs5
        BYTE   W06
        BYTE           N36     Fn5
        BYTE   W36
        BYTE           N24     Cs5
        BYTE   W12
        BYTE   PEND
// 043   ----------------------------------------
_34___Vast_Ice_Mountain_14_43:
        BYTE   W12
        BYTE           N36     Fs5   v127
        BYTE   W36
        BYTE           N06     Fn5
        BYTE   W06
        BYTE                   Ds5
        BYTE   W06
        BYTE           N18
        BYTE   W18
        BYTE                   As5
        BYTE   W18
        BYTE   PEND
// 044   ----------------------------------------
_34___Vast_Ice_Mountain_14_44:
        BYTE           N12     Ds6   v127
        BYTE   W12
        BYTE           N18     Cs6
        BYTE   W18
        BYTE                   Gs5
        BYTE   W18
        BYTE           N30     Fn6
        BYTE   W36
        BYTE           N24     Cs6
        BYTE   W12
        BYTE   PEND
// 045   ----------------------------------------
        BYTE   W12
        BYTE           TIE     Ds6
        BYTE   W84
// 046   ----------------------------------------
        BYTE   W96
// 047   ----------------------------------------
_34___Vast_Ice_Mountain_14_47:
        BYTE   W12
        BYTE           EOT     Ds6
        BYTE           N06     An3   v048
        BYTE   W06
        BYTE                   Bn3
        BYTE   W06
        BYTE                   Cn4   v049
        BYTE   W06
        BYTE                   An3   v050
        BYTE   W06
        BYTE                   Bn3   v051
        BYTE   W06
        BYTE                   Cn4   v052
        BYTE   W06
        BYTE                   Bn3   v053
        BYTE   W06
        BYTE                   Cn4   v054
        BYTE   W06
        BYTE                   Dn4   v055
        BYTE   W06
        BYTE                   Cn4   v057
        BYTE   W06
        BYTE                   Dn4   v059
        BYTE   W06
        BYTE                   En4   v061
        BYTE   W06
        BYTE                   Dn4   v063
        BYTE   W06
        BYTE                   En4   v065
        BYTE   W06
        BYTE   PEND
// 048   ----------------------------------------
_34___Vast_Ice_Mountain_14_48:
        BYTE           N06     Fs4   v067
        BYTE   W06
        BYTE                   Gn4   v070
        BYTE   W06
        BYTE                   Fs4   v072
        BYTE   W06
        BYTE                   Dn4   v075
        BYTE   W06
        BYTE                   En4   v078
        BYTE   W06
        BYTE                   Fs4   v081
        BYTE   W06
        BYTE                   Dn4   v084
        BYTE   W06
        BYTE                   En4   v087
        BYTE   W06
        BYTE                   Cn4   v090
        BYTE   W06
        BYTE                   Dn4   v094
        BYTE   W06
        BYTE                   En4   v098
        BYTE   W06
        BYTE                   Bn3   v102
        BYTE   W06
        BYTE                   Cn4   v106
        BYTE   W06
        BYTE                   Dn4   v110
        BYTE   W06
        BYTE                   An3   v114
        BYTE   W06
        BYTE                   Cn4   v119
        BYTE   W06
        BYTE   PEND
// 049   ----------------------------------------
        BYTE   PATT
         POIN2  _34___Vast_Ice_Mountain_14_5
// 050   ----------------------------------------
        BYTE   PATT
         POIN2  _34___Vast_Ice_Mountain_14_6
// 051   ----------------------------------------
        BYTE   PATT
         POIN2  _34___Vast_Ice_Mountain_14_7
// 052   ----------------------------------------
        BYTE   PATT
         POIN2  _34___Vast_Ice_Mountain_14_6
// 053   ----------------------------------------
        BYTE   PATT
         POIN2  _34___Vast_Ice_Mountain_14_7
// 054   ----------------------------------------
        BYTE   PATT
         POIN2  _34___Vast_Ice_Mountain_14_6
// 055   ----------------------------------------
        BYTE   PATT
         POIN2  _34___Vast_Ice_Mountain_14_7
// 056   ----------------------------------------
        BYTE   PATT
         POIN2  _34___Vast_Ice_Mountain_14_6
// 057   ----------------------------------------
        BYTE   PATT
         POIN2  _34___Vast_Ice_Mountain_14_13
// 058   ----------------------------------------
        BYTE   W96
// 059   ----------------------------------------
        BYTE   W96
// 060   ----------------------------------------
        BYTE   W96
// 061   ----------------------------------------
        BYTE   W96
// 062   ----------------------------------------
        BYTE   W96
// 063   ----------------------------------------
        BYTE   W96
// 064   ----------------------------------------
        BYTE   W96
// 065   ----------------------------------------
        BYTE   W96
// 066   ----------------------------------------
        BYTE   W96
// 067   ----------------------------------------
        BYTE   PATT
         POIN2  _34___Vast_Ice_Mountain_14_23
// 068   ----------------------------------------
        BYTE   PATT
         POIN2  _34___Vast_Ice_Mountain_14_24
// 069   ----------------------------------------
        BYTE   W96
// 070   ----------------------------------------
        BYTE   W96
// 071   ----------------------------------------
        BYTE   PATT
         POIN2  _34___Vast_Ice_Mountain_14_27
// 072   ----------------------------------------
        BYTE   PATT
         POIN2  _34___Vast_Ice_Mountain_14_28
// 073   ----------------------------------------
        BYTE   PATT
         POIN2  _34___Vast_Ice_Mountain_14_29
// 074   ----------------------------------------
        BYTE   PATT
         POIN2  _34___Vast_Ice_Mountain_14_30
// 075   ----------------------------------------
        BYTE   PATT
         POIN2  _34___Vast_Ice_Mountain_14_31
// 076   ----------------------------------------
        BYTE   PATT
         POIN2  _34___Vast_Ice_Mountain_14_32
// 077   ----------------------------------------
        BYTE   W96
// 078   ----------------------------------------
        BYTE   W96
// 079   ----------------------------------------
        BYTE   W96
// 080   ----------------------------------------
        BYTE   W96
// 081   ----------------------------------------
        BYTE   W96
// 082   ----------------------------------------
        BYTE   W96
// 083   ----------------------------------------
        BYTE   W96
// 084   ----------------------------------------
        BYTE   PATT
         POIN2  _34___Vast_Ice_Mountain_14_40
// 085   ----------------------------------------
        BYTE   PATT
         POIN2  _34___Vast_Ice_Mountain_14_41
// 086   ----------------------------------------
        BYTE   PATT
         POIN2  _34___Vast_Ice_Mountain_14_42
// 087   ----------------------------------------
        BYTE   PATT
         POIN2  _34___Vast_Ice_Mountain_14_43
// 088   ----------------------------------------
        BYTE   PATT
         POIN2  _34___Vast_Ice_Mountain_14_44
// 089   ----------------------------------------
        BYTE   W12
        BYTE           TIE     Ds6   v127
        BYTE   W84
// 090   ----------------------------------------
        BYTE   W96
// 091   ----------------------------------------
        BYTE   PATT
         POIN2  _34___Vast_Ice_Mountain_14_47
// 092   ----------------------------------------
        BYTE   PATT
         POIN2  _34___Vast_Ice_Mountain_14_48
// 093   ----------------------------------------
        BYTE   FINE

//***************** Track 15 (Midi-Chn.15) *****************//

_34___Vast_Ice_Mountain_15:
        BYTE   KEYSH   _34___Vast_Ice_Mountain_key+0
// 000   ----------------------------------------
        BYTE   W24
// 001   ----------------------------------------
        BYTE           VOL     83
        BYTE           VOICE   14
        BYTE   W96
// 002   ----------------------------------------
        BYTE   W96
// 003   ----------------------------------------
        BYTE   W96
// 004   ----------------------------------------
        BYTE   W96
// 005   ----------------------------------------
        BYTE   W96
// 006   ----------------------------------------
        BYTE   W96
// 007   ----------------------------------------
        BYTE   W96
// 008   ----------------------------------------
        BYTE   W96
// 009   ----------------------------------------
        BYTE   W96
// 010   ----------------------------------------
        BYTE   W96
// 011   ----------------------------------------
        BYTE   W96
// 012   ----------------------------------------
        BYTE   W96
// 013   ----------------------------------------
        BYTE           N96     An2   v127
        BYTE   W96
// 014   ----------------------------------------
        BYTE   W96
// 015   ----------------------------------------
        BYTE                   An2
        BYTE   W96
// 016   ----------------------------------------
        BYTE   W96
// 017   ----------------------------------------
        BYTE                   An2
        BYTE   W96
// 018   ----------------------------------------
        BYTE   W96
// 019   ----------------------------------------
        BYTE                   An2
        BYTE   W96
// 020   ----------------------------------------
        BYTE   W96
// 021   ----------------------------------------
        BYTE                   An2
        BYTE   W96
// 022   ----------------------------------------
        BYTE   W96
// 023   ----------------------------------------
        BYTE                   An2
        BYTE   W96
// 024   ----------------------------------------
        BYTE   W96
// 025   ----------------------------------------
        BYTE                   An2
        BYTE   W96
// 026   ----------------------------------------
        BYTE   W96
// 027   ----------------------------------------
        BYTE                   An2
        BYTE   W96
// 028   ----------------------------------------
        BYTE   W96
// 029   ----------------------------------------
        BYTE                   Fn2
        BYTE   W96
// 030   ----------------------------------------
        BYTE   W96
// 031   ----------------------------------------
        BYTE                   Fn2
        BYTE   W96
// 032   ----------------------------------------
        BYTE   W96
// 033   ----------------------------------------
        BYTE                   Fn2
        BYTE   W96
// 034   ----------------------------------------
        BYTE   W96
// 035   ----------------------------------------
        BYTE                   Fn2
        BYTE   W96
// 036   ----------------------------------------
        BYTE   W96
// 037   ----------------------------------------
        BYTE                   Gs2
        BYTE   W96
// 038   ----------------------------------------
        BYTE   W96
// 039   ----------------------------------------
        BYTE                   Gs2
        BYTE   W96
// 040   ----------------------------------------
        BYTE   W96
// 041   ----------------------------------------
        BYTE                   Gs2
        BYTE   W96
// 042   ----------------------------------------
        BYTE   W96
// 043   ----------------------------------------
        BYTE                   Gs2
        BYTE   W96
// 044   ----------------------------------------
        BYTE   W96
// 045   ----------------------------------------
        BYTE                   Gs2
        BYTE   W96
// 046   ----------------------------------------
        BYTE   W96
// 047   ----------------------------------------
        BYTE                   An2
        BYTE   W96
// 048   ----------------------------------------
        BYTE   W96
// 049   ----------------------------------------
        BYTE   W96
// 050   ----------------------------------------
        BYTE   W96
// 051   ----------------------------------------
        BYTE   W96
// 052   ----------------------------------------
        BYTE   W96
// 053   ----------------------------------------
        BYTE   W96
// 054   ----------------------------------------
        BYTE   W96
// 055   ----------------------------------------
        BYTE   W96
// 056   ----------------------------------------
        BYTE   W96
// 057   ----------------------------------------
        BYTE                   An2
        BYTE   W96
// 058   ----------------------------------------
        BYTE   W96
// 059   ----------------------------------------
        BYTE                   An2
        BYTE   W96
// 060   ----------------------------------------
        BYTE   W96
// 061   ----------------------------------------
        BYTE                   An2
        BYTE   W96
// 062   ----------------------------------------
        BYTE   W96
// 063   ----------------------------------------
        BYTE                   An2
        BYTE   W96
// 064   ----------------------------------------
        BYTE   W96
// 065   ----------------------------------------
        BYTE                   An2
        BYTE   W96
// 066   ----------------------------------------
        BYTE   W96
// 067   ----------------------------------------
        BYTE                   An2
        BYTE   W96
// 068   ----------------------------------------
        BYTE   W96
// 069   ----------------------------------------
        BYTE                   An2
        BYTE   W96
// 070   ----------------------------------------
        BYTE   W96
// 071   ----------------------------------------
        BYTE                   An2
        BYTE   W96
// 072   ----------------------------------------
        BYTE   W96
// 073   ----------------------------------------
        BYTE                   Fn2
        BYTE   W96
// 074   ----------------------------------------
        BYTE   W96
// 075   ----------------------------------------
        BYTE                   Fn2
        BYTE   W96
// 076   ----------------------------------------
        BYTE   W96
// 077   ----------------------------------------
        BYTE                   Fn2
        BYTE   W96
// 078   ----------------------------------------
        BYTE   W96
// 079   ----------------------------------------
        BYTE                   Fn2
        BYTE   W96
// 080   ----------------------------------------
        BYTE   W96
// 081   ----------------------------------------
        BYTE                   Gs2
        BYTE   W96
// 082   ----------------------------------------
        BYTE   W96
// 083   ----------------------------------------
        BYTE                   Gs2
        BYTE   W96
// 084   ----------------------------------------
        BYTE   W96
// 085   ----------------------------------------
        BYTE                   Gs2
        BYTE   W96
// 086   ----------------------------------------
        BYTE   W96
// 087   ----------------------------------------
        BYTE                   Gs2
        BYTE   W96
// 088   ----------------------------------------
        BYTE   W96
// 089   ----------------------------------------
        BYTE                   Gs2
        BYTE   W96
// 090   ----------------------------------------
        BYTE   W96
// 091   ----------------------------------------
        BYTE                   An2
        BYTE   W96
// 092   ----------------------------------------
        BYTE   W96
// 093   ----------------------------------------
        BYTE   FINE


//********************** End of Song ***********************//

        ALIGN 4
_34___Vast_Ice_Mountain:
        BYTE   16                      // Num Tracks
        BYTE   0                       // Unknown
        BYTE   _34___Vast_Ice_Mountain_pri // Priority
        BYTE   _34___Vast_Ice_Mountain_rev // Reverb

        POIN2   _34___Vast_Ice_Mountain_grp

        POIN2   _34___Vast_Ice_Mountain_0
        POIN2   _34___Vast_Ice_Mountain_1
        POIN2   _34___Vast_Ice_Mountain_2
        POIN2   _34___Vast_Ice_Mountain_3
        POIN2   _34___Vast_Ice_Mountain_4
        POIN2   _34___Vast_Ice_Mountain_5
        POIN2   _34___Vast_Ice_Mountain_6
        POIN2   _34___Vast_Ice_Mountain_7
        POIN2   _34___Vast_Ice_Mountain_8
        POIN2   _34___Vast_Ice_Mountain_9
        POIN2   _34___Vast_Ice_Mountain_10
        POIN2   _34___Vast_Ice_Mountain_11
        POIN2   _34___Vast_Ice_Mountain_12
        POIN2   _34___Vast_Ice_Mountain_13
        POIN2   _34___Vast_Ice_Mountain_14
        POIN2   _34___Vast_Ice_Mountain_15

        
