//Event file generated from Sappy .s format.
	#include "MPlayDef.event"

	#define	song09_grp  MusicVoices
	#define	song09_pri  0
	#define	song09_rev  0
	#define	song09_mvl  127
	#define	song09_key  0
	#define	song09_tbs  1
	#define	song09_exg  0
	#define	song09_cmp  1

	// .rodata
	//	song09
	ALIGN 4


//**************** Track 1 (Midi-Chn.0) ****************//

song09_001:
//  #01 //000   ----------------------------------------
 BYTE   KEYSH   song09_key+0
Label_010508DE:
 BYTE   TEMPO   100*song09_tbs/2
 BYTE   VOICE   71
 BYTE   MODT 0
 BYTE   LFOS 44
 BYTE   VOL   21*song09_mvl/mxv
 BYTE   PAN   c_v+40
 BYTE   VOL   0*song09_mvl/mxv
 BYTE   PAN   c_v-40
 BYTE   VOL   0*song09_mvl/mxv
 BYTE   BEND   c_v-2
 BYTE   N03  Fn4  v036
 BYTE   W03
 BYTE   Fn4  v032
 BYTE   W03
 BYTE   Fn4  v044
 BYTE   W03
 BYTE   Fn4  v048
 BYTE   W03
 BYTE   N02  Fn4  v056
 BYTE   W02
 BYTE   VOL   0*song09_mvl/mxv
 BYTE   N01  Fn4  v127
 BYTE   W01
 BYTE   N03  Fn4  v056
 BYTE   W01
 BYTE   VOL   0*song09_mvl/mxv
 BYTE   W02
 BYTE   VOL   0*song09_mvl/mxv
 BYTE   N03  Fn4  v068
 BYTE   W02
 BYTE   VOL   0*song09_mvl/mxv
 BYTE   W01
 BYTE   N03
 BYTE   W01
 BYTE   VOL   0*song09_mvl/mxv
 BYTE   W02
 BYTE   VOL   0*song09_mvl/mxv
 BYTE   N03  Fn4  v080
 BYTE   W02
 BYTE   MOD 0
 BYTE   VOL   0*song09_mvl/mxv
 BYTE   W01
 BYTE   N03  Fn4  v076
 BYTE   W01
 BYTE   MOD 2
 BYTE   VOL   0*song09_mvl/mxv
 BYTE   W02
 BYTE   MOD 2
 BYTE   VOL   0*song09_mvl/mxv
 BYTE   N03  Fn4  v088
 BYTE   W02
 BYTE   MOD 4
 BYTE   VOL   0*song09_mvl/mxv
 BYTE   W01
 BYTE   N03  Fn4  v080
 BYTE   W01
 BYTE   MOD 6
 BYTE   VOL   0*song09_mvl/mxv
 BYTE   W02
 BYTE   MOD 6
 BYTE   VOL   0*song09_mvl/mxv
 BYTE   N03  Fn4  v088
 BYTE   W02
 BYTE   MOD 8
 BYTE   VOL   0*song09_mvl/mxv
 BYTE   W01
 BYTE   N03  Fn4  v080
 BYTE   W01
 BYTE   VOL   0*song09_mvl/mxv
 BYTE   W02
 BYTE   VOL   0*song09_mvl/mxv
 BYTE   N03  Fn4  v088
 BYTE   W02
 BYTE   VOL   0*song09_mvl/mxv
 BYTE   W01
 BYTE   N03  Fn4  v080
 BYTE   W01
 BYTE   VOL   0*song09_mvl/mxv
 BYTE   W02
 BYTE   VOL   0*song09_mvl/mxv
 BYTE   N03  Fn4  v088
 BYTE   W02
 BYTE   VOL   0*song09_mvl/mxv
 BYTE   W01
 BYTE   N03  Fn4  v080
 BYTE   W03
 BYTE   Fn4  v088
 BYTE   W03
 BYTE   Fn4  v076
 BYTE   W03
 BYTE   Fn4  v084
 BYTE   W03
 BYTE   Fn4  v072
 BYTE   W03
 BYTE   Fn4  v080
 BYTE   W03
 BYTE   Fn4  v068
 BYTE   W03
 BYTE   Fn4  v076
 BYTE   W03
 BYTE   Fn4  v064
 BYTE   W01
 BYTE   VOL   0*song09_mvl/mxv
 BYTE   W02
 BYTE   VOL   0*song09_mvl/mxv
 BYTE   N03  Fn4  v068
 BYTE   W02
 BYTE   VOL   0*song09_mvl/mxv
 BYTE   W01
 BYTE   N09  Fn4  v056
 BYTE   W01
 BYTE   VOL   0*song09_mvl/mxv
 BYTE   W02
 BYTE   VOL   0*song09_mvl/mxv
 BYTE   N06  Ds4  v112
 BYTE   W02
 BYTE   VOL   0*song09_mvl/mxv
 BYTE   W02
 BYTE   VOL   0*song09_mvl/mxv
 BYTE   W02
 BYTE   VOL   0*song09_mvl/mxv
 BYTE   N08  Fn4
 BYTE   W02
 BYTE   VOL   0*song09_mvl/mxv
 BYTE   W02
 BYTE   VOL   0*song09_mvl/mxv
 BYTE   W02
//  #01 //001   ----------------------------------------
 BYTE   VOL   0*song09_mvl/mxv
 BYTE   N03  As3  v036
 BYTE   W02
 BYTE   MOD 0
 BYTE   VOL   0*song09_mvl/mxv
 BYTE   N06  Ds4  v127
 BYTE   W01
 BYTE   N03  As3  v032
 BYTE   W03
 BYTE   As3  v044
 BYTE   W02
 BYTE   N06  Fn4  v127
 BYTE   W01
 BYTE   N03  As3  v048
 BYTE   W03
 BYTE   N02  As3  v056
 BYTE   W02
 BYTE   N01  As3  v127
 BYTE   W01
 BYTE   N03  As3  v056
 BYTE   W01
 BYTE   VOL   0*song09_mvl/mxv
 BYTE   W02
 BYTE   VOL   0*song09_mvl/mxv
 BYTE   N03  As3  v068
 BYTE   W02
 BYTE   VOL   0*song09_mvl/mxv
 BYTE   W01
 BYTE   N03
 BYTE   W01
 BYTE   VOL   0*song09_mvl/mxv
 BYTE   W02
 BYTE   VOL   0*song09_mvl/mxv
 BYTE   N03  As3  v080
 BYTE   W02
 BYTE   VOL   0*song09_mvl/mxv
 BYTE   W01
 BYTE   N03  As3  v076
 BYTE   W01
 BYTE   VOL   0*song09_mvl/mxv
 BYTE   W02
 BYTE   VOL   0*song09_mvl/mxv
 BYTE   N03  As3  v088
 BYTE   W02
 BYTE   VOL   0*song09_mvl/mxv
 BYTE   W01
 BYTE   N03  As3  v080
 BYTE   W01
 BYTE   VOL   0*song09_mvl/mxv
 BYTE   W02
 BYTE   VOL   0*song09_mvl/mxv
 BYTE   N03  As3  v088
 BYTE   W02
 BYTE   VOL   0*song09_mvl/mxv
 BYTE   W01
 BYTE   N03  As3  v080
 BYTE   W01
 BYTE   VOL   0*song09_mvl/mxv
 BYTE   W02
 BYTE   VOL   0*song09_mvl/mxv
 BYTE   N03  As3  v088
 BYTE   W02
 BYTE   VOL   0*song09_mvl/mxv
 BYTE   W01
 BYTE   N17  As3  v080
 BYTE   W01
 BYTE   VOL   0*song09_mvl/mxv
 BYTE   W02
 BYTE   VOL   0*song09_mvl/mxv
 BYTE   N03  Cn4  v108
 BYTE   W03
 BYTE   Cn4  v084
 BYTE   W03
 BYTE   Cn4  v088
 BYTE   W03
 BYTE   Cn4  v068
 BYTE   W03
 BYTE   N02  Cn4  v072
 BYTE   W02
 BYTE   N01  Cn4  v124
 BYTE   W01
 BYTE   N03  Cn4  v064
 BYTE   W03
 BYTE   Cn4  v076
 BYTE   W03
 BYTE   N17  Cn4  v068
 BYTE   W03
 BYTE   N03  As3  v052
 BYTE   W03
 BYTE   As3  v044
 BYTE   W03
 BYTE   As3  v048
 BYTE   W03
 BYTE   As3  v036
 BYTE   W03
 BYTE   N02  As3  v040
 BYTE   W02
 BYTE   N01  As3  v080
 BYTE   W01
 BYTE   N03  As3  v036
 BYTE   W03
 BYTE   As3  v044
 BYTE   W03
 BYTE   N17  As3  v036
 BYTE   W01
 BYTE   VOL   0*song09_mvl/mxv
 BYTE   W02
//  #01 //002   ----------------------------------------
 BYTE   VOL   0*song09_mvl/mxv
 BYTE   N03  Fn3  v032
 BYTE   W02
 BYTE   VOL   0*song09_mvl/mxv
 BYTE   W01
 BYTE   N03
 BYTE   W01
 BYTE   VOL   0*song09_mvl/mxv
 BYTE   W02
 BYTE   VOL   0*song09_mvl/mxv
 BYTE   N03  Fn3  v040
 BYTE   W02
 BYTE   VOL   0*song09_mvl/mxv
 BYTE   W01
 BYTE   N03
 BYTE   W01
 BYTE   VOL   0*song09_mvl/mxv
 BYTE   W02
 BYTE   VOL   0*song09_mvl/mxv
 BYTE   N02  Fn3  v052
 BYTE   W02
 BYTE   VOL   0*song09_mvl/mxv
 BYTE   N01  Fn3  v127
 BYTE   W01
 BYTE   N03  Fn3  v048
 BYTE   W01
 BYTE   VOL   0*song09_mvl/mxv
 BYTE   W02
 BYTE   VOL   0*song09_mvl/mxv
 BYTE   N03  Fn3  v056
 BYTE   W02
 BYTE   VOL   0*song09_mvl/mxv
 BYTE   W01
 BYTE   N03  Fn3  v052
 BYTE   W01
 BYTE   VOL   0*song09_mvl/mxv
 BYTE   W02
 BYTE   VOL   0*song09_mvl/mxv
 BYTE   N03  Fn3  v060
 BYTE   W02
 BYTE   VOL   0*song09_mvl/mxv
 BYTE   W01
 BYTE   N03
 BYTE   W01
 BYTE   VOL   0*song09_mvl/mxv
 BYTE   W02
 BYTE   VOL   0*song09_mvl/mxv
 BYTE   N03  Fn3  v068
 BYTE   W02
 BYTE   VOL   0*song09_mvl/mxv
 BYTE   W01
 BYTE   N03  Fn3  v064
 BYTE   W01
 BYTE   MOD 2
 BYTE   VOL   0*song09_mvl/mxv
 BYTE   W02
 BYTE   MOD 2
 BYTE   VOL   0*song09_mvl/mxv
 BYTE   N03  Fn3  v076
 BYTE   W02
 BYTE   MOD 4
 BYTE   VOL   0*song09_mvl/mxv
 BYTE   W01
 BYTE   N03  Fn3  v068
 BYTE   W01
 BYTE   MOD 6
 BYTE   W02
 BYTE   MOD 6
 BYTE   VOL   0*song09_mvl/mxv
 BYTE   N03  Fn3  v080
 BYTE   W02
 BYTE   MOD 8
 BYTE   VOL   0*song09_mvl/mxv
 BYTE   W01
 BYTE   N03  Fn3  v072
 BYTE   W01
 BYTE   VOL   0*song09_mvl/mxv
 BYTE   W02
 BYTE   VOL   0*song09_mvl/mxv
 BYTE   N03  Fn3  v080
 BYTE   W02
 BYTE   VOL   0*song09_mvl/mxv
 BYTE   W01
 BYTE   N03  Fn3  v076
 BYTE   W01
 BYTE   VOL   0*song09_mvl/mxv
 BYTE   W02
 BYTE   VOL   0*song09_mvl/mxv
 BYTE   N03  Fn3  v084
 BYTE   W02
 BYTE   VOL   0*song09_mvl/mxv
 BYTE   W01
 BYTE   N03  Fn3  v076
 BYTE   W01
 BYTE   VOL   0*song09_mvl/mxv
 BYTE   W02
 BYTE   VOL   0*song09_mvl/mxv
 BYTE   N03  Fn3  v084
 BYTE   W02
 BYTE   VOL   0*song09_mvl/mxv
 BYTE   W01
 BYTE   N03  Fn3  v080
 BYTE   W01
 BYTE   VOL   0*song09_mvl/mxv
 BYTE   W02
 BYTE   VOL   0*song09_mvl/mxv
 BYTE   N03  Fn3  v088
 BYTE   W02
 BYTE   VOL   0*song09_mvl/mxv
 BYTE   W01
 BYTE   N03  Fn3  v068
 BYTE   W01
 BYTE   VOL   0*song09_mvl/mxv
 BYTE   W02
 BYTE   VOL   0*song09_mvl/mxv
 BYTE   N03  Fn3  v076
 BYTE   W02
 BYTE   VOL   0*song09_mvl/mxv
 BYTE   W01
 BYTE   N03  Fn3  v064
 BYTE   W01
 BYTE   VOL   0*song09_mvl/mxv
 BYTE   W02
 BYTE   VOL   0*song09_mvl/mxv
 BYTE   N03  Fn3  v072
 BYTE   W03
 BYTE   Fn3  v060
 BYTE   W03
 BYTE   Fn3  v064
 BYTE   W03
 BYTE   Fn3  v056
 BYTE   W03
 BYTE   Fn3  v060
 BYTE   W03
 BYTE   Fn3  v052
 BYTE   W03
//  #01 //003   ----------------------------------------
 BYTE   Fn3  v056
 BYTE   W03
 BYTE   Fn3  v048
 BYTE   W03
 BYTE   Fn3  v056
 BYTE   W03
 BYTE   Fn3  v048
 BYTE   W03
 BYTE   Fn3  v052
 BYTE   W03
 BYTE   Fn3  v044
 BYTE   W03
 BYTE   N03
 BYTE   W03
 BYTE   Fn3  v036
 BYTE   W03
 BYTE   Fn3  v044
 BYTE   W03
 BYTE   Fn3  v032
 BYTE   W03
 BYTE   Fn3  v036
 BYTE   W03
 BYTE   Fn3  v028
 BYTE   W01
 BYTE   VOL   0*song09_mvl/mxv
 BYTE   W02
 BYTE   VOL   0*song09_mvl/mxv
 BYTE   N03  Fn3  v032
 BYTE   W02
 BYTE   VOL   0*song09_mvl/mxv
 BYTE   W01
 BYTE   N03  Fn3  v024
 BYTE   W01
 BYTE   VOL   0*song09_mvl/mxv
 BYTE   W02
 BYTE   VOL   0*song09_mvl/mxv
 BYTE   N03  Fn3  v028
 BYTE   W02
 BYTE   VOL   0*song09_mvl/mxv
 BYTE   W01
 BYTE   N03  Fn3  v020
 BYTE   W01
 BYTE   VOL   0*song09_mvl/mxv
 BYTE   W02
 BYTE   VOL   0*song09_mvl/mxv
 BYTE   N03  Fn3  v024
 BYTE   W02
 BYTE   MOD 8
 BYTE   VOL   0*song09_mvl/mxv
 BYTE   W01
 BYTE   N03  Fn3  v020
 BYTE   W01
 BYTE   MOD 6
 BYTE   VOL   0*song09_mvl/mxv
 BYTE   W02
 BYTE   MOD 6
 BYTE   VOL   0*song09_mvl/mxv
 BYTE   N03  Fn3  v024
 BYTE   W02
 BYTE   MOD 4
 BYTE   VOL   0*song09_mvl/mxv
 BYTE   W01
 BYTE   N03  Fn3  v016
 BYTE   W01
 BYTE   MOD 3
 BYTE   VOL   0*song09_mvl/mxv
 BYTE   W02
 BYTE   MOD 2
 BYTE   VOL   0*song09_mvl/mxv
 BYTE   N03  Fn3  v020
 BYTE   W02
 BYTE   MOD 0
 BYTE   VOL   0*song09_mvl/mxv
 BYTE   W01
 BYTE   N03  Fn3  v016
 BYTE   W01
 BYTE   VOL   0*song09_mvl/mxv
 BYTE   W02
 BYTE   VOL   0*song09_mvl/mxv
 BYTE   N03
 BYTE   W02
 BYTE   VOL   0*song09_mvl/mxv
 BYTE   W01
 BYTE   N03  Fn3  v012
 BYTE   W01
 BYTE   VOL   0*song09_mvl/mxv
 BYTE   W02
 BYTE   VOL   0*song09_mvl/mxv
 BYTE   N14  Fn3  v016
 BYTE   W02
 BYTE   VOL   0*song09_mvl/mxv
 BYTE   W02
 BYTE   VOL   0*song09_mvl/mxv
 BYTE   W02
 BYTE   VOL   0*song09_mvl/mxv
 BYTE   W02
 BYTE   VOL   0*song09_mvl/mxv
 BYTE   W02
 BYTE   VOL   0*song09_mvl/mxv
 BYTE   W02
 BYTE   VOL   0*song09_mvl/mxv
 BYTE   N03  As3  v064
 BYTE   W02
 BYTE   VOL   0*song09_mvl/mxv
 BYTE   W01
 BYTE   N03  Cn4  v060
 BYTE   W03
 BYTE   Cs4  v052
 BYTE   W03
 BYTE   Ds4  v048
 BYTE   W03
//  #01 //004   ----------------------------------------
 BYTE   Fn4  v036
 BYTE   W02
 BYTE   As3  v127
 BYTE   W01
 BYTE   Fn4  v032
 BYTE   W01
 BYTE   VOL   0*song09_mvl/mxv
 BYTE   W01
 BYTE   N03  Cn4  v127
 BYTE   W01
 BYTE   VOL   0*song09_mvl/mxv
 BYTE   N03  Fn4  v044
 BYTE   W02
 BYTE   VOL   0*song09_mvl/mxv
 BYTE   N03  Cs4  v127
 BYTE   W01
 BYTE   Fn4  v048
 BYTE   W01
 BYTE   VOL   0*song09_mvl/mxv
 BYTE   W01
 BYTE   N03  Ds4  v127
 BYTE   W01
 BYTE   VOL   0*song09_mvl/mxv
 BYTE   N02  Fn4  v056
 BYTE   W02
 BYTE   VOL   0*song09_mvl/mxv
 BYTE   N01  Fn4  v127
 BYTE   W01
 BYTE   N03  Fn4  v056
 BYTE   W01
 BYTE   VOL   0*song09_mvl/mxv
 BYTE   W02
 BYTE   VOL   0*song09_mvl/mxv
 BYTE   N03  Fn4  v068
 BYTE   W02
 BYTE   VOL   0*song09_mvl/mxv
 BYTE   W01
 BYTE   N03
 BYTE   W01
 BYTE   VOL   0*song09_mvl/mxv
 BYTE   W02
 BYTE   VOL   0*song09_mvl/mxv
 BYTE   N03  Fn4  v080
 BYTE   W02
 BYTE   VOL   0*song09_mvl/mxv
 BYTE   W01
 BYTE   N03  Fn4  v076
 BYTE   W01
 BYTE   MOD 2
 BYTE   VOL   0*song09_mvl/mxv
 BYTE   W02
 BYTE   MOD 2
 BYTE   VOL   0*song09_mvl/mxv
 BYTE   N03  Fn4  v088
 BYTE   W02
 BYTE   MOD 4
 BYTE   VOL   0*song09_mvl/mxv
 BYTE   W01
 BYTE   N03  Fn4  v080
 BYTE   W01
 BYTE   MOD 6
 BYTE   VOL   0*song09_mvl/mxv
 BYTE   W02
 BYTE   MOD 6
 BYTE   VOL   0*song09_mvl/mxv
 BYTE   N03  Fn4  v088
 BYTE   W02
 BYTE   MOD 8
 BYTE   VOL   0*song09_mvl/mxv
 BYTE   W01
 BYTE   N03  Fn4  v080
 BYTE   W01
 BYTE   VOL   0*song09_mvl/mxv
 BYTE   W02
 BYTE   VOL   0*song09_mvl/mxv
 BYTE   N03  Fn4  v088
 BYTE   W02
 BYTE   VOL   0*song09_mvl/mxv
 BYTE   W01
 BYTE   N03  Fn4  v080
 BYTE   W01
 BYTE   VOL   0*song09_mvl/mxv
 BYTE   W02
 BYTE   VOL   0*song09_mvl/mxv
 BYTE   N03  Fn4  v088
 BYTE   W02
 BYTE   VOL   0*song09_mvl/mxv
 BYTE   W01
 BYTE   N03  Fn4  v080
 BYTE   W03
 BYTE   Fn4  v088
 BYTE   W03
 BYTE   Fn4  v076
 BYTE   W03
 BYTE   Fn4  v084
 BYTE   W03
 BYTE   Fn4  v072
 BYTE   W01
 BYTE   VOL   0*song09_mvl/mxv
 BYTE   W02
 BYTE   VOL   0*song09_mvl/mxv
 BYTE   N03  Fn4  v080
 BYTE   W02
 BYTE   VOL   0*song09_mvl/mxv
 BYTE   W01
 BYTE   N03  Fn4  v068
 BYTE   W01
 BYTE   VOL   0*song09_mvl/mxv
 BYTE   W02
 BYTE   VOL   0*song09_mvl/mxv
 BYTE   N03  Fn4  v076
 BYTE   W02
 BYTE   VOL   0*song09_mvl/mxv
 BYTE   W01
 BYTE   N03  Fn4  v064
 BYTE   W01
 BYTE   VOL   0*song09_mvl/mxv
 BYTE   W02
 BYTE   VOL   0*song09_mvl/mxv
 BYTE   N03  Fn4  v068
 BYTE   W02
 BYTE   VOL   0*song09_mvl/mxv
 BYTE   W01
 BYTE   N09  Fn4  v056
 BYTE   W01
 BYTE   VOL   0*song09_mvl/mxv
 BYTE   W02
 BYTE   VOL   0*song09_mvl/mxv
 BYTE   N06  Ds4  v112
 BYTE   W02
 BYTE   VOL   0*song09_mvl/mxv
 BYTE   W02
 BYTE   VOL   0*song09_mvl/mxv
 BYTE   W02
 BYTE   VOL   0*song09_mvl/mxv
 BYTE   N08  Fn4
 BYTE   W02
 BYTE   VOL   0*song09_mvl/mxv
 BYTE   W02
 BYTE   VOL   0*song09_mvl/mxv
 BYTE   W02
//  #01 //005   ----------------------------------------
 BYTE   VOL   0*song09_mvl/mxv
 BYTE   N03  As3  v036
 BYTE   W02
 BYTE   MOD 0
 BYTE   VOL   0*song09_mvl/mxv
 BYTE   N06  Ds4  v127
 BYTE   W01
 BYTE   N03  As3  v032
 BYTE   W03
 BYTE   As3  v044
 BYTE   W02
 BYTE   N06  Fn4  v127
 BYTE   W01
 BYTE   N03  As3  v048
 BYTE   W03
 BYTE   N02  As3  v056
 BYTE   W02
 BYTE   N01  As3  v127
 BYTE   W01
 BYTE   N03  As3  v056
 BYTE   W01
 BYTE   VOL   0*song09_mvl/mxv
 BYTE   W02
 BYTE   VOL   0*song09_mvl/mxv
 BYTE   N03  As3  v068
 BYTE   W02
 BYTE   VOL   0*song09_mvl/mxv
 BYTE   W01
 BYTE   N03
 BYTE   W01
 BYTE   VOL   0*song09_mvl/mxv
 BYTE   W02
 BYTE   VOL   0*song09_mvl/mxv
 BYTE   N03  As3  v080
 BYTE   W02
 BYTE   VOL   0*song09_mvl/mxv
 BYTE   W01
 BYTE   N03  As3  v076
 BYTE   W01
 BYTE   VOL   0*song09_mvl/mxv
 BYTE   W02
 BYTE   VOL   0*song09_mvl/mxv
 BYTE   N03  As3  v088
 BYTE   W02
 BYTE   VOL   0*song09_mvl/mxv
 BYTE   W01
 BYTE   N03  As3  v080
 BYTE   W01
 BYTE   VOL   0*song09_mvl/mxv
 BYTE   W02
 BYTE   VOL   0*song09_mvl/mxv
 BYTE   N03  As3  v088
 BYTE   W02
 BYTE   VOL   0*song09_mvl/mxv
 BYTE   W01
 BYTE   N03  As3  v080
 BYTE   W01
 BYTE   VOL   0*song09_mvl/mxv
 BYTE   W02
 BYTE   VOL   0*song09_mvl/mxv
 BYTE   N03  As3  v088
 BYTE   W02
 BYTE   VOL   0*song09_mvl/mxv
 BYTE   W01
 BYTE   N17  As3  v080
 BYTE   W01
 BYTE   VOL   0*song09_mvl/mxv
 BYTE   W02
 BYTE   VOL   0*song09_mvl/mxv
 BYTE   N03  Cn4  v108
 BYTE   W03
 BYTE   Cn4  v084
 BYTE   W03
 BYTE   Cn4  v088
 BYTE   W03
 BYTE   Cn4  v068
 BYTE   W03
 BYTE   N02  Cn4  v072
 BYTE   W02
 BYTE   N01  Cn4  v124
 BYTE   W01
 BYTE   N03  Cn4  v064
 BYTE   W03
 BYTE   Cn4  v076
 BYTE   W03
 BYTE   N17  Cn4  v068
 BYTE   W03
 BYTE   N03  As3  v052
 BYTE   W03
 BYTE   As3  v044
 BYTE   W03
 BYTE   As3  v048
 BYTE   W03
 BYTE   As3  v036
 BYTE   W03
 BYTE   N02  As3  v040
 BYTE   W02
 BYTE   N01  As3  v080
 BYTE   W01
 BYTE   N03  As3  v036
 BYTE   W03
 BYTE   As3  v044
 BYTE   W03
 BYTE   N17  As3  v036
 BYTE   W03
//  #01 //006   ----------------------------------------
 BYTE   N03  Fn4  v032
 BYTE   W03
 BYTE   N03
 BYTE   W01
 BYTE   VOL   0*song09_mvl/mxv
 BYTE   W02
 BYTE   VOL   0*song09_mvl/mxv
 BYTE   N03  Fn4  v040
 BYTE   W02
 BYTE   VOL   0*song09_mvl/mxv
 BYTE   W01
 BYTE   N03
 BYTE   W01
 BYTE   VOL   0*song09_mvl/mxv
 BYTE   W02
 BYTE   VOL   0*song09_mvl/mxv
 BYTE   N02  Fn4  v052
 BYTE   W02
 BYTE   VOL   0*song09_mvl/mxv
 BYTE   N01  Fn4  v127
 BYTE   W01
 BYTE   N03  Fn4  v048
 BYTE   W01
 BYTE   VOL   0*song09_mvl/mxv
 BYTE   W02
 BYTE   VOL   0*song09_mvl/mxv
 BYTE   N03  Fn4  v056
 BYTE   W02
 BYTE   VOL   0*song09_mvl/mxv
 BYTE   W01
 BYTE   N03  Fn4  v052
 BYTE   W01
 BYTE   VOL   0*song09_mvl/mxv
 BYTE   W02
 BYTE   VOL   0*song09_mvl/mxv
 BYTE   N03  Fn4  v060
 BYTE   W02
 BYTE   VOL   0*song09_mvl/mxv
 BYTE   W01
 BYTE   N03
 BYTE   W01
 BYTE   MOD 0
 BYTE   VOL   0*song09_mvl/mxv
 BYTE   W02
 BYTE   MOD 2
 BYTE   VOL   0*song09_mvl/mxv
 BYTE   N03  Fn4  v068
 BYTE   W02
 BYTE   MOD 2
 BYTE   VOL   0*song09_mvl/mxv
 BYTE   W01
 BYTE   N03  Fn4  v064
 BYTE   W01
 BYTE   MOD 2
 BYTE   VOL   0*song09_mvl/mxv
 BYTE   W02
 BYTE   MOD 3
 BYTE   VOL   0*song09_mvl/mxv
 BYTE   N03  Fn4  v076
 BYTE   W02
 BYTE   MOD 4
 BYTE   VOL   0*song09_mvl/mxv
 BYTE   W01
 BYTE   N03  Fn4  v068
 BYTE   W01
 BYTE   MOD 4
 BYTE   VOL   0*song09_mvl/mxv
 BYTE   W02
 BYTE   MOD 5
 BYTE   VOL   0*song09_mvl/mxv
 BYTE   N03  Fn4  v080
 BYTE   W02
 BYTE   MOD 6
 BYTE   VOL   0*song09_mvl/mxv
 BYTE   W01
 BYTE   N03  Fn4  v072
 BYTE   W01
 BYTE   MOD 6
 BYTE   VOL   0*song09_mvl/mxv
 BYTE   W02
 BYTE   MOD 8
 BYTE   VOL   0*song09_mvl/mxv
 BYTE   N03  Fn4  v080
 BYTE   W02
 BYTE   VOL   0*song09_mvl/mxv
 BYTE   W01
 BYTE   N03  Fn4  v076
 BYTE   W01
 BYTE   VOL   0*song09_mvl/mxv
 BYTE   W02
 BYTE   VOL   0*song09_mvl/mxv
 BYTE   N03  Fn4  v084
 BYTE   W02
 BYTE   VOL   0*song09_mvl/mxv
 BYTE   W01
 BYTE   N03  Fn4  v076
 BYTE   W01
 BYTE   VOL   0*song09_mvl/mxv
 BYTE   W02
 BYTE   VOL   0*song09_mvl/mxv
 BYTE   N03  Fn4  v084
 BYTE   W02
 BYTE   VOL   0*song09_mvl/mxv
 BYTE   W01
 BYTE   N03  Fn4  v080
 BYTE   W01
 BYTE   VOL   0*song09_mvl/mxv
 BYTE   W02
 BYTE   VOL   0*song09_mvl/mxv
 BYTE   N03  Fn4  v088
 BYTE   W02
 BYTE   VOL   0*song09_mvl/mxv
 BYTE   W01
 BYTE   N03  Fn4  v068
 BYTE   W01
 BYTE   VOL   0*song09_mvl/mxv
 BYTE   W02
 BYTE   VOL   0*song09_mvl/mxv
 BYTE   N03  Fn4  v076
 BYTE   W02
 BYTE   VOL   0*song09_mvl/mxv
 BYTE   W01
 BYTE   N03  Fn4  v064
 BYTE   W03
 BYTE   Fn4  v072
 BYTE   W03
 BYTE   Fn4  v060
 BYTE   W03
 BYTE   Fn4  v064
 BYTE   W03
 BYTE   Fn4  v056
 BYTE   W03
 BYTE   Fn4  v060
 BYTE   W03
 BYTE   Fn4  v052
 BYTE   W03
//  #01 //007   ----------------------------------------
 BYTE   Fn4  v056
 BYTE   W03
 BYTE   Fn4  v048
 BYTE   W03
 BYTE   Fn4  v056
 BYTE   W02
 BYTE   MOD 8
 BYTE   W01
 BYTE   N03  Fn4  v048
 BYTE   W01
 BYTE   MOD 8
 BYTE   W02
 BYTE   MOD 7
 BYTE   VOL   0*song09_mvl/mxv
 BYTE   N03  Fn4  v052
 BYTE   W02
 BYTE   MOD 6
 BYTE   VOL   0*song09_mvl/mxv
 BYTE   W01
 BYTE   N03  Fn4  v044
 BYTE   W01
 BYTE   MOD 6
 BYTE   VOL   0*song09_mvl/mxv
 BYTE   W02
 BYTE   MOD 6
 BYTE   VOL   0*song09_mvl/mxv
 BYTE   N03
 BYTE   W02
 BYTE   MOD 5
 BYTE   VOL   0*song09_mvl/mxv
 BYTE   W01
 BYTE   N03  Fn4  v036
 BYTE   W01
 BYTE   MOD 4
 BYTE   VOL   0*song09_mvl/mxv
 BYTE   W02
 BYTE   VOL   0*song09_mvl/mxv
 BYTE   N03  Fn4  v044
 BYTE   W02
 BYTE   MOD 4
 BYTE   VOL   0*song09_mvl/mxv
 BYTE   W01
 BYTE   N03  Fn4  v032
 BYTE   W01
 BYTE   MOD 4
 BYTE   VOL   0*song09_mvl/mxv
 BYTE   W02
 BYTE   MOD 3
 BYTE   VOL   0*song09_mvl/mxv
 BYTE   N03  Fn4  v036
 BYTE   W02
 BYTE   MOD 2
 BYTE   VOL   0*song09_mvl/mxv
 BYTE   W01
 BYTE   N03  Fn4  v028
 BYTE   W01
 BYTE   MOD 2
 BYTE   VOL   0*song09_mvl/mxv
 BYTE   W02
 BYTE   MOD 2
 BYTE   VOL   0*song09_mvl/mxv
 BYTE   N03  Fn4  v032
 BYTE   W02
 BYTE   MOD 1
 BYTE   VOL   0*song09_mvl/mxv
 BYTE   W01
 BYTE   N03  Fn4  v024
 BYTE   W01
 BYTE   MOD 0
 BYTE   VOL   0*song09_mvl/mxv
 BYTE   W02
 BYTE   MOD 0
 BYTE   VOL   0*song09_mvl/mxv
 BYTE   N03  Fn4  v028
 BYTE   W02
 BYTE   VOL   0*song09_mvl/mxv
 BYTE   W01
 BYTE   N03  Fn4  v020
 BYTE   W01
 BYTE   VOL   0*song09_mvl/mxv
 BYTE   W02
 BYTE   VOL   0*song09_mvl/mxv
 BYTE   N03  Fn4  v024
 BYTE   W02
 BYTE   VOL   0*song09_mvl/mxv
 BYTE   W01
 BYTE   N03  Fn4  v020
 BYTE   W01
 BYTE   VOL   0*song09_mvl/mxv
 BYTE   W02
 BYTE   VOL   0*song09_mvl/mxv
 BYTE   N03  Fn4  v024
 BYTE   W02
 BYTE   VOL   0*song09_mvl/mxv
 BYTE   W01
 BYTE   N03  Fn4  v016
 BYTE   W01
 BYTE   VOL   0*song09_mvl/mxv
 BYTE   W02
 BYTE   VOL   0*song09_mvl/mxv
 BYTE   N03  Fn4  v020
 BYTE   W02
 BYTE   VOL   0*song09_mvl/mxv
 BYTE   W01
 BYTE   N03  Fn4  v016
 BYTE   W01
 BYTE   VOL   0*song09_mvl/mxv
 BYTE   W02
 BYTE   VOL   0*song09_mvl/mxv
 BYTE   N03
 BYTE   W02
 BYTE   VOL   0*song09_mvl/mxv
 BYTE   W01
 BYTE   N03  Fn4  v012
 BYTE   W01
 BYTE   VOL   0*song09_mvl/mxv
 BYTE   W02
 BYTE   VOL   0*song09_mvl/mxv
 BYTE   N03  Fn4  v016
 BYTE   W02
 BYTE   VOL   0*song09_mvl/mxv
 BYTE   W01
 BYTE   N03  Fn4  v012
 BYTE   W01
 BYTE   VOL   0*song09_mvl/mxv
 BYTE   W02
 BYTE   VOL   0*song09_mvl/mxv
 BYTE   N03
 BYTE   W02
 BYTE   VOL   0*song09_mvl/mxv
 BYTE   W01
 BYTE   N03  Fn4  v008
 BYTE   W01
 BYTE   VOL   0*song09_mvl/mxv
 BYTE   W01
 BYTE   VOICE   49
 BYTE   PAN   c_v+24
 BYTE   VOL   0*song09_mvl/mxv
 BYTE   BEND   c_v-4
 BYTE   W01
 BYTE   VOL   0*song09_mvl/mxv
 BYTE   N24  As2  v127
 BYTE   N03  Fn4  v012
 BYTE   W03
 BYTE   VOL   0*song09_mvl/mxv
 BYTE   N03  Fn4  v008
 BYTE   W03
 BYTE   VOL   0*song09_mvl/mxv
 BYTE   W03
 BYTE   VOL   0*song09_mvl/mxv
 BYTE   W03
//  #01 //008   ----------------------------------------
 BYTE   VOL   0*song09_mvl/mxv
 BYTE   W12
 BYTE   N84  As3  v127
 BYTE   W84
//  #01 //009   ----------------------------------------
 BYTE   N06  Gs3
 BYTE   W06
 BYTE   As3
 BYTE   W06
 BYTE   N54  Cn4
 BYTE   W60
 BYTE   N12  Gs3
 BYTE   W18
 BYTE   N18  Ds3
 BYTE   W06
//  #01 //010   ----------------------------------------
 BYTE   W12
 BYTE   TIE  Fn3
 BYTE   W64
 BYTE   VOL   0*song09_mvl/mxv
 BYTE   W07
 BYTE   VOL   0*song09_mvl/mxv
 BYTE   W06
 BYTE   VOL   0*song09_mvl/mxv
 BYTE   W07
//  #01 //011   ----------------------------------------
 BYTE   VOL   0*song09_mvl/mxv
 BYTE   W06
 BYTE   VOL   0*song09_mvl/mxv
 BYTE   W07
 BYTE   VOL   0*song09_mvl/mxv
 BYTE   W06
 BYTE   VOL   0*song09_mvl/mxv
 BYTE   W07
 BYTE   VOL   0*song09_mvl/mxv
 BYTE   W07
 BYTE   VOL   0*song09_mvl/mxv
 BYTE   W07
 BYTE   VOL   0*song09_mvl/mxv
 BYTE   W06
 BYTE   VOL   0*song09_mvl/mxv
 BYTE   W07
 BYTE   VOL   0*song09_mvl/mxv
 BYTE   W06
 BYTE   VOL   0*song09_mvl/mxv
 BYTE   W07
 BYTE   VOL   0*song09_mvl/mxv
 BYTE   W06
 BYTE   EOT
 BYTE   VOL   0*song09_mvl/mxv
 BYTE   W07
 BYTE   VOL   0*song09_mvl/mxv
 BYTE   W06
 BYTE   VOL   0*song09_mvl/mxv
 BYTE   W11
//  #01 //012   ----------------------------------------
 BYTE   VOL   0*song09_mvl/mxv
 BYTE   N06  As2
 BYTE   W06
 BYTE   Cs3
 BYTE   W06
 BYTE   N96  Ds3
 BYTE   W84
//  #01 //013   ----------------------------------------
 BYTE   W12
 BYTE   N72  Fn3
 BYTE   W72
 BYTE   N24  Gs3
 BYTE   W12
//  #01 //014   ----------------------------------------
 BYTE   W12
 BYTE   N84  As3
 BYTE   W84
//  #01 //015   ----------------------------------------
 BYTE   N06  Gs3
 BYTE   W06
 BYTE   As3
 BYTE   W06
 BYTE   N36  Cn4
 BYTE   W15
 BYTE   VOL   0*song09_mvl/mxv
 BYTE   W03
 BYTE   VOL   0*song09_mvl/mxv
 BYTE   W03
 BYTE   VOL   0*song09_mvl/mxv
 BYTE   W03
 BYTE   VOL   0*song09_mvl/mxv
 BYTE   W03
 BYTE   VOL   0*song09_mvl/mxv
 BYTE   W03
 BYTE   VOL   0*song09_mvl/mxv
 BYTE   W03
 BYTE   VOL   0*song09_mvl/mxv
 BYTE   W03
 BYTE   VOL   0*song09_mvl/mxv
 BYTE   W12
 BYTE   VOICE   40
 BYTE   VOL   0*song09_mvl/mxv
 BYTE   N12  Ds5
 BYTE   W18
 BYTE   Cn5
 BYTE   W18
//  #01 //016   ----------------------------------------
 BYTE   Gs4
 BYTE   N03  As4  v044
 BYTE   W03
 BYTE   N03
 BYTE   W03
 BYTE   As4  v056
 BYTE   W03
 BYTE   N03
 BYTE   W03
 BYTE   N02  As4  v072
 BYTE   W01
 BYTE   VOICE   75
 BYTE   PAN   c_v+32
 BYTE   VOL   0*song09_mvl/mxv
 BYTE   BEND   c_v-2
 BYTE   W01
 BYTE   VOL   0*song09_mvl/mxv
 BYTE   N01  As4  v127
 BYTE   W01
 BYTE   N03  As4  v068
 BYTE   W01
 BYTE   VOL   0*song09_mvl/mxv
 BYTE   W02
 BYTE   VOL   0*song09_mvl/mxv
 BYTE   N03  As4  v084
 BYTE   W02
 BYTE   VOL   0*song09_mvl/mxv
 BYTE   W01
 BYTE   N03
 BYTE   W01
 BYTE   VOL   0*song09_mvl/mxv
 BYTE   W02
 BYTE   VOL   0*song09_mvl/mxv
 BYTE   N03  As4  v100
 BYTE   W02
 BYTE   VOL   0*song09_mvl/mxv
 BYTE   W01
 BYTE   N03  As4  v092
 BYTE   W01
 BYTE   VOL   0*song09_mvl/mxv
 BYTE   W02
 BYTE   VOL   0*song09_mvl/mxv
 BYTE   N03  As4  v108
 BYTE   W02
 BYTE   VOL   0*song09_mvl/mxv
 BYTE   W01
 BYTE   N03  As4  v100
 BYTE   W01
 BYTE   VOL   0*song09_mvl/mxv
 BYTE   W02
 BYTE   VOL   0*song09_mvl/mxv
 BYTE   N03  As4  v112
 BYTE   W02
 BYTE   VOL   0*song09_mvl/mxv
 BYTE   W01
 BYTE   N03  As4  v100
 BYTE   W01
 BYTE   VOL   0*song09_mvl/mxv
 BYTE   W02
 BYTE   MOD 0
 BYTE   VOL   0*song09_mvl/mxv
 BYTE   N03  As4  v112
 BYTE   W02
 BYTE   MOD 1
 BYTE   VOL   0*song09_mvl/mxv
 BYTE   W01
 BYTE   N03  As4  v100
 BYTE   W01
 BYTE   MOD 2
 BYTE   VOL   0*song09_mvl/mxv
 BYTE   W02
 BYTE   MOD 2
 BYTE   VOL   0*song09_mvl/mxv
 BYTE   N03  As4  v112
 BYTE   W02
 BYTE   MOD 3
 BYTE   VOL   0*song09_mvl/mxv
 BYTE   W01
 BYTE   N03  As4  v100
 BYTE   W01
 BYTE   MOD 4
 BYTE   VOL   0*song09_mvl/mxv
 BYTE   W02
 BYTE   MOD 4
 BYTE   VOL   0*song09_mvl/mxv
 BYTE   N03  As4  v108
 BYTE   W02
 BYTE   MOD 5
 BYTE   VOL   0*song09_mvl/mxv
 BYTE   W01
 BYTE   N03  As4  v096
 BYTE   W01
 BYTE   MOD 6
 BYTE   VOL   0*song09_mvl/mxv
 BYTE   W02
 BYTE   MOD 6
 BYTE   VOL   0*song09_mvl/mxv
 BYTE   N03  As4  v104
 BYTE   W02
 BYTE   MOD 6
 BYTE   VOL   0*song09_mvl/mxv
 BYTE   W01
 BYTE   N03  As4  v092
 BYTE   W01
 BYTE   MOD 8
 BYTE   W02
 BYTE   MOD 8
 BYTE   VOL   0*song09_mvl/mxv
 BYTE   N03  As4  v100
 BYTE   W02
 BYTE   MOD 8
 BYTE   VOL   0*song09_mvl/mxv
 BYTE   W01
 BYTE   N03  As4  v088
 BYTE   W01
 BYTE   MOD 9
 BYTE   VOL   0*song09_mvl/mxv
 BYTE   W02
 BYTE   MOD 10
 BYTE   VOL   0*song09_mvl/mxv
 BYTE   N03  As4  v092
 BYTE   W02
 BYTE   MOD 10
 BYTE   W01
 BYTE   N03  As4  v080
 BYTE   W03
 BYTE   As4  v084
 BYTE   W03
 BYTE   As4  v068
 BYTE   W03
 BYTE   As4  v076
 BYTE   W03
 BYTE   As4  v064
 BYTE   W03
 BYTE   As4  v068
 BYTE   W03
 BYTE   As4  v056
 BYTE   W03
//  #01 //017   ----------------------------------------
 BYTE   N03
 BYTE   W03
 BYTE   As4  v044
 BYTE   W03
 BYTE   N03
 BYTE   W03
 BYTE   As4  v028
 BYTE   W03
 BYTE   As4  v024
 BYTE   W03
 BYTE   As4  v016
 BYTE   W03
 BYTE   As4  v012
 BYTE   W03
 BYTE   N17  As4  v004
 BYTE   W15
 BYTE   N06  Gs4  v112
 BYTE   W02
 BYTE   MOD 0
 BYTE   W04
 BYTE   N06  As4
 BYTE   W06
 BYTE   N02  Gs4  v092
 BYTE   W02
 BYTE   N01  Gs4  v127
 BYTE   W01
 BYTE   N03  Gs4  v084
 BYTE   W03
 BYTE   Gs4  v088
 BYTE   W02
 BYTE   N06  As4  v127
 BYTE   W01
 BYTE   N03  Gs4  v068
 BYTE   W03
 BYTE   N02  Gs4  v036
 BYTE   W02
 BYTE   N01  Gs4  v127
 BYTE   W01
 BYTE   N11  Gs4  v028
 BYTE   W03
 BYTE   N03  Fn4  v092
 BYTE   W03
 BYTE   Fn4  v084
 BYTE   W03
 BYTE   Fn4  v088
 BYTE   W03
 BYTE   Fn4  v068
 BYTE   W03
 BYTE   N02  Fn4  v036
 BYTE   W02
 BYTE   N01  Fn4  v127
 BYTE   W01
 BYTE   N11  Fn4  v028
 BYTE   W03
 BYTE   N12  Ds4  v112
 BYTE   W12
//  #01 //018   ----------------------------------------
 BYTE   N03  Fn4  v036
 BYTE   W02
 BYTE   N12  Ds4  v127
 BYTE   W01
 BYTE   N03  Fn4  v048
 BYTE   W03
 BYTE   N03
 BYTE   W03
 BYTE   Fn4  v064
 BYTE   W03
 BYTE   N02  Fn4  v060
 BYTE   W02
 BYTE   N01  Fn4  v127
 BYTE   W01
 BYTE   N03  Fn4  v068
 BYTE   W03
 BYTE   N03
 BYTE   W03
 BYTE   Fn4  v076
 BYTE   W03
 BYTE   Fn4  v072
 BYTE   W03
 BYTE   Fn4  v084
 BYTE   W03
 BYTE   Fn4  v080
 BYTE   W03
 BYTE   Fn4  v092
 BYTE   W03
 BYTE   Fn4  v088
 BYTE   W03
 BYTE   Fn4  v100
 BYTE   W03
 BYTE   Fn4  v088
 BYTE   W03
 BYTE   Fn4  v100
 BYTE   W03
 BYTE   Fn4  v092
 BYTE   W03
 BYTE   Fn4  v104
 BYTE   W03
 BYTE   Fn4  v096
 BYTE   W03
 BYTE   Fn4  v108
 BYTE   W03
 BYTE   Fn4  v100
 BYTE   W03
 BYTE   Fn4  v108
 BYTE   W03
 BYTE   Fn4  v100
 BYTE   W03
 BYTE   Fn4  v112
 BYTE   W03
 BYTE   Fn4  v100
 BYTE   W03
 BYTE   Fn4  v112
 BYTE   W03
 BYTE   Fn4  v100
 BYTE   W03
 BYTE   Fn4  v112
 BYTE   W03
 BYTE   Fn4  v100
 BYTE   W03
 BYTE   Fn4  v112
 BYTE   W03
 BYTE   Fn4  v100
 BYTE   W03
 BYTE   Fn4  v112
 BYTE   W03
//  #01 //019   ----------------------------------------
 BYTE   MOD 0
 BYTE   N03  Fn4  v100
 BYTE   W02
 BYTE   MOD 1
 BYTE   W01
 BYTE   N03  Fn4  v108
 BYTE   W01
 BYTE   MOD 2
 BYTE   W02
 BYTE   MOD 2
 BYTE   N03  Fn4  v096
 BYTE   W02
 BYTE   MOD 3
 BYTE   W01
 BYTE   N03  Fn4  v112
 BYTE   W01
 BYTE   MOD 4
 BYTE   W02
 BYTE   MOD 4
 BYTE   N03  Fn4  v100
 BYTE   W02
 BYTE   MOD 5
 BYTE   W01
 BYTE   N03  Fn4  v108
 BYTE   W01
 BYTE   MOD 6
 BYTE   W02
 BYTE   MOD 6
 BYTE   N03  Fn4  v092
 BYTE   W02
 BYTE   MOD 6
 BYTE   W01
 BYTE   N03  Fn4  v104
 BYTE   W01
 BYTE   MOD 8
 BYTE   W02
 BYTE   MOD 8
 BYTE   N03  Fn4  v092
 BYTE   W02
 BYTE   MOD 8
 BYTE   W01
 BYTE   N03  Fn4  v100
 BYTE   W01
 BYTE   MOD 9
 BYTE   W02
 BYTE   MOD 10
 BYTE   N03  Fn4  v088
 BYTE   W02
 BYTE   MOD 10
 BYTE   W01
 BYTE   N03  Fn4  v092
 BYTE   W03
 BYTE   Fn4  v076
 BYTE   W03
 BYTE   Fn4  v080
 BYTE   W03
 BYTE   Fn4  v068
 BYTE   W03
 BYTE   Fn4  v072
 BYTE   W03
 BYTE   Fn4  v060
 BYTE   W03
 BYTE   Fn4  v064
 BYTE   W03
 BYTE   Fn4  v052
 BYTE   W03
 BYTE   Fn4  v032
 BYTE   W03
 BYTE   Fn4  v028
 BYTE   W03
 BYTE   Fn4  v024
 BYTE   W03
 BYTE   N20  Fn4  v020
 BYTE   W08
 BYTE   MOD 11
 BYTE   W02
 BYTE   MOD 9
 BYTE   W02
 BYTE   MOD 8
 BYTE   W02
 BYTE   MOD 6
 BYTE   W02
 BYTE   MOD 4
 BYTE   W02
 BYTE   MOD 2
 BYTE   N06  As3  v112
 BYTE   W02
 BYTE   MOD 0
 BYTE   W04
 BYTE   N06  Cs4
 BYTE   W06
//  #01 //020   ----------------------------------------
 BYTE   N03  Ds4  v036
 BYTE   W02
 BYTE   N06  As3  v127
 BYTE   W01
 BYTE   N03  Ds4  v032
 BYTE   W03
 BYTE   Ds4  v044
 BYTE   W02
 BYTE   N06  Cs4  v127
 BYTE   W01
 BYTE   N03  Ds4  v048
 BYTE   W03
 BYTE   N02  Ds4  v056
 BYTE   W02
 BYTE   N01  Ds4  v127
 BYTE   W01
 BYTE   N03  Ds4  v056
 BYTE   W03
 BYTE   Ds4  v068
 BYTE   W03
 BYTE   N03
 BYTE   W03
 BYTE   Ds4  v080
 BYTE   W03
 BYTE   Ds4  v076
 BYTE   W03
 BYTE   Ds4  v088
 BYTE   W03
 BYTE   Ds4  v080
 BYTE   W03
 BYTE   Ds4  v088
 BYTE   W03
 BYTE   Ds4  v080
 BYTE   W03
 BYTE   Ds4  v088
 BYTE   W03
 BYTE   Ds4  v080
 BYTE   W03
 BYTE   Ds4  v088
 BYTE   W03
 BYTE   Ds4  v080
 BYTE   W03
 BYTE   Ds4  v088
 BYTE   W03
 BYTE   Ds4  v076
 BYTE   W03
 BYTE   Ds4  v084
 BYTE   W03
 BYTE   Ds4  v072
 BYTE   W03
 BYTE   Ds4  v080
 BYTE   W03
 BYTE   Ds4  v064
 BYTE   W03
 BYTE   N03
 BYTE   W03
 BYTE   Ds4  v052
 BYTE   W03
 BYTE   N03
 BYTE   W03
 BYTE   Ds4  v040
 BYTE   W03
 BYTE   N03
 BYTE   W03
 BYTE   Ds4  v028
 BYTE   W03
 BYTE   N03
 BYTE   W03
 BYTE   N17  Ds4  v016
 BYTE   W03
//  #01 //021   ----------------------------------------
 BYTE   N03  Fn4  v048
 BYTE   W03
 BYTE   N03
 BYTE   W03
 BYTE   Fn4  v056
 BYTE   W03
 BYTE   N03
 BYTE   W03
 BYTE   N02  Fn4  v068
 BYTE   W02
 BYTE   N01  Fn4  v127
 BYTE   W01
 BYTE   N03  Fn4  v068
 BYTE   W03
 BYTE   Fn4  v080
 BYTE   W03
 BYTE   Fn4  v072
 BYTE   W03
 BYTE   Fn4  v084
 BYTE   W03
 BYTE   Fn4  v080
 BYTE   W03
 BYTE   Fn4  v088
 BYTE   W03
 BYTE   Fn4  v076
 BYTE   W03
 BYTE   Fn4  v080
 BYTE   W03
 BYTE   Fn4  v068
 BYTE   W03
 BYTE   Fn4  v060
 BYTE   W03
 BYTE   Fn4  v044
 BYTE   W03
 BYTE   Fn4  v040
 BYTE   W03
 BYTE   Fn4  v024
 BYTE   W03
 BYTE   Fn4  v020
 BYTE   W03
 BYTE   N17  Fn4  v008
 BYTE   W15
 BYTE   N03  Gs4  v068
 BYTE   W14
 BYTE   N24  Gs4  v127
 BYTE   W10
//  #01 //022   ----------------------------------------
 BYTE   N03  As4  v036
 BYTE   W03
 BYTE   As4  v032
 BYTE   W01
 BYTE   VOL   0*song09_mvl/mxv
 BYTE   W02
 BYTE   VOL   0*song09_mvl/mxv
 BYTE   N03  As4  v044
 BYTE   W02
 BYTE   VOL   0*song09_mvl/mxv
 BYTE   W01
 BYTE   N03  As4  v048
 BYTE   W01
 BYTE   VOL   0*song09_mvl/mxv
 BYTE   W02
 BYTE   VOL   0*song09_mvl/mxv
 BYTE   N03  As4  v056
 BYTE   W02
 BYTE   VOL   0*song09_mvl/mxv
 BYTE   W01
 BYTE   N01
 BYTE   W01
 BYTE   VOL   0*song09_mvl/mxv
 BYTE   N02  As4  v127
 BYTE   W02
 BYTE   VOL   0*song09_mvl/mxv
 BYTE   N03  As4  v068
 BYTE   W02
 BYTE   VOL   0*song09_mvl/mxv
 BYTE   W01
 BYTE   N03
 BYTE   W01
 BYTE   VOL   0*song09_mvl/mxv
 BYTE   W02
 BYTE   VOL   0*song09_mvl/mxv
 BYTE   N03  As4  v080
 BYTE   W02
 BYTE   VOL   0*song09_mvl/mxv
 BYTE   W01
 BYTE   N03  As4  v076
 BYTE   W01
 BYTE   VOL   0*song09_mvl/mxv
 BYTE   W02
 BYTE   VOL   0*song09_mvl/mxv
 BYTE   N03  As4  v088
 BYTE   W02
 BYTE   VOL   0*song09_mvl/mxv
 BYTE   W01
 BYTE   N03  As4  v080
 BYTE   W03
 BYTE   As4  v088
 BYTE   W03
 BYTE   As4  v080
 BYTE   W03
 BYTE   As4  v088
 BYTE   W03
 BYTE   As4  v080
 BYTE   W03
 BYTE   MOD 0
 BYTE   N03  As4  v088
 BYTE   W02
 BYTE   MOD 1
 BYTE   W01
 BYTE   N03  As4  v080
 BYTE   W01
 BYTE   MOD 2
 BYTE   W02
 BYTE   MOD 2
 BYTE   N03  As4  v088
 BYTE   W02
 BYTE   MOD 3
 BYTE   W01
 BYTE   N03  As4  v076
 BYTE   W01
 BYTE   MOD 4
 BYTE   W02
 BYTE   MOD 4
 BYTE   N03  As4  v084
 BYTE   W02
 BYTE   MOD 5
 BYTE   W01
 BYTE   N03  As4  v072
 BYTE   W01
 BYTE   MOD 6
 BYTE   W02
 BYTE   MOD 6
 BYTE   N03  As4  v080
 BYTE   W02
 BYTE   MOD 6
 BYTE   W01
 BYTE   N03  As4  v068
 BYTE   W01
 BYTE   MOD 8
 BYTE   W02
 BYTE   MOD 8
 BYTE   N03  As4  v076
 BYTE   W02
 BYTE   MOD 8
 BYTE   W01
 BYTE   N03  As4  v064
 BYTE   W01
 BYTE   MOD 9
 BYTE   W02
 BYTE   MOD 10
 BYTE   N03  As4  v068
 BYTE   W02
 BYTE   MOD 10
 BYTE   W01
 BYTE   N03  As4  v056
 BYTE   W03
 BYTE   As4  v060
 BYTE   W03
 BYTE   As4  v052
 BYTE   W03
 BYTE   As4  v056
 BYTE   W03
 BYTE   As4  v044
 BYTE   W03
//  #01 //023   ----------------------------------------
 BYTE   N03
 BYTE   W03
 BYTE   As4  v032
 BYTE   W03
 BYTE   N03
 BYTE   W03
 BYTE   As4  v020
 BYTE   W03
 BYTE   N03
 BYTE   W03
 BYTE   As4  v012
 BYTE   W03
 BYTE   N03
 BYTE   W03
 BYTE   N17  As4  v004
 BYTE   W40
 BYTE   W01
 BYTE   MOD 0
 BYTE   N24  Gs4  v127
 BYTE   W11
 BYTE   BEND   c_v+0
 BYTE   W01
 BYTE   BEND   c_v-2
 BYTE   W01
 BYTE   BEND   c_v-3
 BYTE   W01
 BYTE   BEND   c_v-4
 BYTE   W01
 BYTE   BEND   c_v-6
 BYTE   W01
 BYTE   BEND   c_v-6
 BYTE   W01
 BYTE   BEND   c_v-8
 BYTE   W01
 BYTE   BEND   c_v-9
 BYTE   W01
 BYTE   BEND   c_v-11
 BYTE   W01
 BYTE   BEND   c_v-12
 BYTE   W01
 BYTE   BEND   c_v-14
 BYTE   W01
 BYTE   BEND   c_v-17
 BYTE   W01
 BYTE   BEND   c_v-21
 BYTE   W01
 BYTE   BEND   c_v-2
 BYTE   N24  Fn4
 BYTE   W10
//  #01 //024   ----------------------------------------
 BYTE   W04
 BYTE   VOL   0*song09_mvl/mxv
 BYTE   W02
 BYTE   VOL   0*song09_mvl/mxv
 BYTE   W02
 BYTE   VOL   0*song09_mvl/mxv
 BYTE   W02
 BYTE   VOL   0*song09_mvl/mxv
 BYTE   W02
 BYTE   VOL   0*song09_mvl/mxv
 BYTE   W01
 BYTE   BEND   c_v-11
 BYTE   W01
 BYTE   VOL   0*song09_mvl/mxv
 BYTE   TIE  As4
 BYTE   W01
 BYTE   BEND   c_v-9
 BYTE   W01
 BYTE   VOL   0*song09_mvl/mxv
 BYTE   W01
 BYTE   BEND   c_v-9
 BYTE   W01
 BYTE   VOL   0*song09_mvl/mxv
 BYTE   BEND   c_v-8
 BYTE   W01
 BYTE   BEND   c_v-7
 BYTE   W01
 BYTE   VOL   0*song09_mvl/mxv
 BYTE   W01
 BYTE   BEND   c_v-6
 BYTE   W01
 BYTE   MOD 0
 BYTE   VOL   0*song09_mvl/mxv
 BYTE   W01
 BYTE   BEND   c_v-6
 BYTE   W01
 BYTE   MOD 1
 BYTE   VOL   0*song09_mvl/mxv
 BYTE   BEND   c_v-4
 BYTE   W02
 BYTE   MOD 2
 BYTE   VOL   0*song09_mvl/mxv
 BYTE   BEND   c_v-4
 BYTE   W01
 BYTE   BEND   c_v-3
 BYTE   W01
 BYTE   MOD 2
 BYTE   VOL   0*song09_mvl/mxv
 BYTE   BEND   c_v-2
 BYTE   W02
 BYTE   MOD 3
 BYTE   VOL   0*song09_mvl/mxv
 BYTE   W02
 BYTE   MOD 4
 BYTE   VOL   0*song09_mvl/mxv
 BYTE   W02
 BYTE   MOD 4
 BYTE   VOL   0*song09_mvl/mxv
 BYTE   W02
 BYTE   MOD 4
 BYTE   VOL   0*song09_mvl/mxv
 BYTE   W02
 BYTE   MOD 5
 BYTE   VOL   0*song09_mvl/mxv
 BYTE   W02
 BYTE   MOD 6
 BYTE   W02
 BYTE   MOD 6
 BYTE   W02
 BYTE   MOD 7
 BYTE   W02
 BYTE   MOD 8
 BYTE   W02
 BYTE   MOD 8
 BYTE   W02
 BYTE   MOD 8
 BYTE   W02
 BYTE   MOD 9
 BYTE   W02
 BYTE   MOD 10
 BYTE   W02
 BYTE   MOD 10
 BYTE   W02
 BYTE   MOD 11
 BYTE   W02
 BYTE   MOD 12
 BYTE   W04
 BYTE   MOD 12
 BYTE   W02
 BYTE   MOD 14
 BYTE   W02
 BYTE   MOD 14
 BYTE   W02
 BYTE   MOD 14
 BYTE   W02
 BYTE   MOD 15
 BYTE   W02
 BYTE   MOD 16
 BYTE   W14
 BYTE   VOL   0*song09_mvl/mxv
 BYTE   W02
 BYTE   VOL   0*song09_mvl/mxv
 BYTE   W02
 BYTE   VOL   0*song09_mvl/mxv
 BYTE   W02
 BYTE   VOL   0*song09_mvl/mxv
 BYTE   W02
//  #01 //025   ----------------------------------------
 BYTE   VOL   0*song09_mvl/mxv
 BYTE   W04
 BYTE   VOL   0*song09_mvl/mxv
 BYTE   W02
 BYTE   VOL   0*song09_mvl/mxv
 BYTE   W02
 BYTE   VOL   0*song09_mvl/mxv
 BYTE   W02
 BYTE   VOL   0*song09_mvl/mxv
 BYTE   W04
 BYTE   VOL   0*song09_mvl/mxv
 BYTE   W02
 BYTE   VOL   0*song09_mvl/mxv
 BYTE   W02
 BYTE   VOL   0*song09_mvl/mxv
 BYTE   W02
 BYTE   VOL   0*song09_mvl/mxv
 BYTE   W02
 BYTE   VOL   0*song09_mvl/mxv
 BYTE   W02
 BYTE   VOL   0*song09_mvl/mxv
 BYTE   W02
 BYTE   VOL   0*song09_mvl/mxv
 BYTE   W02
 BYTE   VOL   0*song09_mvl/mxv
 BYTE   W02
 BYTE   VOL   0*song09_mvl/mxv
 BYTE   W02
 BYTE   VOL   0*song09_mvl/mxv
 BYTE   W02
 BYTE   VOL   0*song09_mvl/mxv
 BYTE   W02
 BYTE   VOL   0*song09_mvl/mxv
 BYTE   W02
 BYTE   VOL   0*song09_mvl/mxv
 BYTE   W02
 BYTE   VOL   0*song09_mvl/mxv
 BYTE   W02
 BYTE   VOL   0*song09_mvl/mxv
 BYTE   W02
 BYTE   VOL   0*song09_mvl/mxv
 BYTE   W02
 BYTE   VOL   0*song09_mvl/mxv
 BYTE   W02
 BYTE   VOL   0*song09_mvl/mxv
 BYTE   W02
 BYTE   VOL   0*song09_mvl/mxv
 BYTE   W02
 BYTE   MOD 13
 BYTE   VOL   0*song09_mvl/mxv
 BYTE   W02
 BYTE   MOD 10
 BYTE   VOL   0*song09_mvl/mxv
 BYTE   W02
 BYTE   MOD 8
 BYTE   VOL   0*song09_mvl/mxv
 BYTE   W02
 BYTE   MOD 5
 BYTE   VOL   0*song09_mvl/mxv
 BYTE   W02
 BYTE   MOD 2
 BYTE   VOL   0*song09_mvl/mxv
 BYTE   W02
 BYTE   EOT
 BYTE   MOD 0
 BYTE   VOL   0*song09_mvl/mxv
 BYTE   W32
 BYTE   W02
//  #01 //026   ----------------------------------------
 BYTE   GoTo
  POIN2 Label_010508DE
 BYTE   FINE

//**************** Track 2 (Midi-Chn.1) ****************//

song09_002:
//  #02 //000   ----------------------------------------
 BYTE   KEYSH   song09_key+0
Label_010514D2:
 BYTE   VOICE   71
 BYTE   MODT 0
 BYTE   LFOS 44
 BYTE   VOL   44*song09_mvl/mxv
 BYTE   PAN   c_v+0
 BYTE   VOL   4*song09_mvl/mxv
 BYTE   BEND   c_v+0
 BYTE   N84  Fn4  v127
 BYTE   W02
 BYTE   VOL   6*song09_mvl/mxv
 BYTE   W02
 BYTE   VOL   7*song09_mvl/mxv
 BYTE   W02
 BYTE   VOL   10*song09_mvl/mxv
 BYTE   W02
 BYTE   VOL   11*song09_mvl/mxv
 BYTE   W02
 BYTE   VOL   13*song09_mvl/mxv
 BYTE   W02
 BYTE   VOL   16*song09_mvl/mxv
 BYTE   MOD 0
 BYTE   W02
 BYTE   VOL   18*song09_mvl/mxv
 BYTE   MOD 2
 BYTE   W02
 BYTE   VOL   20*song09_mvl/mxv
 BYTE   MOD 2
 BYTE   W02
 BYTE   VOL   22*song09_mvl/mxv
 BYTE   MOD 4
 BYTE   W02
 BYTE   VOL   25*song09_mvl/mxv
 BYTE   MOD 6
 BYTE   W02
 BYTE   VOL   26*song09_mvl/mxv
 BYTE   MOD 6
 BYTE   W02
 BYTE   VOL   29*song09_mvl/mxv
 BYTE   MOD 8
 BYTE   W02
 BYTE   VOL   31*song09_mvl/mxv
 BYTE   W02
 BYTE   VOL   34*song09_mvl/mxv
 BYTE   W02
 BYTE   VOL   36*song09_mvl/mxv
 BYTE   W02
 BYTE   VOL   39*song09_mvl/mxv
 BYTE   W02
 BYTE   VOL   41*song09_mvl/mxv
 BYTE   W02
 BYTE   VOL   44*song09_mvl/mxv
 BYTE   W24
 BYTE   W02
 BYTE   VOL   43*song09_mvl/mxv
 BYTE   W02
 BYTE   VOL   39*song09_mvl/mxv
 BYTE   W02
 BYTE   VOL   37*song09_mvl/mxv
 BYTE   W02
 BYTE   VOL   34*song09_mvl/mxv
 BYTE   W02
 BYTE   VOL   31*song09_mvl/mxv
 BYTE   W02
 BYTE   VOL   29*song09_mvl/mxv
 BYTE   W02
 BYTE   VOL   26*song09_mvl/mxv
 BYTE   W02
 BYTE   VOL   25*song09_mvl/mxv
 BYTE   W02
 BYTE   VOL   22*song09_mvl/mxv
 BYTE   W02
 BYTE   VOL   20*song09_mvl/mxv
 BYTE   W02
 BYTE   VOL   18*song09_mvl/mxv
 BYTE   W02
 BYTE   VOL   15*song09_mvl/mxv
 BYTE   MOD 0
 BYTE   N06  Ds4
 BYTE   W06
 BYTE   Fn4
 BYTE   W06
//  #02 //001   ----------------------------------------
 BYTE   N48  As3
 BYTE   W02
 BYTE   VOL   17*song09_mvl/mxv
 BYTE   W02
 BYTE   VOL   18*song09_mvl/mxv
 BYTE   W02
 BYTE   VOL   20*song09_mvl/mxv
 BYTE   W02
 BYTE   VOL   22*song09_mvl/mxv
 BYTE   W02
 BYTE   VOL   23*song09_mvl/mxv
 BYTE   W02
 BYTE   VOL   25*song09_mvl/mxv
 BYTE   W02
 BYTE   VOL   26*song09_mvl/mxv
 BYTE   W02
 BYTE   VOL   27*song09_mvl/mxv
 BYTE   W02
 BYTE   VOL   30*song09_mvl/mxv
 BYTE   W02
 BYTE   VOL   31*song09_mvl/mxv
 BYTE   W02
 BYTE   VOL   33*song09_mvl/mxv
 BYTE   W02
 BYTE   VOL   34*song09_mvl/mxv
 BYTE   W02
 BYTE   VOL   37*song09_mvl/mxv
 BYTE   W02
 BYTE   VOL   39*song09_mvl/mxv
 BYTE   W02
 BYTE   VOL   40*song09_mvl/mxv
 BYTE   W02
 BYTE   VOL   43*song09_mvl/mxv
 BYTE   W02
 BYTE   VOL   44*song09_mvl/mxv
 BYTE   W14
 BYTE   N24  Cn4  v124
 BYTE   W24
 BYTE   As3  v080
 BYTE   W08
 BYTE   VOL   40*song09_mvl/mxv
 BYTE   W02
 BYTE   VOL   37*song09_mvl/mxv
 BYTE   W02
 BYTE   VOL   33*song09_mvl/mxv
 BYTE   W02
 BYTE   VOL   29*song09_mvl/mxv
 BYTE   W02
 BYTE   VOL   25*song09_mvl/mxv
 BYTE   W02
 BYTE   VOL   22*song09_mvl/mxv
 BYTE   W02
 BYTE   VOL   18*song09_mvl/mxv
 BYTE   W02
 BYTE   VOL   15*song09_mvl/mxv
 BYTE   W02
//  #02 //002   ----------------------------------------
 BYTE   VOL   11*song09_mvl/mxv
 BYTE   TIE  Fn3  v127
 BYTE   W02
 BYTE   VOL   12*song09_mvl/mxv
 BYTE   W02
 BYTE   VOL   13*song09_mvl/mxv
 BYTE   W02
 BYTE   VOL   15*song09_mvl/mxv
 BYTE   W02
 BYTE   VOL   15*song09_mvl/mxv
 BYTE   W02
 BYTE   VOL   16*song09_mvl/mxv
 BYTE   W02
 BYTE   VOL   18*song09_mvl/mxv
 BYTE   W02
 BYTE   VOL   18*song09_mvl/mxv
 BYTE   W02
 BYTE   VOL   18*song09_mvl/mxv
 BYTE   W02
 BYTE   VOL   20*song09_mvl/mxv
 BYTE   W02
 BYTE   VOL   21*song09_mvl/mxv
 BYTE   MOD 2
 BYTE   W02
 BYTE   VOL   22*song09_mvl/mxv
 BYTE   MOD 2
 BYTE   W02
 BYTE   VOL   23*song09_mvl/mxv
 BYTE   MOD 4
 BYTE   W02
 BYTE   MOD 6
 BYTE   W02
 BYTE   VOL   25*song09_mvl/mxv
 BYTE   MOD 6
 BYTE   W02
 BYTE   VOL   25*song09_mvl/mxv
 BYTE   MOD 8
 BYTE   W02
 BYTE   VOL   26*song09_mvl/mxv
 BYTE   W02
 BYTE   VOL   27*song09_mvl/mxv
 BYTE   W02
 BYTE   VOL   29*song09_mvl/mxv
 BYTE   W02
 BYTE   VOL   30*song09_mvl/mxv
 BYTE   W02
 BYTE   VOL   30*song09_mvl/mxv
 BYTE   W02
 BYTE   VOL   31*song09_mvl/mxv
 BYTE   W02
 BYTE   VOL   33*song09_mvl/mxv
 BYTE   W02
 BYTE   VOL   34*song09_mvl/mxv
 BYTE   W02
 BYTE   VOL   34*song09_mvl/mxv
 BYTE   W02
 BYTE   VOL   36*song09_mvl/mxv
 BYTE   W02
 BYTE   VOL   37*song09_mvl/mxv
 BYTE   W02
 BYTE   VOL   38*song09_mvl/mxv
 BYTE   W02
 BYTE   VOL   39*song09_mvl/mxv
 BYTE   W02
 BYTE   VOL   40*song09_mvl/mxv
 BYTE   W02
 BYTE   VOL   41*song09_mvl/mxv
 BYTE   W02
 BYTE   VOL   43*song09_mvl/mxv
 BYTE   W02
 BYTE   VOL   44*song09_mvl/mxv
 BYTE   W32
//  #02 //003   ----------------------------------------
 BYTE   W20
 BYTE   VOL   43*song09_mvl/mxv
 BYTE   W02
 BYTE   VOL   39*song09_mvl/mxv
 BYTE   W02
 BYTE   VOL   37*song09_mvl/mxv
 BYTE   W02
 BYTE   VOL   36*song09_mvl/mxv
 BYTE   W02
 BYTE   VOL   33*song09_mvl/mxv
 BYTE   W02
 BYTE   VOL   30*song09_mvl/mxv
 BYTE   W02
 BYTE   VOL   30*song09_mvl/mxv
 BYTE   W02
 BYTE   VOL   26*song09_mvl/mxv
 BYTE   W02
 BYTE   VOL   25*song09_mvl/mxv
 BYTE   MOD 8
 BYTE   W02
 BYTE   VOL   22*song09_mvl/mxv
 BYTE   MOD 6
 BYTE   W02
 BYTE   VOL   21*song09_mvl/mxv
 BYTE   MOD 6
 BYTE   W02
 BYTE   VOL   18*song09_mvl/mxv
 BYTE   MOD 4
 BYTE   W02
 BYTE   VOL   17*song09_mvl/mxv
 BYTE   MOD 3
 BYTE   W02
 BYTE   VOL   15*song09_mvl/mxv
 BYTE   MOD 2
 BYTE   W02
 BYTE   VOL   12*song09_mvl/mxv
 BYTE   MOD 0
 BYTE   W02
 BYTE   VOL   11*song09_mvl/mxv
 BYTE   W02
 BYTE   VOL   10*song09_mvl/mxv
 BYTE   W02
 BYTE   VOL   7*song09_mvl/mxv
 BYTE   W02
 BYTE   VOL   5*song09_mvl/mxv
 BYTE   W02
 BYTE   VOL   3*song09_mvl/mxv
 BYTE   W02
 BYTE   VOL   2*song09_mvl/mxv
 BYTE   W02
 BYTE   VOL   0*song09_mvl/mxv
 BYTE   W02
 BYTE   VOL   0*song09_mvl/mxv
 BYTE   W02
 BYTE   VOL   0*song09_mvl/mxv
 BYTE   W02
 BYTE   VOL   0*song09_mvl/mxv
 BYTE   W02
 BYTE   VOL   0*song09_mvl/mxv
 BYTE   W02
 BYTE   EOT
 BYTE   VOL   0*song09_mvl/mxv
 BYTE   W12
 BYTE   N03  As3
 BYTE   W02
 BYTE   VOL   0*song09_mvl/mxv
 BYTE   W01
 BYTE   N03  Cn4
 BYTE   W01
 BYTE   VOL   0*song09_mvl/mxv
 BYTE   W02
 BYTE   VOL   0*song09_mvl/mxv
 BYTE   N03  Cs4
 BYTE   W02
 BYTE   VOL   0*song09_mvl/mxv
 BYTE   W01
 BYTE   N03  Ds4
 BYTE   W01
 BYTE   VOL   1*song09_mvl/mxv
 BYTE   W02
//  #02 //004   ----------------------------------------
 BYTE   VOL   3*song09_mvl/mxv
 BYTE   N84  Fn4
 BYTE   W02
 BYTE   VOL   5*song09_mvl/mxv
 BYTE   W02
 BYTE   VOL   7*song09_mvl/mxv
 BYTE   W02
 BYTE   VOL   10*song09_mvl/mxv
 BYTE   W02
 BYTE   VOL   11*song09_mvl/mxv
 BYTE   W02
 BYTE   VOL   13*song09_mvl/mxv
 BYTE   W02
 BYTE   VOL   16*song09_mvl/mxv
 BYTE   W02
 BYTE   VOL   18*song09_mvl/mxv
 BYTE   MOD 2
 BYTE   W02
 BYTE   VOL   21*song09_mvl/mxv
 BYTE   MOD 2
 BYTE   W02
 BYTE   VOL   22*song09_mvl/mxv
 BYTE   MOD 4
 BYTE   W02
 BYTE   VOL   25*song09_mvl/mxv
 BYTE   MOD 6
 BYTE   W02
 BYTE   VOL   27*song09_mvl/mxv
 BYTE   MOD 6
 BYTE   W02
 BYTE   VOL   30*song09_mvl/mxv
 BYTE   MOD 8
 BYTE   W02
 BYTE   VOL   32*song09_mvl/mxv
 BYTE   W02
 BYTE   VOL   34*song09_mvl/mxv
 BYTE   W02
 BYTE   VOL   37*song09_mvl/mxv
 BYTE   W02
 BYTE   VOL   39*song09_mvl/mxv
 BYTE   W02
 BYTE   VOL   43*song09_mvl/mxv
 BYTE   W02
 BYTE   VOL   44*song09_mvl/mxv
 BYTE   W14
 BYTE   VOL   43*song09_mvl/mxv
 BYTE   W02
 BYTE   VOL   40*song09_mvl/mxv
 BYTE   W02
 BYTE   VOL   39*song09_mvl/mxv
 BYTE   W02
 BYTE   VOL   37*song09_mvl/mxv
 BYTE   W02
 BYTE   VOL   36*song09_mvl/mxv
 BYTE   W02
 BYTE   VOL   34*song09_mvl/mxv
 BYTE   W02
 BYTE   VOL   32*song09_mvl/mxv
 BYTE   W02
 BYTE   VOL   30*song09_mvl/mxv
 BYTE   W02
 BYTE   VOL   30*song09_mvl/mxv
 BYTE   W02
 BYTE   VOL   27*song09_mvl/mxv
 BYTE   W02
 BYTE   VOL   26*song09_mvl/mxv
 BYTE   W02
 BYTE   VOL   25*song09_mvl/mxv
 BYTE   W02
 BYTE   VOL   22*song09_mvl/mxv
 BYTE   W02
 BYTE   VOL   22*song09_mvl/mxv
 BYTE   W02
 BYTE   VOL   20*song09_mvl/mxv
 BYTE   W02
 BYTE   VOL   18*song09_mvl/mxv
 BYTE   W02
 BYTE   VOL   17*song09_mvl/mxv
 BYTE   W02
 BYTE   VOL   15*song09_mvl/mxv
 BYTE   MOD 0
 BYTE   N06  Ds4
 BYTE   W06
 BYTE   Fn4
 BYTE   W06
//  #02 //005   ----------------------------------------
 BYTE   N48  As3
 BYTE   W02
 BYTE   VOL   17*song09_mvl/mxv
 BYTE   W02
 BYTE   VOL   18*song09_mvl/mxv
 BYTE   W02
 BYTE   VOL   20*song09_mvl/mxv
 BYTE   W02
 BYTE   VOL   22*song09_mvl/mxv
 BYTE   W02
 BYTE   VOL   23*song09_mvl/mxv
 BYTE   W02
 BYTE   VOL   25*song09_mvl/mxv
 BYTE   W02
 BYTE   VOL   26*song09_mvl/mxv
 BYTE   W02
 BYTE   VOL   27*song09_mvl/mxv
 BYTE   W02
 BYTE   VOL   30*song09_mvl/mxv
 BYTE   W02
 BYTE   VOL   31*song09_mvl/mxv
 BYTE   W02
 BYTE   VOL   33*song09_mvl/mxv
 BYTE   W02
 BYTE   VOL   34*song09_mvl/mxv
 BYTE   W02
 BYTE   VOL   37*song09_mvl/mxv
 BYTE   W02
 BYTE   VOL   39*song09_mvl/mxv
 BYTE   W02
 BYTE   VOL   40*song09_mvl/mxv
 BYTE   W02
 BYTE   VOL   43*song09_mvl/mxv
 BYTE   W02
 BYTE   VOL   44*song09_mvl/mxv
 BYTE   W14
 BYTE   N24  Cn4  v124
 BYTE   W24
 BYTE   As3  v080
 BYTE   W14
 BYTE   VOL   34*song09_mvl/mxv
 BYTE   W02
 BYTE   VOL   25*song09_mvl/mxv
 BYTE   W02
 BYTE   VOL   17*song09_mvl/mxv
 BYTE   W02
 BYTE   VOL   8*song09_mvl/mxv
 BYTE   W02
 BYTE   VOL   0*song09_mvl/mxv
 BYTE   W02
//  #02 //006   ----------------------------------------
 BYTE   VOL   0*song09_mvl/mxv
 BYTE   TIE  Fn4  v127
 BYTE   W02
 BYTE   VOL   0*song09_mvl/mxv
 BYTE   W02
 BYTE   VOL   0*song09_mvl/mxv
 BYTE   W02
 BYTE   VOL   0*song09_mvl/mxv
 BYTE   W02
 BYTE   VOL   0*song09_mvl/mxv
 BYTE   W02
 BYTE   VOL   0*song09_mvl/mxv
 BYTE   W02
 BYTE   VOL   0*song09_mvl/mxv
 BYTE   W02
 BYTE   VOL   2*song09_mvl/mxv
 BYTE   MOD 0
 BYTE   W02
 BYTE   VOL   4*song09_mvl/mxv
 BYTE   MOD 2
 BYTE   W02
 BYTE   VOL   5*song09_mvl/mxv
 BYTE   MOD 2
 BYTE   W02
 BYTE   VOL   7*song09_mvl/mxv
 BYTE   MOD 2
 BYTE   W02
 BYTE   VOL   9*song09_mvl/mxv
 BYTE   MOD 3
 BYTE   W02
 BYTE   VOL   11*song09_mvl/mxv
 BYTE   MOD 4
 BYTE   W02
 BYTE   VOL   11*song09_mvl/mxv
 BYTE   MOD 4
 BYTE   W02
 BYTE   VOL   13*song09_mvl/mxv
 BYTE   MOD 5
 BYTE   W02
 BYTE   VOL   16*song09_mvl/mxv
 BYTE   MOD 6
 BYTE   W02
 BYTE   VOL   17*song09_mvl/mxv
 BYTE   MOD 6
 BYTE   W02
 BYTE   VOL   18*song09_mvl/mxv
 BYTE   MOD 8
 BYTE   W02
 BYTE   VOL   21*song09_mvl/mxv
 BYTE   W02
 BYTE   VOL   22*song09_mvl/mxv
 BYTE   W02
 BYTE   VOL   25*song09_mvl/mxv
 BYTE   W02
 BYTE   VOL   26*song09_mvl/mxv
 BYTE   W02
 BYTE   VOL   27*song09_mvl/mxv
 BYTE   W02
 BYTE   VOL   30*song09_mvl/mxv
 BYTE   W02
 BYTE   VOL   31*song09_mvl/mxv
 BYTE   W02
 BYTE   VOL   34*song09_mvl/mxv
 BYTE   W02
 BYTE   VOL   36*song09_mvl/mxv
 BYTE   W02
 BYTE   VOL   37*song09_mvl/mxv
 BYTE   W02
 BYTE   VOL   39*song09_mvl/mxv
 BYTE   W02
 BYTE   VOL   41*song09_mvl/mxv
 BYTE   W02
 BYTE   VOL   44*song09_mvl/mxv
 BYTE   W30
 BYTE   MOD 8
 BYTE   W02
 BYTE   MOD 8
 BYTE   W02
 BYTE   VOL   41*song09_mvl/mxv
 BYTE   MOD 7
 BYTE   W02
//  #02 //007   ----------------------------------------
 BYTE   VOL   39*song09_mvl/mxv
 BYTE   MOD 6
 BYTE   W02
 BYTE   VOL   37*song09_mvl/mxv
 BYTE   MOD 6
 BYTE   W02
 BYTE   VOL   34*song09_mvl/mxv
 BYTE   MOD 6
 BYTE   W02
 BYTE   VOL   33*song09_mvl/mxv
 BYTE   MOD 5
 BYTE   W02
 BYTE   VOL   31*song09_mvl/mxv
 BYTE   MOD 4
 BYTE   W02
 BYTE   VOL   30*song09_mvl/mxv
 BYTE   W02
 BYTE   VOL   27*song09_mvl/mxv
 BYTE   MOD 4
 BYTE   W02
 BYTE   VOL   25*song09_mvl/mxv
 BYTE   MOD 4
 BYTE   W02
 BYTE   VOL   23*song09_mvl/mxv
 BYTE   MOD 3
 BYTE   W02
 BYTE   VOL   22*song09_mvl/mxv
 BYTE   MOD 2
 BYTE   W02
 BYTE   VOL   20*song09_mvl/mxv
 BYTE   MOD 2
 BYTE   W02
 BYTE   VOL   18*song09_mvl/mxv
 BYTE   MOD 2
 BYTE   W02
 BYTE   VOL   17*song09_mvl/mxv
 BYTE   MOD 1
 BYTE   W02
 BYTE   VOL   15*song09_mvl/mxv
 BYTE   MOD 0
 BYTE   W02
 BYTE   VOL   13*song09_mvl/mxv
 BYTE   MOD 0
 BYTE   W02
 BYTE   VOL   11*song09_mvl/mxv
 BYTE   W02
 BYTE   VOL   11*song09_mvl/mxv
 BYTE   W02
 BYTE   VOL   8*song09_mvl/mxv
 BYTE   W02
 BYTE   VOL   7*song09_mvl/mxv
 BYTE   W02
 BYTE   VOL   5*song09_mvl/mxv
 BYTE   W02
 BYTE   VOL   3*song09_mvl/mxv
 BYTE   W02
 BYTE   VOL   2*song09_mvl/mxv
 BYTE   W02
 BYTE   VOL   0*song09_mvl/mxv
 BYTE   W02
 BYTE   VOL   0*song09_mvl/mxv
 BYTE   W02
 BYTE   VOL   0*song09_mvl/mxv
 BYTE   W02
 BYTE   VOL   0*song09_mvl/mxv
 BYTE   W02
 BYTE   VOL   0*song09_mvl/mxv
 BYTE   W02
 BYTE   VOL   0*song09_mvl/mxv
 BYTE   W02
 BYTE   VOL   0*song09_mvl/mxv
 BYTE   W02
 BYTE   VOL   0*song09_mvl/mxv
 BYTE   W02
 BYTE   VOL   0*song09_mvl/mxv
 BYTE   W02
 BYTE   VOL   0*song09_mvl/mxv
 BYTE   W02
 BYTE   VOL   0*song09_mvl/mxv
 BYTE   W02
 BYTE   VOL   0*song09_mvl/mxv
 BYTE   W02
 BYTE   VOL   0*song09_mvl/mxv
 BYTE   W02
 BYTE   VOL   0*song09_mvl/mxv
 BYTE   W02
 BYTE   EOT
 BYTE   VOL   0*song09_mvl/mxv
 BYTE   W23
 BYTE   VOICE   127
 BYTE   VOL   71*song09_mvl/mxv
 BYTE   BEND   c_v+0
 BYTE   W01
//  #02 //008   ----------------------------------------
 BYTE   N96  An2  v072
 BYTE   W96
//  #02 //009   ----------------------------------------
 BYTE   W96
//  #02 //010   ----------------------------------------
 BYTE   W96
//  #02 //011   ----------------------------------------
 BYTE   W96
//  #02 //012   ----------------------------------------
 BYTE   W96
//  #02 //013   ----------------------------------------
 BYTE   W96
//  #02 //014   ----------------------------------------
 BYTE   W96
//  #02 //015   ----------------------------------------
 BYTE   W96
//  #02 //016   ----------------------------------------
 BYTE   VOICE   75
 BYTE   VOL   7*song09_mvl/mxv
 BYTE   BEND   c_v+0
 BYTE   TIE  As4  v127
 BYTE   W02
 BYTE   VOL   8*song09_mvl/mxv
 BYTE   W02
 BYTE   VOL   9*song09_mvl/mxv
 BYTE   W02
 BYTE   VOL   11*song09_mvl/mxv
 BYTE   W02
 BYTE   VOL   11*song09_mvl/mxv
 BYTE   W02
 BYTE   VOL   12*song09_mvl/mxv
 BYTE   W02
 BYTE   VOL   13*song09_mvl/mxv
 BYTE   W02
 BYTE   VOL   16*song09_mvl/mxv
 BYTE   W02
 BYTE   VOL   17*song09_mvl/mxv
 BYTE   W02
 BYTE   VOL   18*song09_mvl/mxv
 BYTE   W02
 BYTE   VOL   20*song09_mvl/mxv
 BYTE   W02
 BYTE   VOL   21*song09_mvl/mxv
 BYTE   W02
 BYTE   VOL   22*song09_mvl/mxv
 BYTE   W02
 BYTE   VOL   25*song09_mvl/mxv
 BYTE   W02
 BYTE   VOL   26*song09_mvl/mxv
 BYTE   MOD 0
 BYTE   W02
 BYTE   VOL   26*song09_mvl/mxv
 BYTE   MOD 1
 BYTE   W02
 BYTE   VOL   27*song09_mvl/mxv
 BYTE   MOD 2
 BYTE   W02
 BYTE   VOL   30*song09_mvl/mxv
 BYTE   MOD 2
 BYTE   W02
 BYTE   VOL   32*song09_mvl/mxv
 BYTE   MOD 3
 BYTE   W02
 BYTE   VOL   33*song09_mvl/mxv
 BYTE   MOD 4
 BYTE   W02
 BYTE   VOL   34*song09_mvl/mxv
 BYTE   MOD 4
 BYTE   W02
 BYTE   VOL   36*song09_mvl/mxv
 BYTE   MOD 5
 BYTE   W02
 BYTE   VOL   38*song09_mvl/mxv
 BYTE   MOD 6
 BYTE   W02
 BYTE   VOL   39*song09_mvl/mxv
 BYTE   MOD 6
 BYTE   W02
 BYTE   VOL   41*song09_mvl/mxv
 BYTE   MOD 6
 BYTE   W02
 BYTE   MOD 8
 BYTE   W02
 BYTE   VOL   44*song09_mvl/mxv
 BYTE   MOD 8
 BYTE   W02
 BYTE   VOL   46*song09_mvl/mxv
 BYTE   MOD 8
 BYTE   W02
 BYTE   VOL   48*song09_mvl/mxv
 BYTE   MOD 9
 BYTE   W02
 BYTE   VOL   50*song09_mvl/mxv
 BYTE   MOD 10
 BYTE   W02
 BYTE   MOD 10
 BYTE   W36
//  #02 //017   ----------------------------------------
 BYTE   W24
 BYTE   EOT
 BYTE   MOD 0
 BYTE   W12
 BYTE   N06  Gs4
 BYTE   W06
 BYTE   As4
 BYTE   W06
 BYTE   N12  Gs4
 BYTE   W18
 BYTE   Fn4
 BYTE   W18
 BYTE   Ds4
 BYTE   W12
//  #02 //018   ----------------------------------------
 BYTE   TIE  Fn4
 BYTE   W80
 BYTE   W02
 BYTE   MOD 0
 BYTE   W02
 BYTE   MOD 1
 BYTE   W02
 BYTE   MOD 2
 BYTE   W02
 BYTE   MOD 2
 BYTE   W02
 BYTE   MOD 3
 BYTE   W02
 BYTE   MOD 4
 BYTE   W02
 BYTE   MOD 4
 BYTE   W02
//  #02 //019   ----------------------------------------
 BYTE   MOD 5
 BYTE   W02
 BYTE   MOD 6
 BYTE   W02
 BYTE   MOD 6
 BYTE   W02
 BYTE   MOD 6
 BYTE   W02
 BYTE   MOD 8
 BYTE   W02
 BYTE   MOD 8
 BYTE   W02
 BYTE   MOD 8
 BYTE   W02
 BYTE   MOD 9
 BYTE   W02
 BYTE   MOD 10
 BYTE   W02
 BYTE   MOD 10
 BYTE   W42
 BYTE   MOD 11
 BYTE   W02
 BYTE   MOD 9
 BYTE   W02
 BYTE   MOD 8
 BYTE   W02
 BYTE   MOD 6
 BYTE   W02
 BYTE   MOD 4
 BYTE   W02
 BYTE   MOD 2
 BYTE   W02
 BYTE   EOT
 BYTE   MOD 0
 BYTE   W12
 BYTE   N06  As3
 BYTE   W06
 BYTE   Cs4
 BYTE   W06
//  #02 //020   ----------------------------------------
 BYTE   N96  Ds4
 BYTE   W96
//  #02 //021   ----------------------------------------
 BYTE   N60  Fn4
 BYTE   W72
 BYTE   N24  Gs4
 BYTE   W14
 BYTE   VOL   46*song09_mvl/mxv
 BYTE   W02
 BYTE   VOL   40*song09_mvl/mxv
 BYTE   W02
 BYTE   VOL   34*song09_mvl/mxv
 BYTE   W02
 BYTE   VOL   30*song09_mvl/mxv
 BYTE   W02
 BYTE   VOL   25*song09_mvl/mxv
 BYTE   W02
//  #02 //022   ----------------------------------------
 BYTE   VOL   18*song09_mvl/mxv
 BYTE   W02
 BYTE   VOL   22*song09_mvl/mxv
 BYTE   TIE  As4
 BYTE   W02
 BYTE   VOL   26*song09_mvl/mxv
 BYTE   W02
 BYTE   VOL   29*song09_mvl/mxv
 BYTE   W02
 BYTE   VOL   32*song09_mvl/mxv
 BYTE   W02
 BYTE   VOL   36*song09_mvl/mxv
 BYTE   W02
 BYTE   VOL   39*song09_mvl/mxv
 BYTE   W02
 BYTE   VOL   43*song09_mvl/mxv
 BYTE   W02
 BYTE   VOL   46*song09_mvl/mxv
 BYTE   W02
 BYTE   VOL   50*song09_mvl/mxv
 BYTE   W16
 BYTE   MOD 0
 BYTE   W02
 BYTE   MOD 1
 BYTE   W02
 BYTE   MOD 2
 BYTE   W02
 BYTE   MOD 2
 BYTE   W02
 BYTE   MOD 3
 BYTE   W02
 BYTE   MOD 4
 BYTE   W02
 BYTE   MOD 4
 BYTE   W02
 BYTE   MOD 5
 BYTE   W02
 BYTE   MOD 6
 BYTE   W02
 BYTE   MOD 6
 BYTE   W02
 BYTE   MOD 6
 BYTE   W02
 BYTE   MOD 8
 BYTE   W02
 BYTE   MOD 8
 BYTE   W02
 BYTE   MOD 8
 BYTE   W02
 BYTE   MOD 9
 BYTE   W02
 BYTE   MOD 10
 BYTE   W02
 BYTE   MOD 10
 BYTE   W30
//  #02 //023   ----------------------------------------
 BYTE   W24
 BYTE   EOT
 BYTE   W24
 BYTE   MOD 0
 BYTE   N24  Gs4
 BYTE   W11
 BYTE   BEND   c_v+1
 BYTE   W01
 BYTE   BEND   c_v+0
 BYTE   W01
 BYTE   BEND   c_v-2
 BYTE   W01
 BYTE   BEND   c_v-3
 BYTE   W01
 BYTE   BEND   c_v-4
 BYTE   W01
 BYTE   BEND   c_v-5
 BYTE   W01
 BYTE   BEND   c_v-7
 BYTE   W01
 BYTE   BEND   c_v-8
 BYTE   W01
 BYTE   BEND   c_v-10
 BYTE   W01
 BYTE   BEND   c_v-11
 BYTE   W01
 BYTE   BEND   c_v-13
 BYTE   W01
 BYTE   BEND   c_v-16
 BYTE   W01
 BYTE   BEND   c_v-19
 BYTE   W01
 BYTE   BEND   c_v+0
 BYTE   N24  Fn4
 BYTE   W14
 BYTE   VOL   46*song09_mvl/mxv
 BYTE   W02
 BYTE   VOL   40*song09_mvl/mxv
 BYTE   W02
 BYTE   VOL   34*song09_mvl/mxv
 BYTE   W02
 BYTE   VOL   30*song09_mvl/mxv
 BYTE   W02
 BYTE   VOL   25*song09_mvl/mxv
 BYTE   W01
 BYTE   BEND   c_v-10
 BYTE   W01
//  #02 //024   ----------------------------------------
 BYTE   VOL   18*song09_mvl/mxv
 BYTE   TIE  As4
 BYTE   W01
 BYTE   BEND   c_v-8
 BYTE   W01
 BYTE   VOL   21*song09_mvl/mxv
 BYTE   W01
 BYTE   BEND   c_v-8
 BYTE   W01
 BYTE   VOL   23*song09_mvl/mxv
 BYTE   BEND   c_v-7
 BYTE   W01
 BYTE   BEND   c_v-6
 BYTE   W01
 BYTE   VOL   26*song09_mvl/mxv
 BYTE   W01
 BYTE   BEND   c_v-5
 BYTE   W01
 BYTE   VOL   27*song09_mvl/mxv
 BYTE   MOD 0
 BYTE   W01
 BYTE   BEND   c_v-4
 BYTE   W01
 BYTE   VOL   31*song09_mvl/mxv
 BYTE   MOD 1
 BYTE   BEND   c_v-3
 BYTE   W02
 BYTE   VOL   33*song09_mvl/mxv
 BYTE   MOD 2
 BYTE   BEND   c_v-2
 BYTE   W01
 BYTE   BEND   c_v-2
 BYTE   W01
 BYTE   VOL   36*song09_mvl/mxv
 BYTE   MOD 2
 BYTE   BEND   c_v+0
 BYTE   W02
 BYTE   VOL   38*song09_mvl/mxv
 BYTE   MOD 3
 BYTE   W02
 BYTE   VOL   41*song09_mvl/mxv
 BYTE   MOD 4
 BYTE   W02
 BYTE   VOL   44*song09_mvl/mxv
 BYTE   MOD 4
 BYTE   W02
 BYTE   VOL   46*song09_mvl/mxv
 BYTE   MOD 4
 BYTE   W02
 BYTE   VOL   50*song09_mvl/mxv
 BYTE   MOD 5
 BYTE   W02
 BYTE   MOD 6
 BYTE   W02
 BYTE   MOD 6
 BYTE   W02
 BYTE   MOD 7
 BYTE   W02
 BYTE   MOD 8
 BYTE   W02
 BYTE   MOD 8
 BYTE   W02
 BYTE   MOD 8
 BYTE   W02
 BYTE   MOD 9
 BYTE   W02
 BYTE   MOD 10
 BYTE   W02
 BYTE   MOD 10
 BYTE   W02
 BYTE   MOD 11
 BYTE   W02
 BYTE   MOD 12
 BYTE   W04
 BYTE   MOD 12
 BYTE   W02
 BYTE   MOD 14
 BYTE   W02
 BYTE   MOD 14
 BYTE   W02
 BYTE   MOD 14
 BYTE   W02
 BYTE   MOD 15
 BYTE   W02
 BYTE   MOD 16
 BYTE   W14
 BYTE   VOL   49*song09_mvl/mxv
 BYTE   W02
 BYTE   VOL   46*song09_mvl/mxv
 BYTE   W02
 BYTE   VOL   46*song09_mvl/mxv
 BYTE   W02
 BYTE   VOL   44*song09_mvl/mxv
 BYTE   W02
 BYTE   VOL   41*song09_mvl/mxv
 BYTE   W04
 BYTE   VOL   39*song09_mvl/mxv
 BYTE   W02
 BYTE   VOL   38*song09_mvl/mxv
 BYTE   W02
 BYTE   VOL   37*song09_mvl/mxv
 BYTE   W02
 BYTE   VOL   34*song09_mvl/mxv
 BYTE   W04
//  #02 //025   ----------------------------------------
 BYTE   VOL   32*song09_mvl/mxv
 BYTE   W02
 BYTE   VOL   32*song09_mvl/mxv
 BYTE   W02
 BYTE   VOL   30*song09_mvl/mxv
 BYTE   W02
 BYTE   VOL   27*song09_mvl/mxv
 BYTE   W02
 BYTE   VOL   26*song09_mvl/mxv
 BYTE   W02
 BYTE   VOL   26*song09_mvl/mxv
 BYTE   W02
 BYTE   VOL   25*song09_mvl/mxv
 BYTE   W02
 BYTE   VOL   23*song09_mvl/mxv
 BYTE   W02
 BYTE   VOL   22*song09_mvl/mxv
 BYTE   W02
 BYTE   VOL   21*song09_mvl/mxv
 BYTE   W02
 BYTE   VOL   20*song09_mvl/mxv
 BYTE   W02
 BYTE   VOL   18*song09_mvl/mxv
 BYTE   W02
 BYTE   VOL   17*song09_mvl/mxv
 BYTE   W02
 BYTE   VOL   16*song09_mvl/mxv
 BYTE   W02
 BYTE   VOL   15*song09_mvl/mxv
 BYTE   W02
 BYTE   VOL   13*song09_mvl/mxv
 BYTE   W02
 BYTE   VOL   11*song09_mvl/mxv
 BYTE   W02
 BYTE   VOL   11*song09_mvl/mxv
 BYTE   W02
 BYTE   VOL   10*song09_mvl/mxv
 BYTE   W02
 BYTE   VOL   9*song09_mvl/mxv
 BYTE   MOD 13
 BYTE   W02
 BYTE   VOL   8*song09_mvl/mxv
 BYTE   MOD 10
 BYTE   W02
 BYTE   VOL   7*song09_mvl/mxv
 BYTE   MOD 8
 BYTE   W02
 BYTE   VOL   6*song09_mvl/mxv
 BYTE   MOD 5
 BYTE   W02
 BYTE   VOL   4*song09_mvl/mxv
 BYTE   MOD 2
 BYTE   W02
 BYTE   EOT
 BYTE   VOL   3*song09_mvl/mxv
 BYTE   MOD 0
 BYTE   W48
//  #02 //026   ----------------------------------------
 BYTE   GoTo
  POIN2 Label_010514D2
 BYTE   FINE

//**************** Track 3 (Midi-Chn.2) ****************//

song09_003:
//  #03 //000   ----------------------------------------
 BYTE   KEYSH   song09_key+0
Label_0104E39A:
 BYTE   VOICE   49
 BYTE   MODT 0
 BYTE   LFOS 44
 BYTE   VOL   38*song09_mvl/mxv
 BYTE   PAN   c_v-40
 BYTE   VOL   38*song09_mvl/mxv
 BYTE   BEND   c_v+0
 BYTE   W96
//  #03 //001   ----------------------------------------
 BYTE   W96
//  #03 //002   ----------------------------------------
 BYTE   W96
//  #03 //003   ----------------------------------------
 BYTE   W96
//  #03 //004   ----------------------------------------
 BYTE   W96
//  #03 //005   ----------------------------------------
 BYTE   W96
//  #03 //006   ----------------------------------------
 BYTE   W96
//  #03 //007   ----------------------------------------
 BYTE   W66
 BYTE   VOL   1*song09_mvl/mxv
 BYTE   W03
 BYTE   VOL   6*song09_mvl/mxv
 BYTE   W03
 BYTE   VOL   11*song09_mvl/mxv
 BYTE   N24  As2  v127
 BYTE   W03
 BYTE   VOL   18*song09_mvl/mxv
 BYTE   W03
 BYTE   VOL   25*song09_mvl/mxv
 BYTE   W03
 BYTE   VOL   31*song09_mvl/mxv
 BYTE   W03
 BYTE   VOL   38*song09_mvl/mxv
 BYTE   W12
//  #03 //008   ----------------------------------------
Label_0104E3C3:
 BYTE   N84  As3  v127
 BYTE   W84
 BYTE   N06  Gs3
 BYTE   W06
 BYTE   As3
 BYTE   W06
 BYTE   PEND 
//  #03 //009   ----------------------------------------
 BYTE   N54  Cn4
 BYTE   W60
 BYTE   N12  Gs3
 BYTE   W18
 BYTE   N18  Ds3
 BYTE   W18
//  #03 //010   ----------------------------------------
 BYTE   TIE  Fn3
 BYTE   W64
 BYTE   VOL   37*song09_mvl/mxv
 BYTE   W07
 BYTE   VOL   34*song09_mvl/mxv
 BYTE   W06
 BYTE   VOL   33*song09_mvl/mxv
 BYTE   W07
 BYTE   VOL   31*song09_mvl/mxv
 BYTE   W06
 BYTE   VOL   30*song09_mvl/mxv
 BYTE   W06
//  #03 //011   ----------------------------------------
 BYTE   W01
 BYTE   VOL   27*song09_mvl/mxv
 BYTE   W06
 BYTE   VOL   26*song09_mvl/mxv
 BYTE   W07
 BYTE   VOL   25*song09_mvl/mxv
 BYTE   W07
 BYTE   VOL   21*song09_mvl/mxv
 BYTE   W07
 BYTE   VOL   20*song09_mvl/mxv
 BYTE   W06
 BYTE   VOL   18*song09_mvl/mxv
 BYTE   W07
 BYTE   VOL   17*song09_mvl/mxv
 BYTE   W06
 BYTE   VOL   15*song09_mvl/mxv
 BYTE   W07
 BYTE   VOL   13*song09_mvl/mxv
 BYTE   W06
 BYTE   EOT
 BYTE   VOL   11*song09_mvl/mxv
 BYTE   W07
 BYTE   VOL   11*song09_mvl/mxv
 BYTE   W06
 BYTE   VOL   9*song09_mvl/mxv
 BYTE   W11
 BYTE   VOL   38*song09_mvl/mxv
 BYTE   N06  As2
 BYTE   W06
 BYTE   Cs3
 BYTE   W06
//  #03 //012   ----------------------------------------
 BYTE   N96  Ds3
 BYTE   W96
//  #03 //013   ----------------------------------------
 BYTE   N72  Fn3
 BYTE   W72
 BYTE   N24  Gs3
 BYTE   W24
//  #03 //014   ----------------------------------------
 BYTE   PATT
  POIN2 Label_0104E3C3
//  #03 //015   ----------------------------------------
 BYTE   N36  Cn4  v127
 BYTE   W15
 BYTE   VOL   34*song09_mvl/mxv
 BYTE   W03
 BYTE   VOL   31*song09_mvl/mxv
 BYTE   W03
 BYTE   VOL   27*song09_mvl/mxv
 BYTE   W03
 BYTE   VOL   25*song09_mvl/mxv
 BYTE   W03
 BYTE   VOL   21*song09_mvl/mxv
 BYTE   W03
 BYTE   VOL   18*song09_mvl/mxv
 BYTE   W03
 BYTE   VOL   15*song09_mvl/mxv
 BYTE   W03
 BYTE   VOL   11*song09_mvl/mxv
 BYTE   W12
 BYTE   VOICE   40
 BYTE   VOL   16*song09_mvl/mxv
 BYTE   N12  Ds5
 BYTE   W18
 BYTE   Cn5
 BYTE   W18
 BYTE   Gs4
 BYTE   W12
//  #03 //016   ----------------------------------------
 BYTE   N96  As4
 BYTE   W21
 BYTE   VOL   13*song09_mvl/mxv
 BYTE   W03
 BYTE   VOL   11*song09_mvl/mxv
 BYTE   W03
 BYTE   VOL   10*song09_mvl/mxv
 BYTE   W03
 BYTE   VOL   8*song09_mvl/mxv
 BYTE   W03
 BYTE   VOL   7*song09_mvl/mxv
 BYTE   W03
 BYTE   VOL   5*song09_mvl/mxv
 BYTE   W03
 BYTE   VOL   3*song09_mvl/mxv
 BYTE   W03
 BYTE   VOL   1*song09_mvl/mxv
 BYTE   W03
 BYTE   VOL   0*song09_mvl/mxv
 BYTE   W03
 BYTE   VOL   0*song09_mvl/mxv
 BYTE   W03
 BYTE   VOL   0*song09_mvl/mxv
 BYTE   W03
 BYTE   VOL   0*song09_mvl/mxv
 BYTE   W03
 BYTE   VOL   0*song09_mvl/mxv
 BYTE   W03
 BYTE   VOL   0*song09_mvl/mxv
 BYTE   W03
 BYTE   VOL   0*song09_mvl/mxv
 BYTE   W03
 BYTE   VOL   0*song09_mvl/mxv
 BYTE   W03
 BYTE   VOL   0*song09_mvl/mxv
 BYTE   W03
 BYTE   VOL   0*song09_mvl/mxv
 BYTE   W03
 BYTE   VOL   0*song09_mvl/mxv
 BYTE   W03
 BYTE   VOL   0*song09_mvl/mxv
 BYTE   W03
 BYTE   VOL   0*song09_mvl/mxv
 BYTE   W03
 BYTE   VOL   0*song09_mvl/mxv
 BYTE   W03
 BYTE   VOL   0*song09_mvl/mxv
 BYTE   W03
 BYTE   VOL   0*song09_mvl/mxv
 BYTE   W03
 BYTE   VOL   0*song09_mvl/mxv
 BYTE   W03
//  #03 //017   ----------------------------------------
 BYTE   VOL   0*song09_mvl/mxv
 BYTE   N96  Gs4  v108
 BYTE   W03
 BYTE   VOL   0*song09_mvl/mxv
 BYTE   W03
 BYTE   VOL   0*song09_mvl/mxv
 BYTE   W03
 BYTE   VOL   0*song09_mvl/mxv
 BYTE   W03
 BYTE   VOL   0*song09_mvl/mxv
 BYTE   W03
 BYTE   VOL   0*song09_mvl/mxv
 BYTE   W03
 BYTE   VOL   0*song09_mvl/mxv
 BYTE   W32
 BYTE   W01
 BYTE   VOL   0*song09_mvl/mxv
 BYTE   W03
 BYTE   VOL   0*song09_mvl/mxv
 BYTE   W03
 BYTE   VOL   0*song09_mvl/mxv
 BYTE   W03
 BYTE   VOL   0*song09_mvl/mxv
 BYTE   W03
 BYTE   VOL   0*song09_mvl/mxv
 BYTE   W03
 BYTE   VOL   2*song09_mvl/mxv
 BYTE   W03
 BYTE   VOL   8*song09_mvl/mxv
 BYTE   W03
 BYTE   VOL   16*song09_mvl/mxv
 BYTE   W24
//  #03 //018   ----------------------------------------
 BYTE   TIE  Fn4  v088
 BYTE   W96
//  #03 //019   ----------------------------------------
 BYTE   W96
//  #03 //020   ----------------------------------------
 BYTE   EOT
 BYTE   N96  Cs4
 BYTE   W96
//  #03 //021   ----------------------------------------
 BYTE   Ds4
 BYTE   W24
 BYTE   W03
 BYTE   VOL   11*song09_mvl/mxv
 BYTE   W03
 BYTE   VOL   8*song09_mvl/mxv
 BYTE   W03
 BYTE   VOL   4*song09_mvl/mxv
 BYTE   W03
 BYTE   VOL   0*song09_mvl/mxv
 BYTE   W03
 BYTE   VOL   0*song09_mvl/mxv
 BYTE   W03
 BYTE   VOL   0*song09_mvl/mxv
 BYTE   W03
 BYTE   VOL   0*song09_mvl/mxv
 BYTE   W03
 BYTE   VOL   0*song09_mvl/mxv
 BYTE   W03
 BYTE   VOL   0*song09_mvl/mxv
 BYTE   W03
 BYTE   VOL   0*song09_mvl/mxv
 BYTE   W03
 BYTE   VOL   0*song09_mvl/mxv
 BYTE   W03
 BYTE   VOL   0*song09_mvl/mxv
 BYTE   W36
//  #03 //022   ----------------------------------------
 BYTE   TIE  As5  v072
 BYTE   W24
 BYTE   VOL   0*song09_mvl/mxv
 BYTE   W03
 BYTE   VOL   0*song09_mvl/mxv
 BYTE   W03
 BYTE   VOL   0*song09_mvl/mxv
 BYTE   W03
 BYTE   VOL   0*song09_mvl/mxv
 BYTE   W03
 BYTE   VOL   0*song09_mvl/mxv
 BYTE   W03
 BYTE   VOL   0*song09_mvl/mxv
 BYTE   W03
 BYTE   VOL   0*song09_mvl/mxv
 BYTE   W03
 BYTE   VOL   0*song09_mvl/mxv
 BYTE   W03
 BYTE   VOL   0*song09_mvl/mxv
 BYTE   W03
 BYTE   VOL   0*song09_mvl/mxv
 BYTE   W03
 BYTE   VOL   0*song09_mvl/mxv
 BYTE   W03
 BYTE   VOL   0*song09_mvl/mxv
 BYTE   W03
 BYTE   VOL   0*song09_mvl/mxv
 BYTE   W03
 BYTE   VOL   0*song09_mvl/mxv
 BYTE   W03
 BYTE   VOL   0*song09_mvl/mxv
 BYTE   W03
 BYTE   VOL   1*song09_mvl/mxv
 BYTE   W03
 BYTE   VOL   4*song09_mvl/mxv
 BYTE   W24
//  #03 //023   ----------------------------------------
 BYTE   W30
 BYTE   VOL   4*song09_mvl/mxv
 BYTE   W03
 BYTE   VOL   1*song09_mvl/mxv
 BYTE   W03
 BYTE   VOL   0*song09_mvl/mxv
 BYTE   W03
 BYTE   VOL   0*song09_mvl/mxv
 BYTE   W03
 BYTE   VOL   0*song09_mvl/mxv
 BYTE   W03
 BYTE   VOL   0*song09_mvl/mxv
 BYTE   W03
 BYTE   VOL   0*song09_mvl/mxv
 BYTE   W03
 BYTE   VOL   0*song09_mvl/mxv
 BYTE   W03
 BYTE   VOL   0*song09_mvl/mxv
 BYTE   W03
 BYTE   VOL   0*song09_mvl/mxv
 BYTE   W03
 BYTE   VOL   0*song09_mvl/mxv
 BYTE   W03
 BYTE   VOL   0*song09_mvl/mxv
 BYTE   W03
 BYTE   VOL   0*song09_mvl/mxv
 BYTE   W03
 BYTE   VOL   0*song09_mvl/mxv
 BYTE   W03
 BYTE   VOL   0*song09_mvl/mxv
 BYTE   W03
 BYTE   VOL   0*song09_mvl/mxv
 BYTE   W03
 BYTE   VOL   0*song09_mvl/mxv
 BYTE   W03
 BYTE   VOL   0*song09_mvl/mxv
 BYTE   W03
 BYTE   VOL   0*song09_mvl/mxv
 BYTE   W03
 BYTE   VOL   0*song09_mvl/mxv
 BYTE   W03
 BYTE   VOL   0*song09_mvl/mxv
 BYTE   W03
 BYTE   VOL   0*song09_mvl/mxv
 BYTE   W03
//  #03 //024   ----------------------------------------
 BYTE   EOT
 BYTE   VOL   0*song09_mvl/mxv
 BYTE   W66
 BYTE   VOL   16*song09_mvl/mxv
 BYTE   W30
//  #03 //025   ----------------------------------------
 BYTE   W96
//  #03 //026   ----------------------------------------
 BYTE   GoTo
  POIN2 Label_0104E39A
 BYTE   FINE

//**************** Track 4 (Midi-Chn.3) ****************//

song09_004:
//  #04 //000   ----------------------------------------
 BYTE   KEYSH   song09_key+0
Label_0104B47A:
 BYTE   VOICE   40
 BYTE   MODT 0
 BYTE   LFOS 44
 BYTE   VOL   16*song09_mvl/mxv
 BYTE   PAN   c_v-40
 BYTE   VOL   16*song09_mvl/mxv
 BYTE   BEND   c_v+0
 BYTE   W96
//  #04 //001   ----------------------------------------
 BYTE   W96
//  #04 //002   ----------------------------------------
 BYTE   W96
//  #04 //003   ----------------------------------------
 BYTE   W96
//  #04 //004   ----------------------------------------
 BYTE   W96
//  #04 //005   ----------------------------------------
 BYTE   W96
//  #04 //006   ----------------------------------------
 BYTE   W96
//  #04 //007   ----------------------------------------
 BYTE   W96
//  #04 //008   ----------------------------------------
 BYTE   W96
//  #04 //009   ----------------------------------------
 BYTE   W96
//  #04 //010   ----------------------------------------
 BYTE   W96
//  #04 //011   ----------------------------------------
 BYTE   W96
//  #04 //012   ----------------------------------------
 BYTE   W96
//  #04 //013   ----------------------------------------
 BYTE   W96
//  #04 //014   ----------------------------------------
 BYTE   W96
//  #04 //015   ----------------------------------------
 BYTE   W48
 BYTE   N12  Gs4  v127
 BYTE   W18
 BYTE   Ds4
 BYTE   W18
 BYTE   Cn4
 BYTE   W12
//  #04 //016   ----------------------------------------
 BYTE   N96  Cs4  v108
 BYTE   W21
 BYTE   VOL   13*song09_mvl/mxv
 BYTE   W03
 BYTE   VOL   11*song09_mvl/mxv
 BYTE   W03
 BYTE   VOL   10*song09_mvl/mxv
 BYTE   W03
 BYTE   VOL   8*song09_mvl/mxv
 BYTE   W03
 BYTE   VOL   7*song09_mvl/mxv
 BYTE   W03
 BYTE   VOL   5*song09_mvl/mxv
 BYTE   W03
 BYTE   VOL   3*song09_mvl/mxv
 BYTE   W03
 BYTE   VOL   1*song09_mvl/mxv
 BYTE   W03
 BYTE   VOL   0*song09_mvl/mxv
 BYTE   W03
 BYTE   VOL   0*song09_mvl/mxv
 BYTE   W03
 BYTE   VOL   0*song09_mvl/mxv
 BYTE   W03
 BYTE   VOL   0*song09_mvl/mxv
 BYTE   W03
 BYTE   VOL   0*song09_mvl/mxv
 BYTE   W03
 BYTE   VOL   0*song09_mvl/mxv
 BYTE   W03
 BYTE   VOL   0*song09_mvl/mxv
 BYTE   W03
 BYTE   VOL   0*song09_mvl/mxv
 BYTE   W03
 BYTE   VOL   0*song09_mvl/mxv
 BYTE   W03
 BYTE   VOL   0*song09_mvl/mxv
 BYTE   W03
 BYTE   VOL   0*song09_mvl/mxv
 BYTE   W03
 BYTE   VOL   0*song09_mvl/mxv
 BYTE   W03
 BYTE   VOL   0*song09_mvl/mxv
 BYTE   W03
 BYTE   VOL   0*song09_mvl/mxv
 BYTE   W03
 BYTE   VOL   0*song09_mvl/mxv
 BYTE   W03
 BYTE   VOL   0*song09_mvl/mxv
 BYTE   W03
 BYTE   VOL   0*song09_mvl/mxv
 BYTE   W03
//  #04 //017   ----------------------------------------
 BYTE   VOL   0*song09_mvl/mxv
 BYTE   N96  Cn4
 BYTE   W03
 BYTE   VOL   0*song09_mvl/mxv
 BYTE   W03
 BYTE   VOL   0*song09_mvl/mxv
 BYTE   W03
 BYTE   VOL   0*song09_mvl/mxv
 BYTE   W03
 BYTE   VOL   0*song09_mvl/mxv
 BYTE   W03
 BYTE   VOL   0*song09_mvl/mxv
 BYTE   W03
 BYTE   VOL   0*song09_mvl/mxv
 BYTE   W32
 BYTE   W01
 BYTE   VOL   0*song09_mvl/mxv
 BYTE   W03
 BYTE   VOL   0*song09_mvl/mxv
 BYTE   W03
 BYTE   VOL   0*song09_mvl/mxv
 BYTE   W03
 BYTE   VOL   0*song09_mvl/mxv
 BYTE   W03
 BYTE   VOL   0*song09_mvl/mxv
 BYTE   W03
 BYTE   VOL   2*song09_mvl/mxv
 BYTE   W03
 BYTE   VOL   8*song09_mvl/mxv
 BYTE   W03
 BYTE   VOL   16*song09_mvl/mxv
 BYTE   W24
//  #04 //018   ----------------------------------------
 BYTE   N48  Cs4  v088
 BYTE   W48
 BYTE   N96  Cn4
 BYTE   W48
//  #04 //019   ----------------------------------------
 BYTE   W48
 BYTE   N48  As3
 BYTE   W48
//  #04 //020   ----------------------------------------
 BYTE   N96  Fs3
 BYTE   W96
//  #04 //021   ----------------------------------------
 BYTE   Gs3
 BYTE   W24
 BYTE   W03
 BYTE   VOL   11*song09_mvl/mxv
 BYTE   W03
 BYTE   VOL   8*song09_mvl/mxv
 BYTE   W03
 BYTE   VOL   4*song09_mvl/mxv
 BYTE   W03
 BYTE   VOL   0*song09_mvl/mxv
 BYTE   W03
 BYTE   VOL   0*song09_mvl/mxv
 BYTE   W03
 BYTE   VOL   0*song09_mvl/mxv
 BYTE   W03
 BYTE   VOL   0*song09_mvl/mxv
 BYTE   W03
 BYTE   VOL   0*song09_mvl/mxv
 BYTE   W03
 BYTE   VOL   0*song09_mvl/mxv
 BYTE   W03
 BYTE   VOL   0*song09_mvl/mxv
 BYTE   W03
 BYTE   VOL   0*song09_mvl/mxv
 BYTE   W03
 BYTE   VOL   0*song09_mvl/mxv
 BYTE   W36
//  #04 //022   ----------------------------------------
 BYTE   TIE  As4
 BYTE   W24
 BYTE   VOL   0*song09_mvl/mxv
 BYTE   W03
 BYTE   VOL   0*song09_mvl/mxv
 BYTE   W03
 BYTE   VOL   0*song09_mvl/mxv
 BYTE   W03
 BYTE   VOL   0*song09_mvl/mxv
 BYTE   W03
 BYTE   VOL   0*song09_mvl/mxv
 BYTE   W03
 BYTE   VOL   0*song09_mvl/mxv
 BYTE   W03
 BYTE   VOL   0*song09_mvl/mxv
 BYTE   W03
 BYTE   VOL   0*song09_mvl/mxv
 BYTE   W03
 BYTE   VOL   0*song09_mvl/mxv
 BYTE   W03
 BYTE   VOL   0*song09_mvl/mxv
 BYTE   W03
 BYTE   VOL   0*song09_mvl/mxv
 BYTE   W03
 BYTE   VOL   0*song09_mvl/mxv
 BYTE   W03
 BYTE   VOL   0*song09_mvl/mxv
 BYTE   W03
 BYTE   VOL   0*song09_mvl/mxv
 BYTE   W03
 BYTE   VOL   0*song09_mvl/mxv
 BYTE   W03
 BYTE   VOL   1*song09_mvl/mxv
 BYTE   W03
 BYTE   VOL   4*song09_mvl/mxv
 BYTE   W24
//  #04 //023   ----------------------------------------
 BYTE   W30
 BYTE   VOL   4*song09_mvl/mxv
 BYTE   W03
 BYTE   VOL   1*song09_mvl/mxv
 BYTE   W03
 BYTE   VOL   0*song09_mvl/mxv
 BYTE   W03
 BYTE   VOL   0*song09_mvl/mxv
 BYTE   W03
 BYTE   VOL   0*song09_mvl/mxv
 BYTE   W03
 BYTE   VOL   0*song09_mvl/mxv
 BYTE   W03
 BYTE   VOL   0*song09_mvl/mxv
 BYTE   W03
 BYTE   VOL   0*song09_mvl/mxv
 BYTE   W03
 BYTE   VOL   0*song09_mvl/mxv
 BYTE   W03
 BYTE   VOL   0*song09_mvl/mxv
 BYTE   W03
 BYTE   VOL   0*song09_mvl/mxv
 BYTE   W03
 BYTE   VOL   0*song09_mvl/mxv
 BYTE   W03
 BYTE   VOL   0*song09_mvl/mxv
 BYTE   W03
 BYTE   VOL   0*song09_mvl/mxv
 BYTE   W03
 BYTE   VOL   0*song09_mvl/mxv
 BYTE   W03
 BYTE   VOL   0*song09_mvl/mxv
 BYTE   W03
 BYTE   VOL   0*song09_mvl/mxv
 BYTE   W03
 BYTE   VOL   0*song09_mvl/mxv
 BYTE   W03
 BYTE   VOL   0*song09_mvl/mxv
 BYTE   W03
 BYTE   VOL   0*song09_mvl/mxv
 BYTE   W03
 BYTE   VOL   0*song09_mvl/mxv
 BYTE   W03
 BYTE   VOL   0*song09_mvl/mxv
 BYTE   W03
//  #04 //024   ----------------------------------------
 BYTE   EOT
 BYTE   VOL   0*song09_mvl/mxv
 BYTE   W66
 BYTE   VOL   16*song09_mvl/mxv
 BYTE   W30
//  #04 //025   ----------------------------------------
 BYTE   W96
//  #04 //026   ----------------------------------------
 BYTE   GoTo
  POIN2 Label_0104B47A
 BYTE   FINE

//**************** Track 5 (Midi-Chn.4) ****************//

song09_005:
//  #05 //000   ----------------------------------------
 BYTE   KEYSH   song09_key+0
Label_01049DCE:
 BYTE   VOICE   81
 BYTE   MODT 0
 BYTE   LFOS 44
 BYTE   VOL   6*song09_mvl/mxv
 BYTE   PAN   c_v-48
 BYTE   VOL   6*song09_mvl/mxv
 BYTE   BEND   c_v+0
 BYTE   W96
//  #05 //001   ----------------------------------------
 BYTE   W96
//  #05 //002   ----------------------------------------
 BYTE   W96
//  #05 //003   ----------------------------------------
 BYTE   W96
//  #05 //004   ----------------------------------------
 BYTE   W96
//  #05 //005   ----------------------------------------
 BYTE   W96
//  #05 //006   ----------------------------------------
 BYTE   W96
//  #05 //007   ----------------------------------------
 BYTE   W72
 BYTE   N24  As4  v072
 BYTE   W24
//  #05 //008   ----------------------------------------
Label_01049DE8:
 BYTE   N84  As5  v108
 BYTE   W84
 BYTE   N06  Gs5
 BYTE   W06
 BYTE   As5
 BYTE   W06
 BYTE   PEND 
//  #05 //009   ----------------------------------------
 BYTE   N54  Cn6
 BYTE   W60
 BYTE   N12  Gs5
 BYTE   W18
 BYTE   N18  Ds5
 BYTE   W18
//  #05 //010   ----------------------------------------
 BYTE   TIE  Fn5
 BYTE   W96
//  #05 //011   ----------------------------------------
 BYTE   W60
 BYTE   EOT
 BYTE   W24
 BYTE   N06  As4
 BYTE   W06
 BYTE   Cs5
 BYTE   W06
//  #05 //012   ----------------------------------------
 BYTE   N96  Ds5
 BYTE   W96
//  #05 //013   ----------------------------------------
 BYTE   N72  Fn5
 BYTE   W72
 BYTE   N24  Gs5
 BYTE   W24
//  #05 //014   ----------------------------------------
 BYTE   PATT
  POIN2 Label_01049DE8
//  #05 //015   ----------------------------------------
 BYTE   N36  Cn6  v108
 BYTE   W48
 BYTE   N12  Ds6
 BYTE   W18
 BYTE   Cn6
 BYTE   W18
 BYTE   Gs5
 BYTE   W12
//  #05 //016   ----------------------------------------
 BYTE   N96  As5
 BYTE   W96
//  #05 //017   ----------------------------------------
 BYTE   W96
//  #05 //018   ----------------------------------------
 BYTE   W96
//  #05 //019   ----------------------------------------
 BYTE   W96
//  #05 //020   ----------------------------------------
 BYTE   W96
//  #05 //021   ----------------------------------------
 BYTE   W96
//  #05 //022   ----------------------------------------
 BYTE   W96
//  #05 //023   ----------------------------------------
 BYTE   W96
//  #05 //024   ----------------------------------------
 BYTE   W96
//  #05 //025   ----------------------------------------
 BYTE   W96
//  #05 //026   ----------------------------------------
 BYTE   GoTo
  POIN2 Label_01049DCE
 BYTE   FINE

//**************** Track 6 (Midi-Chn.5) ****************//

song09_006:
//  #06 //000   ----------------------------------------
 BYTE   KEYSH   song09_key+0
Label_0104E272:
 BYTE   VOICE   61
 BYTE   MODT 0
 BYTE   LFOS 44
 BYTE   VOL   32*song09_mvl/mxv
 BYTE   PAN   c_v-16
 BYTE   VOL   0*song09_mvl/mxv
 BYTE   BEND   c_v+0
 BYTE   W96
//  #06 //001   ----------------------------------------
 BYTE   W96
//  #06 //002   ----------------------------------------
 BYTE   W96
//  #06 //003   ----------------------------------------
 BYTE   W96
//  #06 //004   ----------------------------------------
 BYTE   W96
//  #06 //005   ----------------------------------------
 BYTE   W96
//  #06 //006   ----------------------------------------
 BYTE   W96
//  #06 //007   ----------------------------------------
 BYTE   W48
 BYTE   VOL   0*song09_mvl/mxv
 BYTE   N44  Fn2  v108
 BYTE   N44  Gs2
 BYTE   W06
 BYTE   VOL   0*song09_mvl/mxv
 BYTE   W03
 BYTE   VOL   0*song09_mvl/mxv
 BYTE   W03
 BYTE   VOL   0*song09_mvl/mxv
 BYTE   W03
 BYTE   VOL   0*song09_mvl/mxv
 BYTE   W03
 BYTE   VOL   0*song09_mvl/mxv
 BYTE   W03
 BYTE   VOL   0*song09_mvl/mxv
 BYTE   W03
 BYTE   VOL   4*song09_mvl/mxv
 BYTE   W03
 BYTE   VOL   9*song09_mvl/mxv
 BYTE   W03
 BYTE   VOL   16*song09_mvl/mxv
 BYTE   W03
 BYTE   VOL   23*song09_mvl/mxv
 BYTE   W03
 BYTE   VOL   32*song09_mvl/mxv
 BYTE   W12
//  #06 //008   ----------------------------------------
 BYTE   N44  Fn2
 BYTE   N92  As2
 BYTE   W48
 BYTE   N44  Fs2
 BYTE   W48
//  #06 //009   ----------------------------------------
 BYTE   N92
 BYTE   N92  As2
 BYTE   W96
//  #06 //010   ----------------------------------------
 BYTE   N44  Fn2
 BYTE   N44  As2
 BYTE   W48
 BYTE   Fn2
 BYTE   N44  As2
 BYTE   W48
//  #06 //011   ----------------------------------------
 BYTE   Fn2
 BYTE   N44  Cn3
 BYTE   W48
 BYTE   Gs2
 BYTE   N44  Fn3
 BYTE   W48
//  #06 //012   ----------------------------------------
 BYTE   As2
 BYTE   N44  Fs3
 BYTE   W48
 BYTE   Fs2
 BYTE   N44  As2
 BYTE   W48
//  #06 //013   ----------------------------------------
 BYTE   N92  Gs2
 BYTE   N92  Cn3
 BYTE   W96
//  #06 //014   ----------------------------------------
 BYTE   N44  As2
 BYTE   N44  Cs3
 BYTE   W48
 BYTE   N44
 BYTE   N44  Fn3
 BYTE   W48
//  #06 //015   ----------------------------------------
 BYTE   Cn3
 BYTE   N44  Ds3
 BYTE   W48
 BYTE   VOL   0*song09_mvl/mxv
 BYTE   N44  Cn3  v127
 BYTE   N44  Ds3
 BYTE   W06
 BYTE   VOL   0*song09_mvl/mxv
 BYTE   W03
 BYTE   VOL   0*song09_mvl/mxv
 BYTE   W03
 BYTE   VOL   1*song09_mvl/mxv
 BYTE   W03
 BYTE   VOL   4*song09_mvl/mxv
 BYTE   W03
 BYTE   VOL   9*song09_mvl/mxv
 BYTE   W03
 BYTE   VOL   12*song09_mvl/mxv
 BYTE   W03
 BYTE   VOL   18*song09_mvl/mxv
 BYTE   W03
 BYTE   VOL   25*song09_mvl/mxv
 BYTE   W03
 BYTE   VOL   32*song09_mvl/mxv
 BYTE   W18
//  #06 //016   ----------------------------------------
 BYTE   N92  Cs3  v108
 BYTE   N92  Fn3
 BYTE   W96
//  #06 //017   ----------------------------------------
 BYTE   Cn3
 BYTE   N92  Fn3
 BYTE   W17
 BYTE   VOL   31*song09_mvl/mxv
 BYTE   W03
 BYTE   VOL   29*song09_mvl/mxv
 BYTE   W04
 BYTE   VOL   27*song09_mvl/mxv
 BYTE   W04
 BYTE   VOL   26*song09_mvl/mxv
 BYTE   W03
 BYTE   VOL   25*song09_mvl/mxv
 BYTE   W03
 BYTE   VOL   23*song09_mvl/mxv
 BYTE   W04
 BYTE   VOL   21*song09_mvl/mxv
 BYTE   W03
 BYTE   VOL   20*song09_mvl/mxv
 BYTE   W03
 BYTE   VOL   17*song09_mvl/mxv
 BYTE   W04
 BYTE   VOL   16*song09_mvl/mxv
 BYTE   W03
 BYTE   VOL   13*song09_mvl/mxv
 BYTE   W03
 BYTE   VOL   12*song09_mvl/mxv
 BYTE   W04
 BYTE   VOL   11*song09_mvl/mxv
 BYTE   W03
 BYTE   VOL   10*song09_mvl/mxv
 BYTE   W03
 BYTE   VOL   9*song09_mvl/mxv
 BYTE   W04
 BYTE   VOL   7*song09_mvl/mxv
 BYTE   W03
 BYTE   VOL   6*song09_mvl/mxv
 BYTE   W03
 BYTE   VOL   4*song09_mvl/mxv
 BYTE   W04
 BYTE   VOL   3*song09_mvl/mxv
 BYTE   W03
 BYTE   VOL   0*song09_mvl/mxv
 BYTE   W04
 BYTE   VOL   0*song09_mvl/mxv
 BYTE   W03
 BYTE   VOL   0*song09_mvl/mxv
 BYTE   W03
 BYTE   VOL   0*song09_mvl/mxv
 BYTE   W05
//  #06 //018   ----------------------------------------
 BYTE   N44  As2
 BYTE   N44  Fn3
 BYTE   W03
 BYTE   VOL   0*song09_mvl/mxv
 BYTE   W03
 BYTE   VOL   4*song09_mvl/mxv
 BYTE   W03
 BYTE   VOL   9*song09_mvl/mxv
 BYTE   W03
 BYTE   VOL   12*song09_mvl/mxv
 BYTE   W03
 BYTE   VOL   18*song09_mvl/mxv
 BYTE   W03
 BYTE   VOL   22*song09_mvl/mxv
 BYTE   W03
 BYTE   VOL   26*song09_mvl/mxv
 BYTE   W02
 BYTE   VOL   32*song09_mvl/mxv
 BYTE   W24
 BYTE   W01
 BYTE   N44  As2
 BYTE   N44  Fn3
 BYTE   W48
//  #06 //019   ----------------------------------------
 BYTE   Cn3
 BYTE   N44  Fn3
 BYTE   W48
 BYTE   As2
 BYTE   N44  Cs3
 BYTE   W48
//  #06 //020   ----------------------------------------
 BYTE   N92  As2
 BYTE   N92  Cs3
 BYTE   W96
//  #06 //021   ----------------------------------------
 BYTE   N68  Gs2
 BYTE   N68  Cn3
 BYTE   W24
 BYTE   W03
 BYTE   VOL   26*song09_mvl/mxv
 BYTE   W03
 BYTE   VOL   22*song09_mvl/mxv
 BYTE   W03
 BYTE   VOL   18*song09_mvl/mxv
 BYTE   W03
 BYTE   VOL   12*song09_mvl/mxv
 BYTE   W03
 BYTE   VOL   9*song09_mvl/mxv
 BYTE   W03
 BYTE   VOL   5*song09_mvl/mxv
 BYTE   W03
 BYTE   VOL   1*song09_mvl/mxv
 BYTE   W03
 BYTE   VOL   0*song09_mvl/mxv
 BYTE   W03
 BYTE   VOL   0*song09_mvl/mxv
 BYTE   W03
 BYTE   VOL   0*song09_mvl/mxv
 BYTE   W03
 BYTE   VOL   0*song09_mvl/mxv
 BYTE   W03
 BYTE   VOL   0*song09_mvl/mxv
 BYTE   W03
 BYTE   VOL   0*song09_mvl/mxv
 BYTE   W03
 BYTE   VOL   0*song09_mvl/mxv
 BYTE   W03
 BYTE   VOL   0*song09_mvl/mxv
 BYTE   W03
 BYTE   VOL   0*song09_mvl/mxv
 BYTE   W24
//  #06 //022   ----------------------------------------
 BYTE   VOL   32*song09_mvl/mxv
 BYTE   W96
//  #06 //023   ----------------------------------------
 BYTE   W96
//  #06 //024   ----------------------------------------
 BYTE   W96
//  #06 //025   ----------------------------------------
 BYTE   W96
//  #06 //026   ----------------------------------------
 BYTE   GoTo
  POIN2 Label_0104E272
 BYTE   FINE

//**************** Track 7 (Midi-Chn.6) ****************//

song09_007:
//  #07 //000   ----------------------------------------
 BYTE   KEYSH   song09_key+0
Label_0104D74A:
 BYTE   VOICE   62
 BYTE   MODT 0
 BYTE   LFOS 44
 BYTE   VOL   38*song09_mvl/mxv
 BYTE   PAN   c_v+48
 BYTE   VOL   0*song09_mvl/mxv
 BYTE   BEND   c_v+0
 BYTE   W96
//  #07 //001   ----------------------------------------
 BYTE   W96
//  #07 //002   ----------------------------------------
 BYTE   W96
//  #07 //003   ----------------------------------------
 BYTE   W96
//  #07 //004   ----------------------------------------
 BYTE   W96
//  #07 //005   ----------------------------------------
 BYTE   W96
//  #07 //006   ----------------------------------------
 BYTE   W96
//  #07 //007   ----------------------------------------
 BYTE   W48
 BYTE   VOL   0*song09_mvl/mxv
 BYTE   N44  Dn3  v108
 BYTE   W06
 BYTE   VOL   0*song09_mvl/mxv
 BYTE   W03
 BYTE   VOL   0*song09_mvl/mxv
 BYTE   W03
 BYTE   VOL   0*song09_mvl/mxv
 BYTE   W03
 BYTE   VOL   0*song09_mvl/mxv
 BYTE   W03
 BYTE   VOL   0*song09_mvl/mxv
 BYTE   W03
 BYTE   VOL   2*song09_mvl/mxv
 BYTE   W03
 BYTE   VOL   7*song09_mvl/mxv
 BYTE   W03
 BYTE   VOL   12*song09_mvl/mxv
 BYTE   W03
 BYTE   VOL   20*song09_mvl/mxv
 BYTE   W03
 BYTE   VOL   27*song09_mvl/mxv
 BYTE   W03
 BYTE   VOL   38*song09_mvl/mxv
 BYTE   W12
//  #07 //008   ----------------------------------------
 BYTE   N92  Cs3
 BYTE   W96
//  #07 //009   ----------------------------------------
 BYTE   Ds3
 BYTE   W96
//  #07 //010   ----------------------------------------
 BYTE   N44  Cs3
 BYTE   W48
 BYTE   Cn3
 BYTE   W48
//  #07 //011   ----------------------------------------
 BYTE   Ds3
 BYTE   W48
 BYTE   Dn3
 BYTE   W48
//  #07 //012   ----------------------------------------
 BYTE   N92  Cs3
 BYTE   W96
//  #07 //013   ----------------------------------------
 BYTE   N44  Ds3
 BYTE   W48
 BYTE   N92  Fn3
 BYTE   W48
//  #07 //014   ----------------------------------------
 BYTE   W48
 BYTE   N44  As3
 BYTE   W48
//  #07 //015   ----------------------------------------
 BYTE   Gs3
 BYTE   W48
 BYTE   VOL   0*song09_mvl/mxv
 BYTE   N44  As3  v127
 BYTE   W06
 BYTE   VOL   0*song09_mvl/mxv
 BYTE   W03
 BYTE   VOL   3*song09_mvl/mxv
 BYTE   W03
 BYTE   VOL   5*song09_mvl/mxv
 BYTE   W03
 BYTE   VOL   8*song09_mvl/mxv
 BYTE   W03
 BYTE   VOL   11*song09_mvl/mxv
 BYTE   W03
 BYTE   VOL   17*song09_mvl/mxv
 BYTE   W03
 BYTE   VOL   23*song09_mvl/mxv
 BYTE   W03
 BYTE   VOL   30*song09_mvl/mxv
 BYTE   W03
 BYTE   VOL   38*song09_mvl/mxv
 BYTE   W18
//  #07 //016   ----------------------------------------
 BYTE   N92  As3  v108
 BYTE   W96
//  #07 //017   ----------------------------------------
 BYTE   Gs3
 BYTE   W17
 BYTE   VOL   37*song09_mvl/mxv
 BYTE   W03
 BYTE   VOL   34*song09_mvl/mxv
 BYTE   W04
 BYTE   VOL   33*song09_mvl/mxv
 BYTE   W04
 BYTE   VOL   31*song09_mvl/mxv
 BYTE   W03
 BYTE   VOL   30*song09_mvl/mxv
 BYTE   W03
 BYTE   VOL   27*song09_mvl/mxv
 BYTE   W04
 BYTE   VOL   26*song09_mvl/mxv
 BYTE   W03
 BYTE   VOL   25*song09_mvl/mxv
 BYTE   W03
 BYTE   VOL   21*song09_mvl/mxv
 BYTE   W04
 BYTE   VOL   20*song09_mvl/mxv
 BYTE   W03
 BYTE   VOL   18*song09_mvl/mxv
 BYTE   W03
 BYTE   VOL   17*song09_mvl/mxv
 BYTE   W04
 BYTE   VOL   15*song09_mvl/mxv
 BYTE   W03
 BYTE   VOL   13*song09_mvl/mxv
 BYTE   W03
 BYTE   VOL   11*song09_mvl/mxv
 BYTE   W04
 BYTE   VOL   11*song09_mvl/mxv
 BYTE   W03
 BYTE   VOL   9*song09_mvl/mxv
 BYTE   W03
 BYTE   VOL   8*song09_mvl/mxv
 BYTE   W04
 BYTE   VOL   6*song09_mvl/mxv
 BYTE   W03
 BYTE   VOL   3*song09_mvl/mxv
 BYTE   W04
 BYTE   VOL   2*song09_mvl/mxv
 BYTE   W03
 BYTE   VOL   0*song09_mvl/mxv
 BYTE   W03
 BYTE   VOL   0*song09_mvl/mxv
 BYTE   W05
//  #07 //018   ----------------------------------------
 BYTE   N44  Cs3
 BYTE   W03
 BYTE   VOL   3*song09_mvl/mxv
 BYTE   W03
 BYTE   VOL   8*song09_mvl/mxv
 BYTE   W03
 BYTE   VOL   11*song09_mvl/mxv
 BYTE   W03
 BYTE   VOL   18*song09_mvl/mxv
 BYTE   W03
 BYTE   VOL   22*song09_mvl/mxv
 BYTE   W03
 BYTE   VOL   27*song09_mvl/mxv
 BYTE   W03
 BYTE   VOL   32*song09_mvl/mxv
 BYTE   W02
 BYTE   VOL   38*song09_mvl/mxv
 BYTE   W24
 BYTE   W01
 BYTE   N44  Cn3
 BYTE   W48
//  #07 //019   ----------------------------------------
 BYTE   Ds3
 BYTE   W48
 BYTE   Fn3
 BYTE   W48
//  #07 //020   ----------------------------------------
 BYTE   Fs3
 BYTE   W48
 BYTE   Fn3
 BYTE   W48
//  #07 //021   ----------------------------------------
 BYTE   N68  Ds3
 BYTE   W24
 BYTE   W03
 BYTE   VOL   32*song09_mvl/mxv
 BYTE   W03
 BYTE   VOL   27*song09_mvl/mxv
 BYTE   W03
 BYTE   VOL   22*song09_mvl/mxv
 BYTE   W03
 BYTE   VOL   18*song09_mvl/mxv
 BYTE   W03
 BYTE   VOL   12*song09_mvl/mxv
 BYTE   W03
 BYTE   VOL   9*song09_mvl/mxv
 BYTE   W03
 BYTE   VOL   4*song09_mvl/mxv
 BYTE   W03
 BYTE   VOL   0*song09_mvl/mxv
 BYTE   W03
 BYTE   VOL   0*song09_mvl/mxv
 BYTE   W03
 BYTE   VOL   0*song09_mvl/mxv
 BYTE   W03
 BYTE   VOL   0*song09_mvl/mxv
 BYTE   W03
 BYTE   VOL   0*song09_mvl/mxv
 BYTE   W03
 BYTE   VOL   0*song09_mvl/mxv
 BYTE   W03
 BYTE   VOL   0*song09_mvl/mxv
 BYTE   W03
 BYTE   VOL   0*song09_mvl/mxv
 BYTE   W03
 BYTE   VOL   0*song09_mvl/mxv
 BYTE   W24
//  #07 //022   ----------------------------------------
 BYTE   VOL   38*song09_mvl/mxv
 BYTE   W96
//  #07 //023   ----------------------------------------
 BYTE   W96
//  #07 //024   ----------------------------------------
 BYTE   W96
//  #07 //025   ----------------------------------------
 BYTE   W96
//  #07 //026   ----------------------------------------
 BYTE   GoTo
  POIN2 Label_0104D74A
 BYTE   FINE

//**************** Track 8 (Midi-Chn.7) ****************//

song09_008:
//  #08 //000   ----------------------------------------
 BYTE   KEYSH   song09_key+0
Label_0104A20A:
 BYTE   VOICE   44
 BYTE   MODT 0
 BYTE   LFOS 44
 BYTE   VOL   26*song09_mvl/mxv
 BYTE   PAN   c_v+16
 BYTE   VOL   26*song09_mvl/mxv
 BYTE   BEND   c_v+0
 BYTE   W96
//  #08 //001   ----------------------------------------
 BYTE   W96
//  #08 //002   ----------------------------------------
 BYTE   W96
//  #08 //003   ----------------------------------------
 BYTE   W96
//  #08 //004   ----------------------------------------
 BYTE   W96
//  #08 //005   ----------------------------------------
 BYTE   W96
//  #08 //006   ----------------------------------------
 BYTE   W96
//  #08 //007   ----------------------------------------
 BYTE   W48
 BYTE   N48  As0  v127
 BYTE   W48
//  #08 //008   ----------------------------------------
 BYTE   N96  Ds1
 BYTE   W96
//  #08 //009   ----------------------------------------
 BYTE   Gs1
 BYTE   W96
//  #08 //010   ----------------------------------------
 BYTE   TIE  As1
 BYTE   W96
//  #08 //011   ----------------------------------------
 BYTE   W96
//  #08 //012   ----------------------------------------
 BYTE   EOT
 BYTE   N96  Ds1
 BYTE   W96
//  #08 //013   ----------------------------------------
 BYTE   Fn1
 BYTE   W96
//  #08 //014   ----------------------------------------
 BYTE   Fs1
 BYTE   W96
//  #08 //015   ----------------------------------------
 BYTE   N42  Gs1
 BYTE   W48
 BYTE   N12  Gs2
 BYTE   W18
 BYTE   Ds2
 BYTE   W18
 BYTE   Gs1
 BYTE   W12
//  #08 //016   ----------------------------------------
 BYTE   N96  Fs1
 BYTE   W96
//  #08 //017   ----------------------------------------
 BYTE   Gs1
 BYTE   W96
//  #08 //018   ----------------------------------------
 BYTE   TIE  As1
 BYTE   W96
//  #08 //019   ----------------------------------------
 BYTE   W96
//  #08 //020   ----------------------------------------
 BYTE   EOT
 BYTE   N96  Ds1
 BYTE   W96
//  #08 //021   ----------------------------------------
 BYTE   N72  Fn1
 BYTE   W21
 BYTE   VOL   22*song09_mvl/mxv
 BYTE   W03
 BYTE   VOL   18*song09_mvl/mxv
 BYTE   W03
 BYTE   VOL   17*song09_mvl/mxv
 BYTE   W03
 BYTE   VOL   12*song09_mvl/mxv
 BYTE   W03
 BYTE   VOL   11*song09_mvl/mxv
 BYTE   W03
 BYTE   VOL   8*song09_mvl/mxv
 BYTE   W03
 BYTE   VOL   5*song09_mvl/mxv
 BYTE   W03
 BYTE   VOL   1*song09_mvl/mxv
 BYTE   W03
 BYTE   VOL   0*song09_mvl/mxv
 BYTE   W03
 BYTE   VOL   0*song09_mvl/mxv
 BYTE   W03
 BYTE   VOL   0*song09_mvl/mxv
 BYTE   W03
 BYTE   VOL   0*song09_mvl/mxv
 BYTE   W03
 BYTE   VOL   0*song09_mvl/mxv
 BYTE   W03
 BYTE   VOL   0*song09_mvl/mxv
 BYTE   W03
 BYTE   VOL   0*song09_mvl/mxv
 BYTE   W03
 BYTE   VOL   0*song09_mvl/mxv
 BYTE   W03
 BYTE   VOL   0*song09_mvl/mxv
 BYTE   W03
 BYTE   VOL   0*song09_mvl/mxv
 BYTE   W24
//  #08 //022   ----------------------------------------
 BYTE   VOL   26*song09_mvl/mxv
 BYTE   W96
//  #08 //023   ----------------------------------------
 BYTE   W96
//  #08 //024   ----------------------------------------
 BYTE   W96
//  #08 //025   ----------------------------------------
 BYTE   W96
//  #08 //026   ----------------------------------------
 BYTE   GoTo
  POIN2 Label_0104A20A
 BYTE   FINE

//**************** Track 9 (Midi-Chn.8) ****************//

song09_009:
//  #09 //000   ----------------------------------------
 BYTE   KEYSH   song09_key+0
Label_0104A282:
 BYTE   VOICE   29
 BYTE   MODT 0
 BYTE   LFOS 44
 BYTE   VOL   22*song09_mvl/mxv
 BYTE   PAN   c_v+0
 BYTE   VOL   22*song09_mvl/mxv
 BYTE   BEND   c_v+0
 BYTE   N72  As0  v127
 BYTE   W84
 BYTE   N03
 BYTE   W12
//  #09 //001   ----------------------------------------
 BYTE   N90
 BYTE   W96
//  #09 //002   ----------------------------------------
Label_0104A298:
 BYTE   N72  As0  v127
 BYTE   W84
 BYTE   N03
 BYTE   W12
 BYTE   PEND 
//  #09 //003   ----------------------------------------
 BYTE   N90
 BYTE   W96
//  #09 //004   ----------------------------------------
 BYTE   PATT
  POIN2 Label_0104A298
//  #09 //005   ----------------------------------------
 BYTE   N90  As0  v127
 BYTE   W96
//  #09 //006   ----------------------------------------
 BYTE   PATT
  POIN2 Label_0104A298
//  #09 //007   ----------------------------------------
 BYTE   N90  As0  v127
 BYTE   W96
//  #09 //008   ----------------------------------------
Label_0104A2B3:
 BYTE   N72  Ds0  v127
 BYTE   W84
 BYTE   N03
 BYTE   W12
 BYTE   PEND 
//  #09 //009   ----------------------------------------
 BYTE   N90  Gs0
 BYTE   W96
//  #09 //010   ----------------------------------------
 BYTE   PATT
  POIN2 Label_0104A298
//  #09 //011   ----------------------------------------
 BYTE   N90  As0  v127
 BYTE   W96
//  #09 //012   ----------------------------------------
 BYTE   PATT
  POIN2 Label_0104A2B3
//  #09 //013   ----------------------------------------
 BYTE   N90  Fn0  v127
 BYTE   W96
//  #09 //014   ----------------------------------------
Label_0104A2CF:
 BYTE   N72  Fs0  v127
 BYTE   W84
 BYTE   N03
 BYTE   W12
 BYTE   PEND 
//  #09 //015   ----------------------------------------
 BYTE   N90  Gs0
 BYTE   W96
//  #09 //016   ----------------------------------------
 BYTE   PATT
  POIN2 Label_0104A2CF
//  #09 //017   ----------------------------------------
 BYTE   N90  Gs0  v127
 BYTE   W96
//  #09 //018   ----------------------------------------
 BYTE   PATT
  POIN2 Label_0104A298
//  #09 //019   ----------------------------------------
 BYTE   N90  As0  v127
 BYTE   W96
//  #09 //020   ----------------------------------------
 BYTE   N76  Ds0
 BYTE   W84
 BYTE   N03
 BYTE   W12
//  #09 //021   ----------------------------------------
 BYTE   N90  Fn0
 BYTE   W96
//  #09 //022   ----------------------------------------
 BYTE   PATT
  POIN2 Label_0104A298
//  #09 //023   ----------------------------------------
 BYTE   N90  As0  v127
 BYTE   W96
//  #09 //024   ----------------------------------------
 BYTE   PATT
  POIN2 Label_0104A298
//  #09 //025   ----------------------------------------
 BYTE   N90  As0  v127
 BYTE   W96
//  #09 //026   ----------------------------------------
 BYTE   GoTo
  POIN2 Label_0104A282
 BYTE   FINE

//**************** Track 10 (Midi-Chn.9) ****************//

song09_010:
//  #10 //000   ----------------------------------------
 BYTE   KEYSH   song09_key+0
Label_0104D87E:
 BYTE   VOICE   127
 BYTE   MODT 0
 BYTE   LFOS 44
 BYTE   VOL   71*song09_mvl/mxv
 BYTE   PAN   c_v+0
 BYTE   VOL   71*song09_mvl/mxv
 BYTE   BEND   c_v+0
 BYTE   N06  Cn1  v088
 BYTE   W84
 BYTE   N06
 BYTE   W12
//  #10 //001   ----------------------------------------
 BYTE   N06
 BYTE   W96
//  #10 //002   ----------------------------------------
Label_0104D894:
 BYTE   N06  Cn1  v088
 BYTE   W84
 BYTE   N06
 BYTE   W12
 BYTE   PEND 
//  #10 //003   ----------------------------------------
 BYTE   N06
 BYTE   W96
//  #10 //004   ----------------------------------------
 BYTE   PATT
  POIN2 Label_0104D894
//  #10 //005   ----------------------------------------
 BYTE   N06  Cn1  v088
 BYTE   W96
//  #10 //006   ----------------------------------------
 BYTE   PATT
  POIN2 Label_0104D894
//  #10 //007   ----------------------------------------
 BYTE   N06  Cn1  v088
 BYTE   W96
//  #10 //008   ----------------------------------------
 BYTE   PATT
  POIN2 Label_0104D894
//  #10 //009   ----------------------------------------
 BYTE   N06  Cn1  v088
 BYTE   W96
//  #10 //010   ----------------------------------------
 BYTE   PATT
  POIN2 Label_0104D894
//  #10 //011   ----------------------------------------
 BYTE   N06  Cn1  v088
 BYTE   W96
//  #10 //012   ----------------------------------------
 BYTE   PATT
  POIN2 Label_0104D894
//  #10 //013   ----------------------------------------
 BYTE   N06  Cn1  v088
 BYTE   W96
//  #10 //014   ----------------------------------------
 BYTE   PATT
  POIN2 Label_0104D894
//  #10 //015   ----------------------------------------
 BYTE   N06  Cn1  v088
 BYTE   W96
//  #10 //016   ----------------------------------------
 BYTE   PATT
  POIN2 Label_0104D894
//  #10 //017   ----------------------------------------
 BYTE   N06  Cn1  v088
 BYTE   W96
//  #10 //018   ----------------------------------------
 BYTE   PATT
  POIN2 Label_0104D894
//  #10 //019   ----------------------------------------
 BYTE   N06  Cn1  v088
 BYTE   W96
//  #10 //020   ----------------------------------------
 BYTE   PATT
  POIN2 Label_0104D894
//  #10 //021   ----------------------------------------
 BYTE   N06  Cn1  v088
 BYTE   W96
//  #10 //022   ----------------------------------------
 BYTE   PATT
  POIN2 Label_0104D894
//  #10 //023   ----------------------------------------
 BYTE   N06  Cn1  v088
 BYTE   W96
//  #10 //024   ----------------------------------------
 BYTE   PATT
  POIN2 Label_0104D894
//  #10 //025   ----------------------------------------
 BYTE   N06  Cn1  v088
 BYTE   W96
//  #10 //026   ----------------------------------------
 BYTE   GoTo
  POIN2 Label_0104D87E
 BYTE   FINE

//**************** Track 11 (Midi-Chn.10) ****************//

song09_011:
//  #11 //000   ----------------------------------------
 BYTE   KEYSH   song09_key+0
Label_0104D90A:
 BYTE   VOICE   127
 BYTE   MODT 0
 BYTE   LFOS 44
 BYTE   VOL   71*song09_mvl/mxv
 BYTE   PAN   c_v+0
 BYTE   VOL   71*song09_mvl/mxv
 BYTE   BEND   c_v+0
 BYTE   W96
//  #11 //001   ----------------------------------------
 BYTE   W96
//  #11 //002   ----------------------------------------
 BYTE   W96
//  #11 //003   ----------------------------------------
 BYTE   W96
//  #11 //004   ----------------------------------------
 BYTE   W96
//  #11 //005   ----------------------------------------
 BYTE   W96
//  #11 //006   ----------------------------------------
 BYTE   W96
//  #11 //007   ----------------------------------------
 BYTE   W96
//  #11 //008   ----------------------------------------
Label_0104D920:
 BYTE   W48
 BYTE   N06  Ds4  v068
 BYTE   W12
 BYTE   Ds4  v056
 BYTE   W12
 BYTE   Ds4  v044
 BYTE   W12
 BYTE   Ds4  v032
 BYTE   W12
 BYTE   PEND 
//  #11 //009   ----------------------------------------
Label_0104D92F:
 BYTE   N06  Ds4  v024
 BYTE   W12
 BYTE   Ds4  v016
 BYTE   W12
 BYTE   Ds4  v012
 BYTE   W12
 BYTE   Ds4  v004
 BYTE   W12
 BYTE   N48  Bn4  v072
 BYTE   W48
 BYTE   PEND 
//  #11 //010   ----------------------------------------
 BYTE   W96
//  #11 //011   ----------------------------------------
 BYTE   W48
 BYTE   N48
 BYTE   W48
//  #11 //012   ----------------------------------------
 BYTE   PATT
  POIN2 Label_0104D920
//  #11 //013   ----------------------------------------
 BYTE   PATT
  POIN2 Label_0104D92F
//  #11 //014   ----------------------------------------
 BYTE   W96
//  #11 //015   ----------------------------------------
 BYTE   W96
//  #11 //016   ----------------------------------------
 BYTE   PATT
  POIN2 Label_0104D920
//  #11 //017   ----------------------------------------
 BYTE   PATT
  POIN2 Label_0104D92F
//  #11 //018   ----------------------------------------
 BYTE   W96
//  #11 //019   ----------------------------------------
 BYTE   W48
 BYTE   N48  Bn4  v072
 BYTE   W48
//  #11 //020   ----------------------------------------
 BYTE   PATT
  POIN2 Label_0104D920
//  #11 //021   ----------------------------------------
 BYTE   PATT
  POIN2 Label_0104D92F
//  #11 //022   ----------------------------------------
 BYTE   W96
//  #11 //023   ----------------------------------------
 BYTE   W96
//  #11 //024   ----------------------------------------
 BYTE   W96
//  #11 //025   ----------------------------------------
 BYTE   W96
//  #11 //026   ----------------------------------------
 BYTE   GoTo
  POIN2 Label_0104D90A
 BYTE   FINE

//**************** Track 12 (Midi-Chn.11) ****************//

song09_012:
//  #12 //000   ----------------------------------------
 BYTE   KEYSH   song09_key+0
Label_0104BA02:
 BYTE   VOICE   127
 BYTE   MODT 0
 BYTE   LFOS 44
 BYTE   VOL   71*song09_mvl/mxv
 BYTE   PAN   c_v+0
 BYTE   VOL   71*song09_mvl/mxv
 BYTE   BEND   c_v+0
 BYTE   N06  Fs1  v080
 BYTE   W12
 BYTE   Fs1  v040
 BYTE   W12
 BYTE   Fs1  v032
 BYTE   W12
 BYTE   N06
 BYTE   W12
 BYTE   Fs1  v028
 BYTE   W12
 BYTE   Fs1  v024
 BYTE   W12
 BYTE   N06
 BYTE   W12
 BYTE   N12  As1  v040
 BYTE   W12
//  #12 //001   ----------------------------------------
Label_0104BA28:
 BYTE   N06  Fs1  v080
 BYTE   W12
 BYTE   Fs1  v040
 BYTE   W12
 BYTE   Fs1  v032
 BYTE   W12
 BYTE   N06
 BYTE   W12
 BYTE   Fs1  v028
 BYTE   W12
 BYTE   Fs1  v024
 BYTE   W12
 BYTE   Fs1  v056
 BYTE   W24
 BYTE   PEND 
//  #12 //002   ----------------------------------------
Label_0104BA3E:
 BYTE   N06  Fs1  v080
 BYTE   W12
 BYTE   Fs1  v040
 BYTE   W12
 BYTE   Fs1  v032
 BYTE   W12
 BYTE   N06
 BYTE   W12
 BYTE   Fs1  v028
 BYTE   W12
 BYTE   Fs1  v024
 BYTE   W12
 BYTE   N06
 BYTE   W12
 BYTE   N12  As1  v040
 BYTE   W12
 BYTE   PEND 
//  #12 //003   ----------------------------------------
 BYTE   PATT
  POIN2 Label_0104BA28
//  #12 //004   ----------------------------------------
 BYTE   PATT
  POIN2 Label_0104BA3E
//  #12 //005   ----------------------------------------
 BYTE   PATT
  POIN2 Label_0104BA28
//  #12 //006   ----------------------------------------
 BYTE   PATT
  POIN2 Label_0104BA3E
//  #12 //007   ----------------------------------------
 BYTE   PATT
  POIN2 Label_0104BA28
//  #12 //008   ----------------------------------------
 BYTE   W12
 BYTE   N06  Fs1  v040
 BYTE   W12
 BYTE   Fs1  v032
 BYTE   W12
 BYTE   N06
 BYTE   W12
 BYTE   Fs1  v028
 BYTE   W12
 BYTE   Fs1  v024
 BYTE   W12
 BYTE   N06
 BYTE   W12
 BYTE   N12  As1  v040
 BYTE   W12
//  #12 //009   ----------------------------------------
 BYTE   PATT
  POIN2 Label_0104BA28
//  #12 //010   ----------------------------------------
 BYTE   PATT
  POIN2 Label_0104BA3E
//  #12 //011   ----------------------------------------
 BYTE   PATT
  POIN2 Label_0104BA28
//  #12 //012   ----------------------------------------
 BYTE   PATT
  POIN2 Label_0104BA3E
//  #12 //013   ----------------------------------------
 BYTE   PATT
  POIN2 Label_0104BA28
//  #12 //014   ----------------------------------------
 BYTE   PATT
  POIN2 Label_0104BA3E
//  #12 //015   ----------------------------------------
 BYTE   PATT
  POIN2 Label_0104BA28
//  #12 //016   ----------------------------------------
 BYTE   PATT
  POIN2 Label_0104BA3E
//  #12 //017   ----------------------------------------
 BYTE   PATT
  POIN2 Label_0104BA28
//  #12 //018   ----------------------------------------
 BYTE   PATT
  POIN2 Label_0104BA3E
//  #12 //019   ----------------------------------------
 BYTE   PATT
  POIN2 Label_0104BA28
//  #12 //020   ----------------------------------------
 BYTE   PATT
  POIN2 Label_0104BA3E
//  #12 //021   ----------------------------------------
 BYTE   N06  Fs1  v080
 BYTE   W12
 BYTE   Fs1  v040
 BYTE   W12
 BYTE   Fs1  v024
 BYTE   W12
 BYTE   Fs1  v016
 BYTE   W12
 BYTE   Fs1  v012
 BYTE   W12
 BYTE   Fs1  v004
 BYTE   W12
 BYTE   N06
 BYTE   W24
//  #12 //022   ----------------------------------------
 BYTE   PATT
  POIN2 Label_0104BA3E
//  #12 //023   ----------------------------------------
 BYTE   PATT
  POIN2 Label_0104BA28
//  #12 //024   ----------------------------------------
 BYTE   PATT
  POIN2 Label_0104BA3E
//  #12 //025   ----------------------------------------
 BYTE   PATT
  POIN2 Label_0104BA28
//  #12 //026   ----------------------------------------
 BYTE   GoTo
  POIN2 Label_0104BA02
 BYTE   FINE

//**************** Track 13 (Midi-Chn.12) ****************//

song09_013:
//  #13 //000   ----------------------------------------
 BYTE   KEYSH   song09_key+0
Label_0104E516:
 BYTE   VOICE   47
 BYTE   MODT 0
 BYTE   LFOS 44
 BYTE   VOL   64*song09_mvl/mxv
 BYTE   PAN   c_v-48
 BYTE   VOL   64*song09_mvl/mxv
 BYTE   BEND   c_v+0
 BYTE   W96
//  #13 //001   ----------------------------------------
 BYTE   W96
//  #13 //002   ----------------------------------------
 BYTE   W96
//  #13 //003   ----------------------------------------
 BYTE   W96
//  #13 //004   ----------------------------------------
 BYTE   W96
//  #13 //005   ----------------------------------------
 BYTE   W96
//  #13 //006   ----------------------------------------
 BYTE   W96
//  #13 //007   ----------------------------------------
 BYTE   W48
 BYTE   N02  As1  v056
 BYTE   W02
 BYTE   As1  v052
 BYTE   W02
 BYTE   As1  v048
 BYTE   W03
 BYTE   As1  v040
 BYTE   W02
 BYTE   As1  v036
 BYTE   W03
 BYTE   N02
 BYTE   W02
 BYTE   N02
 BYTE   W02
 BYTE   As1  v032
 BYTE   W03
 BYTE   N02
 BYTE   W02
 BYTE   As1  v036
 BYTE   W03
 BYTE   N02
 BYTE   W02
 BYTE   N02
 BYTE   W02
 BYTE   As1  v044
 BYTE   W03
 BYTE   As1  v048
 BYTE   W02
 BYTE   As1  v052
 BYTE   W03
 BYTE   As1  v060
 BYTE   W02
 BYTE   As1  v076
 BYTE   W02
 BYTE   As1  v096
 BYTE   W03
 BYTE   As1  v112
 BYTE   W02
 BYTE   As1  v127
 BYTE   W03
//  #13 //008   ----------------------------------------
 BYTE   N48  Ds2
 BYTE   W96
//  #13 //009   ----------------------------------------
 BYTE   W96
//  #13 //010   ----------------------------------------
 BYTE   W96
//  #13 //011   ----------------------------------------
 BYTE   W96
//  #13 //012   ----------------------------------------
 BYTE   W96
//  #13 //013   ----------------------------------------
 BYTE   W96
//  #13 //014   ----------------------------------------
 BYTE   W96
//  #13 //015   ----------------------------------------
 BYTE   W48
 BYTE   N02  Gs1  v056
 BYTE   W02
 BYTE   Gs1  v052
 BYTE   W02
 BYTE   Gs1  v048
 BYTE   W03
 BYTE   Gs1  v040
 BYTE   W02
 BYTE   Gs1  v036
 BYTE   W03
 BYTE   N02
 BYTE   W02
 BYTE   N02
 BYTE   W02
 BYTE   Gs1  v032
 BYTE   W03
 BYTE   N02
 BYTE   W02
 BYTE   Gs1  v036
 BYTE   W03
 BYTE   N02
 BYTE   W02
 BYTE   N02
 BYTE   W02
 BYTE   Gs1  v044
 BYTE   W03
 BYTE   Gs1  v048
 BYTE   W02
 BYTE   Gs1  v052
 BYTE   W03
 BYTE   Gs1  v060
 BYTE   W02
 BYTE   Gs1  v076
 BYTE   W02
 BYTE   Gs1  v096
 BYTE   W03
 BYTE   Gs1  v112
 BYTE   W02
 BYTE   Gs1  v127
 BYTE   W03
//  #13 //016   ----------------------------------------
 BYTE   N48  Fs1
 BYTE   W96
//  #13 //017   ----------------------------------------
 BYTE   W96
//  #13 //018   ----------------------------------------
 BYTE   W96
//  #13 //019   ----------------------------------------
 BYTE   W96
//  #13 //020   ----------------------------------------
 BYTE   W96
//  #13 //021   ----------------------------------------
 BYTE   W96
//  #13 //022   ----------------------------------------
 BYTE   W96
//  #13 //023   ----------------------------------------
 BYTE   W96
//  #13 //024   ----------------------------------------
 BYTE   W96
//  #13 //025   ----------------------------------------
 BYTE   W96
//  #13 //026   ----------------------------------------
 BYTE   GoTo
  POIN2 Label_0104E516
 BYTE   FINE

//**************** Track 14 (Midi-Chn.13) ****************//

song09_014:
//  #14 //000   ----------------------------------------
 BYTE   KEYSH   song09_key+0
Label_0104DFFA:
 BYTE   VOICE   28
 BYTE   MODT 0
 BYTE   LFOS 44
 BYTE   BENDR  8
 BYTE   VOL   16*song09_mvl/mxv
 BYTE   PAN   c_v+0
 BYTE   VOL   16*song09_mvl/mxv
 BYTE   BEND   c_v+0
 BYTE   N12  As1  v096
 BYTE   W12
 BYTE   As1  v048
 BYTE   N12  Fn2  v092
 BYTE   W12
 BYTE   Fn2  v048
 BYTE   N12  Cn3  v084
 BYTE   W12
 BYTE   Cs3
 BYTE   W12
 BYTE   Cs3  v048
 BYTE   N12  Gs3  v084
 BYTE   W12
 BYTE   Cs3
 BYTE   N12  Gs3  v048
 BYTE   W12
 BYTE   Cn3  v088
 BYTE   W12
 BYTE   Fn2
 BYTE   N12  Cn3  v048
 BYTE   W12
//  #14 //001   ----------------------------------------
Label_0104E02F:
 BYTE   N12  As1  v096
 BYTE   N12  Fn2  v048
 BYTE   W12
 BYTE   As1
 BYTE   N12  Fs2  v088
 BYTE   W12
 BYTE   Fs2  v048
 BYTE   N12  Cn3  v088
 BYTE   W12
 BYTE   Cs3  v084
 BYTE   W12
 BYTE   Cs3  v048
 BYTE   N12  Gs3  v088
 BYTE   W12
 BYTE   Cs3
 BYTE   N12  Gs3  v048
 BYTE   W12
 BYTE   N24  Fs2  v084
 BYTE   W24
 BYTE   PEND 
//  #14 //002   ----------------------------------------
Label_0104E054:
 BYTE   N12  As1  v096
 BYTE   W12
 BYTE   As1  v048
 BYTE   N12  Fn2  v088
 BYTE   W12
 BYTE   Fn2  v048
 BYTE   N12  Cn3  v084
 BYTE   W12
 BYTE   Cs3  v088
 BYTE   W12
 BYTE   Cs3  v048
 BYTE   N12  Gs3  v084
 BYTE   W12
 BYTE   Cs3
 BYTE   N12  Gs3  v048
 BYTE   W12
 BYTE   Cn3  v088
 BYTE   W12
 BYTE   Fn2
 BYTE   N12  Cn3  v048
 BYTE   W12
 BYTE   PEND 
//  #14 //003   ----------------------------------------
Label_0104E07B:
 BYTE   N12  As1  v096
 BYTE   N12  Fn2  v048
 BYTE   W12
 BYTE   As1
 BYTE   N12  Fs2  v084
 BYTE   W12
 BYTE   Fs2  v048
 BYTE   N12  Cn3  v088
 BYTE   W12
 BYTE   Cs3  v092
 BYTE   W12
 BYTE   Cs3  v048
 BYTE   N12  Gs3  v088
 BYTE   W12
 BYTE   Cs3  v084
 BYTE   N12  Gs3  v048
 BYTE   W12
 BYTE   N24  Fs2  v084
 BYTE   W24
 BYTE   PEND 
//  #14 //004   ----------------------------------------
 BYTE   N12  As1  v096
 BYTE   W12
 BYTE   As1  v048
 BYTE   N12  Fn2  v092
 BYTE   W12
 BYTE   Fn2  v048
 BYTE   N12  Cn3  v088
 BYTE   W12
 BYTE   Cs3  v084
 BYTE   W12
 BYTE   Cs3  v048
 BYTE   N12  Gs3  v092
 BYTE   W12
 BYTE   Cs3  v088
 BYTE   N12  Gs3  v048
 BYTE   W12
 BYTE   Cn3  v088
 BYTE   W12
 BYTE   Fn2  v092
 BYTE   N12  Cn3  v048
 BYTE   W12
//  #14 //005   ----------------------------------------
 BYTE   As1  v096
 BYTE   N12  Fn2  v048
 BYTE   W12
 BYTE   As1
 BYTE   N12  Fs2  v088
 BYTE   W12
 BYTE   Fs2  v048
 BYTE   N12  Cn3  v088
 BYTE   W12
 BYTE   Cs3  v092
 BYTE   W12
 BYTE   Cs3  v048
 BYTE   N12  Gs3  v084
 BYTE   W12
 BYTE   Cs3
 BYTE   N12  Gs3  v048
 BYTE   W12
 BYTE   N24  Fs2  v084
 BYTE   W24
//  #14 //006   ----------------------------------------
 BYTE   N12  As1  v096
 BYTE   W12
 BYTE   As1  v048
 BYTE   N12  Fn2  v088
 BYTE   W12
 BYTE   Fn2  v048
 BYTE   N12  Cn3  v092
 BYTE   W12
 BYTE   Cs3  v084
 BYTE   W12
 BYTE   Cs3  v048
 BYTE   N12  Gs3  v092
 BYTE   W12
 BYTE   Cs3
 BYTE   N12  Gs3  v048
 BYTE   W12
 BYTE   Cn3  v088
 BYTE   W12
 BYTE   Fn2  v084
 BYTE   N12  Cn3  v048
 BYTE   W12
//  #14 //007   ----------------------------------------
 BYTE   As1  v096
 BYTE   N12  Fn2  v048
 BYTE   W12
 BYTE   As1
 BYTE   N12  Fn2  v088
 BYTE   W12
 BYTE   Fn2  v048
 BYTE   N12  Cn3  v088
 BYTE   W12
 BYTE   Cs3
 BYTE   W12
 BYTE   Cs3  v048
 BYTE   N12  As3  v080
 BYTE   W12
 BYTE   As2  v072
 BYTE   W12
 BYTE   N24  As1  v068
 BYTE   W24
//  #14 //008   ----------------------------------------
Label_0104E133:
 BYTE   BEND   c_v+0
 BYTE   N96  CnM1  v127
 BYTE   W96
 BYTE   PEND 
//  #14 //009   ----------------------------------------
 BYTE   EnM1
 BYTE   W96
//  #14 //010   ----------------------------------------
Label_0104E13C:
 BYTE   BEND   c_v-8
 BYTE   TIE  GnM1  v127
 BYTE   W96
 BYTE   PEND 
//  #14 //011   ----------------------------------------
 BYTE   W96
//  #14 //012   ----------------------------------------
 BYTE   EOT
//  #14 //013   ----------------------------------------
 BYTE   PATT
  POIN2 Label_0104E133
//  #14 //014   ----------------------------------------
Label_0104E14A:
 BYTE   BEND   c_v+16
 BYTE   N96  CnM1  v127
 BYTE   W96
 BYTE   PEND 
//  #14 //015   ----------------------------------------
 BYTE   BEND   c_v+0
 BYTE   N96  AnM1
 BYTE   W96
//  #14 //016   ----------------------------------------
 BYTE   PATT
  POIN2 Label_0104E14A
//  #14 //017   ----------------------------------------
 BYTE   PATT
  POIN2 Label_0104E133
//  #14 //018   ----------------------------------------
 BYTE   N96  Cn0  v127
 BYTE   W96
//  #14 //019   ----------------------------------------
 BYTE   PATT
  POIN2 Label_0104E13C
//  #14 //020   ----------------------------------------
 BYTE   W96
//  #14 //021   ----------------------------------------
 BYTE   EOT
 BYTE   GnM1
 BYTE   BEND   c_v+0
 BYTE   N96  EnM1  v127
 BYTE   W96
//  #14 //022   ----------------------------------------
 BYTE   BEND   c_v+16
 BYTE   N96
 BYTE   W96
//  #14 //023   ----------------------------------------
 BYTE   BEND   c_v+0
 BYTE   N12  As1  v096
 BYTE   W12
 BYTE   As1  v048
 BYTE   N12  Fn2  v092
 BYTE   W12
 BYTE   Fn2  v048
 BYTE   N12  Cn3  v084
 BYTE   W12
 BYTE   Cs3
 BYTE   W12
 BYTE   Cs3  v048
 BYTE   N12  Gs3  v084
 BYTE   W12
 BYTE   Cs3
 BYTE   N12  Gs3  v048
 BYTE   W12
 BYTE   Cn3  v088
 BYTE   W12
 BYTE   Fn2
 BYTE   N12  Cn3  v048
 BYTE   W12
//  #14 //024   ----------------------------------------
 BYTE   PATT
  POIN2 Label_0104E02F
//  #14 //025   ----------------------------------------
 BYTE   PATT
  POIN2 Label_0104E054
//  #14 //026   ----------------------------------------
 BYTE   PATT
  POIN2 Label_0104E07B
//  #14 //027   ----------------------------------------
 BYTE   GoTo
  POIN2 Label_0104DFFA
 BYTE   FINE

//**************** Track 15 (Midi-Chn.14) ****************//

song09_015:
//  #15 //000   ----------------------------------------
 BYTE   KEYSH   song09_key+0
Label_0104D9DE:
 BYTE   VOICE   29
 BYTE   MODT 0
 BYTE   LFOS 44
 BYTE   BENDR  8
 BYTE   VOL   16*song09_mvl/mxv
 BYTE   PAN   c_v+0
 BYTE   VOL   16*song09_mvl/mxv
 BYTE   BEND   c_v+0
 BYTE   N12  As1  v096
 BYTE   W12
 BYTE   As1  v048
 BYTE   N12  Fn2  v092
 BYTE   W12
 BYTE   Fn2  v048
 BYTE   N12  Cn3  v084
 BYTE   W12
 BYTE   Cs3
 BYTE   W12
 BYTE   Cs3  v048
 BYTE   N12  Gs3  v084
 BYTE   W12
 BYTE   Cs3
 BYTE   N12  Gs3  v048
 BYTE   W12
 BYTE   Cn3  v088
 BYTE   W12
 BYTE   Fn2
 BYTE   N12  Cn3  v048
 BYTE   W12
//  #15 //001   ----------------------------------------
Label_0104DA13:
 BYTE   N12  As1  v096
 BYTE   N12  Fn2  v048
 BYTE   W12
 BYTE   As1
 BYTE   N12  Fs2  v088
 BYTE   W12
 BYTE   Fs2  v048
 BYTE   N12  Cn3  v088
 BYTE   W12
 BYTE   Cs3  v084
 BYTE   W12
 BYTE   Cs3  v048
 BYTE   N12  Gs3  v088
 BYTE   W12
 BYTE   Cs3
 BYTE   N12  Gs3  v048
 BYTE   W12
 BYTE   N24  Fs2  v084
 BYTE   W24
 BYTE   PEND 
//  #15 //002   ----------------------------------------
Label_0104DA38:
 BYTE   N12  As1  v096
 BYTE   W12
 BYTE   As1  v048
 BYTE   N12  Fn2  v088
 BYTE   W12
 BYTE   Fn2  v048
 BYTE   N12  Cn3  v084
 BYTE   W12
 BYTE   Cs3  v088
 BYTE   W12
 BYTE   Cs3  v048
 BYTE   N12  Gs3  v084
 BYTE   W12
 BYTE   Cs3
 BYTE   N12  Gs3  v048
 BYTE   W12
 BYTE   Cn3  v088
 BYTE   W12
 BYTE   Fn2
 BYTE   N12  Cn3  v048
 BYTE   W12
 BYTE   PEND 
//  #15 //003   ----------------------------------------
Label_0104DA5F:
 BYTE   N12  As1  v096
 BYTE   N12  Fn2  v048
 BYTE   W12
 BYTE   As1
 BYTE   N12  Fs2  v084
 BYTE   W12
 BYTE   Fs2  v048
 BYTE   N12  Cn3  v088
 BYTE   W12
 BYTE   Cs3  v092
 BYTE   W12
 BYTE   Cs3  v048
 BYTE   N12  Gs3  v088
 BYTE   W12
 BYTE   Cs3  v084
 BYTE   N12  Gs3  v048
 BYTE   W12
 BYTE   N24  Fs2  v084
 BYTE   W24
 BYTE   PEND 
//  #15 //004   ----------------------------------------
 BYTE   N12  As1  v096
 BYTE   W12
 BYTE   As1  v048
 BYTE   N12  Fn2  v092
 BYTE   W12
 BYTE   Fn2  v048
 BYTE   N12  Cn3  v088
 BYTE   W12
 BYTE   Cs3  v084
 BYTE   W12
 BYTE   Cs3  v048
 BYTE   N12  Gs3  v092
 BYTE   W12
 BYTE   Cs3  v088
 BYTE   N12  Gs3  v048
 BYTE   W12
 BYTE   Cn3  v088
 BYTE   W12
 BYTE   Fn2  v092
 BYTE   N12  Cn3  v048
 BYTE   W12
//  #15 //005   ----------------------------------------
 BYTE   As1  v096
 BYTE   N12  Fn2  v048
 BYTE   W12
 BYTE   As1
 BYTE   N12  Fs2  v088
 BYTE   W12
 BYTE   Fs2  v048
 BYTE   N12  Cn3  v088
 BYTE   W12
 BYTE   Cs3  v092
 BYTE   W12
 BYTE   Cs3  v048
 BYTE   N12  Gs3  v084
 BYTE   W12
 BYTE   Cs3
 BYTE   N12  Gs3  v048
 BYTE   W12
 BYTE   N24  Fs2  v084
 BYTE   W24
//  #15 //006   ----------------------------------------
 BYTE   N12  As1  v096
 BYTE   W12
 BYTE   As1  v048
 BYTE   N12  Fn2  v088
 BYTE   W12
 BYTE   Fn2  v048
 BYTE   N12  Cn3  v092
 BYTE   W12
 BYTE   Cs3  v084
 BYTE   W12
 BYTE   Cs3  v048
 BYTE   N12  Gs3  v092
 BYTE   W12
 BYTE   Cs3
 BYTE   N12  Gs3  v048
 BYTE   W12
 BYTE   Cn3  v088
 BYTE   W12
 BYTE   Fn2  v084
 BYTE   N12  Cn3  v048
 BYTE   W12
//  #15 //007   ----------------------------------------
 BYTE   As1  v096
 BYTE   N12  Fn2  v048
 BYTE   W12
 BYTE   As1
 BYTE   N12  Fn2  v088
 BYTE   W12
 BYTE   Fn2  v048
 BYTE   N12  Cn3  v088
 BYTE   W12
 BYTE   Cs3
 BYTE   W12
 BYTE   Cs3  v048
 BYTE   N12  As3  v080
 BYTE   W12
 BYTE   As2  v072
 BYTE   W12
 BYTE   N24  As1  v068
 BYTE   W24
//  #15 //008   ----------------------------------------
Label_0104DB17:
 BYTE   BEND   c_v+0
 BYTE   N96  CnM1  v127
 BYTE   W96
 BYTE   PEND 
//  #15 //009   ----------------------------------------
 BYTE   EnM1
 BYTE   W96
//  #15 //010   ----------------------------------------
Label_0104DB20:
 BYTE   BEND   c_v-8
 BYTE   TIE  GnM1  v127
 BYTE   W96
 BYTE   PEND 
//  #15 //011   ----------------------------------------
 BYTE   W96
//  #15 //012   ----------------------------------------
 BYTE   EOT
//  #15 //013   ----------------------------------------
 BYTE   PATT
  POIN2 Label_0104DB17
//  #15 //014   ----------------------------------------
Label_0104DB2E:
 BYTE   BEND   c_v+16
 BYTE   N96  CnM1  v127
 BYTE   W96
 BYTE   PEND 
//  #15 //015   ----------------------------------------
 BYTE   BEND   c_v+0
 BYTE   N96  AnM1
 BYTE   W96
//  #15 //016   ----------------------------------------
 BYTE   PATT
  POIN2 Label_0104DB2E
//  #15 //017   ----------------------------------------
 BYTE   PATT
  POIN2 Label_0104DB17
//  #15 //018   ----------------------------------------
 BYTE   N96  Cn0  v127
 BYTE   W96
//  #15 //019   ----------------------------------------
 BYTE   PATT
  POIN2 Label_0104DB20
//  #15 //020   ----------------------------------------
 BYTE   W96
//  #15 //021   ----------------------------------------
 BYTE   EOT
 BYTE   GnM1
 BYTE   BEND   c_v+0
 BYTE   N96  EnM1  v127
 BYTE   W96
//  #15 //022   ----------------------------------------
 BYTE   BEND   c_v+16
 BYTE   N96
 BYTE   W96
//  #15 //023   ----------------------------------------
 BYTE   BEND   c_v+0
 BYTE   N12  As1  v096
 BYTE   W12
 BYTE   As1  v048
 BYTE   N12  Fn2  v092
 BYTE   W12
 BYTE   Fn2  v048
 BYTE   N12  Cn3  v084
 BYTE   W12
 BYTE   Cs3
 BYTE   W12
 BYTE   Cs3  v048
 BYTE   N12  Gs3  v084
 BYTE   W12
 BYTE   Cs3
 BYTE   N12  Gs3  v048
 BYTE   W12
 BYTE   Cn3  v088
 BYTE   W12
 BYTE   Fn2
 BYTE   N12  Cn3  v048
 BYTE   W12
//  #15 //024   ----------------------------------------
 BYTE   PATT
  POIN2 Label_0104DA13
//  #15 //025   ----------------------------------------
 BYTE   PATT
  POIN2 Label_0104DA38
//  #15 //026   ----------------------------------------
 BYTE   PATT
  POIN2 Label_0104DA5F
//  #15 //027   ----------------------------------------
 BYTE   GoTo
  POIN2 Label_0104D9DE
 BYTE   FINE

//******************************************************//
	ALIGN 4

song09:
	BYTE	15	// NumTrks
	BYTE	0	// NumBlks
	BYTE	song09_pri	// Priority
	BYTE	song09_rev	// Reverb.
    
	POIN2	song09_grp
    
	POIN2	song09_001
	POIN2	song09_002
	POIN2	song09_003
	POIN2	song09_004
	POIN2	song09_005
	POIN2	song09_006
	POIN2	song09_007
	POIN2	song09_008
	POIN2	song09_009
	POIN2	song09_010
	POIN2	song09_011
	POIN2	song09_012
	POIN2	song09_013
	POIN2	song09_014
	POIN2	song09_015

	
