	.include "MPlayDef.s"

	.equ	song09_grp, voicegroup000
	.equ	song09_pri, 0
	.equ	song09_rev, 0
	.equ	song09_mvl, 127
	.equ	song09_key, 0
	.equ	song09_tbs, 1
	.equ	song09_exg, 0
	.equ	song09_cmp, 1

	.section .rodata
	.global	song09
	.align	2


@**************** Track 1 (Midi-Chn.0) ****************@

song09_001:
@  #01 @000   ----------------------------------------
 .byte   KEYSH , song09_key+0
 .byte   TEMPO , 114*song09_tbs/2
 .byte   VOICE , 39
 .byte   MODT 0
 .byte   LFOS 44
 .byte   VOL , 29*song09_mvl/mxv
 .byte   PAN , c_v+0
 .byte   VOL , 29*song09_mvl/mxv
 .byte   PAN , c_v+0
 .byte   W96
@  #01 @001   ----------------------------------------
 .byte   W96
@  #01 @002   ----------------------------------------
 .byte   W96
@  #01 @003   ----------------------------------------
 .byte   W96
@  #01 @004   ----------------------------------------
Label_010B0CAA:
 .byte   W06
 .byte   N05 ,En4 ,v104
 .byte   W06
 .byte   An4
 .byte   W06
 .byte   Dn4
 .byte   W06
 .byte   En4
 .byte   W06
 .byte   An3
 .byte   W06
 .byte   Dn4
 .byte   W06
 .byte   Gn3
 .byte   W06
 .byte   An3
 .byte   W06
 .byte   An2
 .byte   W06
 .byte   En3
 .byte   W06
 .byte   An3
 .byte   W06
 .byte   Gn3
 .byte   W06
 .byte   Dn3
 .byte   W06
 .byte   N11 ,En3
 .byte   W12
 .byte   PEND 
@  #01 @005   ----------------------------------------
Label_010B0CCB:
 .byte   W06
 .byte   N05 ,En4 ,v104
 .byte   W06
 .byte   An4
 .byte   W06
 .byte   Dn4
 .byte   W06
 .byte   En4
 .byte   W06
 .byte   An3
 .byte   W06
 .byte   Dn4
 .byte   W06
 .byte   Gn3
 .byte   W06
 .byte   An3
 .byte   W06
 .byte   An2
 .byte   W06
 .byte   En3
 .byte   W06
 .byte   An3
 .byte   W06
 .byte   Gn3
 .byte   W06
 .byte   Fs3
 .byte   W06
 .byte   N11 ,En3
 .byte   W12
 .byte   PEND 
@  #01 @006   ----------------------------------------
 .byte   PATT
  .word Label_010B0CAA
@  #01 @007   ----------------------------------------
Label_010B0CF1:
 .byte   W06
 .byte   N05 ,En4 ,v104
 .byte   W06
 .byte   An4
 .byte   W06
 .byte   Dn4
 .byte   W06
 .byte   En4
 .byte   W06
 .byte   An3
 .byte   W06
 .byte   Dn4
 .byte   W06
 .byte   Gn3
 .byte   W06
 .byte   An3
 .byte   W06
 .byte   En3
 .byte   W06
 .byte   Bn3
 .byte   W06
 .byte   En3
 .byte   W06
 .byte   Cn4
 .byte   W06
 .byte   En3
 .byte   W06
 .byte   N11 ,Dn4
 .byte   W12
 .byte   PEND 
@  #01 @008   ----------------------------------------
 .byte   PATT
  .word Label_010B0CAA
@  #01 @009   ----------------------------------------
 .byte   PATT
  .word Label_010B0CCB
@  #01 @010   ----------------------------------------
Label_010B0D1C:
 .byte   W06
 .byte   N05 ,En4 ,v104
 .byte   W06
 .byte   An4
 .byte   W06
 .byte   Dn4
 .byte   W06
 .byte   En4
 .byte   W06
 .byte   An3
 .byte   W06
 .byte   Dn4
 .byte   W06
 .byte   Gn3
 .byte   W06
 .byte   An3
 .byte   W06
 .byte   En3
 .byte   W06
 .byte   Bn3
 .byte   W06
 .byte   En3
 .byte   W06
 .byte   Cn4
 .byte   W06
 .byte   En3
 .byte   W06
 .byte   Dn4
 .byte   W06
 .byte   Bn3
 .byte   W06
 .byte   PEND 
@  #01 @011   ----------------------------------------
Label_010B0D3E:
 .byte   N05 ,En4 ,v104
 .byte   W06
 .byte   Dn4
 .byte   W06
 .byte   Gn4
 .byte   W06
 .byte   En4
 .byte   W06
 .byte   An4
 .byte   W06
 .byte   En4
 .byte   W06
 .byte   Bn4
 .byte   W06
 .byte   En4
 .byte   W06
 .byte   Cn5
 .byte   W06
 .byte   En4
 .byte   W06
 .byte   Dn5
 .byte   W06
 .byte   An4
 .byte   W06
 .byte   En5
 .byte   W06
 .byte   Bn4
 .byte   W06
 .byte   N11 ,Fs5
 .byte   W12
 .byte   PEND 
@  #01 @012   ----------------------------------------
Label_010B0D60:
 .byte   N92 ,En5 ,v104
 .byte   W96
@  #01 @013   ----------------------------------------
 .byte   W96
@  #01 @014   ----------------------------------------
 .byte   W96
@  #01 @015   ----------------------------------------
 .byte   W96
@  #01 @016   ----------------------------------------
 .byte   W96
@  #01 @017   ----------------------------------------
 .byte   W96
@  #01 @018   ----------------------------------------
 .byte   W96
@  #01 @019   ----------------------------------------
 .byte   W96
@  #01 @020   ----------------------------------------
 .byte   PATT
  .word Label_010B0CAA
@  #01 @021   ----------------------------------------
 .byte   PATT
  .word Label_010B0CCB
@  #01 @022   ----------------------------------------
 .byte   PATT
  .word Label_010B0CAA
@  #01 @023   ----------------------------------------
 .byte   PATT
  .word Label_010B0CF1
@  #01 @024   ----------------------------------------
 .byte   PATT
  .word Label_010B0CAA
@  #01 @025   ----------------------------------------
 .byte   PATT
  .word Label_010B0CCB
@  #01 @026   ----------------------------------------
 .byte   PATT
  .word Label_010B0D1C
@  #01 @027   ----------------------------------------
 .byte   PATT
  .word Label_010B0D3E
@  #01 @028   ----------------------------------------
 .byte   N92 ,En5 ,v104
 .byte   W96
@  #01 @029   ----------------------------------------
 .byte   W96
@  #01 @030   ----------------------------------------
Label_010B0D98:
 .byte   N32 ,Bn5 ,v072
 .byte   W36
 .byte   N05 ,An5
 .byte   W06
 .byte   Gn5
 .byte   W06
 .byte   N17 ,Fs5
 .byte   W18
 .byte   Dn5
 .byte   W18
 .byte   N11 ,Fs5
 .byte   W12
 .byte   PEND 
@  #01 @031   ----------------------------------------
Label_010B0DAA:
 .byte   N44 ,En5 ,v072
 .byte   W48
 .byte   N17
 .byte   W18
 .byte   Bn5
 .byte   W18
 .byte   N11 ,An5
 .byte   W12
 .byte   PEND 
@  #01 @032   ----------------------------------------
 .byte   N92 ,Bn5
 .byte   W96
@  #01 @033   ----------------------------------------
 .byte   W96
@  #01 @034   ----------------------------------------
 .byte   PATT
  .word Label_010B0D98
@  #01 @035   ----------------------------------------
 .byte   PATT
  .word Label_010B0DAA
@  #01 @036   ----------------------------------------
 .byte   N92 ,Bn5 ,v072
 .byte   W96
@  #01 @037   ----------------------------------------
 .byte   W96
@  #01 @038   ----------------------------------------
 .byte   W96
@  #01 @039   ----------------------------------------
 .byte   W96
@  #01 @040   ----------------------------------------
 .byte   W96
@  #01 @041   ----------------------------------------
 .byte   W96
@  #01 @042   ----------------------------------------
 .byte   W96
@  #01 @043   ----------------------------------------
 .byte   W96
@  #01 @044   ----------------------------------------
 .byte   PATT
  .word Label_010B0CAA
@  #01 @045   ----------------------------------------
 .byte   PATT
  .word Label_010B0CCB
@  #01 @046   ----------------------------------------
 .byte   PATT
  .word Label_010B0CAA
@  #01 @047   ----------------------------------------
 .byte   PATT
  .word Label_010B0CF1
@  #01 @048   ----------------------------------------
 .byte   PATT
  .word Label_010B0CAA
@  #01 @049   ----------------------------------------
 .byte   PATT
  .word Label_010B0CCB
@  #01 @050   ----------------------------------------
 .byte   PATT
  .word Label_010B0D1C
@  #01 @051   ----------------------------------------
Label_010B0DF2:
 .byte   N05 ,En4 ,v104
 .byte   W06
 .byte   Dn4
 .byte   W06
 .byte   Gn4
 .byte   W06
 .byte   En4
 .byte   W06
 .byte   An4
 .byte   W06
 .byte   En4
 .byte   W06
 .byte   Bn4
 .byte   W06
 .byte   En4
 .byte   W06
 .byte   Cn5
 .byte   W06
 .byte   En4
 .byte   W06
 .byte   Dn5
 .byte   W06
 .byte   An4
 .byte   W06
 .byte   En5
 .byte   W06
 .byte   Bn4
 .byte   W06
 .byte   Fs5
 .byte   W06
 .byte   Dn5
 .byte   W06
 .byte   PEND 
@  #01 @052   ----------------------------------------
 .byte   PATT
  .word Label_010B0D1C
@  #01 @053   ----------------------------------------
 .byte   PATT
  .word Label_010B0DF2
@  #01 @054   ----------------------------------------
 .byte   PATT
  .word Label_010B0D1C
@  #01 @055   ----------------------------------------
 .byte   PATT
  .word Label_010B0DF2
@  #01 @056   ----------------------------------------
 .byte   PATT
  .word Label_010B0D1C
@  #01 @057   ----------------------------------------
 .byte   PATT
  .word Label_010B0DF2
@  #01 @058   ----------------------------------------
 .byte   PATT
  .word Label_010B0CAA
@  #01 @059   ----------------------------------------
 .byte   PATT
  .word Label_010B0CCB
@  #01 @060   ----------------------------------------
 .byte   PATT
  .word Label_010B0CAA
@  #01 @061   ----------------------------------------
 .byte   PATT
  .word Label_010B0CF1
@  #01 @062   ----------------------------------------
 .byte   PATT
  .word Label_010B0CAA
@  #01 @063   ----------------------------------------
 .byte   PATT
  .word Label_010B0CCB
@  #01 @064   ----------------------------------------
 .byte   PATT
  .word Label_010B0D1C
@  #01 @065   ----------------------------------------
 .byte   PATT
  .word Label_010B0D3E
@  #01 @066   ----------------------------------------
 .byte   GOTO
  .word Label_010B0D60
@  #01 @067   ----------------------------------------
 .byte   N92 ,En5 ,v104
 .byte   W96
@  #01 @068   ----------------------------------------
 .byte   W96
@  #01 @069   ----------------------------------------
 .byte   W96
@  #01 @070   ----------------------------------------
 .byte   W96
@  #01 @071   ----------------------------------------
 .byte   W96
@  #01 @072   ----------------------------------------
 .byte   W96
@  #01 @073   ----------------------------------------
 .byte   W96
@  #01 @074   ----------------------------------------
 .byte   W96
@  #01 @075   ----------------------------------------
 .byte   PATT
  .word Label_010B0CAA
@  #01 @076   ----------------------------------------
 .byte   PATT
  .word Label_010B0CCB
@  #01 @077   ----------------------------------------
 .byte   PATT
  .word Label_010B0CAA
@  #01 @078   ----------------------------------------
 .byte   PATT
  .word Label_010B0CF1
@  #01 @079   ----------------------------------------
 .byte   PATT
  .word Label_010B0CAA
@  #01 @080   ----------------------------------------
 .byte   PATT
  .word Label_010B0CCB
@  #01 @081   ----------------------------------------
 .byte   PATT
  .word Label_010B0D1C
@  #01 @082   ----------------------------------------
 .byte   PATT
  .word Label_010B0D3E
@  #01 @083   ----------------------------------------
 .byte   N92 ,En5 ,v104
 .byte   W96
@  #01 @084   ----------------------------------------
 .byte   W96
@  #01 @085   ----------------------------------------
 .byte   PATT
  .word Label_010B0D98
@  #01 @086   ----------------------------------------
 .byte   PATT
  .word Label_010B0DAA
@  #01 @087   ----------------------------------------
 .byte   N92 ,Bn5 ,v072
 .byte   W96
@  #01 @088   ----------------------------------------
 .byte   W96
@  #01 @089   ----------------------------------------
 .byte   PATT
  .word Label_010B0D98
@  #01 @090   ----------------------------------------
 .byte   PATT
  .word Label_010B0DAA
@  #01 @091   ----------------------------------------
 .byte   N92 ,Bn5 ,v072
 .byte   W96
@  #01 @092   ----------------------------------------
 .byte   W96
@  #01 @093   ----------------------------------------
 .byte   W96
@  #01 @094   ----------------------------------------
 .byte   W96
@  #01 @095   ----------------------------------------
 .byte   W96
@  #01 @096   ----------------------------------------
 .byte   W96
@  #01 @097   ----------------------------------------
 .byte   W96
@  #01 @098   ----------------------------------------
 .byte   W96
@  #01 @099   ----------------------------------------
 .byte   PATT
  .word Label_010B0CAA
@  #01 @100   ----------------------------------------
 .byte   PATT
  .word Label_010B0CCB
@  #01 @101   ----------------------------------------
 .byte   PATT
  .word Label_010B0CAA
@  #01 @102   ----------------------------------------
 .byte   PATT
  .word Label_010B0CF1
@  #01 @103   ----------------------------------------
 .byte   PATT
  .word Label_010B0CAA
@  #01 @104   ----------------------------------------
 .byte   PATT
  .word Label_010B0CCB
@  #01 @105   ----------------------------------------
 .byte   PATT
  .word Label_010B0D1C
@  #01 @106   ----------------------------------------
 .byte   PATT
  .word Label_010B0DF2
@  #01 @107   ----------------------------------------
 .byte   PATT
  .word Label_010B0D1C
@  #01 @108   ----------------------------------------
 .byte   PATT
  .word Label_010B0DF2
@  #01 @109   ----------------------------------------
 .byte   PATT
  .word Label_010B0D1C
@  #01 @110   ----------------------------------------
 .byte   PATT
  .word Label_010B0DF2
@  #01 @111   ----------------------------------------
 .byte   PATT
  .word Label_010B0D1C
@  #01 @112   ----------------------------------------
 .byte   PATT
  .word Label_010B0DF2
@  #01 @113   ----------------------------------------
 .byte   PATT
  .word Label_010B0CAA
@  #01 @114   ----------------------------------------
 .byte   W06
 .byte   N05 ,En4 ,v104
 .byte   W06
 .byte   An4
 .byte   W06
 .byte   Dn4
 .byte   W06
 .byte   En4
 .byte   W06
 .byte   An3
 .byte   W06
 .byte   Dn4
 .byte   W06
 .byte   Gn3
 .byte   W06
 .byte   An3
 .byte   W06
 .byte   An2
 .byte   W06
 .byte   En3
 .byte   W06
 .byte   An3
 .byte   W06
 .byte   Gn3
 .byte   W06
 .byte   Fs3
 .byte   W06
 .byte   N11 ,En3
 .byte   W11
 .byte   FINE

@**************** Track 2 (Midi-Chn.1) ****************@

song09_002:
@  #02 @000   ----------------------------------------
 .byte   KEYSH , song09_key+0
 .byte   VOICE , 75
 .byte   MODT 0
 .byte   LFOS 44
 .byte   VOL , 29*song09_mvl/mxv
 .byte   PAN , c_v+0
 .byte   W96
@  #02 @001   ----------------------------------------
 .byte   W96
@  #02 @002   ----------------------------------------
 .byte   W96
@  #02 @003   ----------------------------------------
 .byte   W96
@  #02 @004   ----------------------------------------
 .byte   W96
@  #02 @005   ----------------------------------------
 .byte   W96
@  #02 @006   ----------------------------------------
 .byte   W96
@  #02 @007   ----------------------------------------
 .byte   W96
@  #02 @008   ----------------------------------------
 .byte   W96
@  #02 @009   ----------------------------------------
 .byte   W96
@  #02 @010   ----------------------------------------
 .byte   W96
@  #02 @011   ----------------------------------------
 .byte   W96
@  #02 @012   ----------------------------------------
Label_010A7EE4:
 .byte   W96
@  #02 @013   ----------------------------------------
 .byte   W96
@  #02 @014   ----------------------------------------
 .byte   W96
@  #02 @015   ----------------------------------------
 .byte   W96
@  #02 @016   ----------------------------------------
 .byte   W96
@  #02 @017   ----------------------------------------
 .byte   W96
@  #02 @018   ----------------------------------------
 .byte   W96
@  #02 @019   ----------------------------------------
 .byte   W96
@  #02 @020   ----------------------------------------
 .byte   W96
@  #02 @021   ----------------------------------------
 .byte   W96
@  #02 @022   ----------------------------------------
 .byte   W96
@  #02 @023   ----------------------------------------
 .byte   W96
@  #02 @024   ----------------------------------------
 .byte   W96
@  #02 @025   ----------------------------------------
 .byte   W96
@  #02 @026   ----------------------------------------
 .byte   W96
@  #02 @027   ----------------------------------------
 .byte   W96
@  #02 @028   ----------------------------------------
Label_010A7EF4:
 .byte   N32 ,Bn4 ,v096
 .byte   W36
 .byte   N05 ,An4
 .byte   W06
 .byte   Gn4
 .byte   W06
 .byte   N17 ,Fs4
 .byte   W18
 .byte   Dn4
 .byte   W18
 .byte   N11 ,Fs4
 .byte   W12
 .byte   PEND 
@  #02 @029   ----------------------------------------
Label_010A7F06:
 .byte   N44 ,En4 ,v096
 .byte   W48
 .byte   N17
 .byte   W18
 .byte   Bn3
 .byte   W18
 .byte   N11 ,An3
 .byte   W12
 .byte   PEND 
@  #02 @030   ----------------------------------------
 .byte   N90 ,Bn3
 .byte   W96
@  #02 @031   ----------------------------------------
 .byte   W96
@  #02 @032   ----------------------------------------
 .byte   PATT
  .word Label_010A7EF4
@  #02 @033   ----------------------------------------
 .byte   PATT
  .word Label_010A7F06
@  #02 @034   ----------------------------------------
 .byte   N90 ,Bn3 ,v096
 .byte   W96
@  #02 @035   ----------------------------------------
 .byte   W96
@  #02 @036   ----------------------------------------
 .byte   W96
@  #02 @037   ----------------------------------------
 .byte   W96
@  #02 @038   ----------------------------------------
 .byte   W96
@  #02 @039   ----------------------------------------
 .byte   W96
@  #02 @040   ----------------------------------------
 .byte   W96
@  #02 @041   ----------------------------------------
 .byte   W96
@  #02 @042   ----------------------------------------
 .byte   W96
@  #02 @043   ----------------------------------------
Label_010A7F2C:
 .byte   W72
 .byte   N02 ,En4 ,v096
 .byte   W06
 .byte   Fs4
 .byte   W06
 .byte   Gn4
 .byte   W06
 .byte   An4
 .byte   W06
 .byte   PEND 
@  #02 @044   ----------------------------------------
 .byte   PATT
  .word Label_010A7EF4
@  #02 @045   ----------------------------------------
Label_010A7F3D:
 .byte   N17 ,En4 ,v096
 .byte   W18
 .byte   Bn3
 .byte   W18
 .byte   N11 ,An3
 .byte   W12
 .byte   N22 ,Bn3
 .byte   W24
 .byte   N02 ,En4
 .byte   W06
 .byte   Fs4
 .byte   W06
 .byte   Gn4
 .byte   W06
 .byte   An4
 .byte   W06
 .byte   PEND 
@  #02 @046   ----------------------------------------
 .byte   PATT
  .word Label_010A7EF4
@  #02 @047   ----------------------------------------
Label_010A7F58:
 .byte   N17 ,En4 ,v096
 .byte   W18
 .byte   Bn4
 .byte   W18
 .byte   N11 ,An4
 .byte   W12
 .byte   N22 ,Bn4
 .byte   W24
 .byte   N02 ,En4
 .byte   W06
 .byte   Fs4
 .byte   W06
 .byte   Gn4
 .byte   W06
 .byte   An4
 .byte   W06
 .byte   PEND 
@  #02 @048   ----------------------------------------
 .byte   PATT
  .word Label_010A7EF4
@  #02 @049   ----------------------------------------
Label_010A7F73:
 .byte   N17 ,En4 ,v096
 .byte   W18
 .byte   Bn3
 .byte   W18
 .byte   N11 ,An3
 .byte   W12
 .byte   N17 ,Bn3
 .byte   W18
 .byte   An3
 .byte   W18
 .byte   N11 ,Gn3
 .byte   W12
 .byte   PEND 
@  #02 @050   ----------------------------------------
 .byte   TIE ,En3 ,v080
 .byte   W96
@  #02 @051   ----------------------------------------
 .byte   W84
 .byte   W02
 .byte   EOT
 .byte   W10
@  #02 @052   ----------------------------------------
 .byte   W96
@  #02 @053   ----------------------------------------
Label_010A7F8E:
 .byte   N17 ,En3 ,v080
 .byte   W18
 .byte   N17
 .byte   W18
 .byte   N11 ,Gn3
 .byte   W12
 .byte   N17 ,Fs3
 .byte   W18
 .byte   Gn3
 .byte   W18
 .byte   N11 ,An3
 .byte   W12
 .byte   PEND 
@  #02 @054   ----------------------------------------
 .byte   TIE ,En3
 .byte   W96
@  #02 @055   ----------------------------------------
 .byte   W84
 .byte   W02
 .byte   EOT
 .byte   W10
@  #02 @056   ----------------------------------------
 .byte   W96
@  #02 @057   ----------------------------------------
 .byte   PATT
  .word Label_010A7F8E
@  #02 @058   ----------------------------------------
 .byte   TIE ,En3 ,v080
 .byte   W96
@  #02 @059   ----------------------------------------
 .byte   W84
 .byte   W02
 .byte   EOT
 .byte   W10
@  #02 @060   ----------------------------------------
 .byte   W96
@  #02 @061   ----------------------------------------
 .byte   W96
@  #02 @062   ----------------------------------------
 .byte   W96
@  #02 @063   ----------------------------------------
 .byte   W96
@  #02 @064   ----------------------------------------
 .byte   W96
@  #02 @065   ----------------------------------------
 .byte   W96
@  #02 @066   ----------------------------------------
 .byte   GOTO
  .word Label_010A7EE4
@  #02 @067   ----------------------------------------
 .byte   W96
@  #02 @068   ----------------------------------------
 .byte   W96
@  #02 @069   ----------------------------------------
 .byte   W96
@  #02 @070   ----------------------------------------
 .byte   W96
@  #02 @071   ----------------------------------------
 .byte   W96
@  #02 @072   ----------------------------------------
 .byte   W96
@  #02 @073   ----------------------------------------
 .byte   W96
@  #02 @074   ----------------------------------------
 .byte   W96
@  #02 @075   ----------------------------------------
 .byte   W96
@  #02 @076   ----------------------------------------
 .byte   W96
@  #02 @077   ----------------------------------------
 .byte   W96
@  #02 @078   ----------------------------------------
 .byte   W96
@  #02 @079   ----------------------------------------
 .byte   W96
@  #02 @080   ----------------------------------------
 .byte   W96
@  #02 @081   ----------------------------------------
 .byte   W96
@  #02 @082   ----------------------------------------
 .byte   W96
@  #02 @083   ----------------------------------------
 .byte   PATT
  .word Label_010A7EF4
@  #02 @084   ----------------------------------------
 .byte   PATT
  .word Label_010A7F06
@  #02 @085   ----------------------------------------
 .byte   N90 ,Bn3 ,v096
 .byte   W96
@  #02 @086   ----------------------------------------
 .byte   W96
@  #02 @087   ----------------------------------------
 .byte   PATT
  .word Label_010A7EF4
@  #02 @088   ----------------------------------------
 .byte   PATT
  .word Label_010A7F06
@  #02 @089   ----------------------------------------
 .byte   N90 ,Bn3 ,v096
 .byte   W96
@  #02 @090   ----------------------------------------
 .byte   W96
@  #02 @091   ----------------------------------------
 .byte   W96
@  #02 @092   ----------------------------------------
 .byte   W96
@  #02 @093   ----------------------------------------
 .byte   W96
@  #02 @094   ----------------------------------------
 .byte   W96
@  #02 @095   ----------------------------------------
 .byte   W96
@  #02 @096   ----------------------------------------
 .byte   W96
@  #02 @097   ----------------------------------------
 .byte   W96
@  #02 @098   ----------------------------------------
 .byte   PATT
  .word Label_010A7F2C
@  #02 @099   ----------------------------------------
 .byte   PATT
  .word Label_010A7EF4
@  #02 @100   ----------------------------------------
 .byte   PATT
  .word Label_010A7F3D
@  #02 @101   ----------------------------------------
 .byte   PATT
  .word Label_010A7EF4
@  #02 @102   ----------------------------------------
 .byte   PATT
  .word Label_010A7F58
@  #02 @103   ----------------------------------------
 .byte   PATT
  .word Label_010A7EF4
@  #02 @104   ----------------------------------------
 .byte   PATT
  .word Label_010A7F73
@  #02 @105   ----------------------------------------
 .byte   TIE ,En3 ,v080
 .byte   W96
@  #02 @106   ----------------------------------------
 .byte   W84
 .byte   W02
 .byte   EOT
 .byte   W10
@  #02 @107   ----------------------------------------
 .byte   W96
@  #02 @108   ----------------------------------------
 .byte   PATT
  .word Label_010A7F8E
@  #02 @109   ----------------------------------------
 .byte   TIE ,En3 ,v080
 .byte   W96
@  #02 @110   ----------------------------------------
 .byte   W84
 .byte   W02
 .byte   EOT
 .byte   W10
@  #02 @111   ----------------------------------------
 .byte   W96
@  #02 @112   ----------------------------------------
 .byte   PATT
  .word Label_010A7F8E
@  #02 @113   ----------------------------------------
 .byte   TIE ,En3 ,v080
 .byte   W96
@  #02 @114   ----------------------------------------
 .byte   W84
 .byte   W02
 .byte   EOT
 .byte   W09
 .byte   FINE

@**************** Track 3 (Midi-Chn.2) ****************@

song09_003:
@  #03 @000   ----------------------------------------
 .byte   KEYSH , song09_key+0
 .byte   VOICE , 14
 .byte   MODT 0
 .byte   LFOS 44
 .byte   VOL , 29*song09_mvl/mxv
 .byte   PAN , c_v+0
 .byte   W96
@  #03 @001   ----------------------------------------
 .byte   W96
@  #03 @002   ----------------------------------------
 .byte   W96
@  #03 @003   ----------------------------------------
 .byte   W96
@  #03 @004   ----------------------------------------
 .byte   W96
@  #03 @005   ----------------------------------------
 .byte   W96
@  #03 @006   ----------------------------------------
 .byte   W96
@  #03 @007   ----------------------------------------
 .byte   W96
@  #03 @008   ----------------------------------------
 .byte   W96
@  #03 @009   ----------------------------------------
 .byte   W96
@  #03 @010   ----------------------------------------
 .byte   W96
@  #03 @011   ----------------------------------------
 .byte   W96
@  #03 @012   ----------------------------------------
Label_010B0F40:
 .byte   N05 ,Bn3 ,v060
 .byte   W12
 .byte   Bn3 ,v044
 .byte   W06
 .byte   N11 ,En3 ,v060
 .byte   W12
 .byte   N05 ,En3 ,v044
 .byte   W06
 .byte   N11 ,Dn3 ,v060
 .byte   W12
 .byte   N05 ,En3
 .byte   W12
 .byte   En3 ,v044
 .byte   W36
 .byte   PEND 
@  #03 @013   ----------------------------------------
Label_010B0F5A:
 .byte   N05 ,An3 ,v060
 .byte   W12
 .byte   An3 ,v044
 .byte   W06
 .byte   N11 ,Dn3 ,v060
 .byte   W12
 .byte   N05 ,Dn3 ,v044
 .byte   W06
 .byte   N11 ,En3 ,v060
 .byte   W12
 .byte   N05 ,An2
 .byte   W12
 .byte   An2 ,v044
 .byte   W36
 .byte   PEND 
@  #03 @014   ----------------------------------------
Label_010B0F74:
 .byte   N05 ,Dn3 ,v060
 .byte   W12
 .byte   Dn3 ,v044
 .byte   W06
 .byte   N11 ,An2 ,v060
 .byte   W12
 .byte   N05 ,An2 ,v044
 .byte   W06
 .byte   N11 ,Gn2 ,v060
 .byte   W12
 .byte   N05 ,An2
 .byte   W12
 .byte   An2 ,v044
 .byte   W36
 .byte   PEND 
@  #03 @015   ----------------------------------------
Label_010B0F8E:
 .byte   N05 ,Dn3 ,v060
 .byte   W12
 .byte   Dn3 ,v044
 .byte   W06
 .byte   N11 ,Gn2 ,v060
 .byte   W12
 .byte   N05 ,Gn2 ,v044
 .byte   W06
 .byte   N11 ,An2 ,v060
 .byte   W12
 .byte   N05 ,Gn2
 .byte   W12
 .byte   Gn2 ,v044
 .byte   W36
 .byte   PEND 
@  #03 @016   ----------------------------------------
 .byte   PATT
  .word Label_010B0F40
@  #03 @017   ----------------------------------------
 .byte   PATT
  .word Label_010B0F5A
@  #03 @018   ----------------------------------------
 .byte   PATT
  .word Label_010B0F74
@  #03 @019   ----------------------------------------
 .byte   PATT
  .word Label_010B0F8E
@  #03 @020   ----------------------------------------
 .byte   W96
@  #03 @021   ----------------------------------------
 .byte   W96
@  #03 @022   ----------------------------------------
 .byte   W96
@  #03 @023   ----------------------------------------
 .byte   W96
@  #03 @024   ----------------------------------------
 .byte   W96
@  #03 @025   ----------------------------------------
 .byte   W96
@  #03 @026   ----------------------------------------
 .byte   W96
@  #03 @027   ----------------------------------------
 .byte   W96
@  #03 @028   ----------------------------------------
 .byte   W96
@  #03 @029   ----------------------------------------
 .byte   W96
@  #03 @030   ----------------------------------------
 .byte   W96
@  #03 @031   ----------------------------------------
 .byte   W96
@  #03 @032   ----------------------------------------
 .byte   W96
@  #03 @033   ----------------------------------------
 .byte   W96
@  #03 @034   ----------------------------------------
 .byte   W96
@  #03 @035   ----------------------------------------
 .byte   W96
@  #03 @036   ----------------------------------------
 .byte   PATT
  .word Label_010B0F40
@  #03 @037   ----------------------------------------
 .byte   PATT
  .word Label_010B0F5A
@  #03 @038   ----------------------------------------
 .byte   PATT
  .word Label_010B0F74
@  #03 @039   ----------------------------------------
 .byte   PATT
  .word Label_010B0F8E
@  #03 @040   ----------------------------------------
 .byte   PATT
  .word Label_010B0F40
@  #03 @041   ----------------------------------------
 .byte   PATT
  .word Label_010B0F5A
@  #03 @042   ----------------------------------------
 .byte   PATT
  .word Label_010B0F74
@  #03 @043   ----------------------------------------
 .byte   PATT
  .word Label_010B0F8E
@  #03 @044   ----------------------------------------
 .byte   W96
@  #03 @045   ----------------------------------------
 .byte   W96
@  #03 @046   ----------------------------------------
 .byte   W96
@  #03 @047   ----------------------------------------
 .byte   W96
@  #03 @048   ----------------------------------------
 .byte   W96
@  #03 @049   ----------------------------------------
 .byte   W96
@  #03 @050   ----------------------------------------
 .byte   PATT
  .word Label_010B0F40
@  #03 @051   ----------------------------------------
 .byte   PATT
  .word Label_010B0F5A
@  #03 @052   ----------------------------------------
 .byte   PATT
  .word Label_010B0F74
@  #03 @053   ----------------------------------------
 .byte   PATT
  .word Label_010B0F8E
@  #03 @054   ----------------------------------------
 .byte   PATT
  .word Label_010B0F40
@  #03 @055   ----------------------------------------
 .byte   PATT
  .word Label_010B0F5A
@  #03 @056   ----------------------------------------
 .byte   PATT
  .word Label_010B0F74
@  #03 @057   ----------------------------------------
 .byte   PATT
  .word Label_010B0F8E
@  #03 @058   ----------------------------------------
 .byte   W96
@  #03 @059   ----------------------------------------
 .byte   W96
@  #03 @060   ----------------------------------------
 .byte   W96
@  #03 @061   ----------------------------------------
 .byte   W96
@  #03 @062   ----------------------------------------
 .byte   W96
@  #03 @063   ----------------------------------------
 .byte   W96
@  #03 @064   ----------------------------------------
 .byte   W96
@  #03 @065   ----------------------------------------
 .byte   W96
@  #03 @066   ----------------------------------------
 .byte   GOTO
  .word Label_010B0F40
@  #03 @067   ----------------------------------------
 .byte   PATT
  .word Label_010B0F40
@  #03 @068   ----------------------------------------
 .byte   PATT
  .word Label_010B0F5A
@  #03 @069   ----------------------------------------
 .byte   PATT
  .word Label_010B0F74
@  #03 @070   ----------------------------------------
 .byte   PATT
  .word Label_010B0F8E
@  #03 @071   ----------------------------------------
 .byte   PATT
  .word Label_010B0F40
@  #03 @072   ----------------------------------------
 .byte   PATT
  .word Label_010B0F5A
@  #03 @073   ----------------------------------------
 .byte   PATT
  .word Label_010B0F74
@  #03 @074   ----------------------------------------
 .byte   PATT
  .word Label_010B0F8E
@  #03 @075   ----------------------------------------
 .byte   W96
@  #03 @076   ----------------------------------------
 .byte   W96
@  #03 @077   ----------------------------------------
 .byte   W96
@  #03 @078   ----------------------------------------
 .byte   W96
@  #03 @079   ----------------------------------------
 .byte   W96
@  #03 @080   ----------------------------------------
 .byte   W96
@  #03 @081   ----------------------------------------
 .byte   W96
@  #03 @082   ----------------------------------------
 .byte   W96
@  #03 @083   ----------------------------------------
 .byte   W96
@  #03 @084   ----------------------------------------
 .byte   W96
@  #03 @085   ----------------------------------------
 .byte   W96
@  #03 @086   ----------------------------------------
 .byte   W96
@  #03 @087   ----------------------------------------
 .byte   W96
@  #03 @088   ----------------------------------------
 .byte   W96
@  #03 @089   ----------------------------------------
 .byte   W96
@  #03 @090   ----------------------------------------
 .byte   W96
@  #03 @091   ----------------------------------------
 .byte   PATT
  .word Label_010B0F40
@  #03 @092   ----------------------------------------
 .byte   PATT
  .word Label_010B0F5A
@  #03 @093   ----------------------------------------
 .byte   PATT
  .word Label_010B0F74
@  #03 @094   ----------------------------------------
 .byte   PATT
  .word Label_010B0F8E
@  #03 @095   ----------------------------------------
 .byte   PATT
  .word Label_010B0F40
@  #03 @096   ----------------------------------------
 .byte   PATT
  .word Label_010B0F5A
@  #03 @097   ----------------------------------------
 .byte   PATT
  .word Label_010B0F74
@  #03 @098   ----------------------------------------
 .byte   PATT
  .word Label_010B0F8E
@  #03 @099   ----------------------------------------
 .byte   W96
@  #03 @100   ----------------------------------------
 .byte   W96
@  #03 @101   ----------------------------------------
 .byte   W96
@  #03 @102   ----------------------------------------
 .byte   W96
@  #03 @103   ----------------------------------------
 .byte   W96
@  #03 @104   ----------------------------------------
 .byte   W96
@  #03 @105   ----------------------------------------
 .byte   PATT
  .word Label_010B0F40
@  #03 @106   ----------------------------------------
 .byte   PATT
  .word Label_010B0F5A
@  #03 @107   ----------------------------------------
 .byte   PATT
  .word Label_010B0F74
@  #03 @108   ----------------------------------------
 .byte   PATT
  .word Label_010B0F8E
@  #03 @109   ----------------------------------------
 .byte   PATT
  .word Label_010B0F40
@  #03 @110   ----------------------------------------
 .byte   PATT
  .word Label_010B0F5A
@  #03 @111   ----------------------------------------
 .byte   PATT
  .word Label_010B0F74
@  #03 @112   ----------------------------------------
 .byte   PATT
  .word Label_010B0F8E
@  #03 @113   ----------------------------------------
 .byte   W96
@  #03 @114   ----------------------------------------
 .byte   W92
 .byte   W03
 .byte   FINE

@**************** Track 4 (Midi-Chn.3) ****************@

song09_004:
@  #04 @000   ----------------------------------------
 .byte   KEYSH , song09_key+0
 .byte   VOICE , 10
 .byte   MODT 0
 .byte   LFOS 44
 .byte   VOL , 31*song09_mvl/mxv
 .byte   PAN , c_v+0
 .byte   W96
@  #04 @001   ----------------------------------------
 .byte   W96
@  #04 @002   ----------------------------------------
 .byte   W96
@  #04 @003   ----------------------------------------
 .byte   W96
@  #04 @004   ----------------------------------------
 .byte   W96
@  #04 @005   ----------------------------------------
 .byte   W96
@  #04 @006   ----------------------------------------
 .byte   W96
@  #04 @007   ----------------------------------------
 .byte   W96
@  #04 @008   ----------------------------------------
 .byte   W96
@  #04 @009   ----------------------------------------
 .byte   W96
@  #04 @010   ----------------------------------------
 .byte   W96
@  #04 @011   ----------------------------------------
 .byte   W96
@  #04 @012   ----------------------------------------
Label_010B10DC:
 .byte   W48
 .byte   N05 ,Bn4 ,v060
 .byte   W12
 .byte   Bn4 ,v044
 .byte   W06
 .byte   N11 ,En4 ,v060
 .byte   W12
 .byte   N05 ,En4 ,v044
 .byte   W06
 .byte   N11 ,Dn4 ,v060
 .byte   W12
 .byte   PEND 
@  #04 @013   ----------------------------------------
Label_010B10F1:
 .byte   N05 ,En4 ,v060
 .byte   W12
 .byte   En4 ,v044
 .byte   W36
 .byte   An4 ,v060
 .byte   W12
 .byte   An4 ,v044
 .byte   W06
 .byte   N11 ,Dn4 ,v060
 .byte   W12
 .byte   N05 ,Dn4 ,v044
 .byte   W06
 .byte   N11 ,En4 ,v060
 .byte   W12
 .byte   PEND 
@  #04 @014   ----------------------------------------
Label_010B110B:
 .byte   N05 ,An3 ,v060
 .byte   W12
 .byte   An3 ,v044
 .byte   W36
 .byte   Dn4 ,v060
 .byte   W12
 .byte   Dn4 ,v044
 .byte   W06
 .byte   N11 ,An3 ,v060
 .byte   W12
 .byte   N05 ,An3 ,v044
 .byte   W06
 .byte   N11 ,Gn3 ,v060
 .byte   W12
 .byte   PEND 
@  #04 @015   ----------------------------------------
Label_010B1125:
 .byte   N05 ,An3 ,v060
 .byte   W12
 .byte   An3 ,v044
 .byte   W36
 .byte   Dn4 ,v060
 .byte   W12
 .byte   Dn4 ,v044
 .byte   W06
 .byte   N11 ,Gn3 ,v060
 .byte   W12
 .byte   N05 ,Gn3 ,v044
 .byte   W06
 .byte   N11 ,An3 ,v060
 .byte   W12
 .byte   PEND 
@  #04 @016   ----------------------------------------
Label_010B113F:
 .byte   N05 ,En3 ,v060
 .byte   W12
 .byte   En3 ,v044
 .byte   W36
 .byte   Bn4 ,v060
 .byte   W12
 .byte   Bn4 ,v044
 .byte   W06
 .byte   N11 ,En4 ,v060
 .byte   W12
 .byte   N05 ,En4 ,v044
 .byte   W06
 .byte   N11 ,Dn4 ,v060
 .byte   W12
 .byte   PEND 
@  #04 @017   ----------------------------------------
 .byte   PATT
  .word Label_010B10F1
@  #04 @018   ----------------------------------------
 .byte   PATT
  .word Label_010B110B
@  #04 @019   ----------------------------------------
 .byte   PATT
  .word Label_010B1125
@  #04 @020   ----------------------------------------
 .byte   N05 ,En3 ,v060
 .byte   W12
 .byte   En3 ,v044
 .byte   W84
@  #04 @021   ----------------------------------------
 .byte   W96
@  #04 @022   ----------------------------------------
 .byte   W96
@  #04 @023   ----------------------------------------
 .byte   W96
@  #04 @024   ----------------------------------------
 .byte   W96
@  #04 @025   ----------------------------------------
 .byte   W96
@  #04 @026   ----------------------------------------
 .byte   W96
@  #04 @027   ----------------------------------------
 .byte   W96
@  #04 @028   ----------------------------------------
 .byte   W96
@  #04 @029   ----------------------------------------
 .byte   W96
@  #04 @030   ----------------------------------------
 .byte   W96
@  #04 @031   ----------------------------------------
 .byte   W96
@  #04 @032   ----------------------------------------
 .byte   W96
@  #04 @033   ----------------------------------------
 .byte   W96
@  #04 @034   ----------------------------------------
 .byte   W96
@  #04 @035   ----------------------------------------
 .byte   W96
@  #04 @036   ----------------------------------------
 .byte   PATT
  .word Label_010B10DC
@  #04 @037   ----------------------------------------
 .byte   PATT
  .word Label_010B10F1
@  #04 @038   ----------------------------------------
 .byte   PATT
  .word Label_010B110B
@  #04 @039   ----------------------------------------
 .byte   PATT
  .word Label_010B1125
@  #04 @040   ----------------------------------------
 .byte   PATT
  .word Label_010B113F
@  #04 @041   ----------------------------------------
 .byte   PATT
  .word Label_010B10F1
@  #04 @042   ----------------------------------------
 .byte   PATT
  .word Label_010B110B
@  #04 @043   ----------------------------------------
 .byte   PATT
  .word Label_010B1125
@  #04 @044   ----------------------------------------
 .byte   W96
@  #04 @045   ----------------------------------------
 .byte   W96
@  #04 @046   ----------------------------------------
 .byte   W96
@  #04 @047   ----------------------------------------
 .byte   W96
@  #04 @048   ----------------------------------------
 .byte   W96
@  #04 @049   ----------------------------------------
 .byte   W96
@  #04 @050   ----------------------------------------
 .byte   PATT
  .word Label_010B10DC
@  #04 @051   ----------------------------------------
 .byte   PATT
  .word Label_010B10F1
@  #04 @052   ----------------------------------------
 .byte   PATT
  .word Label_010B110B
@  #04 @053   ----------------------------------------
Label_010B11BB:
 .byte   N05 ,An3 ,v060
 .byte   W12
 .byte   An3 ,v044
 .byte   W36
 .byte   N02 ,Cs4 ,v060
 .byte   W02
 .byte   N04 ,Dn4
 .byte   W10
 .byte   N05 ,Dn4 ,v044
 .byte   W06
 .byte   N11 ,Gn3 ,v060
 .byte   W12
 .byte   N05 ,Gn3 ,v044
 .byte   W06
 .byte   N11 ,An3 ,v060
 .byte   W12
 .byte   PEND 
@  #04 @054   ----------------------------------------
 .byte   PATT
  .word Label_010B113F
@  #04 @055   ----------------------------------------
 .byte   PATT
  .word Label_010B10F1
@  #04 @056   ----------------------------------------
 .byte   PATT
  .word Label_010B110B
@  #04 @057   ----------------------------------------
 .byte   PATT
  .word Label_010B11BB
@  #04 @058   ----------------------------------------
 .byte   W96
@  #04 @059   ----------------------------------------
 .byte   W96
@  #04 @060   ----------------------------------------
 .byte   W96
@  #04 @061   ----------------------------------------
 .byte   W96
@  #04 @062   ----------------------------------------
 .byte   W96
@  #04 @063   ----------------------------------------
 .byte   W96
@  #04 @064   ----------------------------------------
 .byte   W96
@  #04 @065   ----------------------------------------
 .byte   W96
@  #04 @066   ----------------------------------------
 .byte   GOTO
  .word Label_010B10DC
@  #04 @067   ----------------------------------------
 .byte   PATT
  .word Label_010B10DC
@  #04 @068   ----------------------------------------
 .byte   PATT
  .word Label_010B10F1
@  #04 @069   ----------------------------------------
 .byte   PATT
  .word Label_010B110B
@  #04 @070   ----------------------------------------
 .byte   PATT
  .word Label_010B1125
@  #04 @071   ----------------------------------------
 .byte   PATT
  .word Label_010B113F
@  #04 @072   ----------------------------------------
 .byte   PATT
  .word Label_010B10F1
@  #04 @073   ----------------------------------------
 .byte   PATT
  .word Label_010B110B
@  #04 @074   ----------------------------------------
 .byte   PATT
  .word Label_010B1125
@  #04 @075   ----------------------------------------
 .byte   N05 ,En3 ,v060
 .byte   W12
 .byte   En3 ,v044
 .byte   W84
@  #04 @076   ----------------------------------------
 .byte   W96
@  #04 @077   ----------------------------------------
 .byte   W96
@  #04 @078   ----------------------------------------
 .byte   W96
@  #04 @079   ----------------------------------------
 .byte   W96
@  #04 @080   ----------------------------------------
 .byte   W96
@  #04 @081   ----------------------------------------
 .byte   W96
@  #04 @082   ----------------------------------------
 .byte   W96
@  #04 @083   ----------------------------------------
 .byte   W96
@  #04 @084   ----------------------------------------
 .byte   W96
@  #04 @085   ----------------------------------------
 .byte   W96
@  #04 @086   ----------------------------------------
 .byte   W96
@  #04 @087   ----------------------------------------
 .byte   W96
@  #04 @088   ----------------------------------------
 .byte   W96
@  #04 @089   ----------------------------------------
 .byte   W96
@  #04 @090   ----------------------------------------
 .byte   W96
@  #04 @091   ----------------------------------------
 .byte   PATT
  .word Label_010B10DC
@  #04 @092   ----------------------------------------
 .byte   PATT
  .word Label_010B10F1
@  #04 @093   ----------------------------------------
 .byte   PATT
  .word Label_010B110B
@  #04 @094   ----------------------------------------
 .byte   PATT
  .word Label_010B1125
@  #04 @095   ----------------------------------------
 .byte   PATT
  .word Label_010B113F
@  #04 @096   ----------------------------------------
 .byte   PATT
  .word Label_010B10F1
@  #04 @097   ----------------------------------------
 .byte   PATT
  .word Label_010B110B
@  #04 @098   ----------------------------------------
 .byte   PATT
  .word Label_010B1125
@  #04 @099   ----------------------------------------
 .byte   W96
@  #04 @100   ----------------------------------------
 .byte   W96
@  #04 @101   ----------------------------------------
 .byte   W96
@  #04 @102   ----------------------------------------
 .byte   W96
@  #04 @103   ----------------------------------------
 .byte   W96
@  #04 @104   ----------------------------------------
 .byte   W96
@  #04 @105   ----------------------------------------
 .byte   PATT
  .word Label_010B10DC
@  #04 @106   ----------------------------------------
 .byte   PATT
  .word Label_010B10F1
@  #04 @107   ----------------------------------------
 .byte   PATT
  .word Label_010B110B
@  #04 @108   ----------------------------------------
 .byte   PATT
  .word Label_010B11BB
@  #04 @109   ----------------------------------------
 .byte   PATT
  .word Label_010B113F
@  #04 @110   ----------------------------------------
 .byte   PATT
  .word Label_010B10F1
@  #04 @111   ----------------------------------------
 .byte   PATT
  .word Label_010B110B
@  #04 @112   ----------------------------------------
 .byte   PATT
  .word Label_010B11BB
@  #04 @113   ----------------------------------------
 .byte   W96
@  #04 @114   ----------------------------------------
 .byte   W92
 .byte   W03
 .byte   FINE

@**************** Track 5 (Midi-Chn.4) ****************@

song09_005:
@  #05 @000   ----------------------------------------
 .byte   KEYSH , song09_key+0
 .byte   VOICE , 18
 .byte   MODT 0
 .byte   LFOS 44
 .byte   VOL , 56*song09_mvl/mxv
 .byte   PAN , c_v+0
 .byte   W96
@  #05 @001   ----------------------------------------
 .byte   W96
@  #05 @002   ----------------------------------------
 .byte   W96
@  #05 @003   ----------------------------------------
 .byte   W96
@  #05 @004   ----------------------------------------
 .byte   W96
@  #05 @005   ----------------------------------------
 .byte   W96
@  #05 @006   ----------------------------------------
 .byte   W96
@  #05 @007   ----------------------------------------
 .byte   W96
@  #05 @008   ----------------------------------------
 .byte   W96
@  #05 @009   ----------------------------------------
 .byte   W96
@  #05 @010   ----------------------------------------
 .byte   W96
@  #05 @011   ----------------------------------------
 .byte   W96
@  #05 @012   ----------------------------------------
Label_010B12AC:
 .byte   W48
 .byte   N05 ,Bn4 ,v127
 .byte   W12
 .byte   Bn4 ,v104
 .byte   W06
 .byte   N11 ,En4 ,v127
 .byte   W12
 .byte   N05 ,En4 ,v104
 .byte   W06
 .byte   N11 ,Dn4 ,v127
 .byte   W12
 .byte   PEND 
@  #05 @013   ----------------------------------------
Label_010B12C1:
 .byte   N05 ,En4 ,v127
 .byte   W12
 .byte   En4 ,v104
 .byte   W36
 .byte   An4 ,v127
 .byte   W12
 .byte   An4 ,v104
 .byte   W06
 .byte   N11 ,Dn4 ,v127
 .byte   W12
 .byte   N05 ,Dn4 ,v104
 .byte   W06
 .byte   N11 ,En4 ,v127
 .byte   W12
 .byte   PEND 
@  #05 @014   ----------------------------------------
Label_010B12DB:
 .byte   N05 ,An3 ,v127
 .byte   W12
 .byte   An3 ,v104
 .byte   W36
 .byte   Dn4 ,v127
 .byte   W12
 .byte   Dn4 ,v104
 .byte   W06
 .byte   N11 ,An3 ,v127
 .byte   W12
 .byte   N05 ,An3 ,v104
 .byte   W06
 .byte   N11 ,Gn3 ,v127
 .byte   W12
 .byte   PEND 
@  #05 @015   ----------------------------------------
Label_010B12F5:
 .byte   N05 ,An3 ,v127
 .byte   W12
 .byte   An3 ,v104
 .byte   W36
 .byte   Dn4 ,v127
 .byte   W12
 .byte   Dn4 ,v104
 .byte   W06
 .byte   N11 ,Gn3 ,v127
 .byte   W12
 .byte   N05 ,Gn3 ,v104
 .byte   W06
 .byte   N11 ,An3 ,v127
 .byte   W12
 .byte   PEND 
@  #05 @016   ----------------------------------------
Label_010B130F:
 .byte   N05 ,En3 ,v127
 .byte   W12
 .byte   En3 ,v104
 .byte   W36
 .byte   Bn4
 .byte   W12
 .byte   N05
 .byte   W06
 .byte   N11 ,En4
 .byte   W12
 .byte   N05
 .byte   W06
 .byte   N11 ,Dn4
 .byte   W12
 .byte   PEND 
@  #05 @017   ----------------------------------------
Label_010B1323:
 .byte   N05 ,En4 ,v104
 .byte   W12
 .byte   N05
 .byte   W36
 .byte   An4 ,v127
 .byte   W12
 .byte   An4 ,v104
 .byte   W06
 .byte   N11 ,Dn4 ,v127
 .byte   W12
 .byte   N05 ,Dn4 ,v104
 .byte   W06
 .byte   N11 ,En4 ,v127
 .byte   W12
 .byte   PEND 
@  #05 @018   ----------------------------------------
 .byte   PATT
  .word Label_010B12DB
@  #05 @019   ----------------------------------------
 .byte   PATT
  .word Label_010B12F5
@  #05 @020   ----------------------------------------
 .byte   N05 ,En3 ,v127
 .byte   W12
 .byte   En3 ,v104
 .byte   W84
@  #05 @021   ----------------------------------------
 .byte   W96
@  #05 @022   ----------------------------------------
 .byte   W96
@  #05 @023   ----------------------------------------
 .byte   W96
@  #05 @024   ----------------------------------------
 .byte   W96
@  #05 @025   ----------------------------------------
 .byte   W96
@  #05 @026   ----------------------------------------
 .byte   W96
@  #05 @027   ----------------------------------------
 .byte   W96
@  #05 @028   ----------------------------------------
 .byte   W96
@  #05 @029   ----------------------------------------
 .byte   W96
@  #05 @030   ----------------------------------------
 .byte   W96
@  #05 @031   ----------------------------------------
 .byte   W96
@  #05 @032   ----------------------------------------
 .byte   W96
@  #05 @033   ----------------------------------------
 .byte   W96
@  #05 @034   ----------------------------------------
 .byte   W96
@  #05 @035   ----------------------------------------
 .byte   W96
@  #05 @036   ----------------------------------------
 .byte   PATT
  .word Label_010B12AC
@  #05 @037   ----------------------------------------
 .byte   PATT
  .word Label_010B12C1
@  #05 @038   ----------------------------------------
 .byte   PATT
  .word Label_010B12DB
@  #05 @039   ----------------------------------------
 .byte   PATT
  .word Label_010B12F5
@  #05 @040   ----------------------------------------
 .byte   PATT
  .word Label_010B130F
@  #05 @041   ----------------------------------------
 .byte   PATT
  .word Label_010B1323
@  #05 @042   ----------------------------------------
 .byte   PATT
  .word Label_010B12DB
@  #05 @043   ----------------------------------------
 .byte   PATT
  .word Label_010B12F5
@  #05 @044   ----------------------------------------
 .byte   W96
@  #05 @045   ----------------------------------------
 .byte   W96
@  #05 @046   ----------------------------------------
 .byte   W96
@  #05 @047   ----------------------------------------
 .byte   W96
@  #05 @048   ----------------------------------------
 .byte   W96
@  #05 @049   ----------------------------------------
 .byte   W96
@  #05 @050   ----------------------------------------
 .byte   PATT
  .word Label_010B12AC
@  #05 @051   ----------------------------------------
 .byte   PATT
  .word Label_010B12C1
@  #05 @052   ----------------------------------------
 .byte   PATT
  .word Label_010B12DB
@  #05 @053   ----------------------------------------
Label_010B1399:
 .byte   N05 ,An3 ,v127
 .byte   W12
 .byte   An3 ,v104
 .byte   W36
 .byte   N02 ,Cs4 ,v127
 .byte   W02
 .byte   N04 ,Dn4
 .byte   W10
 .byte   N05 ,Dn4 ,v104
 .byte   W06
 .byte   N11 ,Gn3 ,v127
 .byte   W12
 .byte   N05 ,Gn3 ,v104
 .byte   W06
 .byte   N11 ,An3 ,v127
 .byte   W12
 .byte   PEND 
@  #05 @054   ----------------------------------------
 .byte   PATT
  .word Label_010B130F
@  #05 @055   ----------------------------------------
 .byte   PATT
  .word Label_010B1323
@  #05 @056   ----------------------------------------
 .byte   PATT
  .word Label_010B12DB
@  #05 @057   ----------------------------------------
 .byte   PATT
  .word Label_010B1399
@  #05 @058   ----------------------------------------
 .byte   W96
@  #05 @059   ----------------------------------------
 .byte   W96
@  #05 @060   ----------------------------------------
 .byte   W96
@  #05 @061   ----------------------------------------
 .byte   W96
@  #05 @062   ----------------------------------------
 .byte   W96
@  #05 @063   ----------------------------------------
 .byte   W96
@  #05 @064   ----------------------------------------
 .byte   W96
@  #05 @065   ----------------------------------------
 .byte   W96
@  #05 @066   ----------------------------------------
 .byte   GOTO
  .word Label_010B12AC
@  #05 @067   ----------------------------------------
 .byte   PATT
  .word Label_010B12AC
@  #05 @068   ----------------------------------------
 .byte   PATT
  .word Label_010B12C1
@  #05 @069   ----------------------------------------
 .byte   PATT
  .word Label_010B12DB
@  #05 @070   ----------------------------------------
 .byte   PATT
  .word Label_010B12F5
@  #05 @071   ----------------------------------------
 .byte   PATT
  .word Label_010B130F
@  #05 @072   ----------------------------------------
 .byte   PATT
  .word Label_010B1323
@  #05 @073   ----------------------------------------
 .byte   PATT
  .word Label_010B12DB
@  #05 @074   ----------------------------------------
 .byte   PATT
  .word Label_010B12F5
@  #05 @075   ----------------------------------------
 .byte   N05 ,En3 ,v127
 .byte   W12
 .byte   En3 ,v104
 .byte   W84
@  #05 @076   ----------------------------------------
 .byte   W96
@  #05 @077   ----------------------------------------
 .byte   W96
@  #05 @078   ----------------------------------------
 .byte   W96
@  #05 @079   ----------------------------------------
 .byte   W96
@  #05 @080   ----------------------------------------
 .byte   W96
@  #05 @081   ----------------------------------------
 .byte   W96
@  #05 @082   ----------------------------------------
 .byte   W96
@  #05 @083   ----------------------------------------
 .byte   W96
@  #05 @084   ----------------------------------------
 .byte   W96
@  #05 @085   ----------------------------------------
 .byte   W96
@  #05 @086   ----------------------------------------
 .byte   W96
@  #05 @087   ----------------------------------------
 .byte   W96
@  #05 @088   ----------------------------------------
 .byte   W96
@  #05 @089   ----------------------------------------
 .byte   W96
@  #05 @090   ----------------------------------------
 .byte   W96
@  #05 @091   ----------------------------------------
 .byte   PATT
  .word Label_010B12AC
@  #05 @092   ----------------------------------------
 .byte   PATT
  .word Label_010B12C1
@  #05 @093   ----------------------------------------
 .byte   PATT
  .word Label_010B12DB
@  #05 @094   ----------------------------------------
 .byte   PATT
  .word Label_010B12F5
@  #05 @095   ----------------------------------------
 .byte   PATT
  .word Label_010B130F
@  #05 @096   ----------------------------------------
 .byte   PATT
  .word Label_010B1323
@  #05 @097   ----------------------------------------
 .byte   PATT
  .word Label_010B12DB
@  #05 @098   ----------------------------------------
 .byte   PATT
  .word Label_010B12F5
@  #05 @099   ----------------------------------------
 .byte   W96
@  #05 @100   ----------------------------------------
 .byte   W96
@  #05 @101   ----------------------------------------
 .byte   W96
@  #05 @102   ----------------------------------------
 .byte   W96
@  #05 @103   ----------------------------------------
 .byte   W96
@  #05 @104   ----------------------------------------
 .byte   W96
@  #05 @105   ----------------------------------------
 .byte   PATT
  .word Label_010B12AC
@  #05 @106   ----------------------------------------
 .byte   PATT
  .word Label_010B12C1
@  #05 @107   ----------------------------------------
 .byte   PATT
  .word Label_010B12DB
@  #05 @108   ----------------------------------------
 .byte   PATT
  .word Label_010B1399
@  #05 @109   ----------------------------------------
 .byte   PATT
  .word Label_010B130F
@  #05 @110   ----------------------------------------
 .byte   PATT
  .word Label_010B1323
@  #05 @111   ----------------------------------------
 .byte   PATT
  .word Label_010B12DB
@  #05 @112   ----------------------------------------
 .byte   PATT
  .word Label_010B1399
@  #05 @113   ----------------------------------------
 .byte   W96
@  #05 @114   ----------------------------------------
 .byte   W92
 .byte   W03
 .byte   FINE

@**************** Track 6 (Midi-Chn.5) ****************@

song09_006:
@  #06 @000   ----------------------------------------
 .byte   KEYSH , song09_key+0
 .byte   VOICE , 19
 .byte   MODT 0
 .byte   LFOS 44
 .byte   VOL , 29*song09_mvl/mxv
 .byte   PAN , c_v+0
 .byte   W96
@  #06 @001   ----------------------------------------
 .byte   W96
@  #06 @002   ----------------------------------------
 .byte   W96
@  #06 @003   ----------------------------------------
 .byte   W96
@  #06 @004   ----------------------------------------
Label_010B1484:
 .byte   N92 ,En2 ,v060
 .byte   N92 ,An2
 .byte   N92 ,Dn3
 .byte   N92 ,En3
 .byte   N92 ,An3
 .byte   W96
 .byte   PEND 
@  #06 @005   ----------------------------------------
Label_010B1491:
 .byte   N92 ,En2 ,v060
 .byte   N92 ,Bn2
 .byte   N92 ,En3
 .byte   N92 ,Gn3
 .byte   N92 ,Bn3
 .byte   W96
 .byte   PEND 
@  #06 @006   ----------------------------------------
Label_010B149E:
 .byte   N92 ,Fn2 ,v060
 .byte   N92 ,An2
 .byte   N92 ,Cn3
 .byte   N92 ,Fn3
 .byte   N92 ,Cn4
 .byte   W96
 .byte   PEND 
@  #06 @007   ----------------------------------------
Label_010B14AB:
 .byte   N92 ,Gn2 ,v060
 .byte   N92 ,Bn2
 .byte   N92 ,Gn3
 .byte   N92 ,Dn4
 .byte   W96
 .byte   PEND 
@  #06 @008   ----------------------------------------
 .byte   PATT
  .word Label_010B1484
@  #06 @009   ----------------------------------------
 .byte   PATT
  .word Label_010B1491
@  #06 @010   ----------------------------------------
 .byte   PATT
  .word Label_010B149E
@  #06 @011   ----------------------------------------
 .byte   PATT
  .word Label_010B14AB
@  #06 @012   ----------------------------------------
Label_010B14CA:
 .byte   N92 ,En2 ,v060
 .byte   N92 ,Gn2
 .byte   N68 ,Bn2
 .byte   N68 ,En3
 .byte   W72
 .byte   N23 ,An2
 .byte   N23 ,Gn3
 .byte   W24
 .byte   PEND 
@  #06 @013   ----------------------------------------
Label_010B14DA:
 .byte   N92 ,En2 ,v060
 .byte   N68 ,An2
 .byte   N68 ,En3
 .byte   W72
 .byte   N23 ,Bn2
 .byte   N23 ,Fs3
 .byte   N23 ,An3
 .byte   W24
 .byte   PEND 
@  #06 @014   ----------------------------------------
Label_010B14EA:
 .byte   N92 ,Gn2 ,v060
 .byte   N68 ,Cn3
 .byte   N68 ,Dn3
 .byte   N68 ,Gn3
 .byte   W72
 .byte   N23 ,En3
 .byte   N23 ,Gn3
 .byte   N23 ,Bn3
 .byte   W24
 .byte   PEND 
@  #06 @015   ----------------------------------------
Label_010B14FC:
 .byte   N92 ,Bn2 ,v060
 .byte   N44 ,Dn3
 .byte   N44 ,Fs3
 .byte   N44 ,An3
 .byte   W48
 .byte   Fs3
 .byte   N44 ,An3
 .byte   N44 ,Dn4
 .byte   W48
 .byte   PEND 
@  #06 @016   ----------------------------------------
 .byte   PATT
  .word Label_010B14CA
@  #06 @017   ----------------------------------------
 .byte   PATT
  .word Label_010B14DA
@  #06 @018   ----------------------------------------
 .byte   PATT
  .word Label_010B14EA
@  #06 @019   ----------------------------------------
 .byte   PATT
  .word Label_010B14FC
@  #06 @020   ----------------------------------------
Label_010B1521:
 .byte   TIE ,Dn3 ,v060
 .byte   TIE ,En3 ,v052
 .byte   TIE ,Gn3 ,v060
 .byte   TIE ,Bn3 ,v052
 .byte   W96
 .byte   PEND 
@  #06 @021   ----------------------------------------
 .byte   W44
 .byte   W03
 .byte   EOT
 .byte   Dn3 ,v064
 .byte   Gn3 ,v071
 .byte   W24
 .byte   W01
 .byte   N11 ,Bn2 ,v060
 .byte   N11 ,Dn3 ,v052
 .byte   N11 ,Fs3 ,v060
 .byte   N11 ,An3 ,v052
 .byte   W24
@  #06 @022   ----------------------------------------
 .byte   PATT
  .word Label_010B1521
@  #06 @023   ----------------------------------------
 .byte   W44
 .byte   W03
 .byte   EOT
 .byte   Dn3 ,v064
 .byte   Gn3 ,v071
 .byte   W24
 .byte   W01
 .byte   N11 ,Bn2 ,v060
 .byte   N11 ,Dn3 ,v052
 .byte   N11 ,Fs3 ,v060
 .byte   N11 ,An3 ,v052
 .byte   W24
@  #06 @024   ----------------------------------------
 .byte   PATT
  .word Label_010B1521
@  #06 @025   ----------------------------------------
 .byte   W44
 .byte   W03
 .byte   EOT
 .byte   Dn3 ,v064
 .byte   Gn3 ,v071
 .byte   W24
 .byte   W01
 .byte   N11 ,Bn2 ,v060
 .byte   N11 ,Dn3 ,v052
 .byte   N11 ,Fs3 ,v060
 .byte   N11 ,An3 ,v052
 .byte   W24
@  #06 @026   ----------------------------------------
 .byte   PATT
  .word Label_010B1521
@  #06 @027   ----------------------------------------
 .byte   W44
 .byte   W03
 .byte   EOT
 .byte   Dn3 ,v064
 .byte   Gn3 ,v071
 .byte   W24
 .byte   W01
 .byte   N11 ,Bn2 ,v060
 .byte   N11 ,Dn3 ,v052
 .byte   N11 ,Fs3 ,v060
 .byte   N11 ,An3 ,v052
 .byte   W24
@  #06 @028   ----------------------------------------
Label_010B1596:
 .byte   N44 ,Bn2 ,v060
 .byte   N44 ,En3 ,v048
 .byte   N44 ,Gn3 ,v060
 .byte   N44 ,Bn3 ,v052
 .byte   W48
 .byte   Bn2 ,v060
 .byte   N44 ,En3 ,v048
 .byte   N44 ,Gn3 ,v060
 .byte   N44 ,Bn3 ,v052
 .byte   W48
 .byte   PEND 
@  #06 @029   ----------------------------------------
Label_010B15B0:
 .byte   N44 ,Bn2 ,v060
 .byte   N44 ,Dn3 ,v048
 .byte   N44 ,Fs3 ,v060
 .byte   N44 ,An3 ,v052
 .byte   W48
 .byte   An2 ,v060
 .byte   N44 ,Fs3 ,v048
 .byte   N44 ,An3 ,v060
 .byte   N44 ,Dn4 ,v052
 .byte   W48
 .byte   PEND 
@  #06 @030   ----------------------------------------
Label_010B15CA:
 .byte   N44 ,Bn2 ,v060
 .byte   N44 ,En3 ,v048
 .byte   N44 ,Fs3 ,v060
 .byte   N44 ,Bn3 ,v052
 .byte   W48
 .byte   An2 ,v060
 .byte   N44 ,An3
 .byte   N44 ,Bn3 ,v048
 .byte   N44 ,Gn4 ,v052
 .byte   W48
 .byte   PEND 
@  #06 @031   ----------------------------------------
Label_010B15E3:
 .byte   N44 ,Bn2 ,v060
 .byte   N44 ,An3 ,v048
 .byte   N44 ,Fs4 ,v052
 .byte   W48
 .byte   Bn2 ,v060
 .byte   N44 ,Fs3 ,v048
 .byte   N44 ,Dn4 ,v052
 .byte   W48
 .byte   PEND 
@  #06 @032   ----------------------------------------
Label_010B15F7:
 .byte   N44 ,Bn2 ,v060
 .byte   N44 ,En3
 .byte   N44 ,Gn3 ,v048
 .byte   N44 ,Bn3 ,v052
 .byte   W48
 .byte   Bn2 ,v060
 .byte   N44 ,En3 ,v048
 .byte   N44 ,Gn3 ,v060
 .byte   N44 ,Bn3 ,v052
 .byte   W48
 .byte   PEND 
@  #06 @033   ----------------------------------------
Label_010B1610:
 .byte   N44 ,Bn2 ,v060
 .byte   N44 ,Dn3
 .byte   N44 ,Fs3 ,v048
 .byte   N44 ,An3 ,v052
 .byte   W48
 .byte   An2 ,v060
 .byte   N44 ,Fs3
 .byte   N44 ,An3 ,v048
 .byte   N44 ,Dn4 ,v052
 .byte   W48
 .byte   PEND 
@  #06 @034   ----------------------------------------
Label_010B1628:
 .byte   N44 ,An2 ,v060
 .byte   N44 ,En3 ,v048
 .byte   N44 ,Gn3 ,v060
 .byte   N44 ,Bn3 ,v052
 .byte   W48
 .byte   An2 ,v060
 .byte   N44 ,Bn3 ,v048
 .byte   N44 ,Dn4 ,v060
 .byte   N44 ,Gn4 ,v052
 .byte   W48
 .byte   PEND 
@  #06 @035   ----------------------------------------
Label_010B1642:
 .byte   N44 ,Bn2 ,v060
 .byte   N44 ,An3 ,v048
 .byte   N44 ,Fs4 ,v052
 .byte   W48
 .byte   Bn2 ,v060
 .byte   N44 ,Fs3
 .byte   N44 ,Dn4 ,v052
 .byte   W48
 .byte   PEND 
@  #06 @036   ----------------------------------------
 .byte   PATT
  .word Label_010B14CA
@  #06 @037   ----------------------------------------
 .byte   PATT
  .word Label_010B14DA
@  #06 @038   ----------------------------------------
 .byte   PATT
  .word Label_010B14EA
@  #06 @039   ----------------------------------------
 .byte   PATT
  .word Label_010B14FC
@  #06 @040   ----------------------------------------
 .byte   PATT
  .word Label_010B14CA
@  #06 @041   ----------------------------------------
 .byte   PATT
  .word Label_010B14DA
@  #06 @042   ----------------------------------------
 .byte   PATT
  .word Label_010B14EA
@  #06 @043   ----------------------------------------
 .byte   PATT
  .word Label_010B14FC
@  #06 @044   ----------------------------------------
 .byte   PATT
  .word Label_010B1521
@  #06 @045   ----------------------------------------
 .byte   W44
 .byte   W03
 .byte   EOT
 .byte   Dn3 ,v064
 .byte   Gn3 ,v071
 .byte   W24
 .byte   W01
 .byte   N11 ,Bn2 ,v060
 .byte   N11 ,Dn3 ,v052
 .byte   N11 ,Fs3 ,v060
 .byte   N11 ,An3 ,v052
 .byte   W24
@  #06 @046   ----------------------------------------
 .byte   PATT
  .word Label_010B1521
@  #06 @047   ----------------------------------------
 .byte   W44
 .byte   W03
 .byte   EOT
 .byte   Dn3 ,v064
 .byte   Gn3 ,v071
 .byte   W24
 .byte   W01
 .byte   N11 ,Bn2 ,v060
 .byte   N11 ,Dn3 ,v052
 .byte   N11 ,Fs3 ,v060
 .byte   N11 ,An3 ,v052
 .byte   W24
@  #06 @048   ----------------------------------------
 .byte   PATT
  .word Label_010B1521
@  #06 @049   ----------------------------------------
 .byte   W44
 .byte   W03
 .byte   EOT
 .byte   Dn3 ,v064
 .byte   Gn3 ,v071
 .byte   W24
 .byte   W01
 .byte   N11 ,Bn2 ,v060
 .byte   N11 ,Dn3 ,v052
 .byte   N11 ,Fs3 ,v060
 .byte   N11 ,An3 ,v052
 .byte   W24
@  #06 @050   ----------------------------------------
Label_010B16CE:
 .byte   TIE ,Cn3 ,v060
 .byte   TIE ,En3 ,v048
 .byte   TIE ,Gn3 ,v060
 .byte   W96
 .byte   PEND 
@  #06 @051   ----------------------------------------
 .byte   W92
 .byte   W03
 .byte   EOT
 .byte   Cn3 ,v064
 .byte   Gn3
 .byte   W01
@  #06 @052   ----------------------------------------
Label_010B16E0:
 .byte   TIE ,An2 ,v060
 .byte   TIE ,Dn3 ,v048
 .byte   TIE ,Fs3 ,v060
 .byte   W96
 .byte   PEND 
@  #06 @053   ----------------------------------------
 .byte   W92
 .byte   W03
 .byte   EOT
 .byte   An2 ,v062
 .byte   Fs3
 .byte   W01
@  #06 @054   ----------------------------------------
 .byte   PATT
  .word Label_010B16CE
@  #06 @055   ----------------------------------------
 .byte   W92
 .byte   W03
 .byte   EOT
 .byte   Cn3 ,v064
 .byte   Gn3
 .byte   W01
@  #06 @056   ----------------------------------------
 .byte   PATT
  .word Label_010B16E0
@  #06 @057   ----------------------------------------
 .byte   W92
 .byte   W03
 .byte   EOT
 .byte   An2 ,v062
 .byte   Fs3
 .byte   W01
@  #06 @058   ----------------------------------------
 .byte   N92 ,Dn3 ,v060
 .byte   N92 ,An3
 .byte   W96
@  #06 @059   ----------------------------------------
 .byte   W96
@  #06 @060   ----------------------------------------
 .byte   PATT
  .word Label_010B149E
@  #06 @061   ----------------------------------------
 .byte   PATT
  .word Label_010B14AB
@  #06 @062   ----------------------------------------
 .byte   PATT
  .word Label_010B1484
@  #06 @063   ----------------------------------------
 .byte   PATT
  .word Label_010B1491
@  #06 @064   ----------------------------------------
 .byte   PATT
  .word Label_010B149E
@  #06 @065   ----------------------------------------
 .byte   PATT
  .word Label_010B14AB
@  #06 @066   ----------------------------------------
 .byte   GOTO
  .word Label_010B14CA
@  #06 @067   ----------------------------------------
 .byte   PATT
  .word Label_010B14CA
@  #06 @068   ----------------------------------------
 .byte   PATT
  .word Label_010B14DA
@  #06 @069   ----------------------------------------
 .byte   PATT
  .word Label_010B14EA
@  #06 @070   ----------------------------------------
 .byte   PATT
  .word Label_010B14FC
@  #06 @071   ----------------------------------------
 .byte   PATT
  .word Label_010B14CA
@  #06 @072   ----------------------------------------
 .byte   PATT
  .word Label_010B14DA
@  #06 @073   ----------------------------------------
 .byte   PATT
  .word Label_010B14EA
@  #06 @074   ----------------------------------------
 .byte   PATT
  .word Label_010B14FC
@  #06 @075   ----------------------------------------
 .byte   PATT
  .word Label_010B1521
@  #06 @076   ----------------------------------------
 .byte   W44
 .byte   W03
 .byte   EOT
 .byte   Dn3 ,v064
 .byte   Gn3 ,v071
 .byte   W24
 .byte   W01
 .byte   N11 ,Bn2 ,v060
 .byte   N11 ,Dn3 ,v052
 .byte   N11 ,Fs3 ,v060
 .byte   N11 ,An3 ,v052
 .byte   W24
@  #06 @077   ----------------------------------------
 .byte   PATT
  .word Label_010B1521
@  #06 @078   ----------------------------------------
 .byte   W44
 .byte   W03
 .byte   EOT
 .byte   Dn3 ,v064
 .byte   Gn3 ,v071
 .byte   W24
 .byte   W01
 .byte   N11 ,Bn2 ,v060
 .byte   N11 ,Dn3 ,v052
 .byte   N11 ,Fs3 ,v060
 .byte   N11 ,An3 ,v052
 .byte   W24
@  #06 @079   ----------------------------------------
 .byte   PATT
  .word Label_010B1521
@  #06 @080   ----------------------------------------
 .byte   W44
 .byte   W03
 .byte   EOT
 .byte   Dn3 ,v064
 .byte   Gn3 ,v071
 .byte   W24
 .byte   W01
 .byte   N11 ,Bn2 ,v060
 .byte   N11 ,Dn3 ,v052
 .byte   N11 ,Fs3 ,v060
 .byte   N11 ,An3 ,v052
 .byte   W24
@  #06 @081   ----------------------------------------
 .byte   PATT
  .word Label_010B1521
@  #06 @082   ----------------------------------------
 .byte   W44
 .byte   W03
 .byte   EOT
 .byte   Dn3 ,v064
 .byte   Gn3 ,v071
 .byte   W24
 .byte   W01
 .byte   N11 ,Bn2 ,v060
 .byte   N11 ,Dn3 ,v052
 .byte   N11 ,Fs3 ,v060
 .byte   N11 ,An3 ,v052
 .byte   W24
@  #06 @083   ----------------------------------------
 .byte   PATT
  .word Label_010B1596
@  #06 @084   ----------------------------------------
 .byte   PATT
  .word Label_010B15B0
@  #06 @085   ----------------------------------------
 .byte   PATT
  .word Label_010B15CA
@  #06 @086   ----------------------------------------
 .byte   PATT
  .word Label_010B15E3
@  #06 @087   ----------------------------------------
 .byte   PATT
  .word Label_010B15F7
@  #06 @088   ----------------------------------------
 .byte   PATT
  .word Label_010B1610
@  #06 @089   ----------------------------------------
 .byte   PATT
  .word Label_010B1628
@  #06 @090   ----------------------------------------
 .byte   PATT
  .word Label_010B1642
@  #06 @091   ----------------------------------------
 .byte   PATT
  .word Label_010B14CA
@  #06 @092   ----------------------------------------
 .byte   PATT
  .word Label_010B14DA
@  #06 @093   ----------------------------------------
 .byte   PATT
  .word Label_010B14EA
@  #06 @094   ----------------------------------------
 .byte   PATT
  .word Label_010B14FC
@  #06 @095   ----------------------------------------
 .byte   PATT
  .word Label_010B14CA
@  #06 @096   ----------------------------------------
 .byte   PATT
  .word Label_010B14DA
@  #06 @097   ----------------------------------------
 .byte   PATT
  .word Label_010B14EA
@  #06 @098   ----------------------------------------
 .byte   PATT
  .word Label_010B14FC
@  #06 @099   ----------------------------------------
 .byte   PATT
  .word Label_010B1521
@  #06 @100   ----------------------------------------
 .byte   W44
 .byte   W03
 .byte   EOT
 .byte   Dn3 ,v064
 .byte   Gn3 ,v071
 .byte   W24
 .byte   W01
 .byte   N11 ,Bn2 ,v060
 .byte   N11 ,Dn3 ,v052
 .byte   N11 ,Fs3 ,v060
 .byte   N11 ,An3 ,v052
 .byte   W24
@  #06 @101   ----------------------------------------
 .byte   PATT
  .word Label_010B1521
@  #06 @102   ----------------------------------------
 .byte   W44
 .byte   W03
 .byte   EOT
 .byte   Dn3 ,v064
 .byte   Gn3 ,v071
 .byte   W24
 .byte   W01
 .byte   N11 ,Bn2 ,v060
 .byte   N11 ,Dn3 ,v052
 .byte   N11 ,Fs3 ,v060
 .byte   N11 ,An3 ,v052
 .byte   W24
@  #06 @103   ----------------------------------------
 .byte   PATT
  .word Label_010B1521
@  #06 @104   ----------------------------------------
 .byte   W44
 .byte   W03
 .byte   EOT
 .byte   Dn3 ,v064
 .byte   Gn3 ,v071
 .byte   W24
 .byte   W01
 .byte   N11 ,Bn2 ,v060
 .byte   N11 ,Dn3 ,v052
 .byte   N11 ,Fs3 ,v060
 .byte   N11 ,An3 ,v052
 .byte   W24
@  #06 @105   ----------------------------------------
 .byte   PATT
  .word Label_010B16CE
@  #06 @106   ----------------------------------------
 .byte   W92
 .byte   W03
 .byte   EOT
 .byte   Cn3 ,v064
 .byte   Gn3
 .byte   W01
@  #06 @107   ----------------------------------------
 .byte   PATT
  .word Label_010B16E0
@  #06 @108   ----------------------------------------
 .byte   W92
 .byte   W03
 .byte   EOT
 .byte   An2 ,v062
 .byte   Fs3
 .byte   W01
@  #06 @109   ----------------------------------------
 .byte   PATT
  .word Label_010B16CE
@  #06 @110   ----------------------------------------
 .byte   W92
 .byte   W03
 .byte   EOT
 .byte   Cn3 ,v064
 .byte   Gn3
 .byte   W01
@  #06 @111   ----------------------------------------
 .byte   PATT
  .word Label_010B16E0
@  #06 @112   ----------------------------------------
 .byte   W92
 .byte   W03
 .byte   EOT
 .byte   An2 ,v062
 .byte   Fs3
 .byte   W01
@  #06 @113   ----------------------------------------
 .byte   N92 ,Dn3 ,v060
 .byte   N92 ,An3
 .byte   W96
@  #06 @114   ----------------------------------------
 .byte   W92
 .byte   W03
 .byte   FINE

@**************** Track 7 (Midi-Chn.6) ****************@

song09_007:
@  #07 @000   ----------------------------------------
 .byte   KEYSH , song09_key+0
 .byte   VOICE , 52
 .byte   MODT 0
 .byte   LFOS 44
 .byte   VOL , 29*song09_mvl/mxv
 .byte   PAN , c_v+0
 .byte   TIE ,An1 ,v080
 .byte   W96
@  #07 @001   ----------------------------------------
 .byte   W92
 .byte   W03
 .byte   EOT
 .byte   W01
@  #07 @002   ----------------------------------------
 .byte   TIE
 .byte   W96
@  #07 @003   ----------------------------------------
 .byte   W92
 .byte   W03
 .byte   EOT
 .byte   W01
@  #07 @004   ----------------------------------------
 .byte   TIE
 .byte   W96
@  #07 @005   ----------------------------------------
 .byte   W92
 .byte   W03
 .byte   EOT
 .byte   W01
@  #07 @006   ----------------------------------------
 .byte   TIE
 .byte   W96
@  #07 @007   ----------------------------------------
 .byte   W92
 .byte   W03
 .byte   EOT
 .byte   W01
@  #07 @008   ----------------------------------------
 .byte   TIE
 .byte   W96
@  #07 @009   ----------------------------------------
 .byte   W92
 .byte   W03
 .byte   EOT
 .byte   W01
@  #07 @010   ----------------------------------------
 .byte   TIE
 .byte   W96
@  #07 @011   ----------------------------------------
 .byte   W92
 .byte   W03
 .byte   EOT
 .byte   W01
@  #07 @012   ----------------------------------------
Label_010A7D96:
 .byte   N92 ,An1 ,v080
 .byte   W96
@  #07 @013   ----------------------------------------
 .byte   Bn1
 .byte   W96
@  #07 @014   ----------------------------------------
 .byte   Cn2
 .byte   W96
@  #07 @015   ----------------------------------------
 .byte   Dn2
 .byte   W96
@  #07 @016   ----------------------------------------
 .byte   An1
 .byte   W96
@  #07 @017   ----------------------------------------
 .byte   Bn1
 .byte   W96
@  #07 @018   ----------------------------------------
 .byte   Cn2
 .byte   W96
@  #07 @019   ----------------------------------------
 .byte   Dn2
 .byte   W96
@  #07 @020   ----------------------------------------
 .byte   TIE ,An1
 .byte   W96
@  #07 @021   ----------------------------------------
 .byte   W92
 .byte   W03
 .byte   EOT
 .byte   W01
@  #07 @022   ----------------------------------------
 .byte   TIE
 .byte   W96
@  #07 @023   ----------------------------------------
 .byte   W92
 .byte   W03
 .byte   EOT
 .byte   W01
@  #07 @024   ----------------------------------------
 .byte   TIE
 .byte   W96
@  #07 @025   ----------------------------------------
 .byte   W92
 .byte   W03
 .byte   EOT
 .byte   W01
@  #07 @026   ----------------------------------------
 .byte   TIE
 .byte   W96
@  #07 @027   ----------------------------------------
 .byte   W92
 .byte   W03
 .byte   EOT
 .byte   W01
@  #07 @028   ----------------------------------------
 .byte   N92 ,Cn2
 .byte   W96
@  #07 @029   ----------------------------------------
 .byte   Dn2
 .byte   W96
@  #07 @030   ----------------------------------------
 .byte   En2
 .byte   W96
@  #07 @031   ----------------------------------------
 .byte   Dn2
 .byte   W96
@  #07 @032   ----------------------------------------
 .byte   Cn2
 .byte   W96
@  #07 @033   ----------------------------------------
 .byte   Dn2
 .byte   W96
@  #07 @034   ----------------------------------------
 .byte   En2
 .byte   W96
@  #07 @035   ----------------------------------------
 .byte   Dn2
 .byte   W96
@  #07 @036   ----------------------------------------
 .byte   An1
 .byte   W96
@  #07 @037   ----------------------------------------
 .byte   Bn1
 .byte   W96
@  #07 @038   ----------------------------------------
 .byte   Cn2
 .byte   W96
@  #07 @039   ----------------------------------------
 .byte   Dn2
 .byte   W96
@  #07 @040   ----------------------------------------
 .byte   An1
 .byte   W96
@  #07 @041   ----------------------------------------
 .byte   Bn1
 .byte   W96
@  #07 @042   ----------------------------------------
 .byte   Cn2
 .byte   W96
@  #07 @043   ----------------------------------------
 .byte   Dn2
 .byte   W96
@  #07 @044   ----------------------------------------
 .byte   TIE ,An1
 .byte   W96
@  #07 @045   ----------------------------------------
 .byte   W92
 .byte   W03
 .byte   EOT
 .byte   W01
@  #07 @046   ----------------------------------------
 .byte   TIE
 .byte   W96
@  #07 @047   ----------------------------------------
 .byte   W92
 .byte   W03
 .byte   EOT
 .byte   W01
@  #07 @048   ----------------------------------------
 .byte   TIE
 .byte   W96
@  #07 @049   ----------------------------------------
 .byte   W92
 .byte   W03
 .byte   EOT
 .byte   W01
@  #07 @050   ----------------------------------------
 .byte   TIE ,Fn1
 .byte   W96
@  #07 @051   ----------------------------------------
 .byte   W92
 .byte   W03
 .byte   EOT
 .byte   W01
@  #07 @052   ----------------------------------------
 .byte   TIE ,Gn1
 .byte   W96
@  #07 @053   ----------------------------------------
 .byte   W92
 .byte   W03
 .byte   EOT
 .byte   W01
@  #07 @054   ----------------------------------------
 .byte   TIE ,Fn1
 .byte   W96
@  #07 @055   ----------------------------------------
 .byte   W92
 .byte   W03
 .byte   EOT
 .byte   W01
@  #07 @056   ----------------------------------------
 .byte   TIE ,Gn1
 .byte   W96
@  #07 @057   ----------------------------------------
 .byte   W92
 .byte   W03
 .byte   EOT
 .byte   W01
@  #07 @058   ----------------------------------------
 .byte   N92 ,An1
 .byte   W96
@  #07 @059   ----------------------------------------
 .byte   N92
 .byte   W96
@  #07 @060   ----------------------------------------
 .byte   TIE
 .byte   W96
@  #07 @061   ----------------------------------------
 .byte   W92
 .byte   W03
 .byte   EOT
 .byte   W01
@  #07 @062   ----------------------------------------
 .byte   TIE
 .byte   W96
@  #07 @063   ----------------------------------------
 .byte   W92
 .byte   W03
 .byte   EOT
 .byte   W01
@  #07 @064   ----------------------------------------
 .byte   TIE
 .byte   W96
@  #07 @065   ----------------------------------------
 .byte   W92
 .byte   W03
 .byte   EOT
 .byte   W01
@  #07 @066   ----------------------------------------
 .byte   GOTO
  .word Label_010A7D96
@  #07 @067   ----------------------------------------
 .byte   N92 ,An1 ,v080
 .byte   W96
@  #07 @068   ----------------------------------------
 .byte   Bn1
 .byte   W96
@  #07 @069   ----------------------------------------
 .byte   Cn2
 .byte   W96
@  #07 @070   ----------------------------------------
 .byte   Dn2
 .byte   W96
@  #07 @071   ----------------------------------------
 .byte   An1
 .byte   W96
@  #07 @072   ----------------------------------------
 .byte   Bn1
 .byte   W96
@  #07 @073   ----------------------------------------
 .byte   Cn2
 .byte   W96
@  #07 @074   ----------------------------------------
 .byte   Dn2
 .byte   W96
@  #07 @075   ----------------------------------------
 .byte   TIE ,An1
 .byte   W96
@  #07 @076   ----------------------------------------
 .byte   W92
 .byte   W03
 .byte   EOT
 .byte   W01
@  #07 @077   ----------------------------------------
 .byte   TIE
 .byte   W96
@  #07 @078   ----------------------------------------
 .byte   W92
 .byte   W03
 .byte   EOT
 .byte   W01
@  #07 @079   ----------------------------------------
 .byte   TIE
 .byte   W96
@  #07 @080   ----------------------------------------
 .byte   W92
 .byte   W03
 .byte   EOT
 .byte   W01
@  #07 @081   ----------------------------------------
 .byte   TIE
 .byte   W96
@  #07 @082   ----------------------------------------
 .byte   W92
 .byte   W03
 .byte   EOT
 .byte   W01
@  #07 @083   ----------------------------------------
 .byte   N92 ,Cn2
 .byte   W96
@  #07 @084   ----------------------------------------
 .byte   Dn2
 .byte   W96
@  #07 @085   ----------------------------------------
 .byte   En2
 .byte   W96
@  #07 @086   ----------------------------------------
 .byte   Dn2
 .byte   W96
@  #07 @087   ----------------------------------------
 .byte   Cn2
 .byte   W96
@  #07 @088   ----------------------------------------
 .byte   Dn2
 .byte   W96
@  #07 @089   ----------------------------------------
 .byte   En2
 .byte   W96
@  #07 @090   ----------------------------------------
 .byte   Dn2
 .byte   W96
@  #07 @091   ----------------------------------------
 .byte   An1
 .byte   W96
@  #07 @092   ----------------------------------------
 .byte   Bn1
 .byte   W96
@  #07 @093   ----------------------------------------
 .byte   Cn2
 .byte   W96
@  #07 @094   ----------------------------------------
 .byte   Dn2
 .byte   W96
@  #07 @095   ----------------------------------------
 .byte   An1
 .byte   W96
@  #07 @096   ----------------------------------------
 .byte   Bn1
 .byte   W96
@  #07 @097   ----------------------------------------
 .byte   Cn2
 .byte   W96
@  #07 @098   ----------------------------------------
 .byte   Dn2
 .byte   W96
@  #07 @099   ----------------------------------------
 .byte   TIE ,An1
 .byte   W96
@  #07 @100   ----------------------------------------
 .byte   W92
 .byte   W03
 .byte   EOT
 .byte   W01
@  #07 @101   ----------------------------------------
 .byte   TIE
 .byte   W96
@  #07 @102   ----------------------------------------
 .byte   W92
 .byte   W03
 .byte   EOT
 .byte   W01
@  #07 @103   ----------------------------------------
 .byte   TIE
 .byte   W96
@  #07 @104   ----------------------------------------
 .byte   W92
 .byte   W03
 .byte   EOT
 .byte   W01
@  #07 @105   ----------------------------------------
 .byte   TIE ,Fn1
 .byte   W96
@  #07 @106   ----------------------------------------
 .byte   W92
 .byte   W03
 .byte   EOT
 .byte   W01
@  #07 @107   ----------------------------------------
 .byte   TIE ,Gn1
 .byte   W96
@  #07 @108   ----------------------------------------
 .byte   W92
 .byte   W03
 .byte   EOT
 .byte   W01
@  #07 @109   ----------------------------------------
 .byte   TIE ,Fn1
 .byte   W96
@  #07 @110   ----------------------------------------
 .byte   W92
 .byte   W03
 .byte   EOT
 .byte   W01
@  #07 @111   ----------------------------------------
 .byte   TIE ,Gn1
 .byte   W96
@  #07 @112   ----------------------------------------
 .byte   W92
 .byte   W03
 .byte   EOT
 .byte   W01
@  #07 @113   ----------------------------------------
 .byte   N92 ,An1
 .byte   W96
@  #07 @114   ----------------------------------------
 .byte   N92
 .byte   W92
 .byte   W03
 .byte   FINE

@**************** Track 8 (Midi-Chn.7) ****************@

song09_008:
@  #08 @000   ----------------------------------------
 .byte   KEYSH , song09_key+0
 .byte   VOICE , 122
 .byte   MODT 0
 .byte   LFOS 44
 .byte   VOL , 29*song09_mvl/mxv
 .byte   PAN , c_v+0
 .byte   VOL , 29*song09_mvl/mxv
 .byte   PAN , c_v+0
 .byte   VOL , 29*song09_mvl/mxv
 .byte   PAN , c_v+0
 .byte   VOL , 29*song09_mvl/mxv
 .byte   PAN , c_v+0
 .byte   VOL , 29*song09_mvl/mxv
 .byte   PAN , c_v+0
 .byte   VOL , 29*song09_mvl/mxv
 .byte   PAN , c_v+0
 .byte   VOL , 29*song09_mvl/mxv
 .byte   PAN , c_v+0
 .byte   VOL , 29*song09_mvl/mxv
 .byte   PAN , c_v+0
 .byte   N17 ,Cn1 ,v127
 .byte   N05 ,Fs1 ,v080
 .byte   W06
 .byte   Cs1 ,v060
 .byte   W06
 .byte   N05
 .byte   W06
 .byte   N17 ,Cn1 ,v127
 .byte   N05 ,Cs1 ,v060
 .byte   W06
 .byte   Cs1 ,v080
 .byte   W06
 .byte   Cs1 ,v060
 .byte   W06
 .byte   N56 ,Cn1 ,v127
 .byte   N05 ,Cs1 ,v080
 .byte   W06
 .byte   Cs1 ,v060
 .byte   W06
 .byte   Cs1 ,v080
 .byte   W06
 .byte   Cs1 ,v060
 .byte   W06
 .byte   Cs1 ,v080
 .byte   W06
 .byte   Cs1 ,v060
 .byte   W06
 .byte   Cs1 ,v080
 .byte   W06
 .byte   Cs1 ,v060
 .byte   W06
 .byte   Cs1 ,v080
 .byte   W06
 .byte   Cs1 ,v060
 .byte   W06
@  #08 @001   ----------------------------------------
Label_010B1907:
 .byte   N05 ,Cs1 ,v080
 .byte   W06
 .byte   Cs1 ,v060
 .byte   W06
 .byte   N05
 .byte   W06
 .byte   N05
 .byte   W06
 .byte   Cs1 ,v080
 .byte   W06
 .byte   Cs1 ,v060
 .byte   W06
 .byte   Cs1 ,v080
 .byte   W06
 .byte   Cs1 ,v060
 .byte   W06
 .byte   Cs1 ,v080
 .byte   W06
 .byte   Cs1 ,v060
 .byte   W06
 .byte   Cs1 ,v080
 .byte   W06
 .byte   Cs1 ,v060
 .byte   W06
 .byte   Cs1 ,v080
 .byte   W06
 .byte   Cs1 ,v060
 .byte   W06
 .byte   N11
 .byte   W12
 .byte   PEND 
@  #08 @002   ----------------------------------------
 .byte   N17 ,Cn1 ,v127
 .byte   N05 ,Cs1 ,v080
 .byte   W06
 .byte   Cs1 ,v060
 .byte   W06
 .byte   N05
 .byte   W06
 .byte   N17 ,Cn1 ,v127
 .byte   N05 ,Cs1 ,v060
 .byte   W06
 .byte   Cs1 ,v080
 .byte   W06
 .byte   Cs1 ,v060
 .byte   W06
 .byte   N56 ,Cn1 ,v127
 .byte   N05 ,Cs1 ,v080
 .byte   W06
 .byte   Cs1 ,v060
 .byte   W06
 .byte   Cs1 ,v080
 .byte   W06
 .byte   Cs1 ,v060
 .byte   W06
 .byte   Cs1 ,v080
 .byte   W06
 .byte   Cs1 ,v060
 .byte   W06
 .byte   Cs1 ,v080
 .byte   W06
 .byte   Cs1 ,v060
 .byte   W06
 .byte   Cs1 ,v080
 .byte   W06
 .byte   Cs1 ,v060
 .byte   W06
@  #08 @003   ----------------------------------------
 .byte   PATT
  .word Label_010B1907
@  #08 @004   ----------------------------------------
Label_010B1973:
 .byte   N17 ,Cn1 ,v127
 .byte   N05 ,Cs1 ,v080
 .byte   N11 ,Cs3 ,v127
 .byte   W06
 .byte   N05 ,Cs1 ,v060
 .byte   W06
 .byte   N05
 .byte   N11 ,Cn3 ,v127
 .byte   W06
 .byte   N17 ,Cn1
 .byte   N05 ,Cs1 ,v060
 .byte   W06
 .byte   Cs1 ,v080
 .byte   W06
 .byte   Cs1 ,v060
 .byte   N05 ,Cn3 ,v127
 .byte   W06
 .byte   N44 ,Cn1
 .byte   N05 ,Cs1 ,v080
 .byte   N05 ,Cs3 ,v127
 .byte   W06
 .byte   Cs1 ,v060
 .byte   N05 ,Cn3 ,v127
 .byte   W06
 .byte   Cs1 ,v080
 .byte   W06
 .byte   Cs1 ,v060
 .byte   W06
 .byte   Cs1 ,v080
 .byte   N05 ,Cs3 ,v127
 .byte   W06
 .byte   Cs1 ,v060
 .byte   N05 ,Cn3 ,v127
 .byte   W06
 .byte   Cs1 ,v080
 .byte   N23 ,Ds1 ,v104
 .byte   N23 ,En2
 .byte   N23 ,Bn2
 .byte   W06
 .byte   N05 ,Cs1 ,v060
 .byte   W06
 .byte   Cs1 ,v080
 .byte   W06
 .byte   N02 ,Cn1 ,v127
 .byte   N05 ,Cs1 ,v060
 .byte   N05 ,Cn3 ,v127
 .byte   W03
 .byte   N02 ,Cn1
 .byte   W03
 .byte   PEND 
@  #08 @005   ----------------------------------------
Label_010B19D5:
 .byte   N17 ,Cn1 ,v127
 .byte   N05 ,Cs1 ,v080
 .byte   N11 ,Cs3 ,v127
 .byte   W06
 .byte   N05 ,Cs1 ,v060
 .byte   W06
 .byte   N05
 .byte   N05 ,Cs3 ,v127
 .byte   W06
 .byte   N17 ,Cn1
 .byte   N05 ,Cs1 ,v060
 .byte   N05 ,Cn3 ,v127
 .byte   W06
 .byte   Cs1 ,v080
 .byte   N05 ,Cn3 ,v127
 .byte   W06
 .byte   Cs1 ,v060
 .byte   N05 ,Cs3 ,v127
 .byte   W06
 .byte   N56 ,Cn1
 .byte   N05 ,Cs1 ,v080
 .byte   W06
 .byte   Cs1 ,v060
 .byte   N05 ,Cn3 ,v127
 .byte   W06
 .byte   Cs1 ,v080
 .byte   W06
 .byte   Cs1 ,v060
 .byte   N05 ,Cn3 ,v127
 .byte   W06
 .byte   Cs1 ,v080
 .byte   N11 ,En1 ,v060
 .byte   N05 ,Cn3 ,v127
 .byte   W06
 .byte   Cs1 ,v060
 .byte   N05 ,Cn3 ,v127
 .byte   W06
 .byte   Cs1 ,v080
 .byte   N23 ,Bn2 ,v104
 .byte   W06
 .byte   N05 ,Cs1 ,v060
 .byte   W06
 .byte   N11
 .byte   N11 ,Cn3 ,v127
 .byte   W12
 .byte   PEND 
@  #08 @006   ----------------------------------------
Label_010B1A31:
 .byte   N17 ,Cn1 ,v127
 .byte   N05 ,Cs1 ,v080
 .byte   N11 ,Cs3 ,v127
 .byte   W06
 .byte   N05 ,Cs1 ,v060
 .byte   W06
 .byte   N05
 .byte   N11 ,Cn3 ,v127
 .byte   W06
 .byte   N17 ,Cn1
 .byte   N05 ,Cs1 ,v060
 .byte   W06
 .byte   Cs1 ,v080
 .byte   N05 ,Cn3 ,v127
 .byte   W06
 .byte   Cs1 ,v060
 .byte   N05 ,Cn3 ,v127
 .byte   W06
 .byte   N44 ,Cn1
 .byte   N05 ,Cs1 ,v080
 .byte   N05 ,Cs3 ,v127
 .byte   W06
 .byte   Cs1 ,v060
 .byte   N05 ,Cn3 ,v127
 .byte   W06
 .byte   Cs1 ,v080
 .byte   W06
 .byte   Cs1 ,v060
 .byte   W06
 .byte   Cs1 ,v080
 .byte   N05 ,Cs3 ,v127
 .byte   W06
 .byte   Cs1 ,v060
 .byte   N05 ,Cn3 ,v127
 .byte   W06
 .byte   Cs1 ,v080
 .byte   N23 ,Ds1 ,v104
 .byte   N23 ,En2
 .byte   N23 ,Bn2
 .byte   N11 ,Cn3 ,v127
 .byte   W06
 .byte   N05 ,Cs1 ,v060
 .byte   W06
 .byte   Cs1 ,v080
 .byte   N05 ,Cn3 ,v127
 .byte   W06
 .byte   N02 ,Cn1
 .byte   N05 ,Cs1 ,v060
 .byte   N05 ,Cs3 ,v127
 .byte   W03
 .byte   N02 ,Cn1
 .byte   W03
 .byte   PEND 
@  #08 @007   ----------------------------------------
Label_010B1A9B:
 .byte   N17 ,Cn1 ,v127
 .byte   N05 ,Cs1 ,v080
 .byte   N11 ,Cs3 ,v127
 .byte   W06
 .byte   N05 ,Cs1 ,v060
 .byte   W06
 .byte   N05
 .byte   N05 ,Cs3 ,v127
 .byte   W06
 .byte   N17 ,Cn1
 .byte   N05 ,Cs1 ,v060
 .byte   N05 ,Cn3 ,v127
 .byte   W06
 .byte   Cs1 ,v080
 .byte   N05 ,Cn3 ,v127
 .byte   W06
 .byte   Cs1 ,v060
 .byte   N05 ,Cs3 ,v127
 .byte   W06
 .byte   N56 ,Cn1
 .byte   N05 ,Cs1 ,v080
 .byte   W06
 .byte   Cs1 ,v060
 .byte   N05 ,Cn3 ,v127
 .byte   W06
 .byte   Cs1 ,v080
 .byte   W06
 .byte   Cs1 ,v060
 .byte   N05 ,Cn3 ,v127
 .byte   W06
 .byte   Cs1 ,v080
 .byte   N11 ,En1 ,v060
 .byte   N05 ,Cn3 ,v127
 .byte   W06
 .byte   Cs1 ,v060
 .byte   N05 ,Cs3 ,v127
 .byte   W06
 .byte   Cs1 ,v080
 .byte   N11 ,Dn1 ,v104
 .byte   N11 ,Ds1
 .byte   N23 ,Bn2
 .byte   N11 ,Cn3 ,v127
 .byte   W06
 .byte   N05 ,Cs1 ,v060
 .byte   W06
 .byte   N11
 .byte   N11 ,Dn1 ,v104
 .byte   N11 ,Ds1
 .byte   N11 ,Cn3 ,v127
 .byte   W12
 .byte   PEND 
@  #08 @008   ----------------------------------------
 .byte   PATT
  .word Label_010B1973
@  #08 @009   ----------------------------------------
 .byte   PATT
  .word Label_010B19D5
@  #08 @010   ----------------------------------------
 .byte   PATT
  .word Label_010B1A31
@  #08 @011   ----------------------------------------
Label_010B1B12:
 .byte   N17 ,Cn1 ,v127
 .byte   N05 ,Cs1 ,v080
 .byte   N11 ,Cs3 ,v127
 .byte   W06
 .byte   N05 ,Cs1 ,v060
 .byte   W06
 .byte   N05
 .byte   N05 ,Cs3 ,v127
 .byte   W06
 .byte   N17 ,Cn1
 .byte   N05 ,Cs1 ,v060
 .byte   N05 ,Cn3 ,v127
 .byte   W06
 .byte   Cs1 ,v080
 .byte   N05 ,Cn3 ,v127
 .byte   W06
 .byte   Cs1 ,v060
 .byte   N05 ,Cs3 ,v127
 .byte   W06
 .byte   N56 ,Cn1
 .byte   N05 ,Cs1 ,v080
 .byte   W06
 .byte   Cs1 ,v060
 .byte   N05 ,Cn3 ,v127
 .byte   W06
 .byte   Cs1 ,v080
 .byte   W06
 .byte   Cs1 ,v060
 .byte   N05 ,Cn3 ,v127
 .byte   W06
 .byte   Cs1 ,v080
 .byte   N11 ,Dn1 ,v104
 .byte   N11 ,Ds1
 .byte   N05 ,Cn3 ,v127
 .byte   W06
 .byte   Cs1 ,v060
 .byte   N05 ,Cs3 ,v127
 .byte   W06
 .byte   Cs1 ,v080
 .byte   N23 ,Bn2 ,v104
 .byte   N11 ,Cn3 ,v127
 .byte   W06
 .byte   N05 ,Cs1 ,v060
 .byte   W06
 .byte   N11
 .byte   N11 ,Dn1 ,v104
 .byte   N11 ,Ds1
 .byte   N11 ,Cn3 ,v127
 .byte   W12
 .byte   PEND 
@  #08 @012   ----------------------------------------
Label_010B1B78:
@  #08 @013   ----------------------------------------
 .byte   PATT
  .word Label_010B1973
@  #08 @014   ----------------------------------------
 .byte   PATT
  .word Label_010B19D5
@  #08 @015   ----------------------------------------
 .byte   PATT
  .word Label_010B1A31
@  #08 @016   ----------------------------------------
Label_010B1B87:
 .byte   N17 ,Cn1 ,v127
 .byte   N05 ,Cs1 ,v080
 .byte   N11 ,Cs3 ,v127
 .byte   W06
 .byte   N05 ,Cs1 ,v060
 .byte   W06
 .byte   N05
 .byte   N05 ,Cs3 ,v127
 .byte   W06
 .byte   N17 ,Cn1
 .byte   N05 ,Cs1 ,v060
 .byte   N05 ,Cn3 ,v127
 .byte   W06
 .byte   Cs1 ,v080
 .byte   N05 ,Cn3 ,v127
 .byte   W06
 .byte   Cs1 ,v060
 .byte   N05 ,Cs3 ,v127
 .byte   W06
 .byte   N56 ,Cn1
 .byte   N05 ,Cs1 ,v080
 .byte   W06
 .byte   Cs1 ,v060
 .byte   N05 ,Cn3 ,v127
 .byte   W06
 .byte   Cs1 ,v080
 .byte   W06
 .byte   Cs1 ,v060
 .byte   N05 ,Cn3 ,v127
 .byte   W06
 .byte   Cs1 ,v080
 .byte   N11 ,En1 ,v060
 .byte   N05 ,Cn3 ,v127
 .byte   W06
 .byte   Cs1 ,v060
 .byte   N05 ,Cs3 ,v127
 .byte   W06
 .byte   Cs1 ,v080
 .byte   N23 ,Bn2 ,v104
 .byte   N11 ,Cn3 ,v127
 .byte   W06
 .byte   N05 ,Cs1 ,v060
 .byte   W06
 .byte   N11
 .byte   N11 ,Cn3 ,v127
 .byte   W12
 .byte   PEND 
@  #08 @017   ----------------------------------------
 .byte   PATT
  .word Label_010B1973
@  #08 @018   ----------------------------------------
 .byte   PATT
  .word Label_010B19D5
@  #08 @019   ----------------------------------------
 .byte   PATT
  .word Label_010B1A31
@  #08 @020   ----------------------------------------
Label_010B1BF5:
 .byte   N17 ,Cn1 ,v127
 .byte   N05 ,Cs1 ,v080
 .byte   N11 ,Cs3 ,v127
 .byte   W06
 .byte   N05 ,Cs1 ,v060
 .byte   W06
 .byte   N05
 .byte   N05 ,Cs3 ,v127
 .byte   W06
 .byte   N17 ,Cn1
 .byte   N05 ,Cs1 ,v060
 .byte   N05 ,Cn3 ,v127
 .byte   W06
 .byte   Cs1 ,v080
 .byte   N05 ,Cn3 ,v127
 .byte   W06
 .byte   Cs1 ,v060
 .byte   N05 ,Cs3 ,v127
 .byte   W06
 .byte   N56 ,Cn1
 .byte   N05 ,Cs1 ,v080
 .byte   W06
 .byte   Cs1 ,v060
 .byte   N05 ,Cn3 ,v127
 .byte   W06
 .byte   Cs1 ,v080
 .byte   W06
 .byte   Cs1 ,v060
 .byte   N05 ,Cn3 ,v127
 .byte   W06
 .byte   Cs1 ,v080
 .byte   N11 ,En1 ,v060
 .byte   N05 ,Cn3 ,v127
 .byte   W06
 .byte   Cs1 ,v060
 .byte   N05 ,Cs3 ,v127
 .byte   W06
 .byte   Cs1 ,v080
 .byte   N23 ,Bn2 ,v104
 .byte   N11 ,Cn3 ,v127
 .byte   W06
 .byte   N05 ,Cs1 ,v060
 .byte   W06
 .byte   N11
 .byte   N11 ,Dn1 ,v104
 .byte   N11 ,Ds1
 .byte   N11 ,Cn3 ,v127
 .byte   W12
 .byte   PEND 
@  #08 @021   ----------------------------------------
 .byte   PATT
  .word Label_010B1973
@  #08 @022   ----------------------------------------
 .byte   PATT
  .word Label_010B19D5
@  #08 @023   ----------------------------------------
 .byte   PATT
  .word Label_010B1A31
@  #08 @024   ----------------------------------------
 .byte   PATT
  .word Label_010B1B87
@  #08 @025   ----------------------------------------
 .byte   PATT
  .word Label_010B1973
@  #08 @026   ----------------------------------------
 .byte   PATT
  .word Label_010B19D5
@  #08 @027   ----------------------------------------
 .byte   PATT
  .word Label_010B1A31
@  #08 @028   ----------------------------------------
 .byte   PATT
  .word Label_010B1B12
@  #08 @029   ----------------------------------------
Label_010B1C81:
 .byte   N17 ,Cn1 ,v127
 .byte   N05 ,Cs1 ,v080
 .byte   N11 ,Cs3 ,v127
 .byte   W06
 .byte   N05 ,Cs1 ,v060
 .byte   W06
 .byte   N05
 .byte   N11 ,Cn3 ,v127
 .byte   W06
 .byte   N17 ,Cn1
 .byte   N05 ,Cs1 ,v060
 .byte   W06
 .byte   Cs1 ,v080
 .byte   W06
 .byte   Cs1 ,v060
 .byte   N05 ,Cn3 ,v127
 .byte   W06
 .byte   N44 ,Cn1
 .byte   N05 ,Cs1 ,v080
 .byte   N05 ,Cs3 ,v127
 .byte   W06
 .byte   Cs1 ,v060
 .byte   N05 ,Cn3 ,v127
 .byte   W06
 .byte   Cs1 ,v080
 .byte   W06
 .byte   Cs1 ,v060
 .byte   W06
 .byte   Cs1 ,v080
 .byte   N05 ,Cs3 ,v127
 .byte   W06
 .byte   Cs1 ,v060
 .byte   N05 ,Cn3 ,v127
 .byte   W06
 .byte   Cs1 ,v080
 .byte   N23 ,Ds1 ,v104
 .byte   N23 ,Bn2
 .byte   W06
 .byte   N05 ,Cs1 ,v060
 .byte   W06
 .byte   Cs1 ,v080
 .byte   W06
 .byte   N02 ,Cn1 ,v127
 .byte   N05 ,Cs1 ,v060
 .byte   N05 ,Cn3 ,v127
 .byte   W03
 .byte   N02 ,Cn1
 .byte   W03
 .byte   PEND 
@  #08 @030   ----------------------------------------
Label_010B1CE1:
 .byte   N17 ,Cn1 ,v127
 .byte   N05 ,Cs1 ,v080
 .byte   N11 ,Cs3 ,v127
 .byte   W06
 .byte   N05 ,Cs1 ,v060
 .byte   W06
 .byte   N05
 .byte   N05 ,Cs3 ,v127
 .byte   W06
 .byte   N17 ,Cn1
 .byte   N05 ,Cs1 ,v060
 .byte   N05 ,Cn3 ,v127
 .byte   W06
 .byte   Cs1 ,v080
 .byte   N05 ,Cn3 ,v127
 .byte   W06
 .byte   Cs1 ,v060
 .byte   N05 ,Cs3 ,v127
 .byte   W06
 .byte   N56 ,Cn1
 .byte   N05 ,Cs1 ,v080
 .byte   W06
 .byte   Cs1 ,v060
 .byte   N05 ,Cn3 ,v127
 .byte   W06
 .byte   Cs1 ,v080
 .byte   N23 ,Dn1 ,v104
 .byte   W06
 .byte   N05 ,Cs1 ,v060
 .byte   N05 ,Cn3 ,v127
 .byte   W06
 .byte   Cs1 ,v080
 .byte   N11 ,En1 ,v060
 .byte   N05 ,Cn3 ,v127
 .byte   W06
 .byte   Cs1 ,v060
 .byte   N05 ,Cn3 ,v127
 .byte   W06
 .byte   Cs1 ,v080
 .byte   N23 ,Bn2 ,v104
 .byte   W06
 .byte   N05 ,Cs1 ,v060
 .byte   W06
 .byte   N11
 .byte   N11 ,Cn3 ,v127
 .byte   W12
 .byte   PEND 
@  #08 @031   ----------------------------------------
Label_010B1D41:
 .byte   N17 ,Cn1 ,v127
 .byte   N05 ,Cs1 ,v080
 .byte   N11 ,Cs3 ,v127
 .byte   W06
 .byte   N05 ,Cs1 ,v060
 .byte   W06
 .byte   N05
 .byte   N11 ,Cn3 ,v127
 .byte   W06
 .byte   N17 ,Cn1
 .byte   N05 ,Cs1 ,v060
 .byte   W06
 .byte   Cs1 ,v080
 .byte   N05 ,Cn3 ,v127
 .byte   W06
 .byte   Cs1 ,v060
 .byte   N05 ,Cn3 ,v127
 .byte   W06
 .byte   N44 ,Cn1
 .byte   N05 ,Cs1 ,v080
 .byte   N05 ,Cs3 ,v127
 .byte   W06
 .byte   Cs1 ,v060
 .byte   N05 ,Cn3 ,v127
 .byte   W06
 .byte   Cs1 ,v080
 .byte   W06
 .byte   Cs1 ,v060
 .byte   W06
 .byte   Cs1 ,v080
 .byte   N05 ,Cs3 ,v127
 .byte   W06
 .byte   Cs1 ,v060
 .byte   N05 ,Cn3 ,v127
 .byte   W06
 .byte   Cs1 ,v080
 .byte   N23 ,Ds1 ,v104
 .byte   N23 ,Bn2
 .byte   N11 ,Cn3 ,v127
 .byte   W06
 .byte   N05 ,Cs1 ,v060
 .byte   W06
 .byte   Cs1 ,v080
 .byte   N05 ,Cn3 ,v127
 .byte   W06
 .byte   N02 ,Cn1
 .byte   N05 ,Cs1 ,v060
 .byte   N05 ,Cs3 ,v127
 .byte   W03
 .byte   N02 ,Cn1
 .byte   W03
 .byte   PEND 
@  #08 @032   ----------------------------------------
Label_010B1DA9:
 .byte   N17 ,Cn1 ,v127
 .byte   N05 ,Cs1 ,v080
 .byte   N11 ,Cs3 ,v127
 .byte   W06
 .byte   N05 ,Cs1 ,v060
 .byte   W06
 .byte   N05
 .byte   N05 ,Cs3 ,v127
 .byte   W06
 .byte   N17 ,Cn1
 .byte   N05 ,Cs1 ,v060
 .byte   N05 ,Cn3 ,v127
 .byte   W06
 .byte   Cs1 ,v080
 .byte   N05 ,Cn3 ,v127
 .byte   W06
 .byte   Cs1 ,v060
 .byte   N05 ,Cs3 ,v127
 .byte   W06
 .byte   N56 ,Cn1
 .byte   N05 ,Cs1 ,v080
 .byte   W06
 .byte   Cs1 ,v060
 .byte   N05 ,Cn3 ,v127
 .byte   W06
 .byte   Cs1 ,v080
 .byte   N23 ,Dn1 ,v104
 .byte   W06
 .byte   N05 ,Cs1 ,v060
 .byte   N05 ,Cn3 ,v127
 .byte   W06
 .byte   Cs1 ,v080
 .byte   N11 ,En1 ,v060
 .byte   N05 ,Cn3 ,v127
 .byte   W06
 .byte   Cs1 ,v060
 .byte   N05 ,Cs3 ,v127
 .byte   W06
 .byte   Cs1 ,v080
 .byte   N23 ,Bn2 ,v104
 .byte   N11 ,Cn3 ,v127
 .byte   W06
 .byte   N05 ,Cs1 ,v060
 .byte   W06
 .byte   N11
 .byte   N11 ,Cn3 ,v127
 .byte   W12
 .byte   PEND 
@  #08 @033   ----------------------------------------
 .byte   PATT
  .word Label_010B1C81
@  #08 @034   ----------------------------------------
 .byte   PATT
  .word Label_010B1CE1
@  #08 @035   ----------------------------------------
 .byte   PATT
  .word Label_010B1D41
@  #08 @036   ----------------------------------------
Label_010B1E1B:
 .byte   N17 ,Cn1 ,v127
 .byte   N05 ,Cs1 ,v080
 .byte   N11 ,Cs3 ,v127
 .byte   W06
 .byte   N05 ,Cs1 ,v060
 .byte   W06
 .byte   N05
 .byte   N05 ,Cs3 ,v127
 .byte   W06
 .byte   N17 ,Cn1
 .byte   N05 ,Cs1 ,v060
 .byte   N05 ,Cn3 ,v127
 .byte   W06
 .byte   Cs1 ,v080
 .byte   N05 ,Cn3 ,v127
 .byte   W06
 .byte   Cs1 ,v060
 .byte   N05 ,Cs3 ,v127
 .byte   W06
 .byte   N56 ,Cn1
 .byte   N05 ,Cs1 ,v080
 .byte   W06
 .byte   Cs1 ,v060
 .byte   N05 ,Cn3 ,v127
 .byte   W06
 .byte   Cs1 ,v080
 .byte   N23 ,Dn1 ,v104
 .byte   N23 ,Ds1
 .byte   W06
 .byte   N05 ,Cs1 ,v060
 .byte   N05 ,Cn3 ,v127
 .byte   W06
 .byte   Cs1 ,v080
 .byte   N11 ,En1 ,v060
 .byte   N05 ,Cn3 ,v127
 .byte   W06
 .byte   Cs1 ,v060
 .byte   N05 ,Cs3 ,v127
 .byte   W06
 .byte   Cs1 ,v080
 .byte   N23 ,Bn2 ,v104
 .byte   N11 ,Cn3 ,v127
 .byte   W06
 .byte   N05 ,Cs1 ,v060
 .byte   W06
 .byte   N11
 .byte   N11 ,Cn3 ,v127
 .byte   W12
 .byte   PEND 
@  #08 @037   ----------------------------------------
 .byte   PATT
  .word Label_010B1973
@  #08 @038   ----------------------------------------
 .byte   PATT
  .word Label_010B19D5
@  #08 @039   ----------------------------------------
 .byte   PATT
  .word Label_010B1A31
@  #08 @040   ----------------------------------------
 .byte   PATT
  .word Label_010B1B87
@  #08 @041   ----------------------------------------
 .byte   PATT
  .word Label_010B1973
@  #08 @042   ----------------------------------------
 .byte   PATT
  .word Label_010B19D5
@  #08 @043   ----------------------------------------
 .byte   PATT
  .word Label_010B1A31
@  #08 @044   ----------------------------------------
 .byte   PATT
  .word Label_010B1BF5
@  #08 @045   ----------------------------------------
 .byte   PATT
  .word Label_010B1973
@  #08 @046   ----------------------------------------
 .byte   PATT
  .word Label_010B19D5
@  #08 @047   ----------------------------------------
 .byte   PATT
  .word Label_010B1A31
@  #08 @048   ----------------------------------------
 .byte   PATT
  .word Label_010B1B87
@  #08 @049   ----------------------------------------
Label_010B1EBC:
 .byte   N17 ,Cn1 ,v127
 .byte   N05 ,Cs1 ,v080
 .byte   N11 ,Cs3 ,v127
 .byte   W06
 .byte   N05 ,Cs1 ,v060
 .byte   W06
 .byte   N05
 .byte   N11 ,Cn3 ,v127
 .byte   W06
 .byte   N17 ,Cn1
 .byte   N05 ,Cs1 ,v060
 .byte   W06
 .byte   Cs1 ,v080
 .byte   W06
 .byte   Cs1 ,v060
 .byte   N05 ,Cn3 ,v127
 .byte   W06
 .byte   N44 ,Cn1
 .byte   N05 ,Cs1 ,v080
 .byte   N05 ,Cs3 ,v127
 .byte   W06
 .byte   Cs1 ,v060
 .byte   N05 ,Cn3 ,v127
 .byte   W06
 .byte   Cs1 ,v080
 .byte   W06
 .byte   Cs1 ,v060
 .byte   W06
 .byte   Cs1 ,v080
 .byte   N05 ,Cs3 ,v127
 .byte   W06
 .byte   Cs1 ,v060
 .byte   N05 ,Cn3 ,v127
 .byte   W06
 .byte   Cs1 ,v080
 .byte   N23 ,En2 ,v104
 .byte   N23 ,Bn2
 .byte   W06
 .byte   N05 ,Cs1 ,v060
 .byte   W06
 .byte   Cs1 ,v080
 .byte   W06
 .byte   N02 ,Cn1 ,v127
 .byte   N05 ,Cs1 ,v060
 .byte   N05 ,Cn3 ,v127
 .byte   W03
 .byte   N02 ,Cn1
 .byte   W03
 .byte   PEND 
@  #08 @050   ----------------------------------------
 .byte   PATT
  .word Label_010B19D5
@  #08 @051   ----------------------------------------
 .byte   PATT
  .word Label_010B1A31
@  #08 @052   ----------------------------------------
Label_010B1F26:
 .byte   N17 ,Cn1 ,v127
 .byte   N05 ,Cs1 ,v080
 .byte   N11 ,Cs3 ,v127
 .byte   W06
 .byte   N05 ,Cs1 ,v060
 .byte   W06
 .byte   N05
 .byte   N05 ,Cs3 ,v127
 .byte   W06
 .byte   N17 ,Cn1
 .byte   N05 ,Cs1 ,v060
 .byte   N05 ,Cn3 ,v127
 .byte   W06
 .byte   Cs1 ,v080
 .byte   N05 ,Cn3 ,v127
 .byte   W06
 .byte   Cs1 ,v060
 .byte   N05 ,Cs3 ,v127
 .byte   W06
 .byte   N56 ,Cn1
 .byte   N05 ,Cs1 ,v080
 .byte   W06
 .byte   Cs1 ,v060
 .byte   N05 ,Cn3 ,v127
 .byte   W06
 .byte   Cs1 ,v080
 .byte   W06
 .byte   Cs1 ,v060
 .byte   N05 ,Cn3 ,v127
 .byte   W06
 .byte   Cs1 ,v080
 .byte   N11 ,Dn1 ,v104
 .byte   N11 ,Ds1
 .byte   N11 ,En1 ,v060
 .byte   N05 ,Cn3 ,v127
 .byte   W06
 .byte   Cs1 ,v060
 .byte   N05 ,Cs3 ,v127
 .byte   W06
 .byte   Cs1 ,v080
 .byte   N23 ,Bn2 ,v104
 .byte   N11 ,Cn3 ,v127
 .byte   W06
 .byte   N05 ,Cs1 ,v060
 .byte   W06
 .byte   N11
 .byte   N11 ,Dn1 ,v104
 .byte   N11 ,Ds1
 .byte   N11 ,Cn3 ,v127
 .byte   W12
 .byte   PEND 
@  #08 @053   ----------------------------------------
 .byte   PATT
  .word Label_010B1A31
@  #08 @054   ----------------------------------------
 .byte   PATT
  .word Label_010B1F26
@  #08 @055   ----------------------------------------
 .byte   PATT
  .word Label_010B1A31
@  #08 @056   ----------------------------------------
 .byte   PATT
  .word Label_010B1F26
@  #08 @057   ----------------------------------------
 .byte   W96
@  #08 @058   ----------------------------------------
 .byte   W96
@  #08 @059   ----------------------------------------
 .byte   PATT
  .word Label_010B1973
@  #08 @060   ----------------------------------------
 .byte   PATT
  .word Label_010B19D5
@  #08 @061   ----------------------------------------
 .byte   PATT
  .word Label_010B1A31
@  #08 @062   ----------------------------------------
 .byte   PATT
  .word Label_010B1A9B
@  #08 @063   ----------------------------------------
 .byte   PATT
  .word Label_010B1973
@  #08 @064   ----------------------------------------
 .byte   PATT
  .word Label_010B19D5
@  #08 @065   ----------------------------------------
 .byte   PATT
  .word Label_010B1A31
@  #08 @066   ----------------------------------------
 .byte   PATT
  .word Label_010B1B12
@  #08 @067   ----------------------------------------
 .byte   GOTO
  .word Label_010B1B78
@  #08 @068   ----------------------------------------
 .byte   PATT
  .word Label_010B1973
@  #08 @069   ----------------------------------------
 .byte   PATT
  .word Label_010B19D5
@  #08 @070   ----------------------------------------
 .byte   PATT
  .word Label_010B1A31
@  #08 @071   ----------------------------------------
 .byte   PATT
  .word Label_010B1B87
@  #08 @072   ----------------------------------------
 .byte   PATT
  .word Label_010B1973
@  #08 @073   ----------------------------------------
 .byte   PATT
  .word Label_010B19D5
@  #08 @074   ----------------------------------------
 .byte   PATT
  .word Label_010B1A31
@  #08 @075   ----------------------------------------
 .byte   PATT
  .word Label_010B1BF5
@  #08 @076   ----------------------------------------
 .byte   PATT
  .word Label_010B1973
@  #08 @077   ----------------------------------------
 .byte   PATT
  .word Label_010B19D5
@  #08 @078   ----------------------------------------
 .byte   PATT
  .word Label_010B1A31
@  #08 @079   ----------------------------------------
 .byte   PATT
  .word Label_010B1B87
@  #08 @080   ----------------------------------------
 .byte   PATT
  .word Label_010B1973
@  #08 @081   ----------------------------------------
 .byte   PATT
  .word Label_010B19D5
@  #08 @082   ----------------------------------------
 .byte   PATT
  .word Label_010B1A31
@  #08 @083   ----------------------------------------
 .byte   PATT
  .word Label_010B1B12
@  #08 @084   ----------------------------------------
 .byte   PATT
  .word Label_010B1C81
@  #08 @085   ----------------------------------------
 .byte   PATT
  .word Label_010B1CE1
@  #08 @086   ----------------------------------------
 .byte   PATT
  .word Label_010B1D41
@  #08 @087   ----------------------------------------
 .byte   PATT
  .word Label_010B1DA9
@  #08 @088   ----------------------------------------
 .byte   PATT
  .word Label_010B1C81
@  #08 @089   ----------------------------------------
 .byte   PATT
  .word Label_010B1CE1
@  #08 @090   ----------------------------------------
 .byte   PATT
  .word Label_010B1D41
@  #08 @091   ----------------------------------------
 .byte   PATT
  .word Label_010B1E1B
@  #08 @092   ----------------------------------------
 .byte   PATT
  .word Label_010B1973
@  #08 @093   ----------------------------------------
 .byte   PATT
  .word Label_010B19D5
@  #08 @094   ----------------------------------------
 .byte   PATT
  .word Label_010B1A31
@  #08 @095   ----------------------------------------
 .byte   PATT
  .word Label_010B1B87
@  #08 @096   ----------------------------------------
 .byte   PATT
  .word Label_010B1973
@  #08 @097   ----------------------------------------
 .byte   PATT
  .word Label_010B19D5
@  #08 @098   ----------------------------------------
 .byte   PATT
  .word Label_010B1A31
@  #08 @099   ----------------------------------------
 .byte   PATT
  .word Label_010B1BF5
@  #08 @100   ----------------------------------------
 .byte   PATT
  .word Label_010B1973
@  #08 @101   ----------------------------------------
 .byte   PATT
  .word Label_010B19D5
@  #08 @102   ----------------------------------------
 .byte   PATT
  .word Label_010B1A31
@  #08 @103   ----------------------------------------
 .byte   PATT
  .word Label_010B1B87
@  #08 @104   ----------------------------------------
 .byte   PATT
  .word Label_010B1EBC
@  #08 @105   ----------------------------------------
 .byte   PATT
  .word Label_010B19D5
@  #08 @106   ----------------------------------------
 .byte   PATT
  .word Label_010B1A31
@  #08 @107   ----------------------------------------
 .byte   PATT
  .word Label_010B1F26
@  #08 @108   ----------------------------------------
 .byte   PATT
  .word Label_010B1A31
@  #08 @109   ----------------------------------------
 .byte   PATT
  .word Label_010B1F26
@  #08 @110   ----------------------------------------
 .byte   PATT
  .word Label_010B1A31
@  #08 @111   ----------------------------------------
 .byte   PATT
  .word Label_010B1F26
@  #08 @112   ----------------------------------------
 .byte   W96
@  #08 @113   ----------------------------------------
 .byte   W96
@  #08 @114   ----------------------------------------
 .byte   PATT
  .word Label_010B1973
@  #08 @115   ----------------------------------------
 .byte   N17 ,Cn1 ,v127
 .byte   N05 ,Cs1 ,v080
 .byte   N11 ,Cs3 ,v127
 .byte   W06
 .byte   N05 ,Cs1 ,v060
 .byte   W06
 .byte   N05
 .byte   N05 ,Cs3 ,v127
 .byte   W06
 .byte   N17 ,Cn1
 .byte   N05 ,Cs1 ,v060
 .byte   N05 ,Cn3 ,v127
 .byte   W06
 .byte   Cs1 ,v080
 .byte   N05 ,Cn3 ,v127
 .byte   W06
 .byte   Cs1 ,v060
 .byte   N05 ,Cs3 ,v127
 .byte   W06
 .byte   N56 ,Cn1
 .byte   N05 ,Cs1 ,v080
 .byte   W06
 .byte   Cs1 ,v060
 .byte   N05 ,Cn3 ,v127
 .byte   W06
 .byte   Cs1 ,v080
 .byte   W06
 .byte   Cs1 ,v060
 .byte   N05 ,Cn3 ,v127
 .byte   W06
 .byte   Cs1 ,v080
 .byte   N11 ,En1 ,v060
 .byte   N05 ,Cn3 ,v127
 .byte   W06
 .byte   Cs1 ,v060
 .byte   N05 ,Cn3 ,v127
 .byte   W06
 .byte   Cs1 ,v080
 .byte   N23 ,Bn2 ,v104
 .byte   W06
 .byte   N05 ,Cs1 ,v060
 .byte   W06
 .byte   N11
 .byte   N11 ,Cn3 ,v127
 .byte   W11
 .byte   FINE

@**************** Track 9 (Midi-Chn.8) ****************@

song09_009:
@  #09 @000   ----------------------------------------
 .byte   KEYSH , song09_key+0
 .byte   VOICE , 52
 .byte   MODT 0
 .byte   LFOS 44
 .byte   VOL , 29*song09_mvl/mxv
 .byte   PAN , c_v+0
 .byte   TIE ,An0 ,v080
 .byte   W96
@  #09 @001   ----------------------------------------
 .byte   W92
 .byte   W03
 .byte   EOT
 .byte   W01
@  #09 @002   ----------------------------------------
 .byte   TIE
 .byte   W96
@  #09 @003   ----------------------------------------
 .byte   W92
 .byte   W03
 .byte   EOT
 .byte   W01
@  #09 @004   ----------------------------------------
 .byte   TIE
 .byte   W96
@  #09 @005   ----------------------------------------
 .byte   W92
 .byte   W03
 .byte   EOT
 .byte   W01
@  #09 @006   ----------------------------------------
 .byte   TIE
 .byte   W96
@  #09 @007   ----------------------------------------
 .byte   W92
 .byte   W03
 .byte   EOT
 .byte   W01
@  #09 @008   ----------------------------------------
 .byte   TIE
 .byte   W96
@  #09 @009   ----------------------------------------
 .byte   W92
 .byte   W03
 .byte   EOT
 .byte   W01
@  #09 @010   ----------------------------------------
 .byte   TIE
 .byte   W96
@  #09 @011   ----------------------------------------
 .byte   W92
 .byte   W03
 .byte   EOT
 .byte   W01
@  #09 @012   ----------------------------------------
Label_010B2146:
 .byte   N92 ,An0 ,v080
 .byte   W96
@  #09 @013   ----------------------------------------
 .byte   Bn0
 .byte   W96
@  #09 @014   ----------------------------------------
 .byte   Cn1
 .byte   W96
@  #09 @015   ----------------------------------------
 .byte   Dn1
 .byte   W96
@  #09 @016   ----------------------------------------
 .byte   An0
 .byte   W96
@  #09 @017   ----------------------------------------
 .byte   Bn0
 .byte   W96
@  #09 @018   ----------------------------------------
 .byte   Cn1
 .byte   W96
@  #09 @019   ----------------------------------------
 .byte   Dn1
 .byte   W96
@  #09 @020   ----------------------------------------
 .byte   TIE ,An0
 .byte   W96
@  #09 @021   ----------------------------------------
 .byte   W92
 .byte   W03
 .byte   EOT
 .byte   W01
@  #09 @022   ----------------------------------------
 .byte   TIE
 .byte   W96
@  #09 @023   ----------------------------------------
 .byte   W92
 .byte   W03
 .byte   EOT
 .byte   W01
@  #09 @024   ----------------------------------------
 .byte   TIE
 .byte   W96
@  #09 @025   ----------------------------------------
 .byte   W92
 .byte   W03
 .byte   EOT
 .byte   W01
@  #09 @026   ----------------------------------------
 .byte   TIE
 .byte   W96
@  #09 @027   ----------------------------------------
 .byte   W92
 .byte   W03
 .byte   EOT
 .byte   W01
@  #09 @028   ----------------------------------------
 .byte   N92 ,Cn1
 .byte   W96
@  #09 @029   ----------------------------------------
 .byte   Dn1
 .byte   W96
@  #09 @030   ----------------------------------------
 .byte   En1
 .byte   W96
@  #09 @031   ----------------------------------------
 .byte   Dn1
 .byte   W96
@  #09 @032   ----------------------------------------
 .byte   Cn1
 .byte   W96
@  #09 @033   ----------------------------------------
 .byte   Dn1
 .byte   W96
@  #09 @034   ----------------------------------------
 .byte   En1
 .byte   W96
@  #09 @035   ----------------------------------------
 .byte   Dn1
 .byte   W96
@  #09 @036   ----------------------------------------
 .byte   An0
 .byte   W96
@  #09 @037   ----------------------------------------
 .byte   Bn0
 .byte   W96
@  #09 @038   ----------------------------------------
 .byte   Cn1
 .byte   W96
@  #09 @039   ----------------------------------------
 .byte   Dn1
 .byte   W96
@  #09 @040   ----------------------------------------
 .byte   An0
 .byte   W96
@  #09 @041   ----------------------------------------
 .byte   Bn0
 .byte   W96
@  #09 @042   ----------------------------------------
 .byte   Cn1
 .byte   W96
@  #09 @043   ----------------------------------------
 .byte   Dn1
 .byte   W96
@  #09 @044   ----------------------------------------
 .byte   TIE ,An0
 .byte   W96
@  #09 @045   ----------------------------------------
 .byte   W92
 .byte   W03
 .byte   EOT
 .byte   W01
@  #09 @046   ----------------------------------------
 .byte   TIE
 .byte   W96
@  #09 @047   ----------------------------------------
 .byte   W92
 .byte   W03
 .byte   EOT
 .byte   W01
@  #09 @048   ----------------------------------------
 .byte   TIE
 .byte   W96
@  #09 @049   ----------------------------------------
 .byte   W92
 .byte   W03
 .byte   EOT
 .byte   W01
@  #09 @050   ----------------------------------------
 .byte   TIE ,Fn0
 .byte   W96
@  #09 @051   ----------------------------------------
 .byte   W92
 .byte   W03
 .byte   EOT
 .byte   W01
@  #09 @052   ----------------------------------------
 .byte   TIE ,Gn0
 .byte   W96
@  #09 @053   ----------------------------------------
 .byte   W92
 .byte   W03
 .byte   EOT
 .byte   W01
@  #09 @054   ----------------------------------------
 .byte   TIE ,Fn0
 .byte   W96
@  #09 @055   ----------------------------------------
 .byte   W92
 .byte   W03
 .byte   EOT
 .byte   W01
@  #09 @056   ----------------------------------------
 .byte   TIE ,Gn0
 .byte   W96
@  #09 @057   ----------------------------------------
 .byte   W92
 .byte   W03
 .byte   EOT
 .byte   W01
@  #09 @058   ----------------------------------------
 .byte   N92 ,An0
 .byte   W96
@  #09 @059   ----------------------------------------
 .byte   N92
 .byte   W96
@  #09 @060   ----------------------------------------
 .byte   TIE
 .byte   W96
@  #09 @061   ----------------------------------------
 .byte   W92
 .byte   W03
 .byte   EOT
 .byte   W01
@  #09 @062   ----------------------------------------
 .byte   TIE
 .byte   W96
@  #09 @063   ----------------------------------------
 .byte   W92
 .byte   W03
 .byte   EOT
 .byte   W01
@  #09 @064   ----------------------------------------
 .byte   TIE
 .byte   W96
@  #09 @065   ----------------------------------------
 .byte   W92
 .byte   W03
 .byte   EOT
 .byte   W01
@  #09 @066   ----------------------------------------
 .byte   GOTO
  .word Label_010B2146
@  #09 @067   ----------------------------------------
 .byte   N92 ,An0 ,v080
 .byte   W96
@  #09 @068   ----------------------------------------
 .byte   Bn0
 .byte   W96
@  #09 @069   ----------------------------------------
 .byte   Cn1
 .byte   W96
@  #09 @070   ----------------------------------------
 .byte   Dn1
 .byte   W96
@  #09 @071   ----------------------------------------
 .byte   An0
 .byte   W96
@  #09 @072   ----------------------------------------
 .byte   Bn0
 .byte   W96
@  #09 @073   ----------------------------------------
 .byte   Cn1
 .byte   W96
@  #09 @074   ----------------------------------------
 .byte   Dn1
 .byte   W96
@  #09 @075   ----------------------------------------
 .byte   TIE ,An0
 .byte   W96
@  #09 @076   ----------------------------------------
 .byte   W92
 .byte   W03
 .byte   EOT
 .byte   W01
@  #09 @077   ----------------------------------------
 .byte   TIE
 .byte   W96
@  #09 @078   ----------------------------------------
 .byte   W92
 .byte   W03
 .byte   EOT
 .byte   W01
@  #09 @079   ----------------------------------------
 .byte   TIE
 .byte   W96
@  #09 @080   ----------------------------------------
 .byte   W92
 .byte   W03
 .byte   EOT
 .byte   W01
@  #09 @081   ----------------------------------------
 .byte   TIE
 .byte   W96
@  #09 @082   ----------------------------------------
 .byte   W92
 .byte   W03
 .byte   EOT
 .byte   W01
@  #09 @083   ----------------------------------------
 .byte   N92 ,Cn1
 .byte   W96
@  #09 @084   ----------------------------------------
 .byte   Dn1
 .byte   W96
@  #09 @085   ----------------------------------------
 .byte   En1
 .byte   W96
@  #09 @086   ----------------------------------------
 .byte   Dn1
 .byte   W96
@  #09 @087   ----------------------------------------
 .byte   Cn1
 .byte   W96
@  #09 @088   ----------------------------------------
 .byte   Dn1
 .byte   W96
@  #09 @089   ----------------------------------------
 .byte   En1
 .byte   W96
@  #09 @090   ----------------------------------------
 .byte   Dn1
 .byte   W96
@  #09 @091   ----------------------------------------
 .byte   An0
 .byte   W96
@  #09 @092   ----------------------------------------
 .byte   Bn0
 .byte   W96
@  #09 @093   ----------------------------------------
 .byte   Cn1
 .byte   W96
@  #09 @094   ----------------------------------------
 .byte   Dn1
 .byte   W96
@  #09 @095   ----------------------------------------
 .byte   An0
 .byte   W96
@  #09 @096   ----------------------------------------
 .byte   Bn0
 .byte   W96
@  #09 @097   ----------------------------------------
 .byte   Cn1
 .byte   W96
@  #09 @098   ----------------------------------------
 .byte   Dn1
 .byte   W96
@  #09 @099   ----------------------------------------
 .byte   TIE ,An0
 .byte   W96
@  #09 @100   ----------------------------------------
 .byte   W92
 .byte   W03
 .byte   EOT
 .byte   W01
@  #09 @101   ----------------------------------------
 .byte   TIE
 .byte   W96
@  #09 @102   ----------------------------------------
 .byte   W92
 .byte   W03
 .byte   EOT
 .byte   W01
@  #09 @103   ----------------------------------------
 .byte   TIE
 .byte   W96
@  #09 @104   ----------------------------------------
 .byte   W92
 .byte   W03
 .byte   EOT
 .byte   W01
@  #09 @105   ----------------------------------------
 .byte   TIE ,Fn0
 .byte   W96
@  #09 @106   ----------------------------------------
 .byte   W92
 .byte   W03
 .byte   EOT
 .byte   W01
@  #09 @107   ----------------------------------------
 .byte   TIE ,Gn0
 .byte   W96
@  #09 @108   ----------------------------------------
 .byte   W92
 .byte   W03
 .byte   EOT
 .byte   W01
@  #09 @109   ----------------------------------------
 .byte   TIE ,Fn0
 .byte   W96
@  #09 @110   ----------------------------------------
 .byte   W92
 .byte   W03
 .byte   EOT
 .byte   W01
@  #09 @111   ----------------------------------------
 .byte   TIE ,Gn0
 .byte   W96
@  #09 @112   ----------------------------------------
 .byte   W92
 .byte   W03
 .byte   EOT
 .byte   W01
@  #09 @113   ----------------------------------------
 .byte   N92 ,An0
 .byte   W96
@  #09 @114   ----------------------------------------
 .byte   N92
 .byte   W92
 .byte   W03
 .byte   FINE

@**************** Track 10 (Midi-Chn.9) ****************@

song09_010:
@  #10 @000   ----------------------------------------
 .byte   KEYSH , song09_key+0
 .byte   VOICE , 52
 .byte   MODT 0
 .byte   LFOS 44
 .byte   VOL , 29*song09_mvl/mxv
 .byte   PAN , c_v+0
 .byte   W96
@  #10 @001   ----------------------------------------
 .byte   W96
@  #10 @002   ----------------------------------------
 .byte   W96
@  #10 @003   ----------------------------------------
 .byte   N92 ,Dn3 ,v060
 .byte   N92 ,Gn3
 .byte   N92 ,Bn3
 .byte   W96
@  #10 @004   ----------------------------------------
Label_010B0887:
 .byte   N92 ,An2 ,v060
 .byte   N92 ,Dn3
 .byte   N92 ,An3
 .byte   W96
 .byte   PEND 
@  #10 @005   ----------------------------------------
Label_010B0890:
 .byte   N92 ,Bn2 ,v060
 .byte   N92 ,Dn3
 .byte   N92 ,Bn3
 .byte   W96
 .byte   PEND 
@  #10 @006   ----------------------------------------
Label_010B0899:
 .byte   N92 ,Cn3 ,v060
 .byte   N92 ,Fn3
 .byte   N92 ,Cn4
 .byte   W96
 .byte   PEND 
@  #10 @007   ----------------------------------------
Label_010B08A2:
 .byte   N92 ,Bn2 ,v060
 .byte   N92 ,Gn3
 .byte   N92 ,Dn4
 .byte   W96
 .byte   PEND 
@  #10 @008   ----------------------------------------
 .byte   PATT
  .word Label_010B0887
@  #10 @009   ----------------------------------------
 .byte   PATT
  .word Label_010B0890
@  #10 @010   ----------------------------------------
 .byte   PATT
  .word Label_010B0899
@  #10 @011   ----------------------------------------
 .byte   PATT
  .word Label_010B08A2
@  #10 @012   ----------------------------------------
Label_010B08BF:
 .byte   W96
@  #10 @013   ----------------------------------------
 .byte   W96
@  #10 @014   ----------------------------------------
 .byte   W96
@  #10 @015   ----------------------------------------
 .byte   W96
@  #10 @016   ----------------------------------------
 .byte   W96
@  #10 @017   ----------------------------------------
 .byte   W96
@  #10 @018   ----------------------------------------
 .byte   W96
@  #10 @019   ----------------------------------------
 .byte   W96
@  #10 @020   ----------------------------------------
 .byte   W96
@  #10 @021   ----------------------------------------
 .byte   W96
@  #10 @022   ----------------------------------------
 .byte   W96
@  #10 @023   ----------------------------------------
 .byte   W96
@  #10 @024   ----------------------------------------
 .byte   W96
@  #10 @025   ----------------------------------------
 .byte   W96
@  #10 @026   ----------------------------------------
 .byte   W96
@  #10 @027   ----------------------------------------
 .byte   W96
@  #10 @028   ----------------------------------------
 .byte   W96
@  #10 @029   ----------------------------------------
 .byte   W96
@  #10 @030   ----------------------------------------
 .byte   W96
@  #10 @031   ----------------------------------------
 .byte   W96
@  #10 @032   ----------------------------------------
 .byte   W96
@  #10 @033   ----------------------------------------
 .byte   W96
@  #10 @034   ----------------------------------------
 .byte   W96
@  #10 @035   ----------------------------------------
 .byte   W96
@  #10 @036   ----------------------------------------
 .byte   W96
@  #10 @037   ----------------------------------------
 .byte   W96
@  #10 @038   ----------------------------------------
 .byte   W96
@  #10 @039   ----------------------------------------
 .byte   W96
@  #10 @040   ----------------------------------------
 .byte   W96
@  #10 @041   ----------------------------------------
 .byte   W96
@  #10 @042   ----------------------------------------
 .byte   W96
@  #10 @043   ----------------------------------------
 .byte   W96
@  #10 @044   ----------------------------------------
 .byte   W96
@  #10 @045   ----------------------------------------
 .byte   W96
@  #10 @046   ----------------------------------------
 .byte   W96
@  #10 @047   ----------------------------------------
 .byte   W96
@  #10 @048   ----------------------------------------
 .byte   W96
@  #10 @049   ----------------------------------------
 .byte   W96
@  #10 @050   ----------------------------------------
 .byte   W96
@  #10 @051   ----------------------------------------
 .byte   W96
@  #10 @052   ----------------------------------------
 .byte   W96
@  #10 @053   ----------------------------------------
 .byte   W96
@  #10 @054   ----------------------------------------
 .byte   W96
@  #10 @055   ----------------------------------------
 .byte   W96
@  #10 @056   ----------------------------------------
 .byte   W96
@  #10 @057   ----------------------------------------
 .byte   W96
@  #10 @058   ----------------------------------------
 .byte   PATT
  .word Label_010B0887
@  #10 @059   ----------------------------------------
 .byte   PATT
  .word Label_010B0890
@  #10 @060   ----------------------------------------
 .byte   PATT
  .word Label_010B0899
@  #10 @061   ----------------------------------------
 .byte   PATT
  .word Label_010B08A2
@  #10 @062   ----------------------------------------
 .byte   PATT
  .word Label_010B0887
@  #10 @063   ----------------------------------------
 .byte   PATT
  .word Label_010B0890
@  #10 @064   ----------------------------------------
 .byte   PATT
  .word Label_010B0899
@  #10 @065   ----------------------------------------
 .byte   PATT
  .word Label_010B08A2
@  #10 @066   ----------------------------------------
 .byte   GOTO
  .word Label_010B08BF
@  #10 @067   ----------------------------------------
 .byte   W96
@  #10 @068   ----------------------------------------
 .byte   W96
@  #10 @069   ----------------------------------------
 .byte   W96
@  #10 @070   ----------------------------------------
 .byte   W96
@  #10 @071   ----------------------------------------
 .byte   W96
@  #10 @072   ----------------------------------------
 .byte   W96
@  #10 @073   ----------------------------------------
 .byte   W96
@  #10 @074   ----------------------------------------
 .byte   W96
@  #10 @075   ----------------------------------------
 .byte   W96
@  #10 @076   ----------------------------------------
 .byte   W96
@  #10 @077   ----------------------------------------
 .byte   W96
@  #10 @078   ----------------------------------------
 .byte   W96
@  #10 @079   ----------------------------------------
 .byte   W96
@  #10 @080   ----------------------------------------
 .byte   W96
@  #10 @081   ----------------------------------------
 .byte   W96
@  #10 @082   ----------------------------------------
 .byte   W96
@  #10 @083   ----------------------------------------
 .byte   W96
@  #10 @084   ----------------------------------------
 .byte   W96
@  #10 @085   ----------------------------------------
 .byte   W96
@  #10 @086   ----------------------------------------
 .byte   W96
@  #10 @087   ----------------------------------------
 .byte   W96
@  #10 @088   ----------------------------------------
 .byte   W96
@  #10 @089   ----------------------------------------
 .byte   W96
@  #10 @090   ----------------------------------------
 .byte   W96
@  #10 @091   ----------------------------------------
 .byte   W96
@  #10 @092   ----------------------------------------
 .byte   W96
@  #10 @093   ----------------------------------------
 .byte   W96
@  #10 @094   ----------------------------------------
 .byte   W96
@  #10 @095   ----------------------------------------
 .byte   W96
@  #10 @096   ----------------------------------------
 .byte   W96
@  #10 @097   ----------------------------------------
 .byte   W96
@  #10 @098   ----------------------------------------
 .byte   W96
@  #10 @099   ----------------------------------------
 .byte   W96
@  #10 @100   ----------------------------------------
 .byte   W96
@  #10 @101   ----------------------------------------
 .byte   W96
@  #10 @102   ----------------------------------------
 .byte   W96
@  #10 @103   ----------------------------------------
 .byte   W96
@  #10 @104   ----------------------------------------
 .byte   W96
@  #10 @105   ----------------------------------------
 .byte   W96
@  #10 @106   ----------------------------------------
 .byte   W96
@  #10 @107   ----------------------------------------
 .byte   W96
@  #10 @108   ----------------------------------------
 .byte   W96
@  #10 @109   ----------------------------------------
 .byte   W96
@  #10 @110   ----------------------------------------
 .byte   W96
@  #10 @111   ----------------------------------------
 .byte   W96
@  #10 @112   ----------------------------------------
 .byte   W96
@  #10 @113   ----------------------------------------
 .byte   PATT
  .word Label_010B0887
@  #10 @114   ----------------------------------------
 .byte   N92 ,Bn2 ,v060
 .byte   N92 ,Dn3
 .byte   N92 ,Bn3
 .byte   W92
 .byte   W03
 .byte   FINE

@******************************************************@
	.align	2

song09:
	.byte	10	@ NumTrks
	.byte	0	@ NumBlks
	.byte	song09_pri	@ Priority
	.byte	song09_rev	@ Reverb.
    
	.word	song09_grp
    
	.word	song09_001
	.word	song09_002
	.word	song09_003
	.word	song09_004
	.word	song09_005
	.word	song09_006
	.word	song09_007
	.word	song09_008
	.word	song09_009
	.word	song09_010

	.end
