//Event file generated from Sappy .s format.
	#include "MPlayDef.event"

	#define	song09_grp  voicegroup000
	#define	song09_pri  0
	#define	song09_rev  0
	#define	song09_mvl  127
	#define	song09_key  0
	#define	song09_tbs  1
	#define	song09_exg  0
	#define	song09_cmp  1

	// .rodata
	//	song09
	ALIGN 4


//**************** Track 1 (Midi-Chn.0) ****************//

song09_001:
//  #01 //000   ----------------------------------------
 BYTE   KEYSH   song09_key+0
 BYTE   TEMPO   114*song09_tbs/2
 BYTE   VOICE   39
 BYTE   MODT 0
 BYTE   LFOS 44
 BYTE   VOL   29*song09_mvl/mxv
 BYTE   PAN   c_v+0
 BYTE   VOL   29*song09_mvl/mxv
 BYTE   PAN   c_v+0
 BYTE   W96
//  #01 //001   ----------------------------------------
 BYTE   W96
//  #01 //002   ----------------------------------------
 BYTE   W96
//  #01 //003   ----------------------------------------
 BYTE   W96
//  #01 //004   ----------------------------------------
Label_010B0CAA:
 BYTE   W06
 BYTE   N05  En4  v104
 BYTE   W06
 BYTE   An4
 BYTE   W06
 BYTE   Dn4
 BYTE   W06
 BYTE   En4
 BYTE   W06
 BYTE   An3
 BYTE   W06
 BYTE   Dn4
 BYTE   W06
 BYTE   Gn3
 BYTE   W06
 BYTE   An3
 BYTE   W06
 BYTE   An2
 BYTE   W06
 BYTE   En3
 BYTE   W06
 BYTE   An3
 BYTE   W06
 BYTE   Gn3
 BYTE   W06
 BYTE   Dn3
 BYTE   W06
 BYTE   N11  En3
 BYTE   W12
 BYTE   PEND 
//  #01 //005   ----------------------------------------
Label_010B0CCB:
 BYTE   W06
 BYTE   N05  En4  v104
 BYTE   W06
 BYTE   An4
 BYTE   W06
 BYTE   Dn4
 BYTE   W06
 BYTE   En4
 BYTE   W06
 BYTE   An3
 BYTE   W06
 BYTE   Dn4
 BYTE   W06
 BYTE   Gn3
 BYTE   W06
 BYTE   An3
 BYTE   W06
 BYTE   An2
 BYTE   W06
 BYTE   En3
 BYTE   W06
 BYTE   An3
 BYTE   W06
 BYTE   Gn3
 BYTE   W06
 BYTE   Fs3
 BYTE   W06
 BYTE   N11  En3
 BYTE   W12
 BYTE   PEND 
//  #01 //006   ----------------------------------------
 BYTE   PATT
  POIN2 Label_010B0CAA
//  #01 //007   ----------------------------------------
Label_010B0CF1:
 BYTE   W06
 BYTE   N05  En4  v104
 BYTE   W06
 BYTE   An4
 BYTE   W06
 BYTE   Dn4
 BYTE   W06
 BYTE   En4
 BYTE   W06
 BYTE   An3
 BYTE   W06
 BYTE   Dn4
 BYTE   W06
 BYTE   Gn3
 BYTE   W06
 BYTE   An3
 BYTE   W06
 BYTE   En3
 BYTE   W06
 BYTE   Bn3
 BYTE   W06
 BYTE   En3
 BYTE   W06
 BYTE   Cn4
 BYTE   W06
 BYTE   En3
 BYTE   W06
 BYTE   N11  Dn4
 BYTE   W12
 BYTE   PEND 
//  #01 //008   ----------------------------------------
 BYTE   PATT
  POIN2 Label_010B0CAA
//  #01 //009   ----------------------------------------
 BYTE   PATT
  POIN2 Label_010B0CCB
//  #01 //010   ----------------------------------------
Label_010B0D1C:
 BYTE   W06
 BYTE   N05  En4  v104
 BYTE   W06
 BYTE   An4
 BYTE   W06
 BYTE   Dn4
 BYTE   W06
 BYTE   En4
 BYTE   W06
 BYTE   An3
 BYTE   W06
 BYTE   Dn4
 BYTE   W06
 BYTE   Gn3
 BYTE   W06
 BYTE   An3
 BYTE   W06
 BYTE   En3
 BYTE   W06
 BYTE   Bn3
 BYTE   W06
 BYTE   En3
 BYTE   W06
 BYTE   Cn4
 BYTE   W06
 BYTE   En3
 BYTE   W06
 BYTE   Dn4
 BYTE   W06
 BYTE   Bn3
 BYTE   W06
 BYTE   PEND 
//  #01 //011   ----------------------------------------
Label_010B0D3E:
 BYTE   N05  En4  v104
 BYTE   W06
 BYTE   Dn4
 BYTE   W06
 BYTE   Gn4
 BYTE   W06
 BYTE   En4
 BYTE   W06
 BYTE   An4
 BYTE   W06
 BYTE   En4
 BYTE   W06
 BYTE   Bn4
 BYTE   W06
 BYTE   En4
 BYTE   W06
 BYTE   Cn5
 BYTE   W06
 BYTE   En4
 BYTE   W06
 BYTE   Dn5
 BYTE   W06
 BYTE   An4
 BYTE   W06
 BYTE   En5
 BYTE   W06
 BYTE   Bn4
 BYTE   W06
 BYTE   N11  Fs5
 BYTE   W12
 BYTE   PEND 
//  #01 //012   ----------------------------------------
Label_010B0D60:
 BYTE   N92  En5  v104
 BYTE   W96
//  #01 //013   ----------------------------------------
 BYTE   W96
//  #01 //014   ----------------------------------------
 BYTE   W96
//  #01 //015   ----------------------------------------
 BYTE   W96
//  #01 //016   ----------------------------------------
 BYTE   W96
//  #01 //017   ----------------------------------------
 BYTE   W96
//  #01 //018   ----------------------------------------
 BYTE   W96
//  #01 //019   ----------------------------------------
 BYTE   W96
//  #01 //020   ----------------------------------------
 BYTE   PATT
  POIN2 Label_010B0CAA
//  #01 //021   ----------------------------------------
 BYTE   PATT
  POIN2 Label_010B0CCB
//  #01 //022   ----------------------------------------
 BYTE   PATT
  POIN2 Label_010B0CAA
//  #01 //023   ----------------------------------------
 BYTE   PATT
  POIN2 Label_010B0CF1
//  #01 //024   ----------------------------------------
 BYTE   PATT
  POIN2 Label_010B0CAA
//  #01 //025   ----------------------------------------
 BYTE   PATT
  POIN2 Label_010B0CCB
//  #01 //026   ----------------------------------------
 BYTE   PATT
  POIN2 Label_010B0D1C
//  #01 //027   ----------------------------------------
 BYTE   PATT
  POIN2 Label_010B0D3E
//  #01 //028   ----------------------------------------
 BYTE   N92  En5  v104
 BYTE   W96
//  #01 //029   ----------------------------------------
 BYTE   W96
//  #01 //030   ----------------------------------------
Label_010B0D98:
 BYTE   N32  Bn5  v072
 BYTE   W36
 BYTE   N05  An5
 BYTE   W06
 BYTE   Gn5
 BYTE   W06
 BYTE   N17  Fs5
 BYTE   W18
 BYTE   Dn5
 BYTE   W18
 BYTE   N11  Fs5
 BYTE   W12
 BYTE   PEND 
//  #01 //031   ----------------------------------------
Label_010B0DAA:
 BYTE   N44  En5  v072
 BYTE   W48
 BYTE   N17
 BYTE   W18
 BYTE   Bn5
 BYTE   W18
 BYTE   N11  An5
 BYTE   W12
 BYTE   PEND 
//  #01 //032   ----------------------------------------
 BYTE   N92  Bn5
 BYTE   W96
//  #01 //033   ----------------------------------------
 BYTE   W96
//  #01 //034   ----------------------------------------
 BYTE   PATT
  POIN2 Label_010B0D98
//  #01 //035   ----------------------------------------
 BYTE   PATT
  POIN2 Label_010B0DAA
//  #01 //036   ----------------------------------------
 BYTE   N92  Bn5  v072
 BYTE   W96
//  #01 //037   ----------------------------------------
 BYTE   W96
//  #01 //038   ----------------------------------------
 BYTE   W96
//  #01 //039   ----------------------------------------
 BYTE   W96
//  #01 //040   ----------------------------------------
 BYTE   W96
//  #01 //041   ----------------------------------------
 BYTE   W96
//  #01 //042   ----------------------------------------
 BYTE   W96
//  #01 //043   ----------------------------------------
 BYTE   W96
//  #01 //044   ----------------------------------------
 BYTE   PATT
  POIN2 Label_010B0CAA
//  #01 //045   ----------------------------------------
 BYTE   PATT
  POIN2 Label_010B0CCB
//  #01 //046   ----------------------------------------
 BYTE   PATT
  POIN2 Label_010B0CAA
//  #01 //047   ----------------------------------------
 BYTE   PATT
  POIN2 Label_010B0CF1
//  #01 //048   ----------------------------------------
 BYTE   PATT
  POIN2 Label_010B0CAA
//  #01 //049   ----------------------------------------
 BYTE   PATT
  POIN2 Label_010B0CCB
//  #01 //050   ----------------------------------------
 BYTE   PATT
  POIN2 Label_010B0D1C
//  #01 //051   ----------------------------------------
Label_010B0DF2:
 BYTE   N05  En4  v104
 BYTE   W06
 BYTE   Dn4
 BYTE   W06
 BYTE   Gn4
 BYTE   W06
 BYTE   En4
 BYTE   W06
 BYTE   An4
 BYTE   W06
 BYTE   En4
 BYTE   W06
 BYTE   Bn4
 BYTE   W06
 BYTE   En4
 BYTE   W06
 BYTE   Cn5
 BYTE   W06
 BYTE   En4
 BYTE   W06
 BYTE   Dn5
 BYTE   W06
 BYTE   An4
 BYTE   W06
 BYTE   En5
 BYTE   W06
 BYTE   Bn4
 BYTE   W06
 BYTE   Fs5
 BYTE   W06
 BYTE   Dn5
 BYTE   W06
 BYTE   PEND 
//  #01 //052   ----------------------------------------
 BYTE   PATT
  POIN2 Label_010B0D1C
//  #01 //053   ----------------------------------------
 BYTE   PATT
  POIN2 Label_010B0DF2
//  #01 //054   ----------------------------------------
 BYTE   PATT
  POIN2 Label_010B0D1C
//  #01 //055   ----------------------------------------
 BYTE   PATT
  POIN2 Label_010B0DF2
//  #01 //056   ----------------------------------------
 BYTE   PATT
  POIN2 Label_010B0D1C
//  #01 //057   ----------------------------------------
 BYTE   PATT
  POIN2 Label_010B0DF2
//  #01 //058   ----------------------------------------
 BYTE   PATT
  POIN2 Label_010B0CAA
//  #01 //059   ----------------------------------------
 BYTE   PATT
  POIN2 Label_010B0CCB
//  #01 //060   ----------------------------------------
 BYTE   PATT
  POIN2 Label_010B0CAA
//  #01 //061   ----------------------------------------
 BYTE   PATT
  POIN2 Label_010B0CF1
//  #01 //062   ----------------------------------------
 BYTE   PATT
  POIN2 Label_010B0CAA
//  #01 //063   ----------------------------------------
 BYTE   PATT
  POIN2 Label_010B0CCB
//  #01 //064   ----------------------------------------
 BYTE   PATT
  POIN2 Label_010B0D1C
//  #01 //065   ----------------------------------------
 BYTE   PATT
  POIN2 Label_010B0D3E
//  #01 //066   ----------------------------------------
 BYTE   GoTo
  POIN2 Label_010B0D60
//  #01 //067   ----------------------------------------
 BYTE   N92  En5  v104
 BYTE   W96
//  #01 //068   ----------------------------------------
 BYTE   W96
//  #01 //069   ----------------------------------------
 BYTE   W96
//  #01 //070   ----------------------------------------
 BYTE   W96
//  #01 //071   ----------------------------------------
 BYTE   W96
//  #01 //072   ----------------------------------------
 BYTE   W96
//  #01 //073   ----------------------------------------
 BYTE   W96
//  #01 //074   ----------------------------------------
 BYTE   W96
//  #01 //075   ----------------------------------------
 BYTE   PATT
  POIN2 Label_010B0CAA
//  #01 //076   ----------------------------------------
 BYTE   PATT
  POIN2 Label_010B0CCB
//  #01 //077   ----------------------------------------
 BYTE   PATT
  POIN2 Label_010B0CAA
//  #01 //078   ----------------------------------------
 BYTE   PATT
  POIN2 Label_010B0CF1
//  #01 //079   ----------------------------------------
 BYTE   PATT
  POIN2 Label_010B0CAA
//  #01 //080   ----------------------------------------
 BYTE   PATT
  POIN2 Label_010B0CCB
//  #01 //081   ----------------------------------------
 BYTE   PATT
  POIN2 Label_010B0D1C
//  #01 //082   ----------------------------------------
 BYTE   PATT
  POIN2 Label_010B0D3E
//  #01 //083   ----------------------------------------
 BYTE   N92  En5  v104
 BYTE   W96
//  #01 //084   ----------------------------------------
 BYTE   W96
//  #01 //085   ----------------------------------------
 BYTE   PATT
  POIN2 Label_010B0D98
//  #01 //086   ----------------------------------------
 BYTE   PATT
  POIN2 Label_010B0DAA
//  #01 //087   ----------------------------------------
 BYTE   N92  Bn5  v072
 BYTE   W96
//  #01 //088   ----------------------------------------
 BYTE   W96
//  #01 //089   ----------------------------------------
 BYTE   PATT
  POIN2 Label_010B0D98
//  #01 //090   ----------------------------------------
 BYTE   PATT
  POIN2 Label_010B0DAA
//  #01 //091   ----------------------------------------
 BYTE   N92  Bn5  v072
 BYTE   W96
//  #01 //092   ----------------------------------------
 BYTE   W96
//  #01 //093   ----------------------------------------
 BYTE   W96
//  #01 //094   ----------------------------------------
 BYTE   W96
//  #01 //095   ----------------------------------------
 BYTE   W96
//  #01 //096   ----------------------------------------
 BYTE   W96
//  #01 //097   ----------------------------------------
 BYTE   W96
//  #01 //098   ----------------------------------------
 BYTE   W96
//  #01 //099   ----------------------------------------
 BYTE   PATT
  POIN2 Label_010B0CAA
//  #01 //100   ----------------------------------------
 BYTE   PATT
  POIN2 Label_010B0CCB
//  #01 //101   ----------------------------------------
 BYTE   PATT
  POIN2 Label_010B0CAA
//  #01 //102   ----------------------------------------
 BYTE   PATT
  POIN2 Label_010B0CF1
//  #01 //103   ----------------------------------------
 BYTE   PATT
  POIN2 Label_010B0CAA
//  #01 //104   ----------------------------------------
 BYTE   PATT
  POIN2 Label_010B0CCB
//  #01 //105   ----------------------------------------
 BYTE   PATT
  POIN2 Label_010B0D1C
//  #01 //106   ----------------------------------------
 BYTE   PATT
  POIN2 Label_010B0DF2
//  #01 //107   ----------------------------------------
 BYTE   PATT
  POIN2 Label_010B0D1C
//  #01 //108   ----------------------------------------
 BYTE   PATT
  POIN2 Label_010B0DF2
//  #01 //109   ----------------------------------------
 BYTE   PATT
  POIN2 Label_010B0D1C
//  #01 //110   ----------------------------------------
 BYTE   PATT
  POIN2 Label_010B0DF2
//  #01 //111   ----------------------------------------
 BYTE   PATT
  POIN2 Label_010B0D1C
//  #01 //112   ----------------------------------------
 BYTE   PATT
  POIN2 Label_010B0DF2
//  #01 //113   ----------------------------------------
 BYTE   PATT
  POIN2 Label_010B0CAA
//  #01 //114   ----------------------------------------
 BYTE   W06
 BYTE   N05  En4  v104
 BYTE   W06
 BYTE   An4
 BYTE   W06
 BYTE   Dn4
 BYTE   W06
 BYTE   En4
 BYTE   W06
 BYTE   An3
 BYTE   W06
 BYTE   Dn4
 BYTE   W06
 BYTE   Gn3
 BYTE   W06
 BYTE   An3
 BYTE   W06
 BYTE   An2
 BYTE   W06
 BYTE   En3
 BYTE   W06
 BYTE   An3
 BYTE   W06
 BYTE   Gn3
 BYTE   W06
 BYTE   Fs3
 BYTE   W06
 BYTE   N11  En3
 BYTE   W11
 BYTE   FINE

//**************** Track 2 (Midi-Chn.1) ****************//

song09_002:
//  #02 //000   ----------------------------------------
 BYTE   KEYSH   song09_key+0
 BYTE   VOICE   75
 BYTE   MODT 0
 BYTE   LFOS 44
 BYTE   VOL   29*song09_mvl/mxv
 BYTE   PAN   c_v+0
 BYTE   W96
//  #02 //001   ----------------------------------------
 BYTE   W96
//  #02 //002   ----------------------------------------
 BYTE   W96
//  #02 //003   ----------------------------------------
 BYTE   W96
//  #02 //004   ----------------------------------------
 BYTE   W96
//  #02 //005   ----------------------------------------
 BYTE   W96
//  #02 //006   ----------------------------------------
 BYTE   W96
//  #02 //007   ----------------------------------------
 BYTE   W96
//  #02 //008   ----------------------------------------
 BYTE   W96
//  #02 //009   ----------------------------------------
 BYTE   W96
//  #02 //010   ----------------------------------------
 BYTE   W96
//  #02 //011   ----------------------------------------
 BYTE   W96
//  #02 //012   ----------------------------------------
Label_010A7EE4:
 BYTE   W96
//  #02 //013   ----------------------------------------
 BYTE   W96
//  #02 //014   ----------------------------------------
 BYTE   W96
//  #02 //015   ----------------------------------------
 BYTE   W96
//  #02 //016   ----------------------------------------
 BYTE   W96
//  #02 //017   ----------------------------------------
 BYTE   W96
//  #02 //018   ----------------------------------------
 BYTE   W96
//  #02 //019   ----------------------------------------
 BYTE   W96
//  #02 //020   ----------------------------------------
 BYTE   W96
//  #02 //021   ----------------------------------------
 BYTE   W96
//  #02 //022   ----------------------------------------
 BYTE   W96
//  #02 //023   ----------------------------------------
 BYTE   W96
//  #02 //024   ----------------------------------------
 BYTE   W96
//  #02 //025   ----------------------------------------
 BYTE   W96
//  #02 //026   ----------------------------------------
 BYTE   W96
//  #02 //027   ----------------------------------------
 BYTE   W96
//  #02 //028   ----------------------------------------
Label_010A7EF4:
 BYTE   N32  Bn4  v096
 BYTE   W36
 BYTE   N05  An4
 BYTE   W06
 BYTE   Gn4
 BYTE   W06
 BYTE   N17  Fs4
 BYTE   W18
 BYTE   Dn4
 BYTE   W18
 BYTE   N11  Fs4
 BYTE   W12
 BYTE   PEND 
//  #02 //029   ----------------------------------------
Label_010A7F06:
 BYTE   N44  En4  v096
 BYTE   W48
 BYTE   N17
 BYTE   W18
 BYTE   Bn3
 BYTE   W18
 BYTE   N11  An3
 BYTE   W12
 BYTE   PEND 
//  #02 //030   ----------------------------------------
 BYTE   N90  Bn3
 BYTE   W96
//  #02 //031   ----------------------------------------
 BYTE   W96
//  #02 //032   ----------------------------------------
 BYTE   PATT
  POIN2 Label_010A7EF4
//  #02 //033   ----------------------------------------
 BYTE   PATT
  POIN2 Label_010A7F06
//  #02 //034   ----------------------------------------
 BYTE   N90  Bn3  v096
 BYTE   W96
//  #02 //035   ----------------------------------------
 BYTE   W96
//  #02 //036   ----------------------------------------
 BYTE   W96
//  #02 //037   ----------------------------------------
 BYTE   W96
//  #02 //038   ----------------------------------------
 BYTE   W96
//  #02 //039   ----------------------------------------
 BYTE   W96
//  #02 //040   ----------------------------------------
 BYTE   W96
//  #02 //041   ----------------------------------------
 BYTE   W96
//  #02 //042   ----------------------------------------
 BYTE   W96
//  #02 //043   ----------------------------------------
Label_010A7F2C:
 BYTE   W72
 BYTE   N02  En4  v096
 BYTE   W06
 BYTE   Fs4
 BYTE   W06
 BYTE   Gn4
 BYTE   W06
 BYTE   An4
 BYTE   W06
 BYTE   PEND 
//  #02 //044   ----------------------------------------
 BYTE   PATT
  POIN2 Label_010A7EF4
//  #02 //045   ----------------------------------------
Label_010A7F3D:
 BYTE   N17  En4  v096
 BYTE   W18
 BYTE   Bn3
 BYTE   W18
 BYTE   N11  An3
 BYTE   W12
 BYTE   N22  Bn3
 BYTE   W24
 BYTE   N02  En4
 BYTE   W06
 BYTE   Fs4
 BYTE   W06
 BYTE   Gn4
 BYTE   W06
 BYTE   An4
 BYTE   W06
 BYTE   PEND 
//  #02 //046   ----------------------------------------
 BYTE   PATT
  POIN2 Label_010A7EF4
//  #02 //047   ----------------------------------------
Label_010A7F58:
 BYTE   N17  En4  v096
 BYTE   W18
 BYTE   Bn4
 BYTE   W18
 BYTE   N11  An4
 BYTE   W12
 BYTE   N22  Bn4
 BYTE   W24
 BYTE   N02  En4
 BYTE   W06
 BYTE   Fs4
 BYTE   W06
 BYTE   Gn4
 BYTE   W06
 BYTE   An4
 BYTE   W06
 BYTE   PEND 
//  #02 //048   ----------------------------------------
 BYTE   PATT
  POIN2 Label_010A7EF4
//  #02 //049   ----------------------------------------
Label_010A7F73:
 BYTE   N17  En4  v096
 BYTE   W18
 BYTE   Bn3
 BYTE   W18
 BYTE   N11  An3
 BYTE   W12
 BYTE   N17  Bn3
 BYTE   W18
 BYTE   An3
 BYTE   W18
 BYTE   N11  Gn3
 BYTE   W12
 BYTE   PEND 
//  #02 //050   ----------------------------------------
 BYTE   TIE  En3  v080
 BYTE   W96
//  #02 //051   ----------------------------------------
 BYTE   W84
 BYTE   W02
 BYTE   EOT
 BYTE   W10
//  #02 //052   ----------------------------------------
 BYTE   W96
//  #02 //053   ----------------------------------------
Label_010A7F8E:
 BYTE   N17  En3  v080
 BYTE   W18
 BYTE   N17
 BYTE   W18
 BYTE   N11  Gn3
 BYTE   W12
 BYTE   N17  Fs3
 BYTE   W18
 BYTE   Gn3
 BYTE   W18
 BYTE   N11  An3
 BYTE   W12
 BYTE   PEND 
//  #02 //054   ----------------------------------------
 BYTE   TIE  En3
 BYTE   W96
//  #02 //055   ----------------------------------------
 BYTE   W84
 BYTE   W02
 BYTE   EOT
 BYTE   W10
//  #02 //056   ----------------------------------------
 BYTE   W96
//  #02 //057   ----------------------------------------
 BYTE   PATT
  POIN2 Label_010A7F8E
//  #02 //058   ----------------------------------------
 BYTE   TIE  En3  v080
 BYTE   W96
//  #02 //059   ----------------------------------------
 BYTE   W84
 BYTE   W02
 BYTE   EOT
 BYTE   W10
//  #02 //060   ----------------------------------------
 BYTE   W96
//  #02 //061   ----------------------------------------
 BYTE   W96
//  #02 //062   ----------------------------------------
 BYTE   W96
//  #02 //063   ----------------------------------------
 BYTE   W96
//  #02 //064   ----------------------------------------
 BYTE   W96
//  #02 //065   ----------------------------------------
 BYTE   W96
//  #02 //066   ----------------------------------------
 BYTE   GoTo
  POIN2 Label_010A7EE4
//  #02 //067   ----------------------------------------
 BYTE   W96
//  #02 //068   ----------------------------------------
 BYTE   W96
//  #02 //069   ----------------------------------------
 BYTE   W96
//  #02 //070   ----------------------------------------
 BYTE   W96
//  #02 //071   ----------------------------------------
 BYTE   W96
//  #02 //072   ----------------------------------------
 BYTE   W96
//  #02 //073   ----------------------------------------
 BYTE   W96
//  #02 //074   ----------------------------------------
 BYTE   W96
//  #02 //075   ----------------------------------------
 BYTE   W96
//  #02 //076   ----------------------------------------
 BYTE   W96
//  #02 //077   ----------------------------------------
 BYTE   W96
//  #02 //078   ----------------------------------------
 BYTE   W96
//  #02 //079   ----------------------------------------
 BYTE   W96
//  #02 //080   ----------------------------------------
 BYTE   W96
//  #02 //081   ----------------------------------------
 BYTE   W96
//  #02 //082   ----------------------------------------
 BYTE   W96
//  #02 //083   ----------------------------------------
 BYTE   PATT
  POIN2 Label_010A7EF4
//  #02 //084   ----------------------------------------
 BYTE   PATT
  POIN2 Label_010A7F06
//  #02 //085   ----------------------------------------
 BYTE   N90  Bn3  v096
 BYTE   W96
//  #02 //086   ----------------------------------------
 BYTE   W96
//  #02 //087   ----------------------------------------
 BYTE   PATT
  POIN2 Label_010A7EF4
//  #02 //088   ----------------------------------------
 BYTE   PATT
  POIN2 Label_010A7F06
//  #02 //089   ----------------------------------------
 BYTE   N90  Bn3  v096
 BYTE   W96
//  #02 //090   ----------------------------------------
 BYTE   W96
//  #02 //091   ----------------------------------------
 BYTE   W96
//  #02 //092   ----------------------------------------
 BYTE   W96
//  #02 //093   ----------------------------------------
 BYTE   W96
//  #02 //094   ----------------------------------------
 BYTE   W96
//  #02 //095   ----------------------------------------
 BYTE   W96
//  #02 //096   ----------------------------------------
 BYTE   W96
//  #02 //097   ----------------------------------------
 BYTE   W96
//  #02 //098   ----------------------------------------
 BYTE   PATT
  POIN2 Label_010A7F2C
//  #02 //099   ----------------------------------------
 BYTE   PATT
  POIN2 Label_010A7EF4
//  #02 //100   ----------------------------------------
 BYTE   PATT
  POIN2 Label_010A7F3D
//  #02 //101   ----------------------------------------
 BYTE   PATT
  POIN2 Label_010A7EF4
//  #02 //102   ----------------------------------------
 BYTE   PATT
  POIN2 Label_010A7F58
//  #02 //103   ----------------------------------------
 BYTE   PATT
  POIN2 Label_010A7EF4
//  #02 //104   ----------------------------------------
 BYTE   PATT
  POIN2 Label_010A7F73
//  #02 //105   ----------------------------------------
 BYTE   TIE  En3  v080
 BYTE   W96
//  #02 //106   ----------------------------------------
 BYTE   W84
 BYTE   W02
 BYTE   EOT
 BYTE   W10
//  #02 //107   ----------------------------------------
 BYTE   W96
//  #02 //108   ----------------------------------------
 BYTE   PATT
  POIN2 Label_010A7F8E
//  #02 //109   ----------------------------------------
 BYTE   TIE  En3  v080
 BYTE   W96
//  #02 //110   ----------------------------------------
 BYTE   W84
 BYTE   W02
 BYTE   EOT
 BYTE   W10
//  #02 //111   ----------------------------------------
 BYTE   W96
//  #02 //112   ----------------------------------------
 BYTE   PATT
  POIN2 Label_010A7F8E
//  #02 //113   ----------------------------------------
 BYTE   TIE  En3  v080
 BYTE   W96
//  #02 //114   ----------------------------------------
 BYTE   W84
 BYTE   W02
 BYTE   EOT
 BYTE   W09
 BYTE   FINE

//**************** Track 3 (Midi-Chn.2) ****************//

song09_003:
//  #03 //000   ----------------------------------------
 BYTE   KEYSH   song09_key+0
 BYTE   VOICE   14
 BYTE   MODT 0
 BYTE   LFOS 44
 BYTE   VOL   29*song09_mvl/mxv
 BYTE   PAN   c_v+0
 BYTE   W96
//  #03 //001   ----------------------------------------
 BYTE   W96
//  #03 //002   ----------------------------------------
 BYTE   W96
//  #03 //003   ----------------------------------------
 BYTE   W96
//  #03 //004   ----------------------------------------
 BYTE   W96
//  #03 //005   ----------------------------------------
 BYTE   W96
//  #03 //006   ----------------------------------------
 BYTE   W96
//  #03 //007   ----------------------------------------
 BYTE   W96
//  #03 //008   ----------------------------------------
 BYTE   W96
//  #03 //009   ----------------------------------------
 BYTE   W96
//  #03 //010   ----------------------------------------
 BYTE   W96
//  #03 //011   ----------------------------------------
 BYTE   W96
//  #03 //012   ----------------------------------------
Label_010B0F40:
 BYTE   N05  Bn3  v060
 BYTE   W12
 BYTE   Bn3  v044
 BYTE   W06
 BYTE   N11  En3  v060
 BYTE   W12
 BYTE   N05  En3  v044
 BYTE   W06
 BYTE   N11  Dn3  v060
 BYTE   W12
 BYTE   N05  En3
 BYTE   W12
 BYTE   En3  v044
 BYTE   W36
 BYTE   PEND 
//  #03 //013   ----------------------------------------
Label_010B0F5A:
 BYTE   N05  An3  v060
 BYTE   W12
 BYTE   An3  v044
 BYTE   W06
 BYTE   N11  Dn3  v060
 BYTE   W12
 BYTE   N05  Dn3  v044
 BYTE   W06
 BYTE   N11  En3  v060
 BYTE   W12
 BYTE   N05  An2
 BYTE   W12
 BYTE   An2  v044
 BYTE   W36
 BYTE   PEND 
//  #03 //014   ----------------------------------------
Label_010B0F74:
 BYTE   N05  Dn3  v060
 BYTE   W12
 BYTE   Dn3  v044
 BYTE   W06
 BYTE   N11  An2  v060
 BYTE   W12
 BYTE   N05  An2  v044
 BYTE   W06
 BYTE   N11  Gn2  v060
 BYTE   W12
 BYTE   N05  An2
 BYTE   W12
 BYTE   An2  v044
 BYTE   W36
 BYTE   PEND 
//  #03 //015   ----------------------------------------
Label_010B0F8E:
 BYTE   N05  Dn3  v060
 BYTE   W12
 BYTE   Dn3  v044
 BYTE   W06
 BYTE   N11  Gn2  v060
 BYTE   W12
 BYTE   N05  Gn2  v044
 BYTE   W06
 BYTE   N11  An2  v060
 BYTE   W12
 BYTE   N05  Gn2
 BYTE   W12
 BYTE   Gn2  v044
 BYTE   W36
 BYTE   PEND 
//  #03 //016   ----------------------------------------
 BYTE   PATT
  POIN2 Label_010B0F40
//  #03 //017   ----------------------------------------
 BYTE   PATT
  POIN2 Label_010B0F5A
//  #03 //018   ----------------------------------------
 BYTE   PATT
  POIN2 Label_010B0F74
//  #03 //019   ----------------------------------------
 BYTE   PATT
  POIN2 Label_010B0F8E
//  #03 //020   ----------------------------------------
 BYTE   W96
//  #03 //021   ----------------------------------------
 BYTE   W96
//  #03 //022   ----------------------------------------
 BYTE   W96
//  #03 //023   ----------------------------------------
 BYTE   W96
//  #03 //024   ----------------------------------------
 BYTE   W96
//  #03 //025   ----------------------------------------
 BYTE   W96
//  #03 //026   ----------------------------------------
 BYTE   W96
//  #03 //027   ----------------------------------------
 BYTE   W96
//  #03 //028   ----------------------------------------
 BYTE   W96
//  #03 //029   ----------------------------------------
 BYTE   W96
//  #03 //030   ----------------------------------------
 BYTE   W96
//  #03 //031   ----------------------------------------
 BYTE   W96
//  #03 //032   ----------------------------------------
 BYTE   W96
//  #03 //033   ----------------------------------------
 BYTE   W96
//  #03 //034   ----------------------------------------
 BYTE   W96
//  #03 //035   ----------------------------------------
 BYTE   W96
//  #03 //036   ----------------------------------------
 BYTE   PATT
  POIN2 Label_010B0F40
//  #03 //037   ----------------------------------------
 BYTE   PATT
  POIN2 Label_010B0F5A
//  #03 //038   ----------------------------------------
 BYTE   PATT
  POIN2 Label_010B0F74
//  #03 //039   ----------------------------------------
 BYTE   PATT
  POIN2 Label_010B0F8E
//  #03 //040   ----------------------------------------
 BYTE   PATT
  POIN2 Label_010B0F40
//  #03 //041   ----------------------------------------
 BYTE   PATT
  POIN2 Label_010B0F5A
//  #03 //042   ----------------------------------------
 BYTE   PATT
  POIN2 Label_010B0F74
//  #03 //043   ----------------------------------------
 BYTE   PATT
  POIN2 Label_010B0F8E
//  #03 //044   ----------------------------------------
 BYTE   W96
//  #03 //045   ----------------------------------------
 BYTE   W96
//  #03 //046   ----------------------------------------
 BYTE   W96
//  #03 //047   ----------------------------------------
 BYTE   W96
//  #03 //048   ----------------------------------------
 BYTE   W96
//  #03 //049   ----------------------------------------
 BYTE   W96
//  #03 //050   ----------------------------------------
 BYTE   PATT
  POIN2 Label_010B0F40
//  #03 //051   ----------------------------------------
 BYTE   PATT
  POIN2 Label_010B0F5A
//  #03 //052   ----------------------------------------
 BYTE   PATT
  POIN2 Label_010B0F74
//  #03 //053   ----------------------------------------
 BYTE   PATT
  POIN2 Label_010B0F8E
//  #03 //054   ----------------------------------------
 BYTE   PATT
  POIN2 Label_010B0F40
//  #03 //055   ----------------------------------------
 BYTE   PATT
  POIN2 Label_010B0F5A
//  #03 //056   ----------------------------------------
 BYTE   PATT
  POIN2 Label_010B0F74
//  #03 //057   ----------------------------------------
 BYTE   PATT
  POIN2 Label_010B0F8E
//  #03 //058   ----------------------------------------
 BYTE   W96
//  #03 //059   ----------------------------------------
 BYTE   W96
//  #03 //060   ----------------------------------------
 BYTE   W96
//  #03 //061   ----------------------------------------
 BYTE   W96
//  #03 //062   ----------------------------------------
 BYTE   W96
//  #03 //063   ----------------------------------------
 BYTE   W96
//  #03 //064   ----------------------------------------
 BYTE   W96
//  #03 //065   ----------------------------------------
 BYTE   W96
//  #03 //066   ----------------------------------------
 BYTE   GoTo
  POIN2 Label_010B0F40
//  #03 //067   ----------------------------------------
 BYTE   PATT
  POIN2 Label_010B0F40
//  #03 //068   ----------------------------------------
 BYTE   PATT
  POIN2 Label_010B0F5A
//  #03 //069   ----------------------------------------
 BYTE   PATT
  POIN2 Label_010B0F74
//  #03 //070   ----------------------------------------
 BYTE   PATT
  POIN2 Label_010B0F8E
//  #03 //071   ----------------------------------------
 BYTE   PATT
  POIN2 Label_010B0F40
//  #03 //072   ----------------------------------------
 BYTE   PATT
  POIN2 Label_010B0F5A
//  #03 //073   ----------------------------------------
 BYTE   PATT
  POIN2 Label_010B0F74
//  #03 //074   ----------------------------------------
 BYTE   PATT
  POIN2 Label_010B0F8E
//  #03 //075   ----------------------------------------
 BYTE   W96
//  #03 //076   ----------------------------------------
 BYTE   W96
//  #03 //077   ----------------------------------------
 BYTE   W96
//  #03 //078   ----------------------------------------
 BYTE   W96
//  #03 //079   ----------------------------------------
 BYTE   W96
//  #03 //080   ----------------------------------------
 BYTE   W96
//  #03 //081   ----------------------------------------
 BYTE   W96
//  #03 //082   ----------------------------------------
 BYTE   W96
//  #03 //083   ----------------------------------------
 BYTE   W96
//  #03 //084   ----------------------------------------
 BYTE   W96
//  #03 //085   ----------------------------------------
 BYTE   W96
//  #03 //086   ----------------------------------------
 BYTE   W96
//  #03 //087   ----------------------------------------
 BYTE   W96
//  #03 //088   ----------------------------------------
 BYTE   W96
//  #03 //089   ----------------------------------------
 BYTE   W96
//  #03 //090   ----------------------------------------
 BYTE   W96
//  #03 //091   ----------------------------------------
 BYTE   PATT
  POIN2 Label_010B0F40
//  #03 //092   ----------------------------------------
 BYTE   PATT
  POIN2 Label_010B0F5A
//  #03 //093   ----------------------------------------
 BYTE   PATT
  POIN2 Label_010B0F74
//  #03 //094   ----------------------------------------
 BYTE   PATT
  POIN2 Label_010B0F8E
//  #03 //095   ----------------------------------------
 BYTE   PATT
  POIN2 Label_010B0F40
//  #03 //096   ----------------------------------------
 BYTE   PATT
  POIN2 Label_010B0F5A
//  #03 //097   ----------------------------------------
 BYTE   PATT
  POIN2 Label_010B0F74
//  #03 //098   ----------------------------------------
 BYTE   PATT
  POIN2 Label_010B0F8E
//  #03 //099   ----------------------------------------
 BYTE   W96
//  #03 //100   ----------------------------------------
 BYTE   W96
//  #03 //101   ----------------------------------------
 BYTE   W96
//  #03 //102   ----------------------------------------
 BYTE   W96
//  #03 //103   ----------------------------------------
 BYTE   W96
//  #03 //104   ----------------------------------------
 BYTE   W96
//  #03 //105   ----------------------------------------
 BYTE   PATT
  POIN2 Label_010B0F40
//  #03 //106   ----------------------------------------
 BYTE   PATT
  POIN2 Label_010B0F5A
//  #03 //107   ----------------------------------------
 BYTE   PATT
  POIN2 Label_010B0F74
//  #03 //108   ----------------------------------------
 BYTE   PATT
  POIN2 Label_010B0F8E
//  #03 //109   ----------------------------------------
 BYTE   PATT
  POIN2 Label_010B0F40
//  #03 //110   ----------------------------------------
 BYTE   PATT
  POIN2 Label_010B0F5A
//  #03 //111   ----------------------------------------
 BYTE   PATT
  POIN2 Label_010B0F74
//  #03 //112   ----------------------------------------
 BYTE   PATT
  POIN2 Label_010B0F8E
//  #03 //113   ----------------------------------------
 BYTE   W96
//  #03 //114   ----------------------------------------
 BYTE   W92
 BYTE   W03
 BYTE   FINE

//**************** Track 4 (Midi-Chn.3) ****************//

song09_004:
//  #04 //000   ----------------------------------------
 BYTE   KEYSH   song09_key+0
 BYTE   VOICE   10
 BYTE   MODT 0
 BYTE   LFOS 44
 BYTE   VOL   31*song09_mvl/mxv
 BYTE   PAN   c_v+0
 BYTE   W96
//  #04 //001   ----------------------------------------
 BYTE   W96
//  #04 //002   ----------------------------------------
 BYTE   W96
//  #04 //003   ----------------------------------------
 BYTE   W96
//  #04 //004   ----------------------------------------
 BYTE   W96
//  #04 //005   ----------------------------------------
 BYTE   W96
//  #04 //006   ----------------------------------------
 BYTE   W96
//  #04 //007   ----------------------------------------
 BYTE   W96
//  #04 //008   ----------------------------------------
 BYTE   W96
//  #04 //009   ----------------------------------------
 BYTE   W96
//  #04 //010   ----------------------------------------
 BYTE   W96
//  #04 //011   ----------------------------------------
 BYTE   W96
//  #04 //012   ----------------------------------------
Label_010B10DC:
 BYTE   W48
 BYTE   N05  Bn4  v060
 BYTE   W12
 BYTE   Bn4  v044
 BYTE   W06
 BYTE   N11  En4  v060
 BYTE   W12
 BYTE   N05  En4  v044
 BYTE   W06
 BYTE   N11  Dn4  v060
 BYTE   W12
 BYTE   PEND 
//  #04 //013   ----------------------------------------
Label_010B10F1:
 BYTE   N05  En4  v060
 BYTE   W12
 BYTE   En4  v044
 BYTE   W36
 BYTE   An4  v060
 BYTE   W12
 BYTE   An4  v044
 BYTE   W06
 BYTE   N11  Dn4  v060
 BYTE   W12
 BYTE   N05  Dn4  v044
 BYTE   W06
 BYTE   N11  En4  v060
 BYTE   W12
 BYTE   PEND 
//  #04 //014   ----------------------------------------
Label_010B110B:
 BYTE   N05  An3  v060
 BYTE   W12
 BYTE   An3  v044
 BYTE   W36
 BYTE   Dn4  v060
 BYTE   W12
 BYTE   Dn4  v044
 BYTE   W06
 BYTE   N11  An3  v060
 BYTE   W12
 BYTE   N05  An3  v044
 BYTE   W06
 BYTE   N11  Gn3  v060
 BYTE   W12
 BYTE   PEND 
//  #04 //015   ----------------------------------------
Label_010B1125:
 BYTE   N05  An3  v060
 BYTE   W12
 BYTE   An3  v044
 BYTE   W36
 BYTE   Dn4  v060
 BYTE   W12
 BYTE   Dn4  v044
 BYTE   W06
 BYTE   N11  Gn3  v060
 BYTE   W12
 BYTE   N05  Gn3  v044
 BYTE   W06
 BYTE   N11  An3  v060
 BYTE   W12
 BYTE   PEND 
//  #04 //016   ----------------------------------------
Label_010B113F:
 BYTE   N05  En3  v060
 BYTE   W12
 BYTE   En3  v044
 BYTE   W36
 BYTE   Bn4  v060
 BYTE   W12
 BYTE   Bn4  v044
 BYTE   W06
 BYTE   N11  En4  v060
 BYTE   W12
 BYTE   N05  En4  v044
 BYTE   W06
 BYTE   N11  Dn4  v060
 BYTE   W12
 BYTE   PEND 
//  #04 //017   ----------------------------------------
 BYTE   PATT
  POIN2 Label_010B10F1
//  #04 //018   ----------------------------------------
 BYTE   PATT
  POIN2 Label_010B110B
//  #04 //019   ----------------------------------------
 BYTE   PATT
  POIN2 Label_010B1125
//  #04 //020   ----------------------------------------
 BYTE   N05  En3  v060
 BYTE   W12
 BYTE   En3  v044
 BYTE   W84
//  #04 //021   ----------------------------------------
 BYTE   W96
//  #04 //022   ----------------------------------------
 BYTE   W96
//  #04 //023   ----------------------------------------
 BYTE   W96
//  #04 //024   ----------------------------------------
 BYTE   W96
//  #04 //025   ----------------------------------------
 BYTE   W96
//  #04 //026   ----------------------------------------
 BYTE   W96
//  #04 //027   ----------------------------------------
 BYTE   W96
//  #04 //028   ----------------------------------------
 BYTE   W96
//  #04 //029   ----------------------------------------
 BYTE   W96
//  #04 //030   ----------------------------------------
 BYTE   W96
//  #04 //031   ----------------------------------------
 BYTE   W96
//  #04 //032   ----------------------------------------
 BYTE   W96
//  #04 //033   ----------------------------------------
 BYTE   W96
//  #04 //034   ----------------------------------------
 BYTE   W96
//  #04 //035   ----------------------------------------
 BYTE   W96
//  #04 //036   ----------------------------------------
 BYTE   PATT
  POIN2 Label_010B10DC
//  #04 //037   ----------------------------------------
 BYTE   PATT
  POIN2 Label_010B10F1
//  #04 //038   ----------------------------------------
 BYTE   PATT
  POIN2 Label_010B110B
//  #04 //039   ----------------------------------------
 BYTE   PATT
  POIN2 Label_010B1125
//  #04 //040   ----------------------------------------
 BYTE   PATT
  POIN2 Label_010B113F
//  #04 //041   ----------------------------------------
 BYTE   PATT
  POIN2 Label_010B10F1
//  #04 //042   ----------------------------------------
 BYTE   PATT
  POIN2 Label_010B110B
//  #04 //043   ----------------------------------------
 BYTE   PATT
  POIN2 Label_010B1125
//  #04 //044   ----------------------------------------
 BYTE   W96
//  #04 //045   ----------------------------------------
 BYTE   W96
//  #04 //046   ----------------------------------------
 BYTE   W96
//  #04 //047   ----------------------------------------
 BYTE   W96
//  #04 //048   ----------------------------------------
 BYTE   W96
//  #04 //049   ----------------------------------------
 BYTE   W96
//  #04 //050   ----------------------------------------
 BYTE   PATT
  POIN2 Label_010B10DC
//  #04 //051   ----------------------------------------
 BYTE   PATT
  POIN2 Label_010B10F1
//  #04 //052   ----------------------------------------
 BYTE   PATT
  POIN2 Label_010B110B
//  #04 //053   ----------------------------------------
Label_010B11BB:
 BYTE   N05  An3  v060
 BYTE   W12
 BYTE   An3  v044
 BYTE   W36
 BYTE   N02  Cs4  v060
 BYTE   W02
 BYTE   N04  Dn4
 BYTE   W10
 BYTE   N05  Dn4  v044
 BYTE   W06
 BYTE   N11  Gn3  v060
 BYTE   W12
 BYTE   N05  Gn3  v044
 BYTE   W06
 BYTE   N11  An3  v060
 BYTE   W12
 BYTE   PEND 
//  #04 //054   ----------------------------------------
 BYTE   PATT
  POIN2 Label_010B113F
//  #04 //055   ----------------------------------------
 BYTE   PATT
  POIN2 Label_010B10F1
//  #04 //056   ----------------------------------------
 BYTE   PATT
  POIN2 Label_010B110B
//  #04 //057   ----------------------------------------
 BYTE   PATT
  POIN2 Label_010B11BB
//  #04 //058   ----------------------------------------
 BYTE   W96
//  #04 //059   ----------------------------------------
 BYTE   W96
//  #04 //060   ----------------------------------------
 BYTE   W96
//  #04 //061   ----------------------------------------
 BYTE   W96
//  #04 //062   ----------------------------------------
 BYTE   W96
//  #04 //063   ----------------------------------------
 BYTE   W96
//  #04 //064   ----------------------------------------
 BYTE   W96
//  #04 //065   ----------------------------------------
 BYTE   W96
//  #04 //066   ----------------------------------------
 BYTE   GoTo
  POIN2 Label_010B10DC
//  #04 //067   ----------------------------------------
 BYTE   PATT
  POIN2 Label_010B10DC
//  #04 //068   ----------------------------------------
 BYTE   PATT
  POIN2 Label_010B10F1
//  #04 //069   ----------------------------------------
 BYTE   PATT
  POIN2 Label_010B110B
//  #04 //070   ----------------------------------------
 BYTE   PATT
  POIN2 Label_010B1125
//  #04 //071   ----------------------------------------
 BYTE   PATT
  POIN2 Label_010B113F
//  #04 //072   ----------------------------------------
 BYTE   PATT
  POIN2 Label_010B10F1
//  #04 //073   ----------------------------------------
 BYTE   PATT
  POIN2 Label_010B110B
//  #04 //074   ----------------------------------------
 BYTE   PATT
  POIN2 Label_010B1125
//  #04 //075   ----------------------------------------
 BYTE   N05  En3  v060
 BYTE   W12
 BYTE   En3  v044
 BYTE   W84
//  #04 //076   ----------------------------------------
 BYTE   W96
//  #04 //077   ----------------------------------------
 BYTE   W96
//  #04 //078   ----------------------------------------
 BYTE   W96
//  #04 //079   ----------------------------------------
 BYTE   W96
//  #04 //080   ----------------------------------------
 BYTE   W96
//  #04 //081   ----------------------------------------
 BYTE   W96
//  #04 //082   ----------------------------------------
 BYTE   W96
//  #04 //083   ----------------------------------------
 BYTE   W96
//  #04 //084   ----------------------------------------
 BYTE   W96
//  #04 //085   ----------------------------------------
 BYTE   W96
//  #04 //086   ----------------------------------------
 BYTE   W96
//  #04 //087   ----------------------------------------
 BYTE   W96
//  #04 //088   ----------------------------------------
 BYTE   W96
//  #04 //089   ----------------------------------------
 BYTE   W96
//  #04 //090   ----------------------------------------
 BYTE   W96
//  #04 //091   ----------------------------------------
 BYTE   PATT
  POIN2 Label_010B10DC
//  #04 //092   ----------------------------------------
 BYTE   PATT
  POIN2 Label_010B10F1
//  #04 //093   ----------------------------------------
 BYTE   PATT
  POIN2 Label_010B110B
//  #04 //094   ----------------------------------------
 BYTE   PATT
  POIN2 Label_010B1125
//  #04 //095   ----------------------------------------
 BYTE   PATT
  POIN2 Label_010B113F
//  #04 //096   ----------------------------------------
 BYTE   PATT
  POIN2 Label_010B10F1
//  #04 //097   ----------------------------------------
 BYTE   PATT
  POIN2 Label_010B110B
//  #04 //098   ----------------------------------------
 BYTE   PATT
  POIN2 Label_010B1125
//  #04 //099   ----------------------------------------
 BYTE   W96
//  #04 //100   ----------------------------------------
 BYTE   W96
//  #04 //101   ----------------------------------------
 BYTE   W96
//  #04 //102   ----------------------------------------
 BYTE   W96
//  #04 //103   ----------------------------------------
 BYTE   W96
//  #04 //104   ----------------------------------------
 BYTE   W96
//  #04 //105   ----------------------------------------
 BYTE   PATT
  POIN2 Label_010B10DC
//  #04 //106   ----------------------------------------
 BYTE   PATT
  POIN2 Label_010B10F1
//  #04 //107   ----------------------------------------
 BYTE   PATT
  POIN2 Label_010B110B
//  #04 //108   ----------------------------------------
 BYTE   PATT
  POIN2 Label_010B11BB
//  #04 //109   ----------------------------------------
 BYTE   PATT
  POIN2 Label_010B113F
//  #04 //110   ----------------------------------------
 BYTE   PATT
  POIN2 Label_010B10F1
//  #04 //111   ----------------------------------------
 BYTE   PATT
  POIN2 Label_010B110B
//  #04 //112   ----------------------------------------
 BYTE   PATT
  POIN2 Label_010B11BB
//  #04 //113   ----------------------------------------
 BYTE   W96
//  #04 //114   ----------------------------------------
 BYTE   W92
 BYTE   W03
 BYTE   FINE

//**************** Track 5 (Midi-Chn.4) ****************//

song09_005:
//  #05 //000   ----------------------------------------
 BYTE   KEYSH   song09_key+0
 BYTE   VOICE   18
 BYTE   MODT 0
 BYTE   LFOS 44
 BYTE   VOL   56*song09_mvl/mxv
 BYTE   PAN   c_v+0
 BYTE   W96
//  #05 //001   ----------------------------------------
 BYTE   W96
//  #05 //002   ----------------------------------------
 BYTE   W96
//  #05 //003   ----------------------------------------
 BYTE   W96
//  #05 //004   ----------------------------------------
 BYTE   W96
//  #05 //005   ----------------------------------------
 BYTE   W96
//  #05 //006   ----------------------------------------
 BYTE   W96
//  #05 //007   ----------------------------------------
 BYTE   W96
//  #05 //008   ----------------------------------------
 BYTE   W96
//  #05 //009   ----------------------------------------
 BYTE   W96
//  #05 //010   ----------------------------------------
 BYTE   W96
//  #05 //011   ----------------------------------------
 BYTE   W96
//  #05 //012   ----------------------------------------
Label_010B12AC:
 BYTE   W48
 BYTE   N05  Bn4  v127
 BYTE   W12
 BYTE   Bn4  v104
 BYTE   W06
 BYTE   N11  En4  v127
 BYTE   W12
 BYTE   N05  En4  v104
 BYTE   W06
 BYTE   N11  Dn4  v127
 BYTE   W12
 BYTE   PEND 
//  #05 //013   ----------------------------------------
Label_010B12C1:
 BYTE   N05  En4  v127
 BYTE   W12
 BYTE   En4  v104
 BYTE   W36
 BYTE   An4  v127
 BYTE   W12
 BYTE   An4  v104
 BYTE   W06
 BYTE   N11  Dn4  v127
 BYTE   W12
 BYTE   N05  Dn4  v104
 BYTE   W06
 BYTE   N11  En4  v127
 BYTE   W12
 BYTE   PEND 
//  #05 //014   ----------------------------------------
Label_010B12DB:
 BYTE   N05  An3  v127
 BYTE   W12
 BYTE   An3  v104
 BYTE   W36
 BYTE   Dn4  v127
 BYTE   W12
 BYTE   Dn4  v104
 BYTE   W06
 BYTE   N11  An3  v127
 BYTE   W12
 BYTE   N05  An3  v104
 BYTE   W06
 BYTE   N11  Gn3  v127
 BYTE   W12
 BYTE   PEND 
//  #05 //015   ----------------------------------------
Label_010B12F5:
 BYTE   N05  An3  v127
 BYTE   W12
 BYTE   An3  v104
 BYTE   W36
 BYTE   Dn4  v127
 BYTE   W12
 BYTE   Dn4  v104
 BYTE   W06
 BYTE   N11  Gn3  v127
 BYTE   W12
 BYTE   N05  Gn3  v104
 BYTE   W06
 BYTE   N11  An3  v127
 BYTE   W12
 BYTE   PEND 
//  #05 //016   ----------------------------------------
Label_010B130F:
 BYTE   N05  En3  v127
 BYTE   W12
 BYTE   En3  v104
 BYTE   W36
 BYTE   Bn4
 BYTE   W12
 BYTE   N05
 BYTE   W06
 BYTE   N11  En4
 BYTE   W12
 BYTE   N05
 BYTE   W06
 BYTE   N11  Dn4
 BYTE   W12
 BYTE   PEND 
//  #05 //017   ----------------------------------------
Label_010B1323:
 BYTE   N05  En4  v104
 BYTE   W12
 BYTE   N05
 BYTE   W36
 BYTE   An4  v127
 BYTE   W12
 BYTE   An4  v104
 BYTE   W06
 BYTE   N11  Dn4  v127
 BYTE   W12
 BYTE   N05  Dn4  v104
 BYTE   W06
 BYTE   N11  En4  v127
 BYTE   W12
 BYTE   PEND 
//  #05 //018   ----------------------------------------
 BYTE   PATT
  POIN2 Label_010B12DB
//  #05 //019   ----------------------------------------
 BYTE   PATT
  POIN2 Label_010B12F5
//  #05 //020   ----------------------------------------
 BYTE   N05  En3  v127
 BYTE   W12
 BYTE   En3  v104
 BYTE   W84
//  #05 //021   ----------------------------------------
 BYTE   W96
//  #05 //022   ----------------------------------------
 BYTE   W96
//  #05 //023   ----------------------------------------
 BYTE   W96
//  #05 //024   ----------------------------------------
 BYTE   W96
//  #05 //025   ----------------------------------------
 BYTE   W96
//  #05 //026   ----------------------------------------
 BYTE   W96
//  #05 //027   ----------------------------------------
 BYTE   W96
//  #05 //028   ----------------------------------------
 BYTE   W96
//  #05 //029   ----------------------------------------
 BYTE   W96
//  #05 //030   ----------------------------------------
 BYTE   W96
//  #05 //031   ----------------------------------------
 BYTE   W96
//  #05 //032   ----------------------------------------
 BYTE   W96
//  #05 //033   ----------------------------------------
 BYTE   W96
//  #05 //034   ----------------------------------------
 BYTE   W96
//  #05 //035   ----------------------------------------
 BYTE   W96
//  #05 //036   ----------------------------------------
 BYTE   PATT
  POIN2 Label_010B12AC
//  #05 //037   ----------------------------------------
 BYTE   PATT
  POIN2 Label_010B12C1
//  #05 //038   ----------------------------------------
 BYTE   PATT
  POIN2 Label_010B12DB
//  #05 //039   ----------------------------------------
 BYTE   PATT
  POIN2 Label_010B12F5
//  #05 //040   ----------------------------------------
 BYTE   PATT
  POIN2 Label_010B130F
//  #05 //041   ----------------------------------------
 BYTE   PATT
  POIN2 Label_010B1323
//  #05 //042   ----------------------------------------
 BYTE   PATT
  POIN2 Label_010B12DB
//  #05 //043   ----------------------------------------
 BYTE   PATT
  POIN2 Label_010B12F5
//  #05 //044   ----------------------------------------
 BYTE   W96
//  #05 //045   ----------------------------------------
 BYTE   W96
//  #05 //046   ----------------------------------------
 BYTE   W96
//  #05 //047   ----------------------------------------
 BYTE   W96
//  #05 //048   ----------------------------------------
 BYTE   W96
//  #05 //049   ----------------------------------------
 BYTE   W96
//  #05 //050   ----------------------------------------
 BYTE   PATT
  POIN2 Label_010B12AC
//  #05 //051   ----------------------------------------
 BYTE   PATT
  POIN2 Label_010B12C1
//  #05 //052   ----------------------------------------
 BYTE   PATT
  POIN2 Label_010B12DB
//  #05 //053   ----------------------------------------
Label_010B1399:
 BYTE   N05  An3  v127
 BYTE   W12
 BYTE   An3  v104
 BYTE   W36
 BYTE   N02  Cs4  v127
 BYTE   W02
 BYTE   N04  Dn4
 BYTE   W10
 BYTE   N05  Dn4  v104
 BYTE   W06
 BYTE   N11  Gn3  v127
 BYTE   W12
 BYTE   N05  Gn3  v104
 BYTE   W06
 BYTE   N11  An3  v127
 BYTE   W12
 BYTE   PEND 
//  #05 //054   ----------------------------------------
 BYTE   PATT
  POIN2 Label_010B130F
//  #05 //055   ----------------------------------------
 BYTE   PATT
  POIN2 Label_010B1323
//  #05 //056   ----------------------------------------
 BYTE   PATT
  POIN2 Label_010B12DB
//  #05 //057   ----------------------------------------
 BYTE   PATT
  POIN2 Label_010B1399
//  #05 //058   ----------------------------------------
 BYTE   W96
//  #05 //059   ----------------------------------------
 BYTE   W96
//  #05 //060   ----------------------------------------
 BYTE   W96
//  #05 //061   ----------------------------------------
 BYTE   W96
//  #05 //062   ----------------------------------------
 BYTE   W96
//  #05 //063   ----------------------------------------
 BYTE   W96
//  #05 //064   ----------------------------------------
 BYTE   W96
//  #05 //065   ----------------------------------------
 BYTE   W96
//  #05 //066   ----------------------------------------
 BYTE   GoTo
  POIN2 Label_010B12AC
//  #05 //067   ----------------------------------------
 BYTE   PATT
  POIN2 Label_010B12AC
//  #05 //068   ----------------------------------------
 BYTE   PATT
  POIN2 Label_010B12C1
//  #05 //069   ----------------------------------------
 BYTE   PATT
  POIN2 Label_010B12DB
//  #05 //070   ----------------------------------------
 BYTE   PATT
  POIN2 Label_010B12F5
//  #05 //071   ----------------------------------------
 BYTE   PATT
  POIN2 Label_010B130F
//  #05 //072   ----------------------------------------
 BYTE   PATT
  POIN2 Label_010B1323
//  #05 //073   ----------------------------------------
 BYTE   PATT
  POIN2 Label_010B12DB
//  #05 //074   ----------------------------------------
 BYTE   PATT
  POIN2 Label_010B12F5
//  #05 //075   ----------------------------------------
 BYTE   N05  En3  v127
 BYTE   W12
 BYTE   En3  v104
 BYTE   W84
//  #05 //076   ----------------------------------------
 BYTE   W96
//  #05 //077   ----------------------------------------
 BYTE   W96
//  #05 //078   ----------------------------------------
 BYTE   W96
//  #05 //079   ----------------------------------------
 BYTE   W96
//  #05 //080   ----------------------------------------
 BYTE   W96
//  #05 //081   ----------------------------------------
 BYTE   W96
//  #05 //082   ----------------------------------------
 BYTE   W96
//  #05 //083   ----------------------------------------
 BYTE   W96
//  #05 //084   ----------------------------------------
 BYTE   W96
//  #05 //085   ----------------------------------------
 BYTE   W96
//  #05 //086   ----------------------------------------
 BYTE   W96
//  #05 //087   ----------------------------------------
 BYTE   W96
//  #05 //088   ----------------------------------------
 BYTE   W96
//  #05 //089   ----------------------------------------
 BYTE   W96
//  #05 //090   ----------------------------------------
 BYTE   W96
//  #05 //091   ----------------------------------------
 BYTE   PATT
  POIN2 Label_010B12AC
//  #05 //092   ----------------------------------------
 BYTE   PATT
  POIN2 Label_010B12C1
//  #05 //093   ----------------------------------------
 BYTE   PATT
  POIN2 Label_010B12DB
//  #05 //094   ----------------------------------------
 BYTE   PATT
  POIN2 Label_010B12F5
//  #05 //095   ----------------------------------------
 BYTE   PATT
  POIN2 Label_010B130F
//  #05 //096   ----------------------------------------
 BYTE   PATT
  POIN2 Label_010B1323
//  #05 //097   ----------------------------------------
 BYTE   PATT
  POIN2 Label_010B12DB
//  #05 //098   ----------------------------------------
 BYTE   PATT
  POIN2 Label_010B12F5
//  #05 //099   ----------------------------------------
 BYTE   W96
//  #05 //100   ----------------------------------------
 BYTE   W96
//  #05 //101   ----------------------------------------
 BYTE   W96
//  #05 //102   ----------------------------------------
 BYTE   W96
//  #05 //103   ----------------------------------------
 BYTE   W96
//  #05 //104   ----------------------------------------
 BYTE   W96
//  #05 //105   ----------------------------------------
 BYTE   PATT
  POIN2 Label_010B12AC
//  #05 //106   ----------------------------------------
 BYTE   PATT
  POIN2 Label_010B12C1
//  #05 //107   ----------------------------------------
 BYTE   PATT
  POIN2 Label_010B12DB
//  #05 //108   ----------------------------------------
 BYTE   PATT
  POIN2 Label_010B1399
//  #05 //109   ----------------------------------------
 BYTE   PATT
  POIN2 Label_010B130F
//  #05 //110   ----------------------------------------
 BYTE   PATT
  POIN2 Label_010B1323
//  #05 //111   ----------------------------------------
 BYTE   PATT
  POIN2 Label_010B12DB
//  #05 //112   ----------------------------------------
 BYTE   PATT
  POIN2 Label_010B1399
//  #05 //113   ----------------------------------------
 BYTE   W96
//  #05 //114   ----------------------------------------
 BYTE   W92
 BYTE   W03
 BYTE   FINE

//**************** Track 6 (Midi-Chn.5) ****************//

song09_006:
//  #06 //000   ----------------------------------------
 BYTE   KEYSH   song09_key+0
 BYTE   VOICE   19
 BYTE   MODT 0
 BYTE   LFOS 44
 BYTE   VOL   29*song09_mvl/mxv
 BYTE   PAN   c_v+0
 BYTE   W96
//  #06 //001   ----------------------------------------
 BYTE   W96
//  #06 //002   ----------------------------------------
 BYTE   W96
//  #06 //003   ----------------------------------------
 BYTE   W96
//  #06 //004   ----------------------------------------
Label_010B1484:
 BYTE   N92  En2  v060
 BYTE   N92  An2
 BYTE   N92  Dn3
 BYTE   N92  En3
 BYTE   N92  An3
 BYTE   W96
 BYTE   PEND 
//  #06 //005   ----------------------------------------
Label_010B1491:
 BYTE   N92  En2  v060
 BYTE   N92  Bn2
 BYTE   N92  En3
 BYTE   N92  Gn3
 BYTE   N92  Bn3
 BYTE   W96
 BYTE   PEND 
//  #06 //006   ----------------------------------------
Label_010B149E:
 BYTE   N92  Fn2  v060
 BYTE   N92  An2
 BYTE   N92  Cn3
 BYTE   N92  Fn3
 BYTE   N92  Cn4
 BYTE   W96
 BYTE   PEND 
//  #06 //007   ----------------------------------------
Label_010B14AB:
 BYTE   N92  Gn2  v060
 BYTE   N92  Bn2
 BYTE   N92  Gn3
 BYTE   N92  Dn4
 BYTE   W96
 BYTE   PEND 
//  #06 //008   ----------------------------------------
 BYTE   PATT
  POIN2 Label_010B1484
//  #06 //009   ----------------------------------------
 BYTE   PATT
  POIN2 Label_010B1491
//  #06 //010   ----------------------------------------
 BYTE   PATT
  POIN2 Label_010B149E
//  #06 //011   ----------------------------------------
 BYTE   PATT
  POIN2 Label_010B14AB
//  #06 //012   ----------------------------------------
Label_010B14CA:
 BYTE   N92  En2  v060
 BYTE   N92  Gn2
 BYTE   N68  Bn2
 BYTE   N68  En3
 BYTE   W72
 BYTE   N23  An2
 BYTE   N23  Gn3
 BYTE   W24
 BYTE   PEND 
//  #06 //013   ----------------------------------------
Label_010B14DA:
 BYTE   N92  En2  v060
 BYTE   N68  An2
 BYTE   N68  En3
 BYTE   W72
 BYTE   N23  Bn2
 BYTE   N23  Fs3
 BYTE   N23  An3
 BYTE   W24
 BYTE   PEND 
//  #06 //014   ----------------------------------------
Label_010B14EA:
 BYTE   N92  Gn2  v060
 BYTE   N68  Cn3
 BYTE   N68  Dn3
 BYTE   N68  Gn3
 BYTE   W72
 BYTE   N23  En3
 BYTE   N23  Gn3
 BYTE   N23  Bn3
 BYTE   W24
 BYTE   PEND 
//  #06 //015   ----------------------------------------
Label_010B14FC:
 BYTE   N92  Bn2  v060
 BYTE   N44  Dn3
 BYTE   N44  Fs3
 BYTE   N44  An3
 BYTE   W48
 BYTE   Fs3
 BYTE   N44  An3
 BYTE   N44  Dn4
 BYTE   W48
 BYTE   PEND 
//  #06 //016   ----------------------------------------
 BYTE   PATT
  POIN2 Label_010B14CA
//  #06 //017   ----------------------------------------
 BYTE   PATT
  POIN2 Label_010B14DA
//  #06 //018   ----------------------------------------
 BYTE   PATT
  POIN2 Label_010B14EA
//  #06 //019   ----------------------------------------
 BYTE   PATT
  POIN2 Label_010B14FC
//  #06 //020   ----------------------------------------
Label_010B1521:
 BYTE   TIE  Dn3  v060
 BYTE   TIE  En3  v052
 BYTE   TIE  Gn3  v060
 BYTE   TIE  Bn3  v052
 BYTE   W96
 BYTE   PEND 
//  #06 //021   ----------------------------------------
 BYTE   W44
 BYTE   W03
 BYTE   EOT
 BYTE   Dn3  v064
 BYTE   Gn3  v071
 BYTE   W24
 BYTE   W01
 BYTE   N11  Bn2  v060
 BYTE   N11  Dn3  v052
 BYTE   N11  Fs3  v060
 BYTE   N11  An3  v052
 BYTE   W24
//  #06 //022   ----------------------------------------
 BYTE   PATT
  POIN2 Label_010B1521
//  #06 //023   ----------------------------------------
 BYTE   W44
 BYTE   W03
 BYTE   EOT
 BYTE   Dn3  v064
 BYTE   Gn3  v071
 BYTE   W24
 BYTE   W01
 BYTE   N11  Bn2  v060
 BYTE   N11  Dn3  v052
 BYTE   N11  Fs3  v060
 BYTE   N11  An3  v052
 BYTE   W24
//  #06 //024   ----------------------------------------
 BYTE   PATT
  POIN2 Label_010B1521
//  #06 //025   ----------------------------------------
 BYTE   W44
 BYTE   W03
 BYTE   EOT
 BYTE   Dn3  v064
 BYTE   Gn3  v071
 BYTE   W24
 BYTE   W01
 BYTE   N11  Bn2  v060
 BYTE   N11  Dn3  v052
 BYTE   N11  Fs3  v060
 BYTE   N11  An3  v052
 BYTE   W24
//  #06 //026   ----------------------------------------
 BYTE   PATT
  POIN2 Label_010B1521
//  #06 //027   ----------------------------------------
 BYTE   W44
 BYTE   W03
 BYTE   EOT
 BYTE   Dn3  v064
 BYTE   Gn3  v071
 BYTE   W24
 BYTE   W01
 BYTE   N11  Bn2  v060
 BYTE   N11  Dn3  v052
 BYTE   N11  Fs3  v060
 BYTE   N11  An3  v052
 BYTE   W24
//  #06 //028   ----------------------------------------
Label_010B1596:
 BYTE   N44  Bn2  v060
 BYTE   N44  En3  v048
 BYTE   N44  Gn3  v060
 BYTE   N44  Bn3  v052
 BYTE   W48
 BYTE   Bn2  v060
 BYTE   N44  En3  v048
 BYTE   N44  Gn3  v060
 BYTE   N44  Bn3  v052
 BYTE   W48
 BYTE   PEND 
//  #06 //029   ----------------------------------------
Label_010B15B0:
 BYTE   N44  Bn2  v060
 BYTE   N44  Dn3  v048
 BYTE   N44  Fs3  v060
 BYTE   N44  An3  v052
 BYTE   W48
 BYTE   An2  v060
 BYTE   N44  Fs3  v048
 BYTE   N44  An3  v060
 BYTE   N44  Dn4  v052
 BYTE   W48
 BYTE   PEND 
//  #06 //030   ----------------------------------------
Label_010B15CA:
 BYTE   N44  Bn2  v060
 BYTE   N44  En3  v048
 BYTE   N44  Fs3  v060
 BYTE   N44  Bn3  v052
 BYTE   W48
 BYTE   An2  v060
 BYTE   N44  An3
 BYTE   N44  Bn3  v048
 BYTE   N44  Gn4  v052
 BYTE   W48
 BYTE   PEND 
//  #06 //031   ----------------------------------------
Label_010B15E3:
 BYTE   N44  Bn2  v060
 BYTE   N44  An3  v048
 BYTE   N44  Fs4  v052
 BYTE   W48
 BYTE   Bn2  v060
 BYTE   N44  Fs3  v048
 BYTE   N44  Dn4  v052
 BYTE   W48
 BYTE   PEND 
//  #06 //032   ----------------------------------------
Label_010B15F7:
 BYTE   N44  Bn2  v060
 BYTE   N44  En3
 BYTE   N44  Gn3  v048
 BYTE   N44  Bn3  v052
 BYTE   W48
 BYTE   Bn2  v060
 BYTE   N44  En3  v048
 BYTE   N44  Gn3  v060
 BYTE   N44  Bn3  v052
 BYTE   W48
 BYTE   PEND 
//  #06 //033   ----------------------------------------
Label_010B1610:
 BYTE   N44  Bn2  v060
 BYTE   N44  Dn3
 BYTE   N44  Fs3  v048
 BYTE   N44  An3  v052
 BYTE   W48
 BYTE   An2  v060
 BYTE   N44  Fs3
 BYTE   N44  An3  v048
 BYTE   N44  Dn4  v052
 BYTE   W48
 BYTE   PEND 
//  #06 //034   ----------------------------------------
Label_010B1628:
 BYTE   N44  An2  v060
 BYTE   N44  En3  v048
 BYTE   N44  Gn3  v060
 BYTE   N44  Bn3  v052
 BYTE   W48
 BYTE   An2  v060
 BYTE   N44  Bn3  v048
 BYTE   N44  Dn4  v060
 BYTE   N44  Gn4  v052
 BYTE   W48
 BYTE   PEND 
//  #06 //035   ----------------------------------------
Label_010B1642:
 BYTE   N44  Bn2  v060
 BYTE   N44  An3  v048
 BYTE   N44  Fs4  v052
 BYTE   W48
 BYTE   Bn2  v060
 BYTE   N44  Fs3
 BYTE   N44  Dn4  v052
 BYTE   W48
 BYTE   PEND 
//  #06 //036   ----------------------------------------
 BYTE   PATT
  POIN2 Label_010B14CA
//  #06 //037   ----------------------------------------
 BYTE   PATT
  POIN2 Label_010B14DA
//  #06 //038   ----------------------------------------
 BYTE   PATT
  POIN2 Label_010B14EA
//  #06 //039   ----------------------------------------
 BYTE   PATT
  POIN2 Label_010B14FC
//  #06 //040   ----------------------------------------
 BYTE   PATT
  POIN2 Label_010B14CA
//  #06 //041   ----------------------------------------
 BYTE   PATT
  POIN2 Label_010B14DA
//  #06 //042   ----------------------------------------
 BYTE   PATT
  POIN2 Label_010B14EA
//  #06 //043   ----------------------------------------
 BYTE   PATT
  POIN2 Label_010B14FC
//  #06 //044   ----------------------------------------
 BYTE   PATT
  POIN2 Label_010B1521
//  #06 //045   ----------------------------------------
 BYTE   W44
 BYTE   W03
 BYTE   EOT
 BYTE   Dn3  v064
 BYTE   Gn3  v071
 BYTE   W24
 BYTE   W01
 BYTE   N11  Bn2  v060
 BYTE   N11  Dn3  v052
 BYTE   N11  Fs3  v060
 BYTE   N11  An3  v052
 BYTE   W24
//  #06 //046   ----------------------------------------
 BYTE   PATT
  POIN2 Label_010B1521
//  #06 //047   ----------------------------------------
 BYTE   W44
 BYTE   W03
 BYTE   EOT
 BYTE   Dn3  v064
 BYTE   Gn3  v071
 BYTE   W24
 BYTE   W01
 BYTE   N11  Bn2  v060
 BYTE   N11  Dn3  v052
 BYTE   N11  Fs3  v060
 BYTE   N11  An3  v052
 BYTE   W24
//  #06 //048   ----------------------------------------
 BYTE   PATT
  POIN2 Label_010B1521
//  #06 //049   ----------------------------------------
 BYTE   W44
 BYTE   W03
 BYTE   EOT
 BYTE   Dn3  v064
 BYTE   Gn3  v071
 BYTE   W24
 BYTE   W01
 BYTE   N11  Bn2  v060
 BYTE   N11  Dn3  v052
 BYTE   N11  Fs3  v060
 BYTE   N11  An3  v052
 BYTE   W24
//  #06 //050   ----------------------------------------
Label_010B16CE:
 BYTE   TIE  Cn3  v060
 BYTE   TIE  En3  v048
 BYTE   TIE  Gn3  v060
 BYTE   W96
 BYTE   PEND 
//  #06 //051   ----------------------------------------
 BYTE   W92
 BYTE   W03
 BYTE   EOT
 BYTE   Cn3  v064
 BYTE   Gn3
 BYTE   W01
//  #06 //052   ----------------------------------------
Label_010B16E0:
 BYTE   TIE  An2  v060
 BYTE   TIE  Dn3  v048
 BYTE   TIE  Fs3  v060
 BYTE   W96
 BYTE   PEND 
//  #06 //053   ----------------------------------------
 BYTE   W92
 BYTE   W03
 BYTE   EOT
 BYTE   An2  v062
 BYTE   Fs3
 BYTE   W01
//  #06 //054   ----------------------------------------
 BYTE   PATT
  POIN2 Label_010B16CE
//  #06 //055   ----------------------------------------
 BYTE   W92
 BYTE   W03
 BYTE   EOT
 BYTE   Cn3  v064
 BYTE   Gn3
 BYTE   W01
//  #06 //056   ----------------------------------------
 BYTE   PATT
  POIN2 Label_010B16E0
//  #06 //057   ----------------------------------------
 BYTE   W92
 BYTE   W03
 BYTE   EOT
 BYTE   An2  v062
 BYTE   Fs3
 BYTE   W01
//  #06 //058   ----------------------------------------
 BYTE   N92  Dn3  v060
 BYTE   N92  An3
 BYTE   W96
//  #06 //059   ----------------------------------------
 BYTE   W96
//  #06 //060   ----------------------------------------
 BYTE   PATT
  POIN2 Label_010B149E
//  #06 //061   ----------------------------------------
 BYTE   PATT
  POIN2 Label_010B14AB
//  #06 //062   ----------------------------------------
 BYTE   PATT
  POIN2 Label_010B1484
//  #06 //063   ----------------------------------------
 BYTE   PATT
  POIN2 Label_010B1491
//  #06 //064   ----------------------------------------
 BYTE   PATT
  POIN2 Label_010B149E
//  #06 //065   ----------------------------------------
 BYTE   PATT
  POIN2 Label_010B14AB
//  #06 //066   ----------------------------------------
 BYTE   GoTo
  POIN2 Label_010B14CA
//  #06 //067   ----------------------------------------
 BYTE   PATT
  POIN2 Label_010B14CA
//  #06 //068   ----------------------------------------
 BYTE   PATT
  POIN2 Label_010B14DA
//  #06 //069   ----------------------------------------
 BYTE   PATT
  POIN2 Label_010B14EA
//  #06 //070   ----------------------------------------
 BYTE   PATT
  POIN2 Label_010B14FC
//  #06 //071   ----------------------------------------
 BYTE   PATT
  POIN2 Label_010B14CA
//  #06 //072   ----------------------------------------
 BYTE   PATT
  POIN2 Label_010B14DA
//  #06 //073   ----------------------------------------
 BYTE   PATT
  POIN2 Label_010B14EA
//  #06 //074   ----------------------------------------
 BYTE   PATT
  POIN2 Label_010B14FC
//  #06 //075   ----------------------------------------
 BYTE   PATT
  POIN2 Label_010B1521
//  #06 //076   ----------------------------------------
 BYTE   W44
 BYTE   W03
 BYTE   EOT
 BYTE   Dn3  v064
 BYTE   Gn3  v071
 BYTE   W24
 BYTE   W01
 BYTE   N11  Bn2  v060
 BYTE   N11  Dn3  v052
 BYTE   N11  Fs3  v060
 BYTE   N11  An3  v052
 BYTE   W24
//  #06 //077   ----------------------------------------
 BYTE   PATT
  POIN2 Label_010B1521
//  #06 //078   ----------------------------------------
 BYTE   W44
 BYTE   W03
 BYTE   EOT
 BYTE   Dn3  v064
 BYTE   Gn3  v071
 BYTE   W24
 BYTE   W01
 BYTE   N11  Bn2  v060
 BYTE   N11  Dn3  v052
 BYTE   N11  Fs3  v060
 BYTE   N11  An3  v052
 BYTE   W24
//  #06 //079   ----------------------------------------
 BYTE   PATT
  POIN2 Label_010B1521
//  #06 //080   ----------------------------------------
 BYTE   W44
 BYTE   W03
 BYTE   EOT
 BYTE   Dn3  v064
 BYTE   Gn3  v071
 BYTE   W24
 BYTE   W01
 BYTE   N11  Bn2  v060
 BYTE   N11  Dn3  v052
 BYTE   N11  Fs3  v060
 BYTE   N11  An3  v052
 BYTE   W24
//  #06 //081   ----------------------------------------
 BYTE   PATT
  POIN2 Label_010B1521
//  #06 //082   ----------------------------------------
 BYTE   W44
 BYTE   W03
 BYTE   EOT
 BYTE   Dn3  v064
 BYTE   Gn3  v071
 BYTE   W24
 BYTE   W01
 BYTE   N11  Bn2  v060
 BYTE   N11  Dn3  v052
 BYTE   N11  Fs3  v060
 BYTE   N11  An3  v052
 BYTE   W24
//  #06 //083   ----------------------------------------
 BYTE   PATT
  POIN2 Label_010B1596
//  #06 //084   ----------------------------------------
 BYTE   PATT
  POIN2 Label_010B15B0
//  #06 //085   ----------------------------------------
 BYTE   PATT
  POIN2 Label_010B15CA
//  #06 //086   ----------------------------------------
 BYTE   PATT
  POIN2 Label_010B15E3
//  #06 //087   ----------------------------------------
 BYTE   PATT
  POIN2 Label_010B15F7
//  #06 //088   ----------------------------------------
 BYTE   PATT
  POIN2 Label_010B1610
//  #06 //089   ----------------------------------------
 BYTE   PATT
  POIN2 Label_010B1628
//  #06 //090   ----------------------------------------
 BYTE   PATT
  POIN2 Label_010B1642
//  #06 //091   ----------------------------------------
 BYTE   PATT
  POIN2 Label_010B14CA
//  #06 //092   ----------------------------------------
 BYTE   PATT
  POIN2 Label_010B14DA
//  #06 //093   ----------------------------------------
 BYTE   PATT
  POIN2 Label_010B14EA
//  #06 //094   ----------------------------------------
 BYTE   PATT
  POIN2 Label_010B14FC
//  #06 //095   ----------------------------------------
 BYTE   PATT
  POIN2 Label_010B14CA
//  #06 //096   ----------------------------------------
 BYTE   PATT
  POIN2 Label_010B14DA
//  #06 //097   ----------------------------------------
 BYTE   PATT
  POIN2 Label_010B14EA
//  #06 //098   ----------------------------------------
 BYTE   PATT
  POIN2 Label_010B14FC
//  #06 //099   ----------------------------------------
 BYTE   PATT
  POIN2 Label_010B1521
//  #06 //100   ----------------------------------------
 BYTE   W44
 BYTE   W03
 BYTE   EOT
 BYTE   Dn3  v064
 BYTE   Gn3  v071
 BYTE   W24
 BYTE   W01
 BYTE   N11  Bn2  v060
 BYTE   N11  Dn3  v052
 BYTE   N11  Fs3  v060
 BYTE   N11  An3  v052
 BYTE   W24
//  #06 //101   ----------------------------------------
 BYTE   PATT
  POIN2 Label_010B1521
//  #06 //102   ----------------------------------------
 BYTE   W44
 BYTE   W03
 BYTE   EOT
 BYTE   Dn3  v064
 BYTE   Gn3  v071
 BYTE   W24
 BYTE   W01
 BYTE   N11  Bn2  v060
 BYTE   N11  Dn3  v052
 BYTE   N11  Fs3  v060
 BYTE   N11  An3  v052
 BYTE   W24
//  #06 //103   ----------------------------------------
 BYTE   PATT
  POIN2 Label_010B1521
//  #06 //104   ----------------------------------------
 BYTE   W44
 BYTE   W03
 BYTE   EOT
 BYTE   Dn3  v064
 BYTE   Gn3  v071
 BYTE   W24
 BYTE   W01
 BYTE   N11  Bn2  v060
 BYTE   N11  Dn3  v052
 BYTE   N11  Fs3  v060
 BYTE   N11  An3  v052
 BYTE   W24
//  #06 //105   ----------------------------------------
 BYTE   PATT
  POIN2 Label_010B16CE
//  #06 //106   ----------------------------------------
 BYTE   W92
 BYTE   W03
 BYTE   EOT
 BYTE   Cn3  v064
 BYTE   Gn3
 BYTE   W01
//  #06 //107   ----------------------------------------
 BYTE   PATT
  POIN2 Label_010B16E0
//  #06 //108   ----------------------------------------
 BYTE   W92
 BYTE   W03
 BYTE   EOT
 BYTE   An2  v062
 BYTE   Fs3
 BYTE   W01
//  #06 //109   ----------------------------------------
 BYTE   PATT
  POIN2 Label_010B16CE
//  #06 //110   ----------------------------------------
 BYTE   W92
 BYTE   W03
 BYTE   EOT
 BYTE   Cn3  v064
 BYTE   Gn3
 BYTE   W01
//  #06 //111   ----------------------------------------
 BYTE   PATT
  POIN2 Label_010B16E0
//  #06 //112   ----------------------------------------
 BYTE   W92
 BYTE   W03
 BYTE   EOT
 BYTE   An2  v062
 BYTE   Fs3
 BYTE   W01
//  #06 //113   ----------------------------------------
 BYTE   N92  Dn3  v060
 BYTE   N92  An3
 BYTE   W96
//  #06 //114   ----------------------------------------
 BYTE   W92
 BYTE   W03
 BYTE   FINE

//**************** Track 7 (Midi-Chn.6) ****************//

song09_007:
//  #07 //000   ----------------------------------------
 BYTE   KEYSH   song09_key+0
 BYTE   VOICE   52
 BYTE   MODT 0
 BYTE   LFOS 44
 BYTE   VOL   29*song09_mvl/mxv
 BYTE   PAN   c_v+0
 BYTE   TIE  An1  v080
 BYTE   W96
//  #07 //001   ----------------------------------------
 BYTE   W92
 BYTE   W03
 BYTE   EOT
 BYTE   W01
//  #07 //002   ----------------------------------------
 BYTE   TIE
 BYTE   W96
//  #07 //003   ----------------------------------------
 BYTE   W92
 BYTE   W03
 BYTE   EOT
 BYTE   W01
//  #07 //004   ----------------------------------------
 BYTE   TIE
 BYTE   W96
//  #07 //005   ----------------------------------------
 BYTE   W92
 BYTE   W03
 BYTE   EOT
 BYTE   W01
//  #07 //006   ----------------------------------------
 BYTE   TIE
 BYTE   W96
//  #07 //007   ----------------------------------------
 BYTE   W92
 BYTE   W03
 BYTE   EOT
 BYTE   W01
//  #07 //008   ----------------------------------------
 BYTE   TIE
 BYTE   W96
//  #07 //009   ----------------------------------------
 BYTE   W92
 BYTE   W03
 BYTE   EOT
 BYTE   W01
//  #07 //010   ----------------------------------------
 BYTE   TIE
 BYTE   W96
//  #07 //011   ----------------------------------------
 BYTE   W92
 BYTE   W03
 BYTE   EOT
 BYTE   W01
//  #07 //012   ----------------------------------------
Label_010A7D96:
 BYTE   N92  An1  v080
 BYTE   W96
//  #07 //013   ----------------------------------------
 BYTE   Bn1
 BYTE   W96
//  #07 //014   ----------------------------------------
 BYTE   Cn2
 BYTE   W96
//  #07 //015   ----------------------------------------
 BYTE   Dn2
 BYTE   W96
//  #07 //016   ----------------------------------------
 BYTE   An1
 BYTE   W96
//  #07 //017   ----------------------------------------
 BYTE   Bn1
 BYTE   W96
//  #07 //018   ----------------------------------------
 BYTE   Cn2
 BYTE   W96
//  #07 //019   ----------------------------------------
 BYTE   Dn2
 BYTE   W96
//  #07 //020   ----------------------------------------
 BYTE   TIE  An1
 BYTE   W96
//  #07 //021   ----------------------------------------
 BYTE   W92
 BYTE   W03
 BYTE   EOT
 BYTE   W01
//  #07 //022   ----------------------------------------
 BYTE   TIE
 BYTE   W96
//  #07 //023   ----------------------------------------
 BYTE   W92
 BYTE   W03
 BYTE   EOT
 BYTE   W01
//  #07 //024   ----------------------------------------
 BYTE   TIE
 BYTE   W96
//  #07 //025   ----------------------------------------
 BYTE   W92
 BYTE   W03
 BYTE   EOT
 BYTE   W01
//  #07 //026   ----------------------------------------
 BYTE   TIE
 BYTE   W96
//  #07 //027   ----------------------------------------
 BYTE   W92
 BYTE   W03
 BYTE   EOT
 BYTE   W01
//  #07 //028   ----------------------------------------
 BYTE   N92  Cn2
 BYTE   W96
//  #07 //029   ----------------------------------------
 BYTE   Dn2
 BYTE   W96
//  #07 //030   ----------------------------------------
 BYTE   En2
 BYTE   W96
//  #07 //031   ----------------------------------------
 BYTE   Dn2
 BYTE   W96
//  #07 //032   ----------------------------------------
 BYTE   Cn2
 BYTE   W96
//  #07 //033   ----------------------------------------
 BYTE   Dn2
 BYTE   W96
//  #07 //034   ----------------------------------------
 BYTE   En2
 BYTE   W96
//  #07 //035   ----------------------------------------
 BYTE   Dn2
 BYTE   W96
//  #07 //036   ----------------------------------------
 BYTE   An1
 BYTE   W96
//  #07 //037   ----------------------------------------
 BYTE   Bn1
 BYTE   W96
//  #07 //038   ----------------------------------------
 BYTE   Cn2
 BYTE   W96
//  #07 //039   ----------------------------------------
 BYTE   Dn2
 BYTE   W96
//  #07 //040   ----------------------------------------
 BYTE   An1
 BYTE   W96
//  #07 //041   ----------------------------------------
 BYTE   Bn1
 BYTE   W96
//  #07 //042   ----------------------------------------
 BYTE   Cn2
 BYTE   W96
//  #07 //043   ----------------------------------------
 BYTE   Dn2
 BYTE   W96
//  #07 //044   ----------------------------------------
 BYTE   TIE  An1
 BYTE   W96
//  #07 //045   ----------------------------------------
 BYTE   W92
 BYTE   W03
 BYTE   EOT
 BYTE   W01
//  #07 //046   ----------------------------------------
 BYTE   TIE
 BYTE   W96
//  #07 //047   ----------------------------------------
 BYTE   W92
 BYTE   W03
 BYTE   EOT
 BYTE   W01
//  #07 //048   ----------------------------------------
 BYTE   TIE
 BYTE   W96
//  #07 //049   ----------------------------------------
 BYTE   W92
 BYTE   W03
 BYTE   EOT
 BYTE   W01
//  #07 //050   ----------------------------------------
 BYTE   TIE  Fn1
 BYTE   W96
//  #07 //051   ----------------------------------------
 BYTE   W92
 BYTE   W03
 BYTE   EOT
 BYTE   W01
//  #07 //052   ----------------------------------------
 BYTE   TIE  Gn1
 BYTE   W96
//  #07 //053   ----------------------------------------
 BYTE   W92
 BYTE   W03
 BYTE   EOT
 BYTE   W01
//  #07 //054   ----------------------------------------
 BYTE   TIE  Fn1
 BYTE   W96
//  #07 //055   ----------------------------------------
 BYTE   W92
 BYTE   W03
 BYTE   EOT
 BYTE   W01
//  #07 //056   ----------------------------------------
 BYTE   TIE  Gn1
 BYTE   W96
//  #07 //057   ----------------------------------------
 BYTE   W92
 BYTE   W03
 BYTE   EOT
 BYTE   W01
//  #07 //058   ----------------------------------------
 BYTE   N92  An1
 BYTE   W96
//  #07 //059   ----------------------------------------
 BYTE   N92
 BYTE   W96
//  #07 //060   ----------------------------------------
 BYTE   TIE
 BYTE   W96
//  #07 //061   ----------------------------------------
 BYTE   W92
 BYTE   W03
 BYTE   EOT
 BYTE   W01
//  #07 //062   ----------------------------------------
 BYTE   TIE
 BYTE   W96
//  #07 //063   ----------------------------------------
 BYTE   W92
 BYTE   W03
 BYTE   EOT
 BYTE   W01
//  #07 //064   ----------------------------------------
 BYTE   TIE
 BYTE   W96
//  #07 //065   ----------------------------------------
 BYTE   W92
 BYTE   W03
 BYTE   EOT
 BYTE   W01
//  #07 //066   ----------------------------------------
 BYTE   GoTo
  POIN2 Label_010A7D96
//  #07 //067   ----------------------------------------
 BYTE   N92  An1  v080
 BYTE   W96
//  #07 //068   ----------------------------------------
 BYTE   Bn1
 BYTE   W96
//  #07 //069   ----------------------------------------
 BYTE   Cn2
 BYTE   W96
//  #07 //070   ----------------------------------------
 BYTE   Dn2
 BYTE   W96
//  #07 //071   ----------------------------------------
 BYTE   An1
 BYTE   W96
//  #07 //072   ----------------------------------------
 BYTE   Bn1
 BYTE   W96
//  #07 //073   ----------------------------------------
 BYTE   Cn2
 BYTE   W96
//  #07 //074   ----------------------------------------
 BYTE   Dn2
 BYTE   W96
//  #07 //075   ----------------------------------------
 BYTE   TIE  An1
 BYTE   W96
//  #07 //076   ----------------------------------------
 BYTE   W92
 BYTE   W03
 BYTE   EOT
 BYTE   W01
//  #07 //077   ----------------------------------------
 BYTE   TIE
 BYTE   W96
//  #07 //078   ----------------------------------------
 BYTE   W92
 BYTE   W03
 BYTE   EOT
 BYTE   W01
//  #07 //079   ----------------------------------------
 BYTE   TIE
 BYTE   W96
//  #07 //080   ----------------------------------------
 BYTE   W92
 BYTE   W03
 BYTE   EOT
 BYTE   W01
//  #07 //081   ----------------------------------------
 BYTE   TIE
 BYTE   W96
//  #07 //082   ----------------------------------------
 BYTE   W92
 BYTE   W03
 BYTE   EOT
 BYTE   W01
//  #07 //083   ----------------------------------------
 BYTE   N92  Cn2
 BYTE   W96
//  #07 //084   ----------------------------------------
 BYTE   Dn2
 BYTE   W96
//  #07 //085   ----------------------------------------
 BYTE   En2
 BYTE   W96
//  #07 //086   ----------------------------------------
 BYTE   Dn2
 BYTE   W96
//  #07 //087   ----------------------------------------
 BYTE   Cn2
 BYTE   W96
//  #07 //088   ----------------------------------------
 BYTE   Dn2
 BYTE   W96
//  #07 //089   ----------------------------------------
 BYTE   En2
 BYTE   W96
//  #07 //090   ----------------------------------------
 BYTE   Dn2
 BYTE   W96
//  #07 //091   ----------------------------------------
 BYTE   An1
 BYTE   W96
//  #07 //092   ----------------------------------------
 BYTE   Bn1
 BYTE   W96
//  #07 //093   ----------------------------------------
 BYTE   Cn2
 BYTE   W96
//  #07 //094   ----------------------------------------
 BYTE   Dn2
 BYTE   W96
//  #07 //095   ----------------------------------------
 BYTE   An1
 BYTE   W96
//  #07 //096   ----------------------------------------
 BYTE   Bn1
 BYTE   W96
//  #07 //097   ----------------------------------------
 BYTE   Cn2
 BYTE   W96
//  #07 //098   ----------------------------------------
 BYTE   Dn2
 BYTE   W96
//  #07 //099   ----------------------------------------
 BYTE   TIE  An1
 BYTE   W96
//  #07 //100   ----------------------------------------
 BYTE   W92
 BYTE   W03
 BYTE   EOT
 BYTE   W01
//  #07 //101   ----------------------------------------
 BYTE   TIE
 BYTE   W96
//  #07 //102   ----------------------------------------
 BYTE   W92
 BYTE   W03
 BYTE   EOT
 BYTE   W01
//  #07 //103   ----------------------------------------
 BYTE   TIE
 BYTE   W96
//  #07 //104   ----------------------------------------
 BYTE   W92
 BYTE   W03
 BYTE   EOT
 BYTE   W01
//  #07 //105   ----------------------------------------
 BYTE   TIE  Fn1
 BYTE   W96
//  #07 //106   ----------------------------------------
 BYTE   W92
 BYTE   W03
 BYTE   EOT
 BYTE   W01
//  #07 //107   ----------------------------------------
 BYTE   TIE  Gn1
 BYTE   W96
//  #07 //108   ----------------------------------------
 BYTE   W92
 BYTE   W03
 BYTE   EOT
 BYTE   W01
//  #07 //109   ----------------------------------------
 BYTE   TIE  Fn1
 BYTE   W96
//  #07 //110   ----------------------------------------
 BYTE   W92
 BYTE   W03
 BYTE   EOT
 BYTE   W01
//  #07 //111   ----------------------------------------
 BYTE   TIE  Gn1
 BYTE   W96
//  #07 //112   ----------------------------------------
 BYTE   W92
 BYTE   W03
 BYTE   EOT
 BYTE   W01
//  #07 //113   ----------------------------------------
 BYTE   N92  An1
 BYTE   W96
//  #07 //114   ----------------------------------------
 BYTE   N92
 BYTE   W92
 BYTE   W03
 BYTE   FINE

//**************** Track 8 (Midi-Chn.7) ****************//

song09_008:
//  #08 //000   ----------------------------------------
 BYTE   KEYSH   song09_key+0
 BYTE   VOICE   122
 BYTE   MODT 0
 BYTE   LFOS 44
 BYTE   VOL   29*song09_mvl/mxv
 BYTE   PAN   c_v+0
 BYTE   VOL   29*song09_mvl/mxv
 BYTE   PAN   c_v+0
 BYTE   VOL   29*song09_mvl/mxv
 BYTE   PAN   c_v+0
 BYTE   VOL   29*song09_mvl/mxv
 BYTE   PAN   c_v+0
 BYTE   VOL   29*song09_mvl/mxv
 BYTE   PAN   c_v+0
 BYTE   VOL   29*song09_mvl/mxv
 BYTE   PAN   c_v+0
 BYTE   VOL   29*song09_mvl/mxv
 BYTE   PAN   c_v+0
 BYTE   VOL   29*song09_mvl/mxv
 BYTE   PAN   c_v+0
 BYTE   N17  Cn1  v127
 BYTE   N05  Fs1  v080
 BYTE   W06
 BYTE   Cs1  v060
 BYTE   W06
 BYTE   N05
 BYTE   W06
 BYTE   N17  Cn1  v127
 BYTE   N05  Cs1  v060
 BYTE   W06
 BYTE   Cs1  v080
 BYTE   W06
 BYTE   Cs1  v060
 BYTE   W06
 BYTE   N56  Cn1  v127
 BYTE   N05  Cs1  v080
 BYTE   W06
 BYTE   Cs1  v060
 BYTE   W06
 BYTE   Cs1  v080
 BYTE   W06
 BYTE   Cs1  v060
 BYTE   W06
 BYTE   Cs1  v080
 BYTE   W06
 BYTE   Cs1  v060
 BYTE   W06
 BYTE   Cs1  v080
 BYTE   W06
 BYTE   Cs1  v060
 BYTE   W06
 BYTE   Cs1  v080
 BYTE   W06
 BYTE   Cs1  v060
 BYTE   W06
//  #08 //001   ----------------------------------------
Label_010B1907:
 BYTE   N05  Cs1  v080
 BYTE   W06
 BYTE   Cs1  v060
 BYTE   W06
 BYTE   N05
 BYTE   W06
 BYTE   N05
 BYTE   W06
 BYTE   Cs1  v080
 BYTE   W06
 BYTE   Cs1  v060
 BYTE   W06
 BYTE   Cs1  v080
 BYTE   W06
 BYTE   Cs1  v060
 BYTE   W06
 BYTE   Cs1  v080
 BYTE   W06
 BYTE   Cs1  v060
 BYTE   W06
 BYTE   Cs1  v080
 BYTE   W06
 BYTE   Cs1  v060
 BYTE   W06
 BYTE   Cs1  v080
 BYTE   W06
 BYTE   Cs1  v060
 BYTE   W06
 BYTE   N11
 BYTE   W12
 BYTE   PEND 
//  #08 //002   ----------------------------------------
 BYTE   N17  Cn1  v127
 BYTE   N05  Cs1  v080
 BYTE   W06
 BYTE   Cs1  v060
 BYTE   W06
 BYTE   N05
 BYTE   W06
 BYTE   N17  Cn1  v127
 BYTE   N05  Cs1  v060
 BYTE   W06
 BYTE   Cs1  v080
 BYTE   W06
 BYTE   Cs1  v060
 BYTE   W06
 BYTE   N56  Cn1  v127
 BYTE   N05  Cs1  v080
 BYTE   W06
 BYTE   Cs1  v060
 BYTE   W06
 BYTE   Cs1  v080
 BYTE   W06
 BYTE   Cs1  v060
 BYTE   W06
 BYTE   Cs1  v080
 BYTE   W06
 BYTE   Cs1  v060
 BYTE   W06
 BYTE   Cs1  v080
 BYTE   W06
 BYTE   Cs1  v060
 BYTE   W06
 BYTE   Cs1  v080
 BYTE   W06
 BYTE   Cs1  v060
 BYTE   W06
//  #08 //003   ----------------------------------------
 BYTE   PATT
  POIN2 Label_010B1907
//  #08 //004   ----------------------------------------
Label_010B1973:
 BYTE   N17  Cn1  v127
 BYTE   N05  Cs1  v080
 BYTE   N11  Cs3  v127
 BYTE   W06
 BYTE   N05  Cs1  v060
 BYTE   W06
 BYTE   N05
 BYTE   N11  Cn3  v127
 BYTE   W06
 BYTE   N17  Cn1
 BYTE   N05  Cs1  v060
 BYTE   W06
 BYTE   Cs1  v080
 BYTE   W06
 BYTE   Cs1  v060
 BYTE   N05  Cn3  v127
 BYTE   W06
 BYTE   N44  Cn1
 BYTE   N05  Cs1  v080
 BYTE   N05  Cs3  v127
 BYTE   W06
 BYTE   Cs1  v060
 BYTE   N05  Cn3  v127
 BYTE   W06
 BYTE   Cs1  v080
 BYTE   W06
 BYTE   Cs1  v060
 BYTE   W06
 BYTE   Cs1  v080
 BYTE   N05  Cs3  v127
 BYTE   W06
 BYTE   Cs1  v060
 BYTE   N05  Cn3  v127
 BYTE   W06
 BYTE   Cs1  v080
 BYTE   N23  Ds1  v104
 BYTE   N23  En2
 BYTE   N23  Bn2
 BYTE   W06
 BYTE   N05  Cs1  v060
 BYTE   W06
 BYTE   Cs1  v080
 BYTE   W06
 BYTE   N02  Cn1  v127
 BYTE   N05  Cs1  v060
 BYTE   N05  Cn3  v127
 BYTE   W03
 BYTE   N02  Cn1
 BYTE   W03
 BYTE   PEND 
//  #08 //005   ----------------------------------------
Label_010B19D5:
 BYTE   N17  Cn1  v127
 BYTE   N05  Cs1  v080
 BYTE   N11  Cs3  v127
 BYTE   W06
 BYTE   N05  Cs1  v060
 BYTE   W06
 BYTE   N05
 BYTE   N05  Cs3  v127
 BYTE   W06
 BYTE   N17  Cn1
 BYTE   N05  Cs1  v060
 BYTE   N05  Cn3  v127
 BYTE   W06
 BYTE   Cs1  v080
 BYTE   N05  Cn3  v127
 BYTE   W06
 BYTE   Cs1  v060
 BYTE   N05  Cs3  v127
 BYTE   W06
 BYTE   N56  Cn1
 BYTE   N05  Cs1  v080
 BYTE   W06
 BYTE   Cs1  v060
 BYTE   N05  Cn3  v127
 BYTE   W06
 BYTE   Cs1  v080
 BYTE   W06
 BYTE   Cs1  v060
 BYTE   N05  Cn3  v127
 BYTE   W06
 BYTE   Cs1  v080
 BYTE   N11  En1  v060
 BYTE   N05  Cn3  v127
 BYTE   W06
 BYTE   Cs1  v060
 BYTE   N05  Cn3  v127
 BYTE   W06
 BYTE   Cs1  v080
 BYTE   N23  Bn2  v104
 BYTE   W06
 BYTE   N05  Cs1  v060
 BYTE   W06
 BYTE   N11
 BYTE   N11  Cn3  v127
 BYTE   W12
 BYTE   PEND 
//  #08 //006   ----------------------------------------
Label_010B1A31:
 BYTE   N17  Cn1  v127
 BYTE   N05  Cs1  v080
 BYTE   N11  Cs3  v127
 BYTE   W06
 BYTE   N05  Cs1  v060
 BYTE   W06
 BYTE   N05
 BYTE   N11  Cn3  v127
 BYTE   W06
 BYTE   N17  Cn1
 BYTE   N05  Cs1  v060
 BYTE   W06
 BYTE   Cs1  v080
 BYTE   N05  Cn3  v127
 BYTE   W06
 BYTE   Cs1  v060
 BYTE   N05  Cn3  v127
 BYTE   W06
 BYTE   N44  Cn1
 BYTE   N05  Cs1  v080
 BYTE   N05  Cs3  v127
 BYTE   W06
 BYTE   Cs1  v060
 BYTE   N05  Cn3  v127
 BYTE   W06
 BYTE   Cs1  v080
 BYTE   W06
 BYTE   Cs1  v060
 BYTE   W06
 BYTE   Cs1  v080
 BYTE   N05  Cs3  v127
 BYTE   W06
 BYTE   Cs1  v060
 BYTE   N05  Cn3  v127
 BYTE   W06
 BYTE   Cs1  v080
 BYTE   N23  Ds1  v104
 BYTE   N23  En2
 BYTE   N23  Bn2
 BYTE   N11  Cn3  v127
 BYTE   W06
 BYTE   N05  Cs1  v060
 BYTE   W06
 BYTE   Cs1  v080
 BYTE   N05  Cn3  v127
 BYTE   W06
 BYTE   N02  Cn1
 BYTE   N05  Cs1  v060
 BYTE   N05  Cs3  v127
 BYTE   W03
 BYTE   N02  Cn1
 BYTE   W03
 BYTE   PEND 
//  #08 //007   ----------------------------------------
Label_010B1A9B:
 BYTE   N17  Cn1  v127
 BYTE   N05  Cs1  v080
 BYTE   N11  Cs3  v127
 BYTE   W06
 BYTE   N05  Cs1  v060
 BYTE   W06
 BYTE   N05
 BYTE   N05  Cs3  v127
 BYTE   W06
 BYTE   N17  Cn1
 BYTE   N05  Cs1  v060
 BYTE   N05  Cn3  v127
 BYTE   W06
 BYTE   Cs1  v080
 BYTE   N05  Cn3  v127
 BYTE   W06
 BYTE   Cs1  v060
 BYTE   N05  Cs3  v127
 BYTE   W06
 BYTE   N56  Cn1
 BYTE   N05  Cs1  v080
 BYTE   W06
 BYTE   Cs1  v060
 BYTE   N05  Cn3  v127
 BYTE   W06
 BYTE   Cs1  v080
 BYTE   W06
 BYTE   Cs1  v060
 BYTE   N05  Cn3  v127
 BYTE   W06
 BYTE   Cs1  v080
 BYTE   N11  En1  v060
 BYTE   N05  Cn3  v127
 BYTE   W06
 BYTE   Cs1  v060
 BYTE   N05  Cs3  v127
 BYTE   W06
 BYTE   Cs1  v080
 BYTE   N11  Dn1  v104
 BYTE   N11  Ds1
 BYTE   N23  Bn2
 BYTE   N11  Cn3  v127
 BYTE   W06
 BYTE   N05  Cs1  v060
 BYTE   W06
 BYTE   N11
 BYTE   N11  Dn1  v104
 BYTE   N11  Ds1
 BYTE   N11  Cn3  v127
 BYTE   W12
 BYTE   PEND 
//  #08 //008   ----------------------------------------
 BYTE   PATT
  POIN2 Label_010B1973
//  #08 //009   ----------------------------------------
 BYTE   PATT
  POIN2 Label_010B19D5
//  #08 //010   ----------------------------------------
 BYTE   PATT
  POIN2 Label_010B1A31
//  #08 //011   ----------------------------------------
Label_010B1B12:
 BYTE   N17  Cn1  v127
 BYTE   N05  Cs1  v080
 BYTE   N11  Cs3  v127
 BYTE   W06
 BYTE   N05  Cs1  v060
 BYTE   W06
 BYTE   N05
 BYTE   N05  Cs3  v127
 BYTE   W06
 BYTE   N17  Cn1
 BYTE   N05  Cs1  v060
 BYTE   N05  Cn3  v127
 BYTE   W06
 BYTE   Cs1  v080
 BYTE   N05  Cn3  v127
 BYTE   W06
 BYTE   Cs1  v060
 BYTE   N05  Cs3  v127
 BYTE   W06
 BYTE   N56  Cn1
 BYTE   N05  Cs1  v080
 BYTE   W06
 BYTE   Cs1  v060
 BYTE   N05  Cn3  v127
 BYTE   W06
 BYTE   Cs1  v080
 BYTE   W06
 BYTE   Cs1  v060
 BYTE   N05  Cn3  v127
 BYTE   W06
 BYTE   Cs1  v080
 BYTE   N11  Dn1  v104
 BYTE   N11  Ds1
 BYTE   N05  Cn3  v127
 BYTE   W06
 BYTE   Cs1  v060
 BYTE   N05  Cs3  v127
 BYTE   W06
 BYTE   Cs1  v080
 BYTE   N23  Bn2  v104
 BYTE   N11  Cn3  v127
 BYTE   W06
 BYTE   N05  Cs1  v060
 BYTE   W06
 BYTE   N11
 BYTE   N11  Dn1  v104
 BYTE   N11  Ds1
 BYTE   N11  Cn3  v127
 BYTE   W12
 BYTE   PEND 
//  #08 //012   ----------------------------------------
Label_010B1B78:
//  #08 //013   ----------------------------------------
 BYTE   PATT
  POIN2 Label_010B1973
//  #08 //014   ----------------------------------------
 BYTE   PATT
  POIN2 Label_010B19D5
//  #08 //015   ----------------------------------------
 BYTE   PATT
  POIN2 Label_010B1A31
//  #08 //016   ----------------------------------------
Label_010B1B87:
 BYTE   N17  Cn1  v127
 BYTE   N05  Cs1  v080
 BYTE   N11  Cs3  v127
 BYTE   W06
 BYTE   N05  Cs1  v060
 BYTE   W06
 BYTE   N05
 BYTE   N05  Cs3  v127
 BYTE   W06
 BYTE   N17  Cn1
 BYTE   N05  Cs1  v060
 BYTE   N05  Cn3  v127
 BYTE   W06
 BYTE   Cs1  v080
 BYTE   N05  Cn3  v127
 BYTE   W06
 BYTE   Cs1  v060
 BYTE   N05  Cs3  v127
 BYTE   W06
 BYTE   N56  Cn1
 BYTE   N05  Cs1  v080
 BYTE   W06
 BYTE   Cs1  v060
 BYTE   N05  Cn3  v127
 BYTE   W06
 BYTE   Cs1  v080
 BYTE   W06
 BYTE   Cs1  v060
 BYTE   N05  Cn3  v127
 BYTE   W06
 BYTE   Cs1  v080
 BYTE   N11  En1  v060
 BYTE   N05  Cn3  v127
 BYTE   W06
 BYTE   Cs1  v060
 BYTE   N05  Cs3  v127
 BYTE   W06
 BYTE   Cs1  v080
 BYTE   N23  Bn2  v104
 BYTE   N11  Cn3  v127
 BYTE   W06
 BYTE   N05  Cs1  v060
 BYTE   W06
 BYTE   N11
 BYTE   N11  Cn3  v127
 BYTE   W12
 BYTE   PEND 
//  #08 //017   ----------------------------------------
 BYTE   PATT
  POIN2 Label_010B1973
//  #08 //018   ----------------------------------------
 BYTE   PATT
  POIN2 Label_010B19D5
//  #08 //019   ----------------------------------------
 BYTE   PATT
  POIN2 Label_010B1A31
//  #08 //020   ----------------------------------------
Label_010B1BF5:
 BYTE   N17  Cn1  v127
 BYTE   N05  Cs1  v080
 BYTE   N11  Cs3  v127
 BYTE   W06
 BYTE   N05  Cs1  v060
 BYTE   W06
 BYTE   N05
 BYTE   N05  Cs3  v127
 BYTE   W06
 BYTE   N17  Cn1
 BYTE   N05  Cs1  v060
 BYTE   N05  Cn3  v127
 BYTE   W06
 BYTE   Cs1  v080
 BYTE   N05  Cn3  v127
 BYTE   W06
 BYTE   Cs1  v060
 BYTE   N05  Cs3  v127
 BYTE   W06
 BYTE   N56  Cn1
 BYTE   N05  Cs1  v080
 BYTE   W06
 BYTE   Cs1  v060
 BYTE   N05  Cn3  v127
 BYTE   W06
 BYTE   Cs1  v080
 BYTE   W06
 BYTE   Cs1  v060
 BYTE   N05  Cn3  v127
 BYTE   W06
 BYTE   Cs1  v080
 BYTE   N11  En1  v060
 BYTE   N05  Cn3  v127
 BYTE   W06
 BYTE   Cs1  v060
 BYTE   N05  Cs3  v127
 BYTE   W06
 BYTE   Cs1  v080
 BYTE   N23  Bn2  v104
 BYTE   N11  Cn3  v127
 BYTE   W06
 BYTE   N05  Cs1  v060
 BYTE   W06
 BYTE   N11
 BYTE   N11  Dn1  v104
 BYTE   N11  Ds1
 BYTE   N11  Cn3  v127
 BYTE   W12
 BYTE   PEND 
//  #08 //021   ----------------------------------------
 BYTE   PATT
  POIN2 Label_010B1973
//  #08 //022   ----------------------------------------
 BYTE   PATT
  POIN2 Label_010B19D5
//  #08 //023   ----------------------------------------
 BYTE   PATT
  POIN2 Label_010B1A31
//  #08 //024   ----------------------------------------
 BYTE   PATT
  POIN2 Label_010B1B87
//  #08 //025   ----------------------------------------
 BYTE   PATT
  POIN2 Label_010B1973
//  #08 //026   ----------------------------------------
 BYTE   PATT
  POIN2 Label_010B19D5
//  #08 //027   ----------------------------------------
 BYTE   PATT
  POIN2 Label_010B1A31
//  #08 //028   ----------------------------------------
 BYTE   PATT
  POIN2 Label_010B1B12
//  #08 //029   ----------------------------------------
Label_010B1C81:
 BYTE   N17  Cn1  v127
 BYTE   N05  Cs1  v080
 BYTE   N11  Cs3  v127
 BYTE   W06
 BYTE   N05  Cs1  v060
 BYTE   W06
 BYTE   N05
 BYTE   N11  Cn3  v127
 BYTE   W06
 BYTE   N17  Cn1
 BYTE   N05  Cs1  v060
 BYTE   W06
 BYTE   Cs1  v080
 BYTE   W06
 BYTE   Cs1  v060
 BYTE   N05  Cn3  v127
 BYTE   W06
 BYTE   N44  Cn1
 BYTE   N05  Cs1  v080
 BYTE   N05  Cs3  v127
 BYTE   W06
 BYTE   Cs1  v060
 BYTE   N05  Cn3  v127
 BYTE   W06
 BYTE   Cs1  v080
 BYTE   W06
 BYTE   Cs1  v060
 BYTE   W06
 BYTE   Cs1  v080
 BYTE   N05  Cs3  v127
 BYTE   W06
 BYTE   Cs1  v060
 BYTE   N05  Cn3  v127
 BYTE   W06
 BYTE   Cs1  v080
 BYTE   N23  Ds1  v104
 BYTE   N23  Bn2
 BYTE   W06
 BYTE   N05  Cs1  v060
 BYTE   W06
 BYTE   Cs1  v080
 BYTE   W06
 BYTE   N02  Cn1  v127
 BYTE   N05  Cs1  v060
 BYTE   N05  Cn3  v127
 BYTE   W03
 BYTE   N02  Cn1
 BYTE   W03
 BYTE   PEND 
//  #08 //030   ----------------------------------------
Label_010B1CE1:
 BYTE   N17  Cn1  v127
 BYTE   N05  Cs1  v080
 BYTE   N11  Cs3  v127
 BYTE   W06
 BYTE   N05  Cs1  v060
 BYTE   W06
 BYTE   N05
 BYTE   N05  Cs3  v127
 BYTE   W06
 BYTE   N17  Cn1
 BYTE   N05  Cs1  v060
 BYTE   N05  Cn3  v127
 BYTE   W06
 BYTE   Cs1  v080
 BYTE   N05  Cn3  v127
 BYTE   W06
 BYTE   Cs1  v060
 BYTE   N05  Cs3  v127
 BYTE   W06
 BYTE   N56  Cn1
 BYTE   N05  Cs1  v080
 BYTE   W06
 BYTE   Cs1  v060
 BYTE   N05  Cn3  v127
 BYTE   W06
 BYTE   Cs1  v080
 BYTE   N23  Dn1  v104
 BYTE   W06
 BYTE   N05  Cs1  v060
 BYTE   N05  Cn3  v127
 BYTE   W06
 BYTE   Cs1  v080
 BYTE   N11  En1  v060
 BYTE   N05  Cn3  v127
 BYTE   W06
 BYTE   Cs1  v060
 BYTE   N05  Cn3  v127
 BYTE   W06
 BYTE   Cs1  v080
 BYTE   N23  Bn2  v104
 BYTE   W06
 BYTE   N05  Cs1  v060
 BYTE   W06
 BYTE   N11
 BYTE   N11  Cn3  v127
 BYTE   W12
 BYTE   PEND 
//  #08 //031   ----------------------------------------
Label_010B1D41:
 BYTE   N17  Cn1  v127
 BYTE   N05  Cs1  v080
 BYTE   N11  Cs3  v127
 BYTE   W06
 BYTE   N05  Cs1  v060
 BYTE   W06
 BYTE   N05
 BYTE   N11  Cn3  v127
 BYTE   W06
 BYTE   N17  Cn1
 BYTE   N05  Cs1  v060
 BYTE   W06
 BYTE   Cs1  v080
 BYTE   N05  Cn3  v127
 BYTE   W06
 BYTE   Cs1  v060
 BYTE   N05  Cn3  v127
 BYTE   W06
 BYTE   N44  Cn1
 BYTE   N05  Cs1  v080
 BYTE   N05  Cs3  v127
 BYTE   W06
 BYTE   Cs1  v060
 BYTE   N05  Cn3  v127
 BYTE   W06
 BYTE   Cs1  v080
 BYTE   W06
 BYTE   Cs1  v060
 BYTE   W06
 BYTE   Cs1  v080
 BYTE   N05  Cs3  v127
 BYTE   W06
 BYTE   Cs1  v060
 BYTE   N05  Cn3  v127
 BYTE   W06
 BYTE   Cs1  v080
 BYTE   N23  Ds1  v104
 BYTE   N23  Bn2
 BYTE   N11  Cn3  v127
 BYTE   W06
 BYTE   N05  Cs1  v060
 BYTE   W06
 BYTE   Cs1  v080
 BYTE   N05  Cn3  v127
 BYTE   W06
 BYTE   N02  Cn1
 BYTE   N05  Cs1  v060
 BYTE   N05  Cs3  v127
 BYTE   W03
 BYTE   N02  Cn1
 BYTE   W03
 BYTE   PEND 
//  #08 //032   ----------------------------------------
Label_010B1DA9:
 BYTE   N17  Cn1  v127
 BYTE   N05  Cs1  v080
 BYTE   N11  Cs3  v127
 BYTE   W06
 BYTE   N05  Cs1  v060
 BYTE   W06
 BYTE   N05
 BYTE   N05  Cs3  v127
 BYTE   W06
 BYTE   N17  Cn1
 BYTE   N05  Cs1  v060
 BYTE   N05  Cn3  v127
 BYTE   W06
 BYTE   Cs1  v080
 BYTE   N05  Cn3  v127
 BYTE   W06
 BYTE   Cs1  v060
 BYTE   N05  Cs3  v127
 BYTE   W06
 BYTE   N56  Cn1
 BYTE   N05  Cs1  v080
 BYTE   W06
 BYTE   Cs1  v060
 BYTE   N05  Cn3  v127
 BYTE   W06
 BYTE   Cs1  v080
 BYTE   N23  Dn1  v104
 BYTE   W06
 BYTE   N05  Cs1  v060
 BYTE   N05  Cn3  v127
 BYTE   W06
 BYTE   Cs1  v080
 BYTE   N11  En1  v060
 BYTE   N05  Cn3  v127
 BYTE   W06
 BYTE   Cs1  v060
 BYTE   N05  Cs3  v127
 BYTE   W06
 BYTE   Cs1  v080
 BYTE   N23  Bn2  v104
 BYTE   N11  Cn3  v127
 BYTE   W06
 BYTE   N05  Cs1  v060
 BYTE   W06
 BYTE   N11
 BYTE   N11  Cn3  v127
 BYTE   W12
 BYTE   PEND 
//  #08 //033   ----------------------------------------
 BYTE   PATT
  POIN2 Label_010B1C81
//  #08 //034   ----------------------------------------
 BYTE   PATT
  POIN2 Label_010B1CE1
//  #08 //035   ----------------------------------------
 BYTE   PATT
  POIN2 Label_010B1D41
//  #08 //036   ----------------------------------------
Label_010B1E1B:
 BYTE   N17  Cn1  v127
 BYTE   N05  Cs1  v080
 BYTE   N11  Cs3  v127
 BYTE   W06
 BYTE   N05  Cs1  v060
 BYTE   W06
 BYTE   N05
 BYTE   N05  Cs3  v127
 BYTE   W06
 BYTE   N17  Cn1
 BYTE   N05  Cs1  v060
 BYTE   N05  Cn3  v127
 BYTE   W06
 BYTE   Cs1  v080
 BYTE   N05  Cn3  v127
 BYTE   W06
 BYTE   Cs1  v060
 BYTE   N05  Cs3  v127
 BYTE   W06
 BYTE   N56  Cn1
 BYTE   N05  Cs1  v080
 BYTE   W06
 BYTE   Cs1  v060
 BYTE   N05  Cn3  v127
 BYTE   W06
 BYTE   Cs1  v080
 BYTE   N23  Dn1  v104
 BYTE   N23  Ds1
 BYTE   W06
 BYTE   N05  Cs1  v060
 BYTE   N05  Cn3  v127
 BYTE   W06
 BYTE   Cs1  v080
 BYTE   N11  En1  v060
 BYTE   N05  Cn3  v127
 BYTE   W06
 BYTE   Cs1  v060
 BYTE   N05  Cs3  v127
 BYTE   W06
 BYTE   Cs1  v080
 BYTE   N23  Bn2  v104
 BYTE   N11  Cn3  v127
 BYTE   W06
 BYTE   N05  Cs1  v060
 BYTE   W06
 BYTE   N11
 BYTE   N11  Cn3  v127
 BYTE   W12
 BYTE   PEND 
//  #08 //037   ----------------------------------------
 BYTE   PATT
  POIN2 Label_010B1973
//  #08 //038   ----------------------------------------
 BYTE   PATT
  POIN2 Label_010B19D5
//  #08 //039   ----------------------------------------
 BYTE   PATT
  POIN2 Label_010B1A31
//  #08 //040   ----------------------------------------
 BYTE   PATT
  POIN2 Label_010B1B87
//  #08 //041   ----------------------------------------
 BYTE   PATT
  POIN2 Label_010B1973
//  #08 //042   ----------------------------------------
 BYTE   PATT
  POIN2 Label_010B19D5
//  #08 //043   ----------------------------------------
 BYTE   PATT
  POIN2 Label_010B1A31
//  #08 //044   ----------------------------------------
 BYTE   PATT
  POIN2 Label_010B1BF5
//  #08 //045   ----------------------------------------
 BYTE   PATT
  POIN2 Label_010B1973
//  #08 //046   ----------------------------------------
 BYTE   PATT
  POIN2 Label_010B19D5
//  #08 //047   ----------------------------------------
 BYTE   PATT
  POIN2 Label_010B1A31
//  #08 //048   ----------------------------------------
 BYTE   PATT
  POIN2 Label_010B1B87
//  #08 //049   ----------------------------------------
Label_010B1EBC:
 BYTE   N17  Cn1  v127
 BYTE   N05  Cs1  v080
 BYTE   N11  Cs3  v127
 BYTE   W06
 BYTE   N05  Cs1  v060
 BYTE   W06
 BYTE   N05
 BYTE   N11  Cn3  v127
 BYTE   W06
 BYTE   N17  Cn1
 BYTE   N05  Cs1  v060
 BYTE   W06
 BYTE   Cs1  v080
 BYTE   W06
 BYTE   Cs1  v060
 BYTE   N05  Cn3  v127
 BYTE   W06
 BYTE   N44  Cn1
 BYTE   N05  Cs1  v080
 BYTE   N05  Cs3  v127
 BYTE   W06
 BYTE   Cs1  v060
 BYTE   N05  Cn3  v127
 BYTE   W06
 BYTE   Cs1  v080
 BYTE   W06
 BYTE   Cs1  v060
 BYTE   W06
 BYTE   Cs1  v080
 BYTE   N05  Cs3  v127
 BYTE   W06
 BYTE   Cs1  v060
 BYTE   N05  Cn3  v127
 BYTE   W06
 BYTE   Cs1  v080
 BYTE   N23  En2  v104
 BYTE   N23  Bn2
 BYTE   W06
 BYTE   N05  Cs1  v060
 BYTE   W06
 BYTE   Cs1  v080
 BYTE   W06
 BYTE   N02  Cn1  v127
 BYTE   N05  Cs1  v060
 BYTE   N05  Cn3  v127
 BYTE   W03
 BYTE   N02  Cn1
 BYTE   W03
 BYTE   PEND 
//  #08 //050   ----------------------------------------
 BYTE   PATT
  POIN2 Label_010B19D5
//  #08 //051   ----------------------------------------
 BYTE   PATT
  POIN2 Label_010B1A31
//  #08 //052   ----------------------------------------
Label_010B1F26:
 BYTE   N17  Cn1  v127
 BYTE   N05  Cs1  v080
 BYTE   N11  Cs3  v127
 BYTE   W06
 BYTE   N05  Cs1  v060
 BYTE   W06
 BYTE   N05
 BYTE   N05  Cs3  v127
 BYTE   W06
 BYTE   N17  Cn1
 BYTE   N05  Cs1  v060
 BYTE   N05  Cn3  v127
 BYTE   W06
 BYTE   Cs1  v080
 BYTE   N05  Cn3  v127
 BYTE   W06
 BYTE   Cs1  v060
 BYTE   N05  Cs3  v127
 BYTE   W06
 BYTE   N56  Cn1
 BYTE   N05  Cs1  v080
 BYTE   W06
 BYTE   Cs1  v060
 BYTE   N05  Cn3  v127
 BYTE   W06
 BYTE   Cs1  v080
 BYTE   W06
 BYTE   Cs1  v060
 BYTE   N05  Cn3  v127
 BYTE   W06
 BYTE   Cs1  v080
 BYTE   N11  Dn1  v104
 BYTE   N11  Ds1
 BYTE   N11  En1  v060
 BYTE   N05  Cn3  v127
 BYTE   W06
 BYTE   Cs1  v060
 BYTE   N05  Cs3  v127
 BYTE   W06
 BYTE   Cs1  v080
 BYTE   N23  Bn2  v104
 BYTE   N11  Cn3  v127
 BYTE   W06
 BYTE   N05  Cs1  v060
 BYTE   W06
 BYTE   N11
 BYTE   N11  Dn1  v104
 BYTE   N11  Ds1
 BYTE   N11  Cn3  v127
 BYTE   W12
 BYTE   PEND 
//  #08 //053   ----------------------------------------
 BYTE   PATT
  POIN2 Label_010B1A31
//  #08 //054   ----------------------------------------
 BYTE   PATT
  POIN2 Label_010B1F26
//  #08 //055   ----------------------------------------
 BYTE   PATT
  POIN2 Label_010B1A31
//  #08 //056   ----------------------------------------
 BYTE   PATT
  POIN2 Label_010B1F26
//  #08 //057   ----------------------------------------
 BYTE   W96
//  #08 //058   ----------------------------------------
 BYTE   W96
//  #08 //059   ----------------------------------------
 BYTE   PATT
  POIN2 Label_010B1973
//  #08 //060   ----------------------------------------
 BYTE   PATT
  POIN2 Label_010B19D5
//  #08 //061   ----------------------------------------
 BYTE   PATT
  POIN2 Label_010B1A31
//  #08 //062   ----------------------------------------
 BYTE   PATT
  POIN2 Label_010B1A9B
//  #08 //063   ----------------------------------------
 BYTE   PATT
  POIN2 Label_010B1973
//  #08 //064   ----------------------------------------
 BYTE   PATT
  POIN2 Label_010B19D5
//  #08 //065   ----------------------------------------
 BYTE   PATT
  POIN2 Label_010B1A31
//  #08 //066   ----------------------------------------
 BYTE   PATT
  POIN2 Label_010B1B12
//  #08 //067   ----------------------------------------
 BYTE   GoTo
  POIN2 Label_010B1B78
//  #08 //068   ----------------------------------------
 BYTE   PATT
  POIN2 Label_010B1973
//  #08 //069   ----------------------------------------
 BYTE   PATT
  POIN2 Label_010B19D5
//  #08 //070   ----------------------------------------
 BYTE   PATT
  POIN2 Label_010B1A31
//  #08 //071   ----------------------------------------
 BYTE   PATT
  POIN2 Label_010B1B87
//  #08 //072   ----------------------------------------
 BYTE   PATT
  POIN2 Label_010B1973
//  #08 //073   ----------------------------------------
 BYTE   PATT
  POIN2 Label_010B19D5
//  #08 //074   ----------------------------------------
 BYTE   PATT
  POIN2 Label_010B1A31
//  #08 //075   ----------------------------------------
 BYTE   PATT
  POIN2 Label_010B1BF5
//  #08 //076   ----------------------------------------
 BYTE   PATT
  POIN2 Label_010B1973
//  #08 //077   ----------------------------------------
 BYTE   PATT
  POIN2 Label_010B19D5
//  #08 //078   ----------------------------------------
 BYTE   PATT
  POIN2 Label_010B1A31
//  #08 //079   ----------------------------------------
 BYTE   PATT
  POIN2 Label_010B1B87
//  #08 //080   ----------------------------------------
 BYTE   PATT
  POIN2 Label_010B1973
//  #08 //081   ----------------------------------------
 BYTE   PATT
  POIN2 Label_010B19D5
//  #08 //082   ----------------------------------------
 BYTE   PATT
  POIN2 Label_010B1A31
//  #08 //083   ----------------------------------------
 BYTE   PATT
  POIN2 Label_010B1B12
//  #08 //084   ----------------------------------------
 BYTE   PATT
  POIN2 Label_010B1C81
//  #08 //085   ----------------------------------------
 BYTE   PATT
  POIN2 Label_010B1CE1
//  #08 //086   ----------------------------------------
 BYTE   PATT
  POIN2 Label_010B1D41
//  #08 //087   ----------------------------------------
 BYTE   PATT
  POIN2 Label_010B1DA9
//  #08 //088   ----------------------------------------
 BYTE   PATT
  POIN2 Label_010B1C81
//  #08 //089   ----------------------------------------
 BYTE   PATT
  POIN2 Label_010B1CE1
//  #08 //090   ----------------------------------------
 BYTE   PATT
  POIN2 Label_010B1D41
//  #08 //091   ----------------------------------------
 BYTE   PATT
  POIN2 Label_010B1E1B
//  #08 //092   ----------------------------------------
 BYTE   PATT
  POIN2 Label_010B1973
//  #08 //093   ----------------------------------------
 BYTE   PATT
  POIN2 Label_010B19D5
//  #08 //094   ----------------------------------------
 BYTE   PATT
  POIN2 Label_010B1A31
//  #08 //095   ----------------------------------------
 BYTE   PATT
  POIN2 Label_010B1B87
//  #08 //096   ----------------------------------------
 BYTE   PATT
  POIN2 Label_010B1973
//  #08 //097   ----------------------------------------
 BYTE   PATT
  POIN2 Label_010B19D5
//  #08 //098   ----------------------------------------
 BYTE   PATT
  POIN2 Label_010B1A31
//  #08 //099   ----------------------------------------
 BYTE   PATT
  POIN2 Label_010B1BF5
//  #08 //100   ----------------------------------------
 BYTE   PATT
  POIN2 Label_010B1973
//  #08 //101   ----------------------------------------
 BYTE   PATT
  POIN2 Label_010B19D5
//  #08 //102   ----------------------------------------
 BYTE   PATT
  POIN2 Label_010B1A31
//  #08 //103   ----------------------------------------
 BYTE   PATT
  POIN2 Label_010B1B87
//  #08 //104   ----------------------------------------
 BYTE   PATT
  POIN2 Label_010B1EBC
//  #08 //105   ----------------------------------------
 BYTE   PATT
  POIN2 Label_010B19D5
//  #08 //106   ----------------------------------------
 BYTE   PATT
  POIN2 Label_010B1A31
//  #08 //107   ----------------------------------------
 BYTE   PATT
  POIN2 Label_010B1F26
//  #08 //108   ----------------------------------------
 BYTE   PATT
  POIN2 Label_010B1A31
//  #08 //109   ----------------------------------------
 BYTE   PATT
  POIN2 Label_010B1F26
//  #08 //110   ----------------------------------------
 BYTE   PATT
  POIN2 Label_010B1A31
//  #08 //111   ----------------------------------------
 BYTE   PATT
  POIN2 Label_010B1F26
//  #08 //112   ----------------------------------------
 BYTE   W96
//  #08 //113   ----------------------------------------
 BYTE   W96
//  #08 //114   ----------------------------------------
 BYTE   PATT
  POIN2 Label_010B1973
//  #08 //115   ----------------------------------------
 BYTE   N17  Cn1  v127
 BYTE   N05  Cs1  v080
 BYTE   N11  Cs3  v127
 BYTE   W06
 BYTE   N05  Cs1  v060
 BYTE   W06
 BYTE   N05
 BYTE   N05  Cs3  v127
 BYTE   W06
 BYTE   N17  Cn1
 BYTE   N05  Cs1  v060
 BYTE   N05  Cn3  v127
 BYTE   W06
 BYTE   Cs1  v080
 BYTE   N05  Cn3  v127
 BYTE   W06
 BYTE   Cs1  v060
 BYTE   N05  Cs3  v127
 BYTE   W06
 BYTE   N56  Cn1
 BYTE   N05  Cs1  v080
 BYTE   W06
 BYTE   Cs1  v060
 BYTE   N05  Cn3  v127
 BYTE   W06
 BYTE   Cs1  v080
 BYTE   W06
 BYTE   Cs1  v060
 BYTE   N05  Cn3  v127
 BYTE   W06
 BYTE   Cs1  v080
 BYTE   N11  En1  v060
 BYTE   N05  Cn3  v127
 BYTE   W06
 BYTE   Cs1  v060
 BYTE   N05  Cn3  v127
 BYTE   W06
 BYTE   Cs1  v080
 BYTE   N23  Bn2  v104
 BYTE   W06
 BYTE   N05  Cs1  v060
 BYTE   W06
 BYTE   N11
 BYTE   N11  Cn3  v127
 BYTE   W11
 BYTE   FINE

//**************** Track 9 (Midi-Chn.8) ****************//

song09_009:
//  #09 //000   ----------------------------------------
 BYTE   KEYSH   song09_key+0
 BYTE   VOICE   52
 BYTE   MODT 0
 BYTE   LFOS 44
 BYTE   VOL   29*song09_mvl/mxv
 BYTE   PAN   c_v+0
 BYTE   TIE  An0  v080
 BYTE   W96
//  #09 //001   ----------------------------------------
 BYTE   W92
 BYTE   W03
 BYTE   EOT
 BYTE   W01
//  #09 //002   ----------------------------------------
 BYTE   TIE
 BYTE   W96
//  #09 //003   ----------------------------------------
 BYTE   W92
 BYTE   W03
 BYTE   EOT
 BYTE   W01
//  #09 //004   ----------------------------------------
 BYTE   TIE
 BYTE   W96
//  #09 //005   ----------------------------------------
 BYTE   W92
 BYTE   W03
 BYTE   EOT
 BYTE   W01
//  #09 //006   ----------------------------------------
 BYTE   TIE
 BYTE   W96
//  #09 //007   ----------------------------------------
 BYTE   W92
 BYTE   W03
 BYTE   EOT
 BYTE   W01
//  #09 //008   ----------------------------------------
 BYTE   TIE
 BYTE   W96
//  #09 //009   ----------------------------------------
 BYTE   W92
 BYTE   W03
 BYTE   EOT
 BYTE   W01
//  #09 //010   ----------------------------------------
 BYTE   TIE
 BYTE   W96
//  #09 //011   ----------------------------------------
 BYTE   W92
 BYTE   W03
 BYTE   EOT
 BYTE   W01
//  #09 //012   ----------------------------------------
Label_010B2146:
 BYTE   N92  An0  v080
 BYTE   W96
//  #09 //013   ----------------------------------------
 BYTE   Bn0
 BYTE   W96
//  #09 //014   ----------------------------------------
 BYTE   Cn1
 BYTE   W96
//  #09 //015   ----------------------------------------
 BYTE   Dn1
 BYTE   W96
//  #09 //016   ----------------------------------------
 BYTE   An0
 BYTE   W96
//  #09 //017   ----------------------------------------
 BYTE   Bn0
 BYTE   W96
//  #09 //018   ----------------------------------------
 BYTE   Cn1
 BYTE   W96
//  #09 //019   ----------------------------------------
 BYTE   Dn1
 BYTE   W96
//  #09 //020   ----------------------------------------
 BYTE   TIE  An0
 BYTE   W96
//  #09 //021   ----------------------------------------
 BYTE   W92
 BYTE   W03
 BYTE   EOT
 BYTE   W01
//  #09 //022   ----------------------------------------
 BYTE   TIE
 BYTE   W96
//  #09 //023   ----------------------------------------
 BYTE   W92
 BYTE   W03
 BYTE   EOT
 BYTE   W01
//  #09 //024   ----------------------------------------
 BYTE   TIE
 BYTE   W96
//  #09 //025   ----------------------------------------
 BYTE   W92
 BYTE   W03
 BYTE   EOT
 BYTE   W01
//  #09 //026   ----------------------------------------
 BYTE   TIE
 BYTE   W96
//  #09 //027   ----------------------------------------
 BYTE   W92
 BYTE   W03
 BYTE   EOT
 BYTE   W01
//  #09 //028   ----------------------------------------
 BYTE   N92  Cn1
 BYTE   W96
//  #09 //029   ----------------------------------------
 BYTE   Dn1
 BYTE   W96
//  #09 //030   ----------------------------------------
 BYTE   En1
 BYTE   W96
//  #09 //031   ----------------------------------------
 BYTE   Dn1
 BYTE   W96
//  #09 //032   ----------------------------------------
 BYTE   Cn1
 BYTE   W96
//  #09 //033   ----------------------------------------
 BYTE   Dn1
 BYTE   W96
//  #09 //034   ----------------------------------------
 BYTE   En1
 BYTE   W96
//  #09 //035   ----------------------------------------
 BYTE   Dn1
 BYTE   W96
//  #09 //036   ----------------------------------------
 BYTE   An0
 BYTE   W96
//  #09 //037   ----------------------------------------
 BYTE   Bn0
 BYTE   W96
//  #09 //038   ----------------------------------------
 BYTE   Cn1
 BYTE   W96
//  #09 //039   ----------------------------------------
 BYTE   Dn1
 BYTE   W96
//  #09 //040   ----------------------------------------
 BYTE   An0
 BYTE   W96
//  #09 //041   ----------------------------------------
 BYTE   Bn0
 BYTE   W96
//  #09 //042   ----------------------------------------
 BYTE   Cn1
 BYTE   W96
//  #09 //043   ----------------------------------------
 BYTE   Dn1
 BYTE   W96
//  #09 //044   ----------------------------------------
 BYTE   TIE  An0
 BYTE   W96
//  #09 //045   ----------------------------------------
 BYTE   W92
 BYTE   W03
 BYTE   EOT
 BYTE   W01
//  #09 //046   ----------------------------------------
 BYTE   TIE
 BYTE   W96
//  #09 //047   ----------------------------------------
 BYTE   W92
 BYTE   W03
 BYTE   EOT
 BYTE   W01
//  #09 //048   ----------------------------------------
 BYTE   TIE
 BYTE   W96
//  #09 //049   ----------------------------------------
 BYTE   W92
 BYTE   W03
 BYTE   EOT
 BYTE   W01
//  #09 //050   ----------------------------------------
 BYTE   TIE  Fn0
 BYTE   W96
//  #09 //051   ----------------------------------------
 BYTE   W92
 BYTE   W03
 BYTE   EOT
 BYTE   W01
//  #09 //052   ----------------------------------------
 BYTE   TIE  Gn0
 BYTE   W96
//  #09 //053   ----------------------------------------
 BYTE   W92
 BYTE   W03
 BYTE   EOT
 BYTE   W01
//  #09 //054   ----------------------------------------
 BYTE   TIE  Fn0
 BYTE   W96
//  #09 //055   ----------------------------------------
 BYTE   W92
 BYTE   W03
 BYTE   EOT
 BYTE   W01
//  #09 //056   ----------------------------------------
 BYTE   TIE  Gn0
 BYTE   W96
//  #09 //057   ----------------------------------------
 BYTE   W92
 BYTE   W03
 BYTE   EOT
 BYTE   W01
//  #09 //058   ----------------------------------------
 BYTE   N92  An0
 BYTE   W96
//  #09 //059   ----------------------------------------
 BYTE   N92
 BYTE   W96
//  #09 //060   ----------------------------------------
 BYTE   TIE
 BYTE   W96
//  #09 //061   ----------------------------------------
 BYTE   W92
 BYTE   W03
 BYTE   EOT
 BYTE   W01
//  #09 //062   ----------------------------------------
 BYTE   TIE
 BYTE   W96
//  #09 //063   ----------------------------------------
 BYTE   W92
 BYTE   W03
 BYTE   EOT
 BYTE   W01
//  #09 //064   ----------------------------------------
 BYTE   TIE
 BYTE   W96
//  #09 //065   ----------------------------------------
 BYTE   W92
 BYTE   W03
 BYTE   EOT
 BYTE   W01
//  #09 //066   ----------------------------------------
 BYTE   GoTo
  POIN2 Label_010B2146
//  #09 //067   ----------------------------------------
 BYTE   N92  An0  v080
 BYTE   W96
//  #09 //068   ----------------------------------------
 BYTE   Bn0
 BYTE   W96
//  #09 //069   ----------------------------------------
 BYTE   Cn1
 BYTE   W96
//  #09 //070   ----------------------------------------
 BYTE   Dn1
 BYTE   W96
//  #09 //071   ----------------------------------------
 BYTE   An0
 BYTE   W96
//  #09 //072   ----------------------------------------
 BYTE   Bn0
 BYTE   W96
//  #09 //073   ----------------------------------------
 BYTE   Cn1
 BYTE   W96
//  #09 //074   ----------------------------------------
 BYTE   Dn1
 BYTE   W96
//  #09 //075   ----------------------------------------
 BYTE   TIE  An0
 BYTE   W96
//  #09 //076   ----------------------------------------
 BYTE   W92
 BYTE   W03
 BYTE   EOT
 BYTE   W01
//  #09 //077   ----------------------------------------
 BYTE   TIE
 BYTE   W96
//  #09 //078   ----------------------------------------
 BYTE   W92
 BYTE   W03
 BYTE   EOT
 BYTE   W01
//  #09 //079   ----------------------------------------
 BYTE   TIE
 BYTE   W96
//  #09 //080   ----------------------------------------
 BYTE   W92
 BYTE   W03
 BYTE   EOT
 BYTE   W01
//  #09 //081   ----------------------------------------
 BYTE   TIE
 BYTE   W96
//  #09 //082   ----------------------------------------
 BYTE   W92
 BYTE   W03
 BYTE   EOT
 BYTE   W01
//  #09 //083   ----------------------------------------
 BYTE   N92  Cn1
 BYTE   W96
//  #09 //084   ----------------------------------------
 BYTE   Dn1
 BYTE   W96
//  #09 //085   ----------------------------------------
 BYTE   En1
 BYTE   W96
//  #09 //086   ----------------------------------------
 BYTE   Dn1
 BYTE   W96
//  #09 //087   ----------------------------------------
 BYTE   Cn1
 BYTE   W96
//  #09 //088   ----------------------------------------
 BYTE   Dn1
 BYTE   W96
//  #09 //089   ----------------------------------------
 BYTE   En1
 BYTE   W96
//  #09 //090   ----------------------------------------
 BYTE   Dn1
 BYTE   W96
//  #09 //091   ----------------------------------------
 BYTE   An0
 BYTE   W96
//  #09 //092   ----------------------------------------
 BYTE   Bn0
 BYTE   W96
//  #09 //093   ----------------------------------------
 BYTE   Cn1
 BYTE   W96
//  #09 //094   ----------------------------------------
 BYTE   Dn1
 BYTE   W96
//  #09 //095   ----------------------------------------
 BYTE   An0
 BYTE   W96
//  #09 //096   ----------------------------------------
 BYTE   Bn0
 BYTE   W96
//  #09 //097   ----------------------------------------
 BYTE   Cn1
 BYTE   W96
//  #09 //098   ----------------------------------------
 BYTE   Dn1
 BYTE   W96
//  #09 //099   ----------------------------------------
 BYTE   TIE  An0
 BYTE   W96
//  #09 //100   ----------------------------------------
 BYTE   W92
 BYTE   W03
 BYTE   EOT
 BYTE   W01
//  #09 //101   ----------------------------------------
 BYTE   TIE
 BYTE   W96
//  #09 //102   ----------------------------------------
 BYTE   W92
 BYTE   W03
 BYTE   EOT
 BYTE   W01
//  #09 //103   ----------------------------------------
 BYTE   TIE
 BYTE   W96
//  #09 //104   ----------------------------------------
 BYTE   W92
 BYTE   W03
 BYTE   EOT
 BYTE   W01
//  #09 //105   ----------------------------------------
 BYTE   TIE  Fn0
 BYTE   W96
//  #09 //106   ----------------------------------------
 BYTE   W92
 BYTE   W03
 BYTE   EOT
 BYTE   W01
//  #09 //107   ----------------------------------------
 BYTE   TIE  Gn0
 BYTE   W96
//  #09 //108   ----------------------------------------
 BYTE   W92
 BYTE   W03
 BYTE   EOT
 BYTE   W01
//  #09 //109   ----------------------------------------
 BYTE   TIE  Fn0
 BYTE   W96
//  #09 //110   ----------------------------------------
 BYTE   W92
 BYTE   W03
 BYTE   EOT
 BYTE   W01
//  #09 //111   ----------------------------------------
 BYTE   TIE  Gn0
 BYTE   W96
//  #09 //112   ----------------------------------------
 BYTE   W92
 BYTE   W03
 BYTE   EOT
 BYTE   W01
//  #09 //113   ----------------------------------------
 BYTE   N92  An0
 BYTE   W96
//  #09 //114   ----------------------------------------
 BYTE   N92
 BYTE   W92
 BYTE   W03
 BYTE   FINE

//**************** Track 10 (Midi-Chn.9) ****************//

song09_010:
//  #10 //000   ----------------------------------------
 BYTE   KEYSH   song09_key+0
 BYTE   VOICE   52
 BYTE   MODT 0
 BYTE   LFOS 44
 BYTE   VOL   29*song09_mvl/mxv
 BYTE   PAN   c_v+0
 BYTE   W96
//  #10 //001   ----------------------------------------
 BYTE   W96
//  #10 //002   ----------------------------------------
 BYTE   W96
//  #10 //003   ----------------------------------------
 BYTE   N92  Dn3  v060
 BYTE   N92  Gn3
 BYTE   N92  Bn3
 BYTE   W96
//  #10 //004   ----------------------------------------
Label_010B0887:
 BYTE   N92  An2  v060
 BYTE   N92  Dn3
 BYTE   N92  An3
 BYTE   W96
 BYTE   PEND 
//  #10 //005   ----------------------------------------
Label_010B0890:
 BYTE   N92  Bn2  v060
 BYTE   N92  Dn3
 BYTE   N92  Bn3
 BYTE   W96
 BYTE   PEND 
//  #10 //006   ----------------------------------------
Label_010B0899:
 BYTE   N92  Cn3  v060
 BYTE   N92  Fn3
 BYTE   N92  Cn4
 BYTE   W96
 BYTE   PEND 
//  #10 //007   ----------------------------------------
Label_010B08A2:
 BYTE   N92  Bn2  v060
 BYTE   N92  Gn3
 BYTE   N92  Dn4
 BYTE   W96
 BYTE   PEND 
//  #10 //008   ----------------------------------------
 BYTE   PATT
  POIN2 Label_010B0887
//  #10 //009   ----------------------------------------
 BYTE   PATT
  POIN2 Label_010B0890
//  #10 //010   ----------------------------------------
 BYTE   PATT
  POIN2 Label_010B0899
//  #10 //011   ----------------------------------------
 BYTE   PATT
  POIN2 Label_010B08A2
//  #10 //012   ----------------------------------------
Label_010B08BF:
 BYTE   W96
//  #10 //013   ----------------------------------------
 BYTE   W96
//  #10 //014   ----------------------------------------
 BYTE   W96
//  #10 //015   ----------------------------------------
 BYTE   W96
//  #10 //016   ----------------------------------------
 BYTE   W96
//  #10 //017   ----------------------------------------
 BYTE   W96
//  #10 //018   ----------------------------------------
 BYTE   W96
//  #10 //019   ----------------------------------------
 BYTE   W96
//  #10 //020   ----------------------------------------
 BYTE   W96
//  #10 //021   ----------------------------------------
 BYTE   W96
//  #10 //022   ----------------------------------------
 BYTE   W96
//  #10 //023   ----------------------------------------
 BYTE   W96
//  #10 //024   ----------------------------------------
 BYTE   W96
//  #10 //025   ----------------------------------------
 BYTE   W96
//  #10 //026   ----------------------------------------
 BYTE   W96
//  #10 //027   ----------------------------------------
 BYTE   W96
//  #10 //028   ----------------------------------------
 BYTE   W96
//  #10 //029   ----------------------------------------
 BYTE   W96
//  #10 //030   ----------------------------------------
 BYTE   W96
//  #10 //031   ----------------------------------------
 BYTE   W96
//  #10 //032   ----------------------------------------
 BYTE   W96
//  #10 //033   ----------------------------------------
 BYTE   W96
//  #10 //034   ----------------------------------------
 BYTE   W96
//  #10 //035   ----------------------------------------
 BYTE   W96
//  #10 //036   ----------------------------------------
 BYTE   W96
//  #10 //037   ----------------------------------------
 BYTE   W96
//  #10 //038   ----------------------------------------
 BYTE   W96
//  #10 //039   ----------------------------------------
 BYTE   W96
//  #10 //040   ----------------------------------------
 BYTE   W96
//  #10 //041   ----------------------------------------
 BYTE   W96
//  #10 //042   ----------------------------------------
 BYTE   W96
//  #10 //043   ----------------------------------------
 BYTE   W96
//  #10 //044   ----------------------------------------
 BYTE   W96
//  #10 //045   ----------------------------------------
 BYTE   W96
//  #10 //046   ----------------------------------------
 BYTE   W96
//  #10 //047   ----------------------------------------
 BYTE   W96
//  #10 //048   ----------------------------------------
 BYTE   W96
//  #10 //049   ----------------------------------------
 BYTE   W96
//  #10 //050   ----------------------------------------
 BYTE   W96
//  #10 //051   ----------------------------------------
 BYTE   W96
//  #10 //052   ----------------------------------------
 BYTE   W96
//  #10 //053   ----------------------------------------
 BYTE   W96
//  #10 //054   ----------------------------------------
 BYTE   W96
//  #10 //055   ----------------------------------------
 BYTE   W96
//  #10 //056   ----------------------------------------
 BYTE   W96
//  #10 //057   ----------------------------------------
 BYTE   W96
//  #10 //058   ----------------------------------------
 BYTE   PATT
  POIN2 Label_010B0887
//  #10 //059   ----------------------------------------
 BYTE   PATT
  POIN2 Label_010B0890
//  #10 //060   ----------------------------------------
 BYTE   PATT
  POIN2 Label_010B0899
//  #10 //061   ----------------------------------------
 BYTE   PATT
  POIN2 Label_010B08A2
//  #10 //062   ----------------------------------------
 BYTE   PATT
  POIN2 Label_010B0887
//  #10 //063   ----------------------------------------
 BYTE   PATT
  POIN2 Label_010B0890
//  #10 //064   ----------------------------------------
 BYTE   PATT
  POIN2 Label_010B0899
//  #10 //065   ----------------------------------------
 BYTE   PATT
  POIN2 Label_010B08A2
//  #10 //066   ----------------------------------------
 BYTE   GoTo
  POIN2 Label_010B08BF
//  #10 //067   ----------------------------------------
 BYTE   W96
//  #10 //068   ----------------------------------------
 BYTE   W96
//  #10 //069   ----------------------------------------
 BYTE   W96
//  #10 //070   ----------------------------------------
 BYTE   W96
//  #10 //071   ----------------------------------------
 BYTE   W96
//  #10 //072   ----------------------------------------
 BYTE   W96
//  #10 //073   ----------------------------------------
 BYTE   W96
//  #10 //074   ----------------------------------------
 BYTE   W96
//  #10 //075   ----------------------------------------
 BYTE   W96
//  #10 //076   ----------------------------------------
 BYTE   W96
//  #10 //077   ----------------------------------------
 BYTE   W96
//  #10 //078   ----------------------------------------
 BYTE   W96
//  #10 //079   ----------------------------------------
 BYTE   W96
//  #10 //080   ----------------------------------------
 BYTE   W96
//  #10 //081   ----------------------------------------
 BYTE   W96
//  #10 //082   ----------------------------------------
 BYTE   W96
//  #10 //083   ----------------------------------------
 BYTE   W96
//  #10 //084   ----------------------------------------
 BYTE   W96
//  #10 //085   ----------------------------------------
 BYTE   W96
//  #10 //086   ----------------------------------------
 BYTE   W96
//  #10 //087   ----------------------------------------
 BYTE   W96
//  #10 //088   ----------------------------------------
 BYTE   W96
//  #10 //089   ----------------------------------------
 BYTE   W96
//  #10 //090   ----------------------------------------
 BYTE   W96
//  #10 //091   ----------------------------------------
 BYTE   W96
//  #10 //092   ----------------------------------------
 BYTE   W96
//  #10 //093   ----------------------------------------
 BYTE   W96
//  #10 //094   ----------------------------------------
 BYTE   W96
//  #10 //095   ----------------------------------------
 BYTE   W96
//  #10 //096   ----------------------------------------
 BYTE   W96
//  #10 //097   ----------------------------------------
 BYTE   W96
//  #10 //098   ----------------------------------------
 BYTE   W96
//  #10 //099   ----------------------------------------
 BYTE   W96
//  #10 //100   ----------------------------------------
 BYTE   W96
//  #10 //101   ----------------------------------------
 BYTE   W96
//  #10 //102   ----------------------------------------
 BYTE   W96
//  #10 //103   ----------------------------------------
 BYTE   W96
//  #10 //104   ----------------------------------------
 BYTE   W96
//  #10 //105   ----------------------------------------
 BYTE   W96
//  #10 //106   ----------------------------------------
 BYTE   W96
//  #10 //107   ----------------------------------------
 BYTE   W96
//  #10 //108   ----------------------------------------
 BYTE   W96
//  #10 //109   ----------------------------------------
 BYTE   W96
//  #10 //110   ----------------------------------------
 BYTE   W96
//  #10 //111   ----------------------------------------
 BYTE   W96
//  #10 //112   ----------------------------------------
 BYTE   W96
//  #10 //113   ----------------------------------------
 BYTE   PATT
  POIN2 Label_010B0887
//  #10 //114   ----------------------------------------
 BYTE   N92  Bn2  v060
 BYTE   N92  Dn3
 BYTE   N92  Bn3
 BYTE   W92
 BYTE   W03
 BYTE   FINE

//******************************************************//
	ALIGN 4

song09:
	BYTE	10	// NumTrks
	BYTE	0	// NumBlks
	BYTE	song09_pri	// Priority
	BYTE	song09_rev	// Reverb.
    
	POIN2	song09_grp
    
	POIN2	song09_001
	POIN2	song09_002
	POIN2	song09_003
	POIN2	song09_004
	POIN2	song09_005
	POIN2	song09_006
	POIN2	song09_007
	POIN2	song09_008
	POIN2	song09_009
	POIN2	song09_010

	
