//Event file generated from Sappy .s format.
	#include "MPlayDef.event"

	#define	song09_grp  voicegroup000
	#define	song09_pri  0
	#define	song09_rev  0
	#define	song09_mvl  127
	#define	song09_key  0
	#define	song09_tbs  1
	#define	song09_exg  0
	#define	song09_cmp  1

	// .rodata
	//	song09
	ALIGN 4


//**************** Track 1 (Midi-Chn.0) ****************//

song09_001:
//  #01 //000   ----------------------------------------
 BYTE   KEYSH   song09_key+0
 BYTE   TEMPO   120*song09_tbs/2
 BYTE   VOICE   79
 BYTE   MODT 0
 BYTE   LFOS 44
 BYTE   W24
 BYTE   TEMPO   86*song09_tbs/2
 BYTE   VOL   33*song09_mvl/mxv
 BYTE   PAN   c_v+0
 BYTE   W96
//  #01 //001   ----------------------------------------
 BYTE   W96
//  #01 //002   ----------------------------------------
 BYTE   W96
//  #01 //003   ----------------------------------------
 BYTE   W96
//  #01 //004   ----------------------------------------
 BYTE   W96
//  #01 //005   ----------------------------------------
 BYTE   W96
//  #01 //006   ----------------------------------------
 BYTE   W96
//  #01 //007   ----------------------------------------
 BYTE   W96
//  #01 //008   ----------------------------------------
 BYTE   W96
//  #01 //009   ----------------------------------------
 BYTE   W96
//  #01 //010   ----------------------------------------
 BYTE   W96
//  #01 //011   ----------------------------------------
 BYTE   W96
//  #01 //012   ----------------------------------------
 BYTE   W72
Label_014600AE:
 BYTE   VOL   33*song09_mvl/mxv
 BYTE   W24
//  #01 //013   ----------------------------------------
 BYTE   W96
//  #01 //014   ----------------------------------------
 BYTE   W96
//  #01 //015   ----------------------------------------
 BYTE   W96
//  #01 //016   ----------------------------------------
 BYTE   W96
//  #01 //017   ----------------------------------------
 BYTE   W96
//  #01 //018   ----------------------------------------
 BYTE   W96
//  #01 //019   ----------------------------------------
 BYTE   W96
//  #01 //020   ----------------------------------------
 BYTE   W96
//  #01 //021   ----------------------------------------
 BYTE   W96
//  #01 //022   ----------------------------------------
 BYTE   W96
//  #01 //023   ----------------------------------------
 BYTE   W60
 BYTE   N12  Dn4  v127
 BYTE   W12
 BYTE   N06
 BYTE   W06
 BYTE   Fs4
 BYTE   W06
 BYTE   Gn4
 BYTE   W06
 BYTE   An4
 BYTE   W06
//  #01 //024   ----------------------------------------
Label_014600C8:
 BYTE   N18  Bn4  v127
 BYTE   W18
 BYTE   N06  Bn4  v044
 BYTE   W06
 BYTE   An4  v127
 BYTE   W06
 BYTE   Gn4
 BYTE   W06
 BYTE   N12  Fs4
 BYTE   W12
 BYTE   Dn4
 BYTE   W12
 BYTE   Fs4
 BYTE   W12
 BYTE   En4
 BYTE   W12
 BYTE   Bn3
 BYTE   W12
 BYTE   PEND 
//  #01 //025   ----------------------------------------
Label_014600E1:
 BYTE   N12  An3  v127
 BYTE   W12
 BYTE   N06  Bn3
 BYTE   W06
 BYTE   Bn3  v044
 BYTE   W06
 BYTE   En4  v127
 BYTE   W06
 BYTE   Fs4
 BYTE   W06
 BYTE   Gn4
 BYTE   W06
 BYTE   An4
 BYTE   W06
 BYTE   N18  Bn4
 BYTE   W18
 BYTE   N06  Bn4  v044
 BYTE   W06
 BYTE   An4  v127
 BYTE   W06
 BYTE   Gn4
 BYTE   W06
 BYTE   N12  Fs4
 BYTE   W12
 BYTE   PEND 
//  #01 //026   ----------------------------------------
Label_01460104:
 BYTE   N12  Dn4  v127
 BYTE   W12
 BYTE   Fs4
 BYTE   W12
 BYTE   En4
 BYTE   W12
 BYTE   Bn4
 BYTE   W12
 BYTE   An4
 BYTE   W12
 BYTE   N06  Bn4
 BYTE   W06
 BYTE   Bn4  v044
 BYTE   W06
 BYTE   En4  v127
 BYTE   W06
 BYTE   Fs4
 BYTE   W06
 BYTE   Gn4
 BYTE   W06
 BYTE   An4
 BYTE   W06
 BYTE   PEND 
//  #01 //027   ----------------------------------------
 BYTE   PATT
  POIN2 Label_014600C8
//  #01 //028   ----------------------------------------
Label_01460125:
 BYTE   N12  An3  v127
 BYTE   W12
 BYTE   Bn3
 BYTE   W12
 BYTE   Bn3  v044
 BYTE   W12
 BYTE   N06  Bn3  v127
 BYTE   W06
 BYTE   Dn4
 BYTE   W06
 BYTE   N24  En4
 BYTE   W24
 BYTE   N12  Gn4
 BYTE   W12
 BYTE   Fs4
 BYTE   W12
 BYTE   PEND 
//  #01 //029   ----------------------------------------
Label_0146013D:
 BYTE   N12  En4  v127
 BYTE   W12
 BYTE   Dn4
 BYTE   W12
 BYTE   N36  Bn3
 BYTE   W36
 BYTE   N12  Bn3  v044
 BYTE   W12
 BYTE   N06  En4  v127
 BYTE   W06
 BYTE   Fs4
 BYTE   W06
 BYTE   Gn4
 BYTE   W06
 BYTE   An4
 BYTE   W06
 BYTE   PEND 
//  #01 //030   ----------------------------------------
 BYTE   PATT
  POIN2 Label_014600C8
//  #01 //031   ----------------------------------------
 BYTE   PATT
  POIN2 Label_014600E1
//  #01 //032   ----------------------------------------
 BYTE   PATT
  POIN2 Label_01460104
//  #01 //033   ----------------------------------------
 BYTE   PATT
  POIN2 Label_014600C8
//  #01 //034   ----------------------------------------
Label_01460169:
 BYTE   N12  An3  v127
 BYTE   W12
 BYTE   Bn3
 BYTE   W12
 BYTE   An3
 BYTE   W12
 BYTE   Gn3
 BYTE   W12
 BYTE   N60  En3
 BYTE   W48
 BYTE   PEND 
//  #01 //035   ----------------------------------------
Label_01460177:
 BYTE   W12
 BYTE   N12  En3  v044
 BYTE   W12
 BYTE   N24  En3  v127
 BYTE   W24
 BYTE   N12  Gn3
 BYTE   W12
 BYTE   Fs3
 BYTE   W12
 BYTE   En3
 BYTE   W12
 BYTE   Dn3
 BYTE   W12
 BYTE   PEND 
//  #01 //036   ----------------------------------------
Label_0146018A:
 BYTE   TIE  En3  v127
 BYTE   W04
 BYTE   VOL   24*song09_mvl/mxv
 BYTE   W06
 BYTE   VOL   24*song09_mvl/mxv
 BYTE   W06
 BYTE   VOL   22*song09_mvl/mxv
 BYTE   W06
 BYTE   VOL   22*song09_mvl/mxv
 BYTE   W12
 BYTE   VOL   20*song09_mvl/mxv
 BYTE   W03
 BYTE   VOL   19*song09_mvl/mxv
 BYTE   W08
 BYTE   VOL   18*song09_mvl/mxv
 BYTE   W09
 BYTE   VOL   17*song09_mvl/mxv
 BYTE   W06
 BYTE   VOL   16*song09_mvl/mxv
 BYTE   W03
 BYTE   VOL   15*song09_mvl/mxv
 BYTE   W03
 BYTE   VOL   15*song09_mvl/mxv
 BYTE   W03
 BYTE   VOL   15*song09_mvl/mxv
 BYTE   W06
 BYTE   VOL   15*song09_mvl/mxv
 BYTE   W04
 BYTE   VOL   15*song09_mvl/mxv
 BYTE   W03
 BYTE   VOL   15*song09_mvl/mxv
 BYTE   W03
 BYTE   VOL   15*song09_mvl/mxv
 BYTE   W03
 BYTE   VOL   15*song09_mvl/mxv
 BYTE   W03
 BYTE   VOL   15*song09_mvl/mxv
 BYTE   W03
 BYTE   VOL   15*song09_mvl/mxv
 BYTE   W02
 BYTE   PEND 
//  #01 //037   ----------------------------------------
Label_014601B6:
 BYTE   W01
 BYTE   VOL   15*song09_mvl/mxv
 BYTE   W03
 BYTE   VOL   15*song09_mvl/mxv
 BYTE   W03
 BYTE   VOL   15*song09_mvl/mxv
 BYTE   W03
 BYTE   VOL   15*song09_mvl/mxv
 BYTE   W03
 BYTE   VOL   15*song09_mvl/mxv
 BYTE   W05
 BYTE   VOL   15*song09_mvl/mxv
 BYTE   W03
 BYTE   VOL   15*song09_mvl/mxv
 BYTE   W03
 BYTE   VOL   15*song09_mvl/mxv
 BYTE   W03
 BYTE   VOL   15*song09_mvl/mxv
 BYTE   W03
 BYTE   VOL   15*song09_mvl/mxv
 BYTE   W03
 BYTE   VOL   15*song09_mvl/mxv
 BYTE   W03
 BYTE   VOL   15*song09_mvl/mxv
 BYTE   W03
 BYTE   VOL   15*song09_mvl/mxv
 BYTE   W03
 BYTE   VOL   15*song09_mvl/mxv
 BYTE   W03
 BYTE   VOL   15*song09_mvl/mxv
 BYTE   W03
 BYTE   PEND 
 BYTE   EOT
 BYTE   En3
 BYTE   W48
//  #01 //038   ----------------------------------------
 BYTE   W96
//  #01 //039   ----------------------------------------
 BYTE   W96
//  #01 //040   ----------------------------------------
 BYTE   W96
//  #01 //041   ----------------------------------------
 BYTE   W96
//  #01 //042   ----------------------------------------
 BYTE   W96
//  #01 //043   ----------------------------------------
 BYTE   W96
//  #01 //044   ----------------------------------------
 BYTE   W96
//  #01 //045   ----------------------------------------
 BYTE   W96
//  #01 //046   ----------------------------------------
 BYTE   W96
//  #01 //047   ----------------------------------------
 BYTE   W96
//  #01 //048   ----------------------------------------
 BYTE   W72
 BYTE   GoTo
  POIN2 Label_014600AE
//  #01 //049   ----------------------------------------
 BYTE   W24
 BYTE   W96
//  #01 //050   ----------------------------------------
 BYTE   W96
//  #01 //051   ----------------------------------------
 BYTE   W96
//  #01 //052   ----------------------------------------
 BYTE   W96
//  #01 //053   ----------------------------------------
 BYTE   W96
//  #01 //054   ----------------------------------------
 BYTE   W96
//  #01 //055   ----------------------------------------
 BYTE   W96
//  #01 //056   ----------------------------------------
 BYTE   W96
//  #01 //057   ----------------------------------------
 BYTE   W96
//  #01 //058   ----------------------------------------
 BYTE   W96
//  #01 //059   ----------------------------------------
Label_014601F5:
 BYTE   W44
 BYTE   W03
 BYTE   VOL   33*song09_mvl/mxv
 BYTE   W13
 BYTE   N12  Dn4  v127
 BYTE   W12
 BYTE   N06
 BYTE   W06
 BYTE   Fs4
 BYTE   W06
 BYTE   Gn4
 BYTE   W06
 BYTE   An4
 BYTE   W06
 BYTE   PEND 
//  #01 //060   ----------------------------------------
 BYTE   PATT
  POIN2 Label_014600C8
//  #01 //061   ----------------------------------------
 BYTE   PATT
  POIN2 Label_014600E1
//  #01 //062   ----------------------------------------
 BYTE   PATT
  POIN2 Label_01460104
//  #01 //063   ----------------------------------------
 BYTE   PATT
  POIN2 Label_014600C8
//  #01 //064   ----------------------------------------
 BYTE   PATT
  POIN2 Label_01460125
//  #01 //065   ----------------------------------------
 BYTE   PATT
  POIN2 Label_0146013D
//  #01 //066   ----------------------------------------
 BYTE   PATT
  POIN2 Label_014600C8
//  #01 //067   ----------------------------------------
 BYTE   PATT
  POIN2 Label_014600E1
//  #01 //068   ----------------------------------------
 BYTE   PATT
  POIN2 Label_01460104
//  #01 //069   ----------------------------------------
 BYTE   PATT
  POIN2 Label_014600C8
//  #01 //070   ----------------------------------------
 BYTE   PATT
  POIN2 Label_01460169
//  #01 //071   ----------------------------------------
 BYTE   PATT
  POIN2 Label_01460177
//  #01 //072   ----------------------------------------
 BYTE   PATT
  POIN2 Label_0146018A
//  #01 //073   ----------------------------------------
 BYTE   PATT
  POIN2 Label_014601B6
//  #01 //074   ----------------------------------------
 BYTE   EOT
 BYTE   En3
 BYTE   W48
 BYTE   W96
//  #01 //075   ----------------------------------------
 BYTE   W96
//  #01 //076   ----------------------------------------
 BYTE   W96
//  #01 //077   ----------------------------------------
 BYTE   W96
//  #01 //078   ----------------------------------------
 BYTE   W96
//  #01 //079   ----------------------------------------
 BYTE   W96
//  #01 //080   ----------------------------------------
 BYTE   W96
//  #01 //081   ----------------------------------------
 BYTE   W96
//  #01 //082   ----------------------------------------
 BYTE   W96
//  #01 //083   ----------------------------------------
 BYTE   W96
//  #01 //084   ----------------------------------------
 BYTE   W96
//  #01 //085   ----------------------------------------
 BYTE   W96
//  #01 //086   ----------------------------------------
 BYTE   W96
//  #01 //087   ----------------------------------------
 BYTE   W96
//  #01 //088   ----------------------------------------
 BYTE   W96
//  #01 //089   ----------------------------------------
 BYTE   W96
//  #01 //090   ----------------------------------------
 BYTE   W96
//  #01 //091   ----------------------------------------
 BYTE   W96
//  #01 //092   ----------------------------------------
 BYTE   W96
//  #01 //093   ----------------------------------------
 BYTE   W96
//  #01 //094   ----------------------------------------
 BYTE   W96
//  #01 //095   ----------------------------------------
 BYTE   PATT
  POIN2 Label_014601F5
//  #01 //096   ----------------------------------------
 BYTE   PATT
  POIN2 Label_014600C8
//  #01 //097   ----------------------------------------
 BYTE   PATT
  POIN2 Label_014600E1
//  #01 //098   ----------------------------------------
 BYTE   PATT
  POIN2 Label_01460104
//  #01 //099   ----------------------------------------
 BYTE   PATT
  POIN2 Label_014600C8
//  #01 //100   ----------------------------------------
 BYTE   PATT
  POIN2 Label_01460125
//  #01 //101   ----------------------------------------
 BYTE   PATT
  POIN2 Label_0146013D
//  #01 //102   ----------------------------------------
 BYTE   PATT
  POIN2 Label_014600C8
//  #01 //103   ----------------------------------------
 BYTE   PATT
  POIN2 Label_014600E1
//  #01 //104   ----------------------------------------
 BYTE   PATT
  POIN2 Label_01460104
//  #01 //105   ----------------------------------------
 BYTE   PATT
  POIN2 Label_014600C8
//  #01 //106   ----------------------------------------
 BYTE   PATT
  POIN2 Label_01460169
//  #01 //107   ----------------------------------------
 BYTE   PATT
  POIN2 Label_01460177
//  #01 //108   ----------------------------------------
 BYTE   PATT
  POIN2 Label_0146018A
//  #01 //109   ----------------------------------------
 BYTE   PATT
  POIN2 Label_014601B6
//  #01 //110   ----------------------------------------
 BYTE   EOT
 BYTE   En3
 BYTE   W48
 BYTE   W96
//  #01 //111   ----------------------------------------
 BYTE   W96
//  #01 //112   ----------------------------------------
 BYTE   W96
//  #01 //113   ----------------------------------------
 BYTE   W96
//  #01 //114   ----------------------------------------
 BYTE   W96
//  #01 //115   ----------------------------------------
 BYTE   W96
//  #01 //116   ----------------------------------------
 BYTE   W96
//  #01 //117   ----------------------------------------
 BYTE   W96
//  #01 //118   ----------------------------------------
 BYTE   W96
//  #01 //119   ----------------------------------------
 BYTE   W96
//  #01 //120   ----------------------------------------
 BYTE   W96
//  #01 //121   ----------------------------------------
 BYTE   W96
//  #01 //122   ----------------------------------------
 BYTE   W96
//  #01 //123   ----------------------------------------
 BYTE   W96
//  #01 //124   ----------------------------------------
 BYTE   W96
//  #01 //125   ----------------------------------------
 BYTE   W96
//  #01 //126   ----------------------------------------
 BYTE   W96
//  #01 //127   ----------------------------------------
 BYTE   W96
//  #01 //128   ----------------------------------------
 BYTE   W96
//  #01 //129   ----------------------------------------
 BYTE   W96
//  #01 //130   ----------------------------------------
 BYTE   W96
//  #01 //131   ----------------------------------------
 BYTE   PATT
  POIN2 Label_014601F5
//  #01 //132   ----------------------------------------
 BYTE   PATT
  POIN2 Label_014600C8
//  #01 //133   ----------------------------------------
 BYTE   PATT
  POIN2 Label_014600E1
//  #01 //134   ----------------------------------------
 BYTE   PATT
  POIN2 Label_01460104
//  #01 //135   ----------------------------------------
 BYTE   PATT
  POIN2 Label_014600C8
//  #01 //136   ----------------------------------------
 BYTE   PATT
  POIN2 Label_01460125
//  #01 //137   ----------------------------------------
 BYTE   PATT
  POIN2 Label_0146013D
//  #01 //138   ----------------------------------------
 BYTE   PATT
  POIN2 Label_014600C8
//  #01 //139   ----------------------------------------
 BYTE   PATT
  POIN2 Label_014600E1
//  #01 //140   ----------------------------------------
 BYTE   PATT
  POIN2 Label_01460104
//  #01 //141   ----------------------------------------
 BYTE   PATT
  POIN2 Label_014600C8
//  #01 //142   ----------------------------------------
 BYTE   PATT
  POIN2 Label_01460169
//  #01 //143   ----------------------------------------
 BYTE   PATT
  POIN2 Label_01460177
//  #01 //144   ----------------------------------------
 BYTE   PATT
  POIN2 Label_0146018A
//  #01 //145   ----------------------------------------
 BYTE   PATT
  POIN2 Label_014601B6
//  #01 //146   ----------------------------------------
 BYTE   EOT
 BYTE   En3
 BYTE   FINE

//**************** Track 2 (Midi-Chn.1) ****************//

song09_002:
//  #02 //000   ----------------------------------------
 BYTE   KEYSH   song09_key+0
 BYTE   MODT 0
 BYTE   LFOS 44
 BYTE   W24
 BYTE   VOICE   79
 BYTE   VOL   15*song09_mvl/mxv
 BYTE   PAN   c_v-64
 BYTE   W96
//  #02 //001   ----------------------------------------
 BYTE   W96
//  #02 //002   ----------------------------------------
 BYTE   W96
//  #02 //003   ----------------------------------------
 BYTE   W96
//  #02 //004   ----------------------------------------
 BYTE   W96
//  #02 //005   ----------------------------------------
 BYTE   W96
//  #02 //006   ----------------------------------------
 BYTE   W96
//  #02 //007   ----------------------------------------
 BYTE   W96
//  #02 //008   ----------------------------------------
 BYTE   W96
//  #02 //009   ----------------------------------------
 BYTE   W96
//  #02 //010   ----------------------------------------
 BYTE   W96
//  #02 //011   ----------------------------------------
 BYTE   W96
//  #02 //012   ----------------------------------------
 BYTE   W72
Label_0145A67E:
 BYTE   VOL   15*song09_mvl/mxv
 BYTE   W24
//  #02 //013   ----------------------------------------
 BYTE   W96
//  #02 //014   ----------------------------------------
 BYTE   W96
//  #02 //015   ----------------------------------------
 BYTE   W96
//  #02 //016   ----------------------------------------
 BYTE   W96
//  #02 //017   ----------------------------------------
 BYTE   W96
//  #02 //018   ----------------------------------------
 BYTE   W96
//  #02 //019   ----------------------------------------
 BYTE   W96
//  #02 //020   ----------------------------------------
 BYTE   W96
//  #02 //021   ----------------------------------------
 BYTE   W96
//  #02 //022   ----------------------------------------
 BYTE   W96
//  #02 //023   ----------------------------------------
 BYTE   W72
 BYTE   N12  Dn4  v127
 BYTE   W12
 BYTE   N06
 BYTE   W06
 BYTE   Fs4
 BYTE   W06
//  #02 //024   ----------------------------------------
Label_0145A694:
 BYTE   N06  Gn4  v127
 BYTE   W06
 BYTE   An4
 BYTE   W06
 BYTE   N18  Bn4
 BYTE   W18
 BYTE   N06  Bn4  v044
 BYTE   W06
 BYTE   An4  v127
 BYTE   W06
 BYTE   Gn4
 BYTE   W06
 BYTE   N12  Fs4
 BYTE   W12
 BYTE   Dn4
 BYTE   W12
 BYTE   Fs4
 BYTE   W12
 BYTE   En4
 BYTE   W12
 BYTE   PEND 
//  #02 //025   ----------------------------------------
Label_0145A6B0:
 BYTE   N12  Bn3  v127
 BYTE   W12
 BYTE   An3
 BYTE   W12
 BYTE   N06  Bn3
 BYTE   W06
 BYTE   Bn3  v044
 BYTE   W06
 BYTE   En4  v127
 BYTE   W06
 BYTE   Fs4
 BYTE   W06
 BYTE   Gn4
 BYTE   W06
 BYTE   An4
 BYTE   W06
 BYTE   N18  Bn4
 BYTE   W18
 BYTE   N06  Bn4  v044
 BYTE   W06
 BYTE   An4  v127
 BYTE   W06
 BYTE   Gn4
 BYTE   W06
 BYTE   PEND 
//  #02 //026   ----------------------------------------
Label_0145A6D2:
 BYTE   N12  Fs4  v127
 BYTE   W12
 BYTE   Dn4
 BYTE   W12
 BYTE   Fs4
 BYTE   W12
 BYTE   En4
 BYTE   W12
 BYTE   Bn4
 BYTE   W12
 BYTE   An4
 BYTE   W12
 BYTE   N06  Bn4
 BYTE   W06
 BYTE   Bn4  v044
 BYTE   W06
 BYTE   En4  v127
 BYTE   W06
 BYTE   Fs4
 BYTE   W06
 BYTE   PEND 
//  #02 //027   ----------------------------------------
 BYTE   PATT
  POIN2 Label_0145A694
//  #02 //028   ----------------------------------------
Label_0145A6F1:
 BYTE   N12  Bn3  v127
 BYTE   W12
 BYTE   An3
 BYTE   W12
 BYTE   Bn3
 BYTE   W12
 BYTE   Bn3  v044
 BYTE   W12
 BYTE   N06  Bn3  v127
 BYTE   W06
 BYTE   Dn4
 BYTE   W06
 BYTE   N24  En4
 BYTE   W24
 BYTE   N12  Gn4
 BYTE   W12
 BYTE   PEND 
//  #02 //029   ----------------------------------------
Label_0145A709:
 BYTE   N12  Fs4  v127
 BYTE   W12
 BYTE   En4
 BYTE   W12
 BYTE   Dn4
 BYTE   W12
 BYTE   N36  Bn3
 BYTE   W36
 BYTE   N12  Bn3  v044
 BYTE   W12
 BYTE   N06  En4  v127
 BYTE   W06
 BYTE   Fs4
 BYTE   W06
 BYTE   PEND 
//  #02 //030   ----------------------------------------
 BYTE   PATT
  POIN2 Label_0145A694
//  #02 //031   ----------------------------------------
 BYTE   PATT
  POIN2 Label_0145A6B0
//  #02 //032   ----------------------------------------
 BYTE   PATT
  POIN2 Label_0145A6D2
//  #02 //033   ----------------------------------------
 BYTE   PATT
  POIN2 Label_0145A694
//  #02 //034   ----------------------------------------
Label_0145A733:
 BYTE   N12  Bn3  v127
 BYTE   W12
 BYTE   An3
 BYTE   W12
 BYTE   Bn3
 BYTE   W12
 BYTE   An3
 BYTE   W12
 BYTE   Gn3
 BYTE   W12
 BYTE   N60  En3
 BYTE   W36
 BYTE   PEND 
//  #02 //035   ----------------------------------------
Label_0145A743:
 BYTE   W24
 BYTE   N12  En3  v044
 BYTE   W12
 BYTE   N24  En3  v127
 BYTE   W24
 BYTE   N12  Gn3
 BYTE   W12
 BYTE   Fs3
 BYTE   W12
 BYTE   En3
 BYTE   W12
 BYTE   PEND 
//  #02 //036   ----------------------------------------
Label_0145A754:
 BYTE   N12  Dn3  v127
 BYTE   W12
 BYTE   TIE  En3
 BYTE   W04
 BYTE   VOL   15*song09_mvl/mxv
 BYTE   W06
 BYTE   VOL   15*song09_mvl/mxv
 BYTE   W06
 BYTE   VOL   15*song09_mvl/mxv
 BYTE   W06
 BYTE   VOL   15*song09_mvl/mxv
 BYTE   W12
 BYTE   VOL   15*song09_mvl/mxv
 BYTE   W03
 BYTE   VOL   15*song09_mvl/mxv
 BYTE   W08
 BYTE   VOL   15*song09_mvl/mxv
 BYTE   W09
 BYTE   VOL   15*song09_mvl/mxv
 BYTE   W06
 BYTE   VOL   15*song09_mvl/mxv
 BYTE   W03
 BYTE   VOL   15*song09_mvl/mxv
 BYTE   W03
 BYTE   VOL   15*song09_mvl/mxv
 BYTE   W03
 BYTE   VOL   15*song09_mvl/mxv
 BYTE   W06
 BYTE   VOL   15*song09_mvl/mxv
 BYTE   W04
 BYTE   VOL   15*song09_mvl/mxv
 BYTE   W03
 BYTE   VOL   15*song09_mvl/mxv
 BYTE   W02
 BYTE   PEND 
//  #02 //037   ----------------------------------------
Label_0145A77B:
 BYTE   W01
 BYTE   VOL   15*song09_mvl/mxv
 BYTE   W03
 BYTE   VOL   15*song09_mvl/mxv
 BYTE   W03
 BYTE   VOL   15*song09_mvl/mxv
 BYTE   W03
 BYTE   VOL   15*song09_mvl/mxv
 BYTE   W03
 BYTE   VOL   15*song09_mvl/mxv
 BYTE   W03
 BYTE   VOL   15*song09_mvl/mxv
 BYTE   W03
 BYTE   VOL   15*song09_mvl/mxv
 BYTE   W03
 BYTE   VOL   15*song09_mvl/mxv
 BYTE   W03
 BYTE   VOL   15*song09_mvl/mxv
 BYTE   W05
 BYTE   VOL   15*song09_mvl/mxv
 BYTE   W03
 BYTE   VOL   15*song09_mvl/mxv
 BYTE   W03
 BYTE   VOL   15*song09_mvl/mxv
 BYTE   W03
 BYTE   VOL   15*song09_mvl/mxv
 BYTE   W03
 BYTE   VOL   15*song09_mvl/mxv
 BYTE   W03
 BYTE   VOL   15*song09_mvl/mxv
 BYTE   W03
 BYTE   VOL   15*song09_mvl/mxv
 BYTE   W03
 BYTE   VOL   15*song09_mvl/mxv
 BYTE   W03
 BYTE   VOL   15*song09_mvl/mxv
 BYTE   W03
 BYTE   VOL   15*song09_mvl/mxv
 BYTE   W03
 BYTE   PEND 
 BYTE   EOT
 BYTE   En3
 BYTE   W36
//  #02 //038   ----------------------------------------
 BYTE   W96
//  #02 //039   ----------------------------------------
 BYTE   W96
//  #02 //040   ----------------------------------------
 BYTE   W96
//  #02 //041   ----------------------------------------
 BYTE   W96
//  #02 //042   ----------------------------------------
 BYTE   W96
//  #02 //043   ----------------------------------------
 BYTE   W96
//  #02 //044   ----------------------------------------
 BYTE   W96
//  #02 //045   ----------------------------------------
 BYTE   W96
//  #02 //046   ----------------------------------------
 BYTE   W96
//  #02 //047   ----------------------------------------
 BYTE   W96
//  #02 //048   ----------------------------------------
 BYTE   W72
 BYTE   GoTo
  POIN2 Label_0145A67E
//  #02 //049   ----------------------------------------
 BYTE   W24
 BYTE   W96
//  #02 //050   ----------------------------------------
 BYTE   W96
//  #02 //051   ----------------------------------------
 BYTE   W96
//  #02 //052   ----------------------------------------
 BYTE   W96
//  #02 //053   ----------------------------------------
 BYTE   W96
//  #02 //054   ----------------------------------------
 BYTE   W96
//  #02 //055   ----------------------------------------
 BYTE   W96
//  #02 //056   ----------------------------------------
 BYTE   W96
//  #02 //057   ----------------------------------------
 BYTE   W96
//  #02 //058   ----------------------------------------
 BYTE   W96
//  #02 //059   ----------------------------------------
Label_0145A7C2:
 BYTE   W56
 BYTE   W03
 BYTE   VOL   15*song09_mvl/mxv
 BYTE   W13
 BYTE   N12  Dn4  v127
 BYTE   W12
 BYTE   N06
 BYTE   W06
 BYTE   Fs4
 BYTE   W06
 BYTE   PEND 
//  #02 //060   ----------------------------------------
 BYTE   PATT
  POIN2 Label_0145A694
//  #02 //061   ----------------------------------------
 BYTE   PATT
  POIN2 Label_0145A6B0
//  #02 //062   ----------------------------------------
 BYTE   PATT
  POIN2 Label_0145A6D2
//  #02 //063   ----------------------------------------
 BYTE   PATT
  POIN2 Label_0145A694
//  #02 //064   ----------------------------------------
 BYTE   PATT
  POIN2 Label_0145A6F1
//  #02 //065   ----------------------------------------
 BYTE   PATT
  POIN2 Label_0145A709
//  #02 //066   ----------------------------------------
 BYTE   PATT
  POIN2 Label_0145A694
//  #02 //067   ----------------------------------------
 BYTE   PATT
  POIN2 Label_0145A6B0
//  #02 //068   ----------------------------------------
 BYTE   PATT
  POIN2 Label_0145A6D2
//  #02 //069   ----------------------------------------
 BYTE   PATT
  POIN2 Label_0145A694
//  #02 //070   ----------------------------------------
 BYTE   PATT
  POIN2 Label_0145A733
//  #02 //071   ----------------------------------------
 BYTE   PATT
  POIN2 Label_0145A743
//  #02 //072   ----------------------------------------
 BYTE   PATT
  POIN2 Label_0145A754
//  #02 //073   ----------------------------------------
 BYTE   PATT
  POIN2 Label_0145A77B
//  #02 //074   ----------------------------------------
 BYTE   EOT
 BYTE   En3
 BYTE   W36
 BYTE   W96
//  #02 //075   ----------------------------------------
 BYTE   W96
//  #02 //076   ----------------------------------------
 BYTE   W96
//  #02 //077   ----------------------------------------
 BYTE   W96
//  #02 //078   ----------------------------------------
 BYTE   W96
//  #02 //079   ----------------------------------------
 BYTE   W96
//  #02 //080   ----------------------------------------
 BYTE   W96
//  #02 //081   ----------------------------------------
 BYTE   W96
//  #02 //082   ----------------------------------------
 BYTE   W96
//  #02 //083   ----------------------------------------
 BYTE   W96
//  #02 //084   ----------------------------------------
 BYTE   W96
//  #02 //085   ----------------------------------------
 BYTE   W96
//  #02 //086   ----------------------------------------
 BYTE   W96
//  #02 //087   ----------------------------------------
 BYTE   W96
//  #02 //088   ----------------------------------------
 BYTE   W96
//  #02 //089   ----------------------------------------
 BYTE   W96
//  #02 //090   ----------------------------------------
 BYTE   W96
//  #02 //091   ----------------------------------------
 BYTE   W96
//  #02 //092   ----------------------------------------
 BYTE   W96
//  #02 //093   ----------------------------------------
 BYTE   W96
//  #02 //094   ----------------------------------------
 BYTE   W96
//  #02 //095   ----------------------------------------
 BYTE   PATT
  POIN2 Label_0145A7C2
//  #02 //096   ----------------------------------------
 BYTE   PATT
  POIN2 Label_0145A694
//  #02 //097   ----------------------------------------
 BYTE   PATT
  POIN2 Label_0145A6B0
//  #02 //098   ----------------------------------------
 BYTE   PATT
  POIN2 Label_0145A6D2
//  #02 //099   ----------------------------------------
 BYTE   PATT
  POIN2 Label_0145A694
//  #02 //100   ----------------------------------------
 BYTE   PATT
  POIN2 Label_0145A6F1
//  #02 //101   ----------------------------------------
 BYTE   PATT
  POIN2 Label_0145A709
//  #02 //102   ----------------------------------------
 BYTE   PATT
  POIN2 Label_0145A694
//  #02 //103   ----------------------------------------
 BYTE   PATT
  POIN2 Label_0145A6B0
//  #02 //104   ----------------------------------------
 BYTE   PATT
  POIN2 Label_0145A6D2
//  #02 //105   ----------------------------------------
 BYTE   PATT
  POIN2 Label_0145A694
//  #02 //106   ----------------------------------------
 BYTE   PATT
  POIN2 Label_0145A733
//  #02 //107   ----------------------------------------
 BYTE   PATT
  POIN2 Label_0145A743
//  #02 //108   ----------------------------------------
 BYTE   PATT
  POIN2 Label_0145A754
//  #02 //109   ----------------------------------------
 BYTE   PATT
  POIN2 Label_0145A77B
//  #02 //110   ----------------------------------------
 BYTE   EOT
 BYTE   En3
 BYTE   W36
 BYTE   W96
//  #02 //111   ----------------------------------------
 BYTE   W96
//  #02 //112   ----------------------------------------
 BYTE   W96
//  #02 //113   ----------------------------------------
 BYTE   W96
//  #02 //114   ----------------------------------------
 BYTE   W96
//  #02 //115   ----------------------------------------
 BYTE   W96
//  #02 //116   ----------------------------------------
 BYTE   W96
//  #02 //117   ----------------------------------------
 BYTE   W96
//  #02 //118   ----------------------------------------
 BYTE   W96
//  #02 //119   ----------------------------------------
 BYTE   W96
//  #02 //120   ----------------------------------------
 BYTE   W96
//  #02 //121   ----------------------------------------
 BYTE   W96
//  #02 //122   ----------------------------------------
 BYTE   W96
//  #02 //123   ----------------------------------------
 BYTE   W96
//  #02 //124   ----------------------------------------
 BYTE   W96
//  #02 //125   ----------------------------------------
 BYTE   W96
//  #02 //126   ----------------------------------------
 BYTE   W96
//  #02 //127   ----------------------------------------
 BYTE   W96
//  #02 //128   ----------------------------------------
 BYTE   W96
//  #02 //129   ----------------------------------------
 BYTE   W96
//  #02 //130   ----------------------------------------
 BYTE   W96
//  #02 //131   ----------------------------------------
 BYTE   PATT
  POIN2 Label_0145A7C2
//  #02 //132   ----------------------------------------
 BYTE   PATT
  POIN2 Label_0145A694
//  #02 //133   ----------------------------------------
 BYTE   PATT
  POIN2 Label_0145A6B0
//  #02 //134   ----------------------------------------
 BYTE   PATT
  POIN2 Label_0145A6D2
//  #02 //135   ----------------------------------------
 BYTE   PATT
  POIN2 Label_0145A694
//  #02 //136   ----------------------------------------
 BYTE   PATT
  POIN2 Label_0145A6F1
//  #02 //137   ----------------------------------------
 BYTE   PATT
  POIN2 Label_0145A709
//  #02 //138   ----------------------------------------
 BYTE   PATT
  POIN2 Label_0145A694
//  #02 //139   ----------------------------------------
 BYTE   PATT
  POIN2 Label_0145A6B0
//  #02 //140   ----------------------------------------
 BYTE   PATT
  POIN2 Label_0145A6D2
//  #02 //141   ----------------------------------------
 BYTE   PATT
  POIN2 Label_0145A694
//  #02 //142   ----------------------------------------
 BYTE   PATT
  POIN2 Label_0145A733
//  #02 //143   ----------------------------------------
 BYTE   PATT
  POIN2 Label_0145A743
//  #02 //144   ----------------------------------------
 BYTE   PATT
  POIN2 Label_0145A754
//  #02 //145   ----------------------------------------
 BYTE   PATT
  POIN2 Label_0145A77B
//  #02 //146   ----------------------------------------
 BYTE   EOT
 BYTE   En3
 BYTE   FINE

//**************** Track 3 (Midi-Chn.2) ****************//

song09_003:
//  #03 //000   ----------------------------------------
 BYTE   KEYSH   song09_key+0
 BYTE   MODT 0
 BYTE   LFOS 44
 BYTE   W24
 BYTE   VOICE   54
 BYTE   VOL   34*song09_mvl/mxv
 BYTE   PAN   c_v+0
 BYTE   VOL   0*song09_mvl/mxv
 BYTE   TIE  An1  v100
 BYTE   W02
 BYTE   VOL   0*song09_mvl/mxv
 BYTE   W01
 BYTE   VOL   0*song09_mvl/mxv
 BYTE   W02
 BYTE   VOL   0*song09_mvl/mxv
 BYTE   W01
 BYTE   VOL   0*song09_mvl/mxv
 BYTE   W03
 BYTE   VOL   0*song09_mvl/mxv
 BYTE   W02
 BYTE   VOL   0*song09_mvl/mxv
 BYTE   W01
 BYTE   VOL   0*song09_mvl/mxv
 BYTE   W02
 BYTE   VOL   0*song09_mvl/mxv
 BYTE   W01
 BYTE   VOL   1*song09_mvl/mxv
 BYTE   W02
 BYTE   VOL   1*song09_mvl/mxv
 BYTE   W01
 BYTE   VOL   1*song09_mvl/mxv
 BYTE   W02
 BYTE   VOL   1*song09_mvl/mxv
 BYTE   W01
 BYTE   VOL   1*song09_mvl/mxv
 BYTE   W02
 BYTE   VOL   1*song09_mvl/mxv
 BYTE   W03
 BYTE   VOL   1*song09_mvl/mxv
 BYTE   W01
 BYTE   VOL   1*song09_mvl/mxv
 BYTE   W02
 BYTE   VOL   2*song09_mvl/mxv
 BYTE   W01
 BYTE   VOL   2*song09_mvl/mxv
 BYTE   W02
 BYTE   VOL   2*song09_mvl/mxv
 BYTE   W01
 BYTE   VOL   2*song09_mvl/mxv
 BYTE   W02
 BYTE   VOL   3*song09_mvl/mxv
 BYTE   W01
 BYTE   VOL   3*song09_mvl/mxv
 BYTE   W03
 BYTE   VOL   3*song09_mvl/mxv
 BYTE   W02
 BYTE   VOL   3*song09_mvl/mxv
 BYTE   W01
 BYTE   VOL   3*song09_mvl/mxv
 BYTE   W02
 BYTE   VOL   3*song09_mvl/mxv
 BYTE   W01
 BYTE   VOL   4*song09_mvl/mxv
 BYTE   W02
 BYTE   VOL   4*song09_mvl/mxv
 BYTE   W01
 BYTE   VOL   4*song09_mvl/mxv
 BYTE   W02
 BYTE   VOL   5*song09_mvl/mxv
 BYTE   W01
 BYTE   VOL   5*song09_mvl/mxv
 BYTE   W02
 BYTE   VOL   5*song09_mvl/mxv
 BYTE   W03
 BYTE   VOL   5*song09_mvl/mxv
 BYTE   W01
 BYTE   VOL   6*song09_mvl/mxv
 BYTE   W02
 BYTE   VOL   6*song09_mvl/mxv
 BYTE   W01
 BYTE   VOL   6*song09_mvl/mxv
 BYTE   W02
 BYTE   VOL   6*song09_mvl/mxv
 BYTE   W01
 BYTE   VOL   6*song09_mvl/mxv
 BYTE   W02
 BYTE   VOL   6*song09_mvl/mxv
 BYTE   W01
 BYTE   VOL   7*song09_mvl/mxv
 BYTE   W03
 BYTE   VOL   8*song09_mvl/mxv
 BYTE   W02
 BYTE   VOL   8*song09_mvl/mxv
 BYTE   W01
//  #03 //001   ----------------------------------------
 BYTE   VOL   8*song09_mvl/mxv
 BYTE   W02
 BYTE   VOL   8*song09_mvl/mxv
 BYTE   W01
 BYTE   VOL   8*song09_mvl/mxv
 BYTE   W02
 BYTE   VOL   9*song09_mvl/mxv
 BYTE   W01
 BYTE   VOL   10*song09_mvl/mxv
 BYTE   W02
 BYTE   VOL   10*song09_mvl/mxv
 BYTE   W01
 BYTE   VOL   10*song09_mvl/mxv
 BYTE   W02
 BYTE   VOL   10*song09_mvl/mxv
 BYTE   W01
 BYTE   VOL   10*song09_mvl/mxv
 BYTE   W02
 BYTE   VOL   11*song09_mvl/mxv
 BYTE   W01
 BYTE   VOL   11*song09_mvl/mxv
 BYTE   W02
 BYTE   VOL   11*song09_mvl/mxv
 BYTE   W01
 BYTE   VOL   11*song09_mvl/mxv
 BYTE   W02
 BYTE   VOL   12*song09_mvl/mxv
 BYTE   W01
 BYTE   VOL   12*song09_mvl/mxv
 BYTE   W02
 BYTE   VOL   13*song09_mvl/mxv
 BYTE   W01
Label_01463154:
 BYTE   VOL   13*song09_mvl/mxv
 BYTE   W02
 BYTE   VOL   13*song09_mvl/mxv
 BYTE   W03
 BYTE   VOL   14*song09_mvl/mxv
 BYTE   W01
 BYTE   VOL   14*song09_mvl/mxv
 BYTE   W02
 BYTE   VOL   14*song09_mvl/mxv
 BYTE   W01
 BYTE   VOL   15*song09_mvl/mxv
 BYTE   W02
 BYTE   VOL   15*song09_mvl/mxv
 BYTE   W01
 BYTE   VOL   15*song09_mvl/mxv
 BYTE   W02
 BYTE   VOL   17*song09_mvl/mxv
 BYTE   W01
 BYTE   VOL   17*song09_mvl/mxv
 BYTE   W03
 BYTE   VOL   17*song09_mvl/mxv
 BYTE   W02
 BYTE   VOL   18*song09_mvl/mxv
 BYTE   W01
 BYTE   VOL   18*song09_mvl/mxv
 BYTE   W02
 BYTE   VOL   18*song09_mvl/mxv
 BYTE   W01
 BYTE   VOL   19*song09_mvl/mxv
 BYTE   W02
 BYTE   VOL   19*song09_mvl/mxv
 BYTE   W01
 BYTE   VOL   19*song09_mvl/mxv
 BYTE   W02
 BYTE   VOL   20*song09_mvl/mxv
 BYTE   W01
 BYTE   VOL   20*song09_mvl/mxv
 BYTE   W02
 BYTE   VOL   20*song09_mvl/mxv
 BYTE   W03
 BYTE   VOL   21*song09_mvl/mxv
 BYTE   W01
 BYTE   VOL   21*song09_mvl/mxv
 BYTE   W02
 BYTE   VOL   22*song09_mvl/mxv
 BYTE   W01
 BYTE   VOL   22*song09_mvl/mxv
 BYTE   W02
 BYTE   VOL   22*song09_mvl/mxv
 BYTE   W01
 BYTE   VOL   23*song09_mvl/mxv
 BYTE   W02
 BYTE   VOL   23*song09_mvl/mxv
 BYTE   W01
 BYTE   VOL   24*song09_mvl/mxv
 BYTE   W03
 BYTE   VOL   25*song09_mvl/mxv
 BYTE   W02
 BYTE   VOL   25*song09_mvl/mxv
 BYTE   W01
 BYTE   VOL   26*song09_mvl/mxv
 BYTE   W02
 BYTE   VOL   27*song09_mvl/mxv
 BYTE   W01
 BYTE   VOL   27*song09_mvl/mxv
 BYTE   W02
 BYTE   VOL   27*song09_mvl/mxv
 BYTE   W01
 BYTE   VOL   28*song09_mvl/mxv
 BYTE   W02
 BYTE   VOL   28*song09_mvl/mxv
 BYTE   W01
 BYTE   VOL   28*song09_mvl/mxv
 BYTE   W02
 BYTE   VOL   29*song09_mvl/mxv
 BYTE   W03
 BYTE   VOL   29*song09_mvl/mxv
 BYTE   W01
 BYTE   VOL   30*song09_mvl/mxv
 BYTE   W15
//  #03 //002   ----------------------------------------
 BYTE   VOL   29*song09_mvl/mxv
 BYTE   W05
 BYTE   VOL   29*song09_mvl/mxv
 BYTE   W10
 BYTE   PEND 
Label_014631AA:
 BYTE   W03
 BYTE   VOL   28*song09_mvl/mxv
 BYTE   W03
 BYTE   VOL   28*song09_mvl/mxv
 BYTE   W05
 BYTE   VOL   27*song09_mvl/mxv
 BYTE   W07
 BYTE   VOL   27*song09_mvl/mxv
 BYTE   W02
 BYTE   VOL   27*song09_mvl/mxv
 BYTE   W07
 BYTE   VOL   26*song09_mvl/mxv
 BYTE   W05
 BYTE   VOL   25*song09_mvl/mxv
 BYTE   W01
 BYTE   VOL   24*song09_mvl/mxv
 BYTE   W03
 BYTE   VOL   23*song09_mvl/mxv
 BYTE   W02
 BYTE   VOL   23*song09_mvl/mxv
 BYTE   W03
 BYTE   VOL   22*song09_mvl/mxv
 BYTE   W03
 BYTE   VOL   22*song09_mvl/mxv
 BYTE   W01
 BYTE   VOL   21*song09_mvl/mxv
 BYTE   W03
 BYTE   VOL   20*song09_mvl/mxv
 BYTE   W05
 BYTE   VOL   20*song09_mvl/mxv
 BYTE   W01
 BYTE   VOL   19*song09_mvl/mxv
 BYTE   W03
 BYTE   VOL   18*song09_mvl/mxv
 BYTE   W02
 BYTE   VOL   18*song09_mvl/mxv
 BYTE   W03
 BYTE   VOL   17*song09_mvl/mxv
 BYTE   W01
 BYTE   VOL   15*song09_mvl/mxv
 BYTE   W03
 BYTE   VOL   14*song09_mvl/mxv
 BYTE   W02
 BYTE   VOL   14*song09_mvl/mxv
 BYTE   W03
 BYTE   VOL   13*song09_mvl/mxv
 BYTE   W03
 BYTE   VOL   11*song09_mvl/mxv
 BYTE   W01
 BYTE   VOL   11*song09_mvl/mxv
 BYTE   W03
 BYTE   VOL   10*song09_mvl/mxv
 BYTE   W02
 BYTE   VOL   10*song09_mvl/mxv
 BYTE   W03
//  #03 //003   ----------------------------------------
 BYTE   VOL   9*song09_mvl/mxv
 BYTE   W01
 BYTE   VOL   8*song09_mvl/mxv
 BYTE   W03
 BYTE   VOL   5*song09_mvl/mxv
 BYTE   W02
 BYTE   VOL   5*song09_mvl/mxv
 BYTE   W03
 BYTE   VOL   3*song09_mvl/mxv
 BYTE   W03
 BYTE   PEND 
 BYTE   EOT
 BYTE   An1
 BYTE   VOL   0*song09_mvl/mxv
 BYTE   W01
Label_014631F2:
 BYTE   TIE  Gn1  v100
 BYTE   W02
 BYTE   VOL   0*song09_mvl/mxv
 BYTE   W01
 BYTE   VOL   0*song09_mvl/mxv
 BYTE   W02
 BYTE   VOL   0*song09_mvl/mxv
 BYTE   W01
 BYTE   VOL   0*song09_mvl/mxv
 BYTE   W03
 BYTE   VOL   0*song09_mvl/mxv
 BYTE   W02
 BYTE   VOL   0*song09_mvl/mxv
 BYTE   W01
 BYTE   VOL   0*song09_mvl/mxv
 BYTE   W02
 BYTE   VOL   0*song09_mvl/mxv
 BYTE   W01
 BYTE   VOL   1*song09_mvl/mxv
 BYTE   W02
 BYTE   VOL   1*song09_mvl/mxv
 BYTE   W01
 BYTE   VOL   1*song09_mvl/mxv
 BYTE   W02
 BYTE   VOL   1*song09_mvl/mxv
 BYTE   W01
 BYTE   VOL   1*song09_mvl/mxv
 BYTE   W02
 BYTE   VOL   1*song09_mvl/mxv
 BYTE   W03
 BYTE   VOL   1*song09_mvl/mxv
 BYTE   W01
 BYTE   VOL   1*song09_mvl/mxv
 BYTE   W02
 BYTE   VOL   2*song09_mvl/mxv
 BYTE   W01
 BYTE   VOL   2*song09_mvl/mxv
 BYTE   W02
 BYTE   VOL   2*song09_mvl/mxv
 BYTE   W01
 BYTE   VOL   2*song09_mvl/mxv
 BYTE   W02
 BYTE   VOL   3*song09_mvl/mxv
 BYTE   W01
 BYTE   VOL   3*song09_mvl/mxv
 BYTE   W03
 BYTE   VOL   3*song09_mvl/mxv
 BYTE   W02
 BYTE   VOL   3*song09_mvl/mxv
 BYTE   W01
 BYTE   VOL   3*song09_mvl/mxv
 BYTE   W02
 BYTE   VOL   3*song09_mvl/mxv
 BYTE   W01
 BYTE   VOL   4*song09_mvl/mxv
 BYTE   W02
 BYTE   VOL   4*song09_mvl/mxv
 BYTE   W01
 BYTE   VOL   4*song09_mvl/mxv
 BYTE   W02
 BYTE   VOL   5*song09_mvl/mxv
 BYTE   W01
 BYTE   VOL   5*song09_mvl/mxv
 BYTE   W02
 BYTE   VOL   5*song09_mvl/mxv
 BYTE   W03
 BYTE   VOL   5*song09_mvl/mxv
 BYTE   W01
 BYTE   VOL   6*song09_mvl/mxv
 BYTE   W02
 BYTE   VOL   6*song09_mvl/mxv
 BYTE   W01
 BYTE   VOL   6*song09_mvl/mxv
 BYTE   W02
 BYTE   VOL   6*song09_mvl/mxv
 BYTE   W01
 BYTE   VOL   6*song09_mvl/mxv
 BYTE   W02
 BYTE   VOL   6*song09_mvl/mxv
 BYTE   W01
 BYTE   VOL   7*song09_mvl/mxv
 BYTE   W03
 BYTE   VOL   8*song09_mvl/mxv
 BYTE   W02
 BYTE   VOL   8*song09_mvl/mxv
 BYTE   W01
 BYTE   VOL   8*song09_mvl/mxv
 BYTE   W02
 BYTE   VOL   8*song09_mvl/mxv
 BYTE   W01
 BYTE   VOL   8*song09_mvl/mxv
 BYTE   W02
 BYTE   VOL   9*song09_mvl/mxv
 BYTE   W01
 BYTE   VOL   10*song09_mvl/mxv
 BYTE   W02
 BYTE   VOL   10*song09_mvl/mxv
 BYTE   W01
 BYTE   VOL   10*song09_mvl/mxv
 BYTE   W02
//  #03 //004   ----------------------------------------
 BYTE   VOL   10*song09_mvl/mxv
 BYTE   W01
 BYTE   VOL   10*song09_mvl/mxv
 BYTE   W02
 BYTE   VOL   11*song09_mvl/mxv
 BYTE   W01
 BYTE   VOL   11*song09_mvl/mxv
 BYTE   W02
 BYTE   VOL   11*song09_mvl/mxv
 BYTE   W01
 BYTE   VOL   11*song09_mvl/mxv
 BYTE   W02
 BYTE   VOL   12*song09_mvl/mxv
 BYTE   W01
 BYTE   VOL   12*song09_mvl/mxv
 BYTE   W02
 BYTE   VOL   13*song09_mvl/mxv
 BYTE   W01
 BYTE   PEND 
 BYTE   CsM1
 BYTE   W02
 BYTE   CsM1
 BYTE   W03
 BYTE   DnM1
 BYTE   W01
 BYTE   DnM1
 BYTE   W02
 BYTE   DnM1
 BYTE   W01
 BYTE   DsM1
 BYTE   W02
 BYTE   DsM1
 BYTE   W01
 BYTE   DsM1
 BYTE   W02
 BYTE   FnM1
 BYTE   W01
 BYTE   FnM1
 BYTE   W03
 BYTE   FnM1
 BYTE   W02
 BYTE   FsM1
 BYTE   W01
 BYTE   FsM1
 BYTE   W02
 BYTE   FsM1
 BYTE   W01
 BYTE   GnM1
 BYTE   W02
 BYTE   GnM1
 BYTE   W01
 BYTE   GnM1
 BYTE   W02
 BYTE   GsM1
 BYTE   W01
 BYTE   GsM1
 BYTE   W02
 BYTE   GsM1
 BYTE   W03
 BYTE   AnM1
 BYTE   W01
 BYTE   AnM1
 BYTE   W02
 BYTE   AsM1
 BYTE   W01
 BYTE   AsM1
 BYTE   W02
 BYTE   AsM1
 BYTE   W01
 BYTE   BnM1
 BYTE   W02
 BYTE   BnM1
 BYTE   W01
 BYTE   Cn0
 BYTE   W03
 BYTE   Cs0
 BYTE   W02
 BYTE   Cs0
 BYTE   W01
 BYTE   Dn0
 BYTE   W02
 BYTE   Ds0
 BYTE   W01
 BYTE   Ds0
 BYTE   W02
 BYTE   Ds0
 BYTE   W01
 BYTE   En0
 BYTE   W02
 BYTE   En0
 BYTE   W01
 BYTE   En0
 BYTE   W02
 BYTE   Fn0
 BYTE   W03
 BYTE   Fn0
 BYTE   W01
 BYTE   Fs0
 BYTE   W15
 BYTE   Fn0
 BYTE   W15
//  #03 //005   ----------------------------------------
 BYTE   W02
 BYTE   Fn0
 BYTE   W01
 BYTE   En0
 BYTE   W03
 BYTE   En0
 BYTE   W05
 BYTE   Ds0
 BYTE   W07
 BYTE   Ds0
 BYTE   W02
 BYTE   Ds0
 BYTE   W07
 BYTE   Dn0
 BYTE   W05
 BYTE   Cs0
 BYTE   W01
 BYTE   Cn0
 BYTE   W03
 BYTE   BnM1
 BYTE   W02
 BYTE   BnM1
 BYTE   W03
 BYTE   AsM1
 BYTE   W03
 BYTE   AsM1
 BYTE   W01
 BYTE   AnM1
 BYTE   W03
 BYTE   GsM1
 BYTE   W05
 BYTE   GsM1
 BYTE   W01
 BYTE   GnM1
 BYTE   W03
 BYTE   FsM1
 BYTE   W02
 BYTE   FsM1
 BYTE   W03
 BYTE   FnM1
 BYTE   W01
 BYTE   DsM1
 BYTE   W03
 BYTE   DnM1
 BYTE   W02
 BYTE   DnM1
 BYTE   W03
 BYTE   CsM1
 BYTE   W03
 BYTE   BnM2
 BYTE   W01
 BYTE   BnM2
 BYTE   W03
 BYTE   AsM2
 BYTE   W02
 BYTE   AsM2
 BYTE   W03
 BYTE   AnM2
 BYTE   W01
 BYTE   GsM2
 BYTE   W03
 BYTE   FnM2
 BYTE   W02
 BYTE   FnM2
 BYTE   W03
 BYTE   DsM2
 BYTE   W03
 BYTE   EOT
 BYTE   VOL   0*song09_mvl/mxv
 BYTE   W01
//  #03 //006   ----------------------------------------
Label_01463305:
 BYTE   TIE  An1  v100
 BYTE   W02
 BYTE   VOL   0*song09_mvl/mxv
 BYTE   W01
 BYTE   VOL   0*song09_mvl/mxv
 BYTE   W02
 BYTE   VOL   0*song09_mvl/mxv
 BYTE   W01
 BYTE   VOL   0*song09_mvl/mxv
 BYTE   W03
 BYTE   VOL   0*song09_mvl/mxv
 BYTE   W02
 BYTE   VOL   0*song09_mvl/mxv
 BYTE   W01
 BYTE   VOL   0*song09_mvl/mxv
 BYTE   W02
 BYTE   VOL   0*song09_mvl/mxv
 BYTE   W01
 BYTE   VOL   1*song09_mvl/mxv
 BYTE   W02
 BYTE   VOL   1*song09_mvl/mxv
 BYTE   W01
 BYTE   VOL   1*song09_mvl/mxv
 BYTE   W02
 BYTE   VOL   1*song09_mvl/mxv
 BYTE   W01
 BYTE   VOL   1*song09_mvl/mxv
 BYTE   W02
 BYTE   VOL   1*song09_mvl/mxv
 BYTE   W03
 BYTE   VOL   1*song09_mvl/mxv
 BYTE   W01
 BYTE   VOL   1*song09_mvl/mxv
 BYTE   W02
 BYTE   VOL   2*song09_mvl/mxv
 BYTE   W01
 BYTE   VOL   2*song09_mvl/mxv
 BYTE   W02
 BYTE   VOL   2*song09_mvl/mxv
 BYTE   W01
 BYTE   VOL   2*song09_mvl/mxv
 BYTE   W02
 BYTE   VOL   3*song09_mvl/mxv
 BYTE   W01
 BYTE   VOL   3*song09_mvl/mxv
 BYTE   W03
 BYTE   VOL   3*song09_mvl/mxv
 BYTE   W02
 BYTE   VOL   3*song09_mvl/mxv
 BYTE   W01
 BYTE   VOL   3*song09_mvl/mxv
 BYTE   W02
 BYTE   VOL   3*song09_mvl/mxv
 BYTE   W01
 BYTE   VOL   4*song09_mvl/mxv
 BYTE   W02
 BYTE   VOL   4*song09_mvl/mxv
 BYTE   W01
 BYTE   VOL   4*song09_mvl/mxv
 BYTE   W02
 BYTE   VOL   5*song09_mvl/mxv
 BYTE   W01
 BYTE   VOL   5*song09_mvl/mxv
 BYTE   W02
 BYTE   VOL   5*song09_mvl/mxv
 BYTE   W03
 BYTE   VOL   5*song09_mvl/mxv
 BYTE   W01
 BYTE   VOL   6*song09_mvl/mxv
 BYTE   W02
 BYTE   VOL   6*song09_mvl/mxv
 BYTE   W01
 BYTE   VOL   6*song09_mvl/mxv
 BYTE   W02
 BYTE   VOL   6*song09_mvl/mxv
 BYTE   W01
 BYTE   VOL   6*song09_mvl/mxv
 BYTE   W02
 BYTE   VOL   6*song09_mvl/mxv
 BYTE   W01
 BYTE   VOL   7*song09_mvl/mxv
 BYTE   W03
 BYTE   VOL   8*song09_mvl/mxv
 BYTE   W02
 BYTE   VOL   8*song09_mvl/mxv
 BYTE   W01
 BYTE   VOL   8*song09_mvl/mxv
 BYTE   W02
 BYTE   VOL   8*song09_mvl/mxv
 BYTE   W01
 BYTE   VOL   8*song09_mvl/mxv
 BYTE   W02
 BYTE   VOL   9*song09_mvl/mxv
 BYTE   W01
 BYTE   VOL   10*song09_mvl/mxv
 BYTE   W02
 BYTE   VOL   10*song09_mvl/mxv
 BYTE   W01
 BYTE   VOL   10*song09_mvl/mxv
 BYTE   W02
 BYTE   VOL   10*song09_mvl/mxv
 BYTE   W01
 BYTE   VOL   10*song09_mvl/mxv
 BYTE   W02
 BYTE   VOL   11*song09_mvl/mxv
 BYTE   W01
 BYTE   VOL   11*song09_mvl/mxv
 BYTE   W02
 BYTE   VOL   11*song09_mvl/mxv
 BYTE   W01
 BYTE   VOL   11*song09_mvl/mxv
 BYTE   W02
 BYTE   VOL   12*song09_mvl/mxv
 BYTE   W01
 BYTE   VOL   12*song09_mvl/mxv
 BYTE   W02
 BYTE   VOL   13*song09_mvl/mxv
 BYTE   W01
 BYTE   PEND 
//  #03 //007   ----------------------------------------
 BYTE   PATT
  POIN2 Label_01463154
//  #03 //008   ----------------------------------------
 BYTE   PATT
  POIN2 Label_014631AA
//  #03 //009   ----------------------------------------
 BYTE   EOT
 BYTE   An1
 BYTE   VOL   0*song09_mvl/mxv
 BYTE   W01
//  #03 //010   ----------------------------------------
 BYTE   PATT
  POIN2 Label_014631F2
//  #03 //011   ----------------------------------------
 BYTE   PATT
  POIN2 Label_01463154
//  #03 //012   ----------------------------------------
 BYTE   PATT
  POIN2 Label_014631AA
//  #03 //013   ----------------------------------------
 BYTE   EOT
 BYTE   Gn1
 BYTE   W01
Label_014633A0:
 BYTE   TIE  Fn1  v100
 BYTE   W01
 BYTE   VOL   6*song09_mvl/mxv
 BYTE   W02
 BYTE   VOL   6*song09_mvl/mxv
 BYTE   W01
 BYTE   VOL   6*song09_mvl/mxv
 BYTE   W02
 BYTE   VOL   8*song09_mvl/mxv
 BYTE   W01
 BYTE   VOL   8*song09_mvl/mxv
 BYTE   W02
 BYTE   VOL   8*song09_mvl/mxv
 BYTE   W01
 BYTE   VOL   10*song09_mvl/mxv
 BYTE   W03
 BYTE   VOL   10*song09_mvl/mxv
 BYTE   W02
 BYTE   VOL   10*song09_mvl/mxv
 BYTE   W03
 BYTE   VOL   11*song09_mvl/mxv
 BYTE   W01
 BYTE   VOL   11*song09_mvl/mxv
 BYTE   W02
 BYTE   VOL   12*song09_mvl/mxv
 BYTE   W01
 BYTE   VOL   13*song09_mvl/mxv
 BYTE   W02
 BYTE   VOL   13*song09_mvl/mxv
 BYTE   W03
 BYTE   VOL   14*song09_mvl/mxv
 BYTE   W01
 BYTE   VOL   15*song09_mvl/mxv
 BYTE   W02
 BYTE   VOL   15*song09_mvl/mxv
 BYTE   W01
 BYTE   VOL   16*song09_mvl/mxv
 BYTE   W02
 BYTE   VOL   17*song09_mvl/mxv
 BYTE   W03
 BYTE   VOL   17*song09_mvl/mxv
 BYTE   W03
 BYTE   VOL   19*song09_mvl/mxv
 BYTE   W01
 BYTE   VOL   19*song09_mvl/mxv
 BYTE   W02
 BYTE   VOL   20*song09_mvl/mxv
 BYTE   W01
 BYTE   VOL   20*song09_mvl/mxv
 BYTE   W02
 BYTE   VOL   21*song09_mvl/mxv
 BYTE   W01
 BYTE   VOL   21*song09_mvl/mxv
 BYTE   W02
 BYTE   VOL   22*song09_mvl/mxv
 BYTE   W01
 BYTE   VOL   21*song09_mvl/mxv
 BYTE   W03
 BYTE   VOL   22*song09_mvl/mxv
 BYTE   W02
 BYTE   VOL   22*song09_mvl/mxv
 BYTE   W01
 BYTE   VOL   23*song09_mvl/mxv
 BYTE   W02
 BYTE   VOL   23*song09_mvl/mxv
 BYTE   W01
 BYTE   VOL   23*song09_mvl/mxv
 BYTE   W11
 BYTE   VOL   23*song09_mvl/mxv
 BYTE   W03
 BYTE   PEND 
Label_014633EA:
 BYTE   VOL   23*song09_mvl/mxv
 BYTE   W09
 BYTE   VOL   22*song09_mvl/mxv
 BYTE   W03
 BYTE   VOL   22*song09_mvl/mxv
 BYTE   W01
 BYTE   VOL   22*song09_mvl/mxv
 BYTE   W02
 BYTE   VOL   21*song09_mvl/mxv
 BYTE   W03
 BYTE   VOL   21*song09_mvl/mxv
 BYTE   W01
 BYTE   VOL   20*song09_mvl/mxv
 BYTE   W05
//  #03 //014   ----------------------------------------
Label_014633F9:
 BYTE   W06
 BYTE   VOL   20*song09_mvl/mxv
 BYTE   W01
 BYTE   VOL   19*song09_mvl/mxv
 BYTE   W03
 BYTE   VOL   19*song09_mvl/mxv
 BYTE   W03
 BYTE   VOL   19*song09_mvl/mxv
 BYTE   W02
 BYTE   VOL   18*song09_mvl/mxv
 BYTE   W01
 BYTE   VOL   18*song09_mvl/mxv
 BYTE   W03
 BYTE   VOL   17*song09_mvl/mxv
 BYTE   W02
 BYTE   VOL   17*song09_mvl/mxv
 BYTE   W01
 BYTE   VOL   15*song09_mvl/mxv
 BYTE   W03
 BYTE   VOL   14*song09_mvl/mxv
 BYTE   W02
 BYTE   VOL   13*song09_mvl/mxv
 BYTE   W01
 BYTE   VOL   13*song09_mvl/mxv
 BYTE   W03
 BYTE   VOL   10*song09_mvl/mxv
 BYTE   W03
 BYTE   VOL   10*song09_mvl/mxv
 BYTE   W02
 BYTE   VOL   10*song09_mvl/mxv
 BYTE   W01
 BYTE   VOL   8*song09_mvl/mxv
 BYTE   W02
 BYTE   VOL   8*song09_mvl/mxv
 BYTE   W01
 BYTE   VOL   8*song09_mvl/mxv
 BYTE   W07
 BYTE   PEND 
 BYTE   EOT
 BYTE   Fn1
 BYTE   W01
 BYTE   TIE  En1  v100
 BYTE   W01
 BYTE   VOL   6*song09_mvl/mxv
 BYTE   W02
 BYTE   VOL   6*song09_mvl/mxv
 BYTE   W01
 BYTE   VOL   6*song09_mvl/mxv
 BYTE   W02
 BYTE   VOL   8*song09_mvl/mxv
 BYTE   W01
 BYTE   VOL   8*song09_mvl/mxv
 BYTE   W02
 BYTE   VOL   8*song09_mvl/mxv
 BYTE   W01
 BYTE   VOL   10*song09_mvl/mxv
 BYTE   W03
 BYTE   VOL   10*song09_mvl/mxv
 BYTE   W02
 BYTE   VOL   10*song09_mvl/mxv
 BYTE   W03
 BYTE   VOL   11*song09_mvl/mxv
 BYTE   W01
 BYTE   VOL   11*song09_mvl/mxv
 BYTE   W02
 BYTE   VOL   12*song09_mvl/mxv
 BYTE   W01
 BYTE   VOL   13*song09_mvl/mxv
 BYTE   W02
 BYTE   VOL   13*song09_mvl/mxv
 BYTE   W03
 BYTE   VOL   14*song09_mvl/mxv
 BYTE   W01
 BYTE   VOL   15*song09_mvl/mxv
 BYTE   W02
 BYTE   VOL   15*song09_mvl/mxv
 BYTE   W01
 BYTE   VOL   16*song09_mvl/mxv
 BYTE   W02
 BYTE   VOL   17*song09_mvl/mxv
 BYTE   W03
 BYTE   VOL   17*song09_mvl/mxv
 BYTE   W03
 BYTE   VOL   19*song09_mvl/mxv
 BYTE   W01
 BYTE   VOL   19*song09_mvl/mxv
 BYTE   W02
 BYTE   VOL   20*song09_mvl/mxv
 BYTE   W01
 BYTE   VOL   20*song09_mvl/mxv
 BYTE   W02
 BYTE   VOL   21*song09_mvl/mxv
 BYTE   W01
 BYTE   VOL   21*song09_mvl/mxv
 BYTE   W02
//  #03 //015   ----------------------------------------
Label_0146345C:
 BYTE   VOL   22*song09_mvl/mxv
 BYTE   W01
 BYTE   VOL   21*song09_mvl/mxv
 BYTE   W03
 BYTE   VOL   22*song09_mvl/mxv
 BYTE   W02
 BYTE   VOL   22*song09_mvl/mxv
 BYTE   W01
 BYTE   VOL   23*song09_mvl/mxv
 BYTE   W02
 BYTE   VOL   23*song09_mvl/mxv
 BYTE   W01
 BYTE   VOL   23*song09_mvl/mxv
 BYTE   W11
 BYTE   VOL   23*song09_mvl/mxv
 BYTE   W03
 BYTE   VOL   23*song09_mvl/mxv
 BYTE   W09
 BYTE   VOL   22*song09_mvl/mxv
 BYTE   W03
 BYTE   VOL   22*song09_mvl/mxv
 BYTE   W01
 BYTE   VOL   22*song09_mvl/mxv
 BYTE   W02
 BYTE   VOL   21*song09_mvl/mxv
 BYTE   W03
 BYTE   VOL   21*song09_mvl/mxv
 BYTE   W01
 BYTE   VOL   20*song09_mvl/mxv
 BYTE   W11
 BYTE   VOL   20*song09_mvl/mxv
 BYTE   W01
 BYTE   VOL   19*song09_mvl/mxv
 BYTE   W03
 BYTE   VOL   19*song09_mvl/mxv
 BYTE   W03
 BYTE   VOL   19*song09_mvl/mxv
 BYTE   W02
 BYTE   VOL   18*song09_mvl/mxv
 BYTE   W01
 BYTE   VOL   18*song09_mvl/mxv
 BYTE   W03
 BYTE   VOL   17*song09_mvl/mxv
 BYTE   W02
 BYTE   VOL   17*song09_mvl/mxv
 BYTE   W01
 BYTE   VOL   15*song09_mvl/mxv
 BYTE   W03
 BYTE   VOL   14*song09_mvl/mxv
 BYTE   W02
 BYTE   VOL   13*song09_mvl/mxv
 BYTE   W01
 BYTE   VOL   13*song09_mvl/mxv
 BYTE   W03
 BYTE   VOL   10*song09_mvl/mxv
 BYTE   W03
 BYTE   VOL   10*song09_mvl/mxv
 BYTE   W02
 BYTE   VOL   10*song09_mvl/mxv
 BYTE   W01
 BYTE   VOL   8*song09_mvl/mxv
 BYTE   W02
 BYTE   VOL   8*song09_mvl/mxv
 BYTE   W01
 BYTE   VOL   8*song09_mvl/mxv
 BYTE   W07
 BYTE   PEND 
 BYTE   EOT
 BYTE   En1
 BYTE   W01
//  #03 //016   ----------------------------------------
Label_014634A3:
 BYTE   TIE  Fn1  v100
 BYTE   W01
 BYTE   VOL   6*song09_mvl/mxv
 BYTE   W02
 BYTE   VOL   6*song09_mvl/mxv
 BYTE   W01
 BYTE   VOL   6*song09_mvl/mxv
 BYTE   W02
 BYTE   VOL   8*song09_mvl/mxv
 BYTE   W01
 BYTE   VOL   8*song09_mvl/mxv
 BYTE   W02
 BYTE   VOL   8*song09_mvl/mxv
 BYTE   W01
 BYTE   VOL   10*song09_mvl/mxv
 BYTE   W03
 BYTE   VOL   10*song09_mvl/mxv
 BYTE   W02
 BYTE   VOL   10*song09_mvl/mxv
 BYTE   W03
 BYTE   VOL   11*song09_mvl/mxv
 BYTE   W01
 BYTE   VOL   11*song09_mvl/mxv
 BYTE   W02
 BYTE   VOL   12*song09_mvl/mxv
 BYTE   W01
 BYTE   VOL   13*song09_mvl/mxv
 BYTE   W02
 BYTE   VOL   13*song09_mvl/mxv
 BYTE   W03
 BYTE   VOL   14*song09_mvl/mxv
 BYTE   W01
 BYTE   VOL   15*song09_mvl/mxv
 BYTE   W02
 BYTE   VOL   15*song09_mvl/mxv
 BYTE   W01
 BYTE   VOL   16*song09_mvl/mxv
 BYTE   W02
 BYTE   VOL   17*song09_mvl/mxv
 BYTE   W03
 BYTE   VOL   17*song09_mvl/mxv
 BYTE   W03
 BYTE   VOL   19*song09_mvl/mxv
 BYTE   W01
 BYTE   VOL   19*song09_mvl/mxv
 BYTE   W02
 BYTE   VOL   20*song09_mvl/mxv
 BYTE   W01
 BYTE   VOL   20*song09_mvl/mxv
 BYTE   W02
 BYTE   VOL   21*song09_mvl/mxv
 BYTE   W01
 BYTE   VOL   21*song09_mvl/mxv
 BYTE   W02
 BYTE   VOL   22*song09_mvl/mxv
 BYTE   W01
 BYTE   VOL   21*song09_mvl/mxv
 BYTE   W03
 BYTE   VOL   22*song09_mvl/mxv
 BYTE   W02
 BYTE   VOL   22*song09_mvl/mxv
 BYTE   W01
 BYTE   VOL   23*song09_mvl/mxv
 BYTE   W02
 BYTE   VOL   23*song09_mvl/mxv
 BYTE   W01
 BYTE   VOL   23*song09_mvl/mxv
 BYTE   W11
 BYTE   VOL   23*song09_mvl/mxv
 BYTE   W03
 BYTE   VOL   23*song09_mvl/mxv
 BYTE   W09
 BYTE   VOL   22*song09_mvl/mxv
 BYTE   W03
 BYTE   VOL   22*song09_mvl/mxv
 BYTE   W01
 BYTE   VOL   22*song09_mvl/mxv
 BYTE   W02
 BYTE   VOL   21*song09_mvl/mxv
 BYTE   W03
 BYTE   VOL   21*song09_mvl/mxv
 BYTE   W01
 BYTE   VOL   20*song09_mvl/mxv
 BYTE   W05
 BYTE   PEND 
//  #03 //017   ----------------------------------------
 BYTE   PATT
  POIN2 Label_014633F9
//  #03 //018   ----------------------------------------
 BYTE   EOT
 BYTE   Fn1
 BYTE   W01
 BYTE   TIE  En1  v100
 BYTE   W01
 BYTE   VOL   6*song09_mvl/mxv
 BYTE   W02
 BYTE   VOL   6*song09_mvl/mxv
 BYTE   W01
 BYTE   VOL   6*song09_mvl/mxv
 BYTE   W02
 BYTE   VOL   8*song09_mvl/mxv
 BYTE   W01
 BYTE   VOL   8*song09_mvl/mxv
 BYTE   W02
 BYTE   VOL   8*song09_mvl/mxv
 BYTE   W01
 BYTE   VOL   10*song09_mvl/mxv
 BYTE   W03
 BYTE   VOL   10*song09_mvl/mxv
 BYTE   W02
 BYTE   VOL   10*song09_mvl/mxv
 BYTE   W03
 BYTE   VOL   11*song09_mvl/mxv
 BYTE   W01
 BYTE   VOL   11*song09_mvl/mxv
 BYTE   W02
 BYTE   VOL   12*song09_mvl/mxv
 BYTE   W01
 BYTE   VOL   13*song09_mvl/mxv
 BYTE   W02
 BYTE   VOL   13*song09_mvl/mxv
 BYTE   W03
 BYTE   VOL   14*song09_mvl/mxv
 BYTE   W01
 BYTE   VOL   15*song09_mvl/mxv
 BYTE   W02
 BYTE   VOL   15*song09_mvl/mxv
 BYTE   W01
 BYTE   VOL   16*song09_mvl/mxv
 BYTE   W02
 BYTE   VOL   17*song09_mvl/mxv
 BYTE   W03
 BYTE   VOL   17*song09_mvl/mxv
 BYTE   W03
 BYTE   VOL   19*song09_mvl/mxv
 BYTE   W01
 BYTE   VOL   19*song09_mvl/mxv
 BYTE   W02
 BYTE   VOL   20*song09_mvl/mxv
 BYTE   W01
 BYTE   VOL   20*song09_mvl/mxv
 BYTE   W02
 BYTE   VOL   21*song09_mvl/mxv
 BYTE   W01
 BYTE   VOL   21*song09_mvl/mxv
 BYTE   W02
//  #03 //019   ----------------------------------------
 BYTE   PATT
  POIN2 Label_0146345C
//  #03 //020   ----------------------------------------
 BYTE   EOT
 BYTE   En1
 BYTE   W01
//  #03 //021   ----------------------------------------
 BYTE   PATT
  POIN2 Label_014634A3
//  #03 //022   ----------------------------------------
 BYTE   PATT
  POIN2 Label_014633F9
//  #03 //023   ----------------------------------------
 BYTE   EOT
 BYTE   Fn1
 BYTE   W01
 BYTE   TIE  En1  v100
 BYTE   W01
 BYTE   VOL   6*song09_mvl/mxv
 BYTE   W02
 BYTE   VOL   6*song09_mvl/mxv
 BYTE   W01
 BYTE   VOL   6*song09_mvl/mxv
 BYTE   W02
 BYTE   VOL   8*song09_mvl/mxv
 BYTE   W01
 BYTE   VOL   8*song09_mvl/mxv
 BYTE   W02
 BYTE   VOL   8*song09_mvl/mxv
 BYTE   W01
 BYTE   VOL   10*song09_mvl/mxv
 BYTE   W03
 BYTE   VOL   10*song09_mvl/mxv
 BYTE   W02
 BYTE   VOL   10*song09_mvl/mxv
 BYTE   W03
 BYTE   VOL   11*song09_mvl/mxv
 BYTE   W01
 BYTE   VOL   11*song09_mvl/mxv
 BYTE   W02
 BYTE   VOL   12*song09_mvl/mxv
 BYTE   W01
 BYTE   VOL   13*song09_mvl/mxv
 BYTE   W02
 BYTE   VOL   13*song09_mvl/mxv
 BYTE   W03
 BYTE   VOL   14*song09_mvl/mxv
 BYTE   W01
 BYTE   VOL   15*song09_mvl/mxv
 BYTE   W02
 BYTE   VOL   15*song09_mvl/mxv
 BYTE   W01
 BYTE   VOL   16*song09_mvl/mxv
 BYTE   W02
 BYTE   VOL   17*song09_mvl/mxv
 BYTE   W03
 BYTE   VOL   17*song09_mvl/mxv
 BYTE   W03
 BYTE   VOL   19*song09_mvl/mxv
 BYTE   W01
 BYTE   VOL   19*song09_mvl/mxv
 BYTE   W02
 BYTE   VOL   20*song09_mvl/mxv
 BYTE   W01
 BYTE   VOL   20*song09_mvl/mxv
 BYTE   W02
 BYTE   VOL   21*song09_mvl/mxv
 BYTE   W01
 BYTE   VOL   21*song09_mvl/mxv
 BYTE   W02
//  #03 //024   ----------------------------------------
 BYTE   PATT
  POIN2 Label_0146345C
//  #03 //025   ----------------------------------------
 BYTE   EOT
 BYTE   En1
 BYTE   W01
//  #03 //026   ----------------------------------------
 BYTE   PATT
  POIN2 Label_014634A3
//  #03 //027   ----------------------------------------
 BYTE   PATT
  POIN2 Label_014633F9
//  #03 //028   ----------------------------------------
 BYTE   EOT
 BYTE   Fn1
 BYTE   W01
 BYTE   TIE  En1  v100
 BYTE   W01
 BYTE   VOL   6*song09_mvl/mxv
 BYTE   W02
 BYTE   VOL   6*song09_mvl/mxv
 BYTE   W01
 BYTE   VOL   6*song09_mvl/mxv
 BYTE   W02
 BYTE   VOL   8*song09_mvl/mxv
 BYTE   W01
 BYTE   VOL   8*song09_mvl/mxv
 BYTE   W02
 BYTE   VOL   8*song09_mvl/mxv
 BYTE   W01
 BYTE   VOL   10*song09_mvl/mxv
 BYTE   W03
 BYTE   VOL   10*song09_mvl/mxv
 BYTE   W02
 BYTE   VOL   10*song09_mvl/mxv
 BYTE   W03
 BYTE   VOL   11*song09_mvl/mxv
 BYTE   W01
 BYTE   VOL   11*song09_mvl/mxv
 BYTE   W02
 BYTE   VOL   12*song09_mvl/mxv
 BYTE   W01
 BYTE   VOL   13*song09_mvl/mxv
 BYTE   W02
 BYTE   VOL   13*song09_mvl/mxv
 BYTE   W03
 BYTE   VOL   14*song09_mvl/mxv
 BYTE   W01
 BYTE   VOL   15*song09_mvl/mxv
 BYTE   W02
 BYTE   VOL   15*song09_mvl/mxv
 BYTE   W01
 BYTE   VOL   16*song09_mvl/mxv
 BYTE   W02
 BYTE   VOL   17*song09_mvl/mxv
 BYTE   W03
 BYTE   VOL   17*song09_mvl/mxv
 BYTE   W03
 BYTE   VOL   19*song09_mvl/mxv
 BYTE   W01
 BYTE   VOL   19*song09_mvl/mxv
 BYTE   W02
 BYTE   VOL   20*song09_mvl/mxv
 BYTE   W01
 BYTE   VOL   20*song09_mvl/mxv
 BYTE   W02
 BYTE   VOL   21*song09_mvl/mxv
 BYTE   W01
 BYTE   VOL   21*song09_mvl/mxv
 BYTE   W02
//  #03 //029   ----------------------------------------
 BYTE   PATT
  POIN2 Label_0146345C
//  #03 //030   ----------------------------------------
 BYTE   EOT
 BYTE   En1
 BYTE   W01
Label_014635E0:
 BYTE   TIE  Cn2  v100
 BYTE   W01
 BYTE   VOL   6*song09_mvl/mxv
 BYTE   W02
 BYTE   VOL   6*song09_mvl/mxv
 BYTE   W01
 BYTE   VOL   6*song09_mvl/mxv
 BYTE   W02
 BYTE   VOL   8*song09_mvl/mxv
 BYTE   W01
 BYTE   VOL   8*song09_mvl/mxv
 BYTE   W02
 BYTE   VOL   8*song09_mvl/mxv
 BYTE   W01
 BYTE   VOL   10*song09_mvl/mxv
 BYTE   W03
 BYTE   VOL   10*song09_mvl/mxv
 BYTE   W02
 BYTE   VOL   10*song09_mvl/mxv
 BYTE   W03
 BYTE   VOL   11*song09_mvl/mxv
 BYTE   W01
 BYTE   VOL   11*song09_mvl/mxv
 BYTE   W02
 BYTE   VOL   12*song09_mvl/mxv
 BYTE   W01
 BYTE   VOL   13*song09_mvl/mxv
 BYTE   W02
 BYTE   VOL   13*song09_mvl/mxv
 BYTE   W03
 BYTE   VOL   14*song09_mvl/mxv
 BYTE   W01
 BYTE   VOL   15*song09_mvl/mxv
 BYTE   W02
 BYTE   VOL   15*song09_mvl/mxv
 BYTE   W01
 BYTE   VOL   16*song09_mvl/mxv
 BYTE   W02
 BYTE   VOL   17*song09_mvl/mxv
 BYTE   W03
 BYTE   VOL   17*song09_mvl/mxv
 BYTE   W03
 BYTE   VOL   19*song09_mvl/mxv
 BYTE   W01
 BYTE   VOL   19*song09_mvl/mxv
 BYTE   W02
 BYTE   VOL   20*song09_mvl/mxv
 BYTE   W01
 BYTE   VOL   20*song09_mvl/mxv
 BYTE   W02
 BYTE   VOL   21*song09_mvl/mxv
 BYTE   W01
 BYTE   VOL   21*song09_mvl/mxv
 BYTE   W02
 BYTE   VOL   22*song09_mvl/mxv
 BYTE   W01
 BYTE   VOL   21*song09_mvl/mxv
 BYTE   W03
 BYTE   VOL   22*song09_mvl/mxv
 BYTE   W02
 BYTE   VOL   22*song09_mvl/mxv
 BYTE   W01
 BYTE   VOL   23*song09_mvl/mxv
 BYTE   W02
 BYTE   VOL   23*song09_mvl/mxv
 BYTE   W01
 BYTE   VOL   23*song09_mvl/mxv
 BYTE   W11
 BYTE   VOL   23*song09_mvl/mxv
 BYTE   W03
 BYTE   VOL   23*song09_mvl/mxv
 BYTE   W09
 BYTE   VOL   22*song09_mvl/mxv
 BYTE   W03
 BYTE   VOL   22*song09_mvl/mxv
 BYTE   W01
 BYTE   VOL   22*song09_mvl/mxv
 BYTE   W02
 BYTE   VOL   21*song09_mvl/mxv
 BYTE   W03
 BYTE   VOL   21*song09_mvl/mxv
 BYTE   W01
 BYTE   VOL   20*song09_mvl/mxv
 BYTE   W05
 BYTE   PEND 
//  #03 //031   ----------------------------------------
 BYTE   PATT
  POIN2 Label_014633F9
//  #03 //032   ----------------------------------------
 BYTE   EOT
 BYTE   Cn2
 BYTE   W01
 BYTE   TIE  Dn2  v100
 BYTE   W01
 BYTE   VOL   6*song09_mvl/mxv
 BYTE   W02
 BYTE   VOL   6*song09_mvl/mxv
 BYTE   W01
 BYTE   VOL   6*song09_mvl/mxv
 BYTE   W02
 BYTE   VOL   8*song09_mvl/mxv
 BYTE   W01
 BYTE   VOL   8*song09_mvl/mxv
 BYTE   W02
 BYTE   VOL   8*song09_mvl/mxv
 BYTE   W01
 BYTE   VOL   10*song09_mvl/mxv
 BYTE   W03
 BYTE   VOL   10*song09_mvl/mxv
 BYTE   W02
 BYTE   VOL   10*song09_mvl/mxv
 BYTE   W03
 BYTE   VOL   11*song09_mvl/mxv
 BYTE   W01
 BYTE   VOL   11*song09_mvl/mxv
 BYTE   W02
 BYTE   VOL   12*song09_mvl/mxv
 BYTE   W01
 BYTE   VOL   13*song09_mvl/mxv
 BYTE   W02
 BYTE   VOL   13*song09_mvl/mxv
 BYTE   W03
 BYTE   VOL   14*song09_mvl/mxv
 BYTE   W01
 BYTE   VOL   15*song09_mvl/mxv
 BYTE   W02
 BYTE   VOL   15*song09_mvl/mxv
 BYTE   W01
 BYTE   VOL   16*song09_mvl/mxv
 BYTE   W02
 BYTE   VOL   17*song09_mvl/mxv
 BYTE   W03
 BYTE   VOL   17*song09_mvl/mxv
 BYTE   W03
 BYTE   VOL   19*song09_mvl/mxv
 BYTE   W01
 BYTE   VOL   19*song09_mvl/mxv
 BYTE   W02
 BYTE   VOL   20*song09_mvl/mxv
 BYTE   W01
 BYTE   VOL   20*song09_mvl/mxv
 BYTE   W02
 BYTE   VOL   21*song09_mvl/mxv
 BYTE   W01
 BYTE   VOL   21*song09_mvl/mxv
 BYTE   W02
//  #03 //033   ----------------------------------------
 BYTE   PATT
  POIN2 Label_0146345C
//  #03 //034   ----------------------------------------
 BYTE   EOT
 BYTE   Dn2
 BYTE   W01
//  #03 //035   ----------------------------------------
 BYTE   PATT
  POIN2 Label_014635E0
//  #03 //036   ----------------------------------------
 BYTE   PATT
  POIN2 Label_014633F9
//  #03 //037   ----------------------------------------
 BYTE   EOT
 BYTE   Cn2
 BYTE   W01
 BYTE   N68  Dn2  v100
 BYTE   W01
 BYTE   VOL   6*song09_mvl/mxv
 BYTE   W02
 BYTE   VOL   6*song09_mvl/mxv
 BYTE   W01
 BYTE   VOL   6*song09_mvl/mxv
 BYTE   W02
 BYTE   VOL   8*song09_mvl/mxv
 BYTE   W01
 BYTE   VOL   8*song09_mvl/mxv
 BYTE   W02
 BYTE   VOL   8*song09_mvl/mxv
 BYTE   W01
 BYTE   VOL   10*song09_mvl/mxv
 BYTE   W03
 BYTE   VOL   10*song09_mvl/mxv
 BYTE   W02
 BYTE   VOL   10*song09_mvl/mxv
 BYTE   W03
 BYTE   VOL   11*song09_mvl/mxv
 BYTE   W01
 BYTE   VOL   11*song09_mvl/mxv
 BYTE   W02
 BYTE   VOL   12*song09_mvl/mxv
 BYTE   W01
 BYTE   VOL   13*song09_mvl/mxv
 BYTE   W02
 BYTE   VOL   13*song09_mvl/mxv
 BYTE   W03
 BYTE   VOL   14*song09_mvl/mxv
 BYTE   W01
 BYTE   VOL   15*song09_mvl/mxv
 BYTE   W02
 BYTE   VOL   15*song09_mvl/mxv
 BYTE   W01
 BYTE   VOL   16*song09_mvl/mxv
 BYTE   W02
 BYTE   VOL   17*song09_mvl/mxv
 BYTE   W03
 BYTE   VOL   17*song09_mvl/mxv
 BYTE   W03
 BYTE   VOL   19*song09_mvl/mxv
 BYTE   W01
 BYTE   VOL   19*song09_mvl/mxv
 BYTE   W02
 BYTE   VOL   20*song09_mvl/mxv
 BYTE   W01
 BYTE   VOL   20*song09_mvl/mxv
 BYTE   W02
 BYTE   VOL   21*song09_mvl/mxv
 BYTE   W01
 BYTE   VOL   21*song09_mvl/mxv
 BYTE   W02
Label_014636C7:
 BYTE   VOL   22*song09_mvl/mxv
 BYTE   W01
 BYTE   VOL   21*song09_mvl/mxv
 BYTE   W03
 BYTE   VOL   22*song09_mvl/mxv
 BYTE   W02
 BYTE   VOL   22*song09_mvl/mxv
 BYTE   W01
 BYTE   VOL   23*song09_mvl/mxv
 BYTE   W02
 BYTE   VOL   23*song09_mvl/mxv
 BYTE   W01
 BYTE   VOL   23*song09_mvl/mxv
 BYTE   W11
 BYTE   VOL   23*song09_mvl/mxv
 BYTE   W03
 BYTE   VOL   23*song09_mvl/mxv
 BYTE   N68  Bn1  v100
 BYTE   W09
 BYTE   VOL   22*song09_mvl/mxv
 BYTE   W03
 BYTE   VOL   22*song09_mvl/mxv
 BYTE   W01
 BYTE   VOL   22*song09_mvl/mxv
 BYTE   W02
 BYTE   VOL   21*song09_mvl/mxv
 BYTE   W03
 BYTE   VOL   21*song09_mvl/mxv
 BYTE   W01
 BYTE   VOL   20*song09_mvl/mxv
 BYTE   W11
//  #03 //038   ----------------------------------------
 BYTE   VOL   20*song09_mvl/mxv
 BYTE   W01
 BYTE   VOL   19*song09_mvl/mxv
 BYTE   W03
 BYTE   VOL   19*song09_mvl/mxv
 BYTE   W03
 BYTE   VOL   19*song09_mvl/mxv
 BYTE   W02
 BYTE   VOL   18*song09_mvl/mxv
 BYTE   W01
 BYTE   VOL   18*song09_mvl/mxv
 BYTE   W03
 BYTE   VOL   17*song09_mvl/mxv
 BYTE   W02
 BYTE   VOL   17*song09_mvl/mxv
 BYTE   W01
 BYTE   VOL   15*song09_mvl/mxv
 BYTE   W03
 BYTE   VOL   14*song09_mvl/mxv
 BYTE   W02
 BYTE   VOL   13*song09_mvl/mxv
 BYTE   W01
 BYTE   VOL   13*song09_mvl/mxv
 BYTE   W03
 BYTE   VOL   10*song09_mvl/mxv
 BYTE   W03
 BYTE   VOL   10*song09_mvl/mxv
 BYTE   W02
 BYTE   VOL   10*song09_mvl/mxv
 BYTE   W01
 BYTE   VOL   8*song09_mvl/mxv
 BYTE   W02
 BYTE   VOL   8*song09_mvl/mxv
 BYTE   W01
 BYTE   VOL   8*song09_mvl/mxv
 BYTE   W08
 BYTE   PEND 
//  #03 //039   ----------------------------------------
 BYTE   PATT
  POIN2 Label_014635E0
//  #03 //040   ----------------------------------------
 BYTE   PATT
  POIN2 Label_014633F9
//  #03 //041   ----------------------------------------
 BYTE   EOT
 BYTE   Cn2
 BYTE   W01
 BYTE   TIE  Dn2  v100
 BYTE   W01
 BYTE   VOL   6*song09_mvl/mxv
 BYTE   W02
 BYTE   VOL   6*song09_mvl/mxv
 BYTE   W01
 BYTE   VOL   6*song09_mvl/mxv
 BYTE   W02
 BYTE   VOL   8*song09_mvl/mxv
 BYTE   W01
 BYTE   VOL   8*song09_mvl/mxv
 BYTE   W02
 BYTE   VOL   8*song09_mvl/mxv
 BYTE   W01
 BYTE   VOL   10*song09_mvl/mxv
 BYTE   W03
 BYTE   VOL   10*song09_mvl/mxv
 BYTE   W02
 BYTE   VOL   10*song09_mvl/mxv
 BYTE   W03
 BYTE   VOL   11*song09_mvl/mxv
 BYTE   W01
 BYTE   VOL   11*song09_mvl/mxv
 BYTE   W02
 BYTE   VOL   12*song09_mvl/mxv
 BYTE   W01
 BYTE   VOL   13*song09_mvl/mxv
 BYTE   W02
 BYTE   VOL   13*song09_mvl/mxv
 BYTE   W03
 BYTE   VOL   14*song09_mvl/mxv
 BYTE   W01
 BYTE   VOL   15*song09_mvl/mxv
 BYTE   W02
 BYTE   VOL   15*song09_mvl/mxv
 BYTE   W01
 BYTE   VOL   16*song09_mvl/mxv
 BYTE   W02
 BYTE   VOL   17*song09_mvl/mxv
 BYTE   W03
 BYTE   VOL   17*song09_mvl/mxv
 BYTE   W03
 BYTE   VOL   19*song09_mvl/mxv
 BYTE   W01
 BYTE   VOL   19*song09_mvl/mxv
 BYTE   W02
 BYTE   VOL   20*song09_mvl/mxv
 BYTE   W01
 BYTE   VOL   20*song09_mvl/mxv
 BYTE   W02
 BYTE   VOL   21*song09_mvl/mxv
 BYTE   W01
 BYTE   VOL   21*song09_mvl/mxv
 BYTE   W02
//  #03 //042   ----------------------------------------
 BYTE   PATT
  POIN2 Label_0146345C
//  #03 //043   ----------------------------------------
 BYTE   EOT
 BYTE   Dn2
 BYTE   W01
//  #03 //044   ----------------------------------------
 BYTE   PATT
  POIN2 Label_014635E0
//  #03 //045   ----------------------------------------
 BYTE   PATT
  POIN2 Label_014633F9
//  #03 //046   ----------------------------------------
 BYTE   EOT
 BYTE   Cn2
 BYTE   W01
 BYTE   N68  Dn2  v100
 BYTE   W01
 BYTE   VOL   6*song09_mvl/mxv
 BYTE   W02
 BYTE   VOL   6*song09_mvl/mxv
 BYTE   W01
 BYTE   VOL   6*song09_mvl/mxv
 BYTE   W02
 BYTE   VOL   8*song09_mvl/mxv
 BYTE   W01
 BYTE   VOL   8*song09_mvl/mxv
 BYTE   W02
 BYTE   VOL   8*song09_mvl/mxv
 BYTE   W01
 BYTE   VOL   10*song09_mvl/mxv
 BYTE   W03
 BYTE   VOL   10*song09_mvl/mxv
 BYTE   W02
 BYTE   VOL   10*song09_mvl/mxv
 BYTE   W03
 BYTE   VOL   11*song09_mvl/mxv
 BYTE   W01
 BYTE   VOL   11*song09_mvl/mxv
 BYTE   W02
 BYTE   VOL   12*song09_mvl/mxv
 BYTE   W01
 BYTE   VOL   13*song09_mvl/mxv
 BYTE   W02
 BYTE   VOL   13*song09_mvl/mxv
 BYTE   W03
 BYTE   VOL   14*song09_mvl/mxv
 BYTE   W01
 BYTE   VOL   15*song09_mvl/mxv
 BYTE   W02
 BYTE   VOL   15*song09_mvl/mxv
 BYTE   W01
 BYTE   VOL   16*song09_mvl/mxv
 BYTE   W02
 BYTE   VOL   17*song09_mvl/mxv
 BYTE   W03
 BYTE   VOL   17*song09_mvl/mxv
 BYTE   W03
 BYTE   VOL   19*song09_mvl/mxv
 BYTE   W01
 BYTE   VOL   19*song09_mvl/mxv
 BYTE   W02
 BYTE   VOL   20*song09_mvl/mxv
 BYTE   W01
 BYTE   VOL   20*song09_mvl/mxv
 BYTE   W02
 BYTE   VOL   21*song09_mvl/mxv
 BYTE   W01
 BYTE   VOL   21*song09_mvl/mxv
 BYTE   W02
Label_014637A3:
 BYTE   VOL   22*song09_mvl/mxv
 BYTE   W01
 BYTE   VOL   21*song09_mvl/mxv
 BYTE   W03
 BYTE   VOL   22*song09_mvl/mxv
 BYTE   W02
 BYTE   VOL   22*song09_mvl/mxv
 BYTE   W01
 BYTE   VOL   23*song09_mvl/mxv
 BYTE   W02
 BYTE   VOL   23*song09_mvl/mxv
 BYTE   W01
 BYTE   VOL   23*song09_mvl/mxv
 BYTE   W11
 BYTE   VOL   23*song09_mvl/mxv
 BYTE   W03
 BYTE   VOL   23*song09_mvl/mxv
 BYTE   N68  Bn1  v100
 BYTE   W09
 BYTE   VOL   22*song09_mvl/mxv
 BYTE   W03
 BYTE   VOL   22*song09_mvl/mxv
 BYTE   W01
 BYTE   VOL   22*song09_mvl/mxv
 BYTE   W02
 BYTE   VOL   21*song09_mvl/mxv
 BYTE   W03
 BYTE   VOL   21*song09_mvl/mxv
 BYTE   W01
 BYTE   VOL   20*song09_mvl/mxv
 BYTE   W11
//  #03 //047   ----------------------------------------
 BYTE   VOL   20*song09_mvl/mxv
 BYTE   W01
 BYTE   VOL   19*song09_mvl/mxv
 BYTE   W03
 BYTE   VOL   19*song09_mvl/mxv
 BYTE   W03
 BYTE   VOL   19*song09_mvl/mxv
 BYTE   W02
 BYTE   VOL   18*song09_mvl/mxv
 BYTE   W01
 BYTE   VOL   18*song09_mvl/mxv
 BYTE   W03
 BYTE   VOL   17*song09_mvl/mxv
 BYTE   W02
 BYTE   VOL   17*song09_mvl/mxv
 BYTE   W01
 BYTE   VOL   15*song09_mvl/mxv
 BYTE   W03
 BYTE   VOL   14*song09_mvl/mxv
 BYTE   W02
 BYTE   VOL   13*song09_mvl/mxv
 BYTE   W01
 BYTE   VOL   13*song09_mvl/mxv
 BYTE   W03
 BYTE   VOL   10*song09_mvl/mxv
 BYTE   W03
 BYTE   VOL   10*song09_mvl/mxv
 BYTE   W02
 BYTE   VOL   10*song09_mvl/mxv
 BYTE   W01
 BYTE   VOL   8*song09_mvl/mxv
 BYTE   W02
 BYTE   VOL   8*song09_mvl/mxv
 BYTE   W01
 BYTE   VOL   8*song09_mvl/mxv
 BYTE   W07
 BYTE   VOL   0*song09_mvl/mxv
 BYTE   W01
 BYTE   PEND 
//  #03 //048   ----------------------------------------
 BYTE   PATT
  POIN2 Label_01463305
//  #03 //049   ----------------------------------------
 BYTE   PATT
  POIN2 Label_01463154
//  #03 //050   ----------------------------------------
Label_014637F7:
 BYTE   W03
 BYTE   VOL   28*song09_mvl/mxv
 BYTE   W03
 BYTE   VOL   28*song09_mvl/mxv
 BYTE   W05
 BYTE   VOL   27*song09_mvl/mxv
 BYTE   W07
 BYTE   VOL   27*song09_mvl/mxv
 BYTE   W02
 BYTE   VOL   27*song09_mvl/mxv
 BYTE   W07
 BYTE   VOL   26*song09_mvl/mxv
 BYTE   W05
 BYTE   VOL   25*song09_mvl/mxv
 BYTE   W01
 BYTE   VOL   24*song09_mvl/mxv
 BYTE   W03
 BYTE   VOL   23*song09_mvl/mxv
 BYTE   W02
 BYTE   VOL   23*song09_mvl/mxv
 BYTE   W03
 BYTE   VOL   22*song09_mvl/mxv
 BYTE   W03
 BYTE   VOL   22*song09_mvl/mxv
 BYTE   W01
 BYTE   VOL   21*song09_mvl/mxv
 BYTE   W03
 BYTE   VOL   20*song09_mvl/mxv
 BYTE   W05
 BYTE   VOL   20*song09_mvl/mxv
 BYTE   W01
 BYTE   VOL   19*song09_mvl/mxv
 BYTE   W03
 BYTE   VOL   18*song09_mvl/mxv
 BYTE   W02
 BYTE   VOL   18*song09_mvl/mxv
 BYTE   W03
 BYTE   VOL   17*song09_mvl/mxv
 BYTE   W01
 BYTE   VOL   15*song09_mvl/mxv
 BYTE   W03
 BYTE   VOL   14*song09_mvl/mxv
 BYTE   W02
 BYTE   VOL   14*song09_mvl/mxv
 BYTE   W03
 BYTE   VOL   13*song09_mvl/mxv
 BYTE   W03
 BYTE   VOL   11*song09_mvl/mxv
 BYTE   W01
 BYTE   VOL   11*song09_mvl/mxv
 BYTE   W03
 BYTE   VOL   10*song09_mvl/mxv
 BYTE   W02
 BYTE   VOL   10*song09_mvl/mxv
 BYTE   W03
 BYTE   VOL   9*song09_mvl/mxv
 BYTE   W01
 BYTE   VOL   8*song09_mvl/mxv
 BYTE   W03
 BYTE   VOL   5*song09_mvl/mxv
 BYTE   W02
 BYTE   VOL   5*song09_mvl/mxv
 BYTE   W03
 BYTE   VOL   4*song09_mvl/mxv
 BYTE   W03
 BYTE   PEND 
 BYTE   EOT
 BYTE   An1
 BYTE   VOL   0*song09_mvl/mxv
 BYTE   W01
//  #03 //051   ----------------------------------------
 BYTE   PATT
  POIN2 Label_014631F2
//  #03 //052   ----------------------------------------
 BYTE   PATT
  POIN2 Label_01463154
//  #03 //053   ----------------------------------------
 BYTE   PATT
  POIN2 Label_014637F7
//  #03 //054   ----------------------------------------
 BYTE   EOT
 BYTE   Gn1
 BYTE   W01
//  #03 //055   ----------------------------------------
 BYTE   PATT
  POIN2 Label_01463305
//  #03 //056   ----------------------------------------
 BYTE   PATT
  POIN2 Label_01463154
//  #03 //057   ----------------------------------------
 BYTE   PATT
  POIN2 Label_014631AA
//  #03 //058   ----------------------------------------
 BYTE   EOT
 BYTE   An1
 BYTE   VOL   0*song09_mvl/mxv
 BYTE   W01
//  #03 //059   ----------------------------------------
 BYTE   PATT
  POIN2 Label_014631F2
//  #03 //060   ----------------------------------------
 BYTE   PATT
  POIN2 Label_01463154
//  #03 //061   ----------------------------------------
 BYTE   PATT
  POIN2 Label_014631AA
//  #03 //062   ----------------------------------------
 BYTE   EOT
 BYTE   Gn1
 BYTE   W01
//  #03 //063   ----------------------------------------
 BYTE   PATT
  POIN2 Label_014633A0
//  #03 //064   ----------------------------------------
 BYTE   GoTo
  POIN2 Label_014633EA
//  #03 //065   ----------------------------------------
 BYTE   VOL   23*song09_mvl/mxv
 BYTE   W09
 BYTE   VOL   22*song09_mvl/mxv
 BYTE   W03
 BYTE   VOL   22*song09_mvl/mxv
 BYTE   W01
 BYTE   VOL   22*song09_mvl/mxv
 BYTE   W02
 BYTE   VOL   21*song09_mvl/mxv
 BYTE   W03
 BYTE   VOL   21*song09_mvl/mxv
 BYTE   W01
 BYTE   VOL   20*song09_mvl/mxv
 BYTE   W05
//  #03 //066   ----------------------------------------
 BYTE   PATT
  POIN2 Label_014633F9
//  #03 //067   ----------------------------------------
 BYTE   EOT
 BYTE   Fn1
 BYTE   W01
 BYTE   TIE  En1  v100
 BYTE   W01
 BYTE   VOL   6*song09_mvl/mxv
 BYTE   W02
 BYTE   VOL   6*song09_mvl/mxv
 BYTE   W01
 BYTE   VOL   6*song09_mvl/mxv
 BYTE   W02
 BYTE   VOL   8*song09_mvl/mxv
 BYTE   W01
 BYTE   VOL   8*song09_mvl/mxv
 BYTE   W02
 BYTE   VOL   8*song09_mvl/mxv
 BYTE   W01
 BYTE   VOL   10*song09_mvl/mxv
 BYTE   W03
 BYTE   VOL   10*song09_mvl/mxv
 BYTE   W02
 BYTE   VOL   10*song09_mvl/mxv
 BYTE   W03
 BYTE   VOL   11*song09_mvl/mxv
 BYTE   W01
 BYTE   VOL   11*song09_mvl/mxv
 BYTE   W02
 BYTE   VOL   12*song09_mvl/mxv
 BYTE   W01
 BYTE   VOL   13*song09_mvl/mxv
 BYTE   W02
 BYTE   VOL   13*song09_mvl/mxv
 BYTE   W03
 BYTE   VOL   14*song09_mvl/mxv
 BYTE   W01
 BYTE   VOL   15*song09_mvl/mxv
 BYTE   W02
 BYTE   VOL   15*song09_mvl/mxv
 BYTE   W01
 BYTE   VOL   16*song09_mvl/mxv
 BYTE   W02
 BYTE   VOL   17*song09_mvl/mxv
 BYTE   W03
 BYTE   VOL   17*song09_mvl/mxv
 BYTE   W03
 BYTE   VOL   19*song09_mvl/mxv
 BYTE   W01
 BYTE   VOL   19*song09_mvl/mxv
 BYTE   W02
 BYTE   VOL   20*song09_mvl/mxv
 BYTE   W01
 BYTE   VOL   20*song09_mvl/mxv
 BYTE   W02
 BYTE   VOL   21*song09_mvl/mxv
 BYTE   W01
 BYTE   VOL   21*song09_mvl/mxv
 BYTE   W02
//  #03 //068   ----------------------------------------
 BYTE   PATT
  POIN2 Label_0146345C
//  #03 //069   ----------------------------------------
 BYTE   EOT
 BYTE   En1
 BYTE   W01
//  #03 //070   ----------------------------------------
 BYTE   PATT
  POIN2 Label_014634A3
//  #03 //071   ----------------------------------------
 BYTE   PATT
  POIN2 Label_014633F9
//  #03 //072   ----------------------------------------
 BYTE   EOT
 BYTE   Fn1
 BYTE   W01
 BYTE   TIE  En1  v100
 BYTE   W01
 BYTE   VOL   6*song09_mvl/mxv
 BYTE   W02
 BYTE   VOL   6*song09_mvl/mxv
 BYTE   W01
 BYTE   VOL   6*song09_mvl/mxv
 BYTE   W02
 BYTE   VOL   8*song09_mvl/mxv
 BYTE   W01
 BYTE   VOL   8*song09_mvl/mxv
 BYTE   W02
 BYTE   VOL   8*song09_mvl/mxv
 BYTE   W01
 BYTE   VOL   10*song09_mvl/mxv
 BYTE   W03
 BYTE   VOL   10*song09_mvl/mxv
 BYTE   W02
 BYTE   VOL   10*song09_mvl/mxv
 BYTE   W03
 BYTE   VOL   11*song09_mvl/mxv
 BYTE   W01
 BYTE   VOL   11*song09_mvl/mxv
 BYTE   W02
 BYTE   VOL   12*song09_mvl/mxv
 BYTE   W01
 BYTE   VOL   13*song09_mvl/mxv
 BYTE   W02
 BYTE   VOL   13*song09_mvl/mxv
 BYTE   W03
 BYTE   VOL   14*song09_mvl/mxv
 BYTE   W01
 BYTE   VOL   15*song09_mvl/mxv
 BYTE   W02
 BYTE   VOL   15*song09_mvl/mxv
 BYTE   W01
 BYTE   VOL   16*song09_mvl/mxv
 BYTE   W02
 BYTE   VOL   17*song09_mvl/mxv
 BYTE   W03
 BYTE   VOL   17*song09_mvl/mxv
 BYTE   W03
 BYTE   VOL   19*song09_mvl/mxv
 BYTE   W01
 BYTE   VOL   19*song09_mvl/mxv
 BYTE   W02
 BYTE   VOL   20*song09_mvl/mxv
 BYTE   W01
 BYTE   VOL   20*song09_mvl/mxv
 BYTE   W02
 BYTE   VOL   21*song09_mvl/mxv
 BYTE   W01
 BYTE   VOL   21*song09_mvl/mxv
 BYTE   W02
//  #03 //073   ----------------------------------------
 BYTE   PATT
  POIN2 Label_0146345C
//  #03 //074   ----------------------------------------
 BYTE   EOT
 BYTE   En1
 BYTE   W01
//  #03 //075   ----------------------------------------
 BYTE   PATT
  POIN2 Label_014634A3
//  #03 //076   ----------------------------------------
 BYTE   PATT
  POIN2 Label_014633F9
//  #03 //077   ----------------------------------------
 BYTE   EOT
 BYTE   Fn1
 BYTE   W01
 BYTE   TIE  En1  v100
 BYTE   W01
 BYTE   VOL   6*song09_mvl/mxv
 BYTE   W02
 BYTE   VOL   6*song09_mvl/mxv
 BYTE   W01
 BYTE   VOL   6*song09_mvl/mxv
 BYTE   W02
 BYTE   VOL   8*song09_mvl/mxv
 BYTE   W01
 BYTE   VOL   8*song09_mvl/mxv
 BYTE   W02
 BYTE   VOL   8*song09_mvl/mxv
 BYTE   W01
 BYTE   VOL   10*song09_mvl/mxv
 BYTE   W03
 BYTE   VOL   10*song09_mvl/mxv
 BYTE   W02
 BYTE   VOL   10*song09_mvl/mxv
 BYTE   W03
 BYTE   VOL   11*song09_mvl/mxv
 BYTE   W01
 BYTE   VOL   11*song09_mvl/mxv
 BYTE   W02
 BYTE   VOL   12*song09_mvl/mxv
 BYTE   W01
 BYTE   VOL   13*song09_mvl/mxv
 BYTE   W02
 BYTE   VOL   13*song09_mvl/mxv
 BYTE   W03
 BYTE   VOL   14*song09_mvl/mxv
 BYTE   W01
 BYTE   VOL   15*song09_mvl/mxv
 BYTE   W02
 BYTE   VOL   15*song09_mvl/mxv
 BYTE   W01
 BYTE   VOL   16*song09_mvl/mxv
 BYTE   W02
 BYTE   VOL   17*song09_mvl/mxv
 BYTE   W03
 BYTE   VOL   17*song09_mvl/mxv
 BYTE   W03
 BYTE   VOL   19*song09_mvl/mxv
 BYTE   W01
 BYTE   VOL   19*song09_mvl/mxv
 BYTE   W02
 BYTE   VOL   20*song09_mvl/mxv
 BYTE   W01
 BYTE   VOL   20*song09_mvl/mxv
 BYTE   W02
 BYTE   VOL   21*song09_mvl/mxv
 BYTE   W01
 BYTE   VOL   21*song09_mvl/mxv
 BYTE   W02
//  #03 //078   ----------------------------------------
 BYTE   PATT
  POIN2 Label_0146345C
//  #03 //079   ----------------------------------------
 BYTE   EOT
 BYTE   En1
 BYTE   W01
//  #03 //080   ----------------------------------------
 BYTE   PATT
  POIN2 Label_014634A3
//  #03 //081   ----------------------------------------
 BYTE   PATT
  POIN2 Label_014633F9
//  #03 //082   ----------------------------------------
 BYTE   EOT
 BYTE   Fn1
 BYTE   W01
 BYTE   TIE  En1  v100
 BYTE   W01
 BYTE   VOL   6*song09_mvl/mxv
 BYTE   W02
 BYTE   VOL   6*song09_mvl/mxv
 BYTE   W01
 BYTE   VOL   6*song09_mvl/mxv
 BYTE   W02
 BYTE   VOL   8*song09_mvl/mxv
 BYTE   W01
 BYTE   VOL   8*song09_mvl/mxv
 BYTE   W02
 BYTE   VOL   8*song09_mvl/mxv
 BYTE   W01
 BYTE   VOL   10*song09_mvl/mxv
 BYTE   W03
 BYTE   VOL   10*song09_mvl/mxv
 BYTE   W02
 BYTE   VOL   10*song09_mvl/mxv
 BYTE   W03
 BYTE   VOL   11*song09_mvl/mxv
 BYTE   W01
 BYTE   VOL   11*song09_mvl/mxv
 BYTE   W02
 BYTE   VOL   12*song09_mvl/mxv
 BYTE   W01
 BYTE   VOL   13*song09_mvl/mxv
 BYTE   W02
 BYTE   VOL   13*song09_mvl/mxv
 BYTE   W03
 BYTE   VOL   14*song09_mvl/mxv
 BYTE   W01
 BYTE   VOL   15*song09_mvl/mxv
 BYTE   W02
 BYTE   VOL   15*song09_mvl/mxv
 BYTE   W01
 BYTE   VOL   16*song09_mvl/mxv
 BYTE   W02
 BYTE   VOL   17*song09_mvl/mxv
 BYTE   W03
 BYTE   VOL   17*song09_mvl/mxv
 BYTE   W03
 BYTE   VOL   19*song09_mvl/mxv
 BYTE   W01
 BYTE   VOL   19*song09_mvl/mxv
 BYTE   W02
 BYTE   VOL   20*song09_mvl/mxv
 BYTE   W01
 BYTE   VOL   20*song09_mvl/mxv
 BYTE   W02
 BYTE   VOL   21*song09_mvl/mxv
 BYTE   W01
 BYTE   VOL   21*song09_mvl/mxv
 BYTE   W02
//  #03 //083   ----------------------------------------
 BYTE   PATT
  POIN2 Label_0146345C
//  #03 //084   ----------------------------------------
 BYTE   EOT
 BYTE   En1
 BYTE   W01
//  #03 //085   ----------------------------------------
 BYTE   PATT
  POIN2 Label_014635E0
//  #03 //086   ----------------------------------------
 BYTE   PATT
  POIN2 Label_014633F9
//  #03 //087   ----------------------------------------
 BYTE   EOT
 BYTE   Cn2
 BYTE   W01
 BYTE   TIE  Dn2  v100
 BYTE   W01
 BYTE   VOL   6*song09_mvl/mxv
 BYTE   W02
 BYTE   VOL   6*song09_mvl/mxv
 BYTE   W01
 BYTE   VOL   6*song09_mvl/mxv
 BYTE   W02
 BYTE   VOL   8*song09_mvl/mxv
 BYTE   W01
 BYTE   VOL   8*song09_mvl/mxv
 BYTE   W02
 BYTE   VOL   8*song09_mvl/mxv
 BYTE   W01
 BYTE   VOL   10*song09_mvl/mxv
 BYTE   W03
 BYTE   VOL   10*song09_mvl/mxv
 BYTE   W02
 BYTE   VOL   10*song09_mvl/mxv
 BYTE   W03
 BYTE   VOL   11*song09_mvl/mxv
 BYTE   W01
 BYTE   VOL   11*song09_mvl/mxv
 BYTE   W02
 BYTE   VOL   12*song09_mvl/mxv
 BYTE   W01
 BYTE   VOL   13*song09_mvl/mxv
 BYTE   W02
 BYTE   VOL   13*song09_mvl/mxv
 BYTE   W03
 BYTE   VOL   14*song09_mvl/mxv
 BYTE   W01
 BYTE   VOL   15*song09_mvl/mxv
 BYTE   W02
 BYTE   VOL   15*song09_mvl/mxv
 BYTE   W01
 BYTE   VOL   16*song09_mvl/mxv
 BYTE   W02
 BYTE   VOL   17*song09_mvl/mxv
 BYTE   W03
 BYTE   VOL   17*song09_mvl/mxv
 BYTE   W03
 BYTE   VOL   19*song09_mvl/mxv
 BYTE   W01
 BYTE   VOL   19*song09_mvl/mxv
 BYTE   W02
 BYTE   VOL   20*song09_mvl/mxv
 BYTE   W01
 BYTE   VOL   20*song09_mvl/mxv
 BYTE   W02
 BYTE   VOL   21*song09_mvl/mxv
 BYTE   W01
 BYTE   VOL   21*song09_mvl/mxv
 BYTE   W02
//  #03 //088   ----------------------------------------
 BYTE   PATT
  POIN2 Label_0146345C
//  #03 //089   ----------------------------------------
 BYTE   EOT
 BYTE   Dn2
 BYTE   W01
//  #03 //090   ----------------------------------------
 BYTE   PATT
  POIN2 Label_014635E0
//  #03 //091   ----------------------------------------
 BYTE   PATT
  POIN2 Label_014633F9
//  #03 //092   ----------------------------------------
 BYTE   EOT
 BYTE   Cn2
 BYTE   W01
 BYTE   N68  Dn2  v100
 BYTE   W01
 BYTE   VOL   6*song09_mvl/mxv
 BYTE   W02
 BYTE   VOL   6*song09_mvl/mxv
 BYTE   W01
 BYTE   VOL   6*song09_mvl/mxv
 BYTE   W02
 BYTE   VOL   8*song09_mvl/mxv
 BYTE   W01
 BYTE   VOL   8*song09_mvl/mxv
 BYTE   W02
 BYTE   VOL   8*song09_mvl/mxv
 BYTE   W01
 BYTE   VOL   10*song09_mvl/mxv
 BYTE   W03
 BYTE   VOL   10*song09_mvl/mxv
 BYTE   W02
 BYTE   VOL   10*song09_mvl/mxv
 BYTE   W03
 BYTE   VOL   11*song09_mvl/mxv
 BYTE   W01
 BYTE   VOL   11*song09_mvl/mxv
 BYTE   W02
 BYTE   VOL   12*song09_mvl/mxv
 BYTE   W01
 BYTE   VOL   13*song09_mvl/mxv
 BYTE   W02
 BYTE   VOL   13*song09_mvl/mxv
 BYTE   W03
 BYTE   VOL   14*song09_mvl/mxv
 BYTE   W01
 BYTE   VOL   15*song09_mvl/mxv
 BYTE   W02
 BYTE   VOL   15*song09_mvl/mxv
 BYTE   W01
 BYTE   VOL   16*song09_mvl/mxv
 BYTE   W02
 BYTE   VOL   17*song09_mvl/mxv
 BYTE   W03
 BYTE   VOL   17*song09_mvl/mxv
 BYTE   W03
 BYTE   VOL   19*song09_mvl/mxv
 BYTE   W01
 BYTE   VOL   19*song09_mvl/mxv
 BYTE   W02
 BYTE   VOL   20*song09_mvl/mxv
 BYTE   W01
 BYTE   VOL   20*song09_mvl/mxv
 BYTE   W02
 BYTE   VOL   21*song09_mvl/mxv
 BYTE   W01
 BYTE   VOL   21*song09_mvl/mxv
 BYTE   W02
//  #03 //093   ----------------------------------------
 BYTE   PATT
  POIN2 Label_014636C7
//  #03 //094   ----------------------------------------
 BYTE   PATT
  POIN2 Label_014635E0
//  #03 //095   ----------------------------------------
 BYTE   PATT
  POIN2 Label_014633F9
//  #03 //096   ----------------------------------------
 BYTE   EOT
 BYTE   Cn2
 BYTE   W01
 BYTE   TIE  Dn2  v100
 BYTE   W01
 BYTE   VOL   6*song09_mvl/mxv
 BYTE   W02
 BYTE   VOL   6*song09_mvl/mxv
 BYTE   W01
 BYTE   VOL   6*song09_mvl/mxv
 BYTE   W02
 BYTE   VOL   8*song09_mvl/mxv
 BYTE   W01
 BYTE   VOL   8*song09_mvl/mxv
 BYTE   W02
 BYTE   VOL   8*song09_mvl/mxv
 BYTE   W01
 BYTE   VOL   10*song09_mvl/mxv
 BYTE   W03
 BYTE   VOL   10*song09_mvl/mxv
 BYTE   W02
 BYTE   VOL   10*song09_mvl/mxv
 BYTE   W03
 BYTE   VOL   11*song09_mvl/mxv
 BYTE   W01
 BYTE   VOL   11*song09_mvl/mxv
 BYTE   W02
 BYTE   VOL   12*song09_mvl/mxv
 BYTE   W01
 BYTE   VOL   13*song09_mvl/mxv
 BYTE   W02
 BYTE   VOL   13*song09_mvl/mxv
 BYTE   W03
 BYTE   VOL   14*song09_mvl/mxv
 BYTE   W01
 BYTE   VOL   15*song09_mvl/mxv
 BYTE   W02
 BYTE   VOL   15*song09_mvl/mxv
 BYTE   W01
 BYTE   VOL   16*song09_mvl/mxv
 BYTE   W02
 BYTE   VOL   17*song09_mvl/mxv
 BYTE   W03
 BYTE   VOL   17*song09_mvl/mxv
 BYTE   W03
 BYTE   VOL   19*song09_mvl/mxv
 BYTE   W01
 BYTE   VOL   19*song09_mvl/mxv
 BYTE   W02
 BYTE   VOL   20*song09_mvl/mxv
 BYTE   W01
 BYTE   VOL   20*song09_mvl/mxv
 BYTE   W02
 BYTE   VOL   21*song09_mvl/mxv
 BYTE   W01
 BYTE   VOL   21*song09_mvl/mxv
 BYTE   W02
//  #03 //097   ----------------------------------------
 BYTE   PATT
  POIN2 Label_0146345C
//  #03 //098   ----------------------------------------
 BYTE   EOT
 BYTE   Dn2
 BYTE   W01
//  #03 //099   ----------------------------------------
 BYTE   PATT
  POIN2 Label_014635E0
//  #03 //100   ----------------------------------------
 BYTE   PATT
  POIN2 Label_014633F9
//  #03 //101   ----------------------------------------
 BYTE   EOT
 BYTE   Cn2
 BYTE   W01
 BYTE   N68  Dn2  v100
 BYTE   W01
 BYTE   VOL   6*song09_mvl/mxv
 BYTE   W02
 BYTE   VOL   6*song09_mvl/mxv
 BYTE   W01
 BYTE   VOL   6*song09_mvl/mxv
 BYTE   W02
 BYTE   VOL   8*song09_mvl/mxv
 BYTE   W01
 BYTE   VOL   8*song09_mvl/mxv
 BYTE   W02
 BYTE   VOL   8*song09_mvl/mxv
 BYTE   W01
 BYTE   VOL   10*song09_mvl/mxv
 BYTE   W03
 BYTE   VOL   10*song09_mvl/mxv
 BYTE   W02
 BYTE   VOL   10*song09_mvl/mxv
 BYTE   W03
 BYTE   VOL   11*song09_mvl/mxv
 BYTE   W01
 BYTE   VOL   11*song09_mvl/mxv
 BYTE   W02
 BYTE   VOL   12*song09_mvl/mxv
 BYTE   W01
 BYTE   VOL   13*song09_mvl/mxv
 BYTE   W02
 BYTE   VOL   13*song09_mvl/mxv
 BYTE   W03
 BYTE   VOL   14*song09_mvl/mxv
 BYTE   W01
 BYTE   VOL   15*song09_mvl/mxv
 BYTE   W02
 BYTE   VOL   15*song09_mvl/mxv
 BYTE   W01
 BYTE   VOL   16*song09_mvl/mxv
 BYTE   W02
 BYTE   VOL   17*song09_mvl/mxv
 BYTE   W03
 BYTE   VOL   17*song09_mvl/mxv
 BYTE   W03
 BYTE   VOL   19*song09_mvl/mxv
 BYTE   W01
 BYTE   VOL   19*song09_mvl/mxv
 BYTE   W02
 BYTE   VOL   20*song09_mvl/mxv
 BYTE   W01
 BYTE   VOL   20*song09_mvl/mxv
 BYTE   W02
 BYTE   VOL   21*song09_mvl/mxv
 BYTE   W01
 BYTE   VOL   21*song09_mvl/mxv
 BYTE   W02
//  #03 //102   ----------------------------------------
 BYTE   PATT
  POIN2 Label_014637A3
//  #03 //103   ----------------------------------------
 BYTE   PATT
  POIN2 Label_01463305
//  #03 //104   ----------------------------------------
 BYTE   PATT
  POIN2 Label_01463154
//  #03 //105   ----------------------------------------
 BYTE   PATT
  POIN2 Label_014637F7
//  #03 //106   ----------------------------------------
 BYTE   EOT
 BYTE   An1
 BYTE   VOL   0*song09_mvl/mxv
 BYTE   W01
//  #03 //107   ----------------------------------------
 BYTE   PATT
  POIN2 Label_014631F2
//  #03 //108   ----------------------------------------
 BYTE   PATT
  POIN2 Label_01463154
//  #03 //109   ----------------------------------------
 BYTE   PATT
  POIN2 Label_014637F7
//  #03 //110   ----------------------------------------
 BYTE   EOT
 BYTE   Gn1
 BYTE   W01
//  #03 //111   ----------------------------------------
 BYTE   PATT
  POIN2 Label_01463305
//  #03 //112   ----------------------------------------
 BYTE   PATT
  POIN2 Label_01463154
//  #03 //113   ----------------------------------------
 BYTE   PATT
  POIN2 Label_014631AA
//  #03 //114   ----------------------------------------
 BYTE   EOT
 BYTE   An1
 BYTE   VOL   0*song09_mvl/mxv
 BYTE   W01
//  #03 //115   ----------------------------------------
 BYTE   PATT
  POIN2 Label_014631F2
//  #03 //116   ----------------------------------------
 BYTE   PATT
  POIN2 Label_01463154
//  #03 //117   ----------------------------------------
 BYTE   PATT
  POIN2 Label_014631AA
//  #03 //118   ----------------------------------------
 BYTE   EOT
 BYTE   Gn1
 BYTE   W01
//  #03 //119   ----------------------------------------
 BYTE   PATT
  POIN2 Label_014634A3
//  #03 //120   ----------------------------------------
 BYTE   PATT
  POIN2 Label_014633F9
//  #03 //121   ----------------------------------------
 BYTE   EOT
 BYTE   Fn1
 BYTE   W01
 BYTE   TIE  En1  v100
 BYTE   W01
 BYTE   VOL   6*song09_mvl/mxv
 BYTE   W02
 BYTE   VOL   6*song09_mvl/mxv
 BYTE   W01
 BYTE   VOL   6*song09_mvl/mxv
 BYTE   W02
 BYTE   VOL   8*song09_mvl/mxv
 BYTE   W01
 BYTE   VOL   8*song09_mvl/mxv
 BYTE   W02
 BYTE   VOL   8*song09_mvl/mxv
 BYTE   W01
 BYTE   VOL   10*song09_mvl/mxv
 BYTE   W03
 BYTE   VOL   10*song09_mvl/mxv
 BYTE   W02
 BYTE   VOL   10*song09_mvl/mxv
 BYTE   W03
 BYTE   VOL   11*song09_mvl/mxv
 BYTE   W01
 BYTE   VOL   11*song09_mvl/mxv
 BYTE   W02
 BYTE   VOL   12*song09_mvl/mxv
 BYTE   W01
 BYTE   VOL   13*song09_mvl/mxv
 BYTE   W02
 BYTE   VOL   13*song09_mvl/mxv
 BYTE   W03
 BYTE   VOL   14*song09_mvl/mxv
 BYTE   W01
 BYTE   VOL   15*song09_mvl/mxv
 BYTE   W02
 BYTE   VOL   15*song09_mvl/mxv
 BYTE   W01
 BYTE   VOL   16*song09_mvl/mxv
 BYTE   W02
 BYTE   VOL   17*song09_mvl/mxv
 BYTE   W03
 BYTE   VOL   17*song09_mvl/mxv
 BYTE   W03
 BYTE   VOL   19*song09_mvl/mxv
 BYTE   W01
 BYTE   VOL   19*song09_mvl/mxv
 BYTE   W02
 BYTE   VOL   20*song09_mvl/mxv
 BYTE   W01
 BYTE   VOL   20*song09_mvl/mxv
 BYTE   W02
 BYTE   VOL   21*song09_mvl/mxv
 BYTE   W01
 BYTE   VOL   21*song09_mvl/mxv
 BYTE   W02
//  #03 //122   ----------------------------------------
 BYTE   PATT
  POIN2 Label_0146345C
//  #03 //123   ----------------------------------------
 BYTE   EOT
 BYTE   En1
 BYTE   W01
//  #03 //124   ----------------------------------------
 BYTE   PATT
  POIN2 Label_014634A3
//  #03 //125   ----------------------------------------
 BYTE   PATT
  POIN2 Label_014633F9
//  #03 //126   ----------------------------------------
 BYTE   EOT
 BYTE   Fn1
 BYTE   W01
 BYTE   TIE  En1  v100
 BYTE   W01
 BYTE   VOL   6*song09_mvl/mxv
 BYTE   W02
 BYTE   VOL   6*song09_mvl/mxv
 BYTE   W01
 BYTE   VOL   6*song09_mvl/mxv
 BYTE   W02
 BYTE   VOL   8*song09_mvl/mxv
 BYTE   W01
 BYTE   VOL   8*song09_mvl/mxv
 BYTE   W02
 BYTE   VOL   8*song09_mvl/mxv
 BYTE   W01
 BYTE   VOL   10*song09_mvl/mxv
 BYTE   W03
 BYTE   VOL   10*song09_mvl/mxv
 BYTE   W02
 BYTE   VOL   10*song09_mvl/mxv
 BYTE   W03
 BYTE   VOL   11*song09_mvl/mxv
 BYTE   W01
 BYTE   VOL   11*song09_mvl/mxv
 BYTE   W02
 BYTE   VOL   12*song09_mvl/mxv
 BYTE   W01
 BYTE   VOL   13*song09_mvl/mxv
 BYTE   W02
 BYTE   VOL   13*song09_mvl/mxv
 BYTE   W03
 BYTE   VOL   14*song09_mvl/mxv
 BYTE   W01
 BYTE   VOL   15*song09_mvl/mxv
 BYTE   W02
 BYTE   VOL   15*song09_mvl/mxv
 BYTE   W01
 BYTE   VOL   16*song09_mvl/mxv
 BYTE   W02
 BYTE   VOL   17*song09_mvl/mxv
 BYTE   W03
 BYTE   VOL   17*song09_mvl/mxv
 BYTE   W03
 BYTE   VOL   19*song09_mvl/mxv
 BYTE   W01
 BYTE   VOL   19*song09_mvl/mxv
 BYTE   W02
 BYTE   VOL   20*song09_mvl/mxv
 BYTE   W01
 BYTE   VOL   20*song09_mvl/mxv
 BYTE   W02
 BYTE   VOL   21*song09_mvl/mxv
 BYTE   W01
 BYTE   VOL   21*song09_mvl/mxv
 BYTE   W02
//  #03 //127   ----------------------------------------
 BYTE   PATT
  POIN2 Label_0146345C
//  #03 //128   ----------------------------------------
 BYTE   EOT
 BYTE   En1
 BYTE   W01
//  #03 //129   ----------------------------------------
 BYTE   PATT
  POIN2 Label_014634A3
//  #03 //130   ----------------------------------------
 BYTE   PATT
  POIN2 Label_014633F9
//  #03 //131   ----------------------------------------
 BYTE   EOT
 BYTE   Fn1
 BYTE   W01
 BYTE   TIE  En1  v100
 BYTE   W01
 BYTE   VOL   6*song09_mvl/mxv
 BYTE   W02
 BYTE   VOL   6*song09_mvl/mxv
 BYTE   W01
 BYTE   VOL   6*song09_mvl/mxv
 BYTE   W02
 BYTE   VOL   8*song09_mvl/mxv
 BYTE   W01
 BYTE   VOL   8*song09_mvl/mxv
 BYTE   W02
 BYTE   VOL   8*song09_mvl/mxv
 BYTE   W01
 BYTE   VOL   10*song09_mvl/mxv
 BYTE   W03
 BYTE   VOL   10*song09_mvl/mxv
 BYTE   W02
 BYTE   VOL   10*song09_mvl/mxv
 BYTE   W03
 BYTE   VOL   11*song09_mvl/mxv
 BYTE   W01
 BYTE   VOL   11*song09_mvl/mxv
 BYTE   W02
 BYTE   VOL   12*song09_mvl/mxv
 BYTE   W01
 BYTE   VOL   13*song09_mvl/mxv
 BYTE   W02
 BYTE   VOL   13*song09_mvl/mxv
 BYTE   W03
 BYTE   VOL   14*song09_mvl/mxv
 BYTE   W01
 BYTE   VOL   15*song09_mvl/mxv
 BYTE   W02
 BYTE   VOL   15*song09_mvl/mxv
 BYTE   W01
 BYTE   VOL   16*song09_mvl/mxv
 BYTE   W02
 BYTE   VOL   17*song09_mvl/mxv
 BYTE   W03
 BYTE   VOL   17*song09_mvl/mxv
 BYTE   W03
 BYTE   VOL   19*song09_mvl/mxv
 BYTE   W01
 BYTE   VOL   19*song09_mvl/mxv
 BYTE   W02
 BYTE   VOL   20*song09_mvl/mxv
 BYTE   W01
 BYTE   VOL   20*song09_mvl/mxv
 BYTE   W02
 BYTE   VOL   21*song09_mvl/mxv
 BYTE   W01
 BYTE   VOL   21*song09_mvl/mxv
 BYTE   W02
//  #03 //132   ----------------------------------------
 BYTE   PATT
  POIN2 Label_0146345C
//  #03 //133   ----------------------------------------
 BYTE   EOT
 BYTE   En1
 BYTE   W01
//  #03 //134   ----------------------------------------
 BYTE   PATT
  POIN2 Label_014634A3
//  #03 //135   ----------------------------------------
 BYTE   PATT
  POIN2 Label_014633F9
//  #03 //136   ----------------------------------------
 BYTE   EOT
 BYTE   Fn1
 BYTE   W01
 BYTE   TIE  En1  v100
 BYTE   W01
 BYTE   VOL   6*song09_mvl/mxv
 BYTE   W02
 BYTE   VOL   6*song09_mvl/mxv
 BYTE   W01
 BYTE   VOL   6*song09_mvl/mxv
 BYTE   W02
 BYTE   VOL   8*song09_mvl/mxv
 BYTE   W01
 BYTE   VOL   8*song09_mvl/mxv
 BYTE   W02
 BYTE   VOL   8*song09_mvl/mxv
 BYTE   W01
 BYTE   VOL   10*song09_mvl/mxv
 BYTE   W03
 BYTE   VOL   10*song09_mvl/mxv
 BYTE   W02
 BYTE   VOL   10*song09_mvl/mxv
 BYTE   W03
 BYTE   VOL   11*song09_mvl/mxv
 BYTE   W01
 BYTE   VOL   11*song09_mvl/mxv
 BYTE   W02
 BYTE   VOL   12*song09_mvl/mxv
 BYTE   W01
 BYTE   VOL   13*song09_mvl/mxv
 BYTE   W02
 BYTE   VOL   13*song09_mvl/mxv
 BYTE   W03
 BYTE   VOL   14*song09_mvl/mxv
 BYTE   W01
 BYTE   VOL   15*song09_mvl/mxv
 BYTE   W02
 BYTE   VOL   15*song09_mvl/mxv
 BYTE   W01
 BYTE   VOL   16*song09_mvl/mxv
 BYTE   W02
 BYTE   VOL   17*song09_mvl/mxv
 BYTE   W03
 BYTE   VOL   17*song09_mvl/mxv
 BYTE   W03
 BYTE   VOL   19*song09_mvl/mxv
 BYTE   W01
 BYTE   VOL   19*song09_mvl/mxv
 BYTE   W02
 BYTE   VOL   20*song09_mvl/mxv
 BYTE   W01
 BYTE   VOL   20*song09_mvl/mxv
 BYTE   W02
 BYTE   VOL   21*song09_mvl/mxv
 BYTE   W01
 BYTE   VOL   21*song09_mvl/mxv
 BYTE   W02
//  #03 //137   ----------------------------------------
 BYTE   PATT
  POIN2 Label_0146345C
//  #03 //138   ----------------------------------------
 BYTE   EOT
 BYTE   En1
 BYTE   W01
//  #03 //139   ----------------------------------------
 BYTE   PATT
  POIN2 Label_014635E0
//  #03 //140   ----------------------------------------
 BYTE   PATT
  POIN2 Label_014633F9
//  #03 //141   ----------------------------------------
 BYTE   EOT
 BYTE   Cn2
 BYTE   W01
 BYTE   TIE  Dn2  v100
 BYTE   W01
 BYTE   VOL   6*song09_mvl/mxv
 BYTE   W02
 BYTE   VOL   6*song09_mvl/mxv
 BYTE   W01
 BYTE   VOL   6*song09_mvl/mxv
 BYTE   W02
 BYTE   VOL   8*song09_mvl/mxv
 BYTE   W01
 BYTE   VOL   8*song09_mvl/mxv
 BYTE   W02
 BYTE   VOL   8*song09_mvl/mxv
 BYTE   W01
 BYTE   VOL   10*song09_mvl/mxv
 BYTE   W03
 BYTE   VOL   10*song09_mvl/mxv
 BYTE   W02
 BYTE   VOL   10*song09_mvl/mxv
 BYTE   W03
 BYTE   VOL   11*song09_mvl/mxv
 BYTE   W01
 BYTE   VOL   11*song09_mvl/mxv
 BYTE   W02
 BYTE   VOL   12*song09_mvl/mxv
 BYTE   W01
 BYTE   VOL   13*song09_mvl/mxv
 BYTE   W02
 BYTE   VOL   13*song09_mvl/mxv
 BYTE   W03
 BYTE   VOL   14*song09_mvl/mxv
 BYTE   W01
 BYTE   VOL   15*song09_mvl/mxv
 BYTE   W02
 BYTE   VOL   15*song09_mvl/mxv
 BYTE   W01
 BYTE   VOL   16*song09_mvl/mxv
 BYTE   W02
 BYTE   VOL   17*song09_mvl/mxv
 BYTE   W03
 BYTE   VOL   17*song09_mvl/mxv
 BYTE   W03
 BYTE   VOL   19*song09_mvl/mxv
 BYTE   W01
 BYTE   VOL   19*song09_mvl/mxv
 BYTE   W02
 BYTE   VOL   20*song09_mvl/mxv
 BYTE   W01
 BYTE   VOL   20*song09_mvl/mxv
 BYTE   W02
 BYTE   VOL   21*song09_mvl/mxv
 BYTE   W01
 BYTE   VOL   21*song09_mvl/mxv
 BYTE   W02
//  #03 //142   ----------------------------------------
 BYTE   PATT
  POIN2 Label_0146345C
//  #03 //143   ----------------------------------------
 BYTE   EOT
 BYTE   Dn2
 BYTE   W01
//  #03 //144   ----------------------------------------
 BYTE   PATT
  POIN2 Label_014635E0
//  #03 //145   ----------------------------------------
 BYTE   PATT
  POIN2 Label_014633F9
//  #03 //146   ----------------------------------------
 BYTE   EOT
 BYTE   Cn2
 BYTE   W01
 BYTE   N68  Dn2  v100
 BYTE   W01
 BYTE   VOL   6*song09_mvl/mxv
 BYTE   W02
 BYTE   VOL   6*song09_mvl/mxv
 BYTE   W01
 BYTE   VOL   6*song09_mvl/mxv
 BYTE   W02
 BYTE   VOL   8*song09_mvl/mxv
 BYTE   W01
 BYTE   VOL   8*song09_mvl/mxv
 BYTE   W02
 BYTE   VOL   8*song09_mvl/mxv
 BYTE   W01
 BYTE   VOL   10*song09_mvl/mxv
 BYTE   W03
 BYTE   VOL   10*song09_mvl/mxv
 BYTE   W02
 BYTE   VOL   10*song09_mvl/mxv
 BYTE   W03
 BYTE   VOL   11*song09_mvl/mxv
 BYTE   W01
 BYTE   VOL   11*song09_mvl/mxv
 BYTE   W02
 BYTE   VOL   12*song09_mvl/mxv
 BYTE   W01
 BYTE   VOL   13*song09_mvl/mxv
 BYTE   W02
 BYTE   VOL   13*song09_mvl/mxv
 BYTE   W03
 BYTE   VOL   14*song09_mvl/mxv
 BYTE   W01
 BYTE   VOL   15*song09_mvl/mxv
 BYTE   W02
 BYTE   VOL   15*song09_mvl/mxv
 BYTE   W01
 BYTE   VOL   16*song09_mvl/mxv
 BYTE   W02
 BYTE   VOL   17*song09_mvl/mxv
 BYTE   W03
 BYTE   VOL   17*song09_mvl/mxv
 BYTE   W03
 BYTE   VOL   19*song09_mvl/mxv
 BYTE   W01
 BYTE   VOL   19*song09_mvl/mxv
 BYTE   W02
 BYTE   VOL   20*song09_mvl/mxv
 BYTE   W01
 BYTE   VOL   20*song09_mvl/mxv
 BYTE   W02
 BYTE   VOL   21*song09_mvl/mxv
 BYTE   W01
 BYTE   VOL   21*song09_mvl/mxv
 BYTE   W02
//  #03 //147   ----------------------------------------
 BYTE   PATT
  POIN2 Label_014636C7
//  #03 //148   ----------------------------------------
 BYTE   PATT
  POIN2 Label_014635E0
//  #03 //149   ----------------------------------------
 BYTE   PATT
  POIN2 Label_014633F9
//  #03 //150   ----------------------------------------
 BYTE   EOT
 BYTE   Cn2
 BYTE   W01
 BYTE   TIE  Dn2  v100
 BYTE   W01
 BYTE   VOL   6*song09_mvl/mxv
 BYTE   W02
 BYTE   VOL   6*song09_mvl/mxv
 BYTE   W01
 BYTE   VOL   6*song09_mvl/mxv
 BYTE   W02
 BYTE   VOL   8*song09_mvl/mxv
 BYTE   W01
 BYTE   VOL   8*song09_mvl/mxv
 BYTE   W02
 BYTE   VOL   8*song09_mvl/mxv
 BYTE   W01
 BYTE   VOL   10*song09_mvl/mxv
 BYTE   W03
 BYTE   VOL   10*song09_mvl/mxv
 BYTE   W02
 BYTE   VOL   10*song09_mvl/mxv
 BYTE   W03
 BYTE   VOL   11*song09_mvl/mxv
 BYTE   W01
 BYTE   VOL   11*song09_mvl/mxv
 BYTE   W02
 BYTE   VOL   12*song09_mvl/mxv
 BYTE   W01
 BYTE   VOL   13*song09_mvl/mxv
 BYTE   W02
 BYTE   VOL   13*song09_mvl/mxv
 BYTE   W03
 BYTE   VOL   14*song09_mvl/mxv
 BYTE   W01
 BYTE   VOL   15*song09_mvl/mxv
 BYTE   W02
 BYTE   VOL   15*song09_mvl/mxv
 BYTE   W01
 BYTE   VOL   16*song09_mvl/mxv
 BYTE   W02
 BYTE   VOL   17*song09_mvl/mxv
 BYTE   W03
 BYTE   VOL   17*song09_mvl/mxv
 BYTE   W03
 BYTE   VOL   19*song09_mvl/mxv
 BYTE   W01
 BYTE   VOL   19*song09_mvl/mxv
 BYTE   W02
 BYTE   VOL   20*song09_mvl/mxv
 BYTE   W01
 BYTE   VOL   20*song09_mvl/mxv
 BYTE   W02
 BYTE   VOL   21*song09_mvl/mxv
 BYTE   W01
 BYTE   VOL   21*song09_mvl/mxv
 BYTE   W02
//  #03 //151   ----------------------------------------
 BYTE   PATT
  POIN2 Label_0146345C
//  #03 //152   ----------------------------------------
 BYTE   EOT
 BYTE   Dn2
 BYTE   W01
//  #03 //153   ----------------------------------------
 BYTE   PATT
  POIN2 Label_014635E0
//  #03 //154   ----------------------------------------
 BYTE   PATT
  POIN2 Label_014633F9
//  #03 //155   ----------------------------------------
 BYTE   EOT
 BYTE   Cn2
 BYTE   W01
 BYTE   N68  Dn2  v100
 BYTE   W01
 BYTE   VOL   6*song09_mvl/mxv
 BYTE   W02
 BYTE   VOL   6*song09_mvl/mxv
 BYTE   W01
 BYTE   VOL   6*song09_mvl/mxv
 BYTE   W02
 BYTE   VOL   8*song09_mvl/mxv
 BYTE   W01
 BYTE   VOL   8*song09_mvl/mxv
 BYTE   W02
 BYTE   VOL   8*song09_mvl/mxv
 BYTE   W01
 BYTE   VOL   10*song09_mvl/mxv
 BYTE   W03
 BYTE   VOL   10*song09_mvl/mxv
 BYTE   W02
 BYTE   VOL   10*song09_mvl/mxv
 BYTE   W03
 BYTE   VOL   11*song09_mvl/mxv
 BYTE   W01
 BYTE   VOL   11*song09_mvl/mxv
 BYTE   W02
 BYTE   VOL   12*song09_mvl/mxv
 BYTE   W01
 BYTE   VOL   13*song09_mvl/mxv
 BYTE   W02
 BYTE   VOL   13*song09_mvl/mxv
 BYTE   W03
 BYTE   VOL   14*song09_mvl/mxv
 BYTE   W01
 BYTE   VOL   15*song09_mvl/mxv
 BYTE   W02
 BYTE   VOL   15*song09_mvl/mxv
 BYTE   W01
 BYTE   VOL   16*song09_mvl/mxv
 BYTE   W02
 BYTE   VOL   17*song09_mvl/mxv
 BYTE   W03
 BYTE   VOL   17*song09_mvl/mxv
 BYTE   W03
 BYTE   VOL   19*song09_mvl/mxv
 BYTE   W01
 BYTE   VOL   19*song09_mvl/mxv
 BYTE   W02
 BYTE   VOL   20*song09_mvl/mxv
 BYTE   W01
 BYTE   VOL   20*song09_mvl/mxv
 BYTE   W02
 BYTE   VOL   21*song09_mvl/mxv
 BYTE   W01
 BYTE   VOL   21*song09_mvl/mxv
 BYTE   W02
//  #03 //156   ----------------------------------------
 BYTE   PATT
  POIN2 Label_014637A3
//  #03 //157   ----------------------------------------
 BYTE   PATT
  POIN2 Label_01463305
//  #03 //158   ----------------------------------------
 BYTE   PATT
  POIN2 Label_01463154
//  #03 //159   ----------------------------------------
 BYTE   PATT
  POIN2 Label_014637F7
//  #03 //160   ----------------------------------------
 BYTE   EOT
 BYTE   An1
 BYTE   VOL   0*song09_mvl/mxv
 BYTE   W01
//  #03 //161   ----------------------------------------
 BYTE   PATT
  POIN2 Label_014631F2
//  #03 //162   ----------------------------------------
 BYTE   PATT
  POIN2 Label_01463154
//  #03 //163   ----------------------------------------
 BYTE   PATT
  POIN2 Label_014637F7
//  #03 //164   ----------------------------------------
 BYTE   EOT
 BYTE   Gn1
 BYTE   W01
//  #03 //165   ----------------------------------------
 BYTE   PATT
  POIN2 Label_01463305
//  #03 //166   ----------------------------------------
 BYTE   PATT
  POIN2 Label_01463154
//  #03 //167   ----------------------------------------
 BYTE   PATT
  POIN2 Label_014631AA
//  #03 //168   ----------------------------------------
 BYTE   EOT
 BYTE   An1
 BYTE   VOL   0*song09_mvl/mxv
 BYTE   W01
//  #03 //169   ----------------------------------------
 BYTE   PATT
  POIN2 Label_014631F2
//  #03 //170   ----------------------------------------
 BYTE   PATT
  POIN2 Label_01463154
//  #03 //171   ----------------------------------------
 BYTE   PATT
  POIN2 Label_014631AA
//  #03 //172   ----------------------------------------
 BYTE   EOT
 BYTE   Gn1
 BYTE   W01
//  #03 //173   ----------------------------------------
 BYTE   PATT
  POIN2 Label_014634A3
//  #03 //174   ----------------------------------------
 BYTE   PATT
  POIN2 Label_014633F9
//  #03 //175   ----------------------------------------
 BYTE   EOT
 BYTE   Fn1
 BYTE   W01
 BYTE   TIE  En1  v100
 BYTE   W01
 BYTE   VOL   6*song09_mvl/mxv
 BYTE   W02
 BYTE   VOL   6*song09_mvl/mxv
 BYTE   W01
 BYTE   VOL   6*song09_mvl/mxv
 BYTE   W02
 BYTE   VOL   8*song09_mvl/mxv
 BYTE   W01
 BYTE   VOL   8*song09_mvl/mxv
 BYTE   W02
 BYTE   VOL   8*song09_mvl/mxv
 BYTE   W01
 BYTE   VOL   10*song09_mvl/mxv
 BYTE   W03
 BYTE   VOL   10*song09_mvl/mxv
 BYTE   W02
 BYTE   VOL   10*song09_mvl/mxv
 BYTE   W03
 BYTE   VOL   11*song09_mvl/mxv
 BYTE   W01
 BYTE   VOL   11*song09_mvl/mxv
 BYTE   W02
 BYTE   VOL   12*song09_mvl/mxv
 BYTE   W01
 BYTE   VOL   13*song09_mvl/mxv
 BYTE   W02
 BYTE   VOL   13*song09_mvl/mxv
 BYTE   W03
 BYTE   VOL   14*song09_mvl/mxv
 BYTE   W01
 BYTE   VOL   15*song09_mvl/mxv
 BYTE   W02
 BYTE   VOL   15*song09_mvl/mxv
 BYTE   W01
 BYTE   VOL   16*song09_mvl/mxv
 BYTE   W02
 BYTE   VOL   17*song09_mvl/mxv
 BYTE   W03
 BYTE   VOL   17*song09_mvl/mxv
 BYTE   W03
 BYTE   VOL   19*song09_mvl/mxv
 BYTE   W01
 BYTE   VOL   19*song09_mvl/mxv
 BYTE   W02
 BYTE   VOL   20*song09_mvl/mxv
 BYTE   W01
 BYTE   VOL   20*song09_mvl/mxv
 BYTE   W02
 BYTE   VOL   21*song09_mvl/mxv
 BYTE   W01
 BYTE   VOL   21*song09_mvl/mxv
 BYTE   W02
//  #03 //176   ----------------------------------------
 BYTE   PATT
  POIN2 Label_0146345C
//  #03 //177   ----------------------------------------
 BYTE   EOT
 BYTE   En1
 BYTE   W01
//  #03 //178   ----------------------------------------
 BYTE   PATT
  POIN2 Label_014634A3
//  #03 //179   ----------------------------------------
 BYTE   PATT
  POIN2 Label_014633F9
//  #03 //180   ----------------------------------------
 BYTE   EOT
 BYTE   Fn1
 BYTE   W01
 BYTE   TIE  En1  v100
 BYTE   W01
 BYTE   VOL   6*song09_mvl/mxv
 BYTE   W02
 BYTE   VOL   6*song09_mvl/mxv
 BYTE   W01
 BYTE   VOL   6*song09_mvl/mxv
 BYTE   W02
 BYTE   VOL   8*song09_mvl/mxv
 BYTE   W01
 BYTE   VOL   8*song09_mvl/mxv
 BYTE   W02
 BYTE   VOL   8*song09_mvl/mxv
 BYTE   W01
 BYTE   VOL   10*song09_mvl/mxv
 BYTE   W03
 BYTE   VOL   10*song09_mvl/mxv
 BYTE   W02
 BYTE   VOL   10*song09_mvl/mxv
 BYTE   W03
 BYTE   VOL   11*song09_mvl/mxv
 BYTE   W01
 BYTE   VOL   11*song09_mvl/mxv
 BYTE   W02
 BYTE   VOL   12*song09_mvl/mxv
 BYTE   W01
 BYTE   VOL   13*song09_mvl/mxv
 BYTE   W02
 BYTE   VOL   13*song09_mvl/mxv
 BYTE   W03
 BYTE   VOL   14*song09_mvl/mxv
 BYTE   W01
 BYTE   VOL   15*song09_mvl/mxv
 BYTE   W02
 BYTE   VOL   15*song09_mvl/mxv
 BYTE   W01
 BYTE   VOL   16*song09_mvl/mxv
 BYTE   W02
 BYTE   VOL   17*song09_mvl/mxv
 BYTE   W03
 BYTE   VOL   17*song09_mvl/mxv
 BYTE   W03
 BYTE   VOL   19*song09_mvl/mxv
 BYTE   W01
 BYTE   VOL   19*song09_mvl/mxv
 BYTE   W02
 BYTE   VOL   20*song09_mvl/mxv
 BYTE   W01
 BYTE   VOL   20*song09_mvl/mxv
 BYTE   W02
 BYTE   VOL   21*song09_mvl/mxv
 BYTE   W01
 BYTE   VOL   21*song09_mvl/mxv
 BYTE   W02
//  #03 //181   ----------------------------------------
 BYTE   PATT
  POIN2 Label_0146345C
//  #03 //182   ----------------------------------------
 BYTE   EOT
 BYTE   En1
 BYTE   W01
//  #03 //183   ----------------------------------------
 BYTE   PATT
  POIN2 Label_014634A3
//  #03 //184   ----------------------------------------
 BYTE   PATT
  POIN2 Label_014633F9
//  #03 //185   ----------------------------------------
 BYTE   EOT
 BYTE   Fn1
 BYTE   W01
 BYTE   TIE  En1  v100
 BYTE   W01
 BYTE   VOL   6*song09_mvl/mxv
 BYTE   W02
 BYTE   VOL   6*song09_mvl/mxv
 BYTE   W01
 BYTE   VOL   6*song09_mvl/mxv
 BYTE   W02
 BYTE   VOL   8*song09_mvl/mxv
 BYTE   W01
 BYTE   VOL   8*song09_mvl/mxv
 BYTE   W02
 BYTE   VOL   8*song09_mvl/mxv
 BYTE   W01
 BYTE   VOL   10*song09_mvl/mxv
 BYTE   W03
 BYTE   VOL   10*song09_mvl/mxv
 BYTE   W02
 BYTE   VOL   10*song09_mvl/mxv
 BYTE   W03
 BYTE   VOL   11*song09_mvl/mxv
 BYTE   W01
 BYTE   VOL   11*song09_mvl/mxv
 BYTE   W02
 BYTE   VOL   12*song09_mvl/mxv
 BYTE   W01
 BYTE   VOL   13*song09_mvl/mxv
 BYTE   W02
 BYTE   VOL   13*song09_mvl/mxv
 BYTE   W03
 BYTE   VOL   14*song09_mvl/mxv
 BYTE   W01
 BYTE   VOL   15*song09_mvl/mxv
 BYTE   W02
 BYTE   VOL   15*song09_mvl/mxv
 BYTE   W01
 BYTE   VOL   16*song09_mvl/mxv
 BYTE   W02
 BYTE   VOL   17*song09_mvl/mxv
 BYTE   W03
 BYTE   VOL   17*song09_mvl/mxv
 BYTE   W03
 BYTE   VOL   19*song09_mvl/mxv
 BYTE   W01
 BYTE   VOL   19*song09_mvl/mxv
 BYTE   W02
 BYTE   VOL   20*song09_mvl/mxv
 BYTE   W01
 BYTE   VOL   20*song09_mvl/mxv
 BYTE   W02
 BYTE   VOL   21*song09_mvl/mxv
 BYTE   W01
 BYTE   VOL   21*song09_mvl/mxv
 BYTE   W02
//  #03 //186   ----------------------------------------
 BYTE   PATT
  POIN2 Label_0146345C
//  #03 //187   ----------------------------------------
 BYTE   EOT
 BYTE   En1
 BYTE   W01
//  #03 //188   ----------------------------------------
 BYTE   PATT
  POIN2 Label_014634A3
//  #03 //189   ----------------------------------------
 BYTE   PATT
  POIN2 Label_014633F9
//  #03 //190   ----------------------------------------
 BYTE   EOT
 BYTE   Fn1
 BYTE   W01
 BYTE   TIE  En1  v100
 BYTE   W01
 BYTE   VOL   6*song09_mvl/mxv
 BYTE   W02
 BYTE   VOL   6*song09_mvl/mxv
 BYTE   W01
 BYTE   VOL   6*song09_mvl/mxv
 BYTE   W02
 BYTE   VOL   8*song09_mvl/mxv
 BYTE   W01
 BYTE   VOL   8*song09_mvl/mxv
 BYTE   W02
 BYTE   VOL   8*song09_mvl/mxv
 BYTE   W01
 BYTE   VOL   10*song09_mvl/mxv
 BYTE   W03
 BYTE   VOL   10*song09_mvl/mxv
 BYTE   W02
 BYTE   VOL   10*song09_mvl/mxv
 BYTE   W03
 BYTE   VOL   11*song09_mvl/mxv
 BYTE   W01
 BYTE   VOL   11*song09_mvl/mxv
 BYTE   W02
 BYTE   VOL   12*song09_mvl/mxv
 BYTE   W01
 BYTE   VOL   13*song09_mvl/mxv
 BYTE   W02
 BYTE   VOL   13*song09_mvl/mxv
 BYTE   W03
 BYTE   VOL   14*song09_mvl/mxv
 BYTE   W01
 BYTE   VOL   15*song09_mvl/mxv
 BYTE   W02
 BYTE   VOL   15*song09_mvl/mxv
 BYTE   W01
 BYTE   VOL   16*song09_mvl/mxv
 BYTE   W02
 BYTE   VOL   17*song09_mvl/mxv
 BYTE   W03
 BYTE   VOL   17*song09_mvl/mxv
 BYTE   W03
 BYTE   VOL   19*song09_mvl/mxv
 BYTE   W01
 BYTE   VOL   19*song09_mvl/mxv
 BYTE   W02
 BYTE   VOL   20*song09_mvl/mxv
 BYTE   W01
 BYTE   VOL   20*song09_mvl/mxv
 BYTE   W02
 BYTE   VOL   21*song09_mvl/mxv
 BYTE   W01
 BYTE   VOL   21*song09_mvl/mxv
 BYTE   W02
//  #03 //191   ----------------------------------------
 BYTE   PATT
  POIN2 Label_0146345C
//  #03 //192   ----------------------------------------
 BYTE   EOT
 BYTE   En1
 BYTE   W01
//  #03 //193   ----------------------------------------
 BYTE   PATT
  POIN2 Label_014635E0
//  #03 //194   ----------------------------------------
 BYTE   PATT
  POIN2 Label_014633F9
//  #03 //195   ----------------------------------------
 BYTE   EOT
 BYTE   Cn2
 BYTE   W01
 BYTE   TIE  Dn2  v100
 BYTE   W01
 BYTE   VOL   6*song09_mvl/mxv
 BYTE   W02
 BYTE   VOL   6*song09_mvl/mxv
 BYTE   W01
 BYTE   VOL   6*song09_mvl/mxv
 BYTE   W02
 BYTE   VOL   8*song09_mvl/mxv
 BYTE   W01
 BYTE   VOL   8*song09_mvl/mxv
 BYTE   W02
 BYTE   VOL   8*song09_mvl/mxv
 BYTE   W01
 BYTE   VOL   10*song09_mvl/mxv
 BYTE   W03
 BYTE   VOL   10*song09_mvl/mxv
 BYTE   W02
 BYTE   VOL   10*song09_mvl/mxv
 BYTE   W03
 BYTE   VOL   11*song09_mvl/mxv
 BYTE   W01
 BYTE   VOL   11*song09_mvl/mxv
 BYTE   W02
 BYTE   VOL   12*song09_mvl/mxv
 BYTE   W01
 BYTE   VOL   13*song09_mvl/mxv
 BYTE   W02
 BYTE   VOL   13*song09_mvl/mxv
 BYTE   W03
 BYTE   VOL   14*song09_mvl/mxv
 BYTE   W01
 BYTE   VOL   15*song09_mvl/mxv
 BYTE   W02
 BYTE   VOL   15*song09_mvl/mxv
 BYTE   W01
 BYTE   VOL   16*song09_mvl/mxv
 BYTE   W02
 BYTE   VOL   17*song09_mvl/mxv
 BYTE   W03
 BYTE   VOL   17*song09_mvl/mxv
 BYTE   W03
 BYTE   VOL   19*song09_mvl/mxv
 BYTE   W01
 BYTE   VOL   19*song09_mvl/mxv
 BYTE   W02
 BYTE   VOL   20*song09_mvl/mxv
 BYTE   W01
 BYTE   VOL   20*song09_mvl/mxv
 BYTE   W02
 BYTE   VOL   21*song09_mvl/mxv
 BYTE   W01
 BYTE   VOL   21*song09_mvl/mxv
 BYTE   W02
//  #03 //196   ----------------------------------------
 BYTE   PATT
  POIN2 Label_0146345C
//  #03 //197   ----------------------------------------
 BYTE   EOT
 BYTE   Dn2
 BYTE   W01
//  #03 //198   ----------------------------------------
 BYTE   PATT
  POIN2 Label_014635E0
//  #03 //199   ----------------------------------------
 BYTE   PATT
  POIN2 Label_014633F9
//  #03 //200   ----------------------------------------
 BYTE   EOT
 BYTE   Cn2
 BYTE   W01
 BYTE   N68  Dn2  v100
 BYTE   W01
 BYTE   VOL   6*song09_mvl/mxv
 BYTE   W02
 BYTE   VOL   6*song09_mvl/mxv
 BYTE   W01
 BYTE   VOL   6*song09_mvl/mxv
 BYTE   W02
 BYTE   VOL   8*song09_mvl/mxv
 BYTE   W01
 BYTE   VOL   8*song09_mvl/mxv
 BYTE   W02
 BYTE   VOL   8*song09_mvl/mxv
 BYTE   W01
 BYTE   VOL   10*song09_mvl/mxv
 BYTE   W03
 BYTE   VOL   10*song09_mvl/mxv
 BYTE   W02
 BYTE   VOL   10*song09_mvl/mxv
 BYTE   W03
 BYTE   VOL   11*song09_mvl/mxv
 BYTE   W01
 BYTE   VOL   11*song09_mvl/mxv
 BYTE   W02
 BYTE   VOL   12*song09_mvl/mxv
 BYTE   W01
 BYTE   VOL   13*song09_mvl/mxv
 BYTE   W02
 BYTE   VOL   13*song09_mvl/mxv
 BYTE   W03
 BYTE   VOL   14*song09_mvl/mxv
 BYTE   W01
 BYTE   VOL   15*song09_mvl/mxv
 BYTE   W02
 BYTE   VOL   15*song09_mvl/mxv
 BYTE   W01
 BYTE   VOL   16*song09_mvl/mxv
 BYTE   W02
 BYTE   VOL   17*song09_mvl/mxv
 BYTE   W03
 BYTE   VOL   17*song09_mvl/mxv
 BYTE   W03
 BYTE   VOL   19*song09_mvl/mxv
 BYTE   W01
 BYTE   VOL   19*song09_mvl/mxv
 BYTE   W02
 BYTE   VOL   20*song09_mvl/mxv
 BYTE   W01
 BYTE   VOL   20*song09_mvl/mxv
 BYTE   W02
 BYTE   VOL   21*song09_mvl/mxv
 BYTE   W01
 BYTE   VOL   21*song09_mvl/mxv
 BYTE   W02
//  #03 //201   ----------------------------------------
 BYTE   PATT
  POIN2 Label_014636C7
//  #03 //202   ----------------------------------------
 BYTE   PATT
  POIN2 Label_014635E0
//  #03 //203   ----------------------------------------
 BYTE   PATT
  POIN2 Label_014633F9
//  #03 //204   ----------------------------------------
 BYTE   EOT
 BYTE   Cn2
 BYTE   W01
 BYTE   TIE  Dn2  v100
 BYTE   W01
 BYTE   VOL   6*song09_mvl/mxv
 BYTE   W02
 BYTE   VOL   6*song09_mvl/mxv
 BYTE   W01
 BYTE   VOL   6*song09_mvl/mxv
 BYTE   W02
 BYTE   VOL   8*song09_mvl/mxv
 BYTE   W01
 BYTE   VOL   8*song09_mvl/mxv
 BYTE   W02
 BYTE   VOL   8*song09_mvl/mxv
 BYTE   W01
 BYTE   VOL   10*song09_mvl/mxv
 BYTE   W03
 BYTE   VOL   10*song09_mvl/mxv
 BYTE   W02
 BYTE   VOL   10*song09_mvl/mxv
 BYTE   W03
 BYTE   VOL   11*song09_mvl/mxv
 BYTE   W01
 BYTE   VOL   11*song09_mvl/mxv
 BYTE   W02
 BYTE   VOL   12*song09_mvl/mxv
 BYTE   W01
 BYTE   VOL   13*song09_mvl/mxv
 BYTE   W02
 BYTE   VOL   13*song09_mvl/mxv
 BYTE   W03
 BYTE   VOL   14*song09_mvl/mxv
 BYTE   W01
 BYTE   VOL   15*song09_mvl/mxv
 BYTE   W02
 BYTE   VOL   15*song09_mvl/mxv
 BYTE   W01
 BYTE   VOL   16*song09_mvl/mxv
 BYTE   W02
 BYTE   VOL   17*song09_mvl/mxv
 BYTE   W03
 BYTE   VOL   17*song09_mvl/mxv
 BYTE   W03
 BYTE   VOL   19*song09_mvl/mxv
 BYTE   W01
 BYTE   VOL   19*song09_mvl/mxv
 BYTE   W02
 BYTE   VOL   20*song09_mvl/mxv
 BYTE   W01
 BYTE   VOL   20*song09_mvl/mxv
 BYTE   W02
 BYTE   VOL   21*song09_mvl/mxv
 BYTE   W01
 BYTE   VOL   21*song09_mvl/mxv
 BYTE   W02
//  #03 //205   ----------------------------------------
 BYTE   PATT
  POIN2 Label_0146345C
//  #03 //206   ----------------------------------------
 BYTE   EOT
 BYTE   Dn2
 BYTE   W01
//  #03 //207   ----------------------------------------
 BYTE   PATT
  POIN2 Label_014635E0
//  #03 //208   ----------------------------------------
 BYTE   PATT
  POIN2 Label_014633F9
//  #03 //209   ----------------------------------------
 BYTE   EOT
 BYTE   Cn2
 BYTE   W01
 BYTE   N68  Dn2  v100
 BYTE   W01
 BYTE   VOL   6*song09_mvl/mxv
 BYTE   W02
 BYTE   VOL   6*song09_mvl/mxv
 BYTE   W01
 BYTE   VOL   6*song09_mvl/mxv
 BYTE   W02
 BYTE   VOL   8*song09_mvl/mxv
 BYTE   W01
 BYTE   VOL   8*song09_mvl/mxv
 BYTE   W02
 BYTE   VOL   8*song09_mvl/mxv
 BYTE   W01
 BYTE   VOL   10*song09_mvl/mxv
 BYTE   W03
 BYTE   VOL   10*song09_mvl/mxv
 BYTE   W02
 BYTE   VOL   10*song09_mvl/mxv
 BYTE   W03
 BYTE   VOL   11*song09_mvl/mxv
 BYTE   W01
 BYTE   VOL   11*song09_mvl/mxv
 BYTE   W02
 BYTE   VOL   12*song09_mvl/mxv
 BYTE   W01
 BYTE   VOL   13*song09_mvl/mxv
 BYTE   W02
 BYTE   VOL   13*song09_mvl/mxv
 BYTE   W03
 BYTE   VOL   14*song09_mvl/mxv
 BYTE   W01
 BYTE   VOL   15*song09_mvl/mxv
 BYTE   W02
 BYTE   VOL   15*song09_mvl/mxv
 BYTE   W01
 BYTE   VOL   16*song09_mvl/mxv
 BYTE   W02
 BYTE   VOL   17*song09_mvl/mxv
 BYTE   W03
 BYTE   VOL   17*song09_mvl/mxv
 BYTE   W03
 BYTE   VOL   19*song09_mvl/mxv
 BYTE   W01
 BYTE   VOL   19*song09_mvl/mxv
 BYTE   W02
 BYTE   VOL   20*song09_mvl/mxv
 BYTE   W01
 BYTE   VOL   20*song09_mvl/mxv
 BYTE   W02
 BYTE   VOL   21*song09_mvl/mxv
 BYTE   W01
 BYTE   VOL   21*song09_mvl/mxv
 BYTE   W02
//  #03 //210   ----------------------------------------
 BYTE   PATT
  POIN2 Label_014637A3
//  #03 //211   ----------------------------------------
 BYTE   PATT
  POIN2 Label_01463305
//  #03 //212   ----------------------------------------
 BYTE   PATT
  POIN2 Label_01463154
//  #03 //213   ----------------------------------------
 BYTE   PATT
  POIN2 Label_014637F7
//  #03 //214   ----------------------------------------
 BYTE   EOT
 BYTE   An1
 BYTE   VOL   0*song09_mvl/mxv
 BYTE   W01
//  #03 //215   ----------------------------------------
 BYTE   PATT
  POIN2 Label_014631F2
//  #03 //216   ----------------------------------------
 BYTE   PATT
  POIN2 Label_01463154
//  #03 //217   ----------------------------------------
 BYTE   PATT
  POIN2 Label_014637F7
//  #03 //218   ----------------------------------------
 BYTE   EOT
 BYTE   Gn1
 BYTE   FINE

//**************** Track 4 (Midi-Chn.3) ****************//

song09_004:
//  #04 //000   ----------------------------------------
 BYTE   KEYSH   song09_key+0
 BYTE   MODT 0
 BYTE   LFOS 44
 BYTE   W24
 BYTE   VOICE   54
 BYTE   VOL   45*song09_mvl/mxv
 BYTE   PAN   c_v-20
 BYTE   VOL   0*song09_mvl/mxv
 BYTE   TIE  En2  v100
 BYTE   W02
 BYTE   VOL   0*song09_mvl/mxv
 BYTE   W01
 BYTE   VOL   0*song09_mvl/mxv
 BYTE   W02
 BYTE   VOL   0*song09_mvl/mxv
 BYTE   W01
 BYTE   VOL   0*song09_mvl/mxv
 BYTE   W03
 BYTE   VOL   0*song09_mvl/mxv
 BYTE   W02
 BYTE   VOL   0*song09_mvl/mxv
 BYTE   W01
 BYTE   VOL   1*song09_mvl/mxv
 BYTE   W02
 BYTE   VOL   1*song09_mvl/mxv
 BYTE   W01
 BYTE   VOL   1*song09_mvl/mxv
 BYTE   W02
 BYTE   VOL   1*song09_mvl/mxv
 BYTE   W01
 BYTE   VOL   1*song09_mvl/mxv
 BYTE   W02
 BYTE   VOL   1*song09_mvl/mxv
 BYTE   W01
 BYTE   VOL   1*song09_mvl/mxv
 BYTE   W02
 BYTE   VOL   1*song09_mvl/mxv
 BYTE   W03
 BYTE   VOL   2*song09_mvl/mxv
 BYTE   W01
 BYTE   VOL   2*song09_mvl/mxv
 BYTE   W02
 BYTE   VOL   3*song09_mvl/mxv
 BYTE   W01
 BYTE   VOL   3*song09_mvl/mxv
 BYTE   W02
 BYTE   VOL   3*song09_mvl/mxv
 BYTE   W01
 BYTE   VOL   3*song09_mvl/mxv
 BYTE   W02
 BYTE   VOL   3*song09_mvl/mxv
 BYTE   W01
 BYTE   VOL   4*song09_mvl/mxv
 BYTE   W03
 BYTE   VOL   4*song09_mvl/mxv
 BYTE   W02
 BYTE   VOL   4*song09_mvl/mxv
 BYTE   W01
 BYTE   VOL   5*song09_mvl/mxv
 BYTE   W02
 BYTE   VOL   5*song09_mvl/mxv
 BYTE   W01
 BYTE   VOL   5*song09_mvl/mxv
 BYTE   W02
 BYTE   VOL   5*song09_mvl/mxv
 BYTE   W01
 BYTE   VOL   6*song09_mvl/mxv
 BYTE   W02
 BYTE   VOL   6*song09_mvl/mxv
 BYTE   W01
 BYTE   VOL   6*song09_mvl/mxv
 BYTE   W02
 BYTE   VOL   6*song09_mvl/mxv
 BYTE   W03
 BYTE   VOL   7*song09_mvl/mxv
 BYTE   W01
 BYTE   VOL   8*song09_mvl/mxv
 BYTE   W02
 BYTE   VOL   8*song09_mvl/mxv
 BYTE   W01
 BYTE   VOL   8*song09_mvl/mxv
 BYTE   W02
 BYTE   VOL   8*song09_mvl/mxv
 BYTE   W01
 BYTE   VOL   9*song09_mvl/mxv
 BYTE   W02
 BYTE   VOL   10*song09_mvl/mxv
 BYTE   W01
 BYTE   VOL   10*song09_mvl/mxv
 BYTE   W03
 BYTE   VOL   10*song09_mvl/mxv
 BYTE   W02
 BYTE   VOL   10*song09_mvl/mxv
 BYTE   W01
//  #04 //001   ----------------------------------------
 BYTE   VOL   11*song09_mvl/mxv
 BYTE   W02
 BYTE   VOL   11*song09_mvl/mxv
 BYTE   W01
 BYTE   VOL   11*song09_mvl/mxv
 BYTE   W02
 BYTE   VOL   11*song09_mvl/mxv
 BYTE   W01
 BYTE   VOL   12*song09_mvl/mxv
 BYTE   W02
 BYTE   VOL   13*song09_mvl/mxv
 BYTE   W01
 BYTE   VOL   13*song09_mvl/mxv
 BYTE   W02
 BYTE   VOL   13*song09_mvl/mxv
 BYTE   W01
 BYTE   VOL   14*song09_mvl/mxv
 BYTE   W02
 BYTE   VOL   14*song09_mvl/mxv
 BYTE   W01
 BYTE   VOL   15*song09_mvl/mxv
 BYTE   W02
 BYTE   VOL   15*song09_mvl/mxv
 BYTE   W01
 BYTE   VOL   15*song09_mvl/mxv
 BYTE   W02
 BYTE   VOL   16*song09_mvl/mxv
 BYTE   W01
 BYTE   VOL   17*song09_mvl/mxv
 BYTE   W02
 BYTE   VOL   17*song09_mvl/mxv
 BYTE   W01
Label_01464110:
 BYTE   VOL   17*song09_mvl/mxv
 BYTE   W02
 BYTE   VOL   18*song09_mvl/mxv
 BYTE   W03
 BYTE   VOL   18*song09_mvl/mxv
 BYTE   W01
 BYTE   VOL   19*song09_mvl/mxv
 BYTE   W02
 BYTE   VOL   19*song09_mvl/mxv
 BYTE   W01
 BYTE   VOL   19*song09_mvl/mxv
 BYTE   W02
 BYTE   VOL   20*song09_mvl/mxv
 BYTE   W01
 BYTE   VOL   20*song09_mvl/mxv
 BYTE   W02
 BYTE   VOL   22*song09_mvl/mxv
 BYTE   W01
 BYTE   VOL   22*song09_mvl/mxv
 BYTE   W03
 BYTE   VOL   22*song09_mvl/mxv
 BYTE   W02
 BYTE   VOL   23*song09_mvl/mxv
 BYTE   W01
 BYTE   VOL   23*song09_mvl/mxv
 BYTE   W02
 BYTE   VOL   23*song09_mvl/mxv
 BYTE   W01
 BYTE   VOL   24*song09_mvl/mxv
 BYTE   W02
 BYTE   VOL   25*song09_mvl/mxv
 BYTE   W01
 BYTE   VOL   26*song09_mvl/mxv
 BYTE   W02
 BYTE   VOL   27*song09_mvl/mxv
 BYTE   W01
 BYTE   VOL   27*song09_mvl/mxv
 BYTE   W02
 BYTE   VOL   27*song09_mvl/mxv
 BYTE   W03
 BYTE   VOL   28*song09_mvl/mxv
 BYTE   W01
 BYTE   VOL   28*song09_mvl/mxv
 BYTE   W02
 BYTE   VOL   29*song09_mvl/mxv
 BYTE   W01
 BYTE   VOL   29*song09_mvl/mxv
 BYTE   W02
 BYTE   VOL   30*song09_mvl/mxv
 BYTE   W01
 BYTE   VOL   31*song09_mvl/mxv
 BYTE   W02
 BYTE   VOL   32*song09_mvl/mxv
 BYTE   W01
 BYTE   VOL   32*song09_mvl/mxv
 BYTE   W03
 BYTE   VOL   33*song09_mvl/mxv
 BYTE   W02
 BYTE   VOL   34*song09_mvl/mxv
 BYTE   W01
 BYTE   VOL   34*song09_mvl/mxv
 BYTE   W02
 BYTE   VOL   34*song09_mvl/mxv
 BYTE   W01
 BYTE   VOL   35*song09_mvl/mxv
 BYTE   W02
 BYTE   VOL   36*song09_mvl/mxv
 BYTE   W01
 BYTE   VOL   37*song09_mvl/mxv
 BYTE   W02
 BYTE   VOL   37*song09_mvl/mxv
 BYTE   W01
 BYTE   VOL   37*song09_mvl/mxv
 BYTE   W02
 BYTE   VOL   38*song09_mvl/mxv
 BYTE   W03
 BYTE   VOL   39*song09_mvl/mxv
 BYTE   W01
 BYTE   VOL   40*song09_mvl/mxv
 BYTE   W15
//  #04 //002   ----------------------------------------
 BYTE   VOL   39*song09_mvl/mxv
 BYTE   W05
 BYTE   VOL   38*song09_mvl/mxv
 BYTE   W10
 BYTE   PEND 
Label_01464166:
 BYTE   W03
 BYTE   VOL   37*song09_mvl/mxv
 BYTE   W03
 BYTE   VOL   37*song09_mvl/mxv
 BYTE   W05
 BYTE   VOL   36*song09_mvl/mxv
 BYTE   W07
 BYTE   VOL   35*song09_mvl/mxv
 BYTE   W02
 BYTE   VOL   34*song09_mvl/mxv
 BYTE   W07
 BYTE   VOL   34*song09_mvl/mxv
 BYTE   W05
 BYTE   VOL   33*song09_mvl/mxv
 BYTE   W01
 BYTE   VOL   32*song09_mvl/mxv
 BYTE   W03
 BYTE   VOL   32*song09_mvl/mxv
 BYTE   W02
 BYTE   VOL   31*song09_mvl/mxv
 BYTE   W03
 BYTE   VOL   30*song09_mvl/mxv
 BYTE   W03
 BYTE   VOL   29*song09_mvl/mxv
 BYTE   W01
 BYTE   VOL   28*song09_mvl/mxv
 BYTE   W03
 BYTE   VOL   27*song09_mvl/mxv
 BYTE   W05
 BYTE   VOL   27*song09_mvl/mxv
 BYTE   W01
 BYTE   VOL   25*song09_mvl/mxv
 BYTE   W03
 BYTE   VOL   23*song09_mvl/mxv
 BYTE   W02
 BYTE   VOL   23*song09_mvl/mxv
 BYTE   W03
 BYTE   VOL   22*song09_mvl/mxv
 BYTE   W01
 BYTE   VOL   20*song09_mvl/mxv
 BYTE   W03
 BYTE   VOL   19*song09_mvl/mxv
 BYTE   W02
 BYTE   VOL   19*song09_mvl/mxv
 BYTE   W03
 BYTE   VOL   17*song09_mvl/mxv
 BYTE   W03
 BYTE   VOL   15*song09_mvl/mxv
 BYTE   W01
 BYTE   VOL   15*song09_mvl/mxv
 BYTE   W03
 BYTE   VOL   14*song09_mvl/mxv
 BYTE   W02
 BYTE   VOL   13*song09_mvl/mxv
 BYTE   W03
//  #04 //003   ----------------------------------------
 BYTE   VOL   11*song09_mvl/mxv
 BYTE   W01
 BYTE   VOL   10*song09_mvl/mxv
 BYTE   W03
 BYTE   VOL   7*song09_mvl/mxv
 BYTE   W02
 BYTE   VOL   6*song09_mvl/mxv
 BYTE   W03
 BYTE   VOL   5*song09_mvl/mxv
 BYTE   W03
 BYTE   PEND 
 BYTE   EOT
 BYTE   En2
 BYTE   VOL   0*song09_mvl/mxv
 BYTE   W01
Label_014641AE:
 BYTE   TIE  Dn2  v100
 BYTE   W02
 BYTE   VOL   0*song09_mvl/mxv
 BYTE   W01
 BYTE   VOL   0*song09_mvl/mxv
 BYTE   W02
 BYTE   VOL   0*song09_mvl/mxv
 BYTE   W01
 BYTE   VOL   0*song09_mvl/mxv
 BYTE   W03
 BYTE   VOL   0*song09_mvl/mxv
 BYTE   W02
 BYTE   VOL   0*song09_mvl/mxv
 BYTE   W01
 BYTE   VOL   1*song09_mvl/mxv
 BYTE   W02
 BYTE   VOL   1*song09_mvl/mxv
 BYTE   W01
 BYTE   VOL   1*song09_mvl/mxv
 BYTE   W02
 BYTE   VOL   1*song09_mvl/mxv
 BYTE   W01
 BYTE   VOL   1*song09_mvl/mxv
 BYTE   W02
 BYTE   VOL   1*song09_mvl/mxv
 BYTE   W01
 BYTE   VOL   1*song09_mvl/mxv
 BYTE   W02
 BYTE   VOL   1*song09_mvl/mxv
 BYTE   W03
 BYTE   VOL   2*song09_mvl/mxv
 BYTE   W01
 BYTE   VOL   2*song09_mvl/mxv
 BYTE   W02
 BYTE   VOL   3*song09_mvl/mxv
 BYTE   W01
 BYTE   VOL   3*song09_mvl/mxv
 BYTE   W02
 BYTE   VOL   3*song09_mvl/mxv
 BYTE   W01
 BYTE   VOL   3*song09_mvl/mxv
 BYTE   W02
 BYTE   VOL   3*song09_mvl/mxv
 BYTE   W01
 BYTE   VOL   4*song09_mvl/mxv
 BYTE   W03
 BYTE   VOL   4*song09_mvl/mxv
 BYTE   W02
 BYTE   VOL   4*song09_mvl/mxv
 BYTE   W01
 BYTE   VOL   5*song09_mvl/mxv
 BYTE   W02
 BYTE   VOL   5*song09_mvl/mxv
 BYTE   W01
 BYTE   VOL   5*song09_mvl/mxv
 BYTE   W02
 BYTE   VOL   5*song09_mvl/mxv
 BYTE   W01
 BYTE   VOL   6*song09_mvl/mxv
 BYTE   W02
 BYTE   VOL   6*song09_mvl/mxv
 BYTE   W01
 BYTE   VOL   6*song09_mvl/mxv
 BYTE   W02
 BYTE   VOL   6*song09_mvl/mxv
 BYTE   W03
 BYTE   VOL   7*song09_mvl/mxv
 BYTE   W01
 BYTE   VOL   8*song09_mvl/mxv
 BYTE   W02
 BYTE   VOL   8*song09_mvl/mxv
 BYTE   W01
 BYTE   VOL   8*song09_mvl/mxv
 BYTE   W02
 BYTE   VOL   8*song09_mvl/mxv
 BYTE   W01
 BYTE   VOL   9*song09_mvl/mxv
 BYTE   W02
 BYTE   VOL   10*song09_mvl/mxv
 BYTE   W01
 BYTE   VOL   10*song09_mvl/mxv
 BYTE   W03
 BYTE   VOL   10*song09_mvl/mxv
 BYTE   W02
 BYTE   VOL   10*song09_mvl/mxv
 BYTE   W01
 BYTE   VOL   11*song09_mvl/mxv
 BYTE   W02
 BYTE   VOL   11*song09_mvl/mxv
 BYTE   W01
 BYTE   VOL   11*song09_mvl/mxv
 BYTE   W02
 BYTE   VOL   11*song09_mvl/mxv
 BYTE   W01
 BYTE   VOL   12*song09_mvl/mxv
 BYTE   W02
 BYTE   VOL   13*song09_mvl/mxv
 BYTE   W01
 BYTE   VOL   13*song09_mvl/mxv
 BYTE   W02
//  #04 //004   ----------------------------------------
 BYTE   VOL   13*song09_mvl/mxv
 BYTE   W01
 BYTE   VOL   14*song09_mvl/mxv
 BYTE   W02
 BYTE   VOL   14*song09_mvl/mxv
 BYTE   W01
 BYTE   VOL   15*song09_mvl/mxv
 BYTE   W02
 BYTE   VOL   15*song09_mvl/mxv
 BYTE   W01
 BYTE   VOL   15*song09_mvl/mxv
 BYTE   W02
 BYTE   VOL   16*song09_mvl/mxv
 BYTE   W01
 BYTE   VOL   17*song09_mvl/mxv
 BYTE   W02
 BYTE   VOL   17*song09_mvl/mxv
 BYTE   W01
 BYTE   PEND 
//  #04 //005   ----------------------------------------
 BYTE   PATT
  POIN2 Label_01464110
//  #04 //006   ----------------------------------------
 BYTE   PATT
  POIN2 Label_01464166
//  #04 //007   ----------------------------------------
 BYTE   EOT
 BYTE   Dn2
 BYTE   VOL   0*song09_mvl/mxv
 BYTE   W01
Label_01464237:
 BYTE   TIE  En2  v100
 BYTE   W02
 BYTE   VOL   0*song09_mvl/mxv
 BYTE   W01
 BYTE   VOL   0*song09_mvl/mxv
 BYTE   W02
 BYTE   VOL   0*song09_mvl/mxv
 BYTE   W01
 BYTE   VOL   0*song09_mvl/mxv
 BYTE   W03
 BYTE   VOL   0*song09_mvl/mxv
 BYTE   W02
 BYTE   VOL   0*song09_mvl/mxv
 BYTE   W01
 BYTE   VOL   1*song09_mvl/mxv
 BYTE   W02
 BYTE   VOL   1*song09_mvl/mxv
 BYTE   W01
 BYTE   VOL   1*song09_mvl/mxv
 BYTE   W02
 BYTE   VOL   1*song09_mvl/mxv
 BYTE   W01
 BYTE   VOL   1*song09_mvl/mxv
 BYTE   W02
 BYTE   VOL   1*song09_mvl/mxv
 BYTE   W01
 BYTE   VOL   1*song09_mvl/mxv
 BYTE   W02
 BYTE   VOL   1*song09_mvl/mxv
 BYTE   W03
 BYTE   VOL   2*song09_mvl/mxv
 BYTE   W01
 BYTE   VOL   2*song09_mvl/mxv
 BYTE   W02
 BYTE   VOL   3*song09_mvl/mxv
 BYTE   W01
 BYTE   VOL   3*song09_mvl/mxv
 BYTE   W02
 BYTE   VOL   3*song09_mvl/mxv
 BYTE   W01
 BYTE   VOL   3*song09_mvl/mxv
 BYTE   W02
 BYTE   VOL   3*song09_mvl/mxv
 BYTE   W01
 BYTE   VOL   4*song09_mvl/mxv
 BYTE   W03
 BYTE   VOL   4*song09_mvl/mxv
 BYTE   W02
 BYTE   VOL   4*song09_mvl/mxv
 BYTE   W01
 BYTE   VOL   5*song09_mvl/mxv
 BYTE   W02
 BYTE   VOL   5*song09_mvl/mxv
 BYTE   W01
 BYTE   VOL   5*song09_mvl/mxv
 BYTE   W02
 BYTE   VOL   5*song09_mvl/mxv
 BYTE   W01
 BYTE   VOL   6*song09_mvl/mxv
 BYTE   W02
 BYTE   VOL   6*song09_mvl/mxv
 BYTE   W01
 BYTE   VOL   6*song09_mvl/mxv
 BYTE   W02
 BYTE   VOL   6*song09_mvl/mxv
 BYTE   W03
 BYTE   VOL   7*song09_mvl/mxv
 BYTE   W01
 BYTE   VOL   8*song09_mvl/mxv
 BYTE   W02
 BYTE   VOL   8*song09_mvl/mxv
 BYTE   W01
 BYTE   VOL   8*song09_mvl/mxv
 BYTE   W02
 BYTE   VOL   8*song09_mvl/mxv
 BYTE   W01
 BYTE   VOL   9*song09_mvl/mxv
 BYTE   W02
 BYTE   VOL   10*song09_mvl/mxv
 BYTE   W01
 BYTE   VOL   10*song09_mvl/mxv
 BYTE   W03
 BYTE   VOL   10*song09_mvl/mxv
 BYTE   W02
 BYTE   VOL   10*song09_mvl/mxv
 BYTE   W01
 BYTE   VOL   11*song09_mvl/mxv
 BYTE   W02
 BYTE   VOL   11*song09_mvl/mxv
 BYTE   W01
 BYTE   VOL   11*song09_mvl/mxv
 BYTE   W02
 BYTE   VOL   11*song09_mvl/mxv
 BYTE   W01
 BYTE   VOL   12*song09_mvl/mxv
 BYTE   W02
 BYTE   VOL   13*song09_mvl/mxv
 BYTE   W01
 BYTE   VOL   13*song09_mvl/mxv
 BYTE   W02
 BYTE   VOL   13*song09_mvl/mxv
 BYTE   W01
 BYTE   VOL   14*song09_mvl/mxv
 BYTE   W02
 BYTE   VOL   14*song09_mvl/mxv
 BYTE   W01
 BYTE   VOL   15*song09_mvl/mxv
 BYTE   W02
 BYTE   VOL   15*song09_mvl/mxv
 BYTE   W01
 BYTE   VOL   15*song09_mvl/mxv
 BYTE   W02
 BYTE   VOL   16*song09_mvl/mxv
 BYTE   W01
 BYTE   VOL   17*song09_mvl/mxv
 BYTE   W02
//  #04 //008   ----------------------------------------
 BYTE   VOL   17*song09_mvl/mxv
 BYTE   W01
 BYTE   PEND 
//  #04 //009   ----------------------------------------
 BYTE   PATT
  POIN2 Label_01464110
//  #04 //010   ----------------------------------------
 BYTE   PATT
  POIN2 Label_01464166
//  #04 //011   ----------------------------------------
 BYTE   EOT
 BYTE   En2
 BYTE   VOL   0*song09_mvl/mxv
 BYTE   W01
//  #04 //012   ----------------------------------------
 BYTE   PATT
  POIN2 Label_014641AE
//  #04 //013   ----------------------------------------
 BYTE   PATT
  POIN2 Label_01464110
//  #04 //014   ----------------------------------------
 BYTE   PATT
  POIN2 Label_01464166
//  #04 //015   ----------------------------------------
 BYTE   EOT
 BYTE   Dn2
 BYTE   W01
Label_014642D2:
 BYTE   TIE  Cn2  v100
 BYTE   W01
 BYTE   VOL   8*song09_mvl/mxv
 BYTE   W02
 BYTE   VOL   9*song09_mvl/mxv
 BYTE   W01
 BYTE   VOL   10*song09_mvl/mxv
 BYTE   W02
 BYTE   VOL   10*song09_mvl/mxv
 BYTE   W01
 BYTE   VOL   11*song09_mvl/mxv
 BYTE   W02
 BYTE   VOL   11*song09_mvl/mxv
 BYTE   W01
 BYTE   VOL   13*song09_mvl/mxv
 BYTE   W03
 BYTE   VOL   13*song09_mvl/mxv
 BYTE   W02
 BYTE   VOL   14*song09_mvl/mxv
 BYTE   W03
 BYTE   VOL   15*song09_mvl/mxv
 BYTE   W01
 BYTE   VOL   15*song09_mvl/mxv
 BYTE   W02
 BYTE   VOL   16*song09_mvl/mxv
 BYTE   W01
 BYTE   VOL   17*song09_mvl/mxv
 BYTE   W02
 BYTE   VOL   18*song09_mvl/mxv
 BYTE   W03
 BYTE   VOL   19*song09_mvl/mxv
 BYTE   W01
 BYTE   VOL   19*song09_mvl/mxv
 BYTE   W02
 BYTE   VOL   20*song09_mvl/mxv
 BYTE   W01
 BYTE   VOL   21*song09_mvl/mxv
 BYTE   W02
 BYTE   VOL   22*song09_mvl/mxv
 BYTE   W03
 BYTE   VOL   22*song09_mvl/mxv
 BYTE   W03
 BYTE   VOL   25*song09_mvl/mxv
 BYTE   W01
 BYTE   VOL   26*song09_mvl/mxv
 BYTE   W02
 BYTE   VOL   27*song09_mvl/mxv
 BYTE   W01
 BYTE   VOL   27*song09_mvl/mxv
 BYTE   W02
 BYTE   VOL   28*song09_mvl/mxv
 BYTE   W01
 BYTE   VOL   28*song09_mvl/mxv
 BYTE   W02
 BYTE   VOL   29*song09_mvl/mxv
 BYTE   W01
 BYTE   VOL   28*song09_mvl/mxv
 BYTE   W03
 BYTE   VOL   29*song09_mvl/mxv
 BYTE   W02
 BYTE   VOL   30*song09_mvl/mxv
 BYTE   W01
 BYTE   VOL   30*song09_mvl/mxv
 BYTE   W02
 BYTE   VOL   31*song09_mvl/mxv
 BYTE   W01
 BYTE   VOL   32*song09_mvl/mxv
 BYTE   W11
 BYTE   VOL   31*song09_mvl/mxv
 BYTE   W03
 BYTE   PEND 
Label_0146431C:
 BYTE   VOL   30*song09_mvl/mxv
 BYTE   W09
 BYTE   VOL   30*song09_mvl/mxv
 BYTE   W03
 BYTE   VOL   29*song09_mvl/mxv
 BYTE   W01
 BYTE   VOL   29*song09_mvl/mxv
 BYTE   W02
 BYTE   VOL   28*song09_mvl/mxv
 BYTE   W03
 BYTE   VOL   28*song09_mvl/mxv
 BYTE   W01
 BYTE   VOL   27*song09_mvl/mxv
 BYTE   W05
//  #04 //016   ----------------------------------------
Label_0146432B:
 BYTE   W06
 BYTE   VOL   27*song09_mvl/mxv
 BYTE   W01
 BYTE   VOL   26*song09_mvl/mxv
 BYTE   W03
 BYTE   VOL   25*song09_mvl/mxv
 BYTE   W03
 BYTE   VOL   24*song09_mvl/mxv
 BYTE   W02
 BYTE   VOL   23*song09_mvl/mxv
 BYTE   W01
 BYTE   VOL   23*song09_mvl/mxv
 BYTE   W03
 BYTE   VOL   22*song09_mvl/mxv
 BYTE   W02
 BYTE   VOL   22*song09_mvl/mxv
 BYTE   W01
 BYTE   VOL   20*song09_mvl/mxv
 BYTE   W03
 BYTE   VOL   19*song09_mvl/mxv
 BYTE   W02
 BYTE   VOL   18*song09_mvl/mxv
 BYTE   W01
 BYTE   VOL   17*song09_mvl/mxv
 BYTE   W03
 BYTE   VOL   14*song09_mvl/mxv
 BYTE   W03
 BYTE   VOL   13*song09_mvl/mxv
 BYTE   W02
 BYTE   VOL   12*song09_mvl/mxv
 BYTE   W01
 BYTE   VOL   11*song09_mvl/mxv
 BYTE   W02
 BYTE   VOL   10*song09_mvl/mxv
 BYTE   W01
 BYTE   VOL   10*song09_mvl/mxv
 BYTE   W07
 BYTE   PEND 
 BYTE   EOT
 BYTE   Cn2
 BYTE   W01
 BYTE   TIE  Bn1  v100
 BYTE   W01
 BYTE   VOL   8*song09_mvl/mxv
 BYTE   W02
 BYTE   VOL   9*song09_mvl/mxv
 BYTE   W01
 BYTE   VOL   10*song09_mvl/mxv
 BYTE   W02
 BYTE   VOL   10*song09_mvl/mxv
 BYTE   W01
 BYTE   VOL   11*song09_mvl/mxv
 BYTE   W02
 BYTE   VOL   11*song09_mvl/mxv
 BYTE   W01
 BYTE   VOL   13*song09_mvl/mxv
 BYTE   W03
 BYTE   VOL   13*song09_mvl/mxv
 BYTE   W02
 BYTE   VOL   14*song09_mvl/mxv
 BYTE   W03
 BYTE   VOL   15*song09_mvl/mxv
 BYTE   W01
 BYTE   VOL   15*song09_mvl/mxv
 BYTE   W02
 BYTE   VOL   16*song09_mvl/mxv
 BYTE   W01
 BYTE   VOL   17*song09_mvl/mxv
 BYTE   W02
 BYTE   VOL   18*song09_mvl/mxv
 BYTE   W03
 BYTE   VOL   19*song09_mvl/mxv
 BYTE   W01
 BYTE   VOL   19*song09_mvl/mxv
 BYTE   W02
 BYTE   VOL   20*song09_mvl/mxv
 BYTE   W01
 BYTE   VOL   21*song09_mvl/mxv
 BYTE   W02
 BYTE   VOL   22*song09_mvl/mxv
 BYTE   W03
 BYTE   VOL   22*song09_mvl/mxv
 BYTE   W03
 BYTE   VOL   25*song09_mvl/mxv
 BYTE   W01
 BYTE   VOL   26*song09_mvl/mxv
 BYTE   W02
 BYTE   VOL   27*song09_mvl/mxv
 BYTE   W01
 BYTE   VOL   27*song09_mvl/mxv
 BYTE   W02
 BYTE   VOL   28*song09_mvl/mxv
 BYTE   W01
 BYTE   VOL   28*song09_mvl/mxv
 BYTE   W02
//  #04 //017   ----------------------------------------
Label_0146438E:
 BYTE   VOL   29*song09_mvl/mxv
 BYTE   W01
 BYTE   VOL   28*song09_mvl/mxv
 BYTE   W03
 BYTE   VOL   29*song09_mvl/mxv
 BYTE   W02
 BYTE   VOL   30*song09_mvl/mxv
 BYTE   W01
 BYTE   VOL   30*song09_mvl/mxv
 BYTE   W02
 BYTE   VOL   31*song09_mvl/mxv
 BYTE   W01
 BYTE   VOL   32*song09_mvl/mxv
 BYTE   W11
 BYTE   VOL   31*song09_mvl/mxv
 BYTE   W03
 BYTE   VOL   30*song09_mvl/mxv
 BYTE   W09
 BYTE   VOL   30*song09_mvl/mxv
 BYTE   W03
 BYTE   VOL   29*song09_mvl/mxv
 BYTE   W01
 BYTE   VOL   29*song09_mvl/mxv
 BYTE   W02
 BYTE   VOL   28*song09_mvl/mxv
 BYTE   W03
 BYTE   VOL   28*song09_mvl/mxv
 BYTE   W01
 BYTE   VOL   27*song09_mvl/mxv
 BYTE   W11
 BYTE   VOL   27*song09_mvl/mxv
 BYTE   W01
 BYTE   VOL   26*song09_mvl/mxv
 BYTE   W03
 BYTE   VOL   25*song09_mvl/mxv
 BYTE   W03
 BYTE   VOL   24*song09_mvl/mxv
 BYTE   W02
 BYTE   VOL   23*song09_mvl/mxv
 BYTE   W01
 BYTE   VOL   23*song09_mvl/mxv
 BYTE   W03
 BYTE   VOL   22*song09_mvl/mxv
 BYTE   W02
 BYTE   VOL   22*song09_mvl/mxv
 BYTE   W01
 BYTE   VOL   20*song09_mvl/mxv
 BYTE   W03
 BYTE   VOL   19*song09_mvl/mxv
 BYTE   W02
 BYTE   VOL   18*song09_mvl/mxv
 BYTE   W01
 BYTE   VOL   17*song09_mvl/mxv
 BYTE   W03
 BYTE   VOL   14*song09_mvl/mxv
 BYTE   W03
 BYTE   VOL   13*song09_mvl/mxv
 BYTE   W02
 BYTE   VOL   12*song09_mvl/mxv
 BYTE   W01
 BYTE   VOL   11*song09_mvl/mxv
 BYTE   W02
 BYTE   VOL   10*song09_mvl/mxv
 BYTE   W01
 BYTE   VOL   10*song09_mvl/mxv
 BYTE   W07
 BYTE   PEND 
 BYTE   EOT
 BYTE   Bn1
 BYTE   W01
//  #04 //018   ----------------------------------------
Label_014643D5:
 BYTE   TIE  Cn2  v100
 BYTE   W01
 BYTE   VOL   8*song09_mvl/mxv
 BYTE   W02
 BYTE   VOL   9*song09_mvl/mxv
 BYTE   W01
 BYTE   VOL   10*song09_mvl/mxv
 BYTE   W02
 BYTE   VOL   10*song09_mvl/mxv
 BYTE   W01
 BYTE   VOL   11*song09_mvl/mxv
 BYTE   W02
 BYTE   VOL   11*song09_mvl/mxv
 BYTE   W01
 BYTE   VOL   13*song09_mvl/mxv
 BYTE   W03
 BYTE   VOL   13*song09_mvl/mxv
 BYTE   W02
 BYTE   VOL   14*song09_mvl/mxv
 BYTE   W03
 BYTE   VOL   15*song09_mvl/mxv
 BYTE   W01
 BYTE   VOL   15*song09_mvl/mxv
 BYTE   W02
 BYTE   VOL   16*song09_mvl/mxv
 BYTE   W01
 BYTE   VOL   17*song09_mvl/mxv
 BYTE   W02
 BYTE   VOL   18*song09_mvl/mxv
 BYTE   W03
 BYTE   VOL   19*song09_mvl/mxv
 BYTE   W01
 BYTE   VOL   19*song09_mvl/mxv
 BYTE   W02
 BYTE   VOL   20*song09_mvl/mxv
 BYTE   W01
 BYTE   VOL   21*song09_mvl/mxv
 BYTE   W02
 BYTE   VOL   22*song09_mvl/mxv
 BYTE   W03
 BYTE   VOL   22*song09_mvl/mxv
 BYTE   W03
 BYTE   VOL   25*song09_mvl/mxv
 BYTE   W01
 BYTE   VOL   26*song09_mvl/mxv
 BYTE   W02
 BYTE   VOL   27*song09_mvl/mxv
 BYTE   W01
 BYTE   VOL   27*song09_mvl/mxv
 BYTE   W02
 BYTE   VOL   28*song09_mvl/mxv
 BYTE   W01
 BYTE   VOL   28*song09_mvl/mxv
 BYTE   W02
 BYTE   VOL   29*song09_mvl/mxv
 BYTE   W01
 BYTE   VOL   28*song09_mvl/mxv
 BYTE   W03
 BYTE   VOL   29*song09_mvl/mxv
 BYTE   W02
 BYTE   VOL   30*song09_mvl/mxv
 BYTE   W01
 BYTE   VOL   30*song09_mvl/mxv
 BYTE   W02
 BYTE   VOL   31*song09_mvl/mxv
 BYTE   W01
 BYTE   VOL   32*song09_mvl/mxv
 BYTE   W11
 BYTE   VOL   31*song09_mvl/mxv
 BYTE   W03
 BYTE   VOL   30*song09_mvl/mxv
 BYTE   W09
 BYTE   VOL   30*song09_mvl/mxv
 BYTE   W03
 BYTE   VOL   29*song09_mvl/mxv
 BYTE   W01
 BYTE   VOL   29*song09_mvl/mxv
 BYTE   W02
 BYTE   VOL   28*song09_mvl/mxv
 BYTE   W03
 BYTE   VOL   28*song09_mvl/mxv
 BYTE   W01
 BYTE   VOL   27*song09_mvl/mxv
 BYTE   W05
 BYTE   PEND 
//  #04 //019   ----------------------------------------
 BYTE   PATT
  POIN2 Label_0146432B
//  #04 //020   ----------------------------------------
 BYTE   EOT
 BYTE   Cn2
 BYTE   W01
 BYTE   TIE  Bn1  v100
 BYTE   W01
 BYTE   VOL   8*song09_mvl/mxv
 BYTE   W02
 BYTE   VOL   9*song09_mvl/mxv
 BYTE   W01
 BYTE   VOL   10*song09_mvl/mxv
 BYTE   W02
 BYTE   VOL   10*song09_mvl/mxv
 BYTE   W01
 BYTE   VOL   11*song09_mvl/mxv
 BYTE   W02
 BYTE   VOL   11*song09_mvl/mxv
 BYTE   W01
 BYTE   VOL   13*song09_mvl/mxv
 BYTE   W03
 BYTE   VOL   13*song09_mvl/mxv
 BYTE   W02
 BYTE   VOL   14*song09_mvl/mxv
 BYTE   W03
 BYTE   VOL   15*song09_mvl/mxv
 BYTE   W01
 BYTE   VOL   15*song09_mvl/mxv
 BYTE   W02
 BYTE   VOL   16*song09_mvl/mxv
 BYTE   W01
 BYTE   VOL   17*song09_mvl/mxv
 BYTE   W02
 BYTE   VOL   18*song09_mvl/mxv
 BYTE   W03
 BYTE   VOL   19*song09_mvl/mxv
 BYTE   W01
 BYTE   VOL   19*song09_mvl/mxv
 BYTE   W02
 BYTE   VOL   20*song09_mvl/mxv
 BYTE   W01
 BYTE   VOL   21*song09_mvl/mxv
 BYTE   W02
 BYTE   VOL   22*song09_mvl/mxv
 BYTE   W03
 BYTE   VOL   22*song09_mvl/mxv
 BYTE   W03
 BYTE   VOL   25*song09_mvl/mxv
 BYTE   W01
 BYTE   VOL   26*song09_mvl/mxv
 BYTE   W02
 BYTE   VOL   27*song09_mvl/mxv
 BYTE   W01
 BYTE   VOL   27*song09_mvl/mxv
 BYTE   W02
 BYTE   VOL   28*song09_mvl/mxv
 BYTE   W01
 BYTE   VOL   28*song09_mvl/mxv
 BYTE   W02
//  #04 //021   ----------------------------------------
 BYTE   PATT
  POIN2 Label_0146438E
//  #04 //022   ----------------------------------------
 BYTE   EOT
 BYTE   Bn1
 BYTE   W01
//  #04 //023   ----------------------------------------
 BYTE   PATT
  POIN2 Label_014643D5
//  #04 //024   ----------------------------------------
 BYTE   PATT
  POIN2 Label_0146432B
//  #04 //025   ----------------------------------------
 BYTE   EOT
 BYTE   Cn2
 BYTE   W01
 BYTE   TIE  Bn1  v100
 BYTE   W01
 BYTE   VOL   8*song09_mvl/mxv
 BYTE   W02
 BYTE   VOL   9*song09_mvl/mxv
 BYTE   W01
 BYTE   VOL   10*song09_mvl/mxv
 BYTE   W02
 BYTE   VOL   10*song09_mvl/mxv
 BYTE   W01
 BYTE   VOL   11*song09_mvl/mxv
 BYTE   W02
 BYTE   VOL   11*song09_mvl/mxv
 BYTE   W01
 BYTE   VOL   13*song09_mvl/mxv
 BYTE   W03
 BYTE   VOL   13*song09_mvl/mxv
 BYTE   W02
 BYTE   VOL   14*song09_mvl/mxv
 BYTE   W03
 BYTE   VOL   15*song09_mvl/mxv
 BYTE   W01
 BYTE   VOL   15*song09_mvl/mxv
 BYTE   W02
 BYTE   VOL   16*song09_mvl/mxv
 BYTE   W01
 BYTE   VOL   17*song09_mvl/mxv
 BYTE   W02
 BYTE   VOL   18*song09_mvl/mxv
 BYTE   W03
 BYTE   VOL   19*song09_mvl/mxv
 BYTE   W01
 BYTE   VOL   19*song09_mvl/mxv
 BYTE   W02
 BYTE   VOL   20*song09_mvl/mxv
 BYTE   W01
 BYTE   VOL   21*song09_mvl/mxv
 BYTE   W02
 BYTE   VOL   22*song09_mvl/mxv
 BYTE   W03
 BYTE   VOL   22*song09_mvl/mxv
 BYTE   W03
 BYTE   VOL   25*song09_mvl/mxv
 BYTE   W01
 BYTE   VOL   26*song09_mvl/mxv
 BYTE   W02
 BYTE   VOL   27*song09_mvl/mxv
 BYTE   W01
 BYTE   VOL   27*song09_mvl/mxv
 BYTE   W02
 BYTE   VOL   28*song09_mvl/mxv
 BYTE   W01
 BYTE   VOL   28*song09_mvl/mxv
 BYTE   W02
//  #04 //026   ----------------------------------------
 BYTE   PATT
  POIN2 Label_0146438E
//  #04 //027   ----------------------------------------
 BYTE   EOT
 BYTE   Bn1
 BYTE   W01
//  #04 //028   ----------------------------------------
 BYTE   PATT
  POIN2 Label_014643D5
//  #04 //029   ----------------------------------------
 BYTE   PATT
  POIN2 Label_0146432B
//  #04 //030   ----------------------------------------
 BYTE   EOT
 BYTE   Cn2
 BYTE   W01
 BYTE   TIE  Bn1  v100
 BYTE   W01
 BYTE   VOL   8*song09_mvl/mxv
 BYTE   W02
 BYTE   VOL   9*song09_mvl/mxv
 BYTE   W01
 BYTE   VOL   10*song09_mvl/mxv
 BYTE   W02
 BYTE   VOL   10*song09_mvl/mxv
 BYTE   W01
 BYTE   VOL   11*song09_mvl/mxv
 BYTE   W02
 BYTE   VOL   11*song09_mvl/mxv
 BYTE   W01
 BYTE   VOL   13*song09_mvl/mxv
 BYTE   W03
 BYTE   VOL   13*song09_mvl/mxv
 BYTE   W02
 BYTE   VOL   14*song09_mvl/mxv
 BYTE   W03
 BYTE   VOL   15*song09_mvl/mxv
 BYTE   W01
 BYTE   VOL   15*song09_mvl/mxv
 BYTE   W02
 BYTE   VOL   16*song09_mvl/mxv
 BYTE   W01
 BYTE   VOL   17*song09_mvl/mxv
 BYTE   W02
 BYTE   VOL   18*song09_mvl/mxv
 BYTE   W03
 BYTE   VOL   19*song09_mvl/mxv
 BYTE   W01
 BYTE   VOL   19*song09_mvl/mxv
 BYTE   W02
 BYTE   VOL   20*song09_mvl/mxv
 BYTE   W01
 BYTE   VOL   21*song09_mvl/mxv
 BYTE   W02
 BYTE   VOL   22*song09_mvl/mxv
 BYTE   W03
 BYTE   VOL   22*song09_mvl/mxv
 BYTE   W03
 BYTE   VOL   25*song09_mvl/mxv
 BYTE   W01
 BYTE   VOL   26*song09_mvl/mxv
 BYTE   W02
 BYTE   VOL   27*song09_mvl/mxv
 BYTE   W01
 BYTE   VOL   27*song09_mvl/mxv
 BYTE   W02
 BYTE   VOL   28*song09_mvl/mxv
 BYTE   W01
 BYTE   VOL   28*song09_mvl/mxv
 BYTE   W02
//  #04 //031   ----------------------------------------
 BYTE   PATT
  POIN2 Label_0146438E
//  #04 //032   ----------------------------------------
 BYTE   EOT
 BYTE   Bn1
 BYTE   W01
Label_01464512:
 BYTE   TIE  Cn3  v100
 BYTE   W01
 BYTE   VOL   8*song09_mvl/mxv
 BYTE   W02
 BYTE   VOL   9*song09_mvl/mxv
 BYTE   W01
 BYTE   VOL   10*song09_mvl/mxv
 BYTE   W02
 BYTE   VOL   10*song09_mvl/mxv
 BYTE   W01
 BYTE   VOL   11*song09_mvl/mxv
 BYTE   W02
 BYTE   VOL   11*song09_mvl/mxv
 BYTE   W01
 BYTE   VOL   13*song09_mvl/mxv
 BYTE   W03
 BYTE   VOL   13*song09_mvl/mxv
 BYTE   W02
 BYTE   VOL   14*song09_mvl/mxv
 BYTE   W03
 BYTE   VOL   15*song09_mvl/mxv
 BYTE   W01
 BYTE   VOL   15*song09_mvl/mxv
 BYTE   W02
 BYTE   VOL   16*song09_mvl/mxv
 BYTE   W01
 BYTE   VOL   17*song09_mvl/mxv
 BYTE   W02
 BYTE   VOL   18*song09_mvl/mxv
 BYTE   W03
 BYTE   VOL   19*song09_mvl/mxv
 BYTE   W01
 BYTE   VOL   19*song09_mvl/mxv
 BYTE   W02
 BYTE   VOL   20*song09_mvl/mxv
 BYTE   W01
 BYTE   VOL   21*song09_mvl/mxv
 BYTE   W02
 BYTE   VOL   22*song09_mvl/mxv
 BYTE   W03
 BYTE   VOL   22*song09_mvl/mxv
 BYTE   W03
 BYTE   VOL   25*song09_mvl/mxv
 BYTE   W01
 BYTE   VOL   26*song09_mvl/mxv
 BYTE   W02
 BYTE   VOL   27*song09_mvl/mxv
 BYTE   W01
 BYTE   VOL   27*song09_mvl/mxv
 BYTE   W02
 BYTE   VOL   28*song09_mvl/mxv
 BYTE   W01
 BYTE   VOL   28*song09_mvl/mxv
 BYTE   W02
 BYTE   VOL   29*song09_mvl/mxv
 BYTE   W01
 BYTE   VOL   28*song09_mvl/mxv
 BYTE   W03
 BYTE   VOL   29*song09_mvl/mxv
 BYTE   W02
 BYTE   VOL   30*song09_mvl/mxv
 BYTE   W01
 BYTE   VOL   30*song09_mvl/mxv
 BYTE   W02
 BYTE   VOL   31*song09_mvl/mxv
 BYTE   W01
 BYTE   VOL   32*song09_mvl/mxv
 BYTE   W11
 BYTE   VOL   31*song09_mvl/mxv
 BYTE   W03
 BYTE   VOL   30*song09_mvl/mxv
 BYTE   W09
 BYTE   VOL   30*song09_mvl/mxv
 BYTE   W03
 BYTE   VOL   29*song09_mvl/mxv
 BYTE   W01
 BYTE   VOL   29*song09_mvl/mxv
 BYTE   W02
 BYTE   VOL   28*song09_mvl/mxv
 BYTE   W03
 BYTE   VOL   28*song09_mvl/mxv
 BYTE   W01
 BYTE   VOL   27*song09_mvl/mxv
 BYTE   W05
 BYTE   PEND 
//  #04 //033   ----------------------------------------
 BYTE   PATT
  POIN2 Label_0146432B
//  #04 //034   ----------------------------------------
 BYTE   EOT
 BYTE   Cn3
 BYTE   W01
 BYTE   N68  Fs2  v100
 BYTE   W01
 BYTE   VOL   8*song09_mvl/mxv
 BYTE   W02
 BYTE   VOL   9*song09_mvl/mxv
 BYTE   W01
 BYTE   VOL   10*song09_mvl/mxv
 BYTE   W02
 BYTE   VOL   10*song09_mvl/mxv
 BYTE   W01
 BYTE   VOL   11*song09_mvl/mxv
 BYTE   W02
 BYTE   VOL   11*song09_mvl/mxv
 BYTE   W01
 BYTE   VOL   13*song09_mvl/mxv
 BYTE   W03
 BYTE   VOL   13*song09_mvl/mxv
 BYTE   W02
 BYTE   VOL   14*song09_mvl/mxv
 BYTE   W03
 BYTE   VOL   15*song09_mvl/mxv
 BYTE   W01
 BYTE   VOL   15*song09_mvl/mxv
 BYTE   W02
 BYTE   VOL   16*song09_mvl/mxv
 BYTE   W01
 BYTE   VOL   17*song09_mvl/mxv
 BYTE   W02
 BYTE   VOL   18*song09_mvl/mxv
 BYTE   W03
 BYTE   VOL   19*song09_mvl/mxv
 BYTE   W01
 BYTE   VOL   19*song09_mvl/mxv
 BYTE   W02
 BYTE   VOL   20*song09_mvl/mxv
 BYTE   W01
 BYTE   VOL   21*song09_mvl/mxv
 BYTE   W02
 BYTE   VOL   22*song09_mvl/mxv
 BYTE   W03
 BYTE   VOL   22*song09_mvl/mxv
 BYTE   W03
 BYTE   VOL   25*song09_mvl/mxv
 BYTE   W01
 BYTE   VOL   26*song09_mvl/mxv
 BYTE   W02
 BYTE   VOL   27*song09_mvl/mxv
 BYTE   W01
 BYTE   VOL   27*song09_mvl/mxv
 BYTE   W02
 BYTE   VOL   28*song09_mvl/mxv
 BYTE   W01
 BYTE   VOL   28*song09_mvl/mxv
 BYTE   W02
Label_014645AB:
 BYTE   VOL   29*song09_mvl/mxv
 BYTE   W01
 BYTE   VOL   28*song09_mvl/mxv
 BYTE   W03
 BYTE   VOL   29*song09_mvl/mxv
 BYTE   W02
 BYTE   VOL   30*song09_mvl/mxv
 BYTE   W01
 BYTE   VOL   30*song09_mvl/mxv
 BYTE   W02
 BYTE   VOL   31*song09_mvl/mxv
 BYTE   W01
 BYTE   VOL   32*song09_mvl/mxv
 BYTE   W11
 BYTE   VOL   31*song09_mvl/mxv
 BYTE   W03
 BYTE   VOL   30*song09_mvl/mxv
 BYTE   N68  An2  v100
 BYTE   W09
 BYTE   VOL   30*song09_mvl/mxv
 BYTE   W03
 BYTE   VOL   29*song09_mvl/mxv
 BYTE   W01
 BYTE   VOL   29*song09_mvl/mxv
 BYTE   W02
 BYTE   VOL   28*song09_mvl/mxv
 BYTE   W03
 BYTE   VOL   28*song09_mvl/mxv
 BYTE   W01
 BYTE   VOL   27*song09_mvl/mxv
 BYTE   W11
//  #04 //035   ----------------------------------------
 BYTE   VOL   27*song09_mvl/mxv
 BYTE   W01
 BYTE   VOL   26*song09_mvl/mxv
 BYTE   W03
 BYTE   VOL   25*song09_mvl/mxv
 BYTE   W03
 BYTE   VOL   24*song09_mvl/mxv
 BYTE   W02
 BYTE   VOL   23*song09_mvl/mxv
 BYTE   W01
 BYTE   VOL   23*song09_mvl/mxv
 BYTE   W03
 BYTE   VOL   22*song09_mvl/mxv
 BYTE   W02
 BYTE   VOL   22*song09_mvl/mxv
 BYTE   W01
 BYTE   VOL   20*song09_mvl/mxv
 BYTE   W03
 BYTE   VOL   19*song09_mvl/mxv
 BYTE   W02
 BYTE   VOL   18*song09_mvl/mxv
 BYTE   W01
 BYTE   VOL   17*song09_mvl/mxv
 BYTE   W03
 BYTE   VOL   14*song09_mvl/mxv
 BYTE   W03
 BYTE   VOL   13*song09_mvl/mxv
 BYTE   W02
 BYTE   VOL   12*song09_mvl/mxv
 BYTE   W01
 BYTE   VOL   11*song09_mvl/mxv
 BYTE   W02
 BYTE   VOL   10*song09_mvl/mxv
 BYTE   W01
 BYTE   VOL   10*song09_mvl/mxv
 BYTE   W08
 BYTE   PEND 
//  #04 //036   ----------------------------------------
 BYTE   PATT
  POIN2 Label_01464512
//  #04 //037   ----------------------------------------
 BYTE   PATT
  POIN2 Label_0146432B
//  #04 //038   ----------------------------------------
 BYTE   EOT
 BYTE   Cn3
 BYTE   W01
 BYTE   N68  Fs2  v100
 BYTE   W01
 BYTE   VOL   8*song09_mvl/mxv
 BYTE   W02
 BYTE   VOL   9*song09_mvl/mxv
 BYTE   W01
 BYTE   VOL   10*song09_mvl/mxv
 BYTE   W02
 BYTE   VOL   10*song09_mvl/mxv
 BYTE   W01
 BYTE   VOL   11*song09_mvl/mxv
 BYTE   W02
 BYTE   VOL   11*song09_mvl/mxv
 BYTE   W01
 BYTE   VOL   13*song09_mvl/mxv
 BYTE   W03
 BYTE   VOL   13*song09_mvl/mxv
 BYTE   W02
 BYTE   VOL   14*song09_mvl/mxv
 BYTE   W03
 BYTE   VOL   15*song09_mvl/mxv
 BYTE   W01
 BYTE   VOL   15*song09_mvl/mxv
 BYTE   W02
 BYTE   VOL   16*song09_mvl/mxv
 BYTE   W01
 BYTE   VOL   17*song09_mvl/mxv
 BYTE   W02
 BYTE   VOL   18*song09_mvl/mxv
 BYTE   W03
 BYTE   VOL   19*song09_mvl/mxv
 BYTE   W01
 BYTE   VOL   19*song09_mvl/mxv
 BYTE   W02
 BYTE   VOL   20*song09_mvl/mxv
 BYTE   W01
 BYTE   VOL   21*song09_mvl/mxv
 BYTE   W02
 BYTE   VOL   22*song09_mvl/mxv
 BYTE   W03
 BYTE   VOL   22*song09_mvl/mxv
 BYTE   W03
 BYTE   VOL   25*song09_mvl/mxv
 BYTE   W01
 BYTE   VOL   26*song09_mvl/mxv
 BYTE   W02
 BYTE   VOL   27*song09_mvl/mxv
 BYTE   W01
 BYTE   VOL   27*song09_mvl/mxv
 BYTE   W02
 BYTE   VOL   28*song09_mvl/mxv
 BYTE   W01
 BYTE   VOL   28*song09_mvl/mxv
 BYTE   W02
//  #04 //039   ----------------------------------------
 BYTE   PATT
  POIN2 Label_014645AB
//  #04 //040   ----------------------------------------
 BYTE   PATT
  POIN2 Label_01464512
//  #04 //041   ----------------------------------------
 BYTE   PATT
  POIN2 Label_0146432B
//  #04 //042   ----------------------------------------
 BYTE   EOT
 BYTE   Cn3
 BYTE   W01
 BYTE   N68  Fs2  v100
 BYTE   W01
 BYTE   VOL   8*song09_mvl/mxv
 BYTE   W02
 BYTE   VOL   9*song09_mvl/mxv
 BYTE   W01
 BYTE   VOL   10*song09_mvl/mxv
 BYTE   W02
 BYTE   VOL   10*song09_mvl/mxv
 BYTE   W01
 BYTE   VOL   11*song09_mvl/mxv
 BYTE   W02
 BYTE   VOL   11*song09_mvl/mxv
 BYTE   W01
 BYTE   VOL   13*song09_mvl/mxv
 BYTE   W03
 BYTE   VOL   13*song09_mvl/mxv
 BYTE   W02
 BYTE   VOL   14*song09_mvl/mxv
 BYTE   W03
 BYTE   VOL   15*song09_mvl/mxv
 BYTE   W01
 BYTE   VOL   15*song09_mvl/mxv
 BYTE   W02
 BYTE   VOL   16*song09_mvl/mxv
 BYTE   W01
 BYTE   VOL   17*song09_mvl/mxv
 BYTE   W02
 BYTE   VOL   18*song09_mvl/mxv
 BYTE   W03
 BYTE   VOL   19*song09_mvl/mxv
 BYTE   W01
 BYTE   VOL   19*song09_mvl/mxv
 BYTE   W02
 BYTE   VOL   20*song09_mvl/mxv
 BYTE   W01
 BYTE   VOL   21*song09_mvl/mxv
 BYTE   W02
 BYTE   VOL   22*song09_mvl/mxv
 BYTE   W03
 BYTE   VOL   22*song09_mvl/mxv
 BYTE   W03
 BYTE   VOL   25*song09_mvl/mxv
 BYTE   W01
 BYTE   VOL   26*song09_mvl/mxv
 BYTE   W02
 BYTE   VOL   27*song09_mvl/mxv
 BYTE   W01
 BYTE   VOL   27*song09_mvl/mxv
 BYTE   W02
 BYTE   VOL   28*song09_mvl/mxv
 BYTE   W01
 BYTE   VOL   28*song09_mvl/mxv
 BYTE   W02
//  #04 //043   ----------------------------------------
 BYTE   PATT
  POIN2 Label_014645AB
//  #04 //044   ----------------------------------------
 BYTE   PATT
  POIN2 Label_01464512
//  #04 //045   ----------------------------------------
 BYTE   PATT
  POIN2 Label_0146432B
//  #04 //046   ----------------------------------------
 BYTE   EOT
 BYTE   Cn3
 BYTE   W01
 BYTE   N68  Fs2  v100
 BYTE   W01
 BYTE   VOL   8*song09_mvl/mxv
 BYTE   W02
 BYTE   VOL   9*song09_mvl/mxv
 BYTE   W01
 BYTE   VOL   10*song09_mvl/mxv
 BYTE   W02
 BYTE   VOL   10*song09_mvl/mxv
 BYTE   W01
 BYTE   VOL   11*song09_mvl/mxv
 BYTE   W02
 BYTE   VOL   11*song09_mvl/mxv
 BYTE   W01
 BYTE   VOL   13*song09_mvl/mxv
 BYTE   W03
 BYTE   VOL   13*song09_mvl/mxv
 BYTE   W02
 BYTE   VOL   14*song09_mvl/mxv
 BYTE   W03
 BYTE   VOL   15*song09_mvl/mxv
 BYTE   W01
 BYTE   VOL   15*song09_mvl/mxv
 BYTE   W02
 BYTE   VOL   16*song09_mvl/mxv
 BYTE   W01
 BYTE   VOL   17*song09_mvl/mxv
 BYTE   W02
 BYTE   VOL   18*song09_mvl/mxv
 BYTE   W03
 BYTE   VOL   19*song09_mvl/mxv
 BYTE   W01
 BYTE   VOL   19*song09_mvl/mxv
 BYTE   W02
 BYTE   VOL   20*song09_mvl/mxv
 BYTE   W01
 BYTE   VOL   21*song09_mvl/mxv
 BYTE   W02
 BYTE   VOL   22*song09_mvl/mxv
 BYTE   W03
 BYTE   VOL   22*song09_mvl/mxv
 BYTE   W03
 BYTE   VOL   25*song09_mvl/mxv
 BYTE   W01
 BYTE   VOL   26*song09_mvl/mxv
 BYTE   W02
 BYTE   VOL   27*song09_mvl/mxv
 BYTE   W01
 BYTE   VOL   27*song09_mvl/mxv
 BYTE   W02
 BYTE   VOL   28*song09_mvl/mxv
 BYTE   W01
 BYTE   VOL   28*song09_mvl/mxv
 BYTE   W02
Label_014646CF:
 BYTE   VOL   29*song09_mvl/mxv
 BYTE   W01
 BYTE   VOL   28*song09_mvl/mxv
 BYTE   W03
 BYTE   VOL   29*song09_mvl/mxv
 BYTE   W02
 BYTE   VOL   30*song09_mvl/mxv
 BYTE   W01
 BYTE   VOL   30*song09_mvl/mxv
 BYTE   W02
 BYTE   VOL   31*song09_mvl/mxv
 BYTE   W01
 BYTE   VOL   32*song09_mvl/mxv
 BYTE   W11
 BYTE   VOL   31*song09_mvl/mxv
 BYTE   W03
 BYTE   VOL   30*song09_mvl/mxv
 BYTE   N68  An2  v100
 BYTE   W09
 BYTE   VOL   30*song09_mvl/mxv
 BYTE   W03
 BYTE   VOL   29*song09_mvl/mxv
 BYTE   W01
 BYTE   VOL   29*song09_mvl/mxv
 BYTE   W02
 BYTE   VOL   28*song09_mvl/mxv
 BYTE   W03
 BYTE   VOL   28*song09_mvl/mxv
 BYTE   W01
 BYTE   VOL   27*song09_mvl/mxv
 BYTE   W11
//  #04 //047   ----------------------------------------
 BYTE   VOL   27*song09_mvl/mxv
 BYTE   W01
 BYTE   VOL   26*song09_mvl/mxv
 BYTE   W03
 BYTE   VOL   25*song09_mvl/mxv
 BYTE   W03
 BYTE   VOL   24*song09_mvl/mxv
 BYTE   W02
 BYTE   VOL   23*song09_mvl/mxv
 BYTE   W01
 BYTE   VOL   23*song09_mvl/mxv
 BYTE   W03
 BYTE   VOL   22*song09_mvl/mxv
 BYTE   W02
 BYTE   VOL   22*song09_mvl/mxv
 BYTE   W01
 BYTE   VOL   20*song09_mvl/mxv
 BYTE   W03
 BYTE   VOL   19*song09_mvl/mxv
 BYTE   W02
 BYTE   VOL   18*song09_mvl/mxv
 BYTE   W01
 BYTE   VOL   17*song09_mvl/mxv
 BYTE   W03
 BYTE   VOL   14*song09_mvl/mxv
 BYTE   W03
 BYTE   VOL   13*song09_mvl/mxv
 BYTE   W02
 BYTE   VOL   12*song09_mvl/mxv
 BYTE   W01
 BYTE   VOL   11*song09_mvl/mxv
 BYTE   W02
 BYTE   VOL   10*song09_mvl/mxv
 BYTE   W01
 BYTE   VOL   10*song09_mvl/mxv
 BYTE   W07
 BYTE   VOL   0*song09_mvl/mxv
 BYTE   W01
 BYTE   PEND 
//  #04 //048   ----------------------------------------
 BYTE   PATT
  POIN2 Label_01464237
//  #04 //049   ----------------------------------------
 BYTE   PATT
  POIN2 Label_01464110
//  #04 //050   ----------------------------------------
 BYTE   PATT
  POIN2 Label_01464166
//  #04 //051   ----------------------------------------
 BYTE   EOT
 BYTE   En2
 BYTE   VOL   0*song09_mvl/mxv
 BYTE   W01
//  #04 //052   ----------------------------------------
 BYTE   PATT
  POIN2 Label_014641AE
//  #04 //053   ----------------------------------------
 BYTE   PATT
  POIN2 Label_01464110
//  #04 //054   ----------------------------------------
 BYTE   PATT
  POIN2 Label_01464166
//  #04 //055   ----------------------------------------
 BYTE   EOT
 BYTE   Dn2
 BYTE   W01
//  #04 //056   ----------------------------------------
 BYTE   PATT
  POIN2 Label_01464237
//  #04 //057   ----------------------------------------
 BYTE   PATT
  POIN2 Label_01464110
//  #04 //058   ----------------------------------------
 BYTE   PATT
  POIN2 Label_01464166
//  #04 //059   ----------------------------------------
 BYTE   EOT
 BYTE   En2
 BYTE   VOL   0*song09_mvl/mxv
 BYTE   W01
//  #04 //060   ----------------------------------------
 BYTE   PATT
  POIN2 Label_014641AE
//  #04 //061   ----------------------------------------
 BYTE   PATT
  POIN2 Label_01464110
//  #04 //062   ----------------------------------------
 BYTE   PATT
  POIN2 Label_01464166
//  #04 //063   ----------------------------------------
 BYTE   EOT
 BYTE   Dn2
 BYTE   W01
//  #04 //064   ----------------------------------------
 BYTE   PATT
  POIN2 Label_014642D2
//  #04 //065   ----------------------------------------
 BYTE   GoTo
  POIN2 Label_0146431C
//  #04 //066   ----------------------------------------
 BYTE   VOL   30*song09_mvl/mxv
 BYTE   W09
 BYTE   VOL   30*song09_mvl/mxv
 BYTE   W03
 BYTE   VOL   29*song09_mvl/mxv
 BYTE   W01
 BYTE   VOL   29*song09_mvl/mxv
 BYTE   W02
 BYTE   VOL   28*song09_mvl/mxv
 BYTE   W03
 BYTE   VOL   28*song09_mvl/mxv
 BYTE   W01
 BYTE   VOL   27*song09_mvl/mxv
 BYTE   W05
//  #04 //067   ----------------------------------------
 BYTE   PATT
  POIN2 Label_0146432B
//  #04 //068   ----------------------------------------
 BYTE   EOT
 BYTE   Cn2
 BYTE   W01
 BYTE   TIE  Bn1  v100
 BYTE   W01
 BYTE   VOL   8*song09_mvl/mxv
 BYTE   W02
 BYTE   VOL   9*song09_mvl/mxv
 BYTE   W01
 BYTE   VOL   10*song09_mvl/mxv
 BYTE   W02
 BYTE   VOL   10*song09_mvl/mxv
 BYTE   W01
 BYTE   VOL   11*song09_mvl/mxv
 BYTE   W02
 BYTE   VOL   11*song09_mvl/mxv
 BYTE   W01
 BYTE   VOL   13*song09_mvl/mxv
 BYTE   W03
 BYTE   VOL   13*song09_mvl/mxv
 BYTE   W02
 BYTE   VOL   14*song09_mvl/mxv
 BYTE   W03
 BYTE   VOL   15*song09_mvl/mxv
 BYTE   W01
 BYTE   VOL   15*song09_mvl/mxv
 BYTE   W02
 BYTE   VOL   16*song09_mvl/mxv
 BYTE   W01
 BYTE   VOL   17*song09_mvl/mxv
 BYTE   W02
 BYTE   VOL   18*song09_mvl/mxv
 BYTE   W03
 BYTE   VOL   19*song09_mvl/mxv
 BYTE   W01
 BYTE   VOL   19*song09_mvl/mxv
 BYTE   W02
 BYTE   VOL   20*song09_mvl/mxv
 BYTE   W01
 BYTE   VOL   21*song09_mvl/mxv
 BYTE   W02
 BYTE   VOL   22*song09_mvl/mxv
 BYTE   W03
 BYTE   VOL   22*song09_mvl/mxv
 BYTE   W03
 BYTE   VOL   25*song09_mvl/mxv
 BYTE   W01
 BYTE   VOL   26*song09_mvl/mxv
 BYTE   W02
 BYTE   VOL   27*song09_mvl/mxv
 BYTE   W01
 BYTE   VOL   27*song09_mvl/mxv
 BYTE   W02
 BYTE   VOL   28*song09_mvl/mxv
 BYTE   W01
 BYTE   VOL   28*song09_mvl/mxv
 BYTE   W02
//  #04 //069   ----------------------------------------
 BYTE   PATT
  POIN2 Label_0146438E
//  #04 //070   ----------------------------------------
 BYTE   EOT
 BYTE   Bn1
 BYTE   W01
//  #04 //071   ----------------------------------------
 BYTE   PATT
  POIN2 Label_014643D5
//  #04 //072   ----------------------------------------
 BYTE   PATT
  POIN2 Label_0146432B
//  #04 //073   ----------------------------------------
 BYTE   EOT
 BYTE   Cn2
 BYTE   W01
 BYTE   TIE  Bn1  v100
 BYTE   W01
 BYTE   VOL   8*song09_mvl/mxv
 BYTE   W02
 BYTE   VOL   9*song09_mvl/mxv
 BYTE   W01
 BYTE   VOL   10*song09_mvl/mxv
 BYTE   W02
 BYTE   VOL   10*song09_mvl/mxv
 BYTE   W01
 BYTE   VOL   11*song09_mvl/mxv
 BYTE   W02
 BYTE   VOL   11*song09_mvl/mxv
 BYTE   W01
 BYTE   VOL   13*song09_mvl/mxv
 BYTE   W03
 BYTE   VOL   13*song09_mvl/mxv
 BYTE   W02
 BYTE   VOL   14*song09_mvl/mxv
 BYTE   W03
 BYTE   VOL   15*song09_mvl/mxv
 BYTE   W01
 BYTE   VOL   15*song09_mvl/mxv
 BYTE   W02
 BYTE   VOL   16*song09_mvl/mxv
 BYTE   W01
 BYTE   VOL   17*song09_mvl/mxv
 BYTE   W02
 BYTE   VOL   18*song09_mvl/mxv
 BYTE   W03
 BYTE   VOL   19*song09_mvl/mxv
 BYTE   W01
 BYTE   VOL   19*song09_mvl/mxv
 BYTE   W02
 BYTE   VOL   20*song09_mvl/mxv
 BYTE   W01
 BYTE   VOL   21*song09_mvl/mxv
 BYTE   W02
 BYTE   VOL   22*song09_mvl/mxv
 BYTE   W03
 BYTE   VOL   22*song09_mvl/mxv
 BYTE   W03
 BYTE   VOL   25*song09_mvl/mxv
 BYTE   W01
 BYTE   VOL   26*song09_mvl/mxv
 BYTE   W02
 BYTE   VOL   27*song09_mvl/mxv
 BYTE   W01
 BYTE   VOL   27*song09_mvl/mxv
 BYTE   W02
 BYTE   VOL   28*song09_mvl/mxv
 BYTE   W01
 BYTE   VOL   28*song09_mvl/mxv
 BYTE   W02
//  #04 //074   ----------------------------------------
 BYTE   PATT
  POIN2 Label_0146438E
//  #04 //075   ----------------------------------------
 BYTE   EOT
 BYTE   Bn1
 BYTE   W01
//  #04 //076   ----------------------------------------
 BYTE   PATT
  POIN2 Label_014643D5
//  #04 //077   ----------------------------------------
 BYTE   PATT
  POIN2 Label_0146432B
//  #04 //078   ----------------------------------------
 BYTE   EOT
 BYTE   Cn2
 BYTE   W01
 BYTE   TIE  Bn1  v100
 BYTE   W01
 BYTE   VOL   8*song09_mvl/mxv
 BYTE   W02
 BYTE   VOL   9*song09_mvl/mxv
 BYTE   W01
 BYTE   VOL   10*song09_mvl/mxv
 BYTE   W02
 BYTE   VOL   10*song09_mvl/mxv
 BYTE   W01
 BYTE   VOL   11*song09_mvl/mxv
 BYTE   W02
 BYTE   VOL   11*song09_mvl/mxv
 BYTE   W01
 BYTE   VOL   13*song09_mvl/mxv
 BYTE   W03
 BYTE   VOL   13*song09_mvl/mxv
 BYTE   W02
 BYTE   VOL   14*song09_mvl/mxv
 BYTE   W03
 BYTE   VOL   15*song09_mvl/mxv
 BYTE   W01
 BYTE   VOL   15*song09_mvl/mxv
 BYTE   W02
 BYTE   VOL   16*song09_mvl/mxv
 BYTE   W01
 BYTE   VOL   17*song09_mvl/mxv
 BYTE   W02
 BYTE   VOL   18*song09_mvl/mxv
 BYTE   W03
 BYTE   VOL   19*song09_mvl/mxv
 BYTE   W01
 BYTE   VOL   19*song09_mvl/mxv
 BYTE   W02
 BYTE   VOL   20*song09_mvl/mxv
 BYTE   W01
 BYTE   VOL   21*song09_mvl/mxv
 BYTE   W02
 BYTE   VOL   22*song09_mvl/mxv
 BYTE   W03
 BYTE   VOL   22*song09_mvl/mxv
 BYTE   W03
 BYTE   VOL   25*song09_mvl/mxv
 BYTE   W01
 BYTE   VOL   26*song09_mvl/mxv
 BYTE   W02
 BYTE   VOL   27*song09_mvl/mxv
 BYTE   W01
 BYTE   VOL   27*song09_mvl/mxv
 BYTE   W02
 BYTE   VOL   28*song09_mvl/mxv
 BYTE   W01
 BYTE   VOL   28*song09_mvl/mxv
 BYTE   W02
//  #04 //079   ----------------------------------------
 BYTE   PATT
  POIN2 Label_0146438E
//  #04 //080   ----------------------------------------
 BYTE   EOT
 BYTE   Bn1
 BYTE   W01
//  #04 //081   ----------------------------------------
 BYTE   PATT
  POIN2 Label_014643D5
//  #04 //082   ----------------------------------------
 BYTE   PATT
  POIN2 Label_0146432B
//  #04 //083   ----------------------------------------
 BYTE   EOT
 BYTE   Cn2
 BYTE   W01
 BYTE   TIE  Bn1  v100
 BYTE   W01
 BYTE   VOL   8*song09_mvl/mxv
 BYTE   W02
 BYTE   VOL   9*song09_mvl/mxv
 BYTE   W01
 BYTE   VOL   10*song09_mvl/mxv
 BYTE   W02
 BYTE   VOL   10*song09_mvl/mxv
 BYTE   W01
 BYTE   VOL   11*song09_mvl/mxv
 BYTE   W02
 BYTE   VOL   11*song09_mvl/mxv
 BYTE   W01
 BYTE   VOL   13*song09_mvl/mxv
 BYTE   W03
 BYTE   VOL   13*song09_mvl/mxv
 BYTE   W02
 BYTE   VOL   14*song09_mvl/mxv
 BYTE   W03
 BYTE   VOL   15*song09_mvl/mxv
 BYTE   W01
 BYTE   VOL   15*song09_mvl/mxv
 BYTE   W02
 BYTE   VOL   16*song09_mvl/mxv
 BYTE   W01
 BYTE   VOL   17*song09_mvl/mxv
 BYTE   W02
 BYTE   VOL   18*song09_mvl/mxv
 BYTE   W03
 BYTE   VOL   19*song09_mvl/mxv
 BYTE   W01
 BYTE   VOL   19*song09_mvl/mxv
 BYTE   W02
 BYTE   VOL   20*song09_mvl/mxv
 BYTE   W01
 BYTE   VOL   21*song09_mvl/mxv
 BYTE   W02
 BYTE   VOL   22*song09_mvl/mxv
 BYTE   W03
 BYTE   VOL   22*song09_mvl/mxv
 BYTE   W03
 BYTE   VOL   25*song09_mvl/mxv
 BYTE   W01
 BYTE   VOL   26*song09_mvl/mxv
 BYTE   W02
 BYTE   VOL   27*song09_mvl/mxv
 BYTE   W01
 BYTE   VOL   27*song09_mvl/mxv
 BYTE   W02
 BYTE   VOL   28*song09_mvl/mxv
 BYTE   W01
 BYTE   VOL   28*song09_mvl/mxv
 BYTE   W02
//  #04 //084   ----------------------------------------
 BYTE   PATT
  POIN2 Label_0146438E
//  #04 //085   ----------------------------------------
 BYTE   EOT
 BYTE   Bn1
 BYTE   W01
//  #04 //086   ----------------------------------------
 BYTE   PATT
  POIN2 Label_01464512
//  #04 //087   ----------------------------------------
 BYTE   PATT
  POIN2 Label_0146432B
//  #04 //088   ----------------------------------------
 BYTE   EOT
 BYTE   Cn3
 BYTE   W01
 BYTE   N68  Fs2  v100
 BYTE   W01
 BYTE   VOL   8*song09_mvl/mxv
 BYTE   W02
 BYTE   VOL   9*song09_mvl/mxv
 BYTE   W01
 BYTE   VOL   10*song09_mvl/mxv
 BYTE   W02
 BYTE   VOL   10*song09_mvl/mxv
 BYTE   W01
 BYTE   VOL   11*song09_mvl/mxv
 BYTE   W02
 BYTE   VOL   11*song09_mvl/mxv
 BYTE   W01
 BYTE   VOL   13*song09_mvl/mxv
 BYTE   W03
 BYTE   VOL   13*song09_mvl/mxv
 BYTE   W02
 BYTE   VOL   14*song09_mvl/mxv
 BYTE   W03
 BYTE   VOL   15*song09_mvl/mxv
 BYTE   W01
 BYTE   VOL   15*song09_mvl/mxv
 BYTE   W02
 BYTE   VOL   16*song09_mvl/mxv
 BYTE   W01
 BYTE   VOL   17*song09_mvl/mxv
 BYTE   W02
 BYTE   VOL   18*song09_mvl/mxv
 BYTE   W03
 BYTE   VOL   19*song09_mvl/mxv
 BYTE   W01
 BYTE   VOL   19*song09_mvl/mxv
 BYTE   W02
 BYTE   VOL   20*song09_mvl/mxv
 BYTE   W01
 BYTE   VOL   21*song09_mvl/mxv
 BYTE   W02
 BYTE   VOL   22*song09_mvl/mxv
 BYTE   W03
 BYTE   VOL   22*song09_mvl/mxv
 BYTE   W03
 BYTE   VOL   25*song09_mvl/mxv
 BYTE   W01
 BYTE   VOL   26*song09_mvl/mxv
 BYTE   W02
 BYTE   VOL   27*song09_mvl/mxv
 BYTE   W01
 BYTE   VOL   27*song09_mvl/mxv
 BYTE   W02
 BYTE   VOL   28*song09_mvl/mxv
 BYTE   W01
 BYTE   VOL   28*song09_mvl/mxv
 BYTE   W02
//  #04 //089   ----------------------------------------
 BYTE   PATT
  POIN2 Label_014645AB
//  #04 //090   ----------------------------------------
 BYTE   PATT
  POIN2 Label_01464512
//  #04 //091   ----------------------------------------
 BYTE   PATT
  POIN2 Label_0146432B
//  #04 //092   ----------------------------------------
 BYTE   EOT
 BYTE   Cn3
 BYTE   W01
 BYTE   N68  Fs2  v100
 BYTE   W01
 BYTE   VOL   8*song09_mvl/mxv
 BYTE   W02
 BYTE   VOL   9*song09_mvl/mxv
 BYTE   W01
 BYTE   VOL   10*song09_mvl/mxv
 BYTE   W02
 BYTE   VOL   10*song09_mvl/mxv
 BYTE   W01
 BYTE   VOL   11*song09_mvl/mxv
 BYTE   W02
 BYTE   VOL   11*song09_mvl/mxv
 BYTE   W01
 BYTE   VOL   13*song09_mvl/mxv
 BYTE   W03
 BYTE   VOL   13*song09_mvl/mxv
 BYTE   W02
 BYTE   VOL   14*song09_mvl/mxv
 BYTE   W03
 BYTE   VOL   15*song09_mvl/mxv
 BYTE   W01
 BYTE   VOL   15*song09_mvl/mxv
 BYTE   W02
 BYTE   VOL   16*song09_mvl/mxv
 BYTE   W01
 BYTE   VOL   17*song09_mvl/mxv
 BYTE   W02
 BYTE   VOL   18*song09_mvl/mxv
 BYTE   W03
 BYTE   VOL   19*song09_mvl/mxv
 BYTE   W01
 BYTE   VOL   19*song09_mvl/mxv
 BYTE   W02
 BYTE   VOL   20*song09_mvl/mxv
 BYTE   W01
 BYTE   VOL   21*song09_mvl/mxv
 BYTE   W02
 BYTE   VOL   22*song09_mvl/mxv
 BYTE   W03
 BYTE   VOL   22*song09_mvl/mxv
 BYTE   W03
 BYTE   VOL   25*song09_mvl/mxv
 BYTE   W01
 BYTE   VOL   26*song09_mvl/mxv
 BYTE   W02
 BYTE   VOL   27*song09_mvl/mxv
 BYTE   W01
 BYTE   VOL   27*song09_mvl/mxv
 BYTE   W02
 BYTE   VOL   28*song09_mvl/mxv
 BYTE   W01
 BYTE   VOL   28*song09_mvl/mxv
 BYTE   W02
//  #04 //093   ----------------------------------------
 BYTE   PATT
  POIN2 Label_014645AB
//  #04 //094   ----------------------------------------
 BYTE   PATT
  POIN2 Label_01464512
//  #04 //095   ----------------------------------------
 BYTE   PATT
  POIN2 Label_0146432B
//  #04 //096   ----------------------------------------
 BYTE   EOT
 BYTE   Cn3
 BYTE   W01
 BYTE   N68  Fs2  v100
 BYTE   W01
 BYTE   VOL   8*song09_mvl/mxv
 BYTE   W02
 BYTE   VOL   9*song09_mvl/mxv
 BYTE   W01
 BYTE   VOL   10*song09_mvl/mxv
 BYTE   W02
 BYTE   VOL   10*song09_mvl/mxv
 BYTE   W01
 BYTE   VOL   11*song09_mvl/mxv
 BYTE   W02
 BYTE   VOL   11*song09_mvl/mxv
 BYTE   W01
 BYTE   VOL   13*song09_mvl/mxv
 BYTE   W03
 BYTE   VOL   13*song09_mvl/mxv
 BYTE   W02
 BYTE   VOL   14*song09_mvl/mxv
 BYTE   W03
 BYTE   VOL   15*song09_mvl/mxv
 BYTE   W01
 BYTE   VOL   15*song09_mvl/mxv
 BYTE   W02
 BYTE   VOL   16*song09_mvl/mxv
 BYTE   W01
 BYTE   VOL   17*song09_mvl/mxv
 BYTE   W02
 BYTE   VOL   18*song09_mvl/mxv
 BYTE   W03
 BYTE   VOL   19*song09_mvl/mxv
 BYTE   W01
 BYTE   VOL   19*song09_mvl/mxv
 BYTE   W02
 BYTE   VOL   20*song09_mvl/mxv
 BYTE   W01
 BYTE   VOL   21*song09_mvl/mxv
 BYTE   W02
 BYTE   VOL   22*song09_mvl/mxv
 BYTE   W03
 BYTE   VOL   22*song09_mvl/mxv
 BYTE   W03
 BYTE   VOL   25*song09_mvl/mxv
 BYTE   W01
 BYTE   VOL   26*song09_mvl/mxv
 BYTE   W02
 BYTE   VOL   27*song09_mvl/mxv
 BYTE   W01
 BYTE   VOL   27*song09_mvl/mxv
 BYTE   W02
 BYTE   VOL   28*song09_mvl/mxv
 BYTE   W01
 BYTE   VOL   28*song09_mvl/mxv
 BYTE   W02
//  #04 //097   ----------------------------------------
 BYTE   PATT
  POIN2 Label_014645AB
//  #04 //098   ----------------------------------------
 BYTE   PATT
  POIN2 Label_01464512
//  #04 //099   ----------------------------------------
 BYTE   PATT
  POIN2 Label_0146432B
//  #04 //100   ----------------------------------------
 BYTE   EOT
 BYTE   Cn3
 BYTE   W01
 BYTE   N68  Fs2  v100
 BYTE   W01
 BYTE   VOL   8*song09_mvl/mxv
 BYTE   W02
 BYTE   VOL   9*song09_mvl/mxv
 BYTE   W01
 BYTE   VOL   10*song09_mvl/mxv
 BYTE   W02
 BYTE   VOL   10*song09_mvl/mxv
 BYTE   W01
 BYTE   VOL   11*song09_mvl/mxv
 BYTE   W02
 BYTE   VOL   11*song09_mvl/mxv
 BYTE   W01
 BYTE   VOL   13*song09_mvl/mxv
 BYTE   W03
 BYTE   VOL   13*song09_mvl/mxv
 BYTE   W02
 BYTE   VOL   14*song09_mvl/mxv
 BYTE   W03
 BYTE   VOL   15*song09_mvl/mxv
 BYTE   W01
 BYTE   VOL   15*song09_mvl/mxv
 BYTE   W02
 BYTE   VOL   16*song09_mvl/mxv
 BYTE   W01
 BYTE   VOL   17*song09_mvl/mxv
 BYTE   W02
 BYTE   VOL   18*song09_mvl/mxv
 BYTE   W03
 BYTE   VOL   19*song09_mvl/mxv
 BYTE   W01
 BYTE   VOL   19*song09_mvl/mxv
 BYTE   W02
 BYTE   VOL   20*song09_mvl/mxv
 BYTE   W01
 BYTE   VOL   21*song09_mvl/mxv
 BYTE   W02
 BYTE   VOL   22*song09_mvl/mxv
 BYTE   W03
 BYTE   VOL   22*song09_mvl/mxv
 BYTE   W03
 BYTE   VOL   25*song09_mvl/mxv
 BYTE   W01
 BYTE   VOL   26*song09_mvl/mxv
 BYTE   W02
 BYTE   VOL   27*song09_mvl/mxv
 BYTE   W01
 BYTE   VOL   27*song09_mvl/mxv
 BYTE   W02
 BYTE   VOL   28*song09_mvl/mxv
 BYTE   W01
 BYTE   VOL   28*song09_mvl/mxv
 BYTE   W02
//  #04 //101   ----------------------------------------
 BYTE   PATT
  POIN2 Label_014646CF
//  #04 //102   ----------------------------------------
 BYTE   PATT
  POIN2 Label_01464237
//  #04 //103   ----------------------------------------
 BYTE   PATT
  POIN2 Label_01464110
//  #04 //104   ----------------------------------------
 BYTE   PATT
  POIN2 Label_01464166
//  #04 //105   ----------------------------------------
 BYTE   EOT
 BYTE   En2
 BYTE   VOL   0*song09_mvl/mxv
 BYTE   W01
//  #04 //106   ----------------------------------------
 BYTE   PATT
  POIN2 Label_014641AE
//  #04 //107   ----------------------------------------
 BYTE   PATT
  POIN2 Label_01464110
//  #04 //108   ----------------------------------------
 BYTE   PATT
  POIN2 Label_01464166
//  #04 //109   ----------------------------------------
 BYTE   EOT
 BYTE   Dn2
 BYTE   W01
//  #04 //110   ----------------------------------------
 BYTE   PATT
  POIN2 Label_01464237
//  #04 //111   ----------------------------------------
 BYTE   PATT
  POIN2 Label_01464110
//  #04 //112   ----------------------------------------
 BYTE   PATT
  POIN2 Label_01464166
//  #04 //113   ----------------------------------------
 BYTE   EOT
 BYTE   En2
 BYTE   VOL   0*song09_mvl/mxv
 BYTE   W01
//  #04 //114   ----------------------------------------
 BYTE   PATT
  POIN2 Label_014641AE
//  #04 //115   ----------------------------------------
 BYTE   PATT
  POIN2 Label_01464110
//  #04 //116   ----------------------------------------
 BYTE   PATT
  POIN2 Label_01464166
//  #04 //117   ----------------------------------------
 BYTE   EOT
 BYTE   Dn2
 BYTE   W01
//  #04 //118   ----------------------------------------
 BYTE   PATT
  POIN2 Label_014643D5
//  #04 //119   ----------------------------------------
 BYTE   PATT
  POIN2 Label_0146432B
//  #04 //120   ----------------------------------------
 BYTE   EOT
 BYTE   Cn2
 BYTE   W01
 BYTE   TIE  Bn1  v100
 BYTE   W01
 BYTE   VOL   8*song09_mvl/mxv
 BYTE   W02
 BYTE   VOL   9*song09_mvl/mxv
 BYTE   W01
 BYTE   VOL   10*song09_mvl/mxv
 BYTE   W02
 BYTE   VOL   10*song09_mvl/mxv
 BYTE   W01
 BYTE   VOL   11*song09_mvl/mxv
 BYTE   W02
 BYTE   VOL   11*song09_mvl/mxv
 BYTE   W01
 BYTE   VOL   13*song09_mvl/mxv
 BYTE   W03
 BYTE   VOL   13*song09_mvl/mxv
 BYTE   W02
 BYTE   VOL   14*song09_mvl/mxv
 BYTE   W03
 BYTE   VOL   15*song09_mvl/mxv
 BYTE   W01
 BYTE   VOL   15*song09_mvl/mxv
 BYTE   W02
 BYTE   VOL   16*song09_mvl/mxv
 BYTE   W01
 BYTE   VOL   17*song09_mvl/mxv
 BYTE   W02
 BYTE   VOL   18*song09_mvl/mxv
 BYTE   W03
 BYTE   VOL   19*song09_mvl/mxv
 BYTE   W01
 BYTE   VOL   19*song09_mvl/mxv
 BYTE   W02
 BYTE   VOL   20*song09_mvl/mxv
 BYTE   W01
 BYTE   VOL   21*song09_mvl/mxv
 BYTE   W02
 BYTE   VOL   22*song09_mvl/mxv
 BYTE   W03
 BYTE   VOL   22*song09_mvl/mxv
 BYTE   W03
 BYTE   VOL   25*song09_mvl/mxv
 BYTE   W01
 BYTE   VOL   26*song09_mvl/mxv
 BYTE   W02
 BYTE   VOL   27*song09_mvl/mxv
 BYTE   W01
 BYTE   VOL   27*song09_mvl/mxv
 BYTE   W02
 BYTE   VOL   28*song09_mvl/mxv
 BYTE   W01
 BYTE   VOL   28*song09_mvl/mxv
 BYTE   W02
//  #04 //121   ----------------------------------------
 BYTE   PATT
  POIN2 Label_0146438E
//  #04 //122   ----------------------------------------
 BYTE   EOT
 BYTE   Bn1
 BYTE   W01
//  #04 //123   ----------------------------------------
 BYTE   PATT
  POIN2 Label_014643D5
//  #04 //124   ----------------------------------------
 BYTE   PATT
  POIN2 Label_0146432B
//  #04 //125   ----------------------------------------
 BYTE   EOT
 BYTE   Cn2
 BYTE   W01
 BYTE   TIE  Bn1  v100
 BYTE   W01
 BYTE   VOL   8*song09_mvl/mxv
 BYTE   W02
 BYTE   VOL   9*song09_mvl/mxv
 BYTE   W01
 BYTE   VOL   10*song09_mvl/mxv
 BYTE   W02
 BYTE   VOL   10*song09_mvl/mxv
 BYTE   W01
 BYTE   VOL   11*song09_mvl/mxv
 BYTE   W02
 BYTE   VOL   11*song09_mvl/mxv
 BYTE   W01
 BYTE   VOL   13*song09_mvl/mxv
 BYTE   W03
 BYTE   VOL   13*song09_mvl/mxv
 BYTE   W02
 BYTE   VOL   14*song09_mvl/mxv
 BYTE   W03
 BYTE   VOL   15*song09_mvl/mxv
 BYTE   W01
 BYTE   VOL   15*song09_mvl/mxv
 BYTE   W02
 BYTE   VOL   16*song09_mvl/mxv
 BYTE   W01
 BYTE   VOL   17*song09_mvl/mxv
 BYTE   W02
 BYTE   VOL   18*song09_mvl/mxv
 BYTE   W03
 BYTE   VOL   19*song09_mvl/mxv
 BYTE   W01
 BYTE   VOL   19*song09_mvl/mxv
 BYTE   W02
 BYTE   VOL   20*song09_mvl/mxv
 BYTE   W01
 BYTE   VOL   21*song09_mvl/mxv
 BYTE   W02
 BYTE   VOL   22*song09_mvl/mxv
 BYTE   W03
 BYTE   VOL   22*song09_mvl/mxv
 BYTE   W03
 BYTE   VOL   25*song09_mvl/mxv
 BYTE   W01
 BYTE   VOL   26*song09_mvl/mxv
 BYTE   W02
 BYTE   VOL   27*song09_mvl/mxv
 BYTE   W01
 BYTE   VOL   27*song09_mvl/mxv
 BYTE   W02
 BYTE   VOL   28*song09_mvl/mxv
 BYTE   W01
 BYTE   VOL   28*song09_mvl/mxv
 BYTE   W02
//  #04 //126   ----------------------------------------
 BYTE   PATT
  POIN2 Label_0146438E
//  #04 //127   ----------------------------------------
 BYTE   EOT
 BYTE   Bn1
 BYTE   W01
//  #04 //128   ----------------------------------------
 BYTE   PATT
  POIN2 Label_014643D5
//  #04 //129   ----------------------------------------
 BYTE   PATT
  POIN2 Label_0146432B
//  #04 //130   ----------------------------------------
 BYTE   EOT
 BYTE   Cn2
 BYTE   W01
 BYTE   TIE  Bn1  v100
 BYTE   W01
 BYTE   VOL   8*song09_mvl/mxv
 BYTE   W02
 BYTE   VOL   9*song09_mvl/mxv
 BYTE   W01
 BYTE   VOL   10*song09_mvl/mxv
 BYTE   W02
 BYTE   VOL   10*song09_mvl/mxv
 BYTE   W01
 BYTE   VOL   11*song09_mvl/mxv
 BYTE   W02
 BYTE   VOL   11*song09_mvl/mxv
 BYTE   W01
 BYTE   VOL   13*song09_mvl/mxv
 BYTE   W03
 BYTE   VOL   13*song09_mvl/mxv
 BYTE   W02
 BYTE   VOL   14*song09_mvl/mxv
 BYTE   W03
 BYTE   VOL   15*song09_mvl/mxv
 BYTE   W01
 BYTE   VOL   15*song09_mvl/mxv
 BYTE   W02
 BYTE   VOL   16*song09_mvl/mxv
 BYTE   W01
 BYTE   VOL   17*song09_mvl/mxv
 BYTE   W02
 BYTE   VOL   18*song09_mvl/mxv
 BYTE   W03
 BYTE   VOL   19*song09_mvl/mxv
 BYTE   W01
 BYTE   VOL   19*song09_mvl/mxv
 BYTE   W02
 BYTE   VOL   20*song09_mvl/mxv
 BYTE   W01
 BYTE   VOL   21*song09_mvl/mxv
 BYTE   W02
 BYTE   VOL   22*song09_mvl/mxv
 BYTE   W03
 BYTE   VOL   22*song09_mvl/mxv
 BYTE   W03
 BYTE   VOL   25*song09_mvl/mxv
 BYTE   W01
 BYTE   VOL   26*song09_mvl/mxv
 BYTE   W02
 BYTE   VOL   27*song09_mvl/mxv
 BYTE   W01
 BYTE   VOL   27*song09_mvl/mxv
 BYTE   W02
 BYTE   VOL   28*song09_mvl/mxv
 BYTE   W01
 BYTE   VOL   28*song09_mvl/mxv
 BYTE   W02
//  #04 //131   ----------------------------------------
 BYTE   PATT
  POIN2 Label_0146438E
//  #04 //132   ----------------------------------------
 BYTE   EOT
 BYTE   Bn1
 BYTE   W01
//  #04 //133   ----------------------------------------
 BYTE   PATT
  POIN2 Label_014643D5
//  #04 //134   ----------------------------------------
 BYTE   PATT
  POIN2 Label_0146432B
//  #04 //135   ----------------------------------------
 BYTE   EOT
 BYTE   Cn2
 BYTE   W01
 BYTE   TIE  Bn1  v100
 BYTE   W01
 BYTE   VOL   8*song09_mvl/mxv
 BYTE   W02
 BYTE   VOL   9*song09_mvl/mxv
 BYTE   W01
 BYTE   VOL   10*song09_mvl/mxv
 BYTE   W02
 BYTE   VOL   10*song09_mvl/mxv
 BYTE   W01
 BYTE   VOL   11*song09_mvl/mxv
 BYTE   W02
 BYTE   VOL   11*song09_mvl/mxv
 BYTE   W01
 BYTE   VOL   13*song09_mvl/mxv
 BYTE   W03
 BYTE   VOL   13*song09_mvl/mxv
 BYTE   W02
 BYTE   VOL   14*song09_mvl/mxv
 BYTE   W03
 BYTE   VOL   15*song09_mvl/mxv
 BYTE   W01
 BYTE   VOL   15*song09_mvl/mxv
 BYTE   W02
 BYTE   VOL   16*song09_mvl/mxv
 BYTE   W01
 BYTE   VOL   17*song09_mvl/mxv
 BYTE   W02
 BYTE   VOL   18*song09_mvl/mxv
 BYTE   W03
 BYTE   VOL   19*song09_mvl/mxv
 BYTE   W01
 BYTE   VOL   19*song09_mvl/mxv
 BYTE   W02
 BYTE   VOL   20*song09_mvl/mxv
 BYTE   W01
 BYTE   VOL   21*song09_mvl/mxv
 BYTE   W02
 BYTE   VOL   22*song09_mvl/mxv
 BYTE   W03
 BYTE   VOL   22*song09_mvl/mxv
 BYTE   W03
 BYTE   VOL   25*song09_mvl/mxv
 BYTE   W01
 BYTE   VOL   26*song09_mvl/mxv
 BYTE   W02
 BYTE   VOL   27*song09_mvl/mxv
 BYTE   W01
 BYTE   VOL   27*song09_mvl/mxv
 BYTE   W02
 BYTE   VOL   28*song09_mvl/mxv
 BYTE   W01
 BYTE   VOL   28*song09_mvl/mxv
 BYTE   W02
//  #04 //136   ----------------------------------------
 BYTE   PATT
  POIN2 Label_0146438E
//  #04 //137   ----------------------------------------
 BYTE   EOT
 BYTE   Bn1
 BYTE   W01
//  #04 //138   ----------------------------------------
 BYTE   PATT
  POIN2 Label_01464512
//  #04 //139   ----------------------------------------
 BYTE   PATT
  POIN2 Label_0146432B
//  #04 //140   ----------------------------------------
 BYTE   EOT
 BYTE   Cn3
 BYTE   W01
 BYTE   N68  Fs2  v100
 BYTE   W01
 BYTE   VOL   8*song09_mvl/mxv
 BYTE   W02
 BYTE   VOL   9*song09_mvl/mxv
 BYTE   W01
 BYTE   VOL   10*song09_mvl/mxv
 BYTE   W02
 BYTE   VOL   10*song09_mvl/mxv
 BYTE   W01
 BYTE   VOL   11*song09_mvl/mxv
 BYTE   W02
 BYTE   VOL   11*song09_mvl/mxv
 BYTE   W01
 BYTE   VOL   13*song09_mvl/mxv
 BYTE   W03
 BYTE   VOL   13*song09_mvl/mxv
 BYTE   W02
 BYTE   VOL   14*song09_mvl/mxv
 BYTE   W03
 BYTE   VOL   15*song09_mvl/mxv
 BYTE   W01
 BYTE   VOL   15*song09_mvl/mxv
 BYTE   W02
 BYTE   VOL   16*song09_mvl/mxv
 BYTE   W01
 BYTE   VOL   17*song09_mvl/mxv
 BYTE   W02
 BYTE   VOL   18*song09_mvl/mxv
 BYTE   W03
 BYTE   VOL   19*song09_mvl/mxv
 BYTE   W01
 BYTE   VOL   19*song09_mvl/mxv
 BYTE   W02
 BYTE   VOL   20*song09_mvl/mxv
 BYTE   W01
 BYTE   VOL   21*song09_mvl/mxv
 BYTE   W02
 BYTE   VOL   22*song09_mvl/mxv
 BYTE   W03
 BYTE   VOL   22*song09_mvl/mxv
 BYTE   W03
 BYTE   VOL   25*song09_mvl/mxv
 BYTE   W01
 BYTE   VOL   26*song09_mvl/mxv
 BYTE   W02
 BYTE   VOL   27*song09_mvl/mxv
 BYTE   W01
 BYTE   VOL   27*song09_mvl/mxv
 BYTE   W02
 BYTE   VOL   28*song09_mvl/mxv
 BYTE   W01
 BYTE   VOL   28*song09_mvl/mxv
 BYTE   W02
//  #04 //141   ----------------------------------------
 BYTE   PATT
  POIN2 Label_014645AB
//  #04 //142   ----------------------------------------
 BYTE   PATT
  POIN2 Label_01464512
//  #04 //143   ----------------------------------------
 BYTE   PATT
  POIN2 Label_0146432B
//  #04 //144   ----------------------------------------
 BYTE   EOT
 BYTE   Cn3
 BYTE   W01
 BYTE   N68  Fs2  v100
 BYTE   W01
 BYTE   VOL   8*song09_mvl/mxv
 BYTE   W02
 BYTE   VOL   9*song09_mvl/mxv
 BYTE   W01
 BYTE   VOL   10*song09_mvl/mxv
 BYTE   W02
 BYTE   VOL   10*song09_mvl/mxv
 BYTE   W01
 BYTE   VOL   11*song09_mvl/mxv
 BYTE   W02
 BYTE   VOL   11*song09_mvl/mxv
 BYTE   W01
 BYTE   VOL   13*song09_mvl/mxv
 BYTE   W03
 BYTE   VOL   13*song09_mvl/mxv
 BYTE   W02
 BYTE   VOL   14*song09_mvl/mxv
 BYTE   W03
 BYTE   VOL   15*song09_mvl/mxv
 BYTE   W01
 BYTE   VOL   15*song09_mvl/mxv
 BYTE   W02
 BYTE   VOL   16*song09_mvl/mxv
 BYTE   W01
 BYTE   VOL   17*song09_mvl/mxv
 BYTE   W02
 BYTE   VOL   18*song09_mvl/mxv
 BYTE   W03
 BYTE   VOL   19*song09_mvl/mxv
 BYTE   W01
 BYTE   VOL   19*song09_mvl/mxv
 BYTE   W02
 BYTE   VOL   20*song09_mvl/mxv
 BYTE   W01
 BYTE   VOL   21*song09_mvl/mxv
 BYTE   W02
 BYTE   VOL   22*song09_mvl/mxv
 BYTE   W03
 BYTE   VOL   22*song09_mvl/mxv
 BYTE   W03
 BYTE   VOL   25*song09_mvl/mxv
 BYTE   W01
 BYTE   VOL   26*song09_mvl/mxv
 BYTE   W02
 BYTE   VOL   27*song09_mvl/mxv
 BYTE   W01
 BYTE   VOL   27*song09_mvl/mxv
 BYTE   W02
 BYTE   VOL   28*song09_mvl/mxv
 BYTE   W01
 BYTE   VOL   28*song09_mvl/mxv
 BYTE   W02
//  #04 //145   ----------------------------------------
 BYTE   PATT
  POIN2 Label_014645AB
//  #04 //146   ----------------------------------------
 BYTE   PATT
  POIN2 Label_01464512
//  #04 //147   ----------------------------------------
 BYTE   PATT
  POIN2 Label_0146432B
//  #04 //148   ----------------------------------------
 BYTE   EOT
 BYTE   Cn3
 BYTE   W01
 BYTE   N68  Fs2  v100
 BYTE   W01
 BYTE   VOL   8*song09_mvl/mxv
 BYTE   W02
 BYTE   VOL   9*song09_mvl/mxv
 BYTE   W01
 BYTE   VOL   10*song09_mvl/mxv
 BYTE   W02
 BYTE   VOL   10*song09_mvl/mxv
 BYTE   W01
 BYTE   VOL   11*song09_mvl/mxv
 BYTE   W02
 BYTE   VOL   11*song09_mvl/mxv
 BYTE   W01
 BYTE   VOL   13*song09_mvl/mxv
 BYTE   W03
 BYTE   VOL   13*song09_mvl/mxv
 BYTE   W02
 BYTE   VOL   14*song09_mvl/mxv
 BYTE   W03
 BYTE   VOL   15*song09_mvl/mxv
 BYTE   W01
 BYTE   VOL   15*song09_mvl/mxv
 BYTE   W02
 BYTE   VOL   16*song09_mvl/mxv
 BYTE   W01
 BYTE   VOL   17*song09_mvl/mxv
 BYTE   W02
 BYTE   VOL   18*song09_mvl/mxv
 BYTE   W03
 BYTE   VOL   19*song09_mvl/mxv
 BYTE   W01
 BYTE   VOL   19*song09_mvl/mxv
 BYTE   W02
 BYTE   VOL   20*song09_mvl/mxv
 BYTE   W01
 BYTE   VOL   21*song09_mvl/mxv
 BYTE   W02
 BYTE   VOL   22*song09_mvl/mxv
 BYTE   W03
 BYTE   VOL   22*song09_mvl/mxv
 BYTE   W03
 BYTE   VOL   25*song09_mvl/mxv
 BYTE   W01
 BYTE   VOL   26*song09_mvl/mxv
 BYTE   W02
 BYTE   VOL   27*song09_mvl/mxv
 BYTE   W01
 BYTE   VOL   27*song09_mvl/mxv
 BYTE   W02
 BYTE   VOL   28*song09_mvl/mxv
 BYTE   W01
 BYTE   VOL   28*song09_mvl/mxv
 BYTE   W02
//  #04 //149   ----------------------------------------
 BYTE   PATT
  POIN2 Label_014645AB
//  #04 //150   ----------------------------------------
 BYTE   PATT
  POIN2 Label_01464512
//  #04 //151   ----------------------------------------
 BYTE   PATT
  POIN2 Label_0146432B
//  #04 //152   ----------------------------------------
 BYTE   EOT
 BYTE   Cn3
 BYTE   W01
 BYTE   N68  Fs2  v100
 BYTE   W01
 BYTE   VOL   8*song09_mvl/mxv
 BYTE   W02
 BYTE   VOL   9*song09_mvl/mxv
 BYTE   W01
 BYTE   VOL   10*song09_mvl/mxv
 BYTE   W02
 BYTE   VOL   10*song09_mvl/mxv
 BYTE   W01
 BYTE   VOL   11*song09_mvl/mxv
 BYTE   W02
 BYTE   VOL   11*song09_mvl/mxv
 BYTE   W01
 BYTE   VOL   13*song09_mvl/mxv
 BYTE   W03
 BYTE   VOL   13*song09_mvl/mxv
 BYTE   W02
 BYTE   VOL   14*song09_mvl/mxv
 BYTE   W03
 BYTE   VOL   15*song09_mvl/mxv
 BYTE   W01
 BYTE   VOL   15*song09_mvl/mxv
 BYTE   W02
 BYTE   VOL   16*song09_mvl/mxv
 BYTE   W01
 BYTE   VOL   17*song09_mvl/mxv
 BYTE   W02
 BYTE   VOL   18*song09_mvl/mxv
 BYTE   W03
 BYTE   VOL   19*song09_mvl/mxv
 BYTE   W01
 BYTE   VOL   19*song09_mvl/mxv
 BYTE   W02
 BYTE   VOL   20*song09_mvl/mxv
 BYTE   W01
 BYTE   VOL   21*song09_mvl/mxv
 BYTE   W02
 BYTE   VOL   22*song09_mvl/mxv
 BYTE   W03
 BYTE   VOL   22*song09_mvl/mxv
 BYTE   W03
 BYTE   VOL   25*song09_mvl/mxv
 BYTE   W01
 BYTE   VOL   26*song09_mvl/mxv
 BYTE   W02
 BYTE   VOL   27*song09_mvl/mxv
 BYTE   W01
 BYTE   VOL   27*song09_mvl/mxv
 BYTE   W02
 BYTE   VOL   28*song09_mvl/mxv
 BYTE   W01
 BYTE   VOL   28*song09_mvl/mxv
 BYTE   W02
//  #04 //153   ----------------------------------------
 BYTE   PATT
  POIN2 Label_014646CF
//  #04 //154   ----------------------------------------
 BYTE   PATT
  POIN2 Label_01464237
//  #04 //155   ----------------------------------------
 BYTE   PATT
  POIN2 Label_01464110
//  #04 //156   ----------------------------------------
 BYTE   PATT
  POIN2 Label_01464166
//  #04 //157   ----------------------------------------
 BYTE   EOT
 BYTE   En2
 BYTE   VOL   0*song09_mvl/mxv
 BYTE   W01
//  #04 //158   ----------------------------------------
 BYTE   PATT
  POIN2 Label_014641AE
//  #04 //159   ----------------------------------------
 BYTE   PATT
  POIN2 Label_01464110
//  #04 //160   ----------------------------------------
 BYTE   PATT
  POIN2 Label_01464166
//  #04 //161   ----------------------------------------
 BYTE   EOT
 BYTE   Dn2
 BYTE   W01
//  #04 //162   ----------------------------------------
 BYTE   PATT
  POIN2 Label_01464237
//  #04 //163   ----------------------------------------
 BYTE   PATT
  POIN2 Label_01464110
//  #04 //164   ----------------------------------------
 BYTE   PATT
  POIN2 Label_01464166
//  #04 //165   ----------------------------------------
 BYTE   EOT
 BYTE   En2
 BYTE   VOL   0*song09_mvl/mxv
 BYTE   W01
//  #04 //166   ----------------------------------------
 BYTE   PATT
  POIN2 Label_014641AE
//  #04 //167   ----------------------------------------
 BYTE   PATT
  POIN2 Label_01464110
//  #04 //168   ----------------------------------------
 BYTE   PATT
  POIN2 Label_01464166
//  #04 //169   ----------------------------------------
 BYTE   EOT
 BYTE   Dn2
 BYTE   W01
//  #04 //170   ----------------------------------------
 BYTE   PATT
  POIN2 Label_014643D5
//  #04 //171   ----------------------------------------
 BYTE   PATT
  POIN2 Label_0146432B
//  #04 //172   ----------------------------------------
 BYTE   EOT
 BYTE   Cn2
 BYTE   W01
 BYTE   TIE  Bn1  v100
 BYTE   W01
 BYTE   VOL   8*song09_mvl/mxv
 BYTE   W02
 BYTE   VOL   9*song09_mvl/mxv
 BYTE   W01
 BYTE   VOL   10*song09_mvl/mxv
 BYTE   W02
 BYTE   VOL   10*song09_mvl/mxv
 BYTE   W01
 BYTE   VOL   11*song09_mvl/mxv
 BYTE   W02
 BYTE   VOL   11*song09_mvl/mxv
 BYTE   W01
 BYTE   VOL   13*song09_mvl/mxv
 BYTE   W03
 BYTE   VOL   13*song09_mvl/mxv
 BYTE   W02
 BYTE   VOL   14*song09_mvl/mxv
 BYTE   W03
 BYTE   VOL   15*song09_mvl/mxv
 BYTE   W01
 BYTE   VOL   15*song09_mvl/mxv
 BYTE   W02
 BYTE   VOL   16*song09_mvl/mxv
 BYTE   W01
 BYTE   VOL   17*song09_mvl/mxv
 BYTE   W02
 BYTE   VOL   18*song09_mvl/mxv
 BYTE   W03
 BYTE   VOL   19*song09_mvl/mxv
 BYTE   W01
 BYTE   VOL   19*song09_mvl/mxv
 BYTE   W02
 BYTE   VOL   20*song09_mvl/mxv
 BYTE   W01
 BYTE   VOL   21*song09_mvl/mxv
 BYTE   W02
 BYTE   VOL   22*song09_mvl/mxv
 BYTE   W03
 BYTE   VOL   22*song09_mvl/mxv
 BYTE   W03
 BYTE   VOL   25*song09_mvl/mxv
 BYTE   W01
 BYTE   VOL   26*song09_mvl/mxv
 BYTE   W02
 BYTE   VOL   27*song09_mvl/mxv
 BYTE   W01
 BYTE   VOL   27*song09_mvl/mxv
 BYTE   W02
 BYTE   VOL   28*song09_mvl/mxv
 BYTE   W01
 BYTE   VOL   28*song09_mvl/mxv
 BYTE   W02
//  #04 //173   ----------------------------------------
 BYTE   PATT
  POIN2 Label_0146438E
//  #04 //174   ----------------------------------------
 BYTE   EOT
 BYTE   Bn1
 BYTE   W01
//  #04 //175   ----------------------------------------
 BYTE   PATT
  POIN2 Label_014643D5
//  #04 //176   ----------------------------------------
 BYTE   PATT
  POIN2 Label_0146432B
//  #04 //177   ----------------------------------------
 BYTE   EOT
 BYTE   Cn2
 BYTE   W01
 BYTE   TIE  Bn1  v100
 BYTE   W01
 BYTE   VOL   8*song09_mvl/mxv
 BYTE   W02
 BYTE   VOL   9*song09_mvl/mxv
 BYTE   W01
 BYTE   VOL   10*song09_mvl/mxv
 BYTE   W02
 BYTE   VOL   10*song09_mvl/mxv
 BYTE   W01
 BYTE   VOL   11*song09_mvl/mxv
 BYTE   W02
 BYTE   VOL   11*song09_mvl/mxv
 BYTE   W01
 BYTE   VOL   13*song09_mvl/mxv
 BYTE   W03
 BYTE   VOL   13*song09_mvl/mxv
 BYTE   W02
 BYTE   VOL   14*song09_mvl/mxv
 BYTE   W03
 BYTE   VOL   15*song09_mvl/mxv
 BYTE   W01
 BYTE   VOL   15*song09_mvl/mxv
 BYTE   W02
 BYTE   VOL   16*song09_mvl/mxv
 BYTE   W01
 BYTE   VOL   17*song09_mvl/mxv
 BYTE   W02
 BYTE   VOL   18*song09_mvl/mxv
 BYTE   W03
 BYTE   VOL   19*song09_mvl/mxv
 BYTE   W01
 BYTE   VOL   19*song09_mvl/mxv
 BYTE   W02
 BYTE   VOL   20*song09_mvl/mxv
 BYTE   W01
 BYTE   VOL   21*song09_mvl/mxv
 BYTE   W02
 BYTE   VOL   22*song09_mvl/mxv
 BYTE   W03
 BYTE   VOL   22*song09_mvl/mxv
 BYTE   W03
 BYTE   VOL   25*song09_mvl/mxv
 BYTE   W01
 BYTE   VOL   26*song09_mvl/mxv
 BYTE   W02
 BYTE   VOL   27*song09_mvl/mxv
 BYTE   W01
 BYTE   VOL   27*song09_mvl/mxv
 BYTE   W02
 BYTE   VOL   28*song09_mvl/mxv
 BYTE   W01
 BYTE   VOL   28*song09_mvl/mxv
 BYTE   W02
//  #04 //178   ----------------------------------------
 BYTE   PATT
  POIN2 Label_0146438E
//  #04 //179   ----------------------------------------
 BYTE   EOT
 BYTE   Bn1
 BYTE   W01
//  #04 //180   ----------------------------------------
 BYTE   PATT
  POIN2 Label_014643D5
//  #04 //181   ----------------------------------------
 BYTE   PATT
  POIN2 Label_0146432B
//  #04 //182   ----------------------------------------
 BYTE   EOT
 BYTE   Cn2
 BYTE   W01
 BYTE   TIE  Bn1  v100
 BYTE   W01
 BYTE   VOL   8*song09_mvl/mxv
 BYTE   W02
 BYTE   VOL   9*song09_mvl/mxv
 BYTE   W01
 BYTE   VOL   10*song09_mvl/mxv
 BYTE   W02
 BYTE   VOL   10*song09_mvl/mxv
 BYTE   W01
 BYTE   VOL   11*song09_mvl/mxv
 BYTE   W02
 BYTE   VOL   11*song09_mvl/mxv
 BYTE   W01
 BYTE   VOL   13*song09_mvl/mxv
 BYTE   W03
 BYTE   VOL   13*song09_mvl/mxv
 BYTE   W02
 BYTE   VOL   14*song09_mvl/mxv
 BYTE   W03
 BYTE   VOL   15*song09_mvl/mxv
 BYTE   W01
 BYTE   VOL   15*song09_mvl/mxv
 BYTE   W02
 BYTE   VOL   16*song09_mvl/mxv
 BYTE   W01
 BYTE   VOL   17*song09_mvl/mxv
 BYTE   W02
 BYTE   VOL   18*song09_mvl/mxv
 BYTE   W03
 BYTE   VOL   19*song09_mvl/mxv
 BYTE   W01
 BYTE   VOL   19*song09_mvl/mxv
 BYTE   W02
 BYTE   VOL   20*song09_mvl/mxv
 BYTE   W01
 BYTE   VOL   21*song09_mvl/mxv
 BYTE   W02
 BYTE   VOL   22*song09_mvl/mxv
 BYTE   W03
 BYTE   VOL   22*song09_mvl/mxv
 BYTE   W03
 BYTE   VOL   25*song09_mvl/mxv
 BYTE   W01
 BYTE   VOL   26*song09_mvl/mxv
 BYTE   W02
 BYTE   VOL   27*song09_mvl/mxv
 BYTE   W01
 BYTE   VOL   27*song09_mvl/mxv
 BYTE   W02
 BYTE   VOL   28*song09_mvl/mxv
 BYTE   W01
 BYTE   VOL   28*song09_mvl/mxv
 BYTE   W02
//  #04 //183   ----------------------------------------
 BYTE   PATT
  POIN2 Label_0146438E
//  #04 //184   ----------------------------------------
 BYTE   EOT
 BYTE   Bn1
 BYTE   W01
//  #04 //185   ----------------------------------------
 BYTE   PATT
  POIN2 Label_014643D5
//  #04 //186   ----------------------------------------
 BYTE   PATT
  POIN2 Label_0146432B
//  #04 //187   ----------------------------------------
 BYTE   EOT
 BYTE   Cn2
 BYTE   W01
 BYTE   TIE  Bn1  v100
 BYTE   W01
 BYTE   VOL   8*song09_mvl/mxv
 BYTE   W02
 BYTE   VOL   9*song09_mvl/mxv
 BYTE   W01
 BYTE   VOL   10*song09_mvl/mxv
 BYTE   W02
 BYTE   VOL   10*song09_mvl/mxv
 BYTE   W01
 BYTE   VOL   11*song09_mvl/mxv
 BYTE   W02
 BYTE   VOL   11*song09_mvl/mxv
 BYTE   W01
 BYTE   VOL   13*song09_mvl/mxv
 BYTE   W03
 BYTE   VOL   13*song09_mvl/mxv
 BYTE   W02
 BYTE   VOL   14*song09_mvl/mxv
 BYTE   W03
 BYTE   VOL   15*song09_mvl/mxv
 BYTE   W01
 BYTE   VOL   15*song09_mvl/mxv
 BYTE   W02
 BYTE   VOL   16*song09_mvl/mxv
 BYTE   W01
 BYTE   VOL   17*song09_mvl/mxv
 BYTE   W02
 BYTE   VOL   18*song09_mvl/mxv
 BYTE   W03
 BYTE   VOL   19*song09_mvl/mxv
 BYTE   W01
 BYTE   VOL   19*song09_mvl/mxv
 BYTE   W02
 BYTE   VOL   20*song09_mvl/mxv
 BYTE   W01
 BYTE   VOL   21*song09_mvl/mxv
 BYTE   W02
 BYTE   VOL   22*song09_mvl/mxv
 BYTE   W03
 BYTE   VOL   22*song09_mvl/mxv
 BYTE   W03
 BYTE   VOL   25*song09_mvl/mxv
 BYTE   W01
 BYTE   VOL   26*song09_mvl/mxv
 BYTE   W02
 BYTE   VOL   27*song09_mvl/mxv
 BYTE   W01
 BYTE   VOL   27*song09_mvl/mxv
 BYTE   W02
 BYTE   VOL   28*song09_mvl/mxv
 BYTE   W01
 BYTE   VOL   28*song09_mvl/mxv
 BYTE   W02
//  #04 //188   ----------------------------------------
 BYTE   PATT
  POIN2 Label_0146438E
//  #04 //189   ----------------------------------------
 BYTE   EOT
 BYTE   Bn1
 BYTE   W01
//  #04 //190   ----------------------------------------
 BYTE   PATT
  POIN2 Label_01464512
//  #04 //191   ----------------------------------------
 BYTE   PATT
  POIN2 Label_0146432B
//  #04 //192   ----------------------------------------
 BYTE   EOT
 BYTE   Cn3
 BYTE   W01
 BYTE   N68  Fs2  v100
 BYTE   W01
 BYTE   VOL   8*song09_mvl/mxv
 BYTE   W02
 BYTE   VOL   9*song09_mvl/mxv
 BYTE   W01
 BYTE   VOL   10*song09_mvl/mxv
 BYTE   W02
 BYTE   VOL   10*song09_mvl/mxv
 BYTE   W01
 BYTE   VOL   11*song09_mvl/mxv
 BYTE   W02
 BYTE   VOL   11*song09_mvl/mxv
 BYTE   W01
 BYTE   VOL   13*song09_mvl/mxv
 BYTE   W03
 BYTE   VOL   13*song09_mvl/mxv
 BYTE   W02
 BYTE   VOL   14*song09_mvl/mxv
 BYTE   W03
 BYTE   VOL   15*song09_mvl/mxv
 BYTE   W01
 BYTE   VOL   15*song09_mvl/mxv
 BYTE   W02
 BYTE   VOL   16*song09_mvl/mxv
 BYTE   W01
 BYTE   VOL   17*song09_mvl/mxv
 BYTE   W02
 BYTE   VOL   18*song09_mvl/mxv
 BYTE   W03
 BYTE   VOL   19*song09_mvl/mxv
 BYTE   W01
 BYTE   VOL   19*song09_mvl/mxv
 BYTE   W02
 BYTE   VOL   20*song09_mvl/mxv
 BYTE   W01
 BYTE   VOL   21*song09_mvl/mxv
 BYTE   W02
 BYTE   VOL   22*song09_mvl/mxv
 BYTE   W03
 BYTE   VOL   22*song09_mvl/mxv
 BYTE   W03
 BYTE   VOL   25*song09_mvl/mxv
 BYTE   W01
 BYTE   VOL   26*song09_mvl/mxv
 BYTE   W02
 BYTE   VOL   27*song09_mvl/mxv
 BYTE   W01
 BYTE   VOL   27*song09_mvl/mxv
 BYTE   W02
 BYTE   VOL   28*song09_mvl/mxv
 BYTE   W01
 BYTE   VOL   28*song09_mvl/mxv
 BYTE   W02
//  #04 //193   ----------------------------------------
 BYTE   PATT
  POIN2 Label_014645AB
//  #04 //194   ----------------------------------------
 BYTE   PATT
  POIN2 Label_01464512
//  #04 //195   ----------------------------------------
 BYTE   PATT
  POIN2 Label_0146432B
//  #04 //196   ----------------------------------------
 BYTE   EOT
 BYTE   Cn3
 BYTE   W01
 BYTE   N68  Fs2  v100
 BYTE   W01
 BYTE   VOL   8*song09_mvl/mxv
 BYTE   W02
 BYTE   VOL   9*song09_mvl/mxv
 BYTE   W01
 BYTE   VOL   10*song09_mvl/mxv
 BYTE   W02
 BYTE   VOL   10*song09_mvl/mxv
 BYTE   W01
 BYTE   VOL   11*song09_mvl/mxv
 BYTE   W02
 BYTE   VOL   11*song09_mvl/mxv
 BYTE   W01
 BYTE   VOL   13*song09_mvl/mxv
 BYTE   W03
 BYTE   VOL   13*song09_mvl/mxv
 BYTE   W02
 BYTE   VOL   14*song09_mvl/mxv
 BYTE   W03
 BYTE   VOL   15*song09_mvl/mxv
 BYTE   W01
 BYTE   VOL   15*song09_mvl/mxv
 BYTE   W02
 BYTE   VOL   16*song09_mvl/mxv
 BYTE   W01
 BYTE   VOL   17*song09_mvl/mxv
 BYTE   W02
 BYTE   VOL   18*song09_mvl/mxv
 BYTE   W03
 BYTE   VOL   19*song09_mvl/mxv
 BYTE   W01
 BYTE   VOL   19*song09_mvl/mxv
 BYTE   W02
 BYTE   VOL   20*song09_mvl/mxv
 BYTE   W01
 BYTE   VOL   21*song09_mvl/mxv
 BYTE   W02
 BYTE   VOL   22*song09_mvl/mxv
 BYTE   W03
 BYTE   VOL   22*song09_mvl/mxv
 BYTE   W03
 BYTE   VOL   25*song09_mvl/mxv
 BYTE   W01
 BYTE   VOL   26*song09_mvl/mxv
 BYTE   W02
 BYTE   VOL   27*song09_mvl/mxv
 BYTE   W01
 BYTE   VOL   27*song09_mvl/mxv
 BYTE   W02
 BYTE   VOL   28*song09_mvl/mxv
 BYTE   W01
 BYTE   VOL   28*song09_mvl/mxv
 BYTE   W02
//  #04 //197   ----------------------------------------
 BYTE   PATT
  POIN2 Label_014645AB
//  #04 //198   ----------------------------------------
 BYTE   PATT
  POIN2 Label_01464512
//  #04 //199   ----------------------------------------
 BYTE   PATT
  POIN2 Label_0146432B
//  #04 //200   ----------------------------------------
 BYTE   EOT
 BYTE   Cn3
 BYTE   W01
 BYTE   N68  Fs2  v100
 BYTE   W01
 BYTE   VOL   8*song09_mvl/mxv
 BYTE   W02
 BYTE   VOL   9*song09_mvl/mxv
 BYTE   W01
 BYTE   VOL   10*song09_mvl/mxv
 BYTE   W02
 BYTE   VOL   10*song09_mvl/mxv
 BYTE   W01
 BYTE   VOL   11*song09_mvl/mxv
 BYTE   W02
 BYTE   VOL   11*song09_mvl/mxv
 BYTE   W01
 BYTE   VOL   13*song09_mvl/mxv
 BYTE   W03
 BYTE   VOL   13*song09_mvl/mxv
 BYTE   W02
 BYTE   VOL   14*song09_mvl/mxv
 BYTE   W03
 BYTE   VOL   15*song09_mvl/mxv
 BYTE   W01
 BYTE   VOL   15*song09_mvl/mxv
 BYTE   W02
 BYTE   VOL   16*song09_mvl/mxv
 BYTE   W01
 BYTE   VOL   17*song09_mvl/mxv
 BYTE   W02
 BYTE   VOL   18*song09_mvl/mxv
 BYTE   W03
 BYTE   VOL   19*song09_mvl/mxv
 BYTE   W01
 BYTE   VOL   19*song09_mvl/mxv
 BYTE   W02
 BYTE   VOL   20*song09_mvl/mxv
 BYTE   W01
 BYTE   VOL   21*song09_mvl/mxv
 BYTE   W02
 BYTE   VOL   22*song09_mvl/mxv
 BYTE   W03
 BYTE   VOL   22*song09_mvl/mxv
 BYTE   W03
 BYTE   VOL   25*song09_mvl/mxv
 BYTE   W01
 BYTE   VOL   26*song09_mvl/mxv
 BYTE   W02
 BYTE   VOL   27*song09_mvl/mxv
 BYTE   W01
 BYTE   VOL   27*song09_mvl/mxv
 BYTE   W02
 BYTE   VOL   28*song09_mvl/mxv
 BYTE   W01
 BYTE   VOL   28*song09_mvl/mxv
 BYTE   W02
//  #04 //201   ----------------------------------------
 BYTE   PATT
  POIN2 Label_014645AB
//  #04 //202   ----------------------------------------
 BYTE   PATT
  POIN2 Label_01464512
//  #04 //203   ----------------------------------------
 BYTE   PATT
  POIN2 Label_0146432B
//  #04 //204   ----------------------------------------
 BYTE   EOT
 BYTE   Cn3
 BYTE   W01
 BYTE   N68  Fs2  v100
 BYTE   W01
 BYTE   VOL   8*song09_mvl/mxv
 BYTE   W02
 BYTE   VOL   9*song09_mvl/mxv
 BYTE   W01
 BYTE   VOL   10*song09_mvl/mxv
 BYTE   W02
 BYTE   VOL   10*song09_mvl/mxv
 BYTE   W01
 BYTE   VOL   11*song09_mvl/mxv
 BYTE   W02
 BYTE   VOL   11*song09_mvl/mxv
 BYTE   W01
 BYTE   VOL   13*song09_mvl/mxv
 BYTE   W03
 BYTE   VOL   13*song09_mvl/mxv
 BYTE   W02
 BYTE   VOL   14*song09_mvl/mxv
 BYTE   W03
 BYTE   VOL   15*song09_mvl/mxv
 BYTE   W01
 BYTE   VOL   15*song09_mvl/mxv
 BYTE   W02
 BYTE   VOL   16*song09_mvl/mxv
 BYTE   W01
 BYTE   VOL   17*song09_mvl/mxv
 BYTE   W02
 BYTE   VOL   18*song09_mvl/mxv
 BYTE   W03
 BYTE   VOL   19*song09_mvl/mxv
 BYTE   W01
 BYTE   VOL   19*song09_mvl/mxv
 BYTE   W02
 BYTE   VOL   20*song09_mvl/mxv
 BYTE   W01
 BYTE   VOL   21*song09_mvl/mxv
 BYTE   W02
 BYTE   VOL   22*song09_mvl/mxv
 BYTE   W03
 BYTE   VOL   22*song09_mvl/mxv
 BYTE   W03
 BYTE   VOL   25*song09_mvl/mxv
 BYTE   W01
 BYTE   VOL   26*song09_mvl/mxv
 BYTE   W02
 BYTE   VOL   27*song09_mvl/mxv
 BYTE   W01
 BYTE   VOL   27*song09_mvl/mxv
 BYTE   W02
 BYTE   VOL   28*song09_mvl/mxv
 BYTE   W01
 BYTE   VOL   28*song09_mvl/mxv
 BYTE   W02
//  #04 //205   ----------------------------------------
 BYTE   PATT
  POIN2 Label_014646CF
//  #04 //206   ----------------------------------------
 BYTE   PATT
  POIN2 Label_01464237
//  #04 //207   ----------------------------------------
 BYTE   PATT
  POIN2 Label_01464110
//  #04 //208   ----------------------------------------
 BYTE   PATT
  POIN2 Label_01464166
//  #04 //209   ----------------------------------------
 BYTE   EOT
 BYTE   En2
 BYTE   VOL   0*song09_mvl/mxv
 BYTE   W01
//  #04 //210   ----------------------------------------
 BYTE   PATT
  POIN2 Label_014641AE
//  #04 //211   ----------------------------------------
 BYTE   PATT
  POIN2 Label_01464110
//  #04 //212   ----------------------------------------
 BYTE   PATT
  POIN2 Label_01464166
//  #04 //213   ----------------------------------------
 BYTE   EOT
 BYTE   Dn2
 BYTE   FINE

//**************** Track 5 (Midi-Chn.4) ****************//

song09_005:
//  #05 //000   ----------------------------------------
 BYTE   KEYSH   song09_key+0
 BYTE   MODT 0
 BYTE   LFOS 44
 BYTE   W24
 BYTE   VOICE   54
 BYTE   VOL   45*song09_mvl/mxv
 BYTE   PAN   c_v+20
 BYTE   VOL   0*song09_mvl/mxv
 BYTE   TIE  Bn2  v100
 BYTE   W02
 BYTE   VOL   0*song09_mvl/mxv
 BYTE   W01
 BYTE   VOL   0*song09_mvl/mxv
 BYTE   W02
 BYTE   VOL   0*song09_mvl/mxv
 BYTE   W01
 BYTE   VOL   0*song09_mvl/mxv
 BYTE   W03
 BYTE   VOL   0*song09_mvl/mxv
 BYTE   W02
 BYTE   VOL   0*song09_mvl/mxv
 BYTE   W01
 BYTE   VOL   1*song09_mvl/mxv
 BYTE   W02
 BYTE   VOL   1*song09_mvl/mxv
 BYTE   W01
 BYTE   VOL   1*song09_mvl/mxv
 BYTE   W02
 BYTE   VOL   1*song09_mvl/mxv
 BYTE   W01
 BYTE   VOL   1*song09_mvl/mxv
 BYTE   W02
 BYTE   VOL   1*song09_mvl/mxv
 BYTE   W01
 BYTE   VOL   1*song09_mvl/mxv
 BYTE   W02
 BYTE   VOL   1*song09_mvl/mxv
 BYTE   W03
 BYTE   VOL   2*song09_mvl/mxv
 BYTE   W01
 BYTE   VOL   2*song09_mvl/mxv
 BYTE   W02
 BYTE   VOL   3*song09_mvl/mxv
 BYTE   W01
 BYTE   VOL   3*song09_mvl/mxv
 BYTE   W02
 BYTE   VOL   3*song09_mvl/mxv
 BYTE   W01
 BYTE   VOL   3*song09_mvl/mxv
 BYTE   W02
 BYTE   VOL   3*song09_mvl/mxv
 BYTE   W01
 BYTE   VOL   4*song09_mvl/mxv
 BYTE   W03
 BYTE   VOL   4*song09_mvl/mxv
 BYTE   W02
 BYTE   VOL   4*song09_mvl/mxv
 BYTE   W01
 BYTE   VOL   5*song09_mvl/mxv
 BYTE   W02
 BYTE   VOL   5*song09_mvl/mxv
 BYTE   W01
 BYTE   VOL   5*song09_mvl/mxv
 BYTE   W02
 BYTE   VOL   5*song09_mvl/mxv
 BYTE   W01
 BYTE   VOL   6*song09_mvl/mxv
 BYTE   W02
 BYTE   VOL   6*song09_mvl/mxv
 BYTE   W01
 BYTE   VOL   6*song09_mvl/mxv
 BYTE   W02
 BYTE   VOL   6*song09_mvl/mxv
 BYTE   W03
 BYTE   VOL   7*song09_mvl/mxv
 BYTE   W01
 BYTE   VOL   8*song09_mvl/mxv
 BYTE   W02
 BYTE   VOL   8*song09_mvl/mxv
 BYTE   W01
 BYTE   VOL   8*song09_mvl/mxv
 BYTE   W02
 BYTE   VOL   8*song09_mvl/mxv
 BYTE   W01
 BYTE   VOL   9*song09_mvl/mxv
 BYTE   W02
 BYTE   VOL   10*song09_mvl/mxv
 BYTE   W01
 BYTE   VOL   10*song09_mvl/mxv
 BYTE   W03
 BYTE   VOL   10*song09_mvl/mxv
 BYTE   W02
 BYTE   VOL   10*song09_mvl/mxv
 BYTE   W01
//  #05 //001   ----------------------------------------
 BYTE   VOL   11*song09_mvl/mxv
 BYTE   W02
 BYTE   VOL   11*song09_mvl/mxv
 BYTE   W01
 BYTE   VOL   11*song09_mvl/mxv
 BYTE   W02
 BYTE   VOL   11*song09_mvl/mxv
 BYTE   W01
 BYTE   VOL   12*song09_mvl/mxv
 BYTE   W02
 BYTE   VOL   13*song09_mvl/mxv
 BYTE   W01
 BYTE   VOL   13*song09_mvl/mxv
 BYTE   W02
 BYTE   VOL   13*song09_mvl/mxv
 BYTE   W01
 BYTE   VOL   14*song09_mvl/mxv
 BYTE   W02
 BYTE   VOL   14*song09_mvl/mxv
 BYTE   W01
 BYTE   VOL   15*song09_mvl/mxv
 BYTE   W02
 BYTE   VOL   15*song09_mvl/mxv
 BYTE   W01
 BYTE   VOL   15*song09_mvl/mxv
 BYTE   W02
 BYTE   VOL   16*song09_mvl/mxv
 BYTE   W01
 BYTE   VOL   17*song09_mvl/mxv
 BYTE   W02
 BYTE   VOL   17*song09_mvl/mxv
 BYTE   W01
Label_01464FEC:
 BYTE   VOL   17*song09_mvl/mxv
 BYTE   W02
 BYTE   VOL   18*song09_mvl/mxv
 BYTE   W03
 BYTE   VOL   18*song09_mvl/mxv
 BYTE   W01
 BYTE   VOL   19*song09_mvl/mxv
 BYTE   W02
 BYTE   VOL   19*song09_mvl/mxv
 BYTE   W01
 BYTE   VOL   19*song09_mvl/mxv
 BYTE   W02
 BYTE   VOL   20*song09_mvl/mxv
 BYTE   W01
 BYTE   VOL   20*song09_mvl/mxv
 BYTE   W02
 BYTE   VOL   22*song09_mvl/mxv
 BYTE   W01
 BYTE   VOL   22*song09_mvl/mxv
 BYTE   W03
 BYTE   VOL   22*song09_mvl/mxv
 BYTE   W02
 BYTE   VOL   23*song09_mvl/mxv
 BYTE   W01
 BYTE   VOL   23*song09_mvl/mxv
 BYTE   W02
 BYTE   VOL   23*song09_mvl/mxv
 BYTE   W01
 BYTE   VOL   24*song09_mvl/mxv
 BYTE   W02
 BYTE   VOL   25*song09_mvl/mxv
 BYTE   W01
 BYTE   VOL   26*song09_mvl/mxv
 BYTE   W02
 BYTE   VOL   27*song09_mvl/mxv
 BYTE   W01
 BYTE   VOL   27*song09_mvl/mxv
 BYTE   W02
 BYTE   VOL   27*song09_mvl/mxv
 BYTE   W03
 BYTE   VOL   28*song09_mvl/mxv
 BYTE   W01
 BYTE   VOL   28*song09_mvl/mxv
 BYTE   W02
 BYTE   VOL   29*song09_mvl/mxv
 BYTE   W01
 BYTE   VOL   29*song09_mvl/mxv
 BYTE   W02
 BYTE   VOL   30*song09_mvl/mxv
 BYTE   W01
 BYTE   VOL   31*song09_mvl/mxv
 BYTE   W02
 BYTE   VOL   32*song09_mvl/mxv
 BYTE   W01
 BYTE   VOL   32*song09_mvl/mxv
 BYTE   W03
 BYTE   VOL   33*song09_mvl/mxv
 BYTE   W02
 BYTE   VOL   34*song09_mvl/mxv
 BYTE   W01
 BYTE   VOL   34*song09_mvl/mxv
 BYTE   W02
 BYTE   VOL   34*song09_mvl/mxv
 BYTE   W01
 BYTE   VOL   35*song09_mvl/mxv
 BYTE   W02
 BYTE   VOL   36*song09_mvl/mxv
 BYTE   W01
 BYTE   VOL   37*song09_mvl/mxv
 BYTE   W02
 BYTE   VOL   37*song09_mvl/mxv
 BYTE   W01
 BYTE   VOL   37*song09_mvl/mxv
 BYTE   W02
 BYTE   VOL   38*song09_mvl/mxv
 BYTE   W03
 BYTE   VOL   39*song09_mvl/mxv
 BYTE   W01
 BYTE   VOL   40*song09_mvl/mxv
 BYTE   W15
//  #05 //002   ----------------------------------------
 BYTE   VOL   39*song09_mvl/mxv
 BYTE   W05
 BYTE   VOL   38*song09_mvl/mxv
 BYTE   W10
 BYTE   PEND 
Label_01465042:
 BYTE   W03
 BYTE   VOL   37*song09_mvl/mxv
 BYTE   W03
 BYTE   VOL   37*song09_mvl/mxv
 BYTE   W05
 BYTE   VOL   36*song09_mvl/mxv
 BYTE   W07
 BYTE   VOL   35*song09_mvl/mxv
 BYTE   W02
 BYTE   VOL   34*song09_mvl/mxv
 BYTE   W07
 BYTE   VOL   34*song09_mvl/mxv
 BYTE   W05
 BYTE   VOL   33*song09_mvl/mxv
 BYTE   W01
 BYTE   VOL   32*song09_mvl/mxv
 BYTE   W03
 BYTE   VOL   32*song09_mvl/mxv
 BYTE   W02
 BYTE   VOL   31*song09_mvl/mxv
 BYTE   W03
 BYTE   VOL   30*song09_mvl/mxv
 BYTE   W03
 BYTE   VOL   29*song09_mvl/mxv
 BYTE   W01
 BYTE   VOL   28*song09_mvl/mxv
 BYTE   W03
 BYTE   VOL   27*song09_mvl/mxv
 BYTE   W05
 BYTE   VOL   27*song09_mvl/mxv
 BYTE   W01
 BYTE   VOL   25*song09_mvl/mxv
 BYTE   W03
 BYTE   VOL   23*song09_mvl/mxv
 BYTE   W02
 BYTE   VOL   23*song09_mvl/mxv
 BYTE   W03
 BYTE   VOL   22*song09_mvl/mxv
 BYTE   W01
 BYTE   VOL   20*song09_mvl/mxv
 BYTE   W03
 BYTE   VOL   19*song09_mvl/mxv
 BYTE   W02
 BYTE   VOL   19*song09_mvl/mxv
 BYTE   W03
 BYTE   VOL   17*song09_mvl/mxv
 BYTE   W03
 BYTE   VOL   15*song09_mvl/mxv
 BYTE   W01
 BYTE   VOL   15*song09_mvl/mxv
 BYTE   W03
 BYTE   VOL   14*song09_mvl/mxv
 BYTE   W02
 BYTE   VOL   13*song09_mvl/mxv
 BYTE   W03
//  #05 //003   ----------------------------------------
 BYTE   VOL   11*song09_mvl/mxv
 BYTE   W01
 BYTE   VOL   10*song09_mvl/mxv
 BYTE   W03
 BYTE   VOL   7*song09_mvl/mxv
 BYTE   W02
 BYTE   VOL   6*song09_mvl/mxv
 BYTE   W03
 BYTE   VOL   5*song09_mvl/mxv
 BYTE   W03
 BYTE   PEND 
 BYTE   EOT
 BYTE   Bn2
 BYTE   VOL   0*song09_mvl/mxv
 BYTE   W01
Label_0146508A:
 BYTE   TIE  An2  v100
 BYTE   W02
 BYTE   VOL   0*song09_mvl/mxv
 BYTE   W01
 BYTE   VOL   0*song09_mvl/mxv
 BYTE   W02
 BYTE   VOL   0*song09_mvl/mxv
 BYTE   W01
 BYTE   VOL   0*song09_mvl/mxv
 BYTE   W03
 BYTE   VOL   0*song09_mvl/mxv
 BYTE   W02
 BYTE   VOL   0*song09_mvl/mxv
 BYTE   W01
 BYTE   VOL   1*song09_mvl/mxv
 BYTE   W02
 BYTE   VOL   1*song09_mvl/mxv
 BYTE   W01
 BYTE   VOL   1*song09_mvl/mxv
 BYTE   W02
 BYTE   VOL   1*song09_mvl/mxv
 BYTE   W01
 BYTE   VOL   1*song09_mvl/mxv
 BYTE   W02
 BYTE   VOL   1*song09_mvl/mxv
 BYTE   W01
 BYTE   VOL   1*song09_mvl/mxv
 BYTE   W02
 BYTE   VOL   1*song09_mvl/mxv
 BYTE   W03
 BYTE   VOL   2*song09_mvl/mxv
 BYTE   W01
 BYTE   VOL   2*song09_mvl/mxv
 BYTE   W02
 BYTE   VOL   3*song09_mvl/mxv
 BYTE   W01
 BYTE   VOL   3*song09_mvl/mxv
 BYTE   W02
 BYTE   VOL   3*song09_mvl/mxv
 BYTE   W01
 BYTE   VOL   3*song09_mvl/mxv
 BYTE   W02
 BYTE   VOL   3*song09_mvl/mxv
 BYTE   W01
 BYTE   VOL   4*song09_mvl/mxv
 BYTE   W03
 BYTE   VOL   4*song09_mvl/mxv
 BYTE   W02
 BYTE   VOL   4*song09_mvl/mxv
 BYTE   W01
 BYTE   VOL   5*song09_mvl/mxv
 BYTE   W02
 BYTE   VOL   5*song09_mvl/mxv
 BYTE   W01
 BYTE   VOL   5*song09_mvl/mxv
 BYTE   W02
 BYTE   VOL   5*song09_mvl/mxv
 BYTE   W01
 BYTE   VOL   6*song09_mvl/mxv
 BYTE   W02
 BYTE   VOL   6*song09_mvl/mxv
 BYTE   W01
 BYTE   VOL   6*song09_mvl/mxv
 BYTE   W02
 BYTE   VOL   6*song09_mvl/mxv
 BYTE   W03
 BYTE   VOL   7*song09_mvl/mxv
 BYTE   W01
 BYTE   VOL   8*song09_mvl/mxv
 BYTE   W02
 BYTE   VOL   8*song09_mvl/mxv
 BYTE   W01
 BYTE   VOL   8*song09_mvl/mxv
 BYTE   W02
 BYTE   VOL   8*song09_mvl/mxv
 BYTE   W01
 BYTE   VOL   9*song09_mvl/mxv
 BYTE   W02
 BYTE   VOL   10*song09_mvl/mxv
 BYTE   W01
 BYTE   VOL   10*song09_mvl/mxv
 BYTE   W03
 BYTE   VOL   10*song09_mvl/mxv
 BYTE   W02
 BYTE   VOL   10*song09_mvl/mxv
 BYTE   W01
 BYTE   VOL   11*song09_mvl/mxv
 BYTE   W02
 BYTE   VOL   11*song09_mvl/mxv
 BYTE   W01
 BYTE   VOL   11*song09_mvl/mxv
 BYTE   W02
 BYTE   VOL   11*song09_mvl/mxv
 BYTE   W01
 BYTE   VOL   12*song09_mvl/mxv
 BYTE   W02
 BYTE   VOL   13*song09_mvl/mxv
 BYTE   W01
 BYTE   VOL   13*song09_mvl/mxv
 BYTE   W02
//  #05 //004   ----------------------------------------
 BYTE   VOL   13*song09_mvl/mxv
 BYTE   W01
 BYTE   VOL   14*song09_mvl/mxv
 BYTE   W02
 BYTE   VOL   14*song09_mvl/mxv
 BYTE   W01
 BYTE   VOL   15*song09_mvl/mxv
 BYTE   W02
 BYTE   VOL   15*song09_mvl/mxv
 BYTE   W01
 BYTE   VOL   15*song09_mvl/mxv
 BYTE   W02
 BYTE   VOL   16*song09_mvl/mxv
 BYTE   W01
 BYTE   VOL   17*song09_mvl/mxv
 BYTE   W02
 BYTE   VOL   17*song09_mvl/mxv
 BYTE   W01
 BYTE   PEND 
//  #05 //005   ----------------------------------------
 BYTE   PATT
  POIN2 Label_01464FEC
//  #05 //006   ----------------------------------------
 BYTE   PATT
  POIN2 Label_01465042
//  #05 //007   ----------------------------------------
 BYTE   EOT
 BYTE   An2
 BYTE   VOL   0*song09_mvl/mxv
 BYTE   W01
Label_01465113:
 BYTE   TIE  Bn2  v100
 BYTE   W02
 BYTE   VOL   0*song09_mvl/mxv
 BYTE   W01
 BYTE   VOL   0*song09_mvl/mxv
 BYTE   W02
 BYTE   VOL   0*song09_mvl/mxv
 BYTE   W01
 BYTE   VOL   0*song09_mvl/mxv
 BYTE   W03
 BYTE   VOL   0*song09_mvl/mxv
 BYTE   W02
 BYTE   VOL   0*song09_mvl/mxv
 BYTE   W01
 BYTE   VOL   1*song09_mvl/mxv
 BYTE   W02
 BYTE   VOL   1*song09_mvl/mxv
 BYTE   W01
 BYTE   VOL   1*song09_mvl/mxv
 BYTE   W02
 BYTE   VOL   1*song09_mvl/mxv
 BYTE   W01
 BYTE   VOL   1*song09_mvl/mxv
 BYTE   W02
 BYTE   VOL   1*song09_mvl/mxv
 BYTE   W01
 BYTE   VOL   1*song09_mvl/mxv
 BYTE   W02
 BYTE   VOL   1*song09_mvl/mxv
 BYTE   W03
 BYTE   VOL   2*song09_mvl/mxv
 BYTE   W01
 BYTE   VOL   2*song09_mvl/mxv
 BYTE   W02
 BYTE   VOL   3*song09_mvl/mxv
 BYTE   W01
 BYTE   VOL   3*song09_mvl/mxv
 BYTE   W02
 BYTE   VOL   3*song09_mvl/mxv
 BYTE   W01
 BYTE   VOL   3*song09_mvl/mxv
 BYTE   W02
 BYTE   VOL   3*song09_mvl/mxv
 BYTE   W01
 BYTE   VOL   4*song09_mvl/mxv
 BYTE   W03
 BYTE   VOL   4*song09_mvl/mxv
 BYTE   W02
 BYTE   VOL   4*song09_mvl/mxv
 BYTE   W01
 BYTE   VOL   5*song09_mvl/mxv
 BYTE   W02
 BYTE   VOL   5*song09_mvl/mxv
 BYTE   W01
 BYTE   VOL   5*song09_mvl/mxv
 BYTE   W02
 BYTE   VOL   5*song09_mvl/mxv
 BYTE   W01
 BYTE   VOL   6*song09_mvl/mxv
 BYTE   W02
 BYTE   VOL   6*song09_mvl/mxv
 BYTE   W01
 BYTE   VOL   6*song09_mvl/mxv
 BYTE   W02
 BYTE   VOL   6*song09_mvl/mxv
 BYTE   W03
 BYTE   VOL   7*song09_mvl/mxv
 BYTE   W01
 BYTE   VOL   8*song09_mvl/mxv
 BYTE   W02
 BYTE   VOL   8*song09_mvl/mxv
 BYTE   W01
 BYTE   VOL   8*song09_mvl/mxv
 BYTE   W02
 BYTE   VOL   8*song09_mvl/mxv
 BYTE   W01
 BYTE   VOL   9*song09_mvl/mxv
 BYTE   W02
 BYTE   VOL   10*song09_mvl/mxv
 BYTE   W01
 BYTE   VOL   10*song09_mvl/mxv
 BYTE   W03
 BYTE   VOL   10*song09_mvl/mxv
 BYTE   W02
 BYTE   VOL   10*song09_mvl/mxv
 BYTE   W01
 BYTE   VOL   11*song09_mvl/mxv
 BYTE   W02
 BYTE   VOL   11*song09_mvl/mxv
 BYTE   W01
 BYTE   VOL   11*song09_mvl/mxv
 BYTE   W02
 BYTE   VOL   11*song09_mvl/mxv
 BYTE   W01
 BYTE   VOL   12*song09_mvl/mxv
 BYTE   W02
 BYTE   VOL   13*song09_mvl/mxv
 BYTE   W01
 BYTE   VOL   13*song09_mvl/mxv
 BYTE   W02
 BYTE   VOL   13*song09_mvl/mxv
 BYTE   W01
 BYTE   VOL   14*song09_mvl/mxv
 BYTE   W02
 BYTE   VOL   14*song09_mvl/mxv
 BYTE   W01
 BYTE   VOL   15*song09_mvl/mxv
 BYTE   W02
 BYTE   VOL   15*song09_mvl/mxv
 BYTE   W01
 BYTE   VOL   15*song09_mvl/mxv
 BYTE   W02
 BYTE   VOL   16*song09_mvl/mxv
 BYTE   W01
 BYTE   VOL   17*song09_mvl/mxv
 BYTE   W02
//  #05 //008   ----------------------------------------
 BYTE   VOL   17*song09_mvl/mxv
 BYTE   W01
 BYTE   PEND 
//  #05 //009   ----------------------------------------
 BYTE   PATT
  POIN2 Label_01464FEC
//  #05 //010   ----------------------------------------
 BYTE   PATT
  POIN2 Label_01465042
//  #05 //011   ----------------------------------------
 BYTE   EOT
 BYTE   Bn2
 BYTE   VOL   0*song09_mvl/mxv
 BYTE   W01
//  #05 //012   ----------------------------------------
 BYTE   PATT
  POIN2 Label_0146508A
//  #05 //013   ----------------------------------------
 BYTE   PATT
  POIN2 Label_01464FEC
//  #05 //014   ----------------------------------------
 BYTE   PATT
  POIN2 Label_01465042
//  #05 //015   ----------------------------------------
 BYTE   EOT
 BYTE   An2
 BYTE   W01
Label_014651AE:
 BYTE   TIE  Gn2  v100
 BYTE   W01
 BYTE   VOL   8*song09_mvl/mxv
 BYTE   W02
 BYTE   VOL   9*song09_mvl/mxv
 BYTE   W01
 BYTE   VOL   10*song09_mvl/mxv
 BYTE   W02
 BYTE   VOL   10*song09_mvl/mxv
 BYTE   W01
 BYTE   VOL   11*song09_mvl/mxv
 BYTE   W02
 BYTE   VOL   11*song09_mvl/mxv
 BYTE   W01
 BYTE   VOL   13*song09_mvl/mxv
 BYTE   W03
 BYTE   VOL   13*song09_mvl/mxv
 BYTE   W02
 BYTE   VOL   14*song09_mvl/mxv
 BYTE   W03
 BYTE   VOL   15*song09_mvl/mxv
 BYTE   W01
 BYTE   VOL   15*song09_mvl/mxv
 BYTE   W02
 BYTE   VOL   16*song09_mvl/mxv
 BYTE   W01
 BYTE   VOL   17*song09_mvl/mxv
 BYTE   W02
 BYTE   VOL   18*song09_mvl/mxv
 BYTE   W03
 BYTE   VOL   19*song09_mvl/mxv
 BYTE   W01
 BYTE   VOL   19*song09_mvl/mxv
 BYTE   W02
 BYTE   VOL   20*song09_mvl/mxv
 BYTE   W01
 BYTE   VOL   21*song09_mvl/mxv
 BYTE   W02
 BYTE   VOL   22*song09_mvl/mxv
 BYTE   W03
 BYTE   VOL   22*song09_mvl/mxv
 BYTE   W03
 BYTE   VOL   25*song09_mvl/mxv
 BYTE   W01
 BYTE   VOL   26*song09_mvl/mxv
 BYTE   W02
 BYTE   VOL   27*song09_mvl/mxv
 BYTE   W01
 BYTE   VOL   27*song09_mvl/mxv
 BYTE   W02
 BYTE   VOL   28*song09_mvl/mxv
 BYTE   W01
 BYTE   VOL   28*song09_mvl/mxv
 BYTE   W02
 BYTE   VOL   29*song09_mvl/mxv
 BYTE   W01
 BYTE   VOL   28*song09_mvl/mxv
 BYTE   W03
 BYTE   VOL   29*song09_mvl/mxv
 BYTE   W02
 BYTE   VOL   30*song09_mvl/mxv
 BYTE   W01
 BYTE   VOL   30*song09_mvl/mxv
 BYTE   W02
 BYTE   VOL   31*song09_mvl/mxv
 BYTE   W01
 BYTE   VOL   32*song09_mvl/mxv
 BYTE   W11
 BYTE   VOL   31*song09_mvl/mxv
 BYTE   W03
 BYTE   PEND 
Label_014651F8:
 BYTE   VOL   30*song09_mvl/mxv
 BYTE   W09
 BYTE   VOL   30*song09_mvl/mxv
 BYTE   W03
 BYTE   VOL   29*song09_mvl/mxv
 BYTE   W01
 BYTE   VOL   29*song09_mvl/mxv
 BYTE   W02
 BYTE   VOL   28*song09_mvl/mxv
 BYTE   W03
 BYTE   VOL   28*song09_mvl/mxv
 BYTE   W01
 BYTE   VOL   27*song09_mvl/mxv
 BYTE   W05
//  #05 //016   ----------------------------------------
Label_01465207:
 BYTE   W06
 BYTE   VOL   27*song09_mvl/mxv
 BYTE   W01
 BYTE   VOL   26*song09_mvl/mxv
 BYTE   W03
 BYTE   VOL   25*song09_mvl/mxv
 BYTE   W03
 BYTE   VOL   24*song09_mvl/mxv
 BYTE   W02
 BYTE   VOL   23*song09_mvl/mxv
 BYTE   W01
 BYTE   VOL   23*song09_mvl/mxv
 BYTE   W03
 BYTE   VOL   22*song09_mvl/mxv
 BYTE   W02
 BYTE   VOL   22*song09_mvl/mxv
 BYTE   W01
 BYTE   VOL   20*song09_mvl/mxv
 BYTE   W03
 BYTE   VOL   19*song09_mvl/mxv
 BYTE   W02
 BYTE   VOL   18*song09_mvl/mxv
 BYTE   W01
 BYTE   VOL   17*song09_mvl/mxv
 BYTE   W03
 BYTE   VOL   14*song09_mvl/mxv
 BYTE   W03
 BYTE   VOL   13*song09_mvl/mxv
 BYTE   W02
 BYTE   VOL   12*song09_mvl/mxv
 BYTE   W01
 BYTE   VOL   11*song09_mvl/mxv
 BYTE   W02
 BYTE   VOL   10*song09_mvl/mxv
 BYTE   W01
 BYTE   VOL   10*song09_mvl/mxv
 BYTE   W07
 BYTE   PEND 
 BYTE   EOT
 BYTE   Gn2
 BYTE   W01
 BYTE   TIE  Fs2  v100
 BYTE   W01
 BYTE   VOL   8*song09_mvl/mxv
 BYTE   W02
 BYTE   VOL   9*song09_mvl/mxv
 BYTE   W01
 BYTE   VOL   10*song09_mvl/mxv
 BYTE   W02
 BYTE   VOL   10*song09_mvl/mxv
 BYTE   W01
 BYTE   VOL   11*song09_mvl/mxv
 BYTE   W02
 BYTE   VOL   11*song09_mvl/mxv
 BYTE   W01
 BYTE   VOL   13*song09_mvl/mxv
 BYTE   W03
 BYTE   VOL   13*song09_mvl/mxv
 BYTE   W02
 BYTE   VOL   14*song09_mvl/mxv
 BYTE   W03
 BYTE   VOL   15*song09_mvl/mxv
 BYTE   W01
 BYTE   VOL   15*song09_mvl/mxv
 BYTE   W02
 BYTE   VOL   16*song09_mvl/mxv
 BYTE   W01
 BYTE   VOL   17*song09_mvl/mxv
 BYTE   W02
 BYTE   VOL   18*song09_mvl/mxv
 BYTE   W03
 BYTE   VOL   19*song09_mvl/mxv
 BYTE   W01
 BYTE   VOL   19*song09_mvl/mxv
 BYTE   W02
 BYTE   VOL   20*song09_mvl/mxv
 BYTE   W01
 BYTE   VOL   21*song09_mvl/mxv
 BYTE   W02
 BYTE   VOL   22*song09_mvl/mxv
 BYTE   W03
 BYTE   VOL   22*song09_mvl/mxv
 BYTE   W03
 BYTE   VOL   25*song09_mvl/mxv
 BYTE   W01
 BYTE   VOL   26*song09_mvl/mxv
 BYTE   W02
 BYTE   VOL   27*song09_mvl/mxv
 BYTE   W01
 BYTE   VOL   27*song09_mvl/mxv
 BYTE   W02
 BYTE   VOL   28*song09_mvl/mxv
 BYTE   W01
 BYTE   VOL   28*song09_mvl/mxv
 BYTE   W02
//  #05 //017   ----------------------------------------
Label_0146526A:
 BYTE   VOL   29*song09_mvl/mxv
 BYTE   W01
 BYTE   VOL   28*song09_mvl/mxv
 BYTE   W03
 BYTE   VOL   29*song09_mvl/mxv
 BYTE   W02
 BYTE   VOL   30*song09_mvl/mxv
 BYTE   W01
 BYTE   VOL   30*song09_mvl/mxv
 BYTE   W02
 BYTE   VOL   31*song09_mvl/mxv
 BYTE   W01
 BYTE   VOL   32*song09_mvl/mxv
 BYTE   W11
 BYTE   VOL   31*song09_mvl/mxv
 BYTE   W03
 BYTE   VOL   30*song09_mvl/mxv
 BYTE   W09
 BYTE   VOL   30*song09_mvl/mxv
 BYTE   W03
 BYTE   VOL   29*song09_mvl/mxv
 BYTE   W01
 BYTE   VOL   29*song09_mvl/mxv
 BYTE   W02
 BYTE   VOL   28*song09_mvl/mxv
 BYTE   W03
 BYTE   VOL   28*song09_mvl/mxv
 BYTE   W01
 BYTE   VOL   27*song09_mvl/mxv
 BYTE   W11
 BYTE   VOL   27*song09_mvl/mxv
 BYTE   W01
 BYTE   VOL   26*song09_mvl/mxv
 BYTE   W03
 BYTE   VOL   25*song09_mvl/mxv
 BYTE   W03
 BYTE   VOL   24*song09_mvl/mxv
 BYTE   W02
 BYTE   VOL   23*song09_mvl/mxv
 BYTE   W01
 BYTE   VOL   23*song09_mvl/mxv
 BYTE   W03
 BYTE   VOL   22*song09_mvl/mxv
 BYTE   W02
 BYTE   VOL   22*song09_mvl/mxv
 BYTE   W01
 BYTE   VOL   20*song09_mvl/mxv
 BYTE   W03
 BYTE   VOL   19*song09_mvl/mxv
 BYTE   W02
 BYTE   VOL   18*song09_mvl/mxv
 BYTE   W01
 BYTE   VOL   17*song09_mvl/mxv
 BYTE   W03
 BYTE   VOL   14*song09_mvl/mxv
 BYTE   W03
 BYTE   VOL   13*song09_mvl/mxv
 BYTE   W02
 BYTE   VOL   12*song09_mvl/mxv
 BYTE   W01
 BYTE   VOL   11*song09_mvl/mxv
 BYTE   W02
 BYTE   VOL   10*song09_mvl/mxv
 BYTE   W01
 BYTE   VOL   10*song09_mvl/mxv
 BYTE   W07
 BYTE   PEND 
 BYTE   EOT
 BYTE   Fs2
 BYTE   W01
//  #05 //018   ----------------------------------------
Label_014652B1:
 BYTE   TIE  Gn2  v100
 BYTE   W01
 BYTE   VOL   8*song09_mvl/mxv
 BYTE   W02
 BYTE   VOL   9*song09_mvl/mxv
 BYTE   W01
 BYTE   VOL   10*song09_mvl/mxv
 BYTE   W02
 BYTE   VOL   10*song09_mvl/mxv
 BYTE   W01
 BYTE   VOL   11*song09_mvl/mxv
 BYTE   W02
 BYTE   VOL   11*song09_mvl/mxv
 BYTE   W01
 BYTE   VOL   13*song09_mvl/mxv
 BYTE   W03
 BYTE   VOL   13*song09_mvl/mxv
 BYTE   W02
 BYTE   VOL   14*song09_mvl/mxv
 BYTE   W03
 BYTE   VOL   15*song09_mvl/mxv
 BYTE   W01
 BYTE   VOL   15*song09_mvl/mxv
 BYTE   W02
 BYTE   VOL   16*song09_mvl/mxv
 BYTE   W01
 BYTE   VOL   17*song09_mvl/mxv
 BYTE   W02
 BYTE   VOL   18*song09_mvl/mxv
 BYTE   W03
 BYTE   VOL   19*song09_mvl/mxv
 BYTE   W01
 BYTE   VOL   19*song09_mvl/mxv
 BYTE   W02
 BYTE   VOL   20*song09_mvl/mxv
 BYTE   W01
 BYTE   VOL   21*song09_mvl/mxv
 BYTE   W02
 BYTE   VOL   22*song09_mvl/mxv
 BYTE   W03
 BYTE   VOL   22*song09_mvl/mxv
 BYTE   W03
 BYTE   VOL   25*song09_mvl/mxv
 BYTE   W01
 BYTE   VOL   26*song09_mvl/mxv
 BYTE   W02
 BYTE   VOL   27*song09_mvl/mxv
 BYTE   W01
 BYTE   VOL   27*song09_mvl/mxv
 BYTE   W02
 BYTE   VOL   28*song09_mvl/mxv
 BYTE   W01
 BYTE   VOL   28*song09_mvl/mxv
 BYTE   W02
 BYTE   VOL   29*song09_mvl/mxv
 BYTE   W01
 BYTE   VOL   28*song09_mvl/mxv
 BYTE   W03
 BYTE   VOL   29*song09_mvl/mxv
 BYTE   W02
 BYTE   VOL   30*song09_mvl/mxv
 BYTE   W01
 BYTE   VOL   30*song09_mvl/mxv
 BYTE   W02
 BYTE   VOL   31*song09_mvl/mxv
 BYTE   W01
 BYTE   VOL   32*song09_mvl/mxv
 BYTE   W11
 BYTE   VOL   31*song09_mvl/mxv
 BYTE   W03
 BYTE   VOL   30*song09_mvl/mxv
 BYTE   W09
 BYTE   VOL   30*song09_mvl/mxv
 BYTE   W03
 BYTE   VOL   29*song09_mvl/mxv
 BYTE   W01
 BYTE   VOL   29*song09_mvl/mxv
 BYTE   W02
 BYTE   VOL   28*song09_mvl/mxv
 BYTE   W03
 BYTE   VOL   28*song09_mvl/mxv
 BYTE   W01
 BYTE   VOL   27*song09_mvl/mxv
 BYTE   W05
 BYTE   PEND 
//  #05 //019   ----------------------------------------
 BYTE   PATT
  POIN2 Label_01465207
//  #05 //020   ----------------------------------------
 BYTE   EOT
 BYTE   Gn2
 BYTE   W01
 BYTE   TIE  Fs2  v100
 BYTE   W01
 BYTE   VOL   8*song09_mvl/mxv
 BYTE   W02
 BYTE   VOL   9*song09_mvl/mxv
 BYTE   W01
 BYTE   VOL   10*song09_mvl/mxv
 BYTE   W02
 BYTE   VOL   10*song09_mvl/mxv
 BYTE   W01
 BYTE   VOL   11*song09_mvl/mxv
 BYTE   W02
 BYTE   VOL   11*song09_mvl/mxv
 BYTE   W01
 BYTE   VOL   13*song09_mvl/mxv
 BYTE   W03
 BYTE   VOL   13*song09_mvl/mxv
 BYTE   W02
 BYTE   VOL   14*song09_mvl/mxv
 BYTE   W03
 BYTE   VOL   15*song09_mvl/mxv
 BYTE   W01
 BYTE   VOL   15*song09_mvl/mxv
 BYTE   W02
 BYTE   VOL   16*song09_mvl/mxv
 BYTE   W01
 BYTE   VOL   17*song09_mvl/mxv
 BYTE   W02
 BYTE   VOL   18*song09_mvl/mxv
 BYTE   W03
 BYTE   VOL   19*song09_mvl/mxv
 BYTE   W01
 BYTE   VOL   19*song09_mvl/mxv
 BYTE   W02
 BYTE   VOL   20*song09_mvl/mxv
 BYTE   W01
 BYTE   VOL   21*song09_mvl/mxv
 BYTE   W02
 BYTE   VOL   22*song09_mvl/mxv
 BYTE   W03
 BYTE   VOL   22*song09_mvl/mxv
 BYTE   W03
 BYTE   VOL   25*song09_mvl/mxv
 BYTE   W01
 BYTE   VOL   26*song09_mvl/mxv
 BYTE   W02
 BYTE   VOL   27*song09_mvl/mxv
 BYTE   W01
 BYTE   VOL   27*song09_mvl/mxv
 BYTE   W02
 BYTE   VOL   28*song09_mvl/mxv
 BYTE   W01
 BYTE   VOL   28*song09_mvl/mxv
 BYTE   W02
//  #05 //021   ----------------------------------------
 BYTE   PATT
  POIN2 Label_0146526A
//  #05 //022   ----------------------------------------
 BYTE   EOT
 BYTE   Fs2
 BYTE   W01
//  #05 //023   ----------------------------------------
 BYTE   PATT
  POIN2 Label_014652B1
//  #05 //024   ----------------------------------------
 BYTE   PATT
  POIN2 Label_01465207
//  #05 //025   ----------------------------------------
 BYTE   EOT
 BYTE   Gn2
 BYTE   W01
 BYTE   TIE  Fs2  v100
 BYTE   W01
 BYTE   VOL   8*song09_mvl/mxv
 BYTE   W02
 BYTE   VOL   9*song09_mvl/mxv
 BYTE   W01
 BYTE   VOL   10*song09_mvl/mxv
 BYTE   W02
 BYTE   VOL   10*song09_mvl/mxv
 BYTE   W01
 BYTE   VOL   11*song09_mvl/mxv
 BYTE   W02
 BYTE   VOL   11*song09_mvl/mxv
 BYTE   W01
 BYTE   VOL   13*song09_mvl/mxv
 BYTE   W03
 BYTE   VOL   13*song09_mvl/mxv
 BYTE   W02
 BYTE   VOL   14*song09_mvl/mxv
 BYTE   W03
 BYTE   VOL   15*song09_mvl/mxv
 BYTE   W01
 BYTE   VOL   15*song09_mvl/mxv
 BYTE   W02
 BYTE   VOL   16*song09_mvl/mxv
 BYTE   W01
 BYTE   VOL   17*song09_mvl/mxv
 BYTE   W02
 BYTE   VOL   18*song09_mvl/mxv
 BYTE   W03
 BYTE   VOL   19*song09_mvl/mxv
 BYTE   W01
 BYTE   VOL   19*song09_mvl/mxv
 BYTE   W02
 BYTE   VOL   20*song09_mvl/mxv
 BYTE   W01
 BYTE   VOL   21*song09_mvl/mxv
 BYTE   W02
 BYTE   VOL   22*song09_mvl/mxv
 BYTE   W03
 BYTE   VOL   22*song09_mvl/mxv
 BYTE   W03
 BYTE   VOL   25*song09_mvl/mxv
 BYTE   W01
 BYTE   VOL   26*song09_mvl/mxv
 BYTE   W02
 BYTE   VOL   27*song09_mvl/mxv
 BYTE   W01
 BYTE   VOL   27*song09_mvl/mxv
 BYTE   W02
 BYTE   VOL   28*song09_mvl/mxv
 BYTE   W01
 BYTE   VOL   28*song09_mvl/mxv
 BYTE   W02
//  #05 //026   ----------------------------------------
 BYTE   PATT
  POIN2 Label_0146526A
//  #05 //027   ----------------------------------------
 BYTE   EOT
 BYTE   Fs2
 BYTE   W01
//  #05 //028   ----------------------------------------
 BYTE   PATT
  POIN2 Label_014652B1
//  #05 //029   ----------------------------------------
 BYTE   PATT
  POIN2 Label_01465207
//  #05 //030   ----------------------------------------
 BYTE   EOT
 BYTE   Gn2
 BYTE   W01
 BYTE   TIE  Fs2  v100
 BYTE   W01
 BYTE   VOL   8*song09_mvl/mxv
 BYTE   W02
 BYTE   VOL   9*song09_mvl/mxv
 BYTE   W01
 BYTE   VOL   10*song09_mvl/mxv
 BYTE   W02
 BYTE   VOL   10*song09_mvl/mxv
 BYTE   W01
 BYTE   VOL   11*song09_mvl/mxv
 BYTE   W02
 BYTE   VOL   11*song09_mvl/mxv
 BYTE   W01
 BYTE   VOL   13*song09_mvl/mxv
 BYTE   W03
 BYTE   VOL   13*song09_mvl/mxv
 BYTE   W02
 BYTE   VOL   14*song09_mvl/mxv
 BYTE   W03
 BYTE   VOL   15*song09_mvl/mxv
 BYTE   W01
 BYTE   VOL   15*song09_mvl/mxv
 BYTE   W02
 BYTE   VOL   16*song09_mvl/mxv
 BYTE   W01
 BYTE   VOL   17*song09_mvl/mxv
 BYTE   W02
 BYTE   VOL   18*song09_mvl/mxv
 BYTE   W03
 BYTE   VOL   19*song09_mvl/mxv
 BYTE   W01
 BYTE   VOL   19*song09_mvl/mxv
 BYTE   W02
 BYTE   VOL   20*song09_mvl/mxv
 BYTE   W01
 BYTE   VOL   21*song09_mvl/mxv
 BYTE   W02
 BYTE   VOL   22*song09_mvl/mxv
 BYTE   W03
 BYTE   VOL   22*song09_mvl/mxv
 BYTE   W03
 BYTE   VOL   25*song09_mvl/mxv
 BYTE   W01
 BYTE   VOL   26*song09_mvl/mxv
 BYTE   W02
 BYTE   VOL   27*song09_mvl/mxv
 BYTE   W01
 BYTE   VOL   27*song09_mvl/mxv
 BYTE   W02
 BYTE   VOL   28*song09_mvl/mxv
 BYTE   W01
 BYTE   VOL   28*song09_mvl/mxv
 BYTE   W02
//  #05 //031   ----------------------------------------
 BYTE   PATT
  POIN2 Label_0146526A
//  #05 //032   ----------------------------------------
 BYTE   EOT
 BYTE   Fs2
 BYTE   W01
Label_014653EE:
 BYTE   TIE  En3  v100
 BYTE   W01
 BYTE   VOL   8*song09_mvl/mxv
 BYTE   W02
 BYTE   VOL   9*song09_mvl/mxv
 BYTE   W01
 BYTE   VOL   10*song09_mvl/mxv
 BYTE   W02
 BYTE   VOL   10*song09_mvl/mxv
 BYTE   W01
 BYTE   VOL   11*song09_mvl/mxv
 BYTE   W02
 BYTE   VOL   11*song09_mvl/mxv
 BYTE   W01
 BYTE   VOL   13*song09_mvl/mxv
 BYTE   W03
 BYTE   VOL   13*song09_mvl/mxv
 BYTE   W02
 BYTE   VOL   14*song09_mvl/mxv
 BYTE   W03
 BYTE   VOL   15*song09_mvl/mxv
 BYTE   W01
 BYTE   VOL   15*song09_mvl/mxv
 BYTE   W02
 BYTE   VOL   16*song09_mvl/mxv
 BYTE   W01
 BYTE   VOL   17*song09_mvl/mxv
 BYTE   W02
 BYTE   VOL   18*song09_mvl/mxv
 BYTE   W03
 BYTE   VOL   19*song09_mvl/mxv
 BYTE   W01
 BYTE   VOL   19*song09_mvl/mxv
 BYTE   W02
 BYTE   VOL   20*song09_mvl/mxv
 BYTE   W01
 BYTE   VOL   21*song09_mvl/mxv
 BYTE   W02
 BYTE   VOL   22*song09_mvl/mxv
 BYTE   W03
 BYTE   VOL   22*song09_mvl/mxv
 BYTE   W03
 BYTE   VOL   25*song09_mvl/mxv
 BYTE   W01
 BYTE   VOL   26*song09_mvl/mxv
 BYTE   W02
 BYTE   VOL   27*song09_mvl/mxv
 BYTE   W01
 BYTE   VOL   27*song09_mvl/mxv
 BYTE   W02
 BYTE   VOL   28*song09_mvl/mxv
 BYTE   W01
 BYTE   VOL   28*song09_mvl/mxv
 BYTE   W02
 BYTE   VOL   29*song09_mvl/mxv
 BYTE   W01
 BYTE   VOL   28*song09_mvl/mxv
 BYTE   W03
 BYTE   VOL   29*song09_mvl/mxv
 BYTE   W02
 BYTE   VOL   30*song09_mvl/mxv
 BYTE   W01
 BYTE   VOL   30*song09_mvl/mxv
 BYTE   W02
 BYTE   VOL   31*song09_mvl/mxv
 BYTE   W01
 BYTE   VOL   32*song09_mvl/mxv
 BYTE   W11
 BYTE   VOL   31*song09_mvl/mxv
 BYTE   W03
 BYTE   VOL   30*song09_mvl/mxv
 BYTE   W09
 BYTE   VOL   30*song09_mvl/mxv
 BYTE   W03
 BYTE   VOL   29*song09_mvl/mxv
 BYTE   W01
 BYTE   VOL   29*song09_mvl/mxv
 BYTE   W02
 BYTE   VOL   28*song09_mvl/mxv
 BYTE   W03
 BYTE   VOL   28*song09_mvl/mxv
 BYTE   W01
 BYTE   VOL   27*song09_mvl/mxv
 BYTE   W05
 BYTE   PEND 
//  #05 //033   ----------------------------------------
 BYTE   PATT
  POIN2 Label_01465207
//  #05 //034   ----------------------------------------
 BYTE   EOT
 BYTE   En3
 BYTE   W01
 BYTE   N68  Dn3  v100
 BYTE   W01
 BYTE   VOL   8*song09_mvl/mxv
 BYTE   W02
 BYTE   VOL   9*song09_mvl/mxv
 BYTE   W01
 BYTE   VOL   10*song09_mvl/mxv
 BYTE   W02
 BYTE   VOL   10*song09_mvl/mxv
 BYTE   W01
 BYTE   VOL   11*song09_mvl/mxv
 BYTE   W02
 BYTE   VOL   11*song09_mvl/mxv
 BYTE   W01
 BYTE   VOL   13*song09_mvl/mxv
 BYTE   W03
 BYTE   VOL   13*song09_mvl/mxv
 BYTE   W02
 BYTE   VOL   14*song09_mvl/mxv
 BYTE   W03
 BYTE   VOL   15*song09_mvl/mxv
 BYTE   W01
 BYTE   VOL   15*song09_mvl/mxv
 BYTE   W02
 BYTE   VOL   16*song09_mvl/mxv
 BYTE   W01
 BYTE   VOL   17*song09_mvl/mxv
 BYTE   W02
 BYTE   VOL   18*song09_mvl/mxv
 BYTE   W03
 BYTE   VOL   19*song09_mvl/mxv
 BYTE   W01
 BYTE   VOL   19*song09_mvl/mxv
 BYTE   W02
 BYTE   VOL   20*song09_mvl/mxv
 BYTE   W01
 BYTE   VOL   21*song09_mvl/mxv
 BYTE   W02
 BYTE   VOL   22*song09_mvl/mxv
 BYTE   W03
 BYTE   VOL   22*song09_mvl/mxv
 BYTE   W03
 BYTE   VOL   25*song09_mvl/mxv
 BYTE   W01
 BYTE   VOL   26*song09_mvl/mxv
 BYTE   W02
 BYTE   VOL   27*song09_mvl/mxv
 BYTE   W01
 BYTE   VOL   27*song09_mvl/mxv
 BYTE   W02
 BYTE   VOL   28*song09_mvl/mxv
 BYTE   W01
 BYTE   VOL   28*song09_mvl/mxv
 BYTE   W02
Label_01465487:
 BYTE   VOL   29*song09_mvl/mxv
 BYTE   W01
 BYTE   VOL   28*song09_mvl/mxv
 BYTE   W03
 BYTE   VOL   29*song09_mvl/mxv
 BYTE   W02
 BYTE   VOL   30*song09_mvl/mxv
 BYTE   W01
 BYTE   VOL   30*song09_mvl/mxv
 BYTE   W02
 BYTE   VOL   31*song09_mvl/mxv
 BYTE   W01
 BYTE   VOL   32*song09_mvl/mxv
 BYTE   W11
 BYTE   VOL   31*song09_mvl/mxv
 BYTE   W03
 BYTE   VOL   30*song09_mvl/mxv
 BYTE   N68  Fs3  v100
 BYTE   W09
 BYTE   VOL   30*song09_mvl/mxv
 BYTE   W03
 BYTE   VOL   29*song09_mvl/mxv
 BYTE   W01
 BYTE   VOL   29*song09_mvl/mxv
 BYTE   W02
 BYTE   VOL   28*song09_mvl/mxv
 BYTE   W03
 BYTE   VOL   28*song09_mvl/mxv
 BYTE   W01
 BYTE   VOL   27*song09_mvl/mxv
 BYTE   W11
//  #05 //035   ----------------------------------------
 BYTE   VOL   27*song09_mvl/mxv
 BYTE   W01
 BYTE   VOL   26*song09_mvl/mxv
 BYTE   W03
 BYTE   VOL   25*song09_mvl/mxv
 BYTE   W03
 BYTE   VOL   24*song09_mvl/mxv
 BYTE   W02
 BYTE   VOL   23*song09_mvl/mxv
 BYTE   W01
 BYTE   VOL   23*song09_mvl/mxv
 BYTE   W03
 BYTE   VOL   22*song09_mvl/mxv
 BYTE   W02
 BYTE   VOL   22*song09_mvl/mxv
 BYTE   W01
 BYTE   VOL   20*song09_mvl/mxv
 BYTE   W03
 BYTE   VOL   19*song09_mvl/mxv
 BYTE   W02
 BYTE   VOL   18*song09_mvl/mxv
 BYTE   W01
 BYTE   VOL   17*song09_mvl/mxv
 BYTE   W03
 BYTE   VOL   14*song09_mvl/mxv
 BYTE   W03
 BYTE   VOL   13*song09_mvl/mxv
 BYTE   W02
 BYTE   VOL   12*song09_mvl/mxv
 BYTE   W01
 BYTE   VOL   11*song09_mvl/mxv
 BYTE   W02
 BYTE   VOL   10*song09_mvl/mxv
 BYTE   W01
 BYTE   VOL   10*song09_mvl/mxv
 BYTE   W08
 BYTE   PEND 
//  #05 //036   ----------------------------------------
 BYTE   PATT
  POIN2 Label_014653EE
//  #05 //037   ----------------------------------------
 BYTE   PATT
  POIN2 Label_01465207
//  #05 //038   ----------------------------------------
 BYTE   EOT
 BYTE   En3
 BYTE   W01
 BYTE   N68  Dn3  v100
 BYTE   W01
 BYTE   VOL   8*song09_mvl/mxv
 BYTE   W02
 BYTE   VOL   9*song09_mvl/mxv
 BYTE   W01
 BYTE   VOL   10*song09_mvl/mxv
 BYTE   W02
 BYTE   VOL   10*song09_mvl/mxv
 BYTE   W01
 BYTE   VOL   11*song09_mvl/mxv
 BYTE   W02
 BYTE   VOL   11*song09_mvl/mxv
 BYTE   W01
 BYTE   VOL   13*song09_mvl/mxv
 BYTE   W03
 BYTE   VOL   13*song09_mvl/mxv
 BYTE   W02
 BYTE   VOL   14*song09_mvl/mxv
 BYTE   W03
 BYTE   VOL   15*song09_mvl/mxv
 BYTE   W01
 BYTE   VOL   15*song09_mvl/mxv
 BYTE   W02
 BYTE   VOL   16*song09_mvl/mxv
 BYTE   W01
 BYTE   VOL   17*song09_mvl/mxv
 BYTE   W02
 BYTE   VOL   18*song09_mvl/mxv
 BYTE   W03
 BYTE   VOL   19*song09_mvl/mxv
 BYTE   W01
 BYTE   VOL   19*song09_mvl/mxv
 BYTE   W02
 BYTE   VOL   20*song09_mvl/mxv
 BYTE   W01
 BYTE   VOL   21*song09_mvl/mxv
 BYTE   W02
 BYTE   VOL   22*song09_mvl/mxv
 BYTE   W03
 BYTE   VOL   22*song09_mvl/mxv
 BYTE   W03
 BYTE   VOL   25*song09_mvl/mxv
 BYTE   W01
 BYTE   VOL   26*song09_mvl/mxv
 BYTE   W02
 BYTE   VOL   27*song09_mvl/mxv
 BYTE   W01
 BYTE   VOL   27*song09_mvl/mxv
 BYTE   W02
 BYTE   VOL   28*song09_mvl/mxv
 BYTE   W01
 BYTE   VOL   28*song09_mvl/mxv
 BYTE   W02
//  #05 //039   ----------------------------------------
 BYTE   PATT
  POIN2 Label_01465487
//  #05 //040   ----------------------------------------
 BYTE   PATT
  POIN2 Label_014653EE
//  #05 //041   ----------------------------------------
 BYTE   PATT
  POIN2 Label_01465207
//  #05 //042   ----------------------------------------
 BYTE   EOT
 BYTE   En3
 BYTE   W01
 BYTE   N68  Dn3  v100
 BYTE   W01
 BYTE   VOL   8*song09_mvl/mxv
 BYTE   W02
 BYTE   VOL   9*song09_mvl/mxv
 BYTE   W01
 BYTE   VOL   10*song09_mvl/mxv
 BYTE   W02
 BYTE   VOL   10*song09_mvl/mxv
 BYTE   W01
 BYTE   VOL   11*song09_mvl/mxv
 BYTE   W02
 BYTE   VOL   11*song09_mvl/mxv
 BYTE   W01
 BYTE   VOL   13*song09_mvl/mxv
 BYTE   W03
 BYTE   VOL   13*song09_mvl/mxv
 BYTE   W02
 BYTE   VOL   14*song09_mvl/mxv
 BYTE   W03
 BYTE   VOL   15*song09_mvl/mxv
 BYTE   W01
 BYTE   VOL   15*song09_mvl/mxv
 BYTE   W02
 BYTE   VOL   16*song09_mvl/mxv
 BYTE   W01
 BYTE   VOL   17*song09_mvl/mxv
 BYTE   W02
 BYTE   VOL   18*song09_mvl/mxv
 BYTE   W03
 BYTE   VOL   19*song09_mvl/mxv
 BYTE   W01
 BYTE   VOL   19*song09_mvl/mxv
 BYTE   W02
 BYTE   VOL   20*song09_mvl/mxv
 BYTE   W01
 BYTE   VOL   21*song09_mvl/mxv
 BYTE   W02
 BYTE   VOL   22*song09_mvl/mxv
 BYTE   W03
 BYTE   VOL   22*song09_mvl/mxv
 BYTE   W03
 BYTE   VOL   25*song09_mvl/mxv
 BYTE   W01
 BYTE   VOL   26*song09_mvl/mxv
 BYTE   W02
 BYTE   VOL   27*song09_mvl/mxv
 BYTE   W01
 BYTE   VOL   27*song09_mvl/mxv
 BYTE   W02
 BYTE   VOL   28*song09_mvl/mxv
 BYTE   W01
 BYTE   VOL   28*song09_mvl/mxv
 BYTE   W02
//  #05 //043   ----------------------------------------
 BYTE   PATT
  POIN2 Label_01465487
//  #05 //044   ----------------------------------------
 BYTE   PATT
  POIN2 Label_014653EE
//  #05 //045   ----------------------------------------
 BYTE   PATT
  POIN2 Label_01465207
//  #05 //046   ----------------------------------------
 BYTE   EOT
 BYTE   En3
 BYTE   W01
 BYTE   N68  Dn3  v100
 BYTE   W01
 BYTE   VOL   8*song09_mvl/mxv
 BYTE   W02
 BYTE   VOL   9*song09_mvl/mxv
 BYTE   W01
 BYTE   VOL   10*song09_mvl/mxv
 BYTE   W02
 BYTE   VOL   10*song09_mvl/mxv
 BYTE   W01
 BYTE   VOL   11*song09_mvl/mxv
 BYTE   W02
 BYTE   VOL   11*song09_mvl/mxv
 BYTE   W01
 BYTE   VOL   13*song09_mvl/mxv
 BYTE   W03
 BYTE   VOL   13*song09_mvl/mxv
 BYTE   W02
 BYTE   VOL   14*song09_mvl/mxv
 BYTE   W03
 BYTE   VOL   15*song09_mvl/mxv
 BYTE   W01
 BYTE   VOL   15*song09_mvl/mxv
 BYTE   W02
 BYTE   VOL   16*song09_mvl/mxv
 BYTE   W01
 BYTE   VOL   17*song09_mvl/mxv
 BYTE   W02
 BYTE   VOL   18*song09_mvl/mxv
 BYTE   W03
 BYTE   VOL   19*song09_mvl/mxv
 BYTE   W01
 BYTE   VOL   19*song09_mvl/mxv
 BYTE   W02
 BYTE   VOL   20*song09_mvl/mxv
 BYTE   W01
 BYTE   VOL   21*song09_mvl/mxv
 BYTE   W02
 BYTE   VOL   22*song09_mvl/mxv
 BYTE   W03
 BYTE   VOL   22*song09_mvl/mxv
 BYTE   W03
 BYTE   VOL   25*song09_mvl/mxv
 BYTE   W01
 BYTE   VOL   26*song09_mvl/mxv
 BYTE   W02
 BYTE   VOL   27*song09_mvl/mxv
 BYTE   W01
 BYTE   VOL   27*song09_mvl/mxv
 BYTE   W02
 BYTE   VOL   28*song09_mvl/mxv
 BYTE   W01
 BYTE   VOL   28*song09_mvl/mxv
 BYTE   W02
Label_014655AB:
 BYTE   VOL   29*song09_mvl/mxv
 BYTE   W01
 BYTE   VOL   28*song09_mvl/mxv
 BYTE   W03
 BYTE   VOL   29*song09_mvl/mxv
 BYTE   W02
 BYTE   VOL   30*song09_mvl/mxv
 BYTE   W01
 BYTE   VOL   30*song09_mvl/mxv
 BYTE   W02
 BYTE   VOL   31*song09_mvl/mxv
 BYTE   W01
 BYTE   VOL   32*song09_mvl/mxv
 BYTE   W11
 BYTE   VOL   31*song09_mvl/mxv
 BYTE   W03
 BYTE   VOL   30*song09_mvl/mxv
 BYTE   N68  Fs3  v100
 BYTE   W09
 BYTE   VOL   30*song09_mvl/mxv
 BYTE   W03
 BYTE   VOL   29*song09_mvl/mxv
 BYTE   W01
 BYTE   VOL   29*song09_mvl/mxv
 BYTE   W02
 BYTE   VOL   28*song09_mvl/mxv
 BYTE   W03
 BYTE   VOL   28*song09_mvl/mxv
 BYTE   W01
 BYTE   VOL   27*song09_mvl/mxv
 BYTE   W11
//  #05 //047   ----------------------------------------
 BYTE   VOL   27*song09_mvl/mxv
 BYTE   W01
 BYTE   VOL   26*song09_mvl/mxv
 BYTE   W03
 BYTE   VOL   25*song09_mvl/mxv
 BYTE   W03
 BYTE   VOL   24*song09_mvl/mxv
 BYTE   W02
 BYTE   VOL   23*song09_mvl/mxv
 BYTE   W01
 BYTE   VOL   23*song09_mvl/mxv
 BYTE   W03
 BYTE   VOL   22*song09_mvl/mxv
 BYTE   W02
 BYTE   VOL   22*song09_mvl/mxv
 BYTE   W01
 BYTE   VOL   20*song09_mvl/mxv
 BYTE   W03
 BYTE   VOL   19*song09_mvl/mxv
 BYTE   W02
 BYTE   VOL   18*song09_mvl/mxv
 BYTE   W01
 BYTE   VOL   17*song09_mvl/mxv
 BYTE   W03
 BYTE   VOL   14*song09_mvl/mxv
 BYTE   W03
 BYTE   VOL   13*song09_mvl/mxv
 BYTE   W02
 BYTE   VOL   12*song09_mvl/mxv
 BYTE   W01
 BYTE   VOL   11*song09_mvl/mxv
 BYTE   W02
 BYTE   VOL   10*song09_mvl/mxv
 BYTE   W01
 BYTE   VOL   10*song09_mvl/mxv
 BYTE   W07
 BYTE   VOL   0*song09_mvl/mxv
 BYTE   W01
 BYTE   PEND 
//  #05 //048   ----------------------------------------
 BYTE   PATT
  POIN2 Label_01465113
//  #05 //049   ----------------------------------------
 BYTE   PATT
  POIN2 Label_01464FEC
//  #05 //050   ----------------------------------------
 BYTE   PATT
  POIN2 Label_01465042
//  #05 //051   ----------------------------------------
 BYTE   EOT
 BYTE   Bn2
 BYTE   VOL   0*song09_mvl/mxv
 BYTE   W01
//  #05 //052   ----------------------------------------
 BYTE   PATT
  POIN2 Label_0146508A
//  #05 //053   ----------------------------------------
 BYTE   PATT
  POIN2 Label_01464FEC
//  #05 //054   ----------------------------------------
 BYTE   PATT
  POIN2 Label_01465042
//  #05 //055   ----------------------------------------
 BYTE   EOT
 BYTE   An2
 BYTE   W01
//  #05 //056   ----------------------------------------
 BYTE   PATT
  POIN2 Label_01465113
//  #05 //057   ----------------------------------------
 BYTE   PATT
  POIN2 Label_01464FEC
//  #05 //058   ----------------------------------------
 BYTE   PATT
  POIN2 Label_01465042
//  #05 //059   ----------------------------------------
 BYTE   EOT
 BYTE   Bn2
 BYTE   VOL   0*song09_mvl/mxv
 BYTE   W01
//  #05 //060   ----------------------------------------
 BYTE   PATT
  POIN2 Label_0146508A
//  #05 //061   ----------------------------------------
 BYTE   PATT
  POIN2 Label_01464FEC
//  #05 //062   ----------------------------------------
 BYTE   PATT
  POIN2 Label_01465042
//  #05 //063   ----------------------------------------
 BYTE   EOT
 BYTE   An2
 BYTE   W01
//  #05 //064   ----------------------------------------
 BYTE   PATT
  POIN2 Label_014651AE
//  #05 //065   ----------------------------------------
 BYTE   GoTo
  POIN2 Label_014651F8
//  #05 //066   ----------------------------------------
 BYTE   VOL   30*song09_mvl/mxv
 BYTE   W09
 BYTE   VOL   30*song09_mvl/mxv
 BYTE   W03
 BYTE   VOL   29*song09_mvl/mxv
 BYTE   W01
 BYTE   VOL   29*song09_mvl/mxv
 BYTE   W02
 BYTE   VOL   28*song09_mvl/mxv
 BYTE   W03
 BYTE   VOL   28*song09_mvl/mxv
 BYTE   W01
 BYTE   VOL   27*song09_mvl/mxv
 BYTE   W05
//  #05 //067   ----------------------------------------
 BYTE   PATT
  POIN2 Label_01465207
//  #05 //068   ----------------------------------------
 BYTE   EOT
 BYTE   Gn2
 BYTE   W01
 BYTE   TIE  Fs2  v100
 BYTE   W01
 BYTE   VOL   8*song09_mvl/mxv
 BYTE   W02
 BYTE   VOL   9*song09_mvl/mxv
 BYTE   W01
 BYTE   VOL   10*song09_mvl/mxv
 BYTE   W02
 BYTE   VOL   10*song09_mvl/mxv
 BYTE   W01
 BYTE   VOL   11*song09_mvl/mxv
 BYTE   W02
 BYTE   VOL   11*song09_mvl/mxv
 BYTE   W01
 BYTE   VOL   13*song09_mvl/mxv
 BYTE   W03
 BYTE   VOL   13*song09_mvl/mxv
 BYTE   W02
 BYTE   VOL   14*song09_mvl/mxv
 BYTE   W03
 BYTE   VOL   15*song09_mvl/mxv
 BYTE   W01
 BYTE   VOL   15*song09_mvl/mxv
 BYTE   W02
 BYTE   VOL   16*song09_mvl/mxv
 BYTE   W01
 BYTE   VOL   17*song09_mvl/mxv
 BYTE   W02
 BYTE   VOL   18*song09_mvl/mxv
 BYTE   W03
 BYTE   VOL   19*song09_mvl/mxv
 BYTE   W01
 BYTE   VOL   19*song09_mvl/mxv
 BYTE   W02
 BYTE   VOL   20*song09_mvl/mxv
 BYTE   W01
 BYTE   VOL   21*song09_mvl/mxv
 BYTE   W02
 BYTE   VOL   22*song09_mvl/mxv
 BYTE   W03
 BYTE   VOL   22*song09_mvl/mxv
 BYTE   W03
 BYTE   VOL   25*song09_mvl/mxv
 BYTE   W01
 BYTE   VOL   26*song09_mvl/mxv
 BYTE   W02
 BYTE   VOL   27*song09_mvl/mxv
 BYTE   W01
 BYTE   VOL   27*song09_mvl/mxv
 BYTE   W02
 BYTE   VOL   28*song09_mvl/mxv
 BYTE   W01
 BYTE   VOL   28*song09_mvl/mxv
 BYTE   W02
//  #05 //069   ----------------------------------------
 BYTE   PATT
  POIN2 Label_0146526A
//  #05 //070   ----------------------------------------
 BYTE   EOT
 BYTE   Fs2
 BYTE   W01
//  #05 //071   ----------------------------------------
 BYTE   PATT
  POIN2 Label_014652B1
//  #05 //072   ----------------------------------------
 BYTE   PATT
  POIN2 Label_01465207
//  #05 //073   ----------------------------------------
 BYTE   EOT
 BYTE   Gn2
 BYTE   W01
 BYTE   TIE  Fs2  v100
 BYTE   W01
 BYTE   VOL   8*song09_mvl/mxv
 BYTE   W02
 BYTE   VOL   9*song09_mvl/mxv
 BYTE   W01
 BYTE   VOL   10*song09_mvl/mxv
 BYTE   W02
 BYTE   VOL   10*song09_mvl/mxv
 BYTE   W01
 BYTE   VOL   11*song09_mvl/mxv
 BYTE   W02
 BYTE   VOL   11*song09_mvl/mxv
 BYTE   W01
 BYTE   VOL   13*song09_mvl/mxv
 BYTE   W03
 BYTE   VOL   13*song09_mvl/mxv
 BYTE   W02
 BYTE   VOL   14*song09_mvl/mxv
 BYTE   W03
 BYTE   VOL   15*song09_mvl/mxv
 BYTE   W01
 BYTE   VOL   15*song09_mvl/mxv
 BYTE   W02
 BYTE   VOL   16*song09_mvl/mxv
 BYTE   W01
 BYTE   VOL   17*song09_mvl/mxv
 BYTE   W02
 BYTE   VOL   18*song09_mvl/mxv
 BYTE   W03
 BYTE   VOL   19*song09_mvl/mxv
 BYTE   W01
 BYTE   VOL   19*song09_mvl/mxv
 BYTE   W02
 BYTE   VOL   20*song09_mvl/mxv
 BYTE   W01
 BYTE   VOL   21*song09_mvl/mxv
 BYTE   W02
 BYTE   VOL   22*song09_mvl/mxv
 BYTE   W03
 BYTE   VOL   22*song09_mvl/mxv
 BYTE   W03
 BYTE   VOL   25*song09_mvl/mxv
 BYTE   W01
 BYTE   VOL   26*song09_mvl/mxv
 BYTE   W02
 BYTE   VOL   27*song09_mvl/mxv
 BYTE   W01
 BYTE   VOL   27*song09_mvl/mxv
 BYTE   W02
 BYTE   VOL   28*song09_mvl/mxv
 BYTE   W01
 BYTE   VOL   28*song09_mvl/mxv
 BYTE   W02
//  #05 //074   ----------------------------------------
 BYTE   PATT
  POIN2 Label_0146526A
//  #05 //075   ----------------------------------------
 BYTE   EOT
 BYTE   Fs2
 BYTE   W01
//  #05 //076   ----------------------------------------
 BYTE   PATT
  POIN2 Label_014652B1
//  #05 //077   ----------------------------------------
 BYTE   PATT
  POIN2 Label_01465207
//  #05 //078   ----------------------------------------
 BYTE   EOT
 BYTE   Gn2
 BYTE   W01
 BYTE   TIE  Fs2  v100
 BYTE   W01
 BYTE   VOL   8*song09_mvl/mxv
 BYTE   W02
 BYTE   VOL   9*song09_mvl/mxv
 BYTE   W01
 BYTE   VOL   10*song09_mvl/mxv
 BYTE   W02
 BYTE   VOL   10*song09_mvl/mxv
 BYTE   W01
 BYTE   VOL   11*song09_mvl/mxv
 BYTE   W02
 BYTE   VOL   11*song09_mvl/mxv
 BYTE   W01
 BYTE   VOL   13*song09_mvl/mxv
 BYTE   W03
 BYTE   VOL   13*song09_mvl/mxv
 BYTE   W02
 BYTE   VOL   14*song09_mvl/mxv
 BYTE   W03
 BYTE   VOL   15*song09_mvl/mxv
 BYTE   W01
 BYTE   VOL   15*song09_mvl/mxv
 BYTE   W02
 BYTE   VOL   16*song09_mvl/mxv
 BYTE   W01
 BYTE   VOL   17*song09_mvl/mxv
 BYTE   W02
 BYTE   VOL   18*song09_mvl/mxv
 BYTE   W03
 BYTE   VOL   19*song09_mvl/mxv
 BYTE   W01
 BYTE   VOL   19*song09_mvl/mxv
 BYTE   W02
 BYTE   VOL   20*song09_mvl/mxv
 BYTE   W01
 BYTE   VOL   21*song09_mvl/mxv
 BYTE   W02
 BYTE   VOL   22*song09_mvl/mxv
 BYTE   W03
 BYTE   VOL   22*song09_mvl/mxv
 BYTE   W03
 BYTE   VOL   25*song09_mvl/mxv
 BYTE   W01
 BYTE   VOL   26*song09_mvl/mxv
 BYTE   W02
 BYTE   VOL   27*song09_mvl/mxv
 BYTE   W01
 BYTE   VOL   27*song09_mvl/mxv
 BYTE   W02
 BYTE   VOL   28*song09_mvl/mxv
 BYTE   W01
 BYTE   VOL   28*song09_mvl/mxv
 BYTE   W02
//  #05 //079   ----------------------------------------
 BYTE   PATT
  POIN2 Label_0146526A
//  #05 //080   ----------------------------------------
 BYTE   EOT
 BYTE   Fs2
 BYTE   W01
//  #05 //081   ----------------------------------------
 BYTE   PATT
  POIN2 Label_014652B1
//  #05 //082   ----------------------------------------
 BYTE   PATT
  POIN2 Label_01465207
//  #05 //083   ----------------------------------------
 BYTE   EOT
 BYTE   Gn2
 BYTE   W01
 BYTE   TIE  Fs2  v100
 BYTE   W01
 BYTE   VOL   8*song09_mvl/mxv
 BYTE   W02
 BYTE   VOL   9*song09_mvl/mxv
 BYTE   W01
 BYTE   VOL   10*song09_mvl/mxv
 BYTE   W02
 BYTE   VOL   10*song09_mvl/mxv
 BYTE   W01
 BYTE   VOL   11*song09_mvl/mxv
 BYTE   W02
 BYTE   VOL   11*song09_mvl/mxv
 BYTE   W01
 BYTE   VOL   13*song09_mvl/mxv
 BYTE   W03
 BYTE   VOL   13*song09_mvl/mxv
 BYTE   W02
 BYTE   VOL   14*song09_mvl/mxv
 BYTE   W03
 BYTE   VOL   15*song09_mvl/mxv
 BYTE   W01
 BYTE   VOL   15*song09_mvl/mxv
 BYTE   W02
 BYTE   VOL   16*song09_mvl/mxv
 BYTE   W01
 BYTE   VOL   17*song09_mvl/mxv
 BYTE   W02
 BYTE   VOL   18*song09_mvl/mxv
 BYTE   W03
 BYTE   VOL   19*song09_mvl/mxv
 BYTE   W01
 BYTE   VOL   19*song09_mvl/mxv
 BYTE   W02
 BYTE   VOL   20*song09_mvl/mxv
 BYTE   W01
 BYTE   VOL   21*song09_mvl/mxv
 BYTE   W02
 BYTE   VOL   22*song09_mvl/mxv
 BYTE   W03
 BYTE   VOL   22*song09_mvl/mxv
 BYTE   W03
 BYTE   VOL   25*song09_mvl/mxv
 BYTE   W01
 BYTE   VOL   26*song09_mvl/mxv
 BYTE   W02
 BYTE   VOL   27*song09_mvl/mxv
 BYTE   W01
 BYTE   VOL   27*song09_mvl/mxv
 BYTE   W02
 BYTE   VOL   28*song09_mvl/mxv
 BYTE   W01
 BYTE   VOL   28*song09_mvl/mxv
 BYTE   W02
//  #05 //084   ----------------------------------------
 BYTE   PATT
  POIN2 Label_0146526A
//  #05 //085   ----------------------------------------
 BYTE   EOT
 BYTE   Fs2
 BYTE   W01
//  #05 //086   ----------------------------------------
 BYTE   PATT
  POIN2 Label_014653EE
//  #05 //087   ----------------------------------------
 BYTE   PATT
  POIN2 Label_01465207
//  #05 //088   ----------------------------------------
 BYTE   EOT
 BYTE   En3
 BYTE   W01
 BYTE   N68  Dn3  v100
 BYTE   W01
 BYTE   VOL   8*song09_mvl/mxv
 BYTE   W02
 BYTE   VOL   9*song09_mvl/mxv
 BYTE   W01
 BYTE   VOL   10*song09_mvl/mxv
 BYTE   W02
 BYTE   VOL   10*song09_mvl/mxv
 BYTE   W01
 BYTE   VOL   11*song09_mvl/mxv
 BYTE   W02
 BYTE   VOL   11*song09_mvl/mxv
 BYTE   W01
 BYTE   VOL   13*song09_mvl/mxv
 BYTE   W03
 BYTE   VOL   13*song09_mvl/mxv
 BYTE   W02
 BYTE   VOL   14*song09_mvl/mxv
 BYTE   W03
 BYTE   VOL   15*song09_mvl/mxv
 BYTE   W01
 BYTE   VOL   15*song09_mvl/mxv
 BYTE   W02
 BYTE   VOL   16*song09_mvl/mxv
 BYTE   W01
 BYTE   VOL   17*song09_mvl/mxv
 BYTE   W02
 BYTE   VOL   18*song09_mvl/mxv
 BYTE   W03
 BYTE   VOL   19*song09_mvl/mxv
 BYTE   W01
 BYTE   VOL   19*song09_mvl/mxv
 BYTE   W02
 BYTE   VOL   20*song09_mvl/mxv
 BYTE   W01
 BYTE   VOL   21*song09_mvl/mxv
 BYTE   W02
 BYTE   VOL   22*song09_mvl/mxv
 BYTE   W03
 BYTE   VOL   22*song09_mvl/mxv
 BYTE   W03
 BYTE   VOL   25*song09_mvl/mxv
 BYTE   W01
 BYTE   VOL   26*song09_mvl/mxv
 BYTE   W02
 BYTE   VOL   27*song09_mvl/mxv
 BYTE   W01
 BYTE   VOL   27*song09_mvl/mxv
 BYTE   W02
 BYTE   VOL   28*song09_mvl/mxv
 BYTE   W01
 BYTE   VOL   28*song09_mvl/mxv
 BYTE   W02
//  #05 //089   ----------------------------------------
 BYTE   PATT
  POIN2 Label_01465487
//  #05 //090   ----------------------------------------
 BYTE   PATT
  POIN2 Label_014653EE
//  #05 //091   ----------------------------------------
 BYTE   PATT
  POIN2 Label_01465207
//  #05 //092   ----------------------------------------
 BYTE   EOT
 BYTE   En3
 BYTE   W01
 BYTE   N68  Dn3  v100
 BYTE   W01
 BYTE   VOL   8*song09_mvl/mxv
 BYTE   W02
 BYTE   VOL   9*song09_mvl/mxv
 BYTE   W01
 BYTE   VOL   10*song09_mvl/mxv
 BYTE   W02
 BYTE   VOL   10*song09_mvl/mxv
 BYTE   W01
 BYTE   VOL   11*song09_mvl/mxv
 BYTE   W02
 BYTE   VOL   11*song09_mvl/mxv
 BYTE   W01
 BYTE   VOL   13*song09_mvl/mxv
 BYTE   W03
 BYTE   VOL   13*song09_mvl/mxv
 BYTE   W02
 BYTE   VOL   14*song09_mvl/mxv
 BYTE   W03
 BYTE   VOL   15*song09_mvl/mxv
 BYTE   W01
 BYTE   VOL   15*song09_mvl/mxv
 BYTE   W02
 BYTE   VOL   16*song09_mvl/mxv
 BYTE   W01
 BYTE   VOL   17*song09_mvl/mxv
 BYTE   W02
 BYTE   VOL   18*song09_mvl/mxv
 BYTE   W03
 BYTE   VOL   19*song09_mvl/mxv
 BYTE   W01
 BYTE   VOL   19*song09_mvl/mxv
 BYTE   W02
 BYTE   VOL   20*song09_mvl/mxv
 BYTE   W01
 BYTE   VOL   21*song09_mvl/mxv
 BYTE   W02
 BYTE   VOL   22*song09_mvl/mxv
 BYTE   W03
 BYTE   VOL   22*song09_mvl/mxv
 BYTE   W03
 BYTE   VOL   25*song09_mvl/mxv
 BYTE   W01
 BYTE   VOL   26*song09_mvl/mxv
 BYTE   W02
 BYTE   VOL   27*song09_mvl/mxv
 BYTE   W01
 BYTE   VOL   27*song09_mvl/mxv
 BYTE   W02
 BYTE   VOL   28*song09_mvl/mxv
 BYTE   W01
 BYTE   VOL   28*song09_mvl/mxv
 BYTE   W02
//  #05 //093   ----------------------------------------
 BYTE   PATT
  POIN2 Label_01465487
//  #05 //094   ----------------------------------------
 BYTE   PATT
  POIN2 Label_014653EE
//  #05 //095   ----------------------------------------
 BYTE   PATT
  POIN2 Label_01465207
//  #05 //096   ----------------------------------------
 BYTE   EOT
 BYTE   En3
 BYTE   W01
 BYTE   N68  Dn3  v100
 BYTE   W01
 BYTE   VOL   8*song09_mvl/mxv
 BYTE   W02
 BYTE   VOL   9*song09_mvl/mxv
 BYTE   W01
 BYTE   VOL   10*song09_mvl/mxv
 BYTE   W02
 BYTE   VOL   10*song09_mvl/mxv
 BYTE   W01
 BYTE   VOL   11*song09_mvl/mxv
 BYTE   W02
 BYTE   VOL   11*song09_mvl/mxv
 BYTE   W01
 BYTE   VOL   13*song09_mvl/mxv
 BYTE   W03
 BYTE   VOL   13*song09_mvl/mxv
 BYTE   W02
 BYTE   VOL   14*song09_mvl/mxv
 BYTE   W03
 BYTE   VOL   15*song09_mvl/mxv
 BYTE   W01
 BYTE   VOL   15*song09_mvl/mxv
 BYTE   W02
 BYTE   VOL   16*song09_mvl/mxv
 BYTE   W01
 BYTE   VOL   17*song09_mvl/mxv
 BYTE   W02
 BYTE   VOL   18*song09_mvl/mxv
 BYTE   W03
 BYTE   VOL   19*song09_mvl/mxv
 BYTE   W01
 BYTE   VOL   19*song09_mvl/mxv
 BYTE   W02
 BYTE   VOL   20*song09_mvl/mxv
 BYTE   W01
 BYTE   VOL   21*song09_mvl/mxv
 BYTE   W02
 BYTE   VOL   22*song09_mvl/mxv
 BYTE   W03
 BYTE   VOL   22*song09_mvl/mxv
 BYTE   W03
 BYTE   VOL   25*song09_mvl/mxv
 BYTE   W01
 BYTE   VOL   26*song09_mvl/mxv
 BYTE   W02
 BYTE   VOL   27*song09_mvl/mxv
 BYTE   W01
 BYTE   VOL   27*song09_mvl/mxv
 BYTE   W02
 BYTE   VOL   28*song09_mvl/mxv
 BYTE   W01
 BYTE   VOL   28*song09_mvl/mxv
 BYTE   W02
//  #05 //097   ----------------------------------------
 BYTE   PATT
  POIN2 Label_01465487
//  #05 //098   ----------------------------------------
 BYTE   PATT
  POIN2 Label_014653EE
//  #05 //099   ----------------------------------------
 BYTE   PATT
  POIN2 Label_01465207
//  #05 //100   ----------------------------------------
 BYTE   EOT
 BYTE   En3
 BYTE   W01
 BYTE   N68  Dn3  v100
 BYTE   W01
 BYTE   VOL   8*song09_mvl/mxv
 BYTE   W02
 BYTE   VOL   9*song09_mvl/mxv
 BYTE   W01
 BYTE   VOL   10*song09_mvl/mxv
 BYTE   W02
 BYTE   VOL   10*song09_mvl/mxv
 BYTE   W01
 BYTE   VOL   11*song09_mvl/mxv
 BYTE   W02
 BYTE   VOL   11*song09_mvl/mxv
 BYTE   W01
 BYTE   VOL   13*song09_mvl/mxv
 BYTE   W03
 BYTE   VOL   13*song09_mvl/mxv
 BYTE   W02
 BYTE   VOL   14*song09_mvl/mxv
 BYTE   W03
 BYTE   VOL   15*song09_mvl/mxv
 BYTE   W01
 BYTE   VOL   15*song09_mvl/mxv
 BYTE   W02
 BYTE   VOL   16*song09_mvl/mxv
 BYTE   W01
 BYTE   VOL   17*song09_mvl/mxv
 BYTE   W02
 BYTE   VOL   18*song09_mvl/mxv
 BYTE   W03
 BYTE   VOL   19*song09_mvl/mxv
 BYTE   W01
 BYTE   VOL   19*song09_mvl/mxv
 BYTE   W02
 BYTE   VOL   20*song09_mvl/mxv
 BYTE   W01
 BYTE   VOL   21*song09_mvl/mxv
 BYTE   W02
 BYTE   VOL   22*song09_mvl/mxv
 BYTE   W03
 BYTE   VOL   22*song09_mvl/mxv
 BYTE   W03
 BYTE   VOL   25*song09_mvl/mxv
 BYTE   W01
 BYTE   VOL   26*song09_mvl/mxv
 BYTE   W02
 BYTE   VOL   27*song09_mvl/mxv
 BYTE   W01
 BYTE   VOL   27*song09_mvl/mxv
 BYTE   W02
 BYTE   VOL   28*song09_mvl/mxv
 BYTE   W01
 BYTE   VOL   28*song09_mvl/mxv
 BYTE   W02
//  #05 //101   ----------------------------------------
 BYTE   PATT
  POIN2 Label_014655AB
//  #05 //102   ----------------------------------------
 BYTE   PATT
  POIN2 Label_01465113
//  #05 //103   ----------------------------------------
 BYTE   PATT
  POIN2 Label_01464FEC
//  #05 //104   ----------------------------------------
 BYTE   PATT
  POIN2 Label_01465042
//  #05 //105   ----------------------------------------
 BYTE   EOT
 BYTE   Bn2
 BYTE   VOL   0*song09_mvl/mxv
 BYTE   W01
//  #05 //106   ----------------------------------------
 BYTE   PATT
  POIN2 Label_0146508A
//  #05 //107   ----------------------------------------
 BYTE   PATT
  POIN2 Label_01464FEC
//  #05 //108   ----------------------------------------
 BYTE   PATT
  POIN2 Label_01465042
//  #05 //109   ----------------------------------------
 BYTE   EOT
 BYTE   An2
 BYTE   W01
//  #05 //110   ----------------------------------------
 BYTE   PATT
  POIN2 Label_01465113
//  #05 //111   ----------------------------------------
 BYTE   PATT
  POIN2 Label_01464FEC
//  #05 //112   ----------------------------------------
 BYTE   PATT
  POIN2 Label_01465042
//  #05 //113   ----------------------------------------
 BYTE   EOT
 BYTE   Bn2
 BYTE   VOL   0*song09_mvl/mxv
 BYTE   W01
//  #05 //114   ----------------------------------------
 BYTE   PATT
  POIN2 Label_0146508A
//  #05 //115   ----------------------------------------
 BYTE   PATT
  POIN2 Label_01464FEC
//  #05 //116   ----------------------------------------
 BYTE   PATT
  POIN2 Label_01465042
//  #05 //117   ----------------------------------------
 BYTE   EOT
 BYTE   An2
 BYTE   W01
//  #05 //118   ----------------------------------------
 BYTE   PATT
  POIN2 Label_014652B1
//  #05 //119   ----------------------------------------
 BYTE   PATT
  POIN2 Label_01465207
//  #05 //120   ----------------------------------------
 BYTE   EOT
 BYTE   Gn2
 BYTE   W01
 BYTE   TIE  Fs2  v100
 BYTE   W01
 BYTE   VOL   8*song09_mvl/mxv
 BYTE   W02
 BYTE   VOL   9*song09_mvl/mxv
 BYTE   W01
 BYTE   VOL   10*song09_mvl/mxv
 BYTE   W02
 BYTE   VOL   10*song09_mvl/mxv
 BYTE   W01
 BYTE   VOL   11*song09_mvl/mxv
 BYTE   W02
 BYTE   VOL   11*song09_mvl/mxv
 BYTE   W01
 BYTE   VOL   13*song09_mvl/mxv
 BYTE   W03
 BYTE   VOL   13*song09_mvl/mxv
 BYTE   W02
 BYTE   VOL   14*song09_mvl/mxv
 BYTE   W03
 BYTE   VOL   15*song09_mvl/mxv
 BYTE   W01
 BYTE   VOL   15*song09_mvl/mxv
 BYTE   W02
 BYTE   VOL   16*song09_mvl/mxv
 BYTE   W01
 BYTE   VOL   17*song09_mvl/mxv
 BYTE   W02
 BYTE   VOL   18*song09_mvl/mxv
 BYTE   W03
 BYTE   VOL   19*song09_mvl/mxv
 BYTE   W01
 BYTE   VOL   19*song09_mvl/mxv
 BYTE   W02
 BYTE   VOL   20*song09_mvl/mxv
 BYTE   W01
 BYTE   VOL   21*song09_mvl/mxv
 BYTE   W02
 BYTE   VOL   22*song09_mvl/mxv
 BYTE   W03
 BYTE   VOL   22*song09_mvl/mxv
 BYTE   W03
 BYTE   VOL   25*song09_mvl/mxv
 BYTE   W01
 BYTE   VOL   26*song09_mvl/mxv
 BYTE   W02
 BYTE   VOL   27*song09_mvl/mxv
 BYTE   W01
 BYTE   VOL   27*song09_mvl/mxv
 BYTE   W02
 BYTE   VOL   28*song09_mvl/mxv
 BYTE   W01
 BYTE   VOL   28*song09_mvl/mxv
 BYTE   W02
//  #05 //121   ----------------------------------------
 BYTE   PATT
  POIN2 Label_0146526A
//  #05 //122   ----------------------------------------
 BYTE   EOT
 BYTE   Fs2
 BYTE   W01
//  #05 //123   ----------------------------------------
 BYTE   PATT
  POIN2 Label_014652B1
//  #05 //124   ----------------------------------------
 BYTE   PATT
  POIN2 Label_01465207
//  #05 //125   ----------------------------------------
 BYTE   EOT
 BYTE   Gn2
 BYTE   W01
 BYTE   TIE  Fs2  v100
 BYTE   W01
 BYTE   VOL   8*song09_mvl/mxv
 BYTE   W02
 BYTE   VOL   9*song09_mvl/mxv
 BYTE   W01
 BYTE   VOL   10*song09_mvl/mxv
 BYTE   W02
 BYTE   VOL   10*song09_mvl/mxv
 BYTE   W01
 BYTE   VOL   11*song09_mvl/mxv
 BYTE   W02
 BYTE   VOL   11*song09_mvl/mxv
 BYTE   W01
 BYTE   VOL   13*song09_mvl/mxv
 BYTE   W03
 BYTE   VOL   13*song09_mvl/mxv
 BYTE   W02
 BYTE   VOL   14*song09_mvl/mxv
 BYTE   W03
 BYTE   VOL   15*song09_mvl/mxv
 BYTE   W01
 BYTE   VOL   15*song09_mvl/mxv
 BYTE   W02
 BYTE   VOL   16*song09_mvl/mxv
 BYTE   W01
 BYTE   VOL   17*song09_mvl/mxv
 BYTE   W02
 BYTE   VOL   18*song09_mvl/mxv
 BYTE   W03
 BYTE   VOL   19*song09_mvl/mxv
 BYTE   W01
 BYTE   VOL   19*song09_mvl/mxv
 BYTE   W02
 BYTE   VOL   20*song09_mvl/mxv
 BYTE   W01
 BYTE   VOL   21*song09_mvl/mxv
 BYTE   W02
 BYTE   VOL   22*song09_mvl/mxv
 BYTE   W03
 BYTE   VOL   22*song09_mvl/mxv
 BYTE   W03
 BYTE   VOL   25*song09_mvl/mxv
 BYTE   W01
 BYTE   VOL   26*song09_mvl/mxv
 BYTE   W02
 BYTE   VOL   27*song09_mvl/mxv
 BYTE   W01
 BYTE   VOL   27*song09_mvl/mxv
 BYTE   W02
 BYTE   VOL   28*song09_mvl/mxv
 BYTE   W01
 BYTE   VOL   28*song09_mvl/mxv
 BYTE   W02
//  #05 //126   ----------------------------------------
 BYTE   PATT
  POIN2 Label_0146526A
//  #05 //127   ----------------------------------------
 BYTE   EOT
 BYTE   Fs2
 BYTE   W01
//  #05 //128   ----------------------------------------
 BYTE   PATT
  POIN2 Label_014652B1
//  #05 //129   ----------------------------------------
 BYTE   PATT
  POIN2 Label_01465207
//  #05 //130   ----------------------------------------
 BYTE   EOT
 BYTE   Gn2
 BYTE   W01
 BYTE   TIE  Fs2  v100
 BYTE   W01
 BYTE   VOL   8*song09_mvl/mxv
 BYTE   W02
 BYTE   VOL   9*song09_mvl/mxv
 BYTE   W01
 BYTE   VOL   10*song09_mvl/mxv
 BYTE   W02
 BYTE   VOL   10*song09_mvl/mxv
 BYTE   W01
 BYTE   VOL   11*song09_mvl/mxv
 BYTE   W02
 BYTE   VOL   11*song09_mvl/mxv
 BYTE   W01
 BYTE   VOL   13*song09_mvl/mxv
 BYTE   W03
 BYTE   VOL   13*song09_mvl/mxv
 BYTE   W02
 BYTE   VOL   14*song09_mvl/mxv
 BYTE   W03
 BYTE   VOL   15*song09_mvl/mxv
 BYTE   W01
 BYTE   VOL   15*song09_mvl/mxv
 BYTE   W02
 BYTE   VOL   16*song09_mvl/mxv
 BYTE   W01
 BYTE   VOL   17*song09_mvl/mxv
 BYTE   W02
 BYTE   VOL   18*song09_mvl/mxv
 BYTE   W03
 BYTE   VOL   19*song09_mvl/mxv
 BYTE   W01
 BYTE   VOL   19*song09_mvl/mxv
 BYTE   W02
 BYTE   VOL   20*song09_mvl/mxv
 BYTE   W01
 BYTE   VOL   21*song09_mvl/mxv
 BYTE   W02
 BYTE   VOL   22*song09_mvl/mxv
 BYTE   W03
 BYTE   VOL   22*song09_mvl/mxv
 BYTE   W03
 BYTE   VOL   25*song09_mvl/mxv
 BYTE   W01
 BYTE   VOL   26*song09_mvl/mxv
 BYTE   W02
 BYTE   VOL   27*song09_mvl/mxv
 BYTE   W01
 BYTE   VOL   27*song09_mvl/mxv
 BYTE   W02
 BYTE   VOL   28*song09_mvl/mxv
 BYTE   W01
 BYTE   VOL   28*song09_mvl/mxv
 BYTE   W02
//  #05 //131   ----------------------------------------
 BYTE   PATT
  POIN2 Label_0146526A
//  #05 //132   ----------------------------------------
 BYTE   EOT
 BYTE   Fs2
 BYTE   W01
//  #05 //133   ----------------------------------------
 BYTE   PATT
  POIN2 Label_014652B1
//  #05 //134   ----------------------------------------
 BYTE   PATT
  POIN2 Label_01465207
//  #05 //135   ----------------------------------------
 BYTE   EOT
 BYTE   Gn2
 BYTE   W01
 BYTE   TIE  Fs2  v100
 BYTE   W01
 BYTE   VOL   8*song09_mvl/mxv
 BYTE   W02
 BYTE   VOL   9*song09_mvl/mxv
 BYTE   W01
 BYTE   VOL   10*song09_mvl/mxv
 BYTE   W02
 BYTE   VOL   10*song09_mvl/mxv
 BYTE   W01
 BYTE   VOL   11*song09_mvl/mxv
 BYTE   W02
 BYTE   VOL   11*song09_mvl/mxv
 BYTE   W01
 BYTE   VOL   13*song09_mvl/mxv
 BYTE   W03
 BYTE   VOL   13*song09_mvl/mxv
 BYTE   W02
 BYTE   VOL   14*song09_mvl/mxv
 BYTE   W03
 BYTE   VOL   15*song09_mvl/mxv
 BYTE   W01
 BYTE   VOL   15*song09_mvl/mxv
 BYTE   W02
 BYTE   VOL   16*song09_mvl/mxv
 BYTE   W01
 BYTE   VOL   17*song09_mvl/mxv
 BYTE   W02
 BYTE   VOL   18*song09_mvl/mxv
 BYTE   W03
 BYTE   VOL   19*song09_mvl/mxv
 BYTE   W01
 BYTE   VOL   19*song09_mvl/mxv
 BYTE   W02
 BYTE   VOL   20*song09_mvl/mxv
 BYTE   W01
 BYTE   VOL   21*song09_mvl/mxv
 BYTE   W02
 BYTE   VOL   22*song09_mvl/mxv
 BYTE   W03
 BYTE   VOL   22*song09_mvl/mxv
 BYTE   W03
 BYTE   VOL   25*song09_mvl/mxv
 BYTE   W01
 BYTE   VOL   26*song09_mvl/mxv
 BYTE   W02
 BYTE   VOL   27*song09_mvl/mxv
 BYTE   W01
 BYTE   VOL   27*song09_mvl/mxv
 BYTE   W02
 BYTE   VOL   28*song09_mvl/mxv
 BYTE   W01
 BYTE   VOL   28*song09_mvl/mxv
 BYTE   W02
//  #05 //136   ----------------------------------------
 BYTE   PATT
  POIN2 Label_0146526A
//  #05 //137   ----------------------------------------
 BYTE   EOT
 BYTE   Fs2
 BYTE   W01
//  #05 //138   ----------------------------------------
 BYTE   PATT
  POIN2 Label_014653EE
//  #05 //139   ----------------------------------------
 BYTE   PATT
  POIN2 Label_01465207
//  #05 //140   ----------------------------------------
 BYTE   EOT
 BYTE   En3
 BYTE   W01
 BYTE   N68  Dn3  v100
 BYTE   W01
 BYTE   VOL   8*song09_mvl/mxv
 BYTE   W02
 BYTE   VOL   9*song09_mvl/mxv
 BYTE   W01
 BYTE   VOL   10*song09_mvl/mxv
 BYTE   W02
 BYTE   VOL   10*song09_mvl/mxv
 BYTE   W01
 BYTE   VOL   11*song09_mvl/mxv
 BYTE   W02
 BYTE   VOL   11*song09_mvl/mxv
 BYTE   W01
 BYTE   VOL   13*song09_mvl/mxv
 BYTE   W03
 BYTE   VOL   13*song09_mvl/mxv
 BYTE   W02
 BYTE   VOL   14*song09_mvl/mxv
 BYTE   W03
 BYTE   VOL   15*song09_mvl/mxv
 BYTE   W01
 BYTE   VOL   15*song09_mvl/mxv
 BYTE   W02
 BYTE   VOL   16*song09_mvl/mxv
 BYTE   W01
 BYTE   VOL   17*song09_mvl/mxv
 BYTE   W02
 BYTE   VOL   18*song09_mvl/mxv
 BYTE   W03
 BYTE   VOL   19*song09_mvl/mxv
 BYTE   W01
 BYTE   VOL   19*song09_mvl/mxv
 BYTE   W02
 BYTE   VOL   20*song09_mvl/mxv
 BYTE   W01
 BYTE   VOL   21*song09_mvl/mxv
 BYTE   W02
 BYTE   VOL   22*song09_mvl/mxv
 BYTE   W03
 BYTE   VOL   22*song09_mvl/mxv
 BYTE   W03
 BYTE   VOL   25*song09_mvl/mxv
 BYTE   W01
 BYTE   VOL   26*song09_mvl/mxv
 BYTE   W02
 BYTE   VOL   27*song09_mvl/mxv
 BYTE   W01
 BYTE   VOL   27*song09_mvl/mxv
 BYTE   W02
 BYTE   VOL   28*song09_mvl/mxv
 BYTE   W01
 BYTE   VOL   28*song09_mvl/mxv
 BYTE   W02
//  #05 //141   ----------------------------------------
 BYTE   PATT
  POIN2 Label_01465487
//  #05 //142   ----------------------------------------
 BYTE   PATT
  POIN2 Label_014653EE
//  #05 //143   ----------------------------------------
 BYTE   PATT
  POIN2 Label_01465207
//  #05 //144   ----------------------------------------
 BYTE   EOT
 BYTE   En3
 BYTE   W01
 BYTE   N68  Dn3  v100
 BYTE   W01
 BYTE   VOL   8*song09_mvl/mxv
 BYTE   W02
 BYTE   VOL   9*song09_mvl/mxv
 BYTE   W01
 BYTE   VOL   10*song09_mvl/mxv
 BYTE   W02
 BYTE   VOL   10*song09_mvl/mxv
 BYTE   W01
 BYTE   VOL   11*song09_mvl/mxv
 BYTE   W02
 BYTE   VOL   11*song09_mvl/mxv
 BYTE   W01
 BYTE   VOL   13*song09_mvl/mxv
 BYTE   W03
 BYTE   VOL   13*song09_mvl/mxv
 BYTE   W02
 BYTE   VOL   14*song09_mvl/mxv
 BYTE   W03
 BYTE   VOL   15*song09_mvl/mxv
 BYTE   W01
 BYTE   VOL   15*song09_mvl/mxv
 BYTE   W02
 BYTE   VOL   16*song09_mvl/mxv
 BYTE   W01
 BYTE   VOL   17*song09_mvl/mxv
 BYTE   W02
 BYTE   VOL   18*song09_mvl/mxv
 BYTE   W03
 BYTE   VOL   19*song09_mvl/mxv
 BYTE   W01
 BYTE   VOL   19*song09_mvl/mxv
 BYTE   W02
 BYTE   VOL   20*song09_mvl/mxv
 BYTE   W01
 BYTE   VOL   21*song09_mvl/mxv
 BYTE   W02
 BYTE   VOL   22*song09_mvl/mxv
 BYTE   W03
 BYTE   VOL   22*song09_mvl/mxv
 BYTE   W03
 BYTE   VOL   25*song09_mvl/mxv
 BYTE   W01
 BYTE   VOL   26*song09_mvl/mxv
 BYTE   W02
 BYTE   VOL   27*song09_mvl/mxv
 BYTE   W01
 BYTE   VOL   27*song09_mvl/mxv
 BYTE   W02
 BYTE   VOL   28*song09_mvl/mxv
 BYTE   W01
 BYTE   VOL   28*song09_mvl/mxv
 BYTE   W02
//  #05 //145   ----------------------------------------
 BYTE   PATT
  POIN2 Label_01465487
//  #05 //146   ----------------------------------------
 BYTE   PATT
  POIN2 Label_014653EE
//  #05 //147   ----------------------------------------
 BYTE   PATT
  POIN2 Label_01465207
//  #05 //148   ----------------------------------------
 BYTE   EOT
 BYTE   En3
 BYTE   W01
 BYTE   N68  Dn3  v100
 BYTE   W01
 BYTE   VOL   8*song09_mvl/mxv
 BYTE   W02
 BYTE   VOL   9*song09_mvl/mxv
 BYTE   W01
 BYTE   VOL   10*song09_mvl/mxv
 BYTE   W02
 BYTE   VOL   10*song09_mvl/mxv
 BYTE   W01
 BYTE   VOL   11*song09_mvl/mxv
 BYTE   W02
 BYTE   VOL   11*song09_mvl/mxv
 BYTE   W01
 BYTE   VOL   13*song09_mvl/mxv
 BYTE   W03
 BYTE   VOL   13*song09_mvl/mxv
 BYTE   W02
 BYTE   VOL   14*song09_mvl/mxv
 BYTE   W03
 BYTE   VOL   15*song09_mvl/mxv
 BYTE   W01
 BYTE   VOL   15*song09_mvl/mxv
 BYTE   W02
 BYTE   VOL   16*song09_mvl/mxv
 BYTE   W01
 BYTE   VOL   17*song09_mvl/mxv
 BYTE   W02
 BYTE   VOL   18*song09_mvl/mxv
 BYTE   W03
 BYTE   VOL   19*song09_mvl/mxv
 BYTE   W01
 BYTE   VOL   19*song09_mvl/mxv
 BYTE   W02
 BYTE   VOL   20*song09_mvl/mxv
 BYTE   W01
 BYTE   VOL   21*song09_mvl/mxv
 BYTE   W02
 BYTE   VOL   22*song09_mvl/mxv
 BYTE   W03
 BYTE   VOL   22*song09_mvl/mxv
 BYTE   W03
 BYTE   VOL   25*song09_mvl/mxv
 BYTE   W01
 BYTE   VOL   26*song09_mvl/mxv
 BYTE   W02
 BYTE   VOL   27*song09_mvl/mxv
 BYTE   W01
 BYTE   VOL   27*song09_mvl/mxv
 BYTE   W02
 BYTE   VOL   28*song09_mvl/mxv
 BYTE   W01
 BYTE   VOL   28*song09_mvl/mxv
 BYTE   W02
//  #05 //149   ----------------------------------------
 BYTE   PATT
  POIN2 Label_01465487
//  #05 //150   ----------------------------------------
 BYTE   PATT
  POIN2 Label_014653EE
//  #05 //151   ----------------------------------------
 BYTE   PATT
  POIN2 Label_01465207
//  #05 //152   ----------------------------------------
 BYTE   EOT
 BYTE   En3
 BYTE   W01
 BYTE   N68  Dn3  v100
 BYTE   W01
 BYTE   VOL   8*song09_mvl/mxv
 BYTE   W02
 BYTE   VOL   9*song09_mvl/mxv
 BYTE   W01
 BYTE   VOL   10*song09_mvl/mxv
 BYTE   W02
 BYTE   VOL   10*song09_mvl/mxv
 BYTE   W01
 BYTE   VOL   11*song09_mvl/mxv
 BYTE   W02
 BYTE   VOL   11*song09_mvl/mxv
 BYTE   W01
 BYTE   VOL   13*song09_mvl/mxv
 BYTE   W03
 BYTE   VOL   13*song09_mvl/mxv
 BYTE   W02
 BYTE   VOL   14*song09_mvl/mxv
 BYTE   W03
 BYTE   VOL   15*song09_mvl/mxv
 BYTE   W01
 BYTE   VOL   15*song09_mvl/mxv
 BYTE   W02
 BYTE   VOL   16*song09_mvl/mxv
 BYTE   W01
 BYTE   VOL   17*song09_mvl/mxv
 BYTE   W02
 BYTE   VOL   18*song09_mvl/mxv
 BYTE   W03
 BYTE   VOL   19*song09_mvl/mxv
 BYTE   W01
 BYTE   VOL   19*song09_mvl/mxv
 BYTE   W02
 BYTE   VOL   20*song09_mvl/mxv
 BYTE   W01
 BYTE   VOL   21*song09_mvl/mxv
 BYTE   W02
 BYTE   VOL   22*song09_mvl/mxv
 BYTE   W03
 BYTE   VOL   22*song09_mvl/mxv
 BYTE   W03
 BYTE   VOL   25*song09_mvl/mxv
 BYTE   W01
 BYTE   VOL   26*song09_mvl/mxv
 BYTE   W02
 BYTE   VOL   27*song09_mvl/mxv
 BYTE   W01
 BYTE   VOL   27*song09_mvl/mxv
 BYTE   W02
 BYTE   VOL   28*song09_mvl/mxv
 BYTE   W01
 BYTE   VOL   28*song09_mvl/mxv
 BYTE   W02
//  #05 //153   ----------------------------------------
 BYTE   PATT
  POIN2 Label_014655AB
//  #05 //154   ----------------------------------------
 BYTE   PATT
  POIN2 Label_01465113
//  #05 //155   ----------------------------------------
 BYTE   PATT
  POIN2 Label_01464FEC
//  #05 //156   ----------------------------------------
 BYTE   PATT
  POIN2 Label_01465042
//  #05 //157   ----------------------------------------
 BYTE   EOT
 BYTE   Bn2
 BYTE   VOL   0*song09_mvl/mxv
 BYTE   W01
//  #05 //158   ----------------------------------------
 BYTE   PATT
  POIN2 Label_0146508A
//  #05 //159   ----------------------------------------
 BYTE   PATT
  POIN2 Label_01464FEC
//  #05 //160   ----------------------------------------
 BYTE   PATT
  POIN2 Label_01465042
//  #05 //161   ----------------------------------------
 BYTE   EOT
 BYTE   An2
 BYTE   W01
//  #05 //162   ----------------------------------------
 BYTE   PATT
  POIN2 Label_01465113
//  #05 //163   ----------------------------------------
 BYTE   PATT
  POIN2 Label_01464FEC
//  #05 //164   ----------------------------------------
 BYTE   PATT
  POIN2 Label_01465042
//  #05 //165   ----------------------------------------
 BYTE   EOT
 BYTE   Bn2
 BYTE   VOL   0*song09_mvl/mxv
 BYTE   W01
//  #05 //166   ----------------------------------------
 BYTE   PATT
  POIN2 Label_0146508A
//  #05 //167   ----------------------------------------
 BYTE   PATT
  POIN2 Label_01464FEC
//  #05 //168   ----------------------------------------
 BYTE   PATT
  POIN2 Label_01465042
//  #05 //169   ----------------------------------------
 BYTE   EOT
 BYTE   An2
 BYTE   W01
//  #05 //170   ----------------------------------------
 BYTE   PATT
  POIN2 Label_014652B1
//  #05 //171   ----------------------------------------
 BYTE   PATT
  POIN2 Label_01465207
//  #05 //172   ----------------------------------------
 BYTE   EOT
 BYTE   Gn2
 BYTE   W01
 BYTE   TIE  Fs2  v100
 BYTE   W01
 BYTE   VOL   8*song09_mvl/mxv
 BYTE   W02
 BYTE   VOL   9*song09_mvl/mxv
 BYTE   W01
 BYTE   VOL   10*song09_mvl/mxv
 BYTE   W02
 BYTE   VOL   10*song09_mvl/mxv
 BYTE   W01
 BYTE   VOL   11*song09_mvl/mxv
 BYTE   W02
 BYTE   VOL   11*song09_mvl/mxv
 BYTE   W01
 BYTE   VOL   13*song09_mvl/mxv
 BYTE   W03
 BYTE   VOL   13*song09_mvl/mxv
 BYTE   W02
 BYTE   VOL   14*song09_mvl/mxv
 BYTE   W03
 BYTE   VOL   15*song09_mvl/mxv
 BYTE   W01
 BYTE   VOL   15*song09_mvl/mxv
 BYTE   W02
 BYTE   VOL   16*song09_mvl/mxv
 BYTE   W01
 BYTE   VOL   17*song09_mvl/mxv
 BYTE   W02
 BYTE   VOL   18*song09_mvl/mxv
 BYTE   W03
 BYTE   VOL   19*song09_mvl/mxv
 BYTE   W01
 BYTE   VOL   19*song09_mvl/mxv
 BYTE   W02
 BYTE   VOL   20*song09_mvl/mxv
 BYTE   W01
 BYTE   VOL   21*song09_mvl/mxv
 BYTE   W02
 BYTE   VOL   22*song09_mvl/mxv
 BYTE   W03
 BYTE   VOL   22*song09_mvl/mxv
 BYTE   W03
 BYTE   VOL   25*song09_mvl/mxv
 BYTE   W01
 BYTE   VOL   26*song09_mvl/mxv
 BYTE   W02
 BYTE   VOL   27*song09_mvl/mxv
 BYTE   W01
 BYTE   VOL   27*song09_mvl/mxv
 BYTE   W02
 BYTE   VOL   28*song09_mvl/mxv
 BYTE   W01
 BYTE   VOL   28*song09_mvl/mxv
 BYTE   W02
//  #05 //173   ----------------------------------------
 BYTE   PATT
  POIN2 Label_0146526A
//  #05 //174   ----------------------------------------
 BYTE   EOT
 BYTE   Fs2
 BYTE   W01
//  #05 //175   ----------------------------------------
 BYTE   PATT
  POIN2 Label_014652B1
//  #05 //176   ----------------------------------------
 BYTE   PATT
  POIN2 Label_01465207
//  #05 //177   ----------------------------------------
 BYTE   EOT
 BYTE   Gn2
 BYTE   W01
 BYTE   TIE  Fs2  v100
 BYTE   W01
 BYTE   VOL   8*song09_mvl/mxv
 BYTE   W02
 BYTE   VOL   9*song09_mvl/mxv
 BYTE   W01
 BYTE   VOL   10*song09_mvl/mxv
 BYTE   W02
 BYTE   VOL   10*song09_mvl/mxv
 BYTE   W01
 BYTE   VOL   11*song09_mvl/mxv
 BYTE   W02
 BYTE   VOL   11*song09_mvl/mxv
 BYTE   W01
 BYTE   VOL   13*song09_mvl/mxv
 BYTE   W03
 BYTE   VOL   13*song09_mvl/mxv
 BYTE   W02
 BYTE   VOL   14*song09_mvl/mxv
 BYTE   W03
 BYTE   VOL   15*song09_mvl/mxv
 BYTE   W01
 BYTE   VOL   15*song09_mvl/mxv
 BYTE   W02
 BYTE   VOL   16*song09_mvl/mxv
 BYTE   W01
 BYTE   VOL   17*song09_mvl/mxv
 BYTE   W02
 BYTE   VOL   18*song09_mvl/mxv
 BYTE   W03
 BYTE   VOL   19*song09_mvl/mxv
 BYTE   W01
 BYTE   VOL   19*song09_mvl/mxv
 BYTE   W02
 BYTE   VOL   20*song09_mvl/mxv
 BYTE   W01
 BYTE   VOL   21*song09_mvl/mxv
 BYTE   W02
 BYTE   VOL   22*song09_mvl/mxv
 BYTE   W03
 BYTE   VOL   22*song09_mvl/mxv
 BYTE   W03
 BYTE   VOL   25*song09_mvl/mxv
 BYTE   W01
 BYTE   VOL   26*song09_mvl/mxv
 BYTE   W02
 BYTE   VOL   27*song09_mvl/mxv
 BYTE   W01
 BYTE   VOL   27*song09_mvl/mxv
 BYTE   W02
 BYTE   VOL   28*song09_mvl/mxv
 BYTE   W01
 BYTE   VOL   28*song09_mvl/mxv
 BYTE   W02
//  #05 //178   ----------------------------------------
 BYTE   PATT
  POIN2 Label_0146526A
//  #05 //179   ----------------------------------------
 BYTE   EOT
 BYTE   Fs2
 BYTE   W01
//  #05 //180   ----------------------------------------
 BYTE   PATT
  POIN2 Label_014652B1
//  #05 //181   ----------------------------------------
 BYTE   PATT
  POIN2 Label_01465207
//  #05 //182   ----------------------------------------
 BYTE   EOT
 BYTE   Gn2
 BYTE   W01
 BYTE   TIE  Fs2  v100
 BYTE   W01
 BYTE   VOL   8*song09_mvl/mxv
 BYTE   W02
 BYTE   VOL   9*song09_mvl/mxv
 BYTE   W01
 BYTE   VOL   10*song09_mvl/mxv
 BYTE   W02
 BYTE   VOL   10*song09_mvl/mxv
 BYTE   W01
 BYTE   VOL   11*song09_mvl/mxv
 BYTE   W02
 BYTE   VOL   11*song09_mvl/mxv
 BYTE   W01
 BYTE   VOL   13*song09_mvl/mxv
 BYTE   W03
 BYTE   VOL   13*song09_mvl/mxv
 BYTE   W02
 BYTE   VOL   14*song09_mvl/mxv
 BYTE   W03
 BYTE   VOL   15*song09_mvl/mxv
 BYTE   W01
 BYTE   VOL   15*song09_mvl/mxv
 BYTE   W02
 BYTE   VOL   16*song09_mvl/mxv
 BYTE   W01
 BYTE   VOL   17*song09_mvl/mxv
 BYTE   W02
 BYTE   VOL   18*song09_mvl/mxv
 BYTE   W03
 BYTE   VOL   19*song09_mvl/mxv
 BYTE   W01
 BYTE   VOL   19*song09_mvl/mxv
 BYTE   W02
 BYTE   VOL   20*song09_mvl/mxv
 BYTE   W01
 BYTE   VOL   21*song09_mvl/mxv
 BYTE   W02
 BYTE   VOL   22*song09_mvl/mxv
 BYTE   W03
 BYTE   VOL   22*song09_mvl/mxv
 BYTE   W03
 BYTE   VOL   25*song09_mvl/mxv
 BYTE   W01
 BYTE   VOL   26*song09_mvl/mxv
 BYTE   W02
 BYTE   VOL   27*song09_mvl/mxv
 BYTE   W01
 BYTE   VOL   27*song09_mvl/mxv
 BYTE   W02
 BYTE   VOL   28*song09_mvl/mxv
 BYTE   W01
 BYTE   VOL   28*song09_mvl/mxv
 BYTE   W02
//  #05 //183   ----------------------------------------
 BYTE   PATT
  POIN2 Label_0146526A
//  #05 //184   ----------------------------------------
 BYTE   EOT
 BYTE   Fs2
 BYTE   W01
//  #05 //185   ----------------------------------------
 BYTE   PATT
  POIN2 Label_014652B1
//  #05 //186   ----------------------------------------
 BYTE   PATT
  POIN2 Label_01465207
//  #05 //187   ----------------------------------------
 BYTE   EOT
 BYTE   Gn2
 BYTE   W01
 BYTE   TIE  Fs2  v100
 BYTE   W01
 BYTE   VOL   8*song09_mvl/mxv
 BYTE   W02
 BYTE   VOL   9*song09_mvl/mxv
 BYTE   W01
 BYTE   VOL   10*song09_mvl/mxv
 BYTE   W02
 BYTE   VOL   10*song09_mvl/mxv
 BYTE   W01
 BYTE   VOL   11*song09_mvl/mxv
 BYTE   W02
 BYTE   VOL   11*song09_mvl/mxv
 BYTE   W01
 BYTE   VOL   13*song09_mvl/mxv
 BYTE   W03
 BYTE   VOL   13*song09_mvl/mxv
 BYTE   W02
 BYTE   VOL   14*song09_mvl/mxv
 BYTE   W03
 BYTE   VOL   15*song09_mvl/mxv
 BYTE   W01
 BYTE   VOL   15*song09_mvl/mxv
 BYTE   W02
 BYTE   VOL   16*song09_mvl/mxv
 BYTE   W01
 BYTE   VOL   17*song09_mvl/mxv
 BYTE   W02
 BYTE   VOL   18*song09_mvl/mxv
 BYTE   W03
 BYTE   VOL   19*song09_mvl/mxv
 BYTE   W01
 BYTE   VOL   19*song09_mvl/mxv
 BYTE   W02
 BYTE   VOL   20*song09_mvl/mxv
 BYTE   W01
 BYTE   VOL   21*song09_mvl/mxv
 BYTE   W02
 BYTE   VOL   22*song09_mvl/mxv
 BYTE   W03
 BYTE   VOL   22*song09_mvl/mxv
 BYTE   W03
 BYTE   VOL   25*song09_mvl/mxv
 BYTE   W01
 BYTE   VOL   26*song09_mvl/mxv
 BYTE   W02
 BYTE   VOL   27*song09_mvl/mxv
 BYTE   W01
 BYTE   VOL   27*song09_mvl/mxv
 BYTE   W02
 BYTE   VOL   28*song09_mvl/mxv
 BYTE   W01
 BYTE   VOL   28*song09_mvl/mxv
 BYTE   W02
//  #05 //188   ----------------------------------------
 BYTE   PATT
  POIN2 Label_0146526A
//  #05 //189   ----------------------------------------
 BYTE   EOT
 BYTE   Fs2
 BYTE   W01
//  #05 //190   ----------------------------------------
 BYTE   PATT
  POIN2 Label_014653EE
//  #05 //191   ----------------------------------------
 BYTE   PATT
  POIN2 Label_01465207
//  #05 //192   ----------------------------------------
 BYTE   EOT
 BYTE   En3
 BYTE   W01
 BYTE   N68  Dn3  v100
 BYTE   W01
 BYTE   VOL   8*song09_mvl/mxv
 BYTE   W02
 BYTE   VOL   9*song09_mvl/mxv
 BYTE   W01
 BYTE   VOL   10*song09_mvl/mxv
 BYTE   W02
 BYTE   VOL   10*song09_mvl/mxv
 BYTE   W01
 BYTE   VOL   11*song09_mvl/mxv
 BYTE   W02
 BYTE   VOL   11*song09_mvl/mxv
 BYTE   W01
 BYTE   VOL   13*song09_mvl/mxv
 BYTE   W03
 BYTE   VOL   13*song09_mvl/mxv
 BYTE   W02
 BYTE   VOL   14*song09_mvl/mxv
 BYTE   W03
 BYTE   VOL   15*song09_mvl/mxv
 BYTE   W01
 BYTE   VOL   15*song09_mvl/mxv
 BYTE   W02
 BYTE   VOL   16*song09_mvl/mxv
 BYTE   W01
 BYTE   VOL   17*song09_mvl/mxv
 BYTE   W02
 BYTE   VOL   18*song09_mvl/mxv
 BYTE   W03
 BYTE   VOL   19*song09_mvl/mxv
 BYTE   W01
 BYTE   VOL   19*song09_mvl/mxv
 BYTE   W02
 BYTE   VOL   20*song09_mvl/mxv
 BYTE   W01
 BYTE   VOL   21*song09_mvl/mxv
 BYTE   W02
 BYTE   VOL   22*song09_mvl/mxv
 BYTE   W03
 BYTE   VOL   22*song09_mvl/mxv
 BYTE   W03
 BYTE   VOL   25*song09_mvl/mxv
 BYTE   W01
 BYTE   VOL   26*song09_mvl/mxv
 BYTE   W02
 BYTE   VOL   27*song09_mvl/mxv
 BYTE   W01
 BYTE   VOL   27*song09_mvl/mxv
 BYTE   W02
 BYTE   VOL   28*song09_mvl/mxv
 BYTE   W01
 BYTE   VOL   28*song09_mvl/mxv
 BYTE   W02
//  #05 //193   ----------------------------------------
 BYTE   PATT
  POIN2 Label_01465487
//  #05 //194   ----------------------------------------
 BYTE   PATT
  POIN2 Label_014653EE
//  #05 //195   ----------------------------------------
 BYTE   PATT
  POIN2 Label_01465207
//  #05 //196   ----------------------------------------
 BYTE   EOT
 BYTE   En3
 BYTE   W01
 BYTE   N68  Dn3  v100
 BYTE   W01
 BYTE   VOL   8*song09_mvl/mxv
 BYTE   W02
 BYTE   VOL   9*song09_mvl/mxv
 BYTE   W01
 BYTE   VOL   10*song09_mvl/mxv
 BYTE   W02
 BYTE   VOL   10*song09_mvl/mxv
 BYTE   W01
 BYTE   VOL   11*song09_mvl/mxv
 BYTE   W02
 BYTE   VOL   11*song09_mvl/mxv
 BYTE   W01
 BYTE   VOL   13*song09_mvl/mxv
 BYTE   W03
 BYTE   VOL   13*song09_mvl/mxv
 BYTE   W02
 BYTE   VOL   14*song09_mvl/mxv
 BYTE   W03
 BYTE   VOL   15*song09_mvl/mxv
 BYTE   W01
 BYTE   VOL   15*song09_mvl/mxv
 BYTE   W02
 BYTE   VOL   16*song09_mvl/mxv
 BYTE   W01
 BYTE   VOL   17*song09_mvl/mxv
 BYTE   W02
 BYTE   VOL   18*song09_mvl/mxv
 BYTE   W03
 BYTE   VOL   19*song09_mvl/mxv
 BYTE   W01
 BYTE   VOL   19*song09_mvl/mxv
 BYTE   W02
 BYTE   VOL   20*song09_mvl/mxv
 BYTE   W01
 BYTE   VOL   21*song09_mvl/mxv
 BYTE   W02
 BYTE   VOL   22*song09_mvl/mxv
 BYTE   W03
 BYTE   VOL   22*song09_mvl/mxv
 BYTE   W03
 BYTE   VOL   25*song09_mvl/mxv
 BYTE   W01
 BYTE   VOL   26*song09_mvl/mxv
 BYTE   W02
 BYTE   VOL   27*song09_mvl/mxv
 BYTE   W01
 BYTE   VOL   27*song09_mvl/mxv
 BYTE   W02
 BYTE   VOL   28*song09_mvl/mxv
 BYTE   W01
 BYTE   VOL   28*song09_mvl/mxv
 BYTE   W02
//  #05 //197   ----------------------------------------
 BYTE   PATT
  POIN2 Label_01465487
//  #05 //198   ----------------------------------------
 BYTE   PATT
  POIN2 Label_014653EE
//  #05 //199   ----------------------------------------
 BYTE   PATT
  POIN2 Label_01465207
//  #05 //200   ----------------------------------------
 BYTE   EOT
 BYTE   En3
 BYTE   W01
 BYTE   N68  Dn3  v100
 BYTE   W01
 BYTE   VOL   8*song09_mvl/mxv
 BYTE   W02
 BYTE   VOL   9*song09_mvl/mxv
 BYTE   W01
 BYTE   VOL   10*song09_mvl/mxv
 BYTE   W02
 BYTE   VOL   10*song09_mvl/mxv
 BYTE   W01
 BYTE   VOL   11*song09_mvl/mxv
 BYTE   W02
 BYTE   VOL   11*song09_mvl/mxv
 BYTE   W01
 BYTE   VOL   13*song09_mvl/mxv
 BYTE   W03
 BYTE   VOL   13*song09_mvl/mxv
 BYTE   W02
 BYTE   VOL   14*song09_mvl/mxv
 BYTE   W03
 BYTE   VOL   15*song09_mvl/mxv
 BYTE   W01
 BYTE   VOL   15*song09_mvl/mxv
 BYTE   W02
 BYTE   VOL   16*song09_mvl/mxv
 BYTE   W01
 BYTE   VOL   17*song09_mvl/mxv
 BYTE   W02
 BYTE   VOL   18*song09_mvl/mxv
 BYTE   W03
 BYTE   VOL   19*song09_mvl/mxv
 BYTE   W01
 BYTE   VOL   19*song09_mvl/mxv
 BYTE   W02
 BYTE   VOL   20*song09_mvl/mxv
 BYTE   W01
 BYTE   VOL   21*song09_mvl/mxv
 BYTE   W02
 BYTE   VOL   22*song09_mvl/mxv
 BYTE   W03
 BYTE   VOL   22*song09_mvl/mxv
 BYTE   W03
 BYTE   VOL   25*song09_mvl/mxv
 BYTE   W01
 BYTE   VOL   26*song09_mvl/mxv
 BYTE   W02
 BYTE   VOL   27*song09_mvl/mxv
 BYTE   W01
 BYTE   VOL   27*song09_mvl/mxv
 BYTE   W02
 BYTE   VOL   28*song09_mvl/mxv
 BYTE   W01
 BYTE   VOL   28*song09_mvl/mxv
 BYTE   W02
//  #05 //201   ----------------------------------------
 BYTE   PATT
  POIN2 Label_01465487
//  #05 //202   ----------------------------------------
 BYTE   PATT
  POIN2 Label_014653EE
//  #05 //203   ----------------------------------------
 BYTE   PATT
  POIN2 Label_01465207
//  #05 //204   ----------------------------------------
 BYTE   EOT
 BYTE   En3
 BYTE   W01
 BYTE   N68  Dn3  v100
 BYTE   W01
 BYTE   VOL   8*song09_mvl/mxv
 BYTE   W02
 BYTE   VOL   9*song09_mvl/mxv
 BYTE   W01
 BYTE   VOL   10*song09_mvl/mxv
 BYTE   W02
 BYTE   VOL   10*song09_mvl/mxv
 BYTE   W01
 BYTE   VOL   11*song09_mvl/mxv
 BYTE   W02
 BYTE   VOL   11*song09_mvl/mxv
 BYTE   W01
 BYTE   VOL   13*song09_mvl/mxv
 BYTE   W03
 BYTE   VOL   13*song09_mvl/mxv
 BYTE   W02
 BYTE   VOL   14*song09_mvl/mxv
 BYTE   W03
 BYTE   VOL   15*song09_mvl/mxv
 BYTE   W01
 BYTE   VOL   15*song09_mvl/mxv
 BYTE   W02
 BYTE   VOL   16*song09_mvl/mxv
 BYTE   W01
 BYTE   VOL   17*song09_mvl/mxv
 BYTE   W02
 BYTE   VOL   18*song09_mvl/mxv
 BYTE   W03
 BYTE   VOL   19*song09_mvl/mxv
 BYTE   W01
 BYTE   VOL   19*song09_mvl/mxv
 BYTE   W02
 BYTE   VOL   20*song09_mvl/mxv
 BYTE   W01
 BYTE   VOL   21*song09_mvl/mxv
 BYTE   W02
 BYTE   VOL   22*song09_mvl/mxv
 BYTE   W03
 BYTE   VOL   22*song09_mvl/mxv
 BYTE   W03
 BYTE   VOL   25*song09_mvl/mxv
 BYTE   W01
 BYTE   VOL   26*song09_mvl/mxv
 BYTE   W02
 BYTE   VOL   27*song09_mvl/mxv
 BYTE   W01
 BYTE   VOL   27*song09_mvl/mxv
 BYTE   W02
 BYTE   VOL   28*song09_mvl/mxv
 BYTE   W01
 BYTE   VOL   28*song09_mvl/mxv
 BYTE   W02
//  #05 //205   ----------------------------------------
 BYTE   PATT
  POIN2 Label_014655AB
//  #05 //206   ----------------------------------------
 BYTE   PATT
  POIN2 Label_01465113
//  #05 //207   ----------------------------------------
 BYTE   PATT
  POIN2 Label_01464FEC
//  #05 //208   ----------------------------------------
 BYTE   PATT
  POIN2 Label_01465042
//  #05 //209   ----------------------------------------
 BYTE   EOT
 BYTE   Bn2
 BYTE   VOL   0*song09_mvl/mxv
 BYTE   W01
//  #05 //210   ----------------------------------------
 BYTE   PATT
  POIN2 Label_0146508A
//  #05 //211   ----------------------------------------
 BYTE   PATT
  POIN2 Label_01464FEC
//  #05 //212   ----------------------------------------
 BYTE   PATT
  POIN2 Label_01465042
//  #05 //213   ----------------------------------------
 BYTE   EOT
 BYTE   An2
 BYTE   FINE

//**************** Track 6 (Midi-Chn.5) ****************//

song09_006:
//  #06 //000   ----------------------------------------
 BYTE   KEYSH   song09_key+0
 BYTE   MODT 0
 BYTE   LFOS 44
 BYTE   W24
 BYTE   VOICE   52
 BYTE   VOL   68*song09_mvl/mxv
 BYTE   PAN   c_v+0
 BYTE   W56
 BYTE   W03
 BYTE   VOL   0*song09_mvl/mxv
 BYTE   W01
 BYTE   TIE  Bn3  v080
 BYTE   W05
 BYTE   VOL   0*song09_mvl/mxv
 BYTE   W03
 BYTE   VOL   1*song09_mvl/mxv
 BYTE   W04
//  #06 //001   ----------------------------------------
 BYTE   VOL   1*song09_mvl/mxv
 BYTE   W05
 BYTE   VOL   1*song09_mvl/mxv
 BYTE   W03
 BYTE   VOL   1*song09_mvl/mxv
 BYTE   W04
 BYTE   VOL   3*song09_mvl/mxv
 BYTE   W03
 BYTE   VOL   3*song09_mvl/mxv
 BYTE   W05
 BYTE   VOL   4*song09_mvl/mxv
 BYTE   W03
 BYTE   VOL   4*song09_mvl/mxv
 BYTE   W01
Label_0145DF21:
 BYTE   W03
 BYTE   VOL   6*song09_mvl/mxv
 BYTE   W03
 BYTE   VOL   6*song09_mvl/mxv
 BYTE   W05
 BYTE   VOL   7*song09_mvl/mxv
 BYTE   W07
 BYTE   VOL   8*song09_mvl/mxv
 BYTE   W03
 BYTE   VOL   9*song09_mvl/mxv
 BYTE   W05
 BYTE   VOL   10*song09_mvl/mxv
 BYTE   W03
 BYTE   VOL   11*song09_mvl/mxv
 BYTE   W04
 BYTE   VOL   13*song09_mvl/mxv
 BYTE   W03
 BYTE   VOL   13*song09_mvl/mxv
 BYTE   W05
 BYTE   VOL   15*song09_mvl/mxv
 BYTE   W03
 BYTE   VOL   16*song09_mvl/mxv
 BYTE   W04
 BYTE   VOL   18*song09_mvl/mxv
 BYTE   W03
 BYTE   VOL   19*song09_mvl/mxv
 BYTE   W05
 BYTE   VOL   20*song09_mvl/mxv
 BYTE   W03
 BYTE   VOL   22*song09_mvl/mxv
 BYTE   W04
 BYTE   VOL   23*song09_mvl/mxv
 BYTE   W03
 BYTE   VOL   24*song09_mvl/mxv
 BYTE   W05
 BYTE   VOL   26*song09_mvl/mxv
 BYTE   W03
//  #06 //002   ----------------------------------------
 BYTE   VOL   27*song09_mvl/mxv
 BYTE   W04
 BYTE   VOL   29*song09_mvl/mxv
 BYTE   W03
 BYTE   VOL   30*song09_mvl/mxv
 BYTE   W05
 BYTE   VOL   33*song09_mvl/mxv
 BYTE   W03
 BYTE   VOL   34*song09_mvl/mxv
 BYTE   W04
 BYTE   VOL   36*song09_mvl/mxv
 BYTE   W03
 BYTE   PEND 
Label_0145DF54:
 BYTE   VOL   37*song09_mvl/mxv
 BYTE   W05
 BYTE   VOL   39*song09_mvl/mxv
 BYTE   W03
 BYTE   VOL   40*song09_mvl/mxv
 BYTE   W04
 BYTE   VOL   40*song09_mvl/mxv
 BYTE   W03
 BYTE   VOL   41*song09_mvl/mxv
 BYTE   W24
 BYTE   VOL   40*song09_mvl/mxv
 BYTE   W08
 BYTE   VOL   37*song09_mvl/mxv
 BYTE   W07
 BYTE   VOL   37*song09_mvl/mxv
 BYTE   W03
 BYTE   VOL   34*song09_mvl/mxv
 BYTE   W05
 BYTE   VOL   33*song09_mvl/mxv
 BYTE   W03
 BYTE   VOL   32*song09_mvl/mxv
 BYTE   W04
 BYTE   VOL   29*song09_mvl/mxv
 BYTE   W03
 BYTE   VOL   27*song09_mvl/mxv
 BYTE   W05
//  #06 //003   ----------------------------------------
 BYTE   VOL   26*song09_mvl/mxv
 BYTE   W03
 BYTE   VOL   23*song09_mvl/mxv
 BYTE   W04
 BYTE   VOL   21*song09_mvl/mxv
 BYTE   W03
 BYTE   VOL   19*song09_mvl/mxv
 BYTE   W05
 BYTE   VOL   18*song09_mvl/mxv
 BYTE   W03
 BYTE   VOL   15*song09_mvl/mxv
 BYTE   W01
 BYTE   PEND 
Label_0145DF7C:
 BYTE   W03
 BYTE   VOL   14*song09_mvl/mxv
 BYTE   W03
 BYTE   VOL   13*song09_mvl/mxv
 BYTE   W05
 BYTE   VOL   11*song09_mvl/mxv
 BYTE   W03
 BYTE   VOL   10*song09_mvl/mxv
 BYTE   W04
 BYTE   VOL   7*song09_mvl/mxv
 BYTE   W03
 BYTE   VOL   6*song09_mvl/mxv
 BYTE   W05
 BYTE   VOL   5*song09_mvl/mxv
 BYTE   W03
 BYTE   VOL   4*song09_mvl/mxv
 BYTE   W04
 BYTE   VOL   3*song09_mvl/mxv
 BYTE   W03
 BYTE   VOL   2*song09_mvl/mxv
 BYTE   W05
 BYTE   VOL   1*song09_mvl/mxv
 BYTE   W03
 BYTE   VOL   1*song09_mvl/mxv
 BYTE   W04
 BYTE   VOL   0*song09_mvl/mxv
 BYTE   W03
 BYTE   VOL   0*song09_mvl/mxv
 BYTE   W05
 BYTE   VOL   0*song09_mvl/mxv
 BYTE   W03
 BYTE   PEND 
 BYTE   EOT
 BYTE   Bn3
 BYTE   VOL   0*song09_mvl/mxv
 BYTE   W01
 BYTE   TIE  An3  v080
 BYTE   W05
 BYTE   VOL   0*song09_mvl/mxv
 BYTE   W03
 BYTE   VOL   1*song09_mvl/mxv
 BYTE   W04
 BYTE   VOL   1*song09_mvl/mxv
 BYTE   W05
//  #06 //004   ----------------------------------------
 BYTE   VOL   1*song09_mvl/mxv
 BYTE   W03
 BYTE   VOL   1*song09_mvl/mxv
 BYTE   W04
 BYTE   VOL   3*song09_mvl/mxv
 BYTE   W03
 BYTE   VOL   3*song09_mvl/mxv
 BYTE   W05
 BYTE   VOL   4*song09_mvl/mxv
 BYTE   W03
 BYTE   VOL   4*song09_mvl/mxv
 BYTE   W01
//  #06 //005   ----------------------------------------
 BYTE   PATT
  POIN2 Label_0145DF21
//  #06 //006   ----------------------------------------
 BYTE   PATT
  POIN2 Label_0145DF54
//  #06 //007   ----------------------------------------
 BYTE   PATT
  POIN2 Label_0145DF7C
//  #06 //008   ----------------------------------------
 BYTE   EOT
 BYTE   An3
 BYTE   VOL   0*song09_mvl/mxv
 BYTE   W01
 BYTE   TIE  Bn3  v080
 BYTE   W05
 BYTE   VOL   0*song09_mvl/mxv
 BYTE   W03
 BYTE   VOL   1*song09_mvl/mxv
 BYTE   W04
 BYTE   VOL   1*song09_mvl/mxv
 BYTE   W05
 BYTE   VOL   1*song09_mvl/mxv
 BYTE   W03
 BYTE   VOL   1*song09_mvl/mxv
 BYTE   W04
 BYTE   VOL   3*song09_mvl/mxv
 BYTE   W03
 BYTE   VOL   3*song09_mvl/mxv
 BYTE   W05
 BYTE   VOL   4*song09_mvl/mxv
 BYTE   W03
 BYTE   VOL   4*song09_mvl/mxv
 BYTE   W01
//  #06 //009   ----------------------------------------
 BYTE   PATT
  POIN2 Label_0145DF21
//  #06 //010   ----------------------------------------
 BYTE   PATT
  POIN2 Label_0145DF54
//  #06 //011   ----------------------------------------
 BYTE   PATT
  POIN2 Label_0145DF7C
//  #06 //012   ----------------------------------------
 BYTE   EOT
 BYTE   Bn3
 BYTE   VOL   0*song09_mvl/mxv
 BYTE   W01
 BYTE   TIE  An3  v080
 BYTE   W05
 BYTE   VOL   0*song09_mvl/mxv
 BYTE   W03
 BYTE   VOL   1*song09_mvl/mxv
 BYTE   W04
 BYTE   VOL   1*song09_mvl/mxv
 BYTE   W05
 BYTE   VOL   1*song09_mvl/mxv
 BYTE   W03
 BYTE   VOL   1*song09_mvl/mxv
 BYTE   W04
 BYTE   VOL   3*song09_mvl/mxv
 BYTE   W03
 BYTE   VOL   3*song09_mvl/mxv
 BYTE   W05
 BYTE   VOL   4*song09_mvl/mxv
 BYTE   W03
 BYTE   VOL   4*song09_mvl/mxv
 BYTE   W01
//  #06 //013   ----------------------------------------
 BYTE   PATT
  POIN2 Label_0145DF21
//  #06 //014   ----------------------------------------
 BYTE   PATT
  POIN2 Label_0145DF54
//  #06 //015   ----------------------------------------
 BYTE   PATT
  POIN2 Label_0145DF7C
//  #06 //016   ----------------------------------------
 BYTE   EOT
 BYTE   An3
 BYTE   VOICE   52
 BYTE   VOL   30*song09_mvl/mxv
 BYTE   W01
 BYTE   N80  En3  v080
 BYTE   W12
Label_0145E029:
 BYTE   W24
 BYTE   W48
 BYTE   N68  Fs3  v080
 BYTE   W48
//  #06 //017   ----------------------------------------
 BYTE   W24
 BYTE   An3
 BYTE   W72
//  #06 //018   ----------------------------------------
Label_0145E032:
 BYTE   N68  Gn3  v080
 BYTE   W72
 BYTE   Bn3
 BYTE   W24
 BYTE   PEND 
//  #06 //019   ----------------------------------------
 BYTE   W48
 BYTE   An3
 BYTE   W48
//  #06 //020   ----------------------------------------
 BYTE   W24
 BYTE   Dn4
 BYTE   W72
//  #06 //021   ----------------------------------------
 BYTE   W60
 BYTE   N80  En3
 BYTE   W36
//  #06 //022   ----------------------------------------
 BYTE   W48
 BYTE   N68  Fs3
 BYTE   W48
//  #06 //023   ----------------------------------------
 BYTE   W24
 BYTE   An3
 BYTE   W72
//  #06 //024   ----------------------------------------
 BYTE   PATT
  POIN2 Label_0145E032
//  #06 //025   ----------------------------------------
 BYTE   W48
 BYTE   N68  An3  v080
 BYTE   W48
//  #06 //026   ----------------------------------------
Label_0145E054:
 BYTE   W24
 BYTE   N68  Dn4  v080
 BYTE   W09
 BYTE   VOL   32*song09_mvl/mxv
 BYTE   W03
 BYTE   VOL   34*song09_mvl/mxv
 BYTE   W06
 BYTE   VOL   36*song09_mvl/mxv
 BYTE   W03
 BYTE   VOL   37*song09_mvl/mxv
 BYTE   W03
 BYTE   VOL   39*song09_mvl/mxv
 BYTE   W03
 BYTE   VOL   41*song09_mvl/mxv
 BYTE   W06
 BYTE   VOL   44*song09_mvl/mxv
 BYTE   W03
 BYTE   VOL   45*song09_mvl/mxv
 BYTE   W03
 BYTE   VOL   47*song09_mvl/mxv
 BYTE   W03
 BYTE   VOL   49*song09_mvl/mxv
 BYTE   W03
 BYTE   VOL   50*song09_mvl/mxv
 BYTE   W03
 BYTE   VOL   51*song09_mvl/mxv
 BYTE   W03
 BYTE   VOL   53*song09_mvl/mxv
 BYTE   W03
 BYTE   VOL   55*song09_mvl/mxv
 BYTE   W03
 BYTE   VOL   57*song09_mvl/mxv
 BYTE   W03
 BYTE   VOL   57*song09_mvl/mxv
 BYTE   W03
 BYTE   VOL   61*song09_mvl/mxv
 BYTE   W03
 BYTE   VOL   61*song09_mvl/mxv
 BYTE   W03
 BYTE   VOL   64*song09_mvl/mxv
 BYTE   W02
 BYTE   VOL   66*song09_mvl/mxv
 BYTE   W01
 BYTE   PEND 
//  #06 //027   ----------------------------------------
Label_0145E083:
 BYTE   TIE  En4  v080
 BYTE   W03
 BYTE   VOL   68*song09_mvl/mxv
 BYTE   W92
 BYTE   W01
 BYTE   PEND 
//  #06 //028   ----------------------------------------
 BYTE   W11
 BYTE   EOT
 BYTE   W01
 BYTE   N32  Gn4
 BYTE   W36
 BYTE   N68  Fs4
 BYTE   W48
//  #06 //029   ----------------------------------------
 BYTE   W24
 BYTE   Dn4
 BYTE   W72
//  #06 //030   ----------------------------------------
 BYTE   TIE  En4
 BYTE   W96
//  #06 //031   ----------------------------------------
 BYTE   W11
 BYTE   EOT
 BYTE   W01
 BYTE   N32  Gn4
 BYTE   W36
 BYTE   N68  Fs4
 BYTE   W48
//  #06 //032   ----------------------------------------
 BYTE   W24
 BYTE   Dn4
 BYTE   W72
//  #06 //033   ----------------------------------------
 BYTE   TIE  En4
 BYTE   W96
//  #06 //034   ----------------------------------------
 BYTE   W11
 BYTE   EOT
 BYTE   W01
 BYTE   N32  Gn4
 BYTE   W36
 BYTE   N68  Fs4
 BYTE   W48
//  #06 //035   ----------------------------------------
 BYTE   W24
 BYTE   Dn4
 BYTE   W72
//  #06 //036   ----------------------------------------
 BYTE   TIE  En4
 BYTE   W96
//  #06 //037   ----------------------------------------
 BYTE   W11
 BYTE   EOT
 BYTE   W01
 BYTE   N32  Gn4
 BYTE   W36
 BYTE   N68  Fs4
 BYTE   W48
//  #06 //038   ----------------------------------------
 BYTE   W24
 BYTE   Dn4
 BYTE   W72
//  #06 //039   ----------------------------------------
Label_0145E0C5:
 BYTE   W56
 BYTE   W03
 BYTE   VOICE   52
 BYTE   VOL   0*song09_mvl/mxv
 BYTE   W01
 BYTE   TIE  Bn3  v080
 BYTE   W05
 BYTE   VOL   0*song09_mvl/mxv
 BYTE   W03
 BYTE   VOL   1*song09_mvl/mxv
 BYTE   W04
 BYTE   VOL   1*song09_mvl/mxv
 BYTE   W05
 BYTE   VOL   1*song09_mvl/mxv
 BYTE   W03
 BYTE   VOL   1*song09_mvl/mxv
 BYTE   W04
 BYTE   VOL   3*song09_mvl/mxv
 BYTE   W03
 BYTE   VOL   3*song09_mvl/mxv
 BYTE   W05
 BYTE   VOL   4*song09_mvl/mxv
 BYTE   W03
 BYTE   VOL   4*song09_mvl/mxv
 BYTE   W01
 BYTE   PEND 
//  #06 //040   ----------------------------------------
 BYTE   PATT
  POIN2 Label_0145DF21
//  #06 //041   ----------------------------------------
 BYTE   PATT
  POIN2 Label_0145DF54
//  #06 //042   ----------------------------------------
 BYTE   PATT
  POIN2 Label_0145DF7C
//  #06 //043   ----------------------------------------
 BYTE   EOT
 BYTE   Bn3
 BYTE   VOL   0*song09_mvl/mxv
 BYTE   W01
 BYTE   TIE  An3  v080
 BYTE   W05
 BYTE   VOL   0*song09_mvl/mxv
 BYTE   W03
 BYTE   VOL   1*song09_mvl/mxv
 BYTE   W04
 BYTE   VOL   1*song09_mvl/mxv
 BYTE   W05
 BYTE   VOL   1*song09_mvl/mxv
 BYTE   W03
 BYTE   VOL   1*song09_mvl/mxv
 BYTE   W04
 BYTE   VOL   3*song09_mvl/mxv
 BYTE   W03
 BYTE   VOL   3*song09_mvl/mxv
 BYTE   W05
 BYTE   VOL   4*song09_mvl/mxv
 BYTE   W03
 BYTE   VOL   4*song09_mvl/mxv
 BYTE   W01
//  #06 //044   ----------------------------------------
 BYTE   PATT
  POIN2 Label_0145DF21
//  #06 //045   ----------------------------------------
 BYTE   PATT
  POIN2 Label_0145DF54
//  #06 //046   ----------------------------------------
 BYTE   PATT
  POIN2 Label_0145DF7C
//  #06 //047   ----------------------------------------
 BYTE   EOT
 BYTE   An3
 BYTE   VOL   0*song09_mvl/mxv
 BYTE   W01
 BYTE   TIE  Bn3  v080
 BYTE   W05
 BYTE   VOL   0*song09_mvl/mxv
 BYTE   W03
 BYTE   VOL   1*song09_mvl/mxv
 BYTE   W04
 BYTE   VOL   1*song09_mvl/mxv
 BYTE   W05
 BYTE   VOL   1*song09_mvl/mxv
 BYTE   W03
 BYTE   VOL   1*song09_mvl/mxv
 BYTE   W04
 BYTE   VOL   3*song09_mvl/mxv
 BYTE   W03
 BYTE   VOL   3*song09_mvl/mxv
 BYTE   W05
 BYTE   VOL   4*song09_mvl/mxv
 BYTE   W03
 BYTE   VOL   4*song09_mvl/mxv
 BYTE   W01
//  #06 //048   ----------------------------------------
 BYTE   PATT
  POIN2 Label_0145DF21
//  #06 //049   ----------------------------------------
 BYTE   PATT
  POIN2 Label_0145DF54
//  #06 //050   ----------------------------------------
 BYTE   PATT
  POIN2 Label_0145DF7C
//  #06 //051   ----------------------------------------
 BYTE   EOT
 BYTE   Bn3
 BYTE   VOL   0*song09_mvl/mxv
 BYTE   W01
 BYTE   TIE  An3  v080
 BYTE   W05
 BYTE   VOL   0*song09_mvl/mxv
 BYTE   W03
 BYTE   VOL   1*song09_mvl/mxv
 BYTE   W04
 BYTE   VOL   1*song09_mvl/mxv
 BYTE   W05
 BYTE   VOL   1*song09_mvl/mxv
 BYTE   W03
 BYTE   VOL   1*song09_mvl/mxv
 BYTE   W04
 BYTE   VOL   3*song09_mvl/mxv
 BYTE   W03
 BYTE   VOL   3*song09_mvl/mxv
 BYTE   W05
 BYTE   VOL   4*song09_mvl/mxv
 BYTE   W03
 BYTE   VOL   4*song09_mvl/mxv
 BYTE   W01
//  #06 //052   ----------------------------------------
 BYTE   PATT
  POIN2 Label_0145DF21
//  #06 //053   ----------------------------------------
 BYTE   PATT
  POIN2 Label_0145DF54
//  #06 //054   ----------------------------------------
 BYTE   PATT
  POIN2 Label_0145DF7C
//  #06 //055   ----------------------------------------
 BYTE   EOT
 BYTE   An3
 BYTE   VOICE   52
 BYTE   VOL   30*song09_mvl/mxv
 BYTE   W01
 BYTE   N80  En3  v080
 BYTE   W12
 BYTE   GoTo
  POIN2 Label_0145E029
//  #06 //056   ----------------------------------------
 BYTE   W24
 BYTE   W48
 BYTE   N68  Fs3  v080
 BYTE   W48
//  #06 //057   ----------------------------------------
 BYTE   W24
 BYTE   An3
 BYTE   W72
//  #06 //058   ----------------------------------------
 BYTE   PATT
  POIN2 Label_0145E032
//  #06 //059   ----------------------------------------
 BYTE   W48
 BYTE   N68  An3  v080
 BYTE   W48
//  #06 //060   ----------------------------------------
 BYTE   W24
 BYTE   Dn4
 BYTE   W72
//  #06 //061   ----------------------------------------
 BYTE   W60
 BYTE   N80  En3
 BYTE   W36
//  #06 //062   ----------------------------------------
 BYTE   W48
 BYTE   N68  Fs3
 BYTE   W48
//  #06 //063   ----------------------------------------
 BYTE   W24
 BYTE   An3
 BYTE   W72
//  #06 //064   ----------------------------------------
 BYTE   PATT
  POIN2 Label_0145E032
//  #06 //065   ----------------------------------------
 BYTE   W48
 BYTE   N68  An3  v080
 BYTE   W48
//  #06 //066   ----------------------------------------
 BYTE   PATT
  POIN2 Label_0145E054
//  #06 //067   ----------------------------------------
 BYTE   PATT
  POIN2 Label_0145E083
//  #06 //068   ----------------------------------------
 BYTE   W11
 BYTE   EOT
 BYTE   En4
 BYTE   W01
 BYTE   N32  Gn4  v080
 BYTE   W36
 BYTE   N68  Fs4
 BYTE   W48
//  #06 //069   ----------------------------------------
 BYTE   W24
 BYTE   Dn4
 BYTE   W72
//  #06 //070   ----------------------------------------
 BYTE   TIE  En4
 BYTE   W96
//  #06 //071   ----------------------------------------
 BYTE   W11
 BYTE   EOT
 BYTE   W01
 BYTE   N32  Gn4
 BYTE   W36
 BYTE   N68  Fs4
 BYTE   W48
//  #06 //072   ----------------------------------------
 BYTE   W24
 BYTE   Dn4
 BYTE   W72
//  #06 //073   ----------------------------------------
 BYTE   TIE  En4
 BYTE   W96
//  #06 //074   ----------------------------------------
 BYTE   W11
 BYTE   EOT
 BYTE   W01
 BYTE   N32  Gn4
 BYTE   W36
 BYTE   N68  Fs4
 BYTE   W48
//  #06 //075   ----------------------------------------
 BYTE   W24
 BYTE   Dn4
 BYTE   W72
//  #06 //076   ----------------------------------------
 BYTE   TIE  En4
 BYTE   W96
//  #06 //077   ----------------------------------------
 BYTE   W11
 BYTE   EOT
 BYTE   W01
 BYTE   N32  Gn4
 BYTE   W36
 BYTE   N68  Fs4
 BYTE   W48
//  #06 //078   ----------------------------------------
 BYTE   W24
 BYTE   Dn4
 BYTE   W72
//  #06 //079   ----------------------------------------
 BYTE   PATT
  POIN2 Label_0145E0C5
//  #06 //080   ----------------------------------------
 BYTE   PATT
  POIN2 Label_0145DF21
//  #06 //081   ----------------------------------------
 BYTE   PATT
  POIN2 Label_0145DF54
//  #06 //082   ----------------------------------------
 BYTE   PATT
  POIN2 Label_0145DF7C
//  #06 //083   ----------------------------------------
 BYTE   EOT
 BYTE   Bn3
 BYTE   VOL   0*song09_mvl/mxv
 BYTE   W01
 BYTE   TIE  An3  v080
 BYTE   W05
 BYTE   VOL   0*song09_mvl/mxv
 BYTE   W03
 BYTE   VOL   1*song09_mvl/mxv
 BYTE   W04
 BYTE   VOL   1*song09_mvl/mxv
 BYTE   W05
 BYTE   VOL   1*song09_mvl/mxv
 BYTE   W03
 BYTE   VOL   1*song09_mvl/mxv
 BYTE   W04
 BYTE   VOL   3*song09_mvl/mxv
 BYTE   W03
 BYTE   VOL   3*song09_mvl/mxv
 BYTE   W05
 BYTE   VOL   4*song09_mvl/mxv
 BYTE   W03
 BYTE   VOL   4*song09_mvl/mxv
 BYTE   W01
//  #06 //084   ----------------------------------------
 BYTE   PATT
  POIN2 Label_0145DF21
//  #06 //085   ----------------------------------------
 BYTE   PATT
  POIN2 Label_0145DF54
//  #06 //086   ----------------------------------------
 BYTE   PATT
  POIN2 Label_0145DF7C
//  #06 //087   ----------------------------------------
 BYTE   EOT
 BYTE   An3
 BYTE   VOL   0*song09_mvl/mxv
 BYTE   W01
 BYTE   TIE  Bn3  v080
 BYTE   W05
 BYTE   VOL   0*song09_mvl/mxv
 BYTE   W03
 BYTE   VOL   1*song09_mvl/mxv
 BYTE   W04
 BYTE   VOL   1*song09_mvl/mxv
 BYTE   W05
 BYTE   VOL   1*song09_mvl/mxv
 BYTE   W03
 BYTE   VOL   1*song09_mvl/mxv
 BYTE   W04
 BYTE   VOL   3*song09_mvl/mxv
 BYTE   W03
 BYTE   VOL   3*song09_mvl/mxv
 BYTE   W05
 BYTE   VOL   4*song09_mvl/mxv
 BYTE   W03
 BYTE   VOL   4*song09_mvl/mxv
 BYTE   W01
//  #06 //088   ----------------------------------------
 BYTE   PATT
  POIN2 Label_0145DF21
//  #06 //089   ----------------------------------------
 BYTE   PATT
  POIN2 Label_0145DF54
//  #06 //090   ----------------------------------------
 BYTE   PATT
  POIN2 Label_0145DF7C
//  #06 //091   ----------------------------------------
 BYTE   EOT
 BYTE   Bn3
 BYTE   VOL   0*song09_mvl/mxv
 BYTE   W01
 BYTE   TIE  An3  v080
 BYTE   W05
 BYTE   VOL   0*song09_mvl/mxv
 BYTE   W03
 BYTE   VOL   1*song09_mvl/mxv
 BYTE   W04
 BYTE   VOL   1*song09_mvl/mxv
 BYTE   W05
 BYTE   VOL   1*song09_mvl/mxv
 BYTE   W03
 BYTE   VOL   1*song09_mvl/mxv
 BYTE   W04
 BYTE   VOL   3*song09_mvl/mxv
 BYTE   W03
 BYTE   VOL   3*song09_mvl/mxv
 BYTE   W05
 BYTE   VOL   4*song09_mvl/mxv
 BYTE   W03
 BYTE   VOL   4*song09_mvl/mxv
 BYTE   W01
//  #06 //092   ----------------------------------------
 BYTE   PATT
  POIN2 Label_0145DF21
//  #06 //093   ----------------------------------------
 BYTE   PATT
  POIN2 Label_0145DF54
//  #06 //094   ----------------------------------------
 BYTE   PATT
  POIN2 Label_0145DF7C
//  #06 //095   ----------------------------------------
 BYTE   EOT
 BYTE   An3
 BYTE   VOICE   52
 BYTE   VOL   30*song09_mvl/mxv
 BYTE   W01
 BYTE   N80  En3  v080
 BYTE   W36
 BYTE   W48
 BYTE   N68  Fs3
 BYTE   W48
//  #06 //096   ----------------------------------------
 BYTE   W24
 BYTE   An3
 BYTE   W72
//  #06 //097   ----------------------------------------
 BYTE   PATT
  POIN2 Label_0145E032
//  #06 //098   ----------------------------------------
 BYTE   W48
 BYTE   N68  An3  v080
 BYTE   W48
//  #06 //099   ----------------------------------------
 BYTE   W24
 BYTE   Dn4
 BYTE   W72
//  #06 //100   ----------------------------------------
 BYTE   W60
 BYTE   N80  En3
 BYTE   W36
//  #06 //101   ----------------------------------------
 BYTE   W48
 BYTE   N68  Fs3
 BYTE   W48
//  #06 //102   ----------------------------------------
 BYTE   W24
 BYTE   An3
 BYTE   W72
//  #06 //103   ----------------------------------------
 BYTE   PATT
  POIN2 Label_0145E032
//  #06 //104   ----------------------------------------
 BYTE   W48
 BYTE   N68  An3  v080
 BYTE   W48
//  #06 //105   ----------------------------------------
 BYTE   PATT
  POIN2 Label_0145E054
//  #06 //106   ----------------------------------------
 BYTE   PATT
  POIN2 Label_0145E083
//  #06 //107   ----------------------------------------
 BYTE   W11
 BYTE   EOT
 BYTE   En4
 BYTE   W01
 BYTE   N32  Gn4  v080
 BYTE   W36
 BYTE   N68  Fs4
 BYTE   W48
//  #06 //108   ----------------------------------------
 BYTE   W24
 BYTE   Dn4
 BYTE   W72
//  #06 //109   ----------------------------------------
 BYTE   TIE  En4
 BYTE   W96
//  #06 //110   ----------------------------------------
 BYTE   W11
 BYTE   EOT
 BYTE   W01
 BYTE   N32  Gn4
 BYTE   W36
 BYTE   N68  Fs4
 BYTE   W48
//  #06 //111   ----------------------------------------
 BYTE   W24
 BYTE   Dn4
 BYTE   W72
//  #06 //112   ----------------------------------------
 BYTE   TIE  En4
 BYTE   W96
//  #06 //113   ----------------------------------------
 BYTE   W11
 BYTE   EOT
 BYTE   W01
 BYTE   N32  Gn4
 BYTE   W36
 BYTE   N68  Fs4
 BYTE   W48
//  #06 //114   ----------------------------------------
 BYTE   W24
 BYTE   Dn4
 BYTE   W72
//  #06 //115   ----------------------------------------
 BYTE   TIE  En4
 BYTE   W96
//  #06 //116   ----------------------------------------
 BYTE   W11
 BYTE   EOT
 BYTE   W01
 BYTE   N32  Gn4
 BYTE   W36
 BYTE   N68  Fs4
 BYTE   W48
//  #06 //117   ----------------------------------------
 BYTE   W24
 BYTE   Dn4
 BYTE   W72
//  #06 //118   ----------------------------------------
 BYTE   PATT
  POIN2 Label_0145E0C5
//  #06 //119   ----------------------------------------
 BYTE   PATT
  POIN2 Label_0145DF21
//  #06 //120   ----------------------------------------
 BYTE   PATT
  POIN2 Label_0145DF54
//  #06 //121   ----------------------------------------
 BYTE   PATT
  POIN2 Label_0145DF7C
//  #06 //122   ----------------------------------------
 BYTE   EOT
 BYTE   Bn3
 BYTE   VOL   0*song09_mvl/mxv
 BYTE   W01
 BYTE   TIE  An3  v080
 BYTE   W05
 BYTE   VOL   0*song09_mvl/mxv
 BYTE   W03
 BYTE   VOL   1*song09_mvl/mxv
 BYTE   W04
 BYTE   VOL   1*song09_mvl/mxv
 BYTE   W05
 BYTE   VOL   1*song09_mvl/mxv
 BYTE   W03
 BYTE   VOL   1*song09_mvl/mxv
 BYTE   W04
 BYTE   VOL   3*song09_mvl/mxv
 BYTE   W03
 BYTE   VOL   3*song09_mvl/mxv
 BYTE   W05
 BYTE   VOL   4*song09_mvl/mxv
 BYTE   W03
 BYTE   VOL   4*song09_mvl/mxv
 BYTE   W01
//  #06 //123   ----------------------------------------
 BYTE   PATT
  POIN2 Label_0145DF21
//  #06 //124   ----------------------------------------
 BYTE   PATT
  POIN2 Label_0145DF54
//  #06 //125   ----------------------------------------
 BYTE   PATT
  POIN2 Label_0145DF7C
//  #06 //126   ----------------------------------------
 BYTE   EOT
 BYTE   An3
 BYTE   VOL   0*song09_mvl/mxv
 BYTE   W01
 BYTE   TIE  Bn3  v080
 BYTE   W05
 BYTE   VOL   0*song09_mvl/mxv
 BYTE   W03
 BYTE   VOL   1*song09_mvl/mxv
 BYTE   W04
 BYTE   VOL   1*song09_mvl/mxv
 BYTE   W05
 BYTE   VOL   1*song09_mvl/mxv
 BYTE   W03
 BYTE   VOL   1*song09_mvl/mxv
 BYTE   W04
 BYTE   VOL   3*song09_mvl/mxv
 BYTE   W03
 BYTE   VOL   3*song09_mvl/mxv
 BYTE   W05
 BYTE   VOL   4*song09_mvl/mxv
 BYTE   W03
 BYTE   VOL   4*song09_mvl/mxv
 BYTE   W01
//  #06 //127   ----------------------------------------
 BYTE   PATT
  POIN2 Label_0145DF21
//  #06 //128   ----------------------------------------
 BYTE   PATT
  POIN2 Label_0145DF54
//  #06 //129   ----------------------------------------
 BYTE   PATT
  POIN2 Label_0145DF7C
//  #06 //130   ----------------------------------------
 BYTE   EOT
 BYTE   Bn3
 BYTE   VOL   0*song09_mvl/mxv
 BYTE   W01
 BYTE   TIE  An3  v080
 BYTE   W05
 BYTE   VOL   0*song09_mvl/mxv
 BYTE   W03
 BYTE   VOL   1*song09_mvl/mxv
 BYTE   W04
 BYTE   VOL   1*song09_mvl/mxv
 BYTE   W05
 BYTE   VOL   1*song09_mvl/mxv
 BYTE   W03
 BYTE   VOL   1*song09_mvl/mxv
 BYTE   W04
 BYTE   VOL   3*song09_mvl/mxv
 BYTE   W03
 BYTE   VOL   3*song09_mvl/mxv
 BYTE   W05
 BYTE   VOL   4*song09_mvl/mxv
 BYTE   W03
 BYTE   VOL   4*song09_mvl/mxv
 BYTE   W01
//  #06 //131   ----------------------------------------
 BYTE   PATT
  POIN2 Label_0145DF21
//  #06 //132   ----------------------------------------
 BYTE   PATT
  POIN2 Label_0145DF54
//  #06 //133   ----------------------------------------
 BYTE   PATT
  POIN2 Label_0145DF7C
//  #06 //134   ----------------------------------------
 BYTE   EOT
 BYTE   An3
 BYTE   VOICE   52
 BYTE   VOL   30*song09_mvl/mxv
 BYTE   W01
 BYTE   N80  En3  v080
 BYTE   W36
 BYTE   W48
 BYTE   N68  Fs3
 BYTE   W48
//  #06 //135   ----------------------------------------
 BYTE   W24
 BYTE   An3
 BYTE   W72
//  #06 //136   ----------------------------------------
 BYTE   PATT
  POIN2 Label_0145E032
//  #06 //137   ----------------------------------------
 BYTE   W48
 BYTE   N68  An3  v080
 BYTE   W48
//  #06 //138   ----------------------------------------
 BYTE   W24
 BYTE   Dn4
 BYTE   W72
//  #06 //139   ----------------------------------------
 BYTE   W60
 BYTE   N80  En3
 BYTE   W36
//  #06 //140   ----------------------------------------
 BYTE   W48
 BYTE   N68  Fs3
 BYTE   W48
//  #06 //141   ----------------------------------------
 BYTE   W24
 BYTE   An3
 BYTE   W72
//  #06 //142   ----------------------------------------
 BYTE   PATT
  POIN2 Label_0145E032
//  #06 //143   ----------------------------------------
 BYTE   W48
 BYTE   N68  An3  v080
 BYTE   W48
//  #06 //144   ----------------------------------------
 BYTE   PATT
  POIN2 Label_0145E054
//  #06 //145   ----------------------------------------
 BYTE   PATT
  POIN2 Label_0145E083
//  #06 //146   ----------------------------------------
 BYTE   W11
 BYTE   EOT
 BYTE   En4
 BYTE   W01
 BYTE   N32  Gn4  v080
 BYTE   W36
 BYTE   N68  Fs4
 BYTE   W48
//  #06 //147   ----------------------------------------
 BYTE   W24
 BYTE   Dn4
 BYTE   W72
//  #06 //148   ----------------------------------------
 BYTE   TIE  En4
 BYTE   W96
//  #06 //149   ----------------------------------------
 BYTE   W11
 BYTE   EOT
 BYTE   W01
 BYTE   N32  Gn4
 BYTE   W36
 BYTE   N68  Fs4
 BYTE   W48
//  #06 //150   ----------------------------------------
 BYTE   W24
 BYTE   Dn4
 BYTE   W72
//  #06 //151   ----------------------------------------
 BYTE   TIE  En4
 BYTE   W96
//  #06 //152   ----------------------------------------
 BYTE   W11
 BYTE   EOT
 BYTE   W01
 BYTE   N32  Gn4
 BYTE   W36
 BYTE   N68  Fs4
 BYTE   W48
//  #06 //153   ----------------------------------------
 BYTE   W24
 BYTE   Dn4
 BYTE   W72
//  #06 //154   ----------------------------------------
 BYTE   TIE  En4
 BYTE   W96
//  #06 //155   ----------------------------------------
 BYTE   W11
 BYTE   EOT
 BYTE   W01
 BYTE   N32  Gn4
 BYTE   W36
 BYTE   N68  Fs4
 BYTE   W48
//  #06 //156   ----------------------------------------
 BYTE   W24
 BYTE   Dn4
 BYTE   W72
//  #06 //157   ----------------------------------------
 BYTE   PATT
  POIN2 Label_0145E0C5
//  #06 //158   ----------------------------------------
 BYTE   PATT
  POIN2 Label_0145DF21
//  #06 //159   ----------------------------------------
 BYTE   PATT
  POIN2 Label_0145DF54
//  #06 //160   ----------------------------------------
 BYTE   PATT
  POIN2 Label_0145DF7C
//  #06 //161   ----------------------------------------
 BYTE   EOT
 BYTE   Bn3
 BYTE   VOL   0*song09_mvl/mxv
 BYTE   W01
 BYTE   TIE  An3  v080
 BYTE   W05
 BYTE   VOL   0*song09_mvl/mxv
 BYTE   W03
 BYTE   VOL   1*song09_mvl/mxv
 BYTE   W04
 BYTE   VOL   1*song09_mvl/mxv
 BYTE   W05
 BYTE   VOL   1*song09_mvl/mxv
 BYTE   W03
 BYTE   VOL   1*song09_mvl/mxv
 BYTE   W04
 BYTE   VOL   3*song09_mvl/mxv
 BYTE   W03
 BYTE   VOL   3*song09_mvl/mxv
 BYTE   W05
 BYTE   VOL   4*song09_mvl/mxv
 BYTE   W03
 BYTE   VOL   4*song09_mvl/mxv
 BYTE   W01
//  #06 //162   ----------------------------------------
 BYTE   PATT
  POIN2 Label_0145DF21
//  #06 //163   ----------------------------------------
 BYTE   PATT
  POIN2 Label_0145DF54
//  #06 //164   ----------------------------------------
 BYTE   W56
 BYTE   W03
 BYTE   EOT
 BYTE   An3
 BYTE   FINE

//**************** Track 7 (Midi-Chn.6) ****************//

song09_007:
//  #07 //000   ----------------------------------------
 BYTE   KEYSH   song09_key+0
 BYTE   MODT 0
 BYTE   LFOS 44
 BYTE   W24
 BYTE   VOICE   52
 BYTE   VOL   45*song09_mvl/mxv
 BYTE   PAN   c_v+0
 BYTE   W96
//  #07 //001   ----------------------------------------
 BYTE   W96
//  #07 //002   ----------------------------------------
 BYTE   W96
//  #07 //003   ----------------------------------------
 BYTE   W96
//  #07 //004   ----------------------------------------
 BYTE   W96
//  #07 //005   ----------------------------------------
 BYTE   W96
//  #07 //006   ----------------------------------------
 BYTE   W96
//  #07 //007   ----------------------------------------
 BYTE   W96
//  #07 //008   ----------------------------------------
 BYTE   W96
//  #07 //009   ----------------------------------------
 BYTE   W96
//  #07 //010   ----------------------------------------
 BYTE   W96
//  #07 //011   ----------------------------------------
 BYTE   W96
//  #07 //012   ----------------------------------------
Label_0145AA91:
 BYTE   W56
 BYTE   W03
 BYTE   VOICE   52
 BYTE   VOL   20*song09_mvl/mxv
 BYTE   W01
 BYTE   PAN   c_v-20
 BYTE   N80  Cn3  v060
 BYTE   W12
 BYTE   PEND 
Label_0145AA9F:
 BYTE   W24
//  #07 //013   ----------------------------------------
 BYTE   W48
 BYTE   N68  Dn3  v060
 BYTE   W48
//  #07 //014   ----------------------------------------
 BYTE   W24
 BYTE   Fs3
 BYTE   W72
//  #07 //015   ----------------------------------------
Label_0145AAA8:
 BYTE   N68  En3  v076
 BYTE   W72
 BYTE   Gn3  v060
 BYTE   W24
 BYTE   PEND 
//  #07 //016   ----------------------------------------
 BYTE   W48
 BYTE   Fs3
 BYTE   W48
//  #07 //017   ----------------------------------------
 BYTE   W24
 BYTE   An3
 BYTE   W72
//  #07 //018   ----------------------------------------
 BYTE   W60
 BYTE   N80  Cn3
 BYTE   W36
//  #07 //019   ----------------------------------------
 BYTE   W48
 BYTE   N68  Dn3
 BYTE   W48
//  #07 //020   ----------------------------------------
 BYTE   W24
 BYTE   Fs3
 BYTE   W72
//  #07 //021   ----------------------------------------
 BYTE   En3
 BYTE   W72
 BYTE   Gn3
 BYTE   W24
//  #07 //022   ----------------------------------------
 BYTE   W48
 BYTE   Fs3
 BYTE   W48
//  #07 //023   ----------------------------------------
Label_0145AAC8:
 BYTE   W24
 BYTE   VOL   22*song09_mvl/mxv
 BYTE   N68  An3  v060
 BYTE   W03
 BYTE   VOL   23*song09_mvl/mxv
 BYTE   W03
 BYTE   VOL   23*song09_mvl/mxv
 BYTE   W03
 BYTE   VOL   23*song09_mvl/mxv
 BYTE   W03
 BYTE   VOL   26*song09_mvl/mxv
 BYTE   W03
 BYTE   VOL   27*song09_mvl/mxv
 BYTE   W03
 BYTE   VOL   27*song09_mvl/mxv
 BYTE   W06
 BYTE   VOL   29*song09_mvl/mxv
 BYTE   W03
 BYTE   VOL   29*song09_mvl/mxv
 BYTE   W03
 BYTE   VOL   30*song09_mvl/mxv
 BYTE   W03
 BYTE   VOL   31*song09_mvl/mxv
 BYTE   W03
 BYTE   VOL   32*song09_mvl/mxv
 BYTE   W03
 BYTE   VOL   33*song09_mvl/mxv
 BYTE   W03
 BYTE   VOL   34*song09_mvl/mxv
 BYTE   W03
 BYTE   VOL   34*song09_mvl/mxv
 BYTE   W03
 BYTE   VOL   36*song09_mvl/mxv
 BYTE   W03
 BYTE   VOL   37*song09_mvl/mxv
 BYTE   W03
 BYTE   VOL   37*song09_mvl/mxv
 BYTE   W03
 BYTE   VOL   38*song09_mvl/mxv
 BYTE   W03
 BYTE   VOL   40*song09_mvl/mxv
 BYTE   W03
 BYTE   VOL   40*song09_mvl/mxv
 BYTE   W03
 BYTE   VOL   40*song09_mvl/mxv
 BYTE   W03
 BYTE   VOL   42*song09_mvl/mxv
 BYTE   W02
 BYTE   PAN   c_v-40
 BYTE   VOL   43*song09_mvl/mxv
 BYTE   W01
 BYTE   PEND 
//  #07 //024   ----------------------------------------
Label_0145AB02:
 BYTE   VOL   43*song09_mvl/mxv
 BYTE   TIE  Gn3  v060
 BYTE   W03
 BYTE   VOL   45*song09_mvl/mxv
 BYTE   W92
 BYTE   W01
 BYTE   PEND 
//  #07 //025   ----------------------------------------
 BYTE   W11
 BYTE   EOT
 BYTE   W01
 BYTE   N32  Bn3
 BYTE   W36
 BYTE   N68  An3
 BYTE   W48
//  #07 //026   ----------------------------------------
 BYTE   W24
 BYTE   Fs3
 BYTE   W72
//  #07 //027   ----------------------------------------
 BYTE   TIE  Gn3
 BYTE   W96
//  #07 //028   ----------------------------------------
 BYTE   W11
 BYTE   EOT
 BYTE   W01
 BYTE   N32  Bn3
 BYTE   W36
 BYTE   N68  An3
 BYTE   W48
//  #07 //029   ----------------------------------------
 BYTE   W24
 BYTE   Fs3
 BYTE   W72
//  #07 //030   ----------------------------------------
 BYTE   TIE  Gn3
 BYTE   W96
//  #07 //031   ----------------------------------------
 BYTE   W11
 BYTE   EOT
 BYTE   W01
 BYTE   N32  Bn3
 BYTE   W36
 BYTE   N68  An3
 BYTE   W48
//  #07 //032   ----------------------------------------
 BYTE   W24
 BYTE   Fs3
 BYTE   W72
//  #07 //033   ----------------------------------------
 BYTE   TIE  Gn3
 BYTE   W96
//  #07 //034   ----------------------------------------
 BYTE   W11
 BYTE   EOT
 BYTE   W01
 BYTE   N32  Bn3
 BYTE   W36
 BYTE   N68  An3
 BYTE   W48
//  #07 //035   ----------------------------------------
 BYTE   W24
 BYTE   Fs3
 BYTE   W72
//  #07 //036   ----------------------------------------
Label_0145AB46:
 BYTE   W56
 BYTE   W03
 BYTE   VOICE   52
 BYTE   PAN   c_v+0
 BYTE   W36
 BYTE   W01
 BYTE   PEND 
//  #07 //037   ----------------------------------------
 BYTE   W96
//  #07 //038   ----------------------------------------
 BYTE   W96
//  #07 //039   ----------------------------------------
 BYTE   W96
//  #07 //040   ----------------------------------------
 BYTE   W96
//  #07 //041   ----------------------------------------
 BYTE   W96
//  #07 //042   ----------------------------------------
 BYTE   W96
//  #07 //043   ----------------------------------------
 BYTE   W96
//  #07 //044   ----------------------------------------
 BYTE   W96
//  #07 //045   ----------------------------------------
 BYTE   W96
//  #07 //046   ----------------------------------------
 BYTE   W96
//  #07 //047   ----------------------------------------
 BYTE   W96
//  #07 //048   ----------------------------------------
 BYTE   PATT
  POIN2 Label_0145AA91
//  #07 //049   ----------------------------------------
 BYTE   GoTo
  POIN2 Label_0145AA9F
//  #07 //050   ----------------------------------------
 BYTE   W24
 BYTE   W48
 BYTE   N68  Dn3  v060
 BYTE   W48
//  #07 //051   ----------------------------------------
 BYTE   W24
 BYTE   Fs3
 BYTE   W72
//  #07 //052   ----------------------------------------
 BYTE   PATT
  POIN2 Label_0145AAA8
//  #07 //053   ----------------------------------------
 BYTE   W48
 BYTE   N68  Fs3  v060
 BYTE   W48
//  #07 //054   ----------------------------------------
 BYTE   W24
 BYTE   An3
 BYTE   W72
//  #07 //055   ----------------------------------------
 BYTE   W60
 BYTE   N80  Cn3
 BYTE   W36
//  #07 //056   ----------------------------------------
 BYTE   W48
 BYTE   N68  Dn3
 BYTE   W48
//  #07 //057   ----------------------------------------
 BYTE   W24
 BYTE   Fs3
 BYTE   W72
//  #07 //058   ----------------------------------------
 BYTE   En3
 BYTE   W72
 BYTE   Gn3
 BYTE   W24
//  #07 //059   ----------------------------------------
 BYTE   W48
 BYTE   Fs3
 BYTE   W48
//  #07 //060   ----------------------------------------
 BYTE   PATT
  POIN2 Label_0145AAC8
//  #07 //061   ----------------------------------------
 BYTE   PATT
  POIN2 Label_0145AB02
//  #07 //062   ----------------------------------------
 BYTE   W11
 BYTE   EOT
 BYTE   Gn3
 BYTE   W01
 BYTE   N32  Bn3  v060
 BYTE   W36
 BYTE   N68  An3
 BYTE   W48
//  #07 //063   ----------------------------------------
 BYTE   W24
 BYTE   Fs3
 BYTE   W72
//  #07 //064   ----------------------------------------
 BYTE   TIE  Gn3
 BYTE   W96
//  #07 //065   ----------------------------------------
 BYTE   W11
 BYTE   EOT
 BYTE   W01
 BYTE   N32  Bn3
 BYTE   W36
 BYTE   N68  An3
 BYTE   W48
//  #07 //066   ----------------------------------------
 BYTE   W24
 BYTE   Fs3
 BYTE   W72
//  #07 //067   ----------------------------------------
 BYTE   TIE  Gn3
 BYTE   W96
//  #07 //068   ----------------------------------------
 BYTE   W11
 BYTE   EOT
 BYTE   W01
 BYTE   N32  Bn3
 BYTE   W36
 BYTE   N68  An3
 BYTE   W48
//  #07 //069   ----------------------------------------
 BYTE   W24
 BYTE   Fs3
 BYTE   W72
//  #07 //070   ----------------------------------------
 BYTE   TIE  Gn3
 BYTE   W96
//  #07 //071   ----------------------------------------
 BYTE   W11
 BYTE   EOT
 BYTE   W01
 BYTE   N32  Bn3
 BYTE   W36
 BYTE   N68  An3
 BYTE   W48
//  #07 //072   ----------------------------------------
 BYTE   W24
 BYTE   Fs3
 BYTE   W72
//  #07 //073   ----------------------------------------
 BYTE   PATT
  POIN2 Label_0145AB46
//  #07 //074   ----------------------------------------
 BYTE   W96
//  #07 //075   ----------------------------------------
 BYTE   W96
//  #07 //076   ----------------------------------------
 BYTE   W96
//  #07 //077   ----------------------------------------
 BYTE   W96
//  #07 //078   ----------------------------------------
 BYTE   W96
//  #07 //079   ----------------------------------------
 BYTE   W96
//  #07 //080   ----------------------------------------
 BYTE   W96
//  #07 //081   ----------------------------------------
 BYTE   W96
//  #07 //082   ----------------------------------------
 BYTE   W96
//  #07 //083   ----------------------------------------
 BYTE   W96
//  #07 //084   ----------------------------------------
 BYTE   W96
//  #07 //085   ----------------------------------------
Label_0145ABE1:
 BYTE   W56
 BYTE   W03
 BYTE   VOICE   52
 BYTE   VOL   20*song09_mvl/mxv
 BYTE   W01
 BYTE   PAN   c_v-20
 BYTE   N80  Cn3  v060
 BYTE   W36
 BYTE   PEND 
//  #07 //086   ----------------------------------------
 BYTE   W48
 BYTE   N68  Dn3
 BYTE   W48
//  #07 //087   ----------------------------------------
 BYTE   W24
 BYTE   Fs3
 BYTE   W72
//  #07 //088   ----------------------------------------
 BYTE   PATT
  POIN2 Label_0145AAA8
//  #07 //089   ----------------------------------------
 BYTE   W48
 BYTE   N68  Fs3  v060
 BYTE   W48
//  #07 //090   ----------------------------------------
 BYTE   W24
 BYTE   An3
 BYTE   W72
//  #07 //091   ----------------------------------------
 BYTE   W60
 BYTE   N80  Cn3
 BYTE   W36
//  #07 //092   ----------------------------------------
 BYTE   W48
 BYTE   N68  Dn3
 BYTE   W48
//  #07 //093   ----------------------------------------
 BYTE   W24
 BYTE   Fs3
 BYTE   W72
//  #07 //094   ----------------------------------------
 BYTE   En3
 BYTE   W72
 BYTE   Gn3
 BYTE   W24
//  #07 //095   ----------------------------------------
 BYTE   W48
 BYTE   Fs3
 BYTE   W48
//  #07 //096   ----------------------------------------
 BYTE   PATT
  POIN2 Label_0145AAC8
//  #07 //097   ----------------------------------------
 BYTE   PATT
  POIN2 Label_0145AB02
//  #07 //098   ----------------------------------------
 BYTE   W11
 BYTE   EOT
 BYTE   Gn3
 BYTE   W01
 BYTE   N32  Bn3  v060
 BYTE   W36
 BYTE   N68  An3
 BYTE   W48
//  #07 //099   ----------------------------------------
 BYTE   W24
 BYTE   Fs3
 BYTE   W72
//  #07 //100   ----------------------------------------
 BYTE   TIE  Gn3
 BYTE   W96
//  #07 //101   ----------------------------------------
 BYTE   W11
 BYTE   EOT
 BYTE   W01
 BYTE   N32  Bn3
 BYTE   W36
 BYTE   N68  An3
 BYTE   W48
//  #07 //102   ----------------------------------------
 BYTE   W24
 BYTE   Fs3
 BYTE   W72
//  #07 //103   ----------------------------------------
 BYTE   TIE  Gn3
 BYTE   W96
//  #07 //104   ----------------------------------------
 BYTE   W11
 BYTE   EOT
 BYTE   W01
 BYTE   N32  Bn3
 BYTE   W36
 BYTE   N68  An3
 BYTE   W48
//  #07 //105   ----------------------------------------
 BYTE   W24
 BYTE   Fs3
 BYTE   W72
//  #07 //106   ----------------------------------------
 BYTE   TIE  Gn3
 BYTE   W96
//  #07 //107   ----------------------------------------
 BYTE   W11
 BYTE   EOT
 BYTE   W01
 BYTE   N32  Bn3
 BYTE   W36
 BYTE   N68  An3
 BYTE   W48
//  #07 //108   ----------------------------------------
 BYTE   W24
 BYTE   Fs3
 BYTE   W72
//  #07 //109   ----------------------------------------
 BYTE   PATT
  POIN2 Label_0145AB46
//  #07 //110   ----------------------------------------
 BYTE   W96
//  #07 //111   ----------------------------------------
 BYTE   W96
//  #07 //112   ----------------------------------------
 BYTE   W96
//  #07 //113   ----------------------------------------
 BYTE   W96
//  #07 //114   ----------------------------------------
 BYTE   W96
//  #07 //115   ----------------------------------------
 BYTE   W96
//  #07 //116   ----------------------------------------
 BYTE   W96
//  #07 //117   ----------------------------------------
 BYTE   W96
//  #07 //118   ----------------------------------------
 BYTE   W96
//  #07 //119   ----------------------------------------
 BYTE   W96
//  #07 //120   ----------------------------------------
 BYTE   W96
//  #07 //121   ----------------------------------------
 BYTE   PATT
  POIN2 Label_0145ABE1
//  #07 //122   ----------------------------------------
 BYTE   W48
 BYTE   N68  Dn3  v060
 BYTE   W48
//  #07 //123   ----------------------------------------
 BYTE   W24
 BYTE   Fs3
 BYTE   W72
//  #07 //124   ----------------------------------------
 BYTE   PATT
  POIN2 Label_0145AAA8
//  #07 //125   ----------------------------------------
 BYTE   W48
 BYTE   N68  Fs3  v060
 BYTE   W48
//  #07 //126   ----------------------------------------
 BYTE   W24
 BYTE   An3
 BYTE   W72
//  #07 //127   ----------------------------------------
 BYTE   W60
 BYTE   N80  Cn3
 BYTE   W36
//  #07 //128   ----------------------------------------
 BYTE   W48
 BYTE   N68  Dn3
 BYTE   W48
//  #07 //129   ----------------------------------------
 BYTE   W24
 BYTE   Fs3
 BYTE   W72
//  #07 //130   ----------------------------------------
 BYTE   En3
 BYTE   W72
 BYTE   Gn3
 BYTE   W24
//  #07 //131   ----------------------------------------
 BYTE   W48
 BYTE   Fs3
 BYTE   W48
//  #07 //132   ----------------------------------------
 BYTE   PATT
  POIN2 Label_0145AAC8
//  #07 //133   ----------------------------------------
 BYTE   PATT
  POIN2 Label_0145AB02
//  #07 //134   ----------------------------------------
 BYTE   W11
 BYTE   EOT
 BYTE   Gn3
 BYTE   W01
 BYTE   N32  Bn3  v060
 BYTE   W36
 BYTE   N68  An3
 BYTE   W48
//  #07 //135   ----------------------------------------
 BYTE   W24
 BYTE   Fs3
 BYTE   W72
//  #07 //136   ----------------------------------------
 BYTE   TIE  Gn3
 BYTE   W96
//  #07 //137   ----------------------------------------
 BYTE   W11
 BYTE   EOT
 BYTE   W01
 BYTE   N32  Bn3
 BYTE   W36
 BYTE   N68  An3
 BYTE   W48
//  #07 //138   ----------------------------------------
 BYTE   W24
 BYTE   Fs3
 BYTE   W72
//  #07 //139   ----------------------------------------
 BYTE   TIE  Gn3
 BYTE   W96
//  #07 //140   ----------------------------------------
 BYTE   W11
 BYTE   EOT
 BYTE   W01
 BYTE   N32  Bn3
 BYTE   W36
 BYTE   N68  An3
 BYTE   W48
//  #07 //141   ----------------------------------------
 BYTE   W24
 BYTE   Fs3
 BYTE   W72
//  #07 //142   ----------------------------------------
 BYTE   TIE  Gn3
 BYTE   W96
//  #07 //143   ----------------------------------------
 BYTE   W11
 BYTE   EOT
 BYTE   W01
 BYTE   N32  Bn3
 BYTE   W36
 BYTE   N68  An3
 BYTE   W48
//  #07 //144   ----------------------------------------
 BYTE   W24
 BYTE   Fs3
 BYTE   W72
//  #07 //145   ----------------------------------------
 BYTE   PATT
  POIN2 Label_0145AB46
//  #07 //146   ----------------------------------------
 BYTE   W48
 BYTE   FINE

//**************** Track 8 (Midi-Chn.7) ****************//

song09_008:
//  #08 //000   ----------------------------------------
 BYTE   KEYSH   song09_key+0
 BYTE   MODT 0
 BYTE   LFOS 44
 BYTE   W24
 BYTE   VOICE   52
 BYTE   VOL   45*song09_mvl/mxv
 BYTE   PAN   c_v+0
 BYTE   W96
//  #08 //001   ----------------------------------------
 BYTE   W96
//  #08 //002   ----------------------------------------
 BYTE   W96
//  #08 //003   ----------------------------------------
 BYTE   W96
//  #08 //004   ----------------------------------------
 BYTE   W96
//  #08 //005   ----------------------------------------
 BYTE   W96
//  #08 //006   ----------------------------------------
 BYTE   W96
//  #08 //007   ----------------------------------------
 BYTE   W96
//  #08 //008   ----------------------------------------
 BYTE   W96
//  #08 //009   ----------------------------------------
 BYTE   W96
//  #08 //010   ----------------------------------------
 BYTE   W96
//  #08 //011   ----------------------------------------
 BYTE   W96
//  #08 //012   ----------------------------------------
Label_0145D68D:
 BYTE   W56
 BYTE   W03
 BYTE   VOICE   52
 BYTE   VOL   20*song09_mvl/mxv
 BYTE   W01
 BYTE   PAN   c_v+20
 BYTE   N80  Gn2  v060
 BYTE   W12
 BYTE   PEND 
Label_0145D69B:
 BYTE   W24
//  #08 //013   ----------------------------------------
 BYTE   W48
 BYTE   N68  An2  v060
 BYTE   W48
//  #08 //014   ----------------------------------------
 BYTE   W24
 BYTE   Dn3
 BYTE   W72
//  #08 //015   ----------------------------------------
Label_0145D6A4:
 BYTE   N68  Cn3  v076
 BYTE   W72
 BYTE   En3  v060
 BYTE   W24
 BYTE   PEND 
//  #08 //016   ----------------------------------------
 BYTE   W48
 BYTE   Dn3
 BYTE   W48
//  #08 //017   ----------------------------------------
 BYTE   W24
 BYTE   Fs3
 BYTE   W72
//  #08 //018   ----------------------------------------
 BYTE   W60
 BYTE   N80  Gn2
 BYTE   W36
//  #08 //019   ----------------------------------------
 BYTE   W48
 BYTE   N68  An2
 BYTE   W48
//  #08 //020   ----------------------------------------
 BYTE   W24
 BYTE   Dn3
 BYTE   W72
//  #08 //021   ----------------------------------------
Label_0145D6BD:
 BYTE   N68  Cn3  v060
 BYTE   W72
 BYTE   En3
 BYTE   W24
 BYTE   PEND 
//  #08 //022   ----------------------------------------
 BYTE   W48
 BYTE   Dn3
 BYTE   W48
//  #08 //023   ----------------------------------------
Label_0145D6C7:
 BYTE   W24
 BYTE   N68  Fs3  v060
 BYTE   W03
 BYTE   VOL   22*song09_mvl/mxv
 BYTE   W03
 BYTE   VOL   22*song09_mvl/mxv
 BYTE   W06
 BYTE   VOL   23*song09_mvl/mxv
 BYTE   W03
 BYTE   VOL   23*song09_mvl/mxv
 BYTE   W03
 BYTE   VOL   26*song09_mvl/mxv
 BYTE   W03
 BYTE   VOL   27*song09_mvl/mxv
 BYTE   W03
 BYTE   VOL   27*song09_mvl/mxv
 BYTE   W03
 BYTE   VOL   28*song09_mvl/mxv
 BYTE   W03
 BYTE   VOL   29*song09_mvl/mxv
 BYTE   W03
 BYTE   VOL   30*song09_mvl/mxv
 BYTE   W03
 BYTE   VOL   31*song09_mvl/mxv
 BYTE   W03
 BYTE   VOL   32*song09_mvl/mxv
 BYTE   W03
 BYTE   VOL   33*song09_mvl/mxv
 BYTE   W03
 BYTE   VOL   34*song09_mvl/mxv
 BYTE   W03
 BYTE   VOL   35*song09_mvl/mxv
 BYTE   W03
 BYTE   VOL   37*song09_mvl/mxv
 BYTE   W03
 BYTE   VOL   37*song09_mvl/mxv
 BYTE   W03
 BYTE   VOL   38*song09_mvl/mxv
 BYTE   W03
 BYTE   VOL   40*song09_mvl/mxv
 BYTE   W03
 BYTE   VOL   40*song09_mvl/mxv
 BYTE   W03
 BYTE   VOL   42*song09_mvl/mxv
 BYTE   W03
 BYTE   VOL   43*song09_mvl/mxv
 BYTE   W02
 BYTE   PAN   c_v+40
 BYTE   VOL   43*song09_mvl/mxv
 BYTE   W01
 BYTE   PEND 
//  #08 //024   ----------------------------------------
Label_0145D6FF:
 BYTE   VOL   45*song09_mvl/mxv
 BYTE   TIE  Cn3  v060
 BYTE   W96
 BYTE   PEND 
//  #08 //025   ----------------------------------------
 BYTE   W44
 BYTE   W03
 BYTE   EOT
 BYTE   W01
 BYTE   TIE  Dn3
 BYTE   W48
//  #08 //026   ----------------------------------------
 BYTE   W92
 BYTE   W03
 BYTE   EOT
 BYTE   W01
//  #08 //027   ----------------------------------------
 BYTE   TIE  Cn3
 BYTE   W96
//  #08 //028   ----------------------------------------
 BYTE   W44
 BYTE   W03
 BYTE   EOT
 BYTE   W01
 BYTE   TIE  Dn3
 BYTE   W48
//  #08 //029   ----------------------------------------
 BYTE   W92
 BYTE   W03
 BYTE   EOT
 BYTE   W01
//  #08 //030   ----------------------------------------
 BYTE   TIE  Cn3
 BYTE   W96
//  #08 //031   ----------------------------------------
 BYTE   W44
 BYTE   W03
 BYTE   EOT
 BYTE   W01
 BYTE   TIE  Dn3
 BYTE   W48
//  #08 //032   ----------------------------------------
 BYTE   W92
 BYTE   W03
 BYTE   EOT
 BYTE   W01
//  #08 //033   ----------------------------------------
 BYTE   TIE  Cn3
 BYTE   W96
//  #08 //034   ----------------------------------------
 BYTE   W44
 BYTE   W03
 BYTE   EOT
 BYTE   W01
 BYTE   TIE  Dn3
 BYTE   W48
//  #08 //035   ----------------------------------------
 BYTE   W92
 BYTE   W03
 BYTE   EOT
 BYTE   W01
//  #08 //036   ----------------------------------------
Label_0145D73B:
 BYTE   W56
 BYTE   W03
 BYTE   VOICE   52
 BYTE   PAN   c_v+0
 BYTE   W36
 BYTE   W01
 BYTE   PEND 
//  #08 //037   ----------------------------------------
 BYTE   W96
//  #08 //038   ----------------------------------------
 BYTE   W96
//  #08 //039   ----------------------------------------
 BYTE   W96
//  #08 //040   ----------------------------------------
 BYTE   W96
//  #08 //041   ----------------------------------------
 BYTE   W96
//  #08 //042   ----------------------------------------
 BYTE   W96
//  #08 //043   ----------------------------------------
 BYTE   W96
//  #08 //044   ----------------------------------------
 BYTE   W96
//  #08 //045   ----------------------------------------
 BYTE   W96
//  #08 //046   ----------------------------------------
 BYTE   W96
//  #08 //047   ----------------------------------------
 BYTE   W96
//  #08 //048   ----------------------------------------
 BYTE   PATT
  POIN2 Label_0145D68D
//  #08 //049   ----------------------------------------
 BYTE   GoTo
  POIN2 Label_0145D69B
//  #08 //050   ----------------------------------------
 BYTE   W24
 BYTE   W48
 BYTE   N68  An2  v060
 BYTE   W48
//  #08 //051   ----------------------------------------
 BYTE   W24
 BYTE   Dn3
 BYTE   W72
//  #08 //052   ----------------------------------------
 BYTE   PATT
  POIN2 Label_0145D6A4
//  #08 //053   ----------------------------------------
 BYTE   W48
 BYTE   N68  Dn3  v060
 BYTE   W48
//  #08 //054   ----------------------------------------
 BYTE   W24
 BYTE   Fs3
 BYTE   W72
//  #08 //055   ----------------------------------------
 BYTE   W60
 BYTE   N80  Gn2
 BYTE   W36
//  #08 //056   ----------------------------------------
 BYTE   W48
 BYTE   N68  An2
 BYTE   W48
//  #08 //057   ----------------------------------------
 BYTE   W24
 BYTE   Dn3
 BYTE   W72
//  #08 //058   ----------------------------------------
 BYTE   PATT
  POIN2 Label_0145D6BD
//  #08 //059   ----------------------------------------
 BYTE   W48
 BYTE   N68  Dn3  v060
 BYTE   W48
//  #08 //060   ----------------------------------------
 BYTE   PATT
  POIN2 Label_0145D6C7
//  #08 //061   ----------------------------------------
 BYTE   PATT
  POIN2 Label_0145D6FF
//  #08 //062   ----------------------------------------
 BYTE   W44
 BYTE   W03
 BYTE   EOT
 BYTE   Cn3
 BYTE   W01
 BYTE   TIE  Dn3  v060
 BYTE   W48
//  #08 //063   ----------------------------------------
 BYTE   W92
 BYTE   W03
 BYTE   EOT
 BYTE   W01
//  #08 //064   ----------------------------------------
 BYTE   TIE  Cn3
 BYTE   W96
//  #08 //065   ----------------------------------------
 BYTE   W44
 BYTE   W03
 BYTE   EOT
 BYTE   W01
 BYTE   TIE  Dn3
 BYTE   W48
//  #08 //066   ----------------------------------------
 BYTE   W92
 BYTE   W03
 BYTE   EOT
 BYTE   W01
//  #08 //067   ----------------------------------------
 BYTE   TIE  Cn3
 BYTE   W96
//  #08 //068   ----------------------------------------
 BYTE   W44
 BYTE   W03
 BYTE   EOT
 BYTE   W01
 BYTE   TIE  Dn3
 BYTE   W48
//  #08 //069   ----------------------------------------
 BYTE   W92
 BYTE   W03
 BYTE   EOT
 BYTE   W01
//  #08 //070   ----------------------------------------
 BYTE   TIE  Cn3
 BYTE   W96
//  #08 //071   ----------------------------------------
 BYTE   W44
 BYTE   W03
 BYTE   EOT
 BYTE   W01
 BYTE   TIE  Dn3
 BYTE   W48
//  #08 //072   ----------------------------------------
 BYTE   W92
 BYTE   W03
 BYTE   EOT
 BYTE   W01
//  #08 //073   ----------------------------------------
 BYTE   PATT
  POIN2 Label_0145D73B
//  #08 //074   ----------------------------------------
 BYTE   W96
//  #08 //075   ----------------------------------------
 BYTE   W96
//  #08 //076   ----------------------------------------
 BYTE   W96
//  #08 //077   ----------------------------------------
 BYTE   W96
//  #08 //078   ----------------------------------------
 BYTE   W96
//  #08 //079   ----------------------------------------
 BYTE   W96
//  #08 //080   ----------------------------------------
 BYTE   W96
//  #08 //081   ----------------------------------------
 BYTE   W96
//  #08 //082   ----------------------------------------
 BYTE   W96
//  #08 //083   ----------------------------------------
 BYTE   W96
//  #08 //084   ----------------------------------------
 BYTE   W96
//  #08 //085   ----------------------------------------
Label_0145D7D5:
 BYTE   W56
 BYTE   W03
 BYTE   VOICE   52
 BYTE   VOL   20*song09_mvl/mxv
 BYTE   W01
 BYTE   PAN   c_v+20
 BYTE   N80  Gn2  v060
 BYTE   W36
 BYTE   PEND 
//  #08 //086   ----------------------------------------
 BYTE   W48
 BYTE   N68  An2
 BYTE   W48
//  #08 //087   ----------------------------------------
 BYTE   W24
 BYTE   Dn3
 BYTE   W72
//  #08 //088   ----------------------------------------
 BYTE   PATT
  POIN2 Label_0145D6A4
//  #08 //089   ----------------------------------------
 BYTE   W48
 BYTE   N68  Dn3  v060
 BYTE   W48
//  #08 //090   ----------------------------------------
 BYTE   W24
 BYTE   Fs3
 BYTE   W72
//  #08 //091   ----------------------------------------
 BYTE   W60
 BYTE   N80  Gn2
 BYTE   W36
//  #08 //092   ----------------------------------------
 BYTE   W48
 BYTE   N68  An2
 BYTE   W48
//  #08 //093   ----------------------------------------
 BYTE   W24
 BYTE   Dn3
 BYTE   W72
//  #08 //094   ----------------------------------------
 BYTE   PATT
  POIN2 Label_0145D6BD
//  #08 //095   ----------------------------------------
 BYTE   W48
 BYTE   N68  Dn3  v060
 BYTE   W48
//  #08 //096   ----------------------------------------
 BYTE   PATT
  POIN2 Label_0145D6C7
//  #08 //097   ----------------------------------------
 BYTE   PATT
  POIN2 Label_0145D6FF
//  #08 //098   ----------------------------------------
 BYTE   W44
 BYTE   W03
 BYTE   EOT
 BYTE   Cn3
 BYTE   W01
 BYTE   TIE  Dn3  v060
 BYTE   W48
//  #08 //099   ----------------------------------------
 BYTE   W92
 BYTE   W03
 BYTE   EOT
 BYTE   W01
//  #08 //100   ----------------------------------------
 BYTE   TIE  Cn3
 BYTE   W96
//  #08 //101   ----------------------------------------
 BYTE   W44
 BYTE   W03
 BYTE   EOT
 BYTE   W01
 BYTE   TIE  Dn3
 BYTE   W48
//  #08 //102   ----------------------------------------
 BYTE   W92
 BYTE   W03
 BYTE   EOT
 BYTE   W01
//  #08 //103   ----------------------------------------
 BYTE   TIE  Cn3
 BYTE   W96
//  #08 //104   ----------------------------------------
 BYTE   W44
 BYTE   W03
 BYTE   EOT
 BYTE   W01
 BYTE   TIE  Dn3
 BYTE   W48
//  #08 //105   ----------------------------------------
 BYTE   W92
 BYTE   W03
 BYTE   EOT
 BYTE   W01
//  #08 //106   ----------------------------------------
 BYTE   TIE  Cn3
 BYTE   W96
//  #08 //107   ----------------------------------------
 BYTE   W44
 BYTE   W03
 BYTE   EOT
 BYTE   W01
 BYTE   TIE  Dn3
 BYTE   W48
//  #08 //108   ----------------------------------------
 BYTE   W92
 BYTE   W03
 BYTE   EOT
 BYTE   W01
//  #08 //109   ----------------------------------------
 BYTE   PATT
  POIN2 Label_0145D73B
//  #08 //110   ----------------------------------------
 BYTE   W96
//  #08 //111   ----------------------------------------
 BYTE   W96
//  #08 //112   ----------------------------------------
 BYTE   W96
//  #08 //113   ----------------------------------------
 BYTE   W96
//  #08 //114   ----------------------------------------
 BYTE   W96
//  #08 //115   ----------------------------------------
 BYTE   W96
//  #08 //116   ----------------------------------------
 BYTE   W96
//  #08 //117   ----------------------------------------
 BYTE   W96
//  #08 //118   ----------------------------------------
 BYTE   W96
//  #08 //119   ----------------------------------------
 BYTE   W96
//  #08 //120   ----------------------------------------
 BYTE   W96
//  #08 //121   ----------------------------------------
 BYTE   PATT
  POIN2 Label_0145D7D5
//  #08 //122   ----------------------------------------
 BYTE   W48
 BYTE   N68  An2  v060
 BYTE   W48
//  #08 //123   ----------------------------------------
 BYTE   W24
 BYTE   Dn3
 BYTE   W72
//  #08 //124   ----------------------------------------
 BYTE   PATT
  POIN2 Label_0145D6A4
//  #08 //125   ----------------------------------------
 BYTE   W48
 BYTE   N68  Dn3  v060
 BYTE   W48
//  #08 //126   ----------------------------------------
 BYTE   W24
 BYTE   Fs3
 BYTE   W72
//  #08 //127   ----------------------------------------
 BYTE   W60
 BYTE   N80  Gn2
 BYTE   W36
//  #08 //128   ----------------------------------------
 BYTE   W48
 BYTE   N68  An2
 BYTE   W48
//  #08 //129   ----------------------------------------
 BYTE   W24
 BYTE   Dn3
 BYTE   W72
//  #08 //130   ----------------------------------------
 BYTE   PATT
  POIN2 Label_0145D6BD
//  #08 //131   ----------------------------------------
 BYTE   W48
 BYTE   N68  Dn3  v060
 BYTE   W48
//  #08 //132   ----------------------------------------
 BYTE   PATT
  POIN2 Label_0145D6C7
//  #08 //133   ----------------------------------------
 BYTE   PATT
  POIN2 Label_0145D6FF
//  #08 //134   ----------------------------------------
 BYTE   W44
 BYTE   W03
 BYTE   EOT
 BYTE   Cn3
 BYTE   W01
 BYTE   TIE  Dn3  v060
 BYTE   W48
//  #08 //135   ----------------------------------------
 BYTE   W92
 BYTE   W03
 BYTE   EOT
 BYTE   W01
//  #08 //136   ----------------------------------------
 BYTE   TIE  Cn3
 BYTE   W96
//  #08 //137   ----------------------------------------
 BYTE   W44
 BYTE   W03
 BYTE   EOT
 BYTE   W01
 BYTE   TIE  Dn3
 BYTE   W48
//  #08 //138   ----------------------------------------
 BYTE   W92
 BYTE   W03
 BYTE   EOT
 BYTE   W01
//  #08 //139   ----------------------------------------
 BYTE   TIE  Cn3
 BYTE   W96
//  #08 //140   ----------------------------------------
 BYTE   W44
 BYTE   W03
 BYTE   EOT
 BYTE   W01
 BYTE   TIE  Dn3
 BYTE   W48
//  #08 //141   ----------------------------------------
 BYTE   W92
 BYTE   W03
 BYTE   EOT
 BYTE   W01
//  #08 //142   ----------------------------------------
 BYTE   TIE  Cn3
 BYTE   W96
//  #08 //143   ----------------------------------------
 BYTE   W44
 BYTE   W03
 BYTE   EOT
 BYTE   W01
 BYTE   TIE  Dn3
 BYTE   W48
//  #08 //144   ----------------------------------------
 BYTE   W92
 BYTE   W03
 BYTE   EOT
 BYTE   W01
//  #08 //145   ----------------------------------------
 BYTE   PATT
  POIN2 Label_0145D73B
//  #08 //146   ----------------------------------------
 BYTE   W48
 BYTE   FINE

//**************** Track 9 (Midi-Chn.8) ****************//

song09_009:
//  #09 //000   ----------------------------------------
 BYTE   KEYSH   song09_key+0
 BYTE   MODT 0
 BYTE   LFOS 44
 BYTE   W24
 BYTE   VOICE   85
 BYTE   VOL   45*song09_mvl/mxv
 BYTE   PAN   c_v-20
 BYTE   W96
//  #09 //001   ----------------------------------------
 BYTE   W96
//  #09 //002   ----------------------------------------
 BYTE   W96
//  #09 //003   ----------------------------------------
 BYTE   W96
//  #09 //004   ----------------------------------------
 BYTE   W96
//  #09 //005   ----------------------------------------
 BYTE   W96
//  #09 //006   ----------------------------------------
 BYTE   W96
//  #09 //007   ----------------------------------------
 BYTE   W96
//  #09 //008   ----------------------------------------
 BYTE   W96
//  #09 //009   ----------------------------------------
 BYTE   W96
//  #09 //010   ----------------------------------------
 BYTE   W96
//  #09 //011   ----------------------------------------
 BYTE   W96
//  #09 //012   ----------------------------------------
Label_0145F1D5:
 BYTE   W68
 BYTE   W03
 BYTE   PAN   c_v-10
 BYTE   W01
 BYTE   PEND 
Label_0145F1DB:
 BYTE   N11  En3  v104
 BYTE   W24
//  #09 //013   ----------------------------------------
Label_0145F1DF:
 BYTE   N11  Dn3  v104
 BYTE   W24
 BYTE   En3
 BYTE   W24
 BYTE   Gn3
 BYTE   W48
 BYTE   PEND 
//  #09 //014   ----------------------------------------
 BYTE   W24
 BYTE   Fs3
 BYTE   W72
//  #09 //015   ----------------------------------------
 BYTE   W72
 BYTE   En3  v100
 BYTE   W24
//  #09 //016   ----------------------------------------
Label_0145F1EF:
 BYTE   N11  Dn3  v100
 BYTE   W24
 BYTE   En3
 BYTE   W24
 BYTE   Gn3
 BYTE   W48
 BYTE   PEND 
//  #09 //017   ----------------------------------------
 BYTE   W24
 BYTE   Fs3
 BYTE   W72
//  #09 //018   ----------------------------------------
 BYTE   W72
 BYTE   En3
 BYTE   W24
//  #09 //019   ----------------------------------------
 BYTE   PATT
  POIN2 Label_0145F1EF
//  #09 //020   ----------------------------------------
 BYTE   W24
 BYTE   N11  Fs3  v100
 BYTE   W72
//  #09 //021   ----------------------------------------
 BYTE   W72
 BYTE   En3
 BYTE   W24
//  #09 //022   ----------------------------------------
 BYTE   PATT
  POIN2 Label_0145F1EF
//  #09 //023   ----------------------------------------
Label_0145F210:
 BYTE   W24
 BYTE   N11  Fs3  v100
 BYTE   W36
 BYTE   An3
 BYTE   W32
 BYTE   W03
 BYTE   PAN   c_v-20
 BYTE   W01
 BYTE   PEND 
//  #09 //024   ----------------------------------------
Label_0145F21C:
 BYTE   N05  Bn3  v100
 BYTE   W12
 BYTE   Bn3  v072
 BYTE   W12
 BYTE   Bn3  v056
 BYTE   W12
 BYTE   Bn3  v040
 BYTE   W12
 BYTE   Bn3  v024
 BYTE   W12
 BYTE   Bn3  v020
 BYTE   W12
 BYTE   En3  v100
 BYTE   W12
 BYTE   En3  v048
 BYTE   W12
 BYTE   PEND 
//  #09 //025   ----------------------------------------
Label_0145F236:
 BYTE   N05  En3  v020
 BYTE   W12
 BYTE   Gn3  v100
 BYTE   W12
 BYTE   Gn3  v044
 BYTE   W12
 BYTE   Gn3  v016
 BYTE   W12
 BYTE   An3  v100
 BYTE   W12
 BYTE   An3  v072
 BYTE   W12
 BYTE   An3  v056
 BYTE   W12
 BYTE   An3  v040
 BYTE   W12
 BYTE   PEND 
//  #09 //026   ----------------------------------------
Label_0145F250:
 BYTE   N05  An3  v024
 BYTE   W12
 BYTE   An3  v020
 BYTE   W12
 BYTE   An3  v100
 BYTE   W12
 BYTE   An3  v044
 BYTE   W12
 BYTE   An3  v012
 BYTE   W12
 BYTE   Dn4  v100
 BYTE   W12
 BYTE   Dn4  v048
 BYTE   W12
 BYTE   Dn4  v012
 BYTE   W12
 BYTE   PEND 
//  #09 //027   ----------------------------------------
 BYTE   PATT
  POIN2 Label_0145F21C
//  #09 //028   ----------------------------------------
 BYTE   PATT
  POIN2 Label_0145F236
//  #09 //029   ----------------------------------------
Label_0145F274:
 BYTE   N05  An3  v024
 BYTE   W12
 BYTE   An3  v020
 BYTE   W12
 BYTE   Fs3  v100
 BYTE   W12
 BYTE   Fs3  v072
 BYTE   W12
 BYTE   Fs3  v056
 BYTE   W12
 BYTE   Fs3  v040
 BYTE   W12
 BYTE   Fs3  v024
 BYTE   W12
 BYTE   Fs3  v020
 BYTE   W12
 BYTE   PEND 
//  #09 //030   ----------------------------------------
 BYTE   PATT
  POIN2 Label_0145F21C
//  #09 //031   ----------------------------------------
 BYTE   PATT
  POIN2 Label_0145F236
//  #09 //032   ----------------------------------------
 BYTE   PATT
  POIN2 Label_0145F250
//  #09 //033   ----------------------------------------
 BYTE   PATT
  POIN2 Label_0145F21C
//  #09 //034   ----------------------------------------
 BYTE   PATT
  POIN2 Label_0145F236
//  #09 //035   ----------------------------------------
 BYTE   PATT
  POIN2 Label_0145F274
//  #09 //036   ----------------------------------------
 BYTE   W96
//  #09 //037   ----------------------------------------
 BYTE   W96
//  #09 //038   ----------------------------------------
 BYTE   W96
//  #09 //039   ----------------------------------------
 BYTE   W96
//  #09 //040   ----------------------------------------
 BYTE   W96
//  #09 //041   ----------------------------------------
 BYTE   W96
//  #09 //042   ----------------------------------------
 BYTE   W96
//  #09 //043   ----------------------------------------
 BYTE   W96
//  #09 //044   ----------------------------------------
 BYTE   W96
//  #09 //045   ----------------------------------------
 BYTE   W96
//  #09 //046   ----------------------------------------
 BYTE   W96
//  #09 //047   ----------------------------------------
 BYTE   W96
//  #09 //048   ----------------------------------------
 BYTE   PATT
  POIN2 Label_0145F1D5
//  #09 //049   ----------------------------------------
 BYTE   GoTo
  POIN2 Label_0145F1DB
//  #09 //050   ----------------------------------------
 BYTE   N11  En3  v104
 BYTE   W24
//  #09 //051   ----------------------------------------
 BYTE   PATT
  POIN2 Label_0145F1DF
//  #09 //052   ----------------------------------------
 BYTE   W24
 BYTE   N11  Fs3  v104
 BYTE   W72
//  #09 //053   ----------------------------------------
 BYTE   W72
 BYTE   En3  v100
 BYTE   W24
//  #09 //054   ----------------------------------------
 BYTE   PATT
  POIN2 Label_0145F1EF
//  #09 //055   ----------------------------------------
 BYTE   W24
 BYTE   N11  Fs3  v100
 BYTE   W72
//  #09 //056   ----------------------------------------
 BYTE   W72
 BYTE   En3
 BYTE   W24
//  #09 //057   ----------------------------------------
 BYTE   PATT
  POIN2 Label_0145F1EF
//  #09 //058   ----------------------------------------
 BYTE   W24
 BYTE   N11  Fs3  v100
 BYTE   W72
//  #09 //059   ----------------------------------------
 BYTE   W72
 BYTE   En3
 BYTE   W24
//  #09 //060   ----------------------------------------
 BYTE   PATT
  POIN2 Label_0145F1EF
//  #09 //061   ----------------------------------------
 BYTE   PATT
  POIN2 Label_0145F210
//  #09 //062   ----------------------------------------
 BYTE   PATT
  POIN2 Label_0145F21C
//  #09 //063   ----------------------------------------
 BYTE   PATT
  POIN2 Label_0145F236
//  #09 //064   ----------------------------------------
 BYTE   PATT
  POIN2 Label_0145F250
//  #09 //065   ----------------------------------------
 BYTE   PATT
  POIN2 Label_0145F21C
//  #09 //066   ----------------------------------------
 BYTE   PATT
  POIN2 Label_0145F236
//  #09 //067   ----------------------------------------
 BYTE   PATT
  POIN2 Label_0145F274
//  #09 //068   ----------------------------------------
 BYTE   PATT
  POIN2 Label_0145F21C
//  #09 //069   ----------------------------------------
 BYTE   PATT
  POIN2 Label_0145F236
//  #09 //070   ----------------------------------------
 BYTE   PATT
  POIN2 Label_0145F250
//  #09 //071   ----------------------------------------
 BYTE   PATT
  POIN2 Label_0145F21C
//  #09 //072   ----------------------------------------
 BYTE   PATT
  POIN2 Label_0145F236
//  #09 //073   ----------------------------------------
 BYTE   PATT
  POIN2 Label_0145F274
//  #09 //074   ----------------------------------------
 BYTE   W96
//  #09 //075   ----------------------------------------
 BYTE   W96
//  #09 //076   ----------------------------------------
 BYTE   W96
//  #09 //077   ----------------------------------------
 BYTE   W96
//  #09 //078   ----------------------------------------
 BYTE   W96
//  #09 //079   ----------------------------------------
 BYTE   W96
//  #09 //080   ----------------------------------------
 BYTE   W96
//  #09 //081   ----------------------------------------
 BYTE   W96
//  #09 //082   ----------------------------------------
 BYTE   W96
//  #09 //083   ----------------------------------------
 BYTE   W96
//  #09 //084   ----------------------------------------
 BYTE   W96
//  #09 //085   ----------------------------------------
 BYTE   W96
//  #09 //086   ----------------------------------------
Label_0145F340:
 BYTE   W68
 BYTE   W03
 BYTE   PAN   c_v-10
 BYTE   W01
 BYTE   N11  En3  v104
 BYTE   W24
 BYTE   PEND 
//  #09 //087   ----------------------------------------
 BYTE   PATT
  POIN2 Label_0145F1DF
//  #09 //088   ----------------------------------------
 BYTE   W24
 BYTE   N11  Fs3  v104
 BYTE   W72
//  #09 //089   ----------------------------------------
 BYTE   W72
 BYTE   En3  v100
 BYTE   W24
//  #09 //090   ----------------------------------------
 BYTE   PATT
  POIN2 Label_0145F1EF
//  #09 //091   ----------------------------------------
 BYTE   W24
 BYTE   N11  Fs3  v100
 BYTE   W72
//  #09 //092   ----------------------------------------
 BYTE   W72
 BYTE   En3
 BYTE   W24
//  #09 //093   ----------------------------------------
 BYTE   PATT
  POIN2 Label_0145F1EF
//  #09 //094   ----------------------------------------
 BYTE   W24
 BYTE   N11  Fs3  v100
 BYTE   W72
//  #09 //095   ----------------------------------------
 BYTE   W72
 BYTE   En3
 BYTE   W24
//  #09 //096   ----------------------------------------
 BYTE   PATT
  POIN2 Label_0145F1EF
//  #09 //097   ----------------------------------------
 BYTE   PATT
  POIN2 Label_0145F210
//  #09 //098   ----------------------------------------
 BYTE   PATT
  POIN2 Label_0145F21C
//  #09 //099   ----------------------------------------
 BYTE   PATT
  POIN2 Label_0145F236
//  #09 //100   ----------------------------------------
 BYTE   PATT
  POIN2 Label_0145F250
//  #09 //101   ----------------------------------------
 BYTE   PATT
  POIN2 Label_0145F21C
//  #09 //102   ----------------------------------------
 BYTE   PATT
  POIN2 Label_0145F236
//  #09 //103   ----------------------------------------
 BYTE   PATT
  POIN2 Label_0145F274
//  #09 //104   ----------------------------------------
 BYTE   PATT
  POIN2 Label_0145F21C
//  #09 //105   ----------------------------------------
 BYTE   PATT
  POIN2 Label_0145F236
//  #09 //106   ----------------------------------------
 BYTE   PATT
  POIN2 Label_0145F250
//  #09 //107   ----------------------------------------
 BYTE   PATT
  POIN2 Label_0145F21C
//  #09 //108   ----------------------------------------
 BYTE   PATT
  POIN2 Label_0145F236
//  #09 //109   ----------------------------------------
 BYTE   PATT
  POIN2 Label_0145F274
//  #09 //110   ----------------------------------------
 BYTE   W96
//  #09 //111   ----------------------------------------
 BYTE   W96
//  #09 //112   ----------------------------------------
 BYTE   W96
//  #09 //113   ----------------------------------------
 BYTE   W96
//  #09 //114   ----------------------------------------
 BYTE   W96
//  #09 //115   ----------------------------------------
 BYTE   W96
//  #09 //116   ----------------------------------------
 BYTE   W96
//  #09 //117   ----------------------------------------
 BYTE   W96
//  #09 //118   ----------------------------------------
 BYTE   W96
//  #09 //119   ----------------------------------------
 BYTE   W96
//  #09 //120   ----------------------------------------
 BYTE   W96
//  #09 //121   ----------------------------------------
 BYTE   W96
//  #09 //122   ----------------------------------------
 BYTE   PATT
  POIN2 Label_0145F340
//  #09 //123   ----------------------------------------
 BYTE   PATT
  POIN2 Label_0145F1DF
//  #09 //124   ----------------------------------------
 BYTE   W24
 BYTE   N11  Fs3  v104
 BYTE   W72
//  #09 //125   ----------------------------------------
 BYTE   W72
 BYTE   En3  v100
 BYTE   W24
//  #09 //126   ----------------------------------------
 BYTE   PATT
  POIN2 Label_0145F1EF
//  #09 //127   ----------------------------------------
 BYTE   W24
 BYTE   N11  Fs3  v100
 BYTE   W72
//  #09 //128   ----------------------------------------
 BYTE   W72
 BYTE   En3
 BYTE   W24
//  #09 //129   ----------------------------------------
 BYTE   PATT
  POIN2 Label_0145F1EF
//  #09 //130   ----------------------------------------
 BYTE   W24
 BYTE   N11  Fs3  v100
 BYTE   W72
//  #09 //131   ----------------------------------------
 BYTE   W72
 BYTE   En3
 BYTE   W24
//  #09 //132   ----------------------------------------
 BYTE   PATT
  POIN2 Label_0145F1EF
//  #09 //133   ----------------------------------------
 BYTE   PATT
  POIN2 Label_0145F210
//  #09 //134   ----------------------------------------
 BYTE   PATT
  POIN2 Label_0145F21C
//  #09 //135   ----------------------------------------
 BYTE   PATT
  POIN2 Label_0145F236
//  #09 //136   ----------------------------------------
 BYTE   PATT
  POIN2 Label_0145F250
//  #09 //137   ----------------------------------------
 BYTE   PATT
  POIN2 Label_0145F21C
//  #09 //138   ----------------------------------------
 BYTE   PATT
  POIN2 Label_0145F236
//  #09 //139   ----------------------------------------
 BYTE   PATT
  POIN2 Label_0145F274
//  #09 //140   ----------------------------------------
 BYTE   PATT
  POIN2 Label_0145F21C
//  #09 //141   ----------------------------------------
 BYTE   PATT
  POIN2 Label_0145F236
//  #09 //142   ----------------------------------------
 BYTE   PATT
  POIN2 Label_0145F250
//  #09 //143   ----------------------------------------
 BYTE   PATT
  POIN2 Label_0145F21C
//  #09 //144   ----------------------------------------
 BYTE   PATT
  POIN2 Label_0145F236
//  #09 //145   ----------------------------------------
 BYTE   PATT
  POIN2 Label_0145F274
//  #09 //146   ----------------------------------------
 BYTE   W96
//  #09 //147   ----------------------------------------
 BYTE   W48
 BYTE   FINE

//**************** Track 10 (Midi-Chn.9) ****************//

song09_010:
//  #10 //000   ----------------------------------------
 BYTE   KEYSH   song09_key+0
 BYTE   MODT 0
 BYTE   LFOS 44
 BYTE   W24
 BYTE   VOICE   35
 BYTE   VOL   52*song09_mvl/mxv
 BYTE   PAN   c_v+0
 BYTE   W96
//  #10 //001   ----------------------------------------
 BYTE   W96
//  #10 //002   ----------------------------------------
 BYTE   W96
//  #10 //003   ----------------------------------------
 BYTE   W96
//  #10 //004   ----------------------------------------
 BYTE   W96
//  #10 //005   ----------------------------------------
 BYTE   W96
//  #10 //006   ----------------------------------------
 BYTE   W96
//  #10 //007   ----------------------------------------
 BYTE   W96
//  #10 //008   ----------------------------------------
 BYTE   W96
//  #10 //009   ----------------------------------------
 BYTE   W96
//  #10 //010   ----------------------------------------
 BYTE   W96
//  #10 //011   ----------------------------------------
 BYTE   W96
//  #10 //012   ----------------------------------------
 BYTE   W72
Label_01459B7A:
 BYTE   W24
//  #10 //013   ----------------------------------------
 BYTE   W96
//  #10 //014   ----------------------------------------
 BYTE   W96
//  #10 //015   ----------------------------------------
 BYTE   W96
//  #10 //016   ----------------------------------------
 BYTE   W96
//  #10 //017   ----------------------------------------
 BYTE   W96
//  #10 //018   ----------------------------------------
 BYTE   W96
//  #10 //019   ----------------------------------------
 BYTE   W96
//  #10 //020   ----------------------------------------
 BYTE   W96
//  #10 //021   ----------------------------------------
 BYTE   W96
//  #10 //022   ----------------------------------------
 BYTE   W96
//  #10 //023   ----------------------------------------
 BYTE   W96
//  #10 //024   ----------------------------------------
 BYTE   W72
 BYTE   N32  Fn2  v127
 BYTE   W24
//  #10 //025   ----------------------------------------
 BYTE   W96
//  #10 //026   ----------------------------------------
 BYTE   W24
 BYTE   N32
 BYTE   W72
//  #10 //027   ----------------------------------------
 BYTE   W72
 BYTE   N32
 BYTE   W24
//  #10 //028   ----------------------------------------
 BYTE   W96
//  #10 //029   ----------------------------------------
 BYTE   W24
 BYTE   N32
 BYTE   W72
//  #10 //030   ----------------------------------------
 BYTE   W72
 BYTE   N32
 BYTE   W24
//  #10 //031   ----------------------------------------
 BYTE   W96
//  #10 //032   ----------------------------------------
 BYTE   W24
 BYTE   N32
 BYTE   W72
//  #10 //033   ----------------------------------------
 BYTE   W72
 BYTE   N32
 BYTE   W24
//  #10 //034   ----------------------------------------
 BYTE   W96
//  #10 //035   ----------------------------------------
 BYTE   W24
 BYTE   N32
 BYTE   W72
//  #10 //036   ----------------------------------------
 BYTE   W96
//  #10 //037   ----------------------------------------
 BYTE   W96
//  #10 //038   ----------------------------------------
 BYTE   W96
//  #10 //039   ----------------------------------------
 BYTE   W96
//  #10 //040   ----------------------------------------
 BYTE   W96
//  #10 //041   ----------------------------------------
 BYTE   W96
//  #10 //042   ----------------------------------------
 BYTE   W96
//  #10 //043   ----------------------------------------
 BYTE   W96
//  #10 //044   ----------------------------------------
 BYTE   W96
//  #10 //045   ----------------------------------------
 BYTE   W96
//  #10 //046   ----------------------------------------
 BYTE   W96
//  #10 //047   ----------------------------------------
 BYTE   W96
//  #10 //048   ----------------------------------------
 BYTE   W72
 BYTE   GoTo
  POIN2 Label_01459B7A
//  #10 //049   ----------------------------------------
 BYTE   W24
 BYTE   W96
//  #10 //050   ----------------------------------------
 BYTE   W96
//  #10 //051   ----------------------------------------
 BYTE   W96
//  #10 //052   ----------------------------------------
 BYTE   W96
//  #10 //053   ----------------------------------------
 BYTE   W96
//  #10 //054   ----------------------------------------
 BYTE   W96
//  #10 //055   ----------------------------------------
 BYTE   W96
//  #10 //056   ----------------------------------------
 BYTE   W96
//  #10 //057   ----------------------------------------
 BYTE   W96
//  #10 //058   ----------------------------------------
 BYTE   W96
//  #10 //059   ----------------------------------------
 BYTE   W96
//  #10 //060   ----------------------------------------
 BYTE   W72
 BYTE   N32  Fn2  v127
 BYTE   W24
//  #10 //061   ----------------------------------------
 BYTE   W96
//  #10 //062   ----------------------------------------
 BYTE   W24
 BYTE   N32
 BYTE   W72
//  #10 //063   ----------------------------------------
 BYTE   W72
 BYTE   N32
 BYTE   W24
//  #10 //064   ----------------------------------------
 BYTE   W96
//  #10 //065   ----------------------------------------
 BYTE   W24
 BYTE   N32
 BYTE   W72
//  #10 //066   ----------------------------------------
 BYTE   W72
 BYTE   N32
 BYTE   W24
//  #10 //067   ----------------------------------------
 BYTE   W96
//  #10 //068   ----------------------------------------
 BYTE   W24
 BYTE   N32
 BYTE   W72
//  #10 //069   ----------------------------------------
 BYTE   W72
 BYTE   N32
 BYTE   W24
//  #10 //070   ----------------------------------------
 BYTE   W96
//  #10 //071   ----------------------------------------
 BYTE   W24
 BYTE   N32
 BYTE   W72
//  #10 //072   ----------------------------------------
 BYTE   W96
//  #10 //073   ----------------------------------------
 BYTE   W96
//  #10 //074   ----------------------------------------
 BYTE   W96
//  #10 //075   ----------------------------------------
 BYTE   W96
//  #10 //076   ----------------------------------------
 BYTE   W96
//  #10 //077   ----------------------------------------
 BYTE   W96
//  #10 //078   ----------------------------------------
 BYTE   W96
//  #10 //079   ----------------------------------------
 BYTE   W96
//  #10 //080   ----------------------------------------
 BYTE   W96
//  #10 //081   ----------------------------------------
 BYTE   W96
//  #10 //082   ----------------------------------------
 BYTE   W96
//  #10 //083   ----------------------------------------
 BYTE   W96
//  #10 //084   ----------------------------------------
 BYTE   W96
//  #10 //085   ----------------------------------------
 BYTE   W96
//  #10 //086   ----------------------------------------
 BYTE   W96
//  #10 //087   ----------------------------------------
 BYTE   W96
//  #10 //088   ----------------------------------------
 BYTE   W96
//  #10 //089   ----------------------------------------
 BYTE   W96
//  #10 //090   ----------------------------------------
 BYTE   W96
//  #10 //091   ----------------------------------------
 BYTE   W96
//  #10 //092   ----------------------------------------
 BYTE   W96
//  #10 //093   ----------------------------------------
 BYTE   W96
//  #10 //094   ----------------------------------------
 BYTE   W96
//  #10 //095   ----------------------------------------
 BYTE   W96
//  #10 //096   ----------------------------------------
 BYTE   W72
 BYTE   N32
 BYTE   W24
//  #10 //097   ----------------------------------------
 BYTE   W96
//  #10 //098   ----------------------------------------
 BYTE   W24
 BYTE   N32
 BYTE   W72
//  #10 //099   ----------------------------------------
 BYTE   W72
 BYTE   N32
 BYTE   W24
//  #10 //100   ----------------------------------------
 BYTE   W96
//  #10 //101   ----------------------------------------
 BYTE   W24
 BYTE   N32
 BYTE   W72
//  #10 //102   ----------------------------------------
 BYTE   W72
 BYTE   N32
 BYTE   W24
//  #10 //103   ----------------------------------------
 BYTE   W96
//  #10 //104   ----------------------------------------
 BYTE   W24
 BYTE   N32
 BYTE   W72
//  #10 //105   ----------------------------------------
 BYTE   W72
 BYTE   N32
 BYTE   W24
//  #10 //106   ----------------------------------------
 BYTE   W96
//  #10 //107   ----------------------------------------
 BYTE   W24
 BYTE   N32
 BYTE   W72
//  #10 //108   ----------------------------------------
 BYTE   W96
//  #10 //109   ----------------------------------------
 BYTE   W96
//  #10 //110   ----------------------------------------
 BYTE   W96
//  #10 //111   ----------------------------------------
 BYTE   W96
//  #10 //112   ----------------------------------------
 BYTE   W96
//  #10 //113   ----------------------------------------
 BYTE   W96
//  #10 //114   ----------------------------------------
 BYTE   W96
//  #10 //115   ----------------------------------------
 BYTE   W96
//  #10 //116   ----------------------------------------
 BYTE   W96
//  #10 //117   ----------------------------------------
 BYTE   W96
//  #10 //118   ----------------------------------------
 BYTE   W96
//  #10 //119   ----------------------------------------
 BYTE   W96
//  #10 //120   ----------------------------------------
 BYTE   W96
//  #10 //121   ----------------------------------------
 BYTE   W96
//  #10 //122   ----------------------------------------
 BYTE   W96
//  #10 //123   ----------------------------------------
 BYTE   W96
//  #10 //124   ----------------------------------------
 BYTE   W96
//  #10 //125   ----------------------------------------
 BYTE   W96
//  #10 //126   ----------------------------------------
 BYTE   W96
//  #10 //127   ----------------------------------------
 BYTE   W96
//  #10 //128   ----------------------------------------
 BYTE   W96
//  #10 //129   ----------------------------------------
 BYTE   W96
//  #10 //130   ----------------------------------------
 BYTE   W96
//  #10 //131   ----------------------------------------
 BYTE   W96
//  #10 //132   ----------------------------------------
 BYTE   W72
 BYTE   N32
 BYTE   W24
//  #10 //133   ----------------------------------------
 BYTE   W96
//  #10 //134   ----------------------------------------
 BYTE   W24
 BYTE   N32
 BYTE   W72
//  #10 //135   ----------------------------------------
 BYTE   W72
 BYTE   N32
 BYTE   W24
//  #10 //136   ----------------------------------------
 BYTE   W96
//  #10 //137   ----------------------------------------
 BYTE   W24
 BYTE   N32
 BYTE   W72
//  #10 //138   ----------------------------------------
 BYTE   W72
 BYTE   N32
 BYTE   W24
//  #10 //139   ----------------------------------------
 BYTE   W96
//  #10 //140   ----------------------------------------
 BYTE   W24
 BYTE   N32
 BYTE   W72
//  #10 //141   ----------------------------------------
 BYTE   W72
 BYTE   N32
 BYTE   W24
//  #10 //142   ----------------------------------------
 BYTE   W96
//  #10 //143   ----------------------------------------
 BYTE   W24
 BYTE   N32
 BYTE   W72
//  #10 //144   ----------------------------------------
 BYTE   W96
//  #10 //145   ----------------------------------------
 BYTE   W48
 BYTE   FINE

//**************** Track 11 (Midi-Chn.10) ****************//

song09_011:
//  #11 //000   ----------------------------------------
 BYTE   KEYSH   song09_key+0
 BYTE   MODT 0
 BYTE   LFOS 44
 BYTE   W24
 BYTE   VOICE   85
 BYTE   VOL   45*song09_mvl/mxv
 BYTE   PAN   c_v+20
 BYTE   W96
//  #11 //001   ----------------------------------------
 BYTE   W96
//  #11 //002   ----------------------------------------
 BYTE   W96
//  #11 //003   ----------------------------------------
 BYTE   W96
//  #11 //004   ----------------------------------------
 BYTE   W96
//  #11 //005   ----------------------------------------
 BYTE   W96
//  #11 //006   ----------------------------------------
 BYTE   W96
//  #11 //007   ----------------------------------------
 BYTE   W96
//  #11 //008   ----------------------------------------
 BYTE   W96
//  #11 //009   ----------------------------------------
 BYTE   W96
//  #11 //010   ----------------------------------------
 BYTE   W96
//  #11 //011   ----------------------------------------
 BYTE   W96
//  #11 //012   ----------------------------------------
Label_0145DAC1:
 BYTE   W68
 BYTE   W03
 BYTE   PAN   c_v+10
 BYTE   W01
 BYTE   PEND 
Label_0145DAC7:
 BYTE   N11  Bn2  v104
 BYTE   W24
//  #11 //013   ----------------------------------------
Label_0145DACB:
 BYTE   N11  An2  v104
 BYTE   W24
 BYTE   Bn2
 BYTE   W24
 BYTE   En3
 BYTE   W48
 BYTE   PEND 
//  #11 //014   ----------------------------------------
 BYTE   W24
 BYTE   Dn3
 BYTE   W72
//  #11 //015   ----------------------------------------
 BYTE   W72
 BYTE   Bn2  v100
 BYTE   W24
//  #11 //016   ----------------------------------------
Label_0145DADB:
 BYTE   N11  An2  v100
 BYTE   W24
 BYTE   Bn2
 BYTE   W24
 BYTE   En3
 BYTE   W48
 BYTE   PEND 
//  #11 //017   ----------------------------------------
 BYTE   W24
 BYTE   Dn3
 BYTE   W72
//  #11 //018   ----------------------------------------
 BYTE   W72
 BYTE   Bn2
 BYTE   W24
//  #11 //019   ----------------------------------------
 BYTE   PATT
  POIN2 Label_0145DADB
//  #11 //020   ----------------------------------------
 BYTE   W24
 BYTE   N11  Dn3  v100
 BYTE   W72
//  #11 //021   ----------------------------------------
 BYTE   W72
 BYTE   Bn2
 BYTE   W24
//  #11 //022   ----------------------------------------
 BYTE   PATT
  POIN2 Label_0145DADB
//  #11 //023   ----------------------------------------
Label_0145DAFC:
 BYTE   W24
 BYTE   N11  Dn3  v100
 BYTE   W36
 BYTE   En3
 BYTE   W32
 BYTE   W03
 BYTE   PAN   c_v+20
 BYTE   W01
 BYTE   PEND 
//  #11 //024   ----------------------------------------
Label_0145DB08:
 BYTE   N05  Gn3  v100
 BYTE   W12
 BYTE   Gn3  v072
 BYTE   W12
 BYTE   Gn3  v056
 BYTE   W12
 BYTE   Gn3  v040
 BYTE   W12
 BYTE   Gn3  v024
 BYTE   W12
 BYTE   Gn3  v020
 BYTE   W12
 BYTE   Bn2  v100
 BYTE   W12
 BYTE   Bn2  v048
 BYTE   W12
 BYTE   PEND 
//  #11 //025   ----------------------------------------
Label_0145DB22:
 BYTE   N05  Bn2  v020
 BYTE   W12
 BYTE   Dn3  v100
 BYTE   W12
 BYTE   Dn3  v044
 BYTE   W12
 BYTE   Dn3  v016
 BYTE   W12
 BYTE   Fs3  v100
 BYTE   W12
 BYTE   Fs3  v072
 BYTE   W12
 BYTE   Fs3  v056
 BYTE   W12
 BYTE   Fs3  v040
 BYTE   W12
 BYTE   PEND 
//  #11 //026   ----------------------------------------
Label_0145DB3C:
 BYTE   N05  Fs3  v024
 BYTE   W12
 BYTE   Fs3  v020
 BYTE   W12
 BYTE   En3  v100
 BYTE   W12
 BYTE   En3  v044
 BYTE   W12
 BYTE   En3  v012
 BYTE   W12
 BYTE   An3  v100
 BYTE   W12
 BYTE   An3  v048
 BYTE   W12
 BYTE   An3  v012
 BYTE   W12
 BYTE   PEND 
//  #11 //027   ----------------------------------------
 BYTE   PATT
  POIN2 Label_0145DB08
//  #11 //028   ----------------------------------------
 BYTE   PATT
  POIN2 Label_0145DB22
//  #11 //029   ----------------------------------------
Label_0145DB60:
 BYTE   N05  Fs3  v024
 BYTE   W12
 BYTE   Fs3  v020
 BYTE   W12
 BYTE   Dn3  v100
 BYTE   W12
 BYTE   Dn3  v072
 BYTE   W12
 BYTE   Dn3  v056
 BYTE   W12
 BYTE   Dn3  v040
 BYTE   W12
 BYTE   Dn3  v024
 BYTE   W12
 BYTE   Dn3  v020
 BYTE   W12
 BYTE   PEND 
//  #11 //030   ----------------------------------------
 BYTE   PATT
  POIN2 Label_0145DB08
//  #11 //031   ----------------------------------------
 BYTE   PATT
  POIN2 Label_0145DB22
//  #11 //032   ----------------------------------------
 BYTE   PATT
  POIN2 Label_0145DB3C
//  #11 //033   ----------------------------------------
 BYTE   PATT
  POIN2 Label_0145DB08
//  #11 //034   ----------------------------------------
 BYTE   PATT
  POIN2 Label_0145DB22
//  #11 //035   ----------------------------------------
 BYTE   PATT
  POIN2 Label_0145DB60
//  #11 //036   ----------------------------------------
 BYTE   W96
//  #11 //037   ----------------------------------------
 BYTE   W96
//  #11 //038   ----------------------------------------
 BYTE   W96
//  #11 //039   ----------------------------------------
 BYTE   W96
//  #11 //040   ----------------------------------------
 BYTE   W96
//  #11 //041   ----------------------------------------
 BYTE   W96
//  #11 //042   ----------------------------------------
 BYTE   W96
//  #11 //043   ----------------------------------------
 BYTE   W96
//  #11 //044   ----------------------------------------
 BYTE   W96
//  #11 //045   ----------------------------------------
 BYTE   W96
//  #11 //046   ----------------------------------------
 BYTE   W96
//  #11 //047   ----------------------------------------
 BYTE   W96
//  #11 //048   ----------------------------------------
 BYTE   PATT
  POIN2 Label_0145DAC1
//  #11 //049   ----------------------------------------
 BYTE   GoTo
  POIN2 Label_0145DAC7
//  #11 //050   ----------------------------------------
 BYTE   N11  Bn2  v104
 BYTE   W24
//  #11 //051   ----------------------------------------
 BYTE   PATT
  POIN2 Label_0145DACB
//  #11 //052   ----------------------------------------
 BYTE   W24
 BYTE   N11  Dn3  v104
 BYTE   W72
//  #11 //053   ----------------------------------------
 BYTE   W72
 BYTE   Bn2  v100
 BYTE   W24
//  #11 //054   ----------------------------------------
 BYTE   PATT
  POIN2 Label_0145DADB
//  #11 //055   ----------------------------------------
 BYTE   W24
 BYTE   N11  Dn3  v100
 BYTE   W72
//  #11 //056   ----------------------------------------
 BYTE   W72
 BYTE   Bn2
 BYTE   W24
//  #11 //057   ----------------------------------------
 BYTE   PATT
  POIN2 Label_0145DADB
//  #11 //058   ----------------------------------------
 BYTE   W24
 BYTE   N11  Dn3  v100
 BYTE   W72
//  #11 //059   ----------------------------------------
 BYTE   W72
 BYTE   Bn2
 BYTE   W24
//  #11 //060   ----------------------------------------
 BYTE   PATT
  POIN2 Label_0145DADB
//  #11 //061   ----------------------------------------
 BYTE   PATT
  POIN2 Label_0145DAFC
//  #11 //062   ----------------------------------------
 BYTE   PATT
  POIN2 Label_0145DB08
//  #11 //063   ----------------------------------------
 BYTE   PATT
  POIN2 Label_0145DB22
//  #11 //064   ----------------------------------------
 BYTE   PATT
  POIN2 Label_0145DB3C
//  #11 //065   ----------------------------------------
 BYTE   PATT
  POIN2 Label_0145DB08
//  #11 //066   ----------------------------------------
 BYTE   PATT
  POIN2 Label_0145DB22
//  #11 //067   ----------------------------------------
 BYTE   PATT
  POIN2 Label_0145DB60
//  #11 //068   ----------------------------------------
 BYTE   PATT
  POIN2 Label_0145DB08
//  #11 //069   ----------------------------------------
 BYTE   PATT
  POIN2 Label_0145DB22
//  #11 //070   ----------------------------------------
 BYTE   PATT
  POIN2 Label_0145DB3C
//  #11 //071   ----------------------------------------
 BYTE   PATT
  POIN2 Label_0145DB08
//  #11 //072   ----------------------------------------
 BYTE   PATT
  POIN2 Label_0145DB22
//  #11 //073   ----------------------------------------
 BYTE   PATT
  POIN2 Label_0145DB60
//  #11 //074   ----------------------------------------
 BYTE   W96
//  #11 //075   ----------------------------------------
 BYTE   W96
//  #11 //076   ----------------------------------------
 BYTE   W96
//  #11 //077   ----------------------------------------
 BYTE   W96
//  #11 //078   ----------------------------------------
 BYTE   W96
//  #11 //079   ----------------------------------------
 BYTE   W96
//  #11 //080   ----------------------------------------
 BYTE   W96
//  #11 //081   ----------------------------------------
 BYTE   W96
//  #11 //082   ----------------------------------------
 BYTE   W96
//  #11 //083   ----------------------------------------
 BYTE   W96
//  #11 //084   ----------------------------------------
 BYTE   W96
//  #11 //085   ----------------------------------------
 BYTE   W96
//  #11 //086   ----------------------------------------
Label_0145DC2C:
 BYTE   W68
 BYTE   W03
 BYTE   PAN   c_v+10
 BYTE   W01
 BYTE   N11  Bn2  v104
 BYTE   W24
 BYTE   PEND 
//  #11 //087   ----------------------------------------
 BYTE   PATT
  POIN2 Label_0145DACB
//  #11 //088   ----------------------------------------
 BYTE   W24
 BYTE   N11  Dn3  v104
 BYTE   W72
//  #11 //089   ----------------------------------------
 BYTE   W72
 BYTE   Bn2  v100
 BYTE   W24
//  #11 //090   ----------------------------------------
 BYTE   PATT
  POIN2 Label_0145DADB
//  #11 //091   ----------------------------------------
 BYTE   W24
 BYTE   N11  Dn3  v100
 BYTE   W72
//  #11 //092   ----------------------------------------
 BYTE   W72
 BYTE   Bn2
 BYTE   W24
//  #11 //093   ----------------------------------------
 BYTE   PATT
  POIN2 Label_0145DADB
//  #11 //094   ----------------------------------------
 BYTE   W24
 BYTE   N11  Dn3  v100
 BYTE   W72
//  #11 //095   ----------------------------------------
 BYTE   W72
 BYTE   Bn2
 BYTE   W24
//  #11 //096   ----------------------------------------
 BYTE   PATT
  POIN2 Label_0145DADB
//  #11 //097   ----------------------------------------
 BYTE   PATT
  POIN2 Label_0145DAFC
//  #11 //098   ----------------------------------------
 BYTE   PATT
  POIN2 Label_0145DB08
//  #11 //099   ----------------------------------------
 BYTE   PATT
  POIN2 Label_0145DB22
//  #11 //100   ----------------------------------------
 BYTE   PATT
  POIN2 Label_0145DB3C
//  #11 //101   ----------------------------------------
 BYTE   PATT
  POIN2 Label_0145DB08
//  #11 //102   ----------------------------------------
 BYTE   PATT
  POIN2 Label_0145DB22
//  #11 //103   ----------------------------------------
 BYTE   PATT
  POIN2 Label_0145DB60
//  #11 //104   ----------------------------------------
 BYTE   PATT
  POIN2 Label_0145DB08
//  #11 //105   ----------------------------------------
 BYTE   PATT
  POIN2 Label_0145DB22
//  #11 //106   ----------------------------------------
 BYTE   PATT
  POIN2 Label_0145DB3C
//  #11 //107   ----------------------------------------
 BYTE   PATT
  POIN2 Label_0145DB08
//  #11 //108   ----------------------------------------
 BYTE   PATT
  POIN2 Label_0145DB22
//  #11 //109   ----------------------------------------
 BYTE   PATT
  POIN2 Label_0145DB60
//  #11 //110   ----------------------------------------
 BYTE   W96
//  #11 //111   ----------------------------------------
 BYTE   W96
//  #11 //112   ----------------------------------------
 BYTE   W96
//  #11 //113   ----------------------------------------
 BYTE   W96
//  #11 //114   ----------------------------------------
 BYTE   W96
//  #11 //115   ----------------------------------------
 BYTE   W96
//  #11 //116   ----------------------------------------
 BYTE   W96
//  #11 //117   ----------------------------------------
 BYTE   W96
//  #11 //118   ----------------------------------------
 BYTE   W96
//  #11 //119   ----------------------------------------
 BYTE   W96
//  #11 //120   ----------------------------------------
 BYTE   W96
//  #11 //121   ----------------------------------------
 BYTE   W96
//  #11 //122   ----------------------------------------
 BYTE   PATT
  POIN2 Label_0145DC2C
//  #11 //123   ----------------------------------------
 BYTE   PATT
  POIN2 Label_0145DACB
//  #11 //124   ----------------------------------------
 BYTE   W24
 BYTE   N11  Dn3  v104
 BYTE   W72
//  #11 //125   ----------------------------------------
 BYTE   W72
 BYTE   Bn2  v100
 BYTE   W24
//  #11 //126   ----------------------------------------
 BYTE   PATT
  POIN2 Label_0145DADB
//  #11 //127   ----------------------------------------
 BYTE   W24
 BYTE   N11  Dn3  v100
 BYTE   W72
//  #11 //128   ----------------------------------------
 BYTE   W72
 BYTE   Bn2
 BYTE   W24
//  #11 //129   ----------------------------------------
 BYTE   PATT
  POIN2 Label_0145DADB
//  #11 //130   ----------------------------------------
 BYTE   W24
 BYTE   N11  Dn3  v100
 BYTE   W72
//  #11 //131   ----------------------------------------
 BYTE   W72
 BYTE   Bn2
 BYTE   W24
//  #11 //132   ----------------------------------------
 BYTE   PATT
  POIN2 Label_0145DADB
//  #11 //133   ----------------------------------------
 BYTE   PATT
  POIN2 Label_0145DAFC
//  #11 //134   ----------------------------------------
 BYTE   PATT
  POIN2 Label_0145DB08
//  #11 //135   ----------------------------------------
 BYTE   PATT
  POIN2 Label_0145DB22
//  #11 //136   ----------------------------------------
 BYTE   PATT
  POIN2 Label_0145DB3C
//  #11 //137   ----------------------------------------
 BYTE   PATT
  POIN2 Label_0145DB08
//  #11 //138   ----------------------------------------
 BYTE   PATT
  POIN2 Label_0145DB22
//  #11 //139   ----------------------------------------
 BYTE   PATT
  POIN2 Label_0145DB60
//  #11 //140   ----------------------------------------
 BYTE   PATT
  POIN2 Label_0145DB08
//  #11 //141   ----------------------------------------
 BYTE   PATT
  POIN2 Label_0145DB22
//  #11 //142   ----------------------------------------
 BYTE   PATT
  POIN2 Label_0145DB3C
//  #11 //143   ----------------------------------------
 BYTE   PATT
  POIN2 Label_0145DB08
//  #11 //144   ----------------------------------------
 BYTE   PATT
  POIN2 Label_0145DB22
//  #11 //145   ----------------------------------------
 BYTE   PATT
  POIN2 Label_0145DB60
//  #11 //146   ----------------------------------------
 BYTE   W96
//  #11 //147   ----------------------------------------
 BYTE   W48
 BYTE   FINE

//**************** Track 12 (Midi-Chn.11) ****************//

song09_012:
//  #12 //000   ----------------------------------------
 BYTE   KEYSH   song09_key+0
 BYTE   MODT 0
 BYTE   LFOS 44
 BYTE   W24
 BYTE   VOICE   54
 BYTE   VOL   45*song09_mvl/mxv
 BYTE   PAN   c_v+0
 BYTE   W96
//  #12 //001   ----------------------------------------
 BYTE   W96
//  #12 //002   ----------------------------------------
 BYTE   W96
//  #12 //003   ----------------------------------------
 BYTE   W96
//  #12 //004   ----------------------------------------
 BYTE   W96
//  #12 //005   ----------------------------------------
 BYTE   W96
//  #12 //006   ----------------------------------------
 BYTE   W96
//  #12 //007   ----------------------------------------
 BYTE   W96
//  #12 //008   ----------------------------------------
 BYTE   W96
//  #12 //009   ----------------------------------------
 BYTE   W96
//  #12 //010   ----------------------------------------
 BYTE   W96
//  #12 //011   ----------------------------------------
 BYTE   W96
//  #12 //012   ----------------------------------------
 BYTE   W72
Label_014537DE:
 BYTE   VOL   45*song09_mvl/mxv
 BYTE   W24
//  #12 //013   ----------------------------------------
 BYTE   W96
//  #12 //014   ----------------------------------------
 BYTE   W96
//  #12 //015   ----------------------------------------
 BYTE   W96
//  #12 //016   ----------------------------------------
 BYTE   W96
//  #12 //017   ----------------------------------------
 BYTE   W96
//  #12 //018   ----------------------------------------
 BYTE   W96
//  #12 //019   ----------------------------------------
 BYTE   W96
//  #12 //020   ----------------------------------------
 BYTE   W96
//  #12 //021   ----------------------------------------
 BYTE   W96
//  #12 //022   ----------------------------------------
 BYTE   W96
//  #12 //023   ----------------------------------------
 BYTE   W96
//  #12 //024   ----------------------------------------
 BYTE   TIE  Cn2  v088
 BYTE   W96
//  #12 //025   ----------------------------------------
 BYTE   W44
 BYTE   W03
 BYTE   EOT
 BYTE   W01
 BYTE   TIE  Dn2
 BYTE   W48
//  #12 //026   ----------------------------------------
 BYTE   W92
 BYTE   W03
 BYTE   EOT
 BYTE   W01
//  #12 //027   ----------------------------------------
 BYTE   TIE  Cn2
 BYTE   W96
//  #12 //028   ----------------------------------------
 BYTE   W44
 BYTE   W03
 BYTE   EOT
 BYTE   W01
 BYTE   N68  Dn2
 BYTE   W48
//  #12 //029   ----------------------------------------
 BYTE   W24
 BYTE   Bn1
 BYTE   W72
//  #12 //030   ----------------------------------------
 BYTE   TIE  Cn2
 BYTE   W96
//  #12 //031   ----------------------------------------
 BYTE   W44
 BYTE   W03
 BYTE   EOT
 BYTE   W01
 BYTE   TIE  Dn2
 BYTE   W48
//  #12 //032   ----------------------------------------
 BYTE   W92
 BYTE   W03
 BYTE   EOT
 BYTE   W01
//  #12 //033   ----------------------------------------
 BYTE   TIE  Cn2
 BYTE   W96
//  #12 //034   ----------------------------------------
 BYTE   W44
 BYTE   W03
 BYTE   EOT
 BYTE   W01
 BYTE   N56  Dn2
 BYTE   W48
//  #12 //035   ----------------------------------------
Label_01453820:
 BYTE   W12
 BYTE   N12  Dn2  v044
 BYTE   W12
 BYTE   N32  Bn1  v088
 BYTE   W36
 BYTE   Bn2  v108
 BYTE   W36
 BYTE   PEND 
//  #12 //036   ----------------------------------------
Label_0145382D:
 BYTE   TIE  An2  v108
 BYTE   W04
 BYTE   VOL   39*song09_mvl/mxv
 BYTE   W18
 BYTE   VOL   38*song09_mvl/mxv
 BYTE   W12
 BYTE   VOL   37*song09_mvl/mxv
 BYTE   W03
 BYTE   VOL   37*song09_mvl/mxv
 BYTE   W08
 BYTE   VOL   36*song09_mvl/mxv
 BYTE   W06
 BYTE   VOL   34*song09_mvl/mxv
 BYTE   W09
 BYTE   VOL   34*song09_mvl/mxv
 BYTE   W15
 BYTE   VOL   34*song09_mvl/mxv
 BYTE   W04
 BYTE   VOL   33*song09_mvl/mxv
 BYTE   W03
 BYTE   VOL   32*song09_mvl/mxv
 BYTE   W12
 BYTE   VOL   31*song09_mvl/mxv
 BYTE   W02
 BYTE   PEND 
//  #12 //037   ----------------------------------------
Label_01453849:
 BYTE   W01
 BYTE   VOL   30*song09_mvl/mxv
 BYTE   W12
 BYTE   VOL   30*song09_mvl/mxv
 BYTE   W05
 BYTE   VOL   28*song09_mvl/mxv
 BYTE   W09
 BYTE   VOL   28*song09_mvl/mxv
 BYTE   W15
 BYTE   VOL   27*song09_mvl/mxv
 BYTE   W06
 BYTE   VOL   27*song09_mvl/mxv
 BYTE   W07
 BYTE   VOL   27*song09_mvl/mxv
 BYTE   W06
 BYTE   VOL   25*song09_mvl/mxv
 BYTE   W03
 BYTE   VOL   24*song09_mvl/mxv
 BYTE   W09
 BYTE   VOL   23*song09_mvl/mxv
 BYTE   W06
 BYTE   VOL   22*song09_mvl/mxv
 BYTE   W03
 BYTE   VOL   22*song09_mvl/mxv
 BYTE   W05
 BYTE   VOL   22*song09_mvl/mxv
 BYTE   W03
 BYTE   VOL   21*song09_mvl/mxv
 BYTE   W03
 BYTE   VOL   20*song09_mvl/mxv
 BYTE   W03
 BYTE   PEND 
//  #12 //038   ----------------------------------------
Label_0145386A:
 BYTE   W03
 BYTE   VOL   20*song09_mvl/mxv
 BYTE   W03
 BYTE   VOL   19*song09_mvl/mxv
 BYTE   W03
 BYTE   VOL   19*song09_mvl/mxv
 BYTE   W03
 BYTE   VOL   19*song09_mvl/mxv
 BYTE   W03
 BYTE   VOL   18*song09_mvl/mxv
 BYTE   W09
 BYTE   VOL   17*song09_mvl/mxv
 BYTE   W07
 BYTE   VOL   16*song09_mvl/mxv
 BYTE   W03
 BYTE   VOL   15*song09_mvl/mxv
 BYTE   W03
 BYTE   VOL   14*song09_mvl/mxv
 BYTE   W06
 BYTE   VOL   13*song09_mvl/mxv
 BYTE   W03
 BYTE   VOL   13*song09_mvl/mxv
 BYTE   W03
 BYTE   VOL   11*song09_mvl/mxv
 BYTE   W03
 BYTE   VOL   11*song09_mvl/mxv
 BYTE   W06
 BYTE   VOL   10*song09_mvl/mxv
 BYTE   W05
 BYTE   VOL   10*song09_mvl/mxv
 BYTE   W03
 BYTE   VOL   8*song09_mvl/mxv
 BYTE   W06
 BYTE   VOL   8*song09_mvl/mxv
 BYTE   W03
 BYTE   VOL   6*song09_mvl/mxv
 BYTE   W03
 BYTE   VOL   6*song09_mvl/mxv
 BYTE   W03
 BYTE   VOL   6*song09_mvl/mxv
 BYTE   W03
 BYTE   VOL   5*song09_mvl/mxv
 BYTE   W03
 BYTE   VOL   5*song09_mvl/mxv
 BYTE   W03
 BYTE   VOL   4*song09_mvl/mxv
 BYTE   W05
 BYTE   PEND 
 BYTE   EOT
 BYTE   An2
 BYTE   W01
//  #12 //039   ----------------------------------------
 BYTE   W96
//  #12 //040   ----------------------------------------
 BYTE   W96
//  #12 //041   ----------------------------------------
 BYTE   W96
//  #12 //042   ----------------------------------------
 BYTE   W96
//  #12 //043   ----------------------------------------
 BYTE   W96
//  #12 //044   ----------------------------------------
 BYTE   W96
//  #12 //045   ----------------------------------------
 BYTE   W96
//  #12 //046   ----------------------------------------
 BYTE   W96
//  #12 //047   ----------------------------------------
 BYTE   W96
//  #12 //048   ----------------------------------------
 BYTE   W72
 BYTE   GoTo
  POIN2 Label_014537DE
//  #12 //049   ----------------------------------------
 BYTE   W24
 BYTE   W96
//  #12 //050   ----------------------------------------
 BYTE   W96
//  #12 //051   ----------------------------------------
 BYTE   W96
//  #12 //052   ----------------------------------------
 BYTE   W96
//  #12 //053   ----------------------------------------
 BYTE   W96
//  #12 //054   ----------------------------------------
 BYTE   W96
//  #12 //055   ----------------------------------------
 BYTE   W96
//  #12 //056   ----------------------------------------
 BYTE   W96
//  #12 //057   ----------------------------------------
 BYTE   W96
//  #12 //058   ----------------------------------------
 BYTE   W96
//  #12 //059   ----------------------------------------
Label_014538B8:
 BYTE   W92
 BYTE   W03
 BYTE   VOL   45*song09_mvl/mxv
 BYTE   W01
 BYTE   PEND 
//  #12 //060   ----------------------------------------
 BYTE   TIE  Cn2  v088
 BYTE   W96
//  #12 //061   ----------------------------------------
 BYTE   W44
 BYTE   W03
 BYTE   EOT
 BYTE   W01
 BYTE   TIE  Dn2
 BYTE   W48
//  #12 //062   ----------------------------------------
 BYTE   W92
 BYTE   W03
 BYTE   EOT
 BYTE   W01
//  #12 //063   ----------------------------------------
 BYTE   TIE  Cn2
 BYTE   W96
//  #12 //064   ----------------------------------------
 BYTE   W44
 BYTE   W03
 BYTE   EOT
 BYTE   W01
 BYTE   N68  Dn2
 BYTE   W48
//  #12 //065   ----------------------------------------
 BYTE   W24
 BYTE   Bn1
 BYTE   W72
//  #12 //066   ----------------------------------------
 BYTE   TIE  Cn2
 BYTE   W96
//  #12 //067   ----------------------------------------
 BYTE   W44
 BYTE   W03
 BYTE   EOT
 BYTE   W01
 BYTE   TIE  Dn2
 BYTE   W48
//  #12 //068   ----------------------------------------
 BYTE   W92
 BYTE   W03
 BYTE   EOT
 BYTE   W01
//  #12 //069   ----------------------------------------
 BYTE   TIE  Cn2
 BYTE   W96
//  #12 //070   ----------------------------------------
 BYTE   W44
 BYTE   W03
 BYTE   EOT
 BYTE   W01
 BYTE   N56  Dn2
 BYTE   W48
//  #12 //071   ----------------------------------------
 BYTE   PATT
  POIN2 Label_01453820
//  #12 //072   ----------------------------------------
 BYTE   PATT
  POIN2 Label_0145382D
//  #12 //073   ----------------------------------------
 BYTE   PATT
  POIN2 Label_01453849
//  #12 //074   ----------------------------------------
 BYTE   PATT
  POIN2 Label_0145386A
//  #12 //075   ----------------------------------------
 BYTE   EOT
 BYTE   An2
 BYTE   W01
 BYTE   W96
//  #12 //076   ----------------------------------------
 BYTE   W96
//  #12 //077   ----------------------------------------
 BYTE   W96
//  #12 //078   ----------------------------------------
 BYTE   W96
//  #12 //079   ----------------------------------------
 BYTE   W96
//  #12 //080   ----------------------------------------
 BYTE   W96
//  #12 //081   ----------------------------------------
 BYTE   W96
//  #12 //082   ----------------------------------------
 BYTE   W96
//  #12 //083   ----------------------------------------
 BYTE   W96
//  #12 //084   ----------------------------------------
 BYTE   W96
//  #12 //085   ----------------------------------------
 BYTE   W96
//  #12 //086   ----------------------------------------
 BYTE   W96
//  #12 //087   ----------------------------------------
 BYTE   W96
//  #12 //088   ----------------------------------------
 BYTE   W96
//  #12 //089   ----------------------------------------
 BYTE   W96
//  #12 //090   ----------------------------------------
 BYTE   W96
//  #12 //091   ----------------------------------------
 BYTE   W96
//  #12 //092   ----------------------------------------
 BYTE   W96
//  #12 //093   ----------------------------------------
 BYTE   W96
//  #12 //094   ----------------------------------------
 BYTE   W96
//  #12 //095   ----------------------------------------
 BYTE   PATT
  POIN2 Label_014538B8
//  #12 //096   ----------------------------------------
 BYTE   TIE  Cn2  v088
 BYTE   W96
//  #12 //097   ----------------------------------------
 BYTE   W44
 BYTE   W03
 BYTE   EOT
 BYTE   W01
 BYTE   TIE  Dn2
 BYTE   W48
//  #12 //098   ----------------------------------------
 BYTE   W92
 BYTE   W03
 BYTE   EOT
 BYTE   W01
//  #12 //099   ----------------------------------------
 BYTE   TIE  Cn2
 BYTE   W96
//  #12 //100   ----------------------------------------
 BYTE   W44
 BYTE   W03
 BYTE   EOT
 BYTE   W01
 BYTE   N68  Dn2
 BYTE   W48
//  #12 //101   ----------------------------------------
 BYTE   W24
 BYTE   Bn1
 BYTE   W72
//  #12 //102   ----------------------------------------
 BYTE   TIE  Cn2
 BYTE   W96
//  #12 //103   ----------------------------------------
 BYTE   W44
 BYTE   W03
 BYTE   EOT
 BYTE   W01
 BYTE   TIE  Dn2
 BYTE   W48
//  #12 //104   ----------------------------------------
 BYTE   W92
 BYTE   W03
 BYTE   EOT
 BYTE   W01
//  #12 //105   ----------------------------------------
 BYTE   TIE  Cn2
 BYTE   W96
//  #12 //106   ----------------------------------------
 BYTE   W44
 BYTE   W03
 BYTE   EOT
 BYTE   W01
 BYTE   N56  Dn2
 BYTE   W48
//  #12 //107   ----------------------------------------
 BYTE   PATT
  POIN2 Label_01453820
//  #12 //108   ----------------------------------------
 BYTE   PATT
  POIN2 Label_0145382D
//  #12 //109   ----------------------------------------
 BYTE   PATT
  POIN2 Label_01453849
//  #12 //110   ----------------------------------------
 BYTE   PATT
  POIN2 Label_0145386A
//  #12 //111   ----------------------------------------
 BYTE   EOT
 BYTE   An2
 BYTE   W01
 BYTE   W96
//  #12 //112   ----------------------------------------
 BYTE   W96
//  #12 //113   ----------------------------------------
 BYTE   W96
//  #12 //114   ----------------------------------------
 BYTE   W96
//  #12 //115   ----------------------------------------
 BYTE   W96
//  #12 //116   ----------------------------------------
 BYTE   W96
//  #12 //117   ----------------------------------------
 BYTE   W96
//  #12 //118   ----------------------------------------
 BYTE   W96
//  #12 //119   ----------------------------------------
 BYTE   W96
//  #12 //120   ----------------------------------------
 BYTE   W96
//  #12 //121   ----------------------------------------
 BYTE   W96
//  #12 //122   ----------------------------------------
 BYTE   W96
//  #12 //123   ----------------------------------------
 BYTE   W96
//  #12 //124   ----------------------------------------
 BYTE   W96
//  #12 //125   ----------------------------------------
 BYTE   W96
//  #12 //126   ----------------------------------------
 BYTE   W96
//  #12 //127   ----------------------------------------
 BYTE   W96
//  #12 //128   ----------------------------------------
 BYTE   W96
//  #12 //129   ----------------------------------------
 BYTE   W96
//  #12 //130   ----------------------------------------
 BYTE   W96
//  #12 //131   ----------------------------------------
 BYTE   PATT
  POIN2 Label_014538B8
//  #12 //132   ----------------------------------------
 BYTE   TIE  Cn2  v088
 BYTE   W96
//  #12 //133   ----------------------------------------
 BYTE   W44
 BYTE   W03
 BYTE   EOT
 BYTE   W01
 BYTE   TIE  Dn2
 BYTE   W48
//  #12 //134   ----------------------------------------
 BYTE   W92
 BYTE   W03
 BYTE   EOT
 BYTE   W01
//  #12 //135   ----------------------------------------
 BYTE   TIE  Cn2
 BYTE   W96
//  #12 //136   ----------------------------------------
 BYTE   W44
 BYTE   W03
 BYTE   EOT
 BYTE   W01
 BYTE   N68  Dn2
 BYTE   W48
//  #12 //137   ----------------------------------------
 BYTE   W24
 BYTE   Bn1
 BYTE   W72
//  #12 //138   ----------------------------------------
 BYTE   TIE  Cn2
 BYTE   W96
//  #12 //139   ----------------------------------------
 BYTE   W44
 BYTE   W03
 BYTE   EOT
 BYTE   W01
 BYTE   TIE  Dn2
 BYTE   W48
//  #12 //140   ----------------------------------------
 BYTE   W92
 BYTE   W03
 BYTE   EOT
 BYTE   W01
//  #12 //141   ----------------------------------------
 BYTE   TIE  Cn2
 BYTE   W96
//  #12 //142   ----------------------------------------
 BYTE   W44
 BYTE   W03
 BYTE   EOT
 BYTE   W01
 BYTE   N56  Dn2
 BYTE   W48
//  #12 //143   ----------------------------------------
 BYTE   PATT
  POIN2 Label_01453820
//  #12 //144   ----------------------------------------
 BYTE   PATT
  POIN2 Label_0145382D
//  #12 //145   ----------------------------------------
 BYTE   PATT
  POIN2 Label_01453849
//  #12 //146   ----------------------------------------
 BYTE   PATT
  POIN2 Label_0145386A
//  #12 //147   ----------------------------------------
 BYTE   EOT
 BYTE   An2
 BYTE   FINE

//**************** Track 13 (Midi-Chn.12) ****************//

song09_013:
//  #13 //000   ----------------------------------------
 BYTE   KEYSH   song09_key+0
 BYTE   MODT 0
 BYTE   LFOS 44
 BYTE   W24
 BYTE   VOICE   48
 BYTE   VOL   37*song09_mvl/mxv
 BYTE   PAN   c_v+0
 BYTE   W96
//  #13 //001   ----------------------------------------
 BYTE   W96
//  #13 //002   ----------------------------------------
 BYTE   W96
//  #13 //003   ----------------------------------------
 BYTE   W96
//  #13 //004   ----------------------------------------
 BYTE   W96
//  #13 //005   ----------------------------------------
 BYTE   W96
//  #13 //006   ----------------------------------------
 BYTE   W96
//  #13 //007   ----------------------------------------
 BYTE   W96
//  #13 //008   ----------------------------------------
 BYTE   W96
//  #13 //009   ----------------------------------------
 BYTE   W96
//  #13 //010   ----------------------------------------
 BYTE   W96
//  #13 //011   ----------------------------------------
 BYTE   W96
//  #13 //012   ----------------------------------------
 BYTE   W72
Label_0145F456:
 BYTE   VOL   37*song09_mvl/mxv
 BYTE   W24
//  #13 //013   ----------------------------------------
 BYTE   W96
//  #13 //014   ----------------------------------------
 BYTE   W96
//  #13 //015   ----------------------------------------
 BYTE   W96
//  #13 //016   ----------------------------------------
 BYTE   W96
//  #13 //017   ----------------------------------------
 BYTE   W96
//  #13 //018   ----------------------------------------
 BYTE   W96
//  #13 //019   ----------------------------------------
 BYTE   W96
//  #13 //020   ----------------------------------------
 BYTE   W96
//  #13 //021   ----------------------------------------
 BYTE   W96
//  #13 //022   ----------------------------------------
 BYTE   W96
//  #13 //023   ----------------------------------------
 BYTE   W96
//  #13 //024   ----------------------------------------
 BYTE   W96
//  #13 //025   ----------------------------------------
 BYTE   W96
//  #13 //026   ----------------------------------------
 BYTE   W96
//  #13 //027   ----------------------------------------
 BYTE   W96
//  #13 //028   ----------------------------------------
 BYTE   W96
//  #13 //029   ----------------------------------------
Label_0145F469:
 BYTE   W72
 BYTE   N05  En4  v100
 BYTE   W06
 BYTE   Fs4  v112
 BYTE   W06
 BYTE   Gn4  v096
 BYTE   W06
 BYTE   An4
 BYTE   W06
 BYTE   PEND 
//  #13 //030   ----------------------------------------
Label_0145F477:
 BYTE   N23  Bn4  v096
 BYTE   W24
 BYTE   N05  An4  v060
 BYTE   W06
 BYTE   Gn4  v048
 BYTE   W06
 BYTE   N11  Fs4  v096
 BYTE   W12
 BYTE   Dn4  v072
 BYTE   W12
 BYTE   Fs4  v112
 BYTE   W12
 BYTE   En4  v116
 BYTE   W12
 BYTE   Bn3  v052
 BYTE   W12
 BYTE   PEND 
//  #13 //031   ----------------------------------------
Label_0145F493:
 BYTE   N11  An3  v096
 BYTE   W12
 BYTE   N05  Bn3  v112
 BYTE   W12
 BYTE   En4  v100
 BYTE   W06
 BYTE   Fs4  v112
 BYTE   W06
 BYTE   Gn4  v096
 BYTE   W06
 BYTE   An4
 BYTE   W06
 BYTE   N23  Bn4
 BYTE   W24
 BYTE   N05  An4  v060
 BYTE   W06
 BYTE   Gn4  v048
 BYTE   W06
 BYTE   N11  Fs4  v096
 BYTE   W12
 BYTE   PEND 
//  #13 //032   ----------------------------------------
Label_0145F4B5:
 BYTE   N11  Dn4  v072
 BYTE   W12
 BYTE   Fs4  v112
 BYTE   W12
 BYTE   En4  v116
 BYTE   W12
 BYTE   Bn4
 BYTE   W12
 BYTE   An4  v096
 BYTE   W12
 BYTE   N05  Bn4  v112
 BYTE   W12
 BYTE   En4  v100
 BYTE   W06
 BYTE   Fs4  v112
 BYTE   W06
 BYTE   Gn4  v096
 BYTE   W06
 BYTE   An4
 BYTE   W06
 BYTE   PEND 
//  #13 //033   ----------------------------------------
 BYTE   PATT
  POIN2 Label_0145F477
//  #13 //034   ----------------------------------------
Label_0145F4D9:
 BYTE   N11  An3  v096
 BYTE   W12
 BYTE   Bn3
 BYTE   W12
 BYTE   An3  v112
 BYTE   W12
 BYTE   Gn3  v096
 BYTE   W12
 BYTE   N56  En3  v100
 BYTE   W48
 BYTE   PEND 
//  #13 //035   ----------------------------------------
Label_0145F4EA:
 BYTE   W24
 BYTE   N23  En3  v096
 BYTE   W24
 BYTE   N12  Gn3  v112
 BYTE   W12
 BYTE   Fs3  v096
 BYTE   W12
 BYTE   En3  v116
 BYTE   W12
 BYTE   N10  Dn3  v112
 BYTE   W12
 BYTE   PEND 
//  #13 //036   ----------------------------------------
Label_0145F4FE:
 BYTE   TIE  En3  v100
 BYTE   W04
 BYTE   VOL   33*song09_mvl/mxv
 BYTE   W06
 BYTE   VOL   33*song09_mvl/mxv
 BYTE   W06
 BYTE   VOL   32*song09_mvl/mxv
 BYTE   W06
 BYTE   VOL   31*song09_mvl/mxv
 BYTE   W12
 BYTE   VOL   30*song09_mvl/mxv
 BYTE   W03
 BYTE   VOL   30*song09_mvl/mxv
 BYTE   W08
 BYTE   VOL   29*song09_mvl/mxv
 BYTE   W09
 BYTE   VOL   29*song09_mvl/mxv
 BYTE   W06
 BYTE   VOL   28*song09_mvl/mxv
 BYTE   W03
 BYTE   VOL   28*song09_mvl/mxv
 BYTE   W03
 BYTE   VOL   27*song09_mvl/mxv
 BYTE   W03
 BYTE   VOL   27*song09_mvl/mxv
 BYTE   W06
 BYTE   VOL   26*song09_mvl/mxv
 BYTE   W04
 BYTE   VOL   24*song09_mvl/mxv
 BYTE   W03
 BYTE   VOL   23*song09_mvl/mxv
 BYTE   W03
 BYTE   VOL   22*song09_mvl/mxv
 BYTE   W03
 BYTE   VOL   22*song09_mvl/mxv
 BYTE   W03
 BYTE   VOL   21*song09_mvl/mxv
 BYTE   W03
 BYTE   VOL   19*song09_mvl/mxv
 BYTE   W02
 BYTE   PEND 
//  #13 //037   ----------------------------------------
Label_0145F52A:
 BYTE   W01
 BYTE   VOL   18*song09_mvl/mxv
 BYTE   W03
 BYTE   VOL   18*song09_mvl/mxv
 BYTE   W03
 BYTE   VOL   15*song09_mvl/mxv
 BYTE   W03
 BYTE   VOL   14*song09_mvl/mxv
 BYTE   W03
 BYTE   VOL   13*song09_mvl/mxv
 BYTE   W05
 BYTE   VOL   11*song09_mvl/mxv
 BYTE   W03
 BYTE   VOL   11*song09_mvl/mxv
 BYTE   W03
 BYTE   VOL   10*song09_mvl/mxv
 BYTE   W03
 BYTE   VOL   8*song09_mvl/mxv
 BYTE   W03
 BYTE   VOL   6*song09_mvl/mxv
 BYTE   W03
 BYTE   VOL   5*song09_mvl/mxv
 BYTE   W03
 BYTE   VOL   5*song09_mvl/mxv
 BYTE   W03
 BYTE   VOL   3*song09_mvl/mxv
 BYTE   W03
 BYTE   VOL   2*song09_mvl/mxv
 BYTE   W03
 BYTE   VOL   1*song09_mvl/mxv
 BYTE   W02
 BYTE   PEND 
 BYTE   EOT
 BYTE   En3
 BYTE   W48
 BYTE   W01
//  #13 //038   ----------------------------------------
 BYTE   W96
//  #13 //039   ----------------------------------------
 BYTE   W96
//  #13 //040   ----------------------------------------
 BYTE   W96
//  #13 //041   ----------------------------------------
 BYTE   W96
//  #13 //042   ----------------------------------------
 BYTE   W96
//  #13 //043   ----------------------------------------
 BYTE   W96
//  #13 //044   ----------------------------------------
 BYTE   W96
//  #13 //045   ----------------------------------------
 BYTE   W96
//  #13 //046   ----------------------------------------
 BYTE   W96
//  #13 //047   ----------------------------------------
 BYTE   W96
//  #13 //048   ----------------------------------------
 BYTE   W72
 BYTE   GoTo
  POIN2 Label_0145F456
//  #13 //049   ----------------------------------------
 BYTE   W24
 BYTE   W96
//  #13 //050   ----------------------------------------
 BYTE   W96
//  #13 //051   ----------------------------------------
 BYTE   W96
//  #13 //052   ----------------------------------------
 BYTE   W96
//  #13 //053   ----------------------------------------
 BYTE   W96
//  #13 //054   ----------------------------------------
 BYTE   W96
//  #13 //055   ----------------------------------------
 BYTE   W96
//  #13 //056   ----------------------------------------
 BYTE   W96
//  #13 //057   ----------------------------------------
 BYTE   W96
//  #13 //058   ----------------------------------------
 BYTE   W96
//  #13 //059   ----------------------------------------
Label_0145F56A:
 BYTE   W44
 BYTE   W03
 BYTE   VOL   37*song09_mvl/mxv
 BYTE   W48
 BYTE   W01
 BYTE   PEND 
//  #13 //060   ----------------------------------------
 BYTE   W96
//  #13 //061   ----------------------------------------
 BYTE   W96
//  #13 //062   ----------------------------------------
 BYTE   W96
//  #13 //063   ----------------------------------------
 BYTE   W96
//  #13 //064   ----------------------------------------
 BYTE   W96
//  #13 //065   ----------------------------------------
 BYTE   PATT
  POIN2 Label_0145F469
//  #13 //066   ----------------------------------------
 BYTE   PATT
  POIN2 Label_0145F477
//  #13 //067   ----------------------------------------
 BYTE   PATT
  POIN2 Label_0145F493
//  #13 //068   ----------------------------------------
 BYTE   PATT
  POIN2 Label_0145F4B5
//  #13 //069   ----------------------------------------
 BYTE   PATT
  POIN2 Label_0145F477
//  #13 //070   ----------------------------------------
 BYTE   PATT
  POIN2 Label_0145F4D9
//  #13 //071   ----------------------------------------
 BYTE   PATT
  POIN2 Label_0145F4EA
//  #13 //072   ----------------------------------------
 BYTE   PATT
  POIN2 Label_0145F4FE
//  #13 //073   ----------------------------------------
 BYTE   PATT
  POIN2 Label_0145F52A
//  #13 //074   ----------------------------------------
 BYTE   EOT
 BYTE   En3
 BYTE   W48
 BYTE   W01
 BYTE   W96
//  #13 //075   ----------------------------------------
 BYTE   W96
//  #13 //076   ----------------------------------------
 BYTE   W96
//  #13 //077   ----------------------------------------
 BYTE   W96
//  #13 //078   ----------------------------------------
 BYTE   W96
//  #13 //079   ----------------------------------------
 BYTE   W96
//  #13 //080   ----------------------------------------
 BYTE   W96
//  #13 //081   ----------------------------------------
 BYTE   W96
//  #13 //082   ----------------------------------------
 BYTE   W96
//  #13 //083   ----------------------------------------
 BYTE   W96
//  #13 //084   ----------------------------------------
 BYTE   W96
//  #13 //085   ----------------------------------------
 BYTE   W96
//  #13 //086   ----------------------------------------
 BYTE   W96
//  #13 //087   ----------------------------------------
 BYTE   W96
//  #13 //088   ----------------------------------------
 BYTE   W96
//  #13 //089   ----------------------------------------
 BYTE   W96
//  #13 //090   ----------------------------------------
 BYTE   W96
//  #13 //091   ----------------------------------------
 BYTE   W96
//  #13 //092   ----------------------------------------
 BYTE   W96
//  #13 //093   ----------------------------------------
 BYTE   W96
//  #13 //094   ----------------------------------------
 BYTE   W96
//  #13 //095   ----------------------------------------
 BYTE   PATT
  POIN2 Label_0145F56A
//  #13 //096   ----------------------------------------
 BYTE   W96
//  #13 //097   ----------------------------------------
 BYTE   W96
//  #13 //098   ----------------------------------------
 BYTE   W96
//  #13 //099   ----------------------------------------
 BYTE   W96
//  #13 //100   ----------------------------------------
 BYTE   W96
//  #13 //101   ----------------------------------------
 BYTE   PATT
  POIN2 Label_0145F469
//  #13 //102   ----------------------------------------
 BYTE   PATT
  POIN2 Label_0145F477
//  #13 //103   ----------------------------------------
 BYTE   PATT
  POIN2 Label_0145F493
//  #13 //104   ----------------------------------------
 BYTE   PATT
  POIN2 Label_0145F4B5
//  #13 //105   ----------------------------------------
 BYTE   PATT
  POIN2 Label_0145F477
//  #13 //106   ----------------------------------------
 BYTE   PATT
  POIN2 Label_0145F4D9
//  #13 //107   ----------------------------------------
 BYTE   PATT
  POIN2 Label_0145F4EA
//  #13 //108   ----------------------------------------
 BYTE   PATT
  POIN2 Label_0145F4FE
//  #13 //109   ----------------------------------------
 BYTE   PATT
  POIN2 Label_0145F52A
//  #13 //110   ----------------------------------------
 BYTE   EOT
 BYTE   En3
 BYTE   W48
 BYTE   W01
 BYTE   W96
//  #13 //111   ----------------------------------------
 BYTE   W96
//  #13 //112   ----------------------------------------
 BYTE   W96
//  #13 //113   ----------------------------------------
 BYTE   W96
//  #13 //114   ----------------------------------------
 BYTE   W96
//  #13 //115   ----------------------------------------
 BYTE   W96
//  #13 //116   ----------------------------------------
 BYTE   W96
//  #13 //117   ----------------------------------------
 BYTE   W96
//  #13 //118   ----------------------------------------
 BYTE   W96
//  #13 //119   ----------------------------------------
 BYTE   W96
//  #13 //120   ----------------------------------------
 BYTE   W96
//  #13 //121   ----------------------------------------
 BYTE   W96
//  #13 //122   ----------------------------------------
 BYTE   W96
//  #13 //123   ----------------------------------------
 BYTE   W96
//  #13 //124   ----------------------------------------
 BYTE   W96
//  #13 //125   ----------------------------------------
 BYTE   W96
//  #13 //126   ----------------------------------------
 BYTE   W96
//  #13 //127   ----------------------------------------
 BYTE   W96
//  #13 //128   ----------------------------------------
 BYTE   W96
//  #13 //129   ----------------------------------------
 BYTE   W96
//  #13 //130   ----------------------------------------
 BYTE   W96
//  #13 //131   ----------------------------------------
 BYTE   PATT
  POIN2 Label_0145F56A
//  #13 //132   ----------------------------------------
 BYTE   W96
//  #13 //133   ----------------------------------------
 BYTE   W96
//  #13 //134   ----------------------------------------
 BYTE   W96
//  #13 //135   ----------------------------------------
 BYTE   W96
//  #13 //136   ----------------------------------------
 BYTE   W96
//  #13 //137   ----------------------------------------
 BYTE   PATT
  POIN2 Label_0145F469
//  #13 //138   ----------------------------------------
 BYTE   PATT
  POIN2 Label_0145F477
//  #13 //139   ----------------------------------------
 BYTE   PATT
  POIN2 Label_0145F493
//  #13 //140   ----------------------------------------
 BYTE   PATT
  POIN2 Label_0145F4B5
//  #13 //141   ----------------------------------------
 BYTE   PATT
  POIN2 Label_0145F477
//  #13 //142   ----------------------------------------
 BYTE   PATT
  POIN2 Label_0145F4D9
//  #13 //143   ----------------------------------------
 BYTE   PATT
  POIN2 Label_0145F4EA
//  #13 //144   ----------------------------------------
 BYTE   PATT
  POIN2 Label_0145F4FE
//  #13 //145   ----------------------------------------
 BYTE   PATT
  POIN2 Label_0145F52A
//  #13 //146   ----------------------------------------
 BYTE   EOT
 BYTE   En3
 BYTE   W01
 BYTE   FINE

//**************** Track 14 (Midi-Chn.13) ****************//

song09_014:
//  #14 //000   ----------------------------------------
 BYTE   KEYSH   song09_key+0
 BYTE   MODT 0
 BYTE   LFOS 44
 BYTE   W24
 BYTE   VOICE   10
 BYTE   VOL   30*song09_mvl/mxv
 BYTE   PAN   c_v+0
 BYTE   VOL   37*song09_mvl/mxv
 BYTE   N04  Bn4  v088
 BYTE   W06
 BYTE   Bn4  v036
 BYTE   W06
 BYTE   En4  v088
 BYTE   W06
 BYTE   En4  v036
 BYTE   W06
 BYTE   Dn4  v088
 BYTE   W06
 BYTE   Dn4  v036
 BYTE   W06
 BYTE   En4  v088
 BYTE   W06
 BYTE   En4  v044
 BYTE   W06
 BYTE   En4  v048
 BYTE   W06
 BYTE   En4  v028
 BYTE   W06
 BYTE   En4  v032
 BYTE   W06
 BYTE   En4  v016
 BYTE   W30
//  #14 //001   ----------------------------------------
 BYTE   W96
//  #14 //002   ----------------------------------------
 BYTE   W96
//  #14 //003   ----------------------------------------
Label_0145F6B2:
 BYTE   N04  An4  v088
 BYTE   W06
 BYTE   An4  v036
 BYTE   W06
 BYTE   Dn4  v088
 BYTE   W06
 BYTE   Dn4  v036
 BYTE   W06
 BYTE   En4  v088
 BYTE   W06
 BYTE   En4  v036
 BYTE   W06
 BYTE   An3  v088
 BYTE   W06
 BYTE   An3  v044
 BYTE   W06
 BYTE   An3  v048
 BYTE   W06
 BYTE   An3  v028
 BYTE   W06
 BYTE   An3  v032
 BYTE   W06
 BYTE   An3  v016
 BYTE   W30
 BYTE   PEND 
//  #14 //004   ----------------------------------------
 BYTE   W96
//  #14 //005   ----------------------------------------
 BYTE   W96
//  #14 //006   ----------------------------------------
Label_0145F6DA:
 BYTE   VOL   41*song09_mvl/mxv
 BYTE   N04  Bn4  v088
 BYTE   W06
 BYTE   Bn4  v036
 BYTE   W06
 BYTE   En4  v088
 BYTE   W06
 BYTE   En4  v036
 BYTE   W06
 BYTE   Dn4  v088
 BYTE   W06
 BYTE   Dn4  v036
 BYTE   W06
 BYTE   En4  v088
 BYTE   W06
 BYTE   En4  v044
 BYTE   W06
 BYTE   En4  v048
 BYTE   W06
 BYTE   En4  v028
 BYTE   W06
 BYTE   En4  v032
 BYTE   W06
 BYTE   En4  v016
 BYTE   W30
 BYTE   PEND 
//  #14 //007   ----------------------------------------
 BYTE   W96
//  #14 //008   ----------------------------------------
 BYTE   W96
//  #14 //009   ----------------------------------------
 BYTE   PATT
  POIN2 Label_0145F6B2
//  #14 //010   ----------------------------------------
 BYTE   W96
//  #14 //011   ----------------------------------------
 BYTE   W96
//  #14 //012   ----------------------------------------
Label_0145F70B:
 BYTE   VOL   46*song09_mvl/mxv
 BYTE   N04  Bn4  v088
 BYTE   W06
 BYTE   Bn4  v036
 BYTE   W06
 BYTE   En4  v088
 BYTE   W06
 BYTE   En4  v036
 BYTE   W06
 BYTE   Dn4  v088
 BYTE   W06
 BYTE   Dn4  v036
 BYTE   W06
 BYTE   En4  v088
 BYTE   W06
 BYTE   En4  v044
 BYTE   W06
 BYTE   En4  v048
 BYTE   W06
 BYTE   En4  v028
 BYTE   W06
 BYTE   En4  v032
 BYTE   W06
 BYTE   En4  v016
 BYTE   W06
 BYTE   PEND 
Label_0145F733:
 BYTE   W24
//  #14 //013   ----------------------------------------
Label_0145F734:
 BYTE   W48
 BYTE   N04  An4  v088
 BYTE   W06
 BYTE   An4  v036
 BYTE   W06
 BYTE   Dn4  v088
 BYTE   W06
 BYTE   Dn4  v036
 BYTE   W06
 BYTE   En4  v088
 BYTE   W06
 BYTE   En4  v036
 BYTE   W06
 BYTE   An3  v088
 BYTE   W06
 BYTE   An3  v044
 BYTE   W06
 BYTE   PEND 
//  #14 //014   ----------------------------------------
Label_0145F74F:
 BYTE   N04  An3  v048
 BYTE   W06
 BYTE   An3  v028
 BYTE   W06
 BYTE   An3  v032
 BYTE   W06
 BYTE   An3  v016
 BYTE   W78
 BYTE   PEND 
//  #14 //015   ----------------------------------------
Label_0145F75D:
 BYTE   N04  Bn4  v088
 BYTE   W06
 BYTE   Bn4  v036
 BYTE   W06
 BYTE   En4  v088
 BYTE   W06
 BYTE   En4  v036
 BYTE   W06
 BYTE   Dn4  v088
 BYTE   W06
 BYTE   Dn4  v036
 BYTE   W06
 BYTE   En4  v088
 BYTE   W06
 BYTE   En4  v044
 BYTE   W06
 BYTE   En4  v048
 BYTE   W06
 BYTE   En4  v028
 BYTE   W06
 BYTE   En4  v032
 BYTE   W06
 BYTE   En4  v016
 BYTE   W30
 BYTE   PEND 
//  #14 //016   ----------------------------------------
 BYTE   PATT
  POIN2 Label_0145F734
//  #14 //017   ----------------------------------------
 BYTE   PATT
  POIN2 Label_0145F74F
//  #14 //018   ----------------------------------------
 BYTE   PATT
  POIN2 Label_0145F75D
//  #14 //019   ----------------------------------------
 BYTE   PATT
  POIN2 Label_0145F734
//  #14 //020   ----------------------------------------
 BYTE   PATT
  POIN2 Label_0145F74F
//  #14 //021   ----------------------------------------
 BYTE   PATT
  POIN2 Label_0145F75D
//  #14 //022   ----------------------------------------
 BYTE   PATT
  POIN2 Label_0145F734
//  #14 //023   ----------------------------------------
Label_0145F7A6:
 BYTE   N04  An3  v048
 BYTE   W06
 BYTE   An3  v028
 BYTE   W06
 BYTE   An3  v032
 BYTE   W06
 BYTE   An3  v016
 BYTE   W76
 BYTE   W01
 BYTE   VOL   66*song09_mvl/mxv
 BYTE   W01
 BYTE   PEND 
//  #14 //024   ----------------------------------------
Label_0145F7B8:
 BYTE   VOL   51*song09_mvl/mxv
 BYTE   N04  Bn4  v088
 BYTE   W06
 BYTE   Bn4  v036
 BYTE   W06
 BYTE   En4  v088
 BYTE   W06
 BYTE   En4  v036
 BYTE   W06
 BYTE   Dn4  v088
 BYTE   W06
 BYTE   Dn4  v036
 BYTE   W06
 BYTE   En4  v088
 BYTE   W06
 BYTE   En4  v044
 BYTE   W06
 BYTE   En4  v048
 BYTE   W06
 BYTE   En4  v028
 BYTE   W06
 BYTE   En4  v032
 BYTE   W06
 BYTE   En4  v016
 BYTE   W30
 BYTE   PEND 
//  #14 //025   ----------------------------------------
Label_0145F7E0:
 BYTE   W48
 BYTE   N04  Bn4  v088
 BYTE   W06
 BYTE   Bn4  v036
 BYTE   W06
 BYTE   En4  v088
 BYTE   W06
 BYTE   En4  v036
 BYTE   W06
 BYTE   Dn4  v088
 BYTE   W06
 BYTE   Dn4  v036
 BYTE   W06
 BYTE   En4  v088
 BYTE   W06
 BYTE   En4  v044
 BYTE   W06
 BYTE   PEND 
//  #14 //026   ----------------------------------------
Label_0145F7FB:
 BYTE   N04  En4  v048
 BYTE   W06
 BYTE   En4  v028
 BYTE   W06
 BYTE   En4  v032
 BYTE   W06
 BYTE   En4  v016
 BYTE   W78
 BYTE   PEND 
//  #14 //027   ----------------------------------------
 BYTE   PATT
  POIN2 Label_0145F75D
//  #14 //028   ----------------------------------------
 BYTE   PATT
  POIN2 Label_0145F7E0
//  #14 //029   ----------------------------------------
 BYTE   PATT
  POIN2 Label_0145F7FB
//  #14 //030   ----------------------------------------
 BYTE   PATT
  POIN2 Label_0145F75D
//  #14 //031   ----------------------------------------
 BYTE   PATT
  POIN2 Label_0145F7E0
//  #14 //032   ----------------------------------------
 BYTE   PATT
  POIN2 Label_0145F7FB
//  #14 //033   ----------------------------------------
 BYTE   PATT
  POIN2 Label_0145F75D
//  #14 //034   ----------------------------------------
 BYTE   PATT
  POIN2 Label_0145F7E0
//  #14 //035   ----------------------------------------
 BYTE   PATT
  POIN2 Label_0145F7FB
//  #14 //036   ----------------------------------------
Label_0145F836:
 BYTE   N04  Bn4  v088
 BYTE   W06
 BYTE   Bn4  v044
 BYTE   W06
 BYTE   En4  v088
 BYTE   W06
 BYTE   En4  v044
 BYTE   W06
 BYTE   Dn4  v088
 BYTE   W06
 BYTE   Dn4  v044
 BYTE   W06
 BYTE   En4  v088
 BYTE   W06
 BYTE   En4  v048
 BYTE   W06
 BYTE   En4  v056
 BYTE   W06
 BYTE   En4  v032
 BYTE   W06
 BYTE   En4  v040
 BYTE   W06
 BYTE   En4  v016
 BYTE   W30
 BYTE   PEND 
//  #14 //037   ----------------------------------------
 BYTE   W96
//  #14 //038   ----------------------------------------
Label_0145F85D:
 BYTE   W92
 BYTE   W03
 BYTE   VOL   30*song09_mvl/mxv
 BYTE   W01
 BYTE   PEND 
//  #14 //039   ----------------------------------------
 BYTE   PATT
  POIN2 Label_0145F6B2
//  #14 //040   ----------------------------------------
 BYTE   W96
//  #14 //041   ----------------------------------------
 BYTE   W96
//  #14 //042   ----------------------------------------
 BYTE   PATT
  POIN2 Label_0145F6DA
//  #14 //043   ----------------------------------------
 BYTE   W96
//  #14 //044   ----------------------------------------
 BYTE   W96
//  #14 //045   ----------------------------------------
 BYTE   PATT
  POIN2 Label_0145F6B2
//  #14 //046   ----------------------------------------
 BYTE   W96
//  #14 //047   ----------------------------------------
 BYTE   W96
//  #14 //048   ----------------------------------------
 BYTE   PATT
  POIN2 Label_0145F70B
//  #14 //049   ----------------------------------------
 BYTE   GoTo
  POIN2 Label_0145F733
//  #14 //050   ----------------------------------------
 BYTE   W24
//  #14 //051   ----------------------------------------
 BYTE   PATT
  POIN2 Label_0145F734
//  #14 //052   ----------------------------------------
 BYTE   PATT
  POIN2 Label_0145F74F
//  #14 //053   ----------------------------------------
 BYTE   PATT
  POIN2 Label_0145F75D
//  #14 //054   ----------------------------------------
 BYTE   PATT
  POIN2 Label_0145F734
//  #14 //055   ----------------------------------------
 BYTE   PATT
  POIN2 Label_0145F74F
//  #14 //056   ----------------------------------------
 BYTE   PATT
  POIN2 Label_0145F75D
//  #14 //057   ----------------------------------------
 BYTE   PATT
  POIN2 Label_0145F734
//  #14 //058   ----------------------------------------
 BYTE   PATT
  POIN2 Label_0145F74F
//  #14 //059   ----------------------------------------
 BYTE   PATT
  POIN2 Label_0145F75D
//  #14 //060   ----------------------------------------
 BYTE   PATT
  POIN2 Label_0145F734
//  #14 //061   ----------------------------------------
 BYTE   PATT
  POIN2 Label_0145F7A6
//  #14 //062   ----------------------------------------
 BYTE   PATT
  POIN2 Label_0145F7B8
//  #14 //063   ----------------------------------------
 BYTE   PATT
  POIN2 Label_0145F7E0
//  #14 //064   ----------------------------------------
 BYTE   PATT
  POIN2 Label_0145F7FB
//  #14 //065   ----------------------------------------
 BYTE   PATT
  POIN2 Label_0145F75D
//  #14 //066   ----------------------------------------
 BYTE   PATT
  POIN2 Label_0145F7E0
//  #14 //067   ----------------------------------------
 BYTE   PATT
  POIN2 Label_0145F7FB
//  #14 //068   ----------------------------------------
 BYTE   PATT
  POIN2 Label_0145F75D
//  #14 //069   ----------------------------------------
 BYTE   PATT
  POIN2 Label_0145F7E0
//  #14 //070   ----------------------------------------
 BYTE   PATT
  POIN2 Label_0145F7FB
//  #14 //071   ----------------------------------------
 BYTE   PATT
  POIN2 Label_0145F75D
//  #14 //072   ----------------------------------------
 BYTE   PATT
  POIN2 Label_0145F7E0
//  #14 //073   ----------------------------------------
 BYTE   PATT
  POIN2 Label_0145F7FB
//  #14 //074   ----------------------------------------
 BYTE   PATT
  POIN2 Label_0145F836
//  #14 //075   ----------------------------------------
 BYTE   W96
//  #14 //076   ----------------------------------------
 BYTE   PATT
  POIN2 Label_0145F85D
//  #14 //077   ----------------------------------------
 BYTE   PATT
  POIN2 Label_0145F6B2
//  #14 //078   ----------------------------------------
 BYTE   W96
//  #14 //079   ----------------------------------------
 BYTE   W96
//  #14 //080   ----------------------------------------
 BYTE   PATT
  POIN2 Label_0145F6DA
//  #14 //081   ----------------------------------------
 BYTE   W96
//  #14 //082   ----------------------------------------
 BYTE   W96
//  #14 //083   ----------------------------------------
 BYTE   PATT
  POIN2 Label_0145F6B2
//  #14 //084   ----------------------------------------
 BYTE   W96
//  #14 //085   ----------------------------------------
 BYTE   W96
//  #14 //086   ----------------------------------------
Label_0145F916:
 BYTE   VOL   46*song09_mvl/mxv
 BYTE   N04  Bn4  v088
 BYTE   W06
 BYTE   Bn4  v036
 BYTE   W06
 BYTE   En4  v088
 BYTE   W06
 BYTE   En4  v036
 BYTE   W06
 BYTE   Dn4  v088
 BYTE   W06
 BYTE   Dn4  v036
 BYTE   W06
 BYTE   En4  v088
 BYTE   W06
 BYTE   En4  v044
 BYTE   W06
 BYTE   En4  v048
 BYTE   W06
 BYTE   En4  v028
 BYTE   W06
 BYTE   En4  v032
 BYTE   W06
 BYTE   En4  v016
 BYTE   W30
 BYTE   PEND 
//  #14 //087   ----------------------------------------
 BYTE   PATT
  POIN2 Label_0145F734
//  #14 //088   ----------------------------------------
 BYTE   PATT
  POIN2 Label_0145F74F
//  #14 //089   ----------------------------------------
 BYTE   PATT
  POIN2 Label_0145F75D
//  #14 //090   ----------------------------------------
 BYTE   PATT
  POIN2 Label_0145F734
//  #14 //091   ----------------------------------------
 BYTE   PATT
  POIN2 Label_0145F74F
//  #14 //092   ----------------------------------------
 BYTE   PATT
  POIN2 Label_0145F75D
//  #14 //093   ----------------------------------------
 BYTE   PATT
  POIN2 Label_0145F734
//  #14 //094   ----------------------------------------
 BYTE   PATT
  POIN2 Label_0145F74F
//  #14 //095   ----------------------------------------
 BYTE   PATT
  POIN2 Label_0145F75D
//  #14 //096   ----------------------------------------
 BYTE   PATT
  POIN2 Label_0145F734
//  #14 //097   ----------------------------------------
 BYTE   PATT
  POIN2 Label_0145F7A6
//  #14 //098   ----------------------------------------
 BYTE   PATT
  POIN2 Label_0145F7B8
//  #14 //099   ----------------------------------------
 BYTE   PATT
  POIN2 Label_0145F7E0
//  #14 //100   ----------------------------------------
 BYTE   PATT
  POIN2 Label_0145F7FB
//  #14 //101   ----------------------------------------
 BYTE   PATT
  POIN2 Label_0145F75D
//  #14 //102   ----------------------------------------
 BYTE   PATT
  POIN2 Label_0145F7E0
//  #14 //103   ----------------------------------------
 BYTE   PATT
  POIN2 Label_0145F7FB
//  #14 //104   ----------------------------------------
 BYTE   PATT
  POIN2 Label_0145F75D
//  #14 //105   ----------------------------------------
 BYTE   PATT
  POIN2 Label_0145F7E0
//  #14 //106   ----------------------------------------
 BYTE   PATT
  POIN2 Label_0145F7FB
//  #14 //107   ----------------------------------------
 BYTE   PATT
  POIN2 Label_0145F75D
//  #14 //108   ----------------------------------------
 BYTE   PATT
  POIN2 Label_0145F7E0
//  #14 //109   ----------------------------------------
 BYTE   PATT
  POIN2 Label_0145F7FB
//  #14 //110   ----------------------------------------
 BYTE   PATT
  POIN2 Label_0145F836
//  #14 //111   ----------------------------------------
 BYTE   W96
//  #14 //112   ----------------------------------------
 BYTE   PATT
  POIN2 Label_0145F85D
//  #14 //113   ----------------------------------------
 BYTE   PATT
  POIN2 Label_0145F6B2
//  #14 //114   ----------------------------------------
 BYTE   W96
//  #14 //115   ----------------------------------------
 BYTE   W96
//  #14 //116   ----------------------------------------
 BYTE   PATT
  POIN2 Label_0145F6DA
//  #14 //117   ----------------------------------------
 BYTE   W96
//  #14 //118   ----------------------------------------
 BYTE   W96
//  #14 //119   ----------------------------------------
 BYTE   PATT
  POIN2 Label_0145F6B2
//  #14 //120   ----------------------------------------
 BYTE   W96
//  #14 //121   ----------------------------------------
 BYTE   W96
//  #14 //122   ----------------------------------------
 BYTE   PATT
  POIN2 Label_0145F916
//  #14 //123   ----------------------------------------
 BYTE   PATT
  POIN2 Label_0145F734
//  #14 //124   ----------------------------------------
 BYTE   PATT
  POIN2 Label_0145F74F
//  #14 //125   ----------------------------------------
 BYTE   PATT
  POIN2 Label_0145F75D
//  #14 //126   ----------------------------------------
 BYTE   PATT
  POIN2 Label_0145F734
//  #14 //127   ----------------------------------------
 BYTE   PATT
  POIN2 Label_0145F74F
//  #14 //128   ----------------------------------------
 BYTE   PATT
  POIN2 Label_0145F75D
//  #14 //129   ----------------------------------------
 BYTE   PATT
  POIN2 Label_0145F734
//  #14 //130   ----------------------------------------
 BYTE   PATT
  POIN2 Label_0145F74F
//  #14 //131   ----------------------------------------
 BYTE   PATT
  POIN2 Label_0145F75D
//  #14 //132   ----------------------------------------
 BYTE   PATT
  POIN2 Label_0145F734
//  #14 //133   ----------------------------------------
 BYTE   PATT
  POIN2 Label_0145F7A6
//  #14 //134   ----------------------------------------
 BYTE   PATT
  POIN2 Label_0145F7B8
//  #14 //135   ----------------------------------------
 BYTE   PATT
  POIN2 Label_0145F7E0
//  #14 //136   ----------------------------------------
 BYTE   PATT
  POIN2 Label_0145F7FB
//  #14 //137   ----------------------------------------
 BYTE   PATT
  POIN2 Label_0145F75D
//  #14 //138   ----------------------------------------
 BYTE   PATT
  POIN2 Label_0145F7E0
//  #14 //139   ----------------------------------------
 BYTE   PATT
  POIN2 Label_0145F7FB
//  #14 //140   ----------------------------------------
 BYTE   PATT
  POIN2 Label_0145F75D
//  #14 //141   ----------------------------------------
 BYTE   PATT
  POIN2 Label_0145F7E0
//  #14 //142   ----------------------------------------
 BYTE   PATT
  POIN2 Label_0145F7FB
//  #14 //143   ----------------------------------------
 BYTE   PATT
  POIN2 Label_0145F75D
//  #14 //144   ----------------------------------------
 BYTE   PATT
  POIN2 Label_0145F7E0
//  #14 //145   ----------------------------------------
 BYTE   PATT
  POIN2 Label_0145F7FB
//  #14 //146   ----------------------------------------
 BYTE   PATT
  POIN2 Label_0145F836
//  #14 //147   ----------------------------------------
 BYTE   W96
//  #14 //148   ----------------------------------------
 BYTE   PATT
  POIN2 Label_0145F85D
//  #14 //149   ----------------------------------------
 BYTE   N04  An4  v088
 BYTE   W06
 BYTE   An4  v036
 BYTE   W06
 BYTE   Dn4  v088
 BYTE   W06
 BYTE   Dn4  v036
 BYTE   W06
 BYTE   En4  v088
 BYTE   W06
 BYTE   En4  v036
 BYTE   W06
 BYTE   An3  v088
 BYTE   W06
 BYTE   An3  v044
 BYTE   W06
 BYTE   An3  v048
 BYTE   W06
 BYTE   An3  v028
 BYTE   W06
 BYTE   An3  v032
 BYTE   W06
 BYTE   An3  v016
 BYTE   W04
 BYTE   FINE

//**************** Track 15 (Midi-Chn.14) ****************//

song09_015:
//  #15 //000   ----------------------------------------
 BYTE   KEYSH   song09_key+0
 BYTE   MODT 0
 BYTE   LFOS 44
 BYTE   W24
 BYTE   VOICE   10
 BYTE   VOL   45*song09_mvl/mxv
 BYTE   PAN   c_v-34
 BYTE   VOL   37*song09_mvl/mxv
 BYTE   PAN   c_v-29
 BYTE   N01  Bn5  v020
 BYTE   W12
 BYTE   An5
 BYTE   W12
 BYTE   En5  v024
 BYTE   W12
 BYTE   Bn5  v028
 BYTE   W12
 BYTE   An5  v032
 BYTE   W12
 BYTE   En5
 BYTE   W12
//  #15 //001   ----------------------------------------
 BYTE   Bn5  v036
 BYTE   W12
 BYTE   An5  v040
 BYTE   W12
Label_0145E5F8:
 BYTE   N01  En5  v044
 BYTE   W12
 BYTE   Bn5  v048
 BYTE   W12
 BYTE   An5  v052
 BYTE   W12
 BYTE   En5  v056
 BYTE   W12
 BYTE   Bn5  v060
 BYTE   W12
 BYTE   An5  v056
 BYTE   W12
//  #15 //002   ----------------------------------------
 BYTE   En5  v052
 BYTE   W12
 BYTE   Bn5  v048
 BYTE   W12
 BYTE   PEND 
Label_0145E612:
 BYTE   N01  An5  v044
 BYTE   W12
 BYTE   En5  v040
 BYTE   W12
 BYTE   Bn5  v036
 BYTE   W12
 BYTE   An5  v032
 BYTE   W12
 BYTE   En5
 BYTE   W12
 BYTE   Bn5  v028
 BYTE   W12
//  #15 //003   ----------------------------------------
 BYTE   An5  v024
 BYTE   W12
 BYTE   En5  v020
 BYTE   W12
 BYTE   PEND 
Label_0145E62B:
 BYTE   N01  An5  v020
 BYTE   W12
 BYTE   En5  v024
 BYTE   W12
 BYTE   Dn5  v028
 BYTE   W12
 BYTE   An5
 BYTE   W12
 BYTE   En5  v032
 BYTE   W12
 BYTE   Dn5  v036
 BYTE   W12
//  #15 //004   ----------------------------------------
 BYTE   An5  v040
 BYTE   W12
 BYTE   En5  v044
 BYTE   W12
 BYTE   PEND 
Label_0145E644:
 BYTE   N01  Dn5  v048
 BYTE   W12
 BYTE   An5  v052
 BYTE   W12
 BYTE   En5  v056
 BYTE   W12
 BYTE   Dn5  v060
 BYTE   W12
 BYTE   An5  v064
 BYTE   W12
 BYTE   En5  v060
 BYTE   W12
//  #15 //005   ----------------------------------------
 BYTE   Dn5  v056
 BYTE   W12
 BYTE   An5  v052
 BYTE   W12
 BYTE   PEND 
Label_0145E65E:
 BYTE   N01  En5  v048
 BYTE   W12
 BYTE   Dn5  v044
 BYTE   W12
 BYTE   An5  v036
 BYTE   W12
 BYTE   En5  v032
 BYTE   W12
 BYTE   Dn5
 BYTE   W12
 BYTE   An5  v028
 BYTE   W12
//  #15 //006   ----------------------------------------
 BYTE   En5  v024
 BYTE   W12
 BYTE   Dn5  v020
 BYTE   W12
 BYTE   PEND 
Label_0145E677:
 BYTE   N01  Bn5  v020
 BYTE   W12
 BYTE   An5
 BYTE   W12
 BYTE   En5  v024
 BYTE   W12
 BYTE   Bn5  v028
 BYTE   W12
 BYTE   An5  v032
 BYTE   W12
 BYTE   En5
 BYTE   W12
//  #15 //007   ----------------------------------------
 BYTE   Bn5  v036
 BYTE   W12
 BYTE   An5  v040
 BYTE   W12
 BYTE   PEND 
//  #15 //008   ----------------------------------------
 BYTE   PATT
  POIN2 Label_0145E5F8
//  #15 //009   ----------------------------------------
 BYTE   PATT
  POIN2 Label_0145E612
//  #15 //010   ----------------------------------------
 BYTE   PATT
  POIN2 Label_0145E62B
//  #15 //011   ----------------------------------------
 BYTE   PATT
  POIN2 Label_0145E644
//  #15 //012   ----------------------------------------
 BYTE   PATT
  POIN2 Label_0145E65E
//  #15 //013   ----------------------------------------
Label_0145E6A8:
 BYTE   N01  Gn5  v036
 BYTE   W12
 BYTE   Dn5  v040
 BYTE   W12
 BYTE   Cn5  v044
 BYTE   W12
 BYTE   Gn5  v048
 BYTE   W12
 BYTE   Dn5
 BYTE   W12
 BYTE   Cn5  v056
 BYTE   W12
 BYTE   PEND 
Label_0145E6BB:
 BYTE   PAN   c_v-29
 BYTE   N01  Gn5  v056
 BYTE   W12
 BYTE   Dn5  v060
 BYTE   W12
//  #15 //014   ----------------------------------------
Label_0145E6C4:
 BYTE   N01  Cn5  v068
 BYTE   W12
 BYTE   Gn5  v072
 BYTE   W12
 BYTE   Dn5  v076
 BYTE   W12
 BYTE   Cn5  v080
 BYTE   W12
 BYTE   An5  v088
 BYTE   W12
 BYTE   En5  v084
 BYTE   W12
 BYTE   Dn5  v080
 BYTE   W12
 BYTE   An5  v076
 BYTE   W12
 BYTE   PEND 
//  #15 //015   ----------------------------------------
Label_0145E6DE:
 BYTE   N01  En5  v076
 BYTE   W12
 BYTE   Dn5  v072
 BYTE   W12
 BYTE   An5  v068
 BYTE   W12
 BYTE   En5
 BYTE   W12
 BYTE   Dn5  v064
 BYTE   W12
 BYTE   An5  v060
 BYTE   W12
 BYTE   En5
 BYTE   W12
 BYTE   Dn5  v056
 BYTE   W12
 BYTE   PEND 
//  #15 //016   ----------------------------------------
Label_0145E6F6:
 BYTE   N01  Gn5  v056
 BYTE   W12
 BYTE   Dn5  v060
 BYTE   W12
 BYTE   Cn5
 BYTE   W12
 BYTE   Gn5  v064
 BYTE   W12
 BYTE   Dn5  v068
 BYTE   W12
 BYTE   Cn5
 BYTE   W12
 BYTE   Gn5  v072
 BYTE   W12
 BYTE   Dn5  v076
 BYTE   W12
 BYTE   PEND 
//  #15 //017   ----------------------------------------
Label_0145E70E:
 BYTE   N01  Cn5  v080
 BYTE   W12
 BYTE   Gn5
 BYTE   W12
 BYTE   Dn5  v084
 BYTE   W12
 BYTE   Cn5  v088
 BYTE   W12
 BYTE   An5
 BYTE   W12
 BYTE   En5  v092
 BYTE   W12
 BYTE   Dn5  v088
 BYTE   W12
 BYTE   An5  v084
 BYTE   W12
 BYTE   PEND 
//  #15 //018   ----------------------------------------
Label_0145E726:
 BYTE   N01  En5  v080
 BYTE   W12
 BYTE   Dn5
 BYTE   W12
 BYTE   An5  v076
 BYTE   W12
 BYTE   En5  v072
 BYTE   W12
 BYTE   Dn5
 BYTE   W12
 BYTE   An5  v068
 BYTE   W12
 BYTE   En5  v064
 BYTE   W12
 BYTE   Dn5
 BYTE   W12
 BYTE   PEND 
//  #15 //019   ----------------------------------------
Label_0145E73D:
 BYTE   N01  Gn5  v060
 BYTE   W12
 BYTE   Dn5  v056
 BYTE   W12
 BYTE   Cn5  v060
 BYTE   W12
 BYTE   Gn5  v064
 BYTE   W12
 BYTE   Dn5  v068
 BYTE   W12
 BYTE   Cn5
 BYTE   W12
 BYTE   Gn5  v072
 BYTE   W12
 BYTE   Dn5  v076
 BYTE   W12
 BYTE   PEND 
//  #15 //020   ----------------------------------------
Label_0145E756:
 BYTE   N01  Cn5  v080
 BYTE   W12
 BYTE   Gn5
 BYTE   W12
 BYTE   Dn5  v084
 BYTE   W12
 BYTE   Cn5  v088
 BYTE   W12
 BYTE   An5  v092
 BYTE   W12
 BYTE   En5  v088
 BYTE   W12
 BYTE   Dn5  v084
 BYTE   W12
 BYTE   An5
 BYTE   W12
 BYTE   PEND 
//  #15 //021   ----------------------------------------
Label_0145E76E:
 BYTE   N01  En5  v080
 BYTE   W12
 BYTE   Dn5  v076
 BYTE   W12
 BYTE   An5  v072
 BYTE   W12
 BYTE   En5
 BYTE   W12
 BYTE   Dn5  v068
 BYTE   W12
 BYTE   An5  v064
 BYTE   W12
 BYTE   En5  v060
 BYTE   W12
 BYTE   Dn5
 BYTE   W12
 BYTE   PEND 
//  #15 //022   ----------------------------------------
Label_0145E786:
 BYTE   N01  Gn5  v056
 BYTE   W12
 BYTE   Dn5
 BYTE   W12
 BYTE   Cn5  v060
 BYTE   W12
 BYTE   Gn5  v064
 BYTE   W12
 BYTE   Dn5  v068
 BYTE   W12
 BYTE   Cn5
 BYTE   W12
 BYTE   Gn5  v072
 BYTE   W12
 BYTE   Dn5  v076
 BYTE   W12
 BYTE   PEND 
//  #15 //023   ----------------------------------------
Label_0145E79E:
 BYTE   N01  Cn5  v080
 BYTE   W12
 BYTE   Gn5
 BYTE   W12
 BYTE   Dn5  v084
 BYTE   W12
 BYTE   Cn5  v088
 BYTE   W12
 BYTE   An5  v092
 BYTE   W12
 BYTE   En5  v088
 BYTE   W12
 BYTE   Dn5
 BYTE   W12
 BYTE   An5  v084
 BYTE   W12
 BYTE   PEND 
//  #15 //024   ----------------------------------------
Label_0145E7B6:
 BYTE   N01  En5  v080
 BYTE   W12
 BYTE   Dn5  v076
 BYTE   W12
 BYTE   An5
 BYTE   W12
 BYTE   En5
 BYTE   W12
 BYTE   Dn5  v080
 BYTE   W12
 BYTE   An5  v084
 BYTE   W12
 BYTE   En5  v088
 BYTE   W12
 BYTE   Dn5  v092
 BYTE   W12
 BYTE   PEND 
//  #15 //025   ----------------------------------------
Label_0145E7CE:
 BYTE   PAN   c_v-64
 BYTE   N01  Gn5  v104
 BYTE   W12
 BYTE   Dn5
 BYTE   W12
 BYTE   Cn5
 BYTE   W12
 BYTE   Gn5
 BYTE   W12
 BYTE   Dn5
 BYTE   W12
 BYTE   Cn5
 BYTE   W12
 BYTE   Gn5
 BYTE   W12
 BYTE   Dn5
 BYTE   W12
 BYTE   PEND 
//  #15 //026   ----------------------------------------
Label_0145E7E3:
 BYTE   N01  Cn5  v104
 BYTE   W12
 BYTE   Gn5
 BYTE   W12
 BYTE   Dn5
 BYTE   W12
 BYTE   Cn5
 BYTE   W12
 BYTE   An5
 BYTE   W12
 BYTE   En5
 BYTE   W12
 BYTE   Dn5
 BYTE   W12
 BYTE   An5
 BYTE   W12
 BYTE   PEND 
//  #15 //027   ----------------------------------------
Label_0145E7F6:
 BYTE   N01  En5  v104
 BYTE   W12
 BYTE   Dn5
 BYTE   W12
 BYTE   An5
 BYTE   W12
 BYTE   En5
 BYTE   W12
 BYTE   Dn5
 BYTE   W12
 BYTE   An5
 BYTE   W12
 BYTE   En5
 BYTE   W12
 BYTE   Dn5
 BYTE   W12
 BYTE   PEND 
//  #15 //028   ----------------------------------------
Label_0145E809:
 BYTE   N01  Gn5  v104
 BYTE   W12
 BYTE   Dn5
 BYTE   W12
 BYTE   Cn5
 BYTE   W12
 BYTE   Gn5
 BYTE   W12
 BYTE   Dn5
 BYTE   W12
 BYTE   Cn5
 BYTE   W12
 BYTE   Gn5
 BYTE   W12
 BYTE   Dn5
 BYTE   W12
 BYTE   PEND 
//  #15 //029   ----------------------------------------
 BYTE   PATT
  POIN2 Label_0145E7E3
//  #15 //030   ----------------------------------------
 BYTE   PATT
  POIN2 Label_0145E7F6
//  #15 //031   ----------------------------------------
 BYTE   PATT
  POIN2 Label_0145E809
//  #15 //032   ----------------------------------------
 BYTE   PATT
  POIN2 Label_0145E7E3
//  #15 //033   ----------------------------------------
 BYTE   PATT
  POIN2 Label_0145E7F6
//  #15 //034   ----------------------------------------
 BYTE   PATT
  POIN2 Label_0145E809
//  #15 //035   ----------------------------------------
Label_0145E83A:
 BYTE   N01  Cn5  v104
 BYTE   W12
 BYTE   Gn5
 BYTE   W12
 BYTE   Dn5
 BYTE   W12
 BYTE   Cn5
 BYTE   W12
 BYTE   An5
 BYTE   W12
 BYTE   En5
 BYTE   W12
 BYTE   Dn5
 BYTE   W12
 BYTE   An5  v100
 BYTE   W12
 BYTE   PEND 
//  #15 //036   ----------------------------------------
Label_0145E84E:
 BYTE   N01  En5  v096
 BYTE   W12
 BYTE   Dn5  v088
 BYTE   W12
 BYTE   An5  v084
 BYTE   W12
 BYTE   En5  v080
 BYTE   W12
 BYTE   Dn5  v076
 BYTE   W12
 BYTE   An5  v068
 BYTE   W12
 BYTE   En5  v064
 BYTE   W12
 BYTE   Dn5  v060
 BYTE   W12
 BYTE   PEND 
//  #15 //037   ----------------------------------------
Label_0145E868:
 BYTE   PAN   c_v-28
 BYTE   N01  Bn5  v056
 BYTE   W12
 BYTE   An5  v060
 BYTE   W12
 BYTE   En5  v064
 BYTE   W12
 BYTE   Bn5
 BYTE   W12
 BYTE   An5  v068
 BYTE   W12
 BYTE   En5  v072
 BYTE   W12
 BYTE   Bn5
 BYTE   W12
 BYTE   An5  v076
 BYTE   W12
 BYTE   PEND 
//  #15 //038   ----------------------------------------
Label_0145E882:
 BYTE   N01  En5  v080
 BYTE   W12
 BYTE   Bn5
 BYTE   W12
 BYTE   An5  v084
 BYTE   W12
 BYTE   En5  v088
 BYTE   W12
 BYTE   Bn5
 BYTE   W12
 BYTE   An5  v084
 BYTE   W12
 BYTE   En5  v080
 BYTE   W12
 BYTE   Bn5
 BYTE   W12
 BYTE   PEND 
//  #15 //039   ----------------------------------------
Label_0145E899:
 BYTE   N01  An5  v076
 BYTE   W12
 BYTE   En5  v072
 BYTE   W12
 BYTE   Bn5  v068
 BYTE   W12
 BYTE   An5  v064
 BYTE   W12
 BYTE   En5
 BYTE   W12
 BYTE   Bn5  v060
 BYTE   W12
 BYTE   An5  v056
 BYTE   W12
 BYTE   En5
 BYTE   W12
 BYTE   PEND 
//  #15 //040   ----------------------------------------
Label_0145E8B1:
 BYTE   N01  An5  v052
 BYTE   W12
 BYTE   En5  v056
 BYTE   W12
 BYTE   Dn5
 BYTE   W12
 BYTE   An5
 BYTE   W12
 BYTE   En5  v060
 BYTE   W12
 BYTE   Dn5  v064
 BYTE   W12
 BYTE   An5
 BYTE   W12
 BYTE   En5  v068
 BYTE   W12
 BYTE   PEND 
//  #15 //041   ----------------------------------------
Label_0145E8C8:
 BYTE   N01  Dn5  v068
 BYTE   W12
 BYTE   An5  v072
 BYTE   W12
 BYTE   En5
 BYTE   W12
 BYTE   Dn5  v076
 BYTE   W12
 BYTE   An5
 BYTE   W12
 BYTE   En5
 BYTE   W12
 BYTE   Dn5
 BYTE   W12
 BYTE   An5  v072
 BYTE   W12
 BYTE   PEND 
//  #15 //042   ----------------------------------------
Label_0145E8DE:
 BYTE   N01  En5  v068
 BYTE   W12
 BYTE   Dn5  v064
 BYTE   W12
 BYTE   An5  v060
 BYTE   W12
 BYTE   En5  v056
 BYTE   W12
 BYTE   Dn5
 BYTE   W12
 BYTE   An5  v052
 BYTE   W12
 BYTE   En5  v048
 BYTE   W12
 BYTE   Dn5
 BYTE   W12
 BYTE   PEND 
//  #15 //043   ----------------------------------------
 BYTE   PATT
  POIN2 Label_0145E677
//  #15 //044   ----------------------------------------
 BYTE   PATT
  POIN2 Label_0145E5F8
//  #15 //045   ----------------------------------------
 BYTE   PATT
  POIN2 Label_0145E612
//  #15 //046   ----------------------------------------
 BYTE   PATT
  POIN2 Label_0145E62B
//  #15 //047   ----------------------------------------
 BYTE   PATT
  POIN2 Label_0145E644
//  #15 //048   ----------------------------------------
 BYTE   PATT
  POIN2 Label_0145E65E
//  #15 //049   ----------------------------------------
 BYTE   PATT
  POIN2 Label_0145E6A8
//  #15 //050   ----------------------------------------
 BYTE   GoTo
  POIN2 Label_0145E6BB
//  #15 //051   ----------------------------------------
 BYTE   N01  Gn5  v056
 BYTE   W12
 BYTE   Dn5  v060
 BYTE   W12
//  #15 //052   ----------------------------------------
 BYTE   PATT
  POIN2 Label_0145E6C4
//  #15 //053   ----------------------------------------
 BYTE   PATT
  POIN2 Label_0145E6DE
//  #15 //054   ----------------------------------------
 BYTE   PATT
  POIN2 Label_0145E6F6
//  #15 //055   ----------------------------------------
 BYTE   PATT
  POIN2 Label_0145E70E
//  #15 //056   ----------------------------------------
 BYTE   PATT
  POIN2 Label_0145E726
//  #15 //057   ----------------------------------------
 BYTE   PATT
  POIN2 Label_0145E73D
//  #15 //058   ----------------------------------------
 BYTE   PATT
  POIN2 Label_0145E756
//  #15 //059   ----------------------------------------
 BYTE   PATT
  POIN2 Label_0145E76E
//  #15 //060   ----------------------------------------
 BYTE   PATT
  POIN2 Label_0145E786
//  #15 //061   ----------------------------------------
 BYTE   PATT
  POIN2 Label_0145E79E
//  #15 //062   ----------------------------------------
 BYTE   PATT
  POIN2 Label_0145E7B6
//  #15 //063   ----------------------------------------
 BYTE   PATT
  POIN2 Label_0145E7CE
//  #15 //064   ----------------------------------------
 BYTE   PATT
  POIN2 Label_0145E7E3
//  #15 //065   ----------------------------------------
 BYTE   PATT
  POIN2 Label_0145E7F6
//  #15 //066   ----------------------------------------
 BYTE   PATT
  POIN2 Label_0145E809
//  #15 //067   ----------------------------------------
 BYTE   PATT
  POIN2 Label_0145E7E3
//  #15 //068   ----------------------------------------
 BYTE   PATT
  POIN2 Label_0145E7F6
//  #15 //069   ----------------------------------------
 BYTE   PATT
  POIN2 Label_0145E809
//  #15 //070   ----------------------------------------
 BYTE   PATT
  POIN2 Label_0145E7E3
//  #15 //071   ----------------------------------------
 BYTE   PATT
  POIN2 Label_0145E7F6
//  #15 //072   ----------------------------------------
 BYTE   PATT
  POIN2 Label_0145E809
//  #15 //073   ----------------------------------------
 BYTE   PATT
  POIN2 Label_0145E83A
//  #15 //074   ----------------------------------------
 BYTE   PATT
  POIN2 Label_0145E84E
//  #15 //075   ----------------------------------------
 BYTE   PATT
  POIN2 Label_0145E868
//  #15 //076   ----------------------------------------
 BYTE   PATT
  POIN2 Label_0145E882
//  #15 //077   ----------------------------------------
 BYTE   PATT
  POIN2 Label_0145E899
//  #15 //078   ----------------------------------------
 BYTE   PATT
  POIN2 Label_0145E8B1
//  #15 //079   ----------------------------------------
 BYTE   PATT
  POIN2 Label_0145E8C8
//  #15 //080   ----------------------------------------
 BYTE   PATT
  POIN2 Label_0145E8DE
//  #15 //081   ----------------------------------------
 BYTE   PATT
  POIN2 Label_0145E677
//  #15 //082   ----------------------------------------
 BYTE   PATT
  POIN2 Label_0145E5F8
//  #15 //083   ----------------------------------------
 BYTE   PATT
  POIN2 Label_0145E612
//  #15 //084   ----------------------------------------
 BYTE   PATT
  POIN2 Label_0145E62B
//  #15 //085   ----------------------------------------
 BYTE   PATT
  POIN2 Label_0145E644
//  #15 //086   ----------------------------------------
 BYTE   PATT
  POIN2 Label_0145E65E
//  #15 //087   ----------------------------------------
Label_0145E9D4:
 BYTE   N01  Gn5  v036
 BYTE   W12
 BYTE   Dn5  v040
 BYTE   W12
 BYTE   Cn5  v044
 BYTE   W12
 BYTE   Gn5  v048
 BYTE   W12
 BYTE   Dn5
 BYTE   W12
 BYTE   Cn5  v056
 BYTE   W12
 BYTE   Gn5
 BYTE   W12
 BYTE   Dn5  v060
 BYTE   W12
 BYTE   PEND 
//  #15 //088   ----------------------------------------
 BYTE   PATT
  POIN2 Label_0145E6C4
//  #15 //089   ----------------------------------------
 BYTE   PATT
  POIN2 Label_0145E6DE
//  #15 //090   ----------------------------------------
 BYTE   PATT
  POIN2 Label_0145E6F6
//  #15 //091   ----------------------------------------
 BYTE   PATT
  POIN2 Label_0145E70E
//  #15 //092   ----------------------------------------
 BYTE   PATT
  POIN2 Label_0145E726
//  #15 //093   ----------------------------------------
 BYTE   PATT
  POIN2 Label_0145E73D
//  #15 //094   ----------------------------------------
 BYTE   PATT
  POIN2 Label_0145E756
//  #15 //095   ----------------------------------------
 BYTE   PATT
  POIN2 Label_0145E76E
//  #15 //096   ----------------------------------------
 BYTE   PATT
  POIN2 Label_0145E786
//  #15 //097   ----------------------------------------
 BYTE   PATT
  POIN2 Label_0145E79E
//  #15 //098   ----------------------------------------
 BYTE   PATT
  POIN2 Label_0145E7B6
//  #15 //099   ----------------------------------------
 BYTE   PATT
  POIN2 Label_0145E7CE
//  #15 //100   ----------------------------------------
 BYTE   PATT
  POIN2 Label_0145E7E3
//  #15 //101   ----------------------------------------
 BYTE   PATT
  POIN2 Label_0145E7F6
//  #15 //102   ----------------------------------------
 BYTE   PATT
  POIN2 Label_0145E809
//  #15 //103   ----------------------------------------
 BYTE   PATT
  POIN2 Label_0145E7E3
//  #15 //104   ----------------------------------------
 BYTE   PATT
  POIN2 Label_0145E7F6
//  #15 //105   ----------------------------------------
 BYTE   PATT
  POIN2 Label_0145E809
//  #15 //106   ----------------------------------------
 BYTE   PATT
  POIN2 Label_0145E7E3
//  #15 //107   ----------------------------------------
 BYTE   PATT
  POIN2 Label_0145E7F6
//  #15 //108   ----------------------------------------
 BYTE   PATT
  POIN2 Label_0145E809
//  #15 //109   ----------------------------------------
 BYTE   PATT
  POIN2 Label_0145E83A
//  #15 //110   ----------------------------------------
 BYTE   PATT
  POIN2 Label_0145E84E
//  #15 //111   ----------------------------------------
 BYTE   PATT
  POIN2 Label_0145E868
//  #15 //112   ----------------------------------------
 BYTE   PATT
  POIN2 Label_0145E882
//  #15 //113   ----------------------------------------
 BYTE   PATT
  POIN2 Label_0145E899
//  #15 //114   ----------------------------------------
 BYTE   PATT
  POIN2 Label_0145E8B1
//  #15 //115   ----------------------------------------
 BYTE   PATT
  POIN2 Label_0145E8C8
//  #15 //116   ----------------------------------------
 BYTE   PATT
  POIN2 Label_0145E8DE
//  #15 //117   ----------------------------------------
 BYTE   PATT
  POIN2 Label_0145E677
//  #15 //118   ----------------------------------------
 BYTE   PATT
  POIN2 Label_0145E5F8
//  #15 //119   ----------------------------------------
 BYTE   PATT
  POIN2 Label_0145E612
//  #15 //120   ----------------------------------------
 BYTE   PATT
  POIN2 Label_0145E62B
//  #15 //121   ----------------------------------------
 BYTE   PATT
  POIN2 Label_0145E644
//  #15 //122   ----------------------------------------
 BYTE   PATT
  POIN2 Label_0145E65E
//  #15 //123   ----------------------------------------
 BYTE   PATT
  POIN2 Label_0145E9D4
//  #15 //124   ----------------------------------------
 BYTE   PATT
  POIN2 Label_0145E6C4
//  #15 //125   ----------------------------------------
 BYTE   PATT
  POIN2 Label_0145E6DE
//  #15 //126   ----------------------------------------
 BYTE   PATT
  POIN2 Label_0145E6F6
//  #15 //127   ----------------------------------------
 BYTE   PATT
  POIN2 Label_0145E70E
//  #15 //128   ----------------------------------------
 BYTE   PATT
  POIN2 Label_0145E726
//  #15 //129   ----------------------------------------
 BYTE   PATT
  POIN2 Label_0145E73D
//  #15 //130   ----------------------------------------
 BYTE   PATT
  POIN2 Label_0145E756
//  #15 //131   ----------------------------------------
 BYTE   PATT
  POIN2 Label_0145E76E
//  #15 //132   ----------------------------------------
 BYTE   PATT
  POIN2 Label_0145E786
//  #15 //133   ----------------------------------------
 BYTE   PATT
  POIN2 Label_0145E79E
//  #15 //134   ----------------------------------------
 BYTE   PATT
  POIN2 Label_0145E7B6
//  #15 //135   ----------------------------------------
 BYTE   PATT
  POIN2 Label_0145E7CE
//  #15 //136   ----------------------------------------
 BYTE   PATT
  POIN2 Label_0145E7E3
//  #15 //137   ----------------------------------------
 BYTE   PATT
  POIN2 Label_0145E7F6
//  #15 //138   ----------------------------------------
 BYTE   PATT
  POIN2 Label_0145E809
//  #15 //139   ----------------------------------------
 BYTE   PATT
  POIN2 Label_0145E7E3
//  #15 //140   ----------------------------------------
 BYTE   PATT
  POIN2 Label_0145E7F6
//  #15 //141   ----------------------------------------
 BYTE   PATT
  POIN2 Label_0145E809
//  #15 //142   ----------------------------------------
 BYTE   PATT
  POIN2 Label_0145E7E3
//  #15 //143   ----------------------------------------
 BYTE   PATT
  POIN2 Label_0145E7F6
//  #15 //144   ----------------------------------------
 BYTE   PATT
  POIN2 Label_0145E809
//  #15 //145   ----------------------------------------
 BYTE   PATT
  POIN2 Label_0145E83A
//  #15 //146   ----------------------------------------
 BYTE   PATT
  POIN2 Label_0145E84E
//  #15 //147   ----------------------------------------
 BYTE   PATT
  POIN2 Label_0145E868
//  #15 //148   ----------------------------------------
 BYTE   PATT
  POIN2 Label_0145E882
//  #15 //149   ----------------------------------------
 BYTE   PATT
  POIN2 Label_0145E899
//  #15 //150   ----------------------------------------
 BYTE   PATT
  POIN2 Label_0145E8B1
//  #15 //151   ----------------------------------------
 BYTE   PATT
  POIN2 Label_0145E8C8
//  #15 //152   ----------------------------------------
 BYTE   N01  En5  v068
 BYTE   W12
 BYTE   Dn5  v064
 BYTE   W12
 BYTE   An5  v060
 BYTE   W12
 BYTE   En5  v056
 BYTE   W12
 BYTE   Dn5
 BYTE   W12
 BYTE   An5  v052
 BYTE   W12
 BYTE   En5  v048
 BYTE   W12
 BYTE   Dn5
 BYTE   W01
 BYTE   FINE

//**************** Track 16 (Midi-Chn.15) ****************//

song09_016:
//  #16 //000   ----------------------------------------
 BYTE   KEYSH   song09_key+0
 BYTE   MODT 0
 BYTE   LFOS 44
 BYTE   W24
 BYTE   VOICE   10
 BYTE   VOL   30*song09_mvl/mxv
 BYTE   PAN   c_v+31
 BYTE   VOL   22*song09_mvl/mxv
 BYTE   PAN   c_v+38
 BYTE   W06
 BYTE   N01  En5  v020
 BYTE   W12
 BYTE   Dn5  v024
 BYTE   W12
 BYTE   Bn4
 BYTE   W12
 BYTE   En5  v028
 BYTE   W12
 BYTE   Dn5  v032
 BYTE   W12
 BYTE   Bn4  v036
 BYTE   W12
//  #16 //001   ----------------------------------------
 BYTE   En5
 BYTE   W12
 BYTE   Dn5  v044
 BYTE   W06
Label_0145EB6D:
 BYTE   W06
 BYTE   N01  Bn4  v048
 BYTE   W12
 BYTE   En5
 BYTE   W12
 BYTE   Dn5  v056
 BYTE   W12
 BYTE   Bn4
 BYTE   W12
 BYTE   En5  v060
 BYTE   W12
 BYTE   Dn5  v056
 BYTE   W12
//  #16 //002   ----------------------------------------
 BYTE   Bn4  v048
 BYTE   W12
 BYTE   En5
 BYTE   W06
 BYTE   PEND 
Label_0145EB85:
 BYTE   W06
 BYTE   N01  Dn5  v044
 BYTE   W12
 BYTE   Bn4  v040
 BYTE   W12
 BYTE   En5  v036
 BYTE   W12
 BYTE   Dn5  v032
 BYTE   W12
 BYTE   Bn4  v028
 BYTE   W12
 BYTE   En5  v024
 BYTE   W12
//  #16 //003   ----------------------------------------
 BYTE   Dn5
 BYTE   W12
 BYTE   Bn4  v020
 BYTE   W06
 BYTE   PEND 
Label_0145EB9F:
 BYTE   W06
 BYTE   N01  Dn5  v024
 BYTE   W12
 BYTE   Bn4
 BYTE   W12
 BYTE   An4  v028
 BYTE   W12
 BYTE   Dn5  v032
 BYTE   W12
 BYTE   Bn4  v036
 BYTE   W12
 BYTE   An4
 BYTE   W12
//  #16 //004   ----------------------------------------
 BYTE   Dn5  v044
 BYTE   W12
 BYTE   Bn4
 BYTE   W06
 BYTE   PEND 
Label_0145EBB7:
 BYTE   W06
 BYTE   N01  An4  v048
 BYTE   W12
 BYTE   Dn5  v052
 BYTE   W12
 BYTE   Bn4  v056
 BYTE   W12
 BYTE   An4  v060
 BYTE   W12
 BYTE   Dn5  v064
 BYTE   W12
 BYTE   Bn4  v056
 BYTE   W12
//  #16 //005   ----------------------------------------
 BYTE   An4  v052
 BYTE   W12
 BYTE   Dn5  v048
 BYTE   W06
 BYTE   PEND 
Label_0145EBD2:
 BYTE   W06
 BYTE   N01  Bn4  v044
 BYTE   W12
 BYTE   An4  v040
 BYTE   W12
 BYTE   Dn5  v036
 BYTE   W12
 BYTE   Bn4  v032
 BYTE   W12
 BYTE   An4  v028
 BYTE   W12
 BYTE   Dn5  v024
 BYTE   W12
//  #16 //006   ----------------------------------------
 BYTE   Bn4  v020
 BYTE   W12
 BYTE   An4  v016
 BYTE   W06
 BYTE   PEND 
Label_0145EBED:
 BYTE   W06
 BYTE   N01  En5  v020
 BYTE   W12
 BYTE   Dn5  v024
 BYTE   W12
 BYTE   Bn4
 BYTE   W12
 BYTE   En5  v028
 BYTE   W12
 BYTE   Dn5  v032
 BYTE   W12
 BYTE   Bn4  v036
 BYTE   W12
//  #16 //007   ----------------------------------------
 BYTE   En5
 BYTE   W12
 BYTE   Dn5  v044
 BYTE   W06
 BYTE   PEND 
//  #16 //008   ----------------------------------------
 BYTE   PATT
  POIN2 Label_0145EB6D
//  #16 //009   ----------------------------------------
 BYTE   PATT
  POIN2 Label_0145EB85
//  #16 //010   ----------------------------------------
 BYTE   PATT
  POIN2 Label_0145EB9F
//  #16 //011   ----------------------------------------
 BYTE   PATT
  POIN2 Label_0145EBB7
//  #16 //012   ----------------------------------------
 BYTE   PATT
  POIN2 Label_0145EBD2
//  #16 //013   ----------------------------------------
Label_0145EC1F:
 BYTE   W06
 BYTE   N01  Cn5  v036
 BYTE   W12
 BYTE   An4  v040
 BYTE   W12
 BYTE   Gn4  v044
 BYTE   W12
 BYTE   Cn5  v048
 BYTE   W12
 BYTE   An4  v052
 BYTE   W12
 BYTE   Gn4  v056
 BYTE   W06
 BYTE   PEND 
Label_0145EC34:
 BYTE   PAN   c_v+38
 BYTE   W06
 BYTE   N01  Cn5  v060
 BYTE   W12
 BYTE   An4  v064
 BYTE   W06
//  #16 //014   ----------------------------------------
Label_0145EC3E:
 BYTE   W06
 BYTE   N01  Gn4  v068
 BYTE   W12
 BYTE   Cn5  v072
 BYTE   W12
 BYTE   An4  v076
 BYTE   W12
 BYTE   An4  v084
 BYTE   W12
 BYTE   Dn5
 BYTE   W12
 BYTE   Bn4  v080
 BYTE   W12
 BYTE   An4
 BYTE   W12
 BYTE   Dn5  v076
 BYTE   W06
 BYTE   PEND 
//  #16 //015   ----------------------------------------
Label_0145EC57:
 BYTE   W06
 BYTE   N01  Bn4  v072
 BYTE   W12
 BYTE   An4
 BYTE   W12
 BYTE   Dn5  v068
 BYTE   W12
 BYTE   Bn4  v064
 BYTE   W12
 BYTE   An4
 BYTE   W12
 BYTE   Dn5  v060
 BYTE   W12
 BYTE   Bn4  v056
 BYTE   W12
 BYTE   An4
 BYTE   W06
 BYTE   PEND 
//  #16 //016   ----------------------------------------
Label_0145EC6F:
 BYTE   W06
 BYTE   N01  Cn5  v056
 BYTE   W12
 BYTE   An4  v060
 BYTE   W12
 BYTE   Gn4  v064
 BYTE   W12
 BYTE   Cn5
 BYTE   W12
 BYTE   An4  v068
 BYTE   W12
 BYTE   Gn4  v072
 BYTE   W12
 BYTE   Cn5  v076
 BYTE   W12
 BYTE   An4
 BYTE   W06
 BYTE   PEND 
//  #16 //017   ----------------------------------------
Label_0145EC88:
 BYTE   W06
 BYTE   N01  Gn4  v080
 BYTE   W12
 BYTE   Cn5  v084
 BYTE   W12
 BYTE   An4
 BYTE   W12
 BYTE   An4  v088
 BYTE   W12
 BYTE   Dn5  v092
 BYTE   W12
 BYTE   Bn4  v088
 BYTE   W12
 BYTE   An4
 BYTE   W12
 BYTE   Dn5  v084
 BYTE   W06
 BYTE   PEND 
//  #16 //018   ----------------------------------------
Label_0145ECA1:
 BYTE   W06
 BYTE   N01  Bn4  v080
 BYTE   W12
 BYTE   An4  v076
 BYTE   W12
 BYTE   Dn5
 BYTE   W12
 BYTE   Bn4  v072
 BYTE   W12
 BYTE   An4  v068
 BYTE   W12
 BYTE   Dn5
 BYTE   W12
 BYTE   Bn4  v064
 BYTE   W12
 BYTE   An4  v060
 BYTE   W06
 BYTE   PEND 
//  #16 //019   ----------------------------------------
 BYTE   PATT
  POIN2 Label_0145EC6F
//  #16 //020   ----------------------------------------
Label_0145ECBF:
 BYTE   W06
 BYTE   N01  Gn4  v080
 BYTE   W12
 BYTE   Cn5  v084
 BYTE   W12
 BYTE   An4
 BYTE   W12
 BYTE   An4  v088
 BYTE   W12
 BYTE   Dn5
 BYTE   W12
 BYTE   Bn4
 BYTE   W12
 BYTE   An4  v084
 BYTE   W12
 BYTE   Dn5  v080
 BYTE   W06
 BYTE   PEND 
//  #16 //021   ----------------------------------------
Label_0145ECD7:
 BYTE   W06
 BYTE   N01  Bn4  v076
 BYTE   W12
 BYTE   An4
 BYTE   W12
 BYTE   Dn5  v072
 BYTE   W12
 BYTE   Bn4  v068
 BYTE   W12
 BYTE   An4  v064
 BYTE   W12
 BYTE   Dn5
 BYTE   W12
 BYTE   Bn4  v060
 BYTE   W12
 BYTE   An4  v056
 BYTE   W06
 BYTE   PEND 
//  #16 //022   ----------------------------------------
Label_0145ECF0:
 BYTE   W06
 BYTE   N01  Cn5  v056
 BYTE   W12
 BYTE   An4  v060
 BYTE   W12
 BYTE   Gn4
 BYTE   W12
 BYTE   Cn5  v064
 BYTE   W12
 BYTE   An4  v068
 BYTE   W12
 BYTE   Gn4  v072
 BYTE   W12
 BYTE   Cn5  v076
 BYTE   W12
 BYTE   An4
 BYTE   W06
 BYTE   PEND 
//  #16 //023   ----------------------------------------
Label_0145ED09:
 BYTE   W06
 BYTE   N01  Gn4  v080
 BYTE   W12
 BYTE   Cn5  v084
 BYTE   W12
 BYTE   An4  v088
 BYTE   W12
 BYTE   N01
 BYTE   W12
 BYTE   Dn5  v092
 BYTE   W12
 BYTE   Bn4  v088
 BYTE   W12
 BYTE   An4  v084
 BYTE   W12
 BYTE   Dn5  v080
 BYTE   W06
 BYTE   PEND 
//  #16 //024   ----------------------------------------
Label_0145ED23:
 BYTE   W06
 BYTE   N01  Bn4  v080
 BYTE   W12
 BYTE   An4  v076
 BYTE   W12
 BYTE   Dn5
 BYTE   W12
 BYTE   Bn4  v080
 BYTE   W12
 BYTE   An4  v084
 BYTE   W12
 BYTE   Dn5  v088
 BYTE   W12
 BYTE   Bn4
 BYTE   W12
 BYTE   An4  v092
 BYTE   W06
 BYTE   PEND 
//  #16 //025   ----------------------------------------
Label_0145ED3C:
 BYTE   PAN   c_v+63
 BYTE   W06
 BYTE   N01  Cn5  v104
 BYTE   W12
 BYTE   An4
 BYTE   W12
 BYTE   Gn4
 BYTE   W12
 BYTE   Cn5
 BYTE   W12
 BYTE   An4
 BYTE   W12
 BYTE   Gn4
 BYTE   W12
 BYTE   Cn5
 BYTE   W12
 BYTE   An4
 BYTE   W06
 BYTE   PEND 
//  #16 //026   ----------------------------------------
Label_0145ED52:
 BYTE   W06
 BYTE   N01  Gn4  v104
 BYTE   W12
 BYTE   Cn5
 BYTE   W12
 BYTE   An4
 BYTE   W12
 BYTE   Gn4
 BYTE   W12
 BYTE   Dn5
 BYTE   W12
 BYTE   An4
 BYTE   W12
 BYTE   Fs4
 BYTE   W12
 BYTE   Dn5
 BYTE   W06
 BYTE   PEND 
//  #16 //027   ----------------------------------------
Label_0145ED66:
 BYTE   W06
 BYTE   N01  An4  v104
 BYTE   W12
 BYTE   Fs4
 BYTE   W12
 BYTE   Dn5
 BYTE   W12
 BYTE   An4
 BYTE   W12
 BYTE   Fs4
 BYTE   W12
 BYTE   Dn5
 BYTE   W12
 BYTE   An4
 BYTE   W12
 BYTE   Fs4
 BYTE   W06
 BYTE   PEND 
//  #16 //028   ----------------------------------------
Label_0145ED7A:
 BYTE   W06
 BYTE   N01  Cn5  v104
 BYTE   W12
 BYTE   An4
 BYTE   W12
 BYTE   Gn4
 BYTE   W12
 BYTE   Cn5
 BYTE   W12
 BYTE   An4
 BYTE   W12
 BYTE   Gn4
 BYTE   W12
 BYTE   Cn5
 BYTE   W12
 BYTE   An4
 BYTE   W06
 BYTE   PEND 
//  #16 //029   ----------------------------------------
 BYTE   PATT
  POIN2 Label_0145ED52
//  #16 //030   ----------------------------------------
 BYTE   PATT
  POIN2 Label_0145ED66
//  #16 //031   ----------------------------------------
 BYTE   PATT
  POIN2 Label_0145ED7A
//  #16 //032   ----------------------------------------
 BYTE   PATT
  POIN2 Label_0145ED52
//  #16 //033   ----------------------------------------
 BYTE   PATT
  POIN2 Label_0145ED66
//  #16 //034   ----------------------------------------
 BYTE   PATT
  POIN2 Label_0145ED7A
//  #16 //035   ----------------------------------------
Label_0145EDAC:
 BYTE   W06
 BYTE   N01  Gn4  v104
 BYTE   W12
 BYTE   Cn5
 BYTE   W12
 BYTE   An4
 BYTE   W12
 BYTE   Gn4
 BYTE   W12
 BYTE   Dn5
 BYTE   W12
 BYTE   An4
 BYTE   W12
 BYTE   Fs4
 BYTE   W12
 BYTE   Dn5  v100
 BYTE   W06
 BYTE   PEND 
//  #16 //036   ----------------------------------------
Label_0145EDC1:
 BYTE   W06
 BYTE   N01  An4  v092
 BYTE   W12
 BYTE   Fs4  v088
 BYTE   W12
 BYTE   Dn5  v084
 BYTE   W12
 BYTE   An4  v076
 BYTE   W12
 BYTE   Fs4  v072
 BYTE   W12
 BYTE   Dn5  v068
 BYTE   W12
 BYTE   An4  v064
 BYTE   W12
 BYTE   Fs4  v056
 BYTE   W06
 BYTE   PEND 
//  #16 //037   ----------------------------------------
Label_0145EDDC:
 BYTE   PAN   c_v+37
 BYTE   W06
 BYTE   N01  En5  v060
 BYTE   W12
 BYTE   Dn5  v064
 BYTE   W12
 BYTE   Bn4
 BYTE   W12
 BYTE   En5  v068
 BYTE   W12
 BYTE   Dn5
 BYTE   W12
 BYTE   Bn4  v072
 BYTE   W12
 BYTE   En5  v076
 BYTE   W12
 BYTE   Dn5
 BYTE   W06
 BYTE   PEND 
//  #16 //038   ----------------------------------------
Label_0145EDF6:
 BYTE   W06
 BYTE   N01  Bn4  v080
 BYTE   W12
 BYTE   En5  v084
 BYTE   W12
 BYTE   Dn5
 BYTE   W12
 BYTE   Bn4  v088
 BYTE   W12
 BYTE   En5
 BYTE   W12
 BYTE   Dn5  v084
 BYTE   W12
 BYTE   Bn4  v080
 BYTE   W12
 BYTE   En5  v076
 BYTE   W06
 BYTE   PEND 
//  #16 //039   ----------------------------------------
Label_0145EE0F:
 BYTE   W06
 BYTE   N01  Dn5  v072
 BYTE   W12
 BYTE   Bn4
 BYTE   W12
 BYTE   En5  v068
 BYTE   W12
 BYTE   Dn5  v064
 BYTE   W12
 BYTE   Bn4  v060
 BYTE   W12
 BYTE   En5  v056
 BYTE   W12
 BYTE   Dn5
 BYTE   W12
 BYTE   Bn4  v052
 BYTE   W06
 BYTE   PEND 
//  #16 //040   ----------------------------------------
Label_0145EE28:
 BYTE   W06
 BYTE   N01  Dn5  v052
 BYTE   W12
 BYTE   Bn4  v056
 BYTE   W12
 BYTE   An4
 BYTE   W12
 BYTE   Dn5  v060
 BYTE   W12
 BYTE   Bn4
 BYTE   W12
 BYTE   An4  v064
 BYTE   W12
 BYTE   Dn5
 BYTE   W12
 BYTE   Bn4  v068
 BYTE   W06
 BYTE   PEND 
//  #16 //041   ----------------------------------------
Label_0145EE40:
 BYTE   W06
 BYTE   N01  An4  v068
 BYTE   W12
 BYTE   Dn5  v072
 BYTE   W12
 BYTE   Bn4  v076
 BYTE   W12
 BYTE   An4
 BYTE   W12
 BYTE   Dn5  v080
 BYTE   W12
 BYTE   Bn4  v076
 BYTE   W12
 BYTE   An4  v072
 BYTE   W12
 BYTE   Dn5  v068
 BYTE   W06
 BYTE   PEND 
//  #16 //042   ----------------------------------------
Label_0145EE5A:
 BYTE   W06
 BYTE   N01  Bn4  v064
 BYTE   W12
 BYTE   An4
 BYTE   W12
 BYTE   Dn5  v060
 BYTE   W12
 BYTE   Bn4  v056
 BYTE   W12
 BYTE   An4  v052
 BYTE   W12
 BYTE   Dn5
 BYTE   W12
 BYTE   Bn4  v048
 BYTE   W12
 BYTE   An4  v044
 BYTE   W06
 BYTE   PEND 
//  #16 //043   ----------------------------------------
 BYTE   PATT
  POIN2 Label_0145EBED
//  #16 //044   ----------------------------------------
 BYTE   PATT
  POIN2 Label_0145EB6D
//  #16 //045   ----------------------------------------
 BYTE   PATT
  POIN2 Label_0145EB85
//  #16 //046   ----------------------------------------
 BYTE   PATT
  POIN2 Label_0145EB9F
//  #16 //047   ----------------------------------------
 BYTE   PATT
  POIN2 Label_0145EBB7
//  #16 //048   ----------------------------------------
 BYTE   PATT
  POIN2 Label_0145EBD2
//  #16 //049   ----------------------------------------
 BYTE   PATT
  POIN2 Label_0145EC1F
//  #16 //050   ----------------------------------------
 BYTE   GoTo
  POIN2 Label_0145EC34
//  #16 //051   ----------------------------------------
 BYTE   W06
 BYTE   N01  Cn5  v060
 BYTE   W12
 BYTE   An4  v064
 BYTE   W06
//  #16 //052   ----------------------------------------
 BYTE   PATT
  POIN2 Label_0145EC3E
//  #16 //053   ----------------------------------------
 BYTE   PATT
  POIN2 Label_0145EC57
//  #16 //054   ----------------------------------------
 BYTE   PATT
  POIN2 Label_0145EC6F
//  #16 //055   ----------------------------------------
 BYTE   PATT
  POIN2 Label_0145EC88
//  #16 //056   ----------------------------------------
 BYTE   PATT
  POIN2 Label_0145ECA1
//  #16 //057   ----------------------------------------
 BYTE   PATT
  POIN2 Label_0145EC6F
//  #16 //058   ----------------------------------------
 BYTE   PATT
  POIN2 Label_0145ECBF
//  #16 //059   ----------------------------------------
 BYTE   PATT
  POIN2 Label_0145ECD7
//  #16 //060   ----------------------------------------
 BYTE   PATT
  POIN2 Label_0145ECF0
//  #16 //061   ----------------------------------------
 BYTE   PATT
  POIN2 Label_0145ED09
//  #16 //062   ----------------------------------------
 BYTE   PATT
  POIN2 Label_0145ED23
//  #16 //063   ----------------------------------------
 BYTE   PATT
  POIN2 Label_0145ED3C
//  #16 //064   ----------------------------------------
 BYTE   PATT
  POIN2 Label_0145ED52
//  #16 //065   ----------------------------------------
 BYTE   PATT
  POIN2 Label_0145ED66
//  #16 //066   ----------------------------------------
 BYTE   PATT
  POIN2 Label_0145ED7A
//  #16 //067   ----------------------------------------
 BYTE   PATT
  POIN2 Label_0145ED52
//  #16 //068   ----------------------------------------
 BYTE   PATT
  POIN2 Label_0145ED66
//  #16 //069   ----------------------------------------
 BYTE   PATT
  POIN2 Label_0145ED7A
//  #16 //070   ----------------------------------------
 BYTE   PATT
  POIN2 Label_0145ED52
//  #16 //071   ----------------------------------------
 BYTE   PATT
  POIN2 Label_0145ED66
//  #16 //072   ----------------------------------------
 BYTE   PATT
  POIN2 Label_0145ED7A
//  #16 //073   ----------------------------------------
 BYTE   PATT
  POIN2 Label_0145EDAC
//  #16 //074   ----------------------------------------
 BYTE   PATT
  POIN2 Label_0145EDC1
//  #16 //075   ----------------------------------------
 BYTE   PATT
  POIN2 Label_0145EDDC
//  #16 //076   ----------------------------------------
 BYTE   PATT
  POIN2 Label_0145EDF6
//  #16 //077   ----------------------------------------
 BYTE   PATT
  POIN2 Label_0145EE0F
//  #16 //078   ----------------------------------------
 BYTE   PATT
  POIN2 Label_0145EE28
//  #16 //079   ----------------------------------------
 BYTE   PATT
  POIN2 Label_0145EE40
//  #16 //080   ----------------------------------------
 BYTE   PATT
  POIN2 Label_0145EE5A
//  #16 //081   ----------------------------------------
 BYTE   PATT
  POIN2 Label_0145EBED
//  #16 //082   ----------------------------------------
 BYTE   PATT
  POIN2 Label_0145EB6D
//  #16 //083   ----------------------------------------
 BYTE   PATT
  POIN2 Label_0145EB85
//  #16 //084   ----------------------------------------
 BYTE   PATT
  POIN2 Label_0145EB9F
//  #16 //085   ----------------------------------------
 BYTE   PATT
  POIN2 Label_0145EBB7
//  #16 //086   ----------------------------------------
 BYTE   PATT
  POIN2 Label_0145EBD2
//  #16 //087   ----------------------------------------
Label_0145EF52:
 BYTE   W06
 BYTE   N01  Cn5  v036
 BYTE   W12
 BYTE   An4  v040
 BYTE   W12
 BYTE   Gn4  v044
 BYTE   W12
 BYTE   Cn5  v048
 BYTE   W12
 BYTE   An4  v052
 BYTE   W12
 BYTE   Gn4  v056
 BYTE   W12
 BYTE   Cn5  v060
 BYTE   W12
 BYTE   An4  v064
 BYTE   W06
 BYTE   PEND 
//  #16 //088   ----------------------------------------
 BYTE   PATT
  POIN2 Label_0145EC3E
//  #16 //089   ----------------------------------------
 BYTE   PATT
  POIN2 Label_0145EC57
//  #16 //090   ----------------------------------------
 BYTE   PATT
  POIN2 Label_0145EC6F
//  #16 //091   ----------------------------------------
 BYTE   PATT
  POIN2 Label_0145EC88
//  #16 //092   ----------------------------------------
 BYTE   PATT
  POIN2 Label_0145ECA1
//  #16 //093   ----------------------------------------
 BYTE   PATT
  POIN2 Label_0145EC6F
//  #16 //094   ----------------------------------------
 BYTE   PATT
  POIN2 Label_0145ECBF
//  #16 //095   ----------------------------------------
 BYTE   PATT
  POIN2 Label_0145ECD7
//  #16 //096   ----------------------------------------
 BYTE   PATT
  POIN2 Label_0145ECF0
//  #16 //097   ----------------------------------------
 BYTE   PATT
  POIN2 Label_0145ED09
//  #16 //098   ----------------------------------------
 BYTE   PATT
  POIN2 Label_0145ED23
//  #16 //099   ----------------------------------------
 BYTE   PATT
  POIN2 Label_0145ED3C
//  #16 //100   ----------------------------------------
 BYTE   PATT
  POIN2 Label_0145ED52
//  #16 //101   ----------------------------------------
 BYTE   PATT
  POIN2 Label_0145ED66
//  #16 //102   ----------------------------------------
 BYTE   PATT
  POIN2 Label_0145ED7A
//  #16 //103   ----------------------------------------
 BYTE   PATT
  POIN2 Label_0145ED52
//  #16 //104   ----------------------------------------
 BYTE   PATT
  POIN2 Label_0145ED66
//  #16 //105   ----------------------------------------
 BYTE   PATT
  POIN2 Label_0145ED7A
//  #16 //106   ----------------------------------------
 BYTE   PATT
  POIN2 Label_0145ED52
//  #16 //107   ----------------------------------------
 BYTE   PATT
  POIN2 Label_0145ED66
//  #16 //108   ----------------------------------------
 BYTE   PATT
  POIN2 Label_0145ED7A
//  #16 //109   ----------------------------------------
 BYTE   PATT
  POIN2 Label_0145EDAC
//  #16 //110   ----------------------------------------
 BYTE   PATT
  POIN2 Label_0145EDC1
//  #16 //111   ----------------------------------------
 BYTE   PATT
  POIN2 Label_0145EDDC
//  #16 //112   ----------------------------------------
 BYTE   PATT
  POIN2 Label_0145EDF6
//  #16 //113   ----------------------------------------
 BYTE   PATT
  POIN2 Label_0145EE0F
//  #16 //114   ----------------------------------------
 BYTE   PATT
  POIN2 Label_0145EE28
//  #16 //115   ----------------------------------------
 BYTE   PATT
  POIN2 Label_0145EE40
//  #16 //116   ----------------------------------------
 BYTE   PATT
  POIN2 Label_0145EE5A
//  #16 //117   ----------------------------------------
 BYTE   PATT
  POIN2 Label_0145EBED
//  #16 //118   ----------------------------------------
 BYTE   PATT
  POIN2 Label_0145EB6D
//  #16 //119   ----------------------------------------
 BYTE   PATT
  POIN2 Label_0145EB85
//  #16 //120   ----------------------------------------
 BYTE   PATT
  POIN2 Label_0145EB9F
//  #16 //121   ----------------------------------------
 BYTE   PATT
  POIN2 Label_0145EBB7
//  #16 //122   ----------------------------------------
 BYTE   PATT
  POIN2 Label_0145EBD2
//  #16 //123   ----------------------------------------
 BYTE   PATT
  POIN2 Label_0145EF52
//  #16 //124   ----------------------------------------
 BYTE   PATT
  POIN2 Label_0145EC3E
//  #16 //125   ----------------------------------------
 BYTE   PATT
  POIN2 Label_0145EC57
//  #16 //126   ----------------------------------------
 BYTE   PATT
  POIN2 Label_0145EC6F
//  #16 //127   ----------------------------------------
 BYTE   PATT
  POIN2 Label_0145EC88
//  #16 //128   ----------------------------------------
 BYTE   PATT
  POIN2 Label_0145ECA1
//  #16 //129   ----------------------------------------
 BYTE   PATT
  POIN2 Label_0145EC6F
//  #16 //130   ----------------------------------------
 BYTE   PATT
  POIN2 Label_0145ECBF
//  #16 //131   ----------------------------------------
 BYTE   PATT
  POIN2 Label_0145ECD7
//  #16 //132   ----------------------------------------
 BYTE   PATT
  POIN2 Label_0145ECF0
//  #16 //133   ----------------------------------------
 BYTE   PATT
  POIN2 Label_0145ED09
//  #16 //134   ----------------------------------------
 BYTE   PATT
  POIN2 Label_0145ED23
//  #16 //135   ----------------------------------------
 BYTE   PATT
  POIN2 Label_0145ED3C
//  #16 //136   ----------------------------------------
 BYTE   PATT
  POIN2 Label_0145ED52
//  #16 //137   ----------------------------------------
 BYTE   PATT
  POIN2 Label_0145ED66
//  #16 //138   ----------------------------------------
 BYTE   PATT
  POIN2 Label_0145ED7A
//  #16 //139   ----------------------------------------
 BYTE   PATT
  POIN2 Label_0145ED52
//  #16 //140   ----------------------------------------
 BYTE   PATT
  POIN2 Label_0145ED66
//  #16 //141   ----------------------------------------
 BYTE   PATT
  POIN2 Label_0145ED7A
//  #16 //142   ----------------------------------------
 BYTE   PATT
  POIN2 Label_0145ED52
//  #16 //143   ----------------------------------------
 BYTE   PATT
  POIN2 Label_0145ED66
//  #16 //144   ----------------------------------------
 BYTE   PATT
  POIN2 Label_0145ED7A
//  #16 //145   ----------------------------------------
 BYTE   PATT
  POIN2 Label_0145EDAC
//  #16 //146   ----------------------------------------
 BYTE   PATT
  POIN2 Label_0145EDC1
//  #16 //147   ----------------------------------------
 BYTE   PATT
  POIN2 Label_0145EDDC
//  #16 //148   ----------------------------------------
 BYTE   PATT
  POIN2 Label_0145EDF6
//  #16 //149   ----------------------------------------
 BYTE   PATT
  POIN2 Label_0145EE0F
//  #16 //150   ----------------------------------------
 BYTE   PATT
  POIN2 Label_0145EE28
//  #16 //151   ----------------------------------------
 BYTE   PATT
  POIN2 Label_0145EE40
//  #16 //152   ----------------------------------------
 BYTE   W06
 BYTE   N01  Bn4  v064
 BYTE   W12
 BYTE   An4
 BYTE   W12
 BYTE   Dn5  v060
 BYTE   W12
 BYTE   Bn4  v056
 BYTE   W12
 BYTE   An4  v052
 BYTE   W12
 BYTE   Dn5
 BYTE   W12
 BYTE   Bn4  v048
 BYTE   W12
 BYTE   An4  v044
 BYTE   W01
 BYTE   FINE

//******************************************************//
	ALIGN 4

song09:
	BYTE	16	// NumTrks
	BYTE	0	// NumBlks
	BYTE	song09_pri	// Priority
	BYTE	song09_rev	// Reverb.
    
	POIN2	song09_grp
    
	POIN2	song09_001
	POIN2	song09_002
	POIN2	song09_003
	POIN2	song09_004
	POIN2	song09_005
	POIN2	song09_006
	POIN2	song09_007
	POIN2	song09_008
	POIN2	song09_009
	POIN2	song09_010
	POIN2	song09_011
	POIN2	song09_012
	POIN2	song09_013
	POIN2	song09_014
	POIN2	song09_015
	POIN2	song09_016

	
